<?xml version="1.0" encoding="utf-8"?>
<!-- Generator: Adobe Illustrator 16.0.0, SVG Export Plug-In . SVG Version: 6.00 Build 0)  -->
<!DOCTYPE svg PUBLIC "-//W3C//DTD SVG 1.1//EN" "http://www.w3.org/Graphics/SVG/1.1/DTD/svg11.dtd">
<svg version="1.1" xmlns="http://www.w3.org/2000/svg" xmlns:xlink="http://www.w3.org/1999/xlink" x="0px" y="0px" width="36px"
	 height="36px" viewBox="0 0 36 36" enable-background="new 0 0 36 36" xml:space="preserve">
<g id="Layer_2">
	<path fill="#FFFFFF" d="M34.576,6.616C30.252,6.617,25.93,6.529,21.607,6.48c-2.156-0.024-4.312-0.041-6.468-0.038
		c-1.063,0.001-2.132,0.053-3.193,0.124c-0.434,0.028-0.858,0.016-0.883,0.524c0,0.012,0.005,0.023,0.009,0.036
		c-0.288,0.474-0.493,0.989-0.601,1.529c-0.086-0.068-0.198-0.106-0.33-0.087C8.547,8.79,6.87,8.478,5.261,8.592
		c-0.015,0.001-0.03,0.002-0.044,0.003c-0.729-0.156-1.566-0.059-2.2,0.109C2.548,8.828,1.983,9.145,1.577,9.57
		C1.479,9.653,1.4,9.751,1.338,9.862c-0.207,0.3-0.327,0.638-0.286,0.99c0.005,0.043,0.041,0.068,0.076,0.067
		c0.001,0.438,0.064,0.886,0.092,1.229c0.125,1.534,0.515,3.064,0.875,4.557c0.931,3.848,1.703,7.838,3.102,11.547
		c0.12,0.316,0.526,0.303,0.668,0.094c3.66,1.111,7.38,0.766,11.155,0.523c4.035-0.258,8.077,0.18,12.112,0.206
		c0.271,0.03,0.557,0.008,0.829,0.007c0.07,0,0.128-0.018,0.176-0.047c0.07-0.002,0.139-0.002,0.208-0.004
		c0.064,0.007,0.117-0.008,0.159-0.033c0.07,0.01,0.143-0.002,0.201-0.032c0.149,0.026,0.302-0.028,0.388-0.207
		c1.729-3.606,2.04-7.698,2.793-11.566c0.449-2.305,0.479-4.674,0.686-7.005c0.064-0.741,0.154-1.481,0.239-2.22
		c0.03-0.252,0.069-0.48,0.06-0.705C35.043,7.037,34.947,6.616,34.576,6.616z M29.188,28.386c-4.058-0.025-8.108-0.436-12.167-0.216
		c-2.078,0.112-4.138,0.325-6.224,0.279c-1.012-0.021-1.999-0.112-2.996-0.285c-0.634-0.11-1.282-0.207-1.919-0.135
		c-0.648-1.904-1.067-3.873-1.489-5.836c-0.361-1.683-0.84-3.332-1.285-4.993c-0.604-2.258-1.225-4.648-1.358-6.993
		c0.378-0.34,0.751-0.66,1.294-0.799c0.301-0.078,0.62-0.119,0.944-0.141C4.177,9.28,4.369,9.287,4.56,9.287
		c0.047,0.063,0.119,0.112,0.216,0.124c1.18,0.15,2.428,0.108,3.63,0.008c0.63,0.033,1.257,0.033,1.871-0.056
		c0.149,0.565,0.319,1.121,0.518,1.674c0.111,0.31,0.231,0.715,0.479,0.94c0.009,0,0.017,0,0.025,0
		c0.649,0.867,2.294,0.641,3.198,0.562c0.371-0.032,0.74-0.074,1.108-0.122c0.4,0.012,0.801,0.021,1.201,0.023
		c1.125,0.004,2.249,0.006,3.373,0.026c1.195,0.021,2.441,0.122,3.63-0.006c0.018-0.001,0.033-0.006,0.05-0.01
		c-0.01,0.852,0.336,1.705,0.651,2.487c0.527,1.305,1.186,2.551,1.677,3.87c1.206,3.248,2.572,6.406,3.904,9.602
		c-0.039-0.016-0.08-0.025-0.13-0.025C29.707,28.383,29.443,28.365,29.188,28.386z M33.172,16.324
		c-0.299,2.052-0.695,4.107-1.08,6.146c-0.354,1.867-0.781,3.755-1.558,5.5c-1.235-2.956-2.546-5.875-3.473-8.952
		c-0.711-2.358-1.894-4.586-2.837-6.868c0.082-0.248-0.056-0.559-0.415-0.599c-1.092-0.12-2.224-0.056-3.322-0.083
		c-1.128-0.027-2.25-0.083-3.375-0.158c-1.094-0.073-2.187-0.112-3.283-0.151c-0.64-0.023-1.454-0.089-2.084,0.182
		c-0.117-0.26-0.291-0.512-0.397-0.74c-0.108-0.232-0.205-0.466-0.304-0.698c0.035-0.053,0.054-0.12,0.045-0.203
		c-0.092-0.908,0.157-1.848,0.53-2.677c0.119,0.008,0.244,0.026,0.328,0.03c0.531,0.025,1.062,0.039,1.591,0.057
		c0.963,0.033,1.924,0.042,2.887,0.051c2.053,0.016,4.105,0.052,6.157,0.089c3.918,0.072,7.835,0.142,11.754,0.149
		c-0.263,0.667-0.331,1.51-0.438,2.213C33.556,11.84,33.496,14.096,33.172,16.324z"/>
</g>
<g id="Layer_1">
</g>
</svg>
