<?xml version="1.0" encoding="utf-8"?>
<!-- Generator: Adobe Illustrator 16.0.0, SVG Export Plug-In . SVG Version: 6.00 Build 0)  -->
<!DOCTYPE svg PUBLIC "-//W3C//DTD SVG 1.1//EN" "http://www.w3.org/Graphics/SVG/1.1/DTD/svg11.dtd">
<svg version="1.1" id="Layer_2" xmlns="http://www.w3.org/2000/svg" xmlns:xlink="http://www.w3.org/1999/xlink" x="0px" y="0px"
	 width="36px" height="36px" viewBox="0 0 36 36" enable-background="new 0 0 36 36" xml:space="preserve">
<g>
	<path fill="#FFFFFF" d="M18.507,7.208C17.439,6.958,16.308,7,15.271,7.358c-1.111,0.383-1.953,1.168-2.646,2.093
		c-2.172,2.898-2.262,6.545-0.834,9.792c0.383,0.87,0.889,1.688,1.313,2.54c0.494,0.991,0.93,2.009,1.297,3.055
		c0.256,0.729,0.326,1.451,0.518,2.19c0.105,0.406,0.309,0.789,0.67,0.968c0.002,0.029,0.016,0.057,0.044,0.072
		c0.728,0.393,1.548,0.348,2.347,0.23c0.452-0.065,0.892-0.19,1.336-0.293c0.42-0.097,0.881-0.088,1.269-0.276
		c0.003-0.001,0.003-0.003,0.007-0.005c0.322,0.427,0.709,0.815,0.33,1.281c-0.062,0-0.119,0.042-0.123,0.119
		c0,0.003,0,0.006,0,0.008c-0.551,0.507-1.457,0.668-2.172,0.75c-1.028,0.119-3.894,0.129-3.115-1.635
		c0.035-0.079-0.065-0.14-0.116-0.068c-0.374,0.521-0.352,1.049,0.02,1.447c-0.488,0.686-0.644,1.552-0.167,2.24
		c-0.324,1.229,0.812,2.124,2.072,2.23c0.757,0.065,1.586-0.196,2.215-0.605c0.445-0.289,1.242-1.101,1.162-1.74
		c0.038-0.035,0.074-0.07,0.109-0.107c0.496-0.525,0.865-1.664,0.436-2.349c0.523-0.598,0.234-1.521-0.42-1.925
		c0.006-0.009,0.01-0.019,0.014-0.031c0.154-0.683,0.162-1.363,0.241-2.057c0.089-0.783,0.288-1.555,0.521-2.306
		c0.43-1.405,1.045-2.747,1.604-4.104c0.936-2.277,1.879-4.789,0.795-7.195C23.012,9.492,20.832,7.753,18.507,7.208z M20.025,32.285
		c-0.15,0.3-0.39,0.551-0.655,0.75c-0.512,0.382-1.159,0.567-1.791,0.601c-0.58,0.03-1.209-0.053-1.674-0.427
		c-0.355-0.287-0.467-0.697-0.479-1.123c0.009,0.01,0.017,0.02,0.026,0.029c0.663,0.664,1.759,0.795,2.646,0.713
		c0.667-0.062,1.356-0.248,1.946-0.59C20.038,32.254,20.033,32.27,20.025,32.285z M20.947,30.388
		c-0.035,0.376-0.25,0.719-0.505,0.987c-0.591,0.621-1.513,0.907-2.344,0.994c-0.768,0.078-1.629,0.016-2.278-0.439
		c-0.161-0.115-0.279-0.25-0.363-0.398c0.005-0.041,0.01-0.081,0.015-0.121c0.003-0.02-0.023-0.035-0.035-0.016
		c-0.01,0.018-0.017,0.035-0.026,0.053c-0.252-0.532-0.121-1.222,0.03-1.793c0.092,0.094,0.205,0.18,0.337,0.256
		c0.832,0.48,1.924,0.48,2.849,0.388c0.739-0.073,1.59-0.237,2.231-0.671C20.908,29.874,20.973,30.12,20.947,30.388z M17.159,26.516
		c0.002-0.016,0.005-0.03,0.008-0.045c0.017,0.01,0.034,0.016,0.052,0.02c0.265,0.043,0.608,0.097,0.768,0.343
		c0.157,0.24-0.677,0.411-0.782,0.431c-0.033,0.006-0.063,0.021-0.09,0.043C17.119,27.043,17.116,26.779,17.159,26.516z
		 M17.516,26.082c0.039-0.264,0.142-0.505,0.283-0.736c0.115,0.309,0.243,0.619,0.401,0.902c0.021,0.037,0.044,0.075,0.066,0.112
		C18.064,26.201,17.775,26.121,17.516,26.082z M17.72,25.143c0.001-0.002,0.002-0.003,0.003-0.005
		c0.001,0.002,0.002,0.003,0.002,0.005C17.723,25.143,17.721,25.143,17.72,25.143z M18.141,25.559
		c-0.025-0.08-0.052-0.16-0.08-0.238c0.393,0.312,0.475,0.827,0.548,1.363C18.482,26.301,18.261,25.945,18.141,25.559z
		 M17.061,27.897c0.009-0.021,0.016-0.042,0.02-0.067s0.006-0.049,0.008-0.074c0.033,0.053,0.067,0.096,0.103,0.127
		C17.148,27.888,17.104,27.893,17.061,27.897z M17.854,27.777c0.003-0.029-0.001-0.059-0.013-0.083
		c-0.006-0.013-0.014-0.022-0.022-0.033c0.379-0.146,0.729-0.397,0.701-0.833c0-0.016-0.003-0.029-0.005-0.044
		c0.141,0.343-0.076,0.651-0.295,0.91C18.096,27.725,17.975,27.752,17.854,27.777z M18.299,27.676
		c0.165-0.17,0.332-0.375,0.367-0.605c0.026,0.16,0.059,0.317,0.106,0.468c-0.155,0.048-0.304,0.093-0.441,0.13
		C18.32,27.67,18.31,27.672,18.299,27.676z M22.428,19.327c-0.544,1.259-1.098,2.514-1.504,3.825
		c-0.395,1.274-0.803,2.859-0.373,4.165c-0.006-0.003-0.014-0.008-0.021-0.01c-0.341-0.101-0.743-0.046-1.143,0.053
		c0.009-0.636-0.114-1.452-0.498-1.956c-0.216-0.435-0.609-0.715-1.088-0.859c-0.062-0.307,0.056-0.439,0.258-0.716
		c0.206-0.281,0.415-0.666,0.102-0.946c-0.118-0.105-0.299-0.154-0.443-0.209c-0.297-0.112-0.178-0.575-0.176-0.842
		c0.003-0.504,0.041-0.901,0.192-1.383c0.235-0.752-0.156-1.045-0.815-1.072c0.151-0.441,0.662-0.689,0.838-1.12
		c0.17-0.416-0.181-0.877-0.425-1.185c-0.16-0.202-0.074-0.201,0.013-0.482c0.093-0.302,0.202-0.597,0.277-0.905
		c0.104-0.425,0.145-1.016-0.27-1.281c-0.118-0.077-0.256,0.048-0.226,0.173c0.067,0.276,0.157,0.493,0.136,0.786
		c-0.02,0.296-0.133,0.596-0.223,0.876c-0.07,0.219-0.323,0.747-0.119,0.953c0.149,0.152,0.274,0.323,0.384,0.504
		c0.22,0.361,0.052,0.535-0.188,0.805c-0.275,0.312-0.549,0.622-0.587,1.049c-0.008,0.092,0.085,0.18,0.174,0.175
		c0.398-0.021,0.864-0.046,0.759,0.472c-0.062,0.297-0.184,0.576-0.227,0.879c-0.058,0.405-0.001,0.852,0.002,1.261
		c0.002,0.304-0.002,0.458,0.306,0.58c0.234,0.093,0.624,0.134,0.418,0.562c-0.088,0.184-0.243,0.342-0.358,0.51
		c-0.117,0.169-0.125,0.351-0.09,0.532c-0.041,0.014-0.078,0.033-0.104,0.066c-0.659,0.805-1.205,2.199-0.851,3.242
		c0.012,0.035,0.034,0.066,0.06,0.094c-0.207,0.006-0.416,0.003-0.632-0.01c-0.013-0.014-0.028-0.024-0.052-0.029
		c-0.627-0.143-0.726-0.838-0.786-1.381c-0.07-0.631-0.167-1.161-0.371-1.771c-0.479-1.438-1.121-2.816-1.816-4.16
		c-0.677-1.312-1.277-2.576-1.547-4.041c-0.257-1.396-0.167-2.843,0.245-4.199c0.412-1.358,1.238-2.688,2.292-3.642
		c0.924-0.835,2.166-1.177,3.39-1.139c2.567,0.08,5.07,1.988,6.155,4.254C24.69,14.295,23.426,17.014,22.428,19.327z"/>
</g>
</svg>
