<?xml version="1.0" encoding="utf-8"?>
<!-- Generator: Adobe Illustrator 16.0.0, SVG Export Plug-In . SVG Version: 6.00 Build 0)  -->
<!DOCTYPE svg PUBLIC "-//W3C//DTD SVG 1.1//EN" "http://www.w3.org/Graphics/SVG/1.1/DTD/svg11.dtd">
<svg version="1.1" id="Layer_1" xmlns="http://www.w3.org/2000/svg" xmlns:xlink="http://www.w3.org/1999/xlink" x="0px" y="0px"
	 width="36px" height="36px" viewBox="0 0 36 36" enable-background="new 0 0 36 36" xml:space="preserve">
<g id="Layer_1_1_">
	<g>
		<path d="M18.63,6.951c-1.068-0.25-2.199-0.208-3.236,0.149c-1.111,0.382-1.953,1.168-2.646,2.093
			c-2.173,2.898-2.263,6.546-0.835,9.793c0.383,0.872,0.889,1.688,1.313,2.539c0.494,0.992,0.929,2.008,1.297,3.057
			c0.255,0.727,0.326,1.449,0.517,2.189c0.105,0.406,0.309,0.789,0.671,0.967c0.001,0.03,0.016,0.057,0.044,0.074
			c0.728,0.392,1.549,0.346,2.347,0.23c0.451-0.067,0.893-0.191,1.337-0.294c0.421-0.097,0.881-0.088,1.269-0.276
			c0.002-0.002,0.004-0.003,0.008-0.005c0.322,0.427,0.709,0.815,0.328,1.281c-0.061,0-0.117,0.042-0.121,0.12
			c0,0.002,0,0.005,0,0.007c-0.552,0.506-1.459,0.668-2.174,0.751c-1.029,0.119-3.893,0.128-3.115-1.635
			c0.035-0.08-0.064-0.141-0.116-0.069c-0.375,0.521-0.352,1.05,0.02,1.446c-0.488,0.686-0.644,1.553-0.168,2.242
			c-0.324,1.229,0.812,2.123,2.072,2.23c0.758,0.064,1.587-0.197,2.217-0.606c0.444-0.288,1.241-1.101,1.162-1.74
			c0.037-0.035,0.073-0.07,0.108-0.107c0.496-0.525,0.865-1.665,0.436-2.349c0.523-0.598,0.234-1.521-0.42-1.925
			c0.006-0.009,0.01-0.019,0.014-0.031c0.154-0.683,0.163-1.362,0.242-2.057c0.088-0.782,0.287-1.554,0.52-2.306
			c0.432-1.405,1.045-2.748,1.604-4.104c0.936-2.278,1.879-4.789,0.797-7.195C23.133,9.234,20.957,7.496,18.63,6.951z
			 M20.148,32.027c-0.15,0.3-0.391,0.551-0.655,0.75c-0.513,0.381-1.16,0.568-1.792,0.602c-0.58,0.029-1.208-0.055-1.674-0.429
			c-0.355-0.286-0.467-0.696-0.478-1.122c0.009,0.01,0.016,0.019,0.026,0.029c0.663,0.662,1.759,0.794,2.646,0.711
			c0.667-0.061,1.356-0.246,1.948-0.588C20.162,31.996,20.156,32.012,20.148,32.027z M21.07,30.131
			c-0.035,0.376-0.249,0.719-0.505,0.986c-0.593,0.622-1.514,0.908-2.345,0.994c-0.769,0.08-1.63,0.017-2.278-0.439
			c-0.161-0.113-0.278-0.249-0.364-0.398c0.004-0.041,0.01-0.081,0.015-0.119c0.003-0.021-0.023-0.037-0.035-0.016
			c-0.01,0.018-0.017,0.033-0.026,0.053c-0.252-0.533-0.122-1.223,0.029-1.793c0.092,0.093,0.205,0.179,0.337,0.254
			c0.832,0.482,1.924,0.48,2.849,0.389c0.74-0.074,1.592-0.237,2.231-0.672C21.033,29.617,21.098,29.863,21.07,30.131z
			 M17.281,26.258c0.003-0.016,0.006-0.029,0.009-0.046c0.016,0.011,0.034,0.019,0.051,0.021c0.266,0.042,0.609,0.096,0.769,0.342
			c0.158,0.24-0.678,0.412-0.783,0.432c-0.032,0.007-0.062,0.021-0.09,0.043C17.242,26.785,17.239,26.521,17.281,26.258z
			 M17.64,25.822c0.038-0.262,0.141-0.504,0.282-0.734c0.115,0.309,0.242,0.62,0.4,0.902c0.021,0.037,0.043,0.076,0.067,0.113
			C18.187,25.943,17.899,25.863,17.64,25.822z M17.843,24.884c0.001-0.002,0.002-0.003,0.004-0.005c0,0.002,0,0.003,0.001,0.005
			C17.847,24.884,17.845,24.884,17.843,24.884z M18.263,25.301c-0.025-0.081-0.052-0.16-0.08-0.239
			c0.393,0.312,0.474,0.827,0.547,1.362C18.606,26.044,18.384,25.686,18.263,25.301z M17.184,27.639
			c0.009-0.018,0.017-0.041,0.02-0.066c0.002-0.023,0.005-0.049,0.008-0.072c0.033,0.053,0.067,0.094,0.103,0.126
			C17.271,27.631,17.227,27.636,17.184,27.639z M17.977,27.52c0.003-0.029,0-0.057-0.013-0.084
			c-0.006-0.012-0.015-0.021-0.022-0.031c0.379-0.146,0.728-0.4,0.701-0.835c0-0.016-0.004-0.028-0.006-0.044
			c0.141,0.343-0.074,0.653-0.294,0.91C18.219,27.468,18.097,27.495,17.977,27.52z M18.422,27.418
			c0.164-0.17,0.332-0.375,0.366-0.605c0.026,0.161,0.06,0.318,0.107,0.469c-0.155,0.048-0.304,0.094-0.441,0.129
			C18.443,27.412,18.432,27.414,18.422,27.418z M22.551,19.068c-0.544,1.26-1.097,2.514-1.503,3.826
			c-0.395,1.273-0.804,2.86-0.372,4.164c-0.008-0.002-0.016-0.008-0.021-0.01c-0.34-0.102-0.742-0.045-1.143,0.055
			c0.009-0.637-0.114-1.453-0.498-1.958c-0.217-0.433-0.61-0.716-1.088-0.859c-0.062-0.306,0.056-0.438,0.258-0.716
			c0.206-0.279,0.414-0.665,0.102-0.945c-0.117-0.105-0.298-0.154-0.443-0.209c-0.298-0.111-0.177-0.576-0.175-0.842
			c0.003-0.505,0.042-0.902,0.192-1.384c0.235-0.753-0.156-1.044-0.816-1.069c0.151-0.441,0.662-0.691,0.839-1.122
			c0.17-0.416-0.181-0.878-0.426-1.186c-0.16-0.202-0.074-0.201,0.014-0.482c0.094-0.302,0.203-0.598,0.277-0.904
			c0.104-0.426,0.145-1.016-0.27-1.282c-0.118-0.077-0.256,0.048-0.226,0.174c0.067,0.276,0.156,0.493,0.136,0.787
			c-0.02,0.296-0.133,0.596-0.223,0.875c-0.07,0.219-0.323,0.747-0.119,0.953c0.15,0.151,0.274,0.322,0.384,0.505
			c0.22,0.361,0.051,0.535-0.187,0.805c-0.276,0.312-0.548,0.621-0.587,1.05c-0.008,0.091,0.085,0.179,0.175,0.173
			c0.397-0.018,0.864-0.045,0.758,0.471c-0.061,0.299-0.183,0.577-0.226,0.881c-0.058,0.404,0,0.852,0.002,1.261
			c0.002,0.304-0.002,0.457,0.306,0.58c0.233,0.093,0.624,0.134,0.418,0.562c-0.088,0.183-0.243,0.342-0.358,0.51
			c-0.116,0.17-0.126,0.351-0.09,0.532c-0.041,0.016-0.078,0.033-0.105,0.067c-0.658,0.804-1.206,2.196-0.851,3.241
			c0.013,0.035,0.033,0.066,0.059,0.094c-0.206,0.008-0.416,0.004-0.632-0.008c-0.013-0.016-0.028-0.025-0.052-0.03
			c-0.627-0.143-0.726-0.839-0.787-1.38c-0.07-0.631-0.167-1.162-0.371-1.771c-0.479-1.438-1.121-2.816-1.815-4.161
			c-0.677-1.312-1.277-2.576-1.547-4.042c-0.258-1.395-0.167-2.843,0.245-4.199c0.412-1.358,1.237-2.688,2.291-3.642
			C15,7.598,16.243,7.256,17.467,7.294c2.568,0.079,5.07,1.988,6.155,4.254C24.814,14.039,23.549,16.756,22.551,19.068z"/>
		<path d="M15.549,18.506c-0.186,0.051-0.365,0.041-0.542-0.04c-0.121-0.054-0.203-0.171-0.342-0.17
			c-0.045,0.001-0.089,0.04-0.086,0.086c0.01,0.194,0.227,0.276,0.385,0.335c0.205,0.078,0.438,0.062,0.642-0.006
			C15.733,18.669,15.681,18.473,15.549,18.506z"/>
		<path d="M15.621,17.247c-0.107-0.108-0.187-0.24-0.262-0.371c-0.083-0.146-0.144-0.304-0.197-0.464
			c-0.049-0.152-0.062-0.284-0.181-0.398c-0.072-0.07-0.176-0.032-0.209,0.056c-0.106,0.281,0.137,0.651,0.278,0.885
			c0.079,0.131,0.176,0.253,0.279,0.367c0.051,0.057,0.108,0.106,0.166,0.155c0.058,0.05,0.11,0.022,0.181,0.05
			c0.059,0.022,0.089-0.057,0.056-0.096C15.681,17.368,15.683,17.31,15.621,17.247z"/>
		<path d="M15.7,14.96c-0.244-0.595-0.292-1.183-0.284-1.82c0.001-0.076-0.112-0.092-0.132-0.018
			c-0.165,0.637,0.087,1.291,0.398,1.846C15.688,14.977,15.705,14.97,15.7,14.96z"/>
		<path d="M17.129,11.469c-0.578,0.332-0.619,1.107-0.478,1.688c0.018,0.073,0.141,0.058,0.132-0.018
			c-0.031-0.278-0.017-0.54,0.065-0.808c0.081-0.269,0.273-0.496,0.399-0.745C17.285,11.511,17.208,11.423,17.129,11.469z"/>
		<path d="M19.738,13.172c0.031-0.049-0.02-0.115-0.076-0.099c-0.246,0.075-0.467,0.329-0.661,0.493
			c-0.251,0.211-0.48,0.456-0.694,0.705c-0.008,0.01,0.003,0.021,0.013,0.014c0.233-0.196,0.485-0.364,0.725-0.55
			C19.263,13.566,19.587,13.406,19.738,13.172z"/>
		<path d="M20.631,15.353c-0.342-0.182-0.876,0.104-1.193,0.239c-0.066,0.027-0.044,0.129,0.03,0.111
			c0.179-0.044,0.356-0.085,0.538-0.115c0.205-0.033,0.442,0.002,0.625-0.102C20.681,15.457,20.682,15.379,20.631,15.353z"/>
		<path d="M19.908,17.326c-0.17-0.001-0.321-0.034-0.479-0.092c-0.163-0.059-0.33-0.051-0.428-0.223
			c-0.005-0.005-0.013,0-0.011,0.005c0.078,0.148,0.154,0.285,0.272,0.406c0.155,0.157,0.438,0.183,0.646,0.191
			C20.094,17.622,20.094,17.327,19.908,17.326z"/>
		<path d="M18.807,18.543c-0.074-0.037-0.162,0.061-0.094,0.121c0.27,0.234,0.553,0.459,0.811,0.705
			c0.152,0.148,0.389-0.092,0.23-0.23C19.468,18.883,19.15,18.714,18.807,18.543z"/>
		<path d="M9.722,20.764c-0.335-0.217-0.736-0.068-1.109,0.002c-0.562,0.105-1.13,0.221-1.699,0.283
			c-0.073,0.008-0.094,0.11-0.018,0.133c0.486,0.145,0.885,0.132,1.386,0.076c0.442-0.051,1.075,0.021,1.441-0.244
			C9.812,20.948,9.819,20.828,9.722,20.764z"/>
		<path d="M8.771,17.818c0.118-0.049,0.118-0.192,0-0.241c-0.446-0.186-1.051-0.066-1.533-0.091
			c-0.571-0.03-1.141-0.093-1.685-0.272c-0.032-0.01-0.049,0.036-0.022,0.053c0.455,0.281,0.95,0.462,1.48,0.536
			C7.531,17.875,8.28,18.022,8.771,17.818z"/>
		<path d="M6.171,13.011c0.402,0.269,0.784,0.572,1.177,0.854c0.347,0.25,0.743,0.625,1.198,0.543
			c0.085-0.015,0.123-0.128,0.08-0.198c-0.216-0.357-0.715-0.507-1.062-0.715c-0.427-0.257-0.836-0.514-1.303-0.696
			C6.133,12.75,6.07,12.941,6.171,13.011z"/>
		<path d="M8.397,8.961c0.235,0.312,0.585,0.883,1.024,0.873c0.093-0.002,0.137-0.095,0.1-0.173
			C9.421,9.453,9.207,9.339,9.044,9.184C8.849,8.999,8.68,8.787,8.51,8.581C8.185,8.188,7.882,7.816,7.405,7.61
			C7.341,7.583,7.259,7.663,7.323,7.716C7.744,8.066,8.07,8.526,8.397,8.961z"/>
		<path d="M11.356,6.331c0.083-0.368-0.118-0.695-0.268-1.022C10.88,4.852,10.631,4.425,10.4,3.981
			c-0.042-0.082-0.156-0.022-0.141,0.06c0.087,0.449,0.236,0.85,0.408,1.273c0.144,0.355,0.213,0.797,0.497,1.068
			C11.224,6.438,11.337,6.418,11.356,6.331z"/>
		<path d="M14.136,4.829c0.06,0.026,0.125,0.027,0.174-0.023c0.205-0.206,0.07-0.488,0.017-0.739
			c-0.081-0.391-0.15-0.79-0.193-1.186c-0.021-0.196-0.291-0.2-0.307,0c-0.033,0.383-0.031,0.75,0.019,1.132
			C13.879,4.277,13.853,4.707,14.136,4.829z"/>
		<path d="M17.736,4.768c0.226-0.354,0.169-0.831,0.212-1.238c0.05-0.478,0.062-0.875-0.045-1.346c-0.011-0.047-0.081-0.045-0.093,0
			c-0.127,0.483-0.229,0.955-0.317,1.447c-0.066,0.381-0.181,0.787,0.027,1.136C17.569,4.851,17.687,4.846,17.736,4.768z"/>
		<path d="M20.701,5.953c0.384-0.318,0.559-1.074,0.718-1.537c0.206-0.61,0.366-1.235,0.418-1.877
			c0.011-0.119-0.187-0.146-0.206-0.028c-0.111,0.61-0.329,1.185-0.58,1.75c-0.206,0.467-0.636,1.064-0.613,1.583
			C20.445,5.985,20.598,6.038,20.701,5.953z"/>
		<path d="M25.312,4.209c-0.347,0.476-0.693,0.957-0.996,1.462c-0.262,0.437-0.688,1.018-0.677,1.54
			c0.004,0.132,0.153,0.181,0.246,0.101c0.387-0.328,0.553-0.985,0.781-1.436c0.268-0.526,0.506-1.067,0.779-1.591
			C25.492,4.198,25.37,4.13,25.312,4.209z"/>
		<path d="M27.543,6.523c-0.469,0.313-0.784,0.851-1.117,1.292c-0.229,0.302-0.471,0.595-0.709,0.891
			c-0.176,0.219-0.299,0.318-0.256,0.599c0.009,0.066,0.086,0.113,0.147,0.113c0.501-0.008,0.866-0.867,1.101-1.237
			c0.318-0.503,0.727-1.054,0.842-1.651C27.551,6.525,27.547,6.521,27.543,6.523z"/>
		<path d="M27.833,11.042c0.319-0.331,0.667-0.632,0.994-0.952c0.021-0.02,0.013-0.05-0.009-0.064
			c-0.018-0.013-0.039-0.031-0.062-0.047c0.015-0.007,0.03-0.017,0.044-0.027c0.006-0.003,0-0.013-0.006-0.009
			c-0.016,0.009-0.031,0.019-0.047,0.029c-0.026-0.018-0.055-0.032-0.081-0.034c-0.021-0.001-0.024,0.025-0.011,0.036
			c0.02,0.015,0.039,0.02,0.059,0.019c-0.361,0.213-0.711,0.447-1.035,0.717c-0.309,0.254-0.758,0.613-0.826,1.029
			c-0.016,0.104,0.08,0.201,0.184,0.142C27.358,11.694,27.578,11.308,27.833,11.042z"/>
		<path d="M32.219,13.101c-0.709-0.026-1.396,0.079-2.075,0.283c-0.431,0.13-1.466,0.545-1.248,1.159
			c0.024,0.067,0.091,0.116,0.165,0.094c0.211-0.064,0.33-0.236,0.48-0.388c0.254-0.259,0.635-0.398,0.969-0.514
			c0.576-0.199,1.186-0.264,1.728-0.562C32.271,13.153,32.256,13.103,32.219,13.101z"/>
		<path d="M31.771,17.442c-0.69-0.261-1.492-0.167-2.208-0.078c-0.418,0.052-1.569,0.223-1.594,0.79
			c-0.002,0.06,0.047,0.128,0.107,0.139c0.246,0.047,0.395-0.118,0.618-0.212c0.337-0.142,0.716-0.217,1.073-0.284
			c0.664-0.125,1.365-0.056,2.003-0.299C31.796,17.487,31.796,17.453,31.771,17.442z"/>
		<path d="M27.344,21.017c-0.113-0.022-0.186,0.126-0.081,0.193c0.859,0.53,1.886,0.907,2.903,0.826
			c0.007-0.002,0.01-0.011,0.002-0.013C29.156,21.878,28.33,21.203,27.344,21.017z"/>
	</g>
</g>
</svg>
