<?xml version="1.0" encoding="utf-8"?>
<!-- Generator: Adobe Illustrator 16.0.0, SVG Export Plug-In . SVG Version: 6.00 Build 0)  -->
<!DOCTYPE svg PUBLIC "-//W3C//DTD SVG 1.1//EN" "http://www.w3.org/Graphics/SVG/1.1/DTD/svg11.dtd">
<svg version="1.1" xmlns="http://www.w3.org/2000/svg" xmlns:xlink="http://www.w3.org/1999/xlink" x="0px" y="0px" width="36px"
	 height="36px" viewBox="0 0 36 36" enable-background="new 0 0 36 36" xml:space="preserve">
<g id="Layer_2">
	<g>
		<path fill="#FFFFFF" d="M27.595,6.827c-0.604-2.489-2.747-4.737-5.101-5.649c-3.221-1.248-6.85,0.214-9.337,2.398
			c-0.04-0.012-0.079-0.021-0.118-0.028c-0.083-0.014-0.168,0.068-0.116,0.151c0.011,0.018,0.024,0.036,0.036,0.053
			C12.82,3.88,12.684,4.009,12.553,4.14c-0.915,0.918-1.682,2.049-2.159,3.263c-0.065,0.026-0.084,0.098-0.059,0.154
			c-0.326,0.88-0.497,1.8-0.461,2.711C9.7,10.386,9.534,10.51,9.38,10.637c-0.118,0.097,0.032,0.268,0.156,0.202
			c0.124-0.065,0.245-0.135,0.363-0.207c0.095,0.921,0.411,1.826,1.005,2.665c-0.005,0.083,0.036,0.167,0.128,0.18
			c0.961,0.133,1.913-0.154,2.792-0.528c0.174-0.074,0.196-0.312,0.12-0.458c-1.004-1.927-0.49-3.899,1.254-5.165
			c0.811-0.588,1.813-1.004,2.842-1.154c0.027,0.029,0.054,0.06,0.084,0.087c0.042,0.038,0.115-0.011,0.081-0.062
			c-0.009-0.013-0.017-0.028-0.025-0.042c0.776-0.095,1.563-0.039,2.289,0.213c1.353,0.469,1.878,1.759,1.755,3.036
			c-0.067,0-0.134-0.002-0.201-0.001c-0.05,0.001-0.049,0.074,0,0.078c0.064,0.004,0.127,0.012,0.19,0.018
			c-0.06,0.489-0.214,0.973-0.453,1.405c-0.229,0.415-0.511,0.799-0.821,1.164c-0.062-0.028-0.122-0.056-0.184-0.083
			c-0.045-0.02-0.083,0.042-0.039,0.067c0.054,0.029,0.107,0.058,0.16,0.087c-1.176,1.348-2.795,2.406-4.082,3.56
			c-0.055,0.049-0.109,0.099-0.164,0.148c-0.139-0.008-0.274-0.011-0.4-0.006c-0.05,0.002-0.05,0.074,0,0.077
			c0.099,0.007,0.195,0.018,0.291,0.031c-1.909,1.785-3.375,3.965-3.277,6.689c0.005,0.133,0.072,0.298,0.204,0.355
			c0.744,0.324,1.568,0.37,2.375,0.377c0.086,0.291,0.47,0.49,0.708,0.212c0.675-0.791,1.507-1.435,2.142-2.262
			c0.633-0.825,1.528-1.741,2.323-2.538c1.795-1.798,3.637-3.555,5.076-5.663C27.33,11.276,28.137,9.057,27.595,6.827z
			 M12.849,11.544c-0.453,0.519-1.224,0.738-1.827,1.014c-0.134,0.062-0.017,0.271,0.117,0.201c0.594-0.31,1.325-0.563,1.737-1.115
			c0.085,0.294,0.194,0.583,0.328,0.864c-0.664,0.304-1.345,0.454-2.065,0.599c-0.487-0.954-0.658-1.931-0.584-2.889
			c0.551-0.347,1.111-0.655,1.813-0.701c0.099-0.006,0.101-0.156,0-0.155c-0.594,0.01-1.207,0.201-1.772,0.482
			c0.102-0.713,0.334-1.413,0.667-2.083c0.29,0.024,0.583,0.042,0.864,0.094c0.401,0.074,0.795,0.186,1.186,0.302
			c-0.008,0.013-0.017,0.024-0.025,0.037C12.628,9.238,12.548,10.422,12.849,11.544z M13.443,7.963
			c-0.597-0.226-1.294-0.502-1.969-0.601c0.605-1.069,1.459-2.049,2.428-2.867c0.133,0.08,0.262,0.158,0.377,0.24
			C14.837,5.128,15.372,5.551,15.884,6C14.924,6.445,14.054,7.105,13.443,7.963z M17.841,5.406
			c-0.089-0.257-0.166-0.519-0.247-0.753c-0.169-0.489-0.258-1.372-0.638-1.732c-0.058-0.055-0.179-0.039-0.194,0.051
			c-0.093,0.56,0.417,1.401,0.623,1.918c0.071,0.179,0.14,0.37,0.22,0.558c-0.225,0.044-0.445,0.097-0.658,0.158
			c-0.308,0.087-0.613,0.198-0.91,0.327c-0.448-0.452-0.918-0.878-1.405-1.289c-0.133-0.111-0.28-0.249-0.438-0.388
			c1.079-0.855,2.279-1.509,3.426-1.866c1.219-0.379,2.462-0.438,3.624-0.162c0.017,0.5,0.082,0.993,0.008,1.507
			c-0.093,0.646-0.258,1.234-0.57,1.811c-0.007,0.011-0.009,0.022-0.009,0.033C19.785,5.269,18.779,5.253,17.841,5.406z
			 M14.062,22.357c0.002-1.213,0.315-2.236,0.823-3.142c0.435,0.078,0.866,0.193,1.29,0.306c0.252,0.065,0.517,0.187,0.782,0.269
			c-0.609,0.831-1.049,1.742-1.143,2.759C15.228,22.551,14.608,22.541,14.062,22.357z M17.238,19.425
			c-0.305-0.128-0.661-0.183-0.965-0.257c-0.435-0.105-0.854-0.135-1.282-0.133c0.635-1.057,1.536-1.953,2.515-2.809
			c0.025,0.012,0.049,0.022,0.074,0.034c0.484,0.236,0.749,0.661,1.153,0.978c0.073,0.057,0.208,0.008,0.172-0.101
			c-0.18-0.544-0.656-0.884-1.204-1.081c0.553-0.475,1.126-0.94,1.688-1.415c0.404,0.061,0.761,0.252,1.089,0.558
			c0.208,0.194,0.327,0.424,0.431,0.66c-0.231,0.209-0.462,0.419-0.69,0.631C19.264,17.377,18.122,18.332,17.238,19.425z
			 M25.91,10.162c-0.462,1.215-1.461,2.28-2.348,3.197c-0.748,0.773-1.547,1.496-2.344,2.219c-0.197-0.314-0.462-0.596-0.694-0.784
			c-0.265-0.214-0.581-0.32-0.908-0.345c0.708-0.607,1.388-1.234,1.972-1.924c0.152,0.083,0.305,0.167,0.458,0.25
			c0.378,0.206,0.834,0.576,1.266,0.631c0.095,0.012,0.129-0.118,0.073-0.176c-0.291-0.301-0.867-0.445-1.244-0.617
			c-0.151-0.069-0.303-0.138-0.453-0.207c0.26-0.316,0.5-0.646,0.713-0.993c0.332-0.541,0.548-1.163,0.629-1.799
			c0.74,0.143,1.471,0.369,2.176,0.606c0.174,0.059,0.25-0.218,0.075-0.273c-0.73-0.231-1.475-0.415-2.231-0.498
			c0.082-0.897-0.105-1.809-0.611-2.551c0.481-0.03,0.946-0.154,1.353-0.437c0.437-0.303,0.971-0.968,0.925-1.527
			c-0.01-0.118-0.148-0.155-0.216-0.059c-0.136,0.191-0.178,0.417-0.276,0.629c-0.119,0.256-0.299,0.475-0.502,0.668
			c-0.372,0.353-0.863,0.533-1.363,0.613c-0.121-0.163-0.258-0.317-0.412-0.46c-0.343-0.316-0.737-0.547-1.161-0.708
			c0.003-0.002,0.006-0.004,0.008-0.007c0.643-0.868,1.093-2.132,0.911-3.255c0.914,0.293,1.768,0.802,2.499,1.541
			C25.906,5.619,26.801,7.824,25.91,10.162z"/>
		<path fill="#FFFFFF" d="M15.101,26.532c-1.535-0.691-3.217-0.249-3.675,1.494c-0.021,0.078-0.004,0.159,0.034,0.229
			c-0.137,0.149-0.265,0.309-0.382,0.474c-0.014,0.003-0.028,0.015-0.022,0.031l0,0c-0.908,1.297-1.162,3.001-0.081,4.371
			c0.021,0.026,0.043,0.05,0.064,0.075c-0.005,0.007-0.01,0.014-0.014,0.021c-0.043,0.062,0.048,0.122,0.099,0.076
			c0.457,0.486,1.076,0.778,1.724,0.962c-0.202,0.286-0.391,0.579-0.558,0.88c-0.049,0.088,0.071,0.187,0.142,0.109
			c0.263-0.29,0.51-0.594,0.75-0.904c0.267,0.06,0.535,0.104,0.795,0.139c1.057,0.138,2.162,0.115,3.131-0.372
			c1.551-0.78,1.609-2.697,1.067-4.129C17.632,28.552,16.521,27.173,15.101,26.532z M16.609,29.938
			c-0.342-0.399-0.695-0.791-0.989-1.205c-0.028-0.04-0.095-0.004-0.067,0.038c0.31,0.478,0.64,0.964,0.986,1.438
			c-0.281,0.256-0.556,0.517-0.826,0.785c-0.578-0.481-1.094-1.002-1.535-1.592c0.357-0.357,0.729-0.703,1.111-1.04
			c0.055,0.045,0.11,0.092,0.166,0.142C15.871,28.879,16.291,29.383,16.609,29.938z M15.289,28.361
			c-0.389,0.322-0.76,0.668-1.116,1.032c-0.37-0.496-0.686-1.041-0.94-1.65C13.933,27.607,14.605,27.804,15.289,28.361z
			 M12.507,28.154c0.116-0.114,0.239-0.219,0.368-0.315c0.047-0.017,0.095-0.03,0.142-0.044c0.233,0.646,0.54,1.271,0.92,1.845
			c-0.07,0.074-0.141,0.147-0.209,0.223c0.07-0.073,0.141-0.146,0.212-0.218c0.412,0.619,0.911,1.175,1.496,1.623
			c-0.23,0.235-0.457,0.475-0.681,0.718c-0.152,0.168-0.307,0.338-0.461,0.509c-0.567-0.47-1.096-0.933-1.573-1.432
			c0.322-0.411,0.657-0.814,1.007-1.2c-0.359,0.378-0.704,0.768-1.039,1.166c-0.422-0.444-0.804-0.92-1.137-1.457
			C11.795,29.019,12.143,28.514,12.507,28.154z M11.475,29.762c0.268,0.554,0.592,1.082,0.983,1.549
			c-0.271,0.333-0.536,0.672-0.793,1.019C11.08,31.63,11.133,30.649,11.475,29.762z M12.117,32.729
			c-0.148-0.097-0.275-0.205-0.384-0.32c0.247-0.354,0.501-0.706,0.765-1.053c0.458,0.534,1.007,0.982,1.661,1.291
			c-0.184,0.206-0.365,0.416-0.543,0.629C13.001,33.148,12.451,32.946,12.117,32.729z M17.072,32.296
			c-0.315,1.081-1.807,1.246-3.127,1.039c0.306-0.413,0.615-0.825,0.943-1.218c0.217-0.259,0.44-0.513,0.668-0.762
			c0.394,0.286,0.824,0.525,1.294,0.702c0.101,0.038,0.15-0.11,0.07-0.164c-0.387-0.263-0.755-0.532-1.103-0.815
			c0.253-0.271,0.513-0.534,0.779-0.793c0.133,0.182,0.269,0.36,0.407,0.536C17.161,31.321,17.208,31.829,17.072,32.296z"/>
	</g>
</g>
<g id="Layer_1">
</g>
</svg>
