<?xml version="1.0" encoding="utf-8"?>
<!-- Generator: Adobe Illustrator 16.0.0, SVG Export Plug-In . SVG Version: 6.00 Build 0)  -->
<!DOCTYPE svg PUBLIC "-//W3C//DTD SVG 1.1//EN" "http://www.w3.org/Graphics/SVG/1.1/DTD/svg11.dtd">
<svg version="1.1" xmlns="http://www.w3.org/2000/svg" xmlns:xlink="http://www.w3.org/1999/xlink" x="0px" y="0px" width="36px"
	 height="36px" viewBox="0 0 36 36" enable-background="new 0 0 36 36" xml:space="preserve">
<g id="Layer_2">
	<g>
		<path fill="#FFFFFF" d="M32.131,29.454c0.013-0.404-0.053-0.844-0.053-1.138c-0.001-1.137-0.002-2.273-0.002-3.41
			c-0.002-2.41-0.004-4.82-0.005-7.23c-0.002-2.74-0.312-5.464-0.392-8.201c-0.033-1.154-0.156-2.257-0.324-3.399
			c-0.096-0.652-0.18-1.327-0.182-1.997c-0.066-0.225-0.131-0.451-0.195-0.676c-0.024,0.111-0.045,0.223-0.062,0.337
			c0-0.183,0-0.367,0-0.549c-0.01-0.037-0.021-0.073-0.031-0.109v0c-0.004-0.013-0.009-0.027-0.013-0.041
			c-0.002-0.007-0.004-0.014-0.007-0.021v0c-0.021-0.07-0.043-0.141-0.064-0.211c-0.004,0-0.006-0.002-0.009-0.002
			c-0.444-0.064-0.782,0.051-1.239,0.099c-0.622,0.063-1.252,0.022-1.873-0.029c-1.269-0.105-2.497-0.242-3.773-0.226
			c-2.605,0.031-5.182,0.113-7.782-0.112c-2.512-0.217-4.97-0.414-7.468,0.037c-0.01,0.001-0.02,0.003-0.029,0.005
			C8.564,2.444,8.346,2.463,8.326,2.634C7.06,2.869,5.796,3.132,4.504,3.175C4.058,3.189,3.934,3.263,3.888,3.44
			C3.872,3.396,3.858,3.35,3.84,3.306C3.837,3.297,3.824,3.298,3.824,3.309c-0.006,0.195,0,0.392,0.01,0.588
			c-0.003,0.024-0.006,0.048-0.01,0.074C3.822,3.98,3.832,3.982,3.838,3.977C3.885,4.802,4.032,5.636,4.09,6.454
			C4.167,7.538,4.19,8.626,4.223,9.712c0.067,2.263,0.021,4.528-0.003,6.791c-0.052,4.762,0.607,9.489,0.628,14.248
			c-0.088-0.007-0.188,0.077-0.149,0.17c0.217,0.519,0.567,0.918,0.997,1.228c0.02,0.024,0.044,0.043,0.073,0.051
			c1.225,0.834,3.06,0.977,4.409,1.044c2.852,0.144,5.716-0.314,8.547-0.592c1.75-0.171,3.516-0.233,5.271-0.315
			c2.027-0.096,4.115,0.049,6.128-0.203c0.758-0.094,1.637-0.365,1.913-1.164C32.196,30.51,32.211,29.979,32.131,29.454z
			 M7.572,32.305c-0.01-0.009-0.019-0.019-0.029-0.027c-0.068-0.067-0.136-0.135-0.205-0.203c-0.054-0.082-0.11-0.163-0.167-0.24
			c0.298,0.228,0.613,0.427,0.953,0.584C7.938,32.386,7.754,32.348,7.572,32.305z M30.234,7.235
			c0.006,0.295,0.018,0.589,0.036,0.883c-0.069,0.419-0.114,0.841-0.139,1.266C30.117,8.664,30.137,7.945,30.234,7.235z
			 M30.156,5.807c0.032-0.135,0.057-0.271,0.072-0.405c-0.006,0.195-0.017,0.39-0.031,0.584C30.184,5.926,30.17,5.867,30.156,5.807z
			 M30.606,6.557c0.008,0.05,0.015,0.1,0.022,0.15c-0.012,0.014-0.021,0.031-0.027,0.05c-0.006,0.018-0.01,0.035-0.016,0.052
			c-0.004-0.113-0.008-0.226-0.01-0.338C30.578,6.506,30.59,6.534,30.606,6.557z M30.9,11.545c0.01,0.049,0.02,0.099,0.031,0.147
			c-0.004,0.14-0.007,0.28-0.008,0.421c0,0.026,0.004,0.048,0.014,0.067c0.006,0.274,0.017,0.55,0.031,0.829
			c-0.023,0.023-0.039,0.055-0.041,0.097c0-0.003,0-0.006-0.001-0.009C30.936,12.58,30.924,12.062,30.9,11.545z M17.889,29.455
			C17.89,29.455,17.89,29.456,17.889,29.455c-0.031,0.018-0.063,0.035-0.095,0.052c-0.016-0.058-0.058-0.108-0.124-0.128
			c-0.485-0.146-0.977-0.236-1.473-0.291c-0.115-0.058-0.232-0.111-0.351-0.161c0.083-0.002,0.165-0.004,0.248-0.007
			c0.126,0.037,0.254,0.07,0.382,0.1c0.033,0.041,0.081,0.071,0.148,0.071c0.076,0,0.152-0.001,0.229-0.001
			c0.293,0.045,0.588,0.064,0.881,0.055C17.69,29.264,17.739,29.409,17.889,29.455z M16.801,30.733
			c0.068,0.061,0.139,0.117,0.211,0.171c-0.052,0.029-0.104,0.059-0.155,0.088c-0.008,0-0.017,0-0.025,0.001
			c0.045-0.112-0.011-0.271-0.134-0.32c0.013-0.011,0.025-0.021,0.037-0.032C16.748,30.675,16.767,30.708,16.801,30.733z
			 M15.39,31.787c-0.069,0.034-0.138,0.068-0.207,0.101c-0.054-0.007-0.107-0.015-0.16-0.022c0.055-0.031,0.109-0.064,0.163-0.097
			C15.254,31.774,15.322,31.78,15.39,31.787z M4.777,16.207c-0.002-0.875-0.004-1.751-0.01-2.626
			c0.083,1.062,0.168,2.125,0.256,3.187c-0.045,0.041-0.081,0.096-0.088,0.163c-0.002,0.019-0.003,0.037-0.006,0.056
			C4.878,16.726,4.828,16.467,4.777,16.207z M5.693,4.35c0.201-0.039,0.399-0.088,0.594-0.145c-0.135,0.118-0.266,0.245-0.39,0.382
			C5.833,4.508,5.765,4.428,5.693,4.35z M28.33,3.951c0.062,0.087,0.127,0.172,0.191,0.257c-0.039,0.082-0.073,0.164-0.104,0.247
			C28.387,4.287,28.357,4.12,28.33,3.951z M29.845,10.479c0.002,0.019,0.004,0.038,0.006,0.057c0.011,0.241,0.022,0.482,0.032,0.724
			c0,0,0,0.001,0,0.002C29.871,11.001,29.859,10.74,29.845,10.479z M31.421,18.646c-0.021-0.004-0.042-0.003-0.062,0.004
			c0.021-0.162,0.041-0.324,0.059-0.488C31.418,18.324,31.42,18.484,31.421,18.646z M31.318,20.014
			c-0.016,0.019-0.027,0.042-0.027,0.073c-0.005,0.72-0.038,1.438-0.08,2.157c0.035-0.901,0.021-1.805,0.005-2.709
			c0.028-0.148,0.056-0.297,0.079-0.445C31.301,19.396,31.309,19.705,31.318,20.014z M30.957,22.588
			c-0.016,0.275-0.035,0.551-0.062,0.824c0.025-1.008,0.055-2.016,0.041-3.021c0.008-0.001,0.015-0.001,0.021-0.002
			C30.957,21.123,30.957,21.855,30.957,22.588z M30.343,19.386c0.013-0.208,0.027-0.417,0.042-0.625
			c0.041,0.972,0.067,1.942,0.024,2.909c-0.022-0.177-0.048-0.354-0.076-0.529C30.352,20.555,30.359,19.969,30.343,19.386z
			 M16.806,29.582c0.001-0.011,0.003-0.021,0.002-0.031c0.104,0.02,0.208,0.041,0.312,0.064c-0.021,0.01-0.041,0.02-0.061,0.028
			C16.975,29.623,16.89,29.602,16.806,29.582z M11.474,31.729c-0.099-0.126-0.192-0.269-0.28-0.43
			c0.185-0.013,0.372-0.018,0.56-0.018c-0.021,0.137,0.004,0.28,0.104,0.43c0.001,0.001,0.001,0.001,0.002,0.003
			C11.73,31.725,11.602,31.729,11.474,31.729z M9.246,30.754c0.139,0.062,0.282,0.114,0.428,0.16c-0.04,0.03-0.08,0.062-0.12,0.096
			C9.452,30.924,9.351,30.836,9.246,30.754z M6.018,11.618c-0.012-0.095-0.023-0.19-0.036-0.286
			c0.012-0.008,0.024-0.015,0.035-0.025c0.031-0.031,0.061-0.062,0.09-0.093C6.074,11.348,6.045,11.482,6.018,11.618z M7.361,7.458
			c0.002-0.002,0.005-0.005,0.008-0.007c0.092,0.416,0.17,0.834,0.238,1.253c0.002,0.04,0.007,0.081,0.009,0.121
			c0.003,0.113,0.006,0.228,0.009,0.341C7.594,9.078,7.562,8.989,7.53,8.901C7.509,8.415,7.463,7.932,7.361,7.458z M7.897,12.013
			c-0.028,0.313-0.064,0.626-0.117,0.938c-0.002,0.004-0.004,0.008-0.006,0.011c-0.033-0.137-0.062-0.274-0.087-0.413
			c0.002-0.003,0.002-0.008,0.004-0.011C7.758,12.361,7.827,12.188,7.897,12.013z M25.074,14.732
			c0.551-0.375,1.089-0.287,1.575,0.157c-0.147,0.062-0.296,0.103-0.444,0.133c0.053-0.075-0.002-0.213-0.111-0.219
			c-0.299-0.016-0.6-0.024-0.899-0.025C25.154,14.762,25.113,14.748,25.074,14.732z M28.475,14.771
			c0.01-0.057,0.02-0.113,0.027-0.171c0,0.126,0.003,0.252,0.006,0.377c-0.008,0.076-0.016,0.152-0.024,0.228
			C28.481,15.062,28.479,14.916,28.475,14.771z M28.926,13.073c0,0.975,0,1.949,0.001,2.923c-0.005,0.069-0.012,0.138-0.019,0.207
			c-0.048-0.406-0.076-0.817-0.086-1.229C28.875,14.343,28.869,13.705,28.926,13.073z M15.586,27.765
			c-0.044-0.043-0.105-0.069-0.175-0.051c-0.134,0.034-0.269,0.062-0.404,0.089c-1.714,0.108-3.43,0.187-5.148,0.124
			c-0.007-0.489-0.016-0.979-0.028-1.468c0.095-0.159,0.191-0.318,0.292-0.475c0.11-0.184-0.17-0.345-0.285-0.166
			c-0.007,0.012-0.015,0.022-0.023,0.035c-0.084-3.025-0.243-6.047-0.413-9.069c0.016-0.027,0.033-0.055,0.052-0.08
			c2.876,0.586,5.759,0.39,8.68,0.137c3.208-0.278,6.401-0.737,9.622-0.852c0.008,0,0.015-0.002,0.022-0.003
			c0.005,2.368,0.117,4.779,0.48,7.117c0.264,1.698,0.825,3.816-1.34,4.367c-1.288,0.326-2.795,0.156-4.111,0.119
			c-1.452-0.041-2.902-0.099-4.354-0.014C17.496,27.633,16.541,27.701,15.586,27.765z M14.184,31.424
			c-0.032,0.003-0.063,0.008-0.095,0.012c0.023-0.011,0.046-0.022,0.07-0.034C14.167,31.408,14.173,31.418,14.184,31.424z
			 M8.647,28.959c-0.06,0.143-0.127,0.281-0.193,0.42c-0.074,0.139-0.156,0.271-0.243,0.404C8.142,29.76,8.07,29.738,8,29.715
			c0.039-0.166,0.08-0.332,0.122-0.498c0.063,0.011,0.134-0.011,0.175-0.074c0.157-0.244,0.305-0.492,0.448-0.743
			c0.079,0.192,0.162,0.382,0.248,0.569C8.921,28.852,8.711,28.809,8.647,28.959z M6.903,27.591
			c0.024-0.011,0.047-0.024,0.067-0.046c0.104-0.115,0.196-0.236,0.285-0.359c0.003,0.065,0.005,0.131,0.008,0.197
			c-0.132,0.482-0.23,0.975-0.279,1.481C6.964,28.44,6.936,28.016,6.903,27.591z M6.689,17.04c-0.005-0.058-0.01-0.116-0.015-0.173
			c0.047-0.052,0.093-0.104,0.139-0.155C6.77,16.819,6.729,16.93,6.689,17.04z M6.572,15.938c-0.025-0.204-0.05-0.407-0.078-0.61
			c0.057,0.003,0.114-0.014,0.155-0.066c0.106-0.134,0.211-0.269,0.316-0.403c-0.001,0.027-0.001,0.054-0.002,0.08
			C6.827,15.27,6.697,15.604,6.572,15.938z M7.824,13.974c0.062,0.004,0.123-0.017,0.161-0.072c0.002,0.143,0.001,0.286,0.002,0.428
			c-0.088,0.141-0.177,0.28-0.266,0.42c-0.043,0.001-0.087,0.003-0.13,0.006c-0.014-0.055-0.026-0.11-0.04-0.165
			C7.641,14.386,7.731,14.179,7.824,13.974z M27.348,14.335c0.042-0.01,0.083-0.02,0.121-0.03c0.03,0.048,0.062,0.095,0.096,0.139
			C27.492,14.407,27.42,14.371,27.348,14.335z M27.082,14.696c0.028,0.014,0.057,0.028,0.084,0.042
			c0.046,0.025,0.095,0.047,0.141,0.07c0.067,0.033,0.135,0.067,0.201,0.101c0-0.001,0-0.001,0.001-0.002
			c0.013,0.005,0.024,0.013,0.037,0.018c0.088,0.037,0.16-0.023,0.188-0.101c0.013,0.007,0.026,0.014,0.04,0.021
			c0.043,0.111,0.08,0.224,0.111,0.336c0.001,0.018,0.003,0.035,0.004,0.053c-0.041-0.013-0.084-0.021-0.135-0.02
			c-0.17,0.005-0.34,0.013-0.51,0.02C27.223,15.009,27.167,14.847,27.082,14.696z M28.894,26.779c0.017-0.036,0.03-0.074,0.045-0.11
			c0.002,0.057,0.003,0.114,0.005,0.171c-0.013,0.008-0.025,0.016-0.039,0.024C28.9,26.836,28.896,26.808,28.894,26.779z
			 M29.143,25.987c0-0.044-0.001-0.089-0.002-0.133c0.045-0.4,0.032-0.823-0.011-1.245c0.002-0.23,0.007-0.461,0.015-0.691
			c0.004,0.012,0.008,0.024,0.011,0.037c0.007,0.045,0.015,0.091,0.022,0.137c0.004,0.037,0.008,0.073,0.012,0.109
			c0.001,0.235,0.008,0.469,0.023,0.701C29.207,25.264,29.18,25.625,29.143,25.987z M28.958,23.283
			c-0.007-0.053-0.015-0.104-0.021-0.157c0.008,0.034,0.016,0.069,0.023,0.104C28.96,23.248,28.959,23.266,28.958,23.283z
			 M28.488,16.406c0.037-0.017,0.068-0.048,0.084-0.097c0.009-0.025,0.016-0.051,0.023-0.076c0.017,0.144,0.037,0.288,0.059,0.432
			c-0.052-0.034-0.124-0.027-0.164,0.021C28.489,16.592,28.488,16.499,28.488,16.406z M28.8,20.851
			c-0.081-0.358-0.149-0.72-0.202-1.083c-0.037-0.402-0.063-0.807-0.075-1.212C28.629,19.318,28.719,20.084,28.8,20.851z
			 M28.588,17.359c0.004-0.023,0.008-0.046,0.012-0.069c0.2,0.811,0.289,1.637,0.327,2.47
			C28.832,18.958,28.723,18.157,28.588,17.359z M28.428,16.889c0-0.019-0.001-0.037-0.002-0.056
			c0.006-0.001,0.011-0.001,0.016-0.003C28.438,16.85,28.433,16.869,28.428,16.889z M11.361,29.012
			c0.09-0.031,0.179-0.066,0.267-0.104c0.003,0.061,0.032,0.115,0.079,0.147c-0.056,0-0.112,0-0.168,0
			C11.479,29.042,11.42,29.027,11.361,29.012z M11.926,29.056c0.231-0.065,0.469-0.116,0.71-0.151
			c-0.127,0.047-0.253,0.096-0.381,0.139c-0.008,0.004-0.014,0.009-0.021,0.013C12.131,29.056,12.028,29.056,11.926,29.056z
			 M8.587,28c-0.088,0.157-0.178,0.312-0.269,0.467c0.062-0.229,0.124-0.459,0.186-0.688C8.532,27.853,8.558,27.927,8.587,28z
			 M14.497,15.48c0.043,0.022,0.086,0.047,0.13,0.065c-0.069,0.012-0.137,0.024-0.206,0.036
			C14.447,15.549,14.473,15.516,14.497,15.48z M18.716,15.607c-0.281-0.059-0.561-0.12-0.842-0.183c0.137,0,0.274,0,0.411,0
			c0.037,0,0.064-0.013,0.088-0.03C18.487,15.467,18.601,15.538,18.716,15.607z M17.638,15.736
			c-0.381-0.041-0.756-0.107-1.127-0.191c0.049-0.018,0.099-0.035,0.149-0.055c0.295,0.054,0.589,0.116,0.883,0.181
			C17.575,15.691,17.606,15.715,17.638,15.736z M15.734,16.148c-0.003-0.001-0.007-0.002-0.01-0.003
			c-0.016-0.012-0.034-0.021-0.056-0.024c-0.01-0.002-0.021-0.005-0.032-0.007c-0.023-0.009-0.048-0.016-0.071-0.025
			c0.455,0,0.91,0,1.366,0c-0.225,0.021-0.45,0.043-0.675,0.064C16.081,16.15,15.907,16.149,15.734,16.148z M15.059,15.78
			c0.108-0.019,0.216-0.037,0.325-0.055c0.165,0.009,0.331,0.003,0.501-0.021c0.098,0.026,0.196,0.052,0.294,0.077
			C15.806,15.78,15.433,15.78,15.059,15.78z M13.737,16.111c0.045,0.004,0.091,0.007,0.136,0.012c-0.054,0-0.108,0-0.162,0
			C13.72,16.119,13.729,16.116,13.737,16.111z M14.817,15.953c-0.131-0.023-0.263-0.045-0.394-0.065
			c0.147-0.024,0.294-0.05,0.442-0.075C14.825,15.847,14.809,15.9,14.817,15.953z M7.52,23.674
			c-0.021,0.074-0.041,0.149-0.061,0.225c-0.002-0.038-0.003-0.076-0.005-0.113C7.476,23.748,7.498,23.71,7.52,23.674L7.52,23.674z
			 M8.325,14.755c0-0.026,0-0.054,0-0.081c0.01-0.017,0.021-0.035,0.031-0.052c-0.006,0.045-0.013,0.089-0.019,0.134
			C8.333,14.756,8.329,14.755,8.325,14.755z M8.578,16.195c0.005,0.085,0.009,0.169,0.013,0.254
			C8.535,16.46,8.48,16.467,8.428,16.47c0.021-0.168,0.046-0.336,0.069-0.504c0.023,0.021,0.047,0.04,0.072,0.059
			C8.572,16.082,8.575,16.139,8.578,16.195z M8.436,19.375c0.009-0.012,0.019-0.021,0.028-0.033
			c0.064-0.084,0.012-0.182-0.066-0.229c0.083-0.09,0.167-0.179,0.251-0.268c0.012-0.01,0.023-0.021,0.035-0.033
			c-0.015,0.237-0.024,0.475-0.029,0.712c-0.119,0.12-0.235,0.24-0.35,0.362c-0.006-0.111-0.012-0.223-0.019-0.334
			c0.021-0.025,0.044-0.051,0.065-0.076c0.029-0.033,0.059-0.064,0.086-0.1C8.437,19.376,8.437,19.376,8.436,19.375z M7.916,18.96
			c-0.088,0.058-0.177,0.113-0.269,0.167c0.042-0.152,0.081-0.305,0.115-0.459c0.039-0.035,0.078-0.07,0.117-0.106
			C7.891,18.694,7.905,18.827,7.916,18.96z M8.628,20.008c-0.045,0.486-0.14,0.957-0.268,1.421
			c-0.007-0.364-0.019-0.729-0.034-1.092C8.423,20.225,8.524,20.115,8.628,20.008z M8.688,18.314
			c-0.083,0.084-0.166,0.167-0.247,0.252c-0.052,0.045-0.104,0.089-0.158,0.131c0.016-0.2,0.027-0.401,0.031-0.604
			c0.002-0.101-0.083-0.161-0.168-0.158c-0.003-0.033-0.007-0.066-0.011-0.1c0.154-0.21,0.32-0.413,0.497-0.609
			C8.65,17.589,8.669,17.952,8.688,18.314z M8.368,16.997c0.006-0.057,0.013-0.113,0.02-0.17c0.046,0,0.093-0.003,0.142-0.009
			C8.474,16.876,8.421,16.938,8.368,16.997z M7.738,20.883c0.068,0.045,0.165,0.041,0.22-0.05c0.018-0.029,0.039-0.058,0.057-0.086
			c0.016,0.451,0.024,0.903,0.029,1.355c-0.078,0.103-0.153,0.207-0.226,0.313c-0.033-0.44-0.089-0.878-0.169-1.312
			C7.679,21.03,7.708,20.956,7.738,20.883z M8.415,22.371c-0.014,0.148-0.028,0.297-0.042,0.445c0-0.115-0.001-0.231-0.001-0.348
			C8.387,22.436,8.4,22.403,8.415,22.371z M7.988,16.376c-0.023-0.014-0.047-0.028-0.068-0.045
			c-0.041-0.234-0.084-0.467-0.132-0.701c0.066-0.126,0.134-0.251,0.204-0.376C7.991,15.629,7.989,16.003,7.988,16.376z
			 M7.401,21.75c0.05,0.381,0.082,0.765,0.1,1.15c-0.026,0.041-0.052,0.084-0.077,0.126c-0.016-0.405-0.03-0.811-0.045-1.216
			C7.387,21.791,7.394,21.771,7.401,21.75z M8.395,26.831c-0.007-0.019-0.014-0.037-0.02-0.056c0.03-0.504,0.065-1.008,0.105-1.513
			c0.061-0.14,0.123-0.278,0.185-0.419c0.065-0.145-0.016-0.265-0.125-0.297c0.02-0.235,0.041-0.471,0.062-0.707
			C8.767,24.854,8.738,25.844,8.395,26.831z M8.669,23.09c0.021-0.227,0.042-0.451,0.064-0.678c0.017,0.252,0.035,0.504,0.057,0.756
			C8.765,23.119,8.721,23.094,8.669,23.09z M8.998,25.568c0.011,0.354,0.022,0.707,0.031,1.06c-0.086,0.052-0.175,0.101-0.27,0.145
			C8.886,26.373,8.96,25.972,8.998,25.568z M9.813,15.592c-0.158,0.024-0.315,0.041-0.476,0.048
			c-0.003-0.067-0.007-0.135-0.011-0.202c0.064,0.007,0.131,0.011,0.193,0.021c0.098,0.038,0.196,0.073,0.295,0.103
			C9.813,15.572,9.814,15.582,9.813,15.592z M7.463,16.281c0.044,0.081,0.094,0.156,0.152,0.221c0.013,0.075,0.023,0.15,0.035,0.226
			c-0.136,0.238-0.26,0.479-0.37,0.723c-0.001-0.251-0.001-0.502-0.001-0.753C7.338,16.558,7.399,16.419,7.463,16.281z
			 M7.073,22.689c0.006,0.158,0.011,0.315,0.018,0.474c-0.033-0.071-0.066-0.142-0.1-0.211C7.019,22.864,7.045,22.776,7.073,22.689z
			 M7.835,24.902c0.013-0.319,0.023-0.639,0.026-0.957c0.035-0.127,0.072-0.254,0.11-0.38c0.024-0.001,0.049-0.003,0.073-0.005
			c-0.004,0.494-0.01,0.988-0.018,1.482c-0.032,0.052-0.062,0.104-0.093,0.156C7.902,25.1,7.87,25,7.835,24.902z M8.666,27.166
			c0.129-0.053,0.253-0.109,0.371-0.172c0.001,0.062,0.002,0.124,0.003,0.187c-0.104,0.188-0.208,0.377-0.311,0.565
			c-0.043-0.113-0.085-0.227-0.126-0.34C8.624,27.326,8.646,27.246,8.666,27.166z M9.054,27.844c0.004,0.244,0.01,0.49,0.014,0.734
			c-0.062-0.143-0.124-0.285-0.182-0.43C8.943,28.047,8.998,27.945,9.054,27.844z M9.87,28.885c0.128,0.025,0.256,0.046,0.384,0.059
			c-0.127,0.021-0.255,0.038-0.383,0.053C9.871,28.959,9.871,28.922,9.87,28.885z M9.876,30.055c0-0.093-0.001-0.186-0.001-0.278
			c0.293,0.064,0.585,0.118,0.876,0.158C10.452,29.947,10.158,29.987,9.876,30.055z M9.387,16.553c0-0.003,0-0.006,0-0.009
			C9.384,16.5,9.382,16.456,9.38,16.411c0.203,0.06,0.415,0.103,0.625,0.131C9.799,16.547,9.593,16.55,9.387,16.553z M12.918,16.396
			c0.015,0.005,0.031,0.01,0.051,0.01c0.036,0,0.071,0,0.107,0c-0.095,0.006-0.189,0.013-0.284,0.019
			C12.834,16.416,12.876,16.405,12.918,16.396z M18.415,15.862c0.088,0.019,0.176,0.036,0.264,0.055
			c-0.083,0.008-0.165,0.017-0.248,0.024C18.432,15.914,18.427,15.887,18.415,15.862z M19.712,15.813
			c-0.007-0.004-0.011-0.01-0.019-0.015c-0.266-0.137-0.522-0.286-0.777-0.439c0.017,0.001,0.033,0.001,0.049,0.002
			c0.255,0.006,0.512,0.011,0.771,0.015c0.386,0.074,0.782,0.099,1.207,0.05c0.012-0.001,0.02-0.006,0.029-0.009
			c0.273,0.07,0.547,0.138,0.822,0.194C21.1,15.676,20.406,15.744,19.712,15.813z M20.559,14.993
			c-0.024-0.007-0.049-0.013-0.074-0.02c0.181,0.001,0.36,0.001,0.539-0.001C20.869,14.98,20.714,14.987,20.559,14.993z
			 M17.804,14.98c-0.352-0.015-0.704-0.036-1.055-0.064c0.354-0.009,0.707-0.014,1.057-0.012
			C17.799,14.928,17.797,14.954,17.804,14.98z M16.169,15.188c-0.019,0.029-0.029,0.064-0.028,0.1
			c-0.005-0.001-0.01-0.004-0.015-0.004c-0.461-0.026-0.903-0.147-1.351-0.237c-0.044-0.015-0.088-0.029-0.132-0.044
			c0.015-0.006,0.03-0.011,0.045-0.016c0.092-0.003,0.185-0.006,0.277-0.01C15.36,15.067,15.763,15.136,16.169,15.188z
			 M13.829,15.009c0.007,0.013,0.016,0.025,0.028,0.037c0.046,0.041,0.093,0.079,0.139,0.116c0.003,0.006,0.009,0.01,0.013,0.016
			c-0.073,0.01-0.146,0.021-0.218,0.033c-0.021-0.062-0.073-0.114-0.157-0.114c-0.202,0.001-0.403,0.002-0.605,0.005
			c-0.023-0.029-0.044-0.06-0.066-0.09C13.251,15.015,13.54,15.014,13.829,15.009z M10.565,15.79
			c0.023-0.005,0.047-0.01,0.071-0.015c0.117,0.001,0.233,0.003,0.349,0.005c0.102,0.008,0.204,0.013,0.306,0.015
			C11.05,15.803,10.808,15.8,10.565,15.79z M10.365,15.337c-0.132-0.039-0.262-0.075-0.393-0.105
			c0.004-0.001,0.009-0.002,0.013-0.003c0.249,0.021,0.496,0.037,0.741,0.044C10.606,15.292,10.485,15.312,10.365,15.337z
			 M9.688,14.864c-0.132-0.012-0.264-0.024-0.395-0.037c-0.004-0.088-0.009-0.175-0.013-0.263c0.361,0.102,0.728,0.182,1.097,0.245
			C10.147,14.823,9.918,14.84,9.688,14.864z M8.371,12.244c-0.015-0.005-0.03-0.009-0.046-0.011c0.022-0.031,0.037-0.07,0.037-0.12
			c0-0.022,0-0.045,0-0.067C8.365,12.112,8.368,12.178,8.371,12.244z M8.397,12.768c0.015,0.285,0.03,0.571,0.044,0.856
			c-0.01,0.016-0.02,0.031-0.03,0.046c-0.031-0.002-0.062-0.006-0.094-0.008c0,0,0,0-0.001,0c-0.003-0.231-0.011-0.464-0.017-0.695
			C8.332,12.9,8.364,12.834,8.397,12.768z M6.948,17.625c0.001,0.13,0.003,0.26,0.005,0.389c-0.047,0.046-0.093,0.092-0.14,0.137
			C6.851,17.974,6.897,17.798,6.948,17.625z M6.875,23.334c0.048,0.123,0.096,0.246,0.144,0.369
			c-0.092,0.156-0.185,0.312-0.279,0.466c0.003-0.134,0.007-0.268,0.013-0.401C6.792,23.623,6.833,23.479,6.875,23.334z
			 M7.137,24.325c0.011,0.253,0.021,0.507,0.031,0.759c-0.112,0.494-0.221,0.99-0.342,1.482c-0.04-0.536-0.073-1.072-0.087-1.605
			C6.877,24.753,7.009,24.541,7.137,24.325z M7.703,27.327c0.028-0.098,0.058-0.194,0.089-0.292c0.031,0.18,0.064,0.359,0.1,0.538
			c-0.074,0.114-0.146,0.23-0.215,0.348C7.685,27.724,7.693,27.525,7.703,27.327z M8.996,28.977
			c0.012,0.025,0.025,0.051,0.037,0.076c-0.007,0.001-0.013,0.001-0.02,0.002C9.013,29.025,9.008,29,8.996,28.977z M10.192,30.367
			c0.146-0.02,0.291-0.033,0.429-0.044c0.138-0.012,0.278-0.017,0.419-0.017c-0.131,0.003-0.263,0.011-0.396,0.027
			c-0.07,0.009-0.137,0.046-0.178,0.099C10.374,30.412,10.283,30.391,10.192,30.367z M12.318,31.298
			c0.084,0.004,0.169,0.008,0.254,0.013c-0.082,0.047-0.164,0.094-0.243,0.145C12.306,31.412,12.304,31.357,12.318,31.298z
			 M13.457,30.854c0.021,0.009,0.042,0.018,0.062,0.025c-0.007,0.003-0.014,0.006-0.021,0.008c-0.013,0-0.025,0-0.038,0
			C13.46,30.876,13.459,30.865,13.457,30.854z M12.741,29.997c-0.083,0.013-0.132,0.062-0.152,0.122
			c-0.016-0.004-0.033-0.006-0.049-0.009c-0.08-0.042-0.161-0.081-0.244-0.118c0.227-0.018,0.453-0.047,0.679-0.092
			c0.039,0.02,0.078,0.037,0.118,0.055C12.976,29.965,12.859,29.979,12.741,29.997z M13.399,29.016
			c0.128-0.051,0.255-0.102,0.383-0.154c0.091,0.049,0.183,0.098,0.275,0.145C13.838,29.008,13.619,29.01,13.399,29.016z
			 M24.717,15.37c0.024-0.031,0.038-0.07,0.036-0.11c0.128,0.033,0.255,0.061,0.383,0.082C24.996,15.351,24.856,15.36,24.717,15.37z
			 M25.068,28.289c-0.049,0.018-0.098,0.033-0.146,0.051c-0.057-0.02-0.113-0.038-0.17-0.057
			C24.857,28.286,24.963,28.288,25.068,28.289z M29.231,22.781c-0.026-0.316-0.037-0.631-0.026-0.943
			c0.02,0.086,0.04,0.172,0.062,0.258C29.256,22.322,29.244,22.551,29.231,22.781z M27.934,14.111
			c-0.001,0.06-0.002,0.119-0.002,0.179c-0.008,0.06-0.016,0.119-0.021,0.179c-0.036-0.037-0.07-0.076-0.102-0.114
			c-0.024-0.05-0.048-0.099-0.072-0.146c0.059-0.027,0.11-0.06,0.16-0.094C27.908,14.113,27.922,14.112,27.934,14.111z
			 M26.842,14.161c-0.002-0.002-0.004-0.003-0.007-0.004c0.004,0,0.008,0,0.012,0C26.845,14.158,26.844,14.16,26.842,14.161z
			 M22.574,15.363c0.266-0.008,0.529-0.02,0.793-0.032C23.107,15.371,22.842,15.378,22.574,15.363z M21.25,13.739
			c-0.12-0.012-0.239-0.025-0.358-0.039c0.171,0.001,0.343,0.003,0.514,0.006C21.354,13.717,21.302,13.729,21.25,13.739z
			 M18.549,13.739c0.165,0.074,0.333,0.139,0.504,0.196c-0.069,0.014-0.138,0.031-0.206,0.048c-0.259,0.018-0.518,0.032-0.777,0.045
			c-0.043,0.002-0.086,0.003-0.128,0.005c-0.408-0.056-0.815-0.128-1.217-0.159C17.33,13.811,17.939,13.768,18.549,13.739z
			 M12.751,15.01c0.022,0.033,0.045,0.064,0.067,0.096c-0.106,0.002-0.212,0.006-0.317,0.009c0.026-0.031,0.048-0.067,0.06-0.106
			C12.624,15.009,12.688,15.009,12.751,15.01z M8.038,7.958C7.99,7.986,7.956,8.033,7.948,8.101
			c-0.004-0.438,0.004-0.874,0.04-1.308C7.996,6.782,8.005,6.771,8.013,6.76C8.055,7.157,8.064,7.559,8.038,7.958z M7.475,13.424
			c-0.06,0.088-0.121,0.175-0.183,0.261c-0.007-0.011-0.016-0.021-0.025-0.029c0.052-0.14,0.104-0.278,0.156-0.417
			C7.439,13.301,7.456,13.362,7.475,13.424z M6.921,7.212C6.919,7.207,6.917,7.201,6.916,7.195c0.06-0.182,0.108-0.37,0.146-0.562
			c0.023-0.041,0.044-0.084,0.07-0.124c0.039,0.14,0.076,0.28,0.111,0.42C7.142,7.029,7.034,7.123,6.921,7.212z M6.62,11.781
			c0.021,0.258,0.426,0.26,0.405,0c-0.01-0.124-0.015-0.248-0.018-0.371c0.046,0.165,0.089,0.33,0.131,0.495
			c-0.229,0.335-0.47,0.66-0.746,0.958c0.01-0.507,0.087-1.004,0.209-1.493C6.604,11.506,6.609,11.644,6.62,11.781z M7.09,12.812
			c-0.231,0.62-0.456,1.243-0.683,1.865c-0.044-0.326-0.088-0.652-0.127-0.974c-0.002-0.015-0.004-0.029-0.005-0.043
			c0.021-0.011,0.042-0.023,0.061-0.04C6.618,13.374,6.863,13.1,7.09,12.812z M6.75,18.872c0-0.02,0-0.04,0-0.06
			c0.047-0.045,0.093-0.089,0.14-0.133c-0.034,0.188-0.058,0.379-0.066,0.576c-0.002,0.055,0.018,0.091,0.047,0.116
			c-0.175,0.776-0.258,1.577-0.268,2.376c-0.001,0.057,0.021,0.104,0.054,0.141c-0.018,0.078-0.035,0.157-0.051,0.236
			c-0.03-0.068-0.06-0.137-0.09-0.205C6.632,20.908,6.718,19.895,6.75,18.872z M6.463,22.37c0.024,0.053,0.048,0.105,0.073,0.158
			c-0.02,0.128-0.038,0.255-0.053,0.382c-0.034,0.002-0.065,0.014-0.093,0.031C6.416,22.751,6.44,22.561,6.463,22.37z M6.403,25.436
			c0.009,0.156,0.016,0.312,0.026,0.468c0.065,1.362,0.096,2.72-0.107,4.072c-0.189-1.446,0.004-2.933-0.252-4.377
			c0.075,0.048,0.17,0.051,0.243-0.04C6.345,25.518,6.373,25.476,6.403,25.436z M6.136,30.826c-0.026-0.019-0.052-0.035-0.078-0.054
			c-0.011-0.007-0.022-0.009-0.032-0.013c-0.004-0.212-0.011-0.424-0.023-0.636C6.035,30.359,6.079,30.594,6.136,30.826z
			 M6.649,30.403c-0.008,0.001-0.016,0.001-0.024,0.003c-0.008-0.014-0.016-0.027-0.024-0.043c0.014-0.078,0.028-0.156,0.041-0.234
			c0.001,0.086,0.004,0.172,0.005,0.258C6.646,30.393,6.649,30.396,6.649,30.403z M7.352,29.444c0.18-0.427,0.389-0.836,0.62-1.231
			c-0.123,0.46-0.242,0.92-0.351,1.383c-0.031-0.01-0.061-0.02-0.092-0.029c-0.103-0.031-0.177,0.037-0.194,0.121
			c-0.075-0.036-0.15-0.07-0.225-0.104C7.203,29.594,7.309,29.546,7.352,29.444z M7.505,30.121c-0.007,0.031-0.013,0.062-0.02,0.092
			C7.415,30.143,7.343,30.072,7.274,30C7.352,30.039,7.428,30.08,7.505,30.121z M7.825,30.526c0.001-0.009,0.003-0.019,0.005-0.028
			c0.002,0.004,0.004,0.006,0.006,0.009C7.833,30.514,7.829,30.52,7.825,30.526z M8.828,29.496c0.022-0.043,0.043-0.087,0.065-0.131
			c0.024,0.016,0.053,0.027,0.09,0.027c0.031,0,0.062,0,0.094,0c0,0.064,0.001,0.129,0.002,0.192
			c-0.125,0.04-0.247,0.086-0.364,0.142C8.752,29.65,8.792,29.574,8.828,29.496z M9.082,29.948c0,0.035,0.001,0.071,0.001,0.106
			c-0.052-0.016-0.103-0.03-0.154-0.047C8.979,29.986,9.03,29.967,9.082,29.948z M10.291,31.057c0.02,0.003,0.04,0.008,0.06,0.01
			c-0.051,0.012-0.101,0.025-0.151,0.038C10.229,31.087,10.26,31.072,10.291,31.057z M10.11,31.487
			c0.203-0.062,0.412-0.106,0.625-0.139c0.062,0.123,0.127,0.238,0.196,0.345C10.651,31.655,10.376,31.588,10.11,31.487z
			 M15.556,30.027c0.092-0.07,0.117-0.231-0.008-0.287c-0.049-0.022-0.099-0.043-0.148-0.062c0.065,0.001,0.13,0.001,0.195,0
			c0.287,0.058,0.571,0.123,0.852,0.19C16.156,29.951,15.857,30.004,15.556,30.027z M15.111,28.539
			c-0.169-0.007-0.339-0.018-0.508-0.033c0.044-0.021,0.088-0.041,0.132-0.061c0.144-0.01,0.286-0.019,0.43-0.027
			C15.133,28.45,15.115,28.494,15.111,28.539z M19.105,28.182c0.52-0.021,1.041-0.023,1.562-0.016
			c-0.519,0.103-1.045,0.149-1.571,0.187c-0.159,0.003-0.318,0.006-0.478,0.006c-0.012,0-0.021,0.005-0.032,0.007
			c-0.875,0-1.75,0-2.624,0C17.009,28.296,18.056,28.225,19.105,28.182z M26.177,29.496c0.09-0.04,0.178-0.082,0.267-0.123
			c0.053,0.055,0.127,0.085,0.205,0.059c0.648-0.22,1.282-0.467,1.906-0.738c-0.483,0.408-1.056,0.691-1.658,0.91
			C26.658,29.576,26.418,29.539,26.177,29.496z M29.302,29.337c-0.005-0.001-0.009-0.002-0.014-0.003
			c-0.031-0.142-0.062-0.284-0.093-0.426c0.004-0.025-0.002-0.048-0.016-0.067c-0.004-0.017-0.008-0.034-0.012-0.052
			c0.014-0.018,0.025-0.037,0.027-0.063c0.003-0.02,0.006-0.039,0.008-0.059c0.034-0.036,0.066-0.075,0.099-0.112
			C29.302,28.815,29.302,29.076,29.302,29.337z M30.063,13.792c0.018,0.536,0.019,1.069-0.007,1.601
			C30.033,14.863,30.041,14.328,30.063,13.792z M29.982,17.859c0.066,0.512,0.103,1.027,0.117,1.545
			c-0.017,0.273-0.031,0.547-0.044,0.82c-0.046-0.734-0.088-1.469-0.123-2.203C29.949,17.968,29.967,17.913,29.982,17.859z
			 M29.747,19.192c0.032,0.546,0.067,1.093,0.101,1.64c-0.044,0.191-0.078,0.383-0.101,0.574
			C29.696,20.674,29.712,19.934,29.747,19.192z M29.748,23.205c0.018,0.206,0.037,0.412,0.059,0.619
			c-0.031-0.206-0.06-0.413-0.086-0.62C29.73,23.205,29.738,23.207,29.748,23.205z M29.725,24.707
			c-0.034,0.231-0.061,0.464-0.079,0.696c-0.028-0.161-0.06-0.323-0.089-0.485c-0.004-0.153-0.013-0.307-0.025-0.461
			c0.006-0.015,0.01-0.031,0.008-0.051c-0.004-0.075-0.006-0.15-0.009-0.227c0-0.207,0-0.415,0-0.623
			C29.584,23.941,29.648,24.324,29.725,24.707z M29.598,26.822c0.001,0.384,0.01,0.768,0.018,1.15
			c-0.02-0.034-0.05-0.062-0.086-0.084c0-0.418,0-0.836,0-1.254C29.551,26.697,29.574,26.76,29.598,26.822z M29.832,26.624
			c0.002-0.404,0.015-0.808,0.049-1.209c0.028,0.117,0.056,0.234,0.086,0.352c0.003,0.009,0.008,0.016,0.012,0.023
			c0.009,0.339,0.018,0.68,0.014,1.019c-0.031,0.285-0.083,0.568-0.148,0.849c-0.004-0.226-0.008-0.45-0.01-0.675
			c0.021-0.018,0.033-0.045,0.029-0.084C29.855,26.807,29.844,26.715,29.832,26.624z M31.258,15.948
			c-0.006,0.319-0.017,0.639-0.032,0.958c0-0.24,0-0.479,0-0.718C31.238,16.108,31.248,16.028,31.258,15.948z M30.957,18.51
			c0,0.281,0,0.562,0,0.844c-0.015,0.078-0.027,0.156-0.043,0.234c-0.015-0.352-0.035-0.703-0.065-1.055
			c-0.011-0.324-0.034-0.648-0.076-0.97c0.048-0.011,0.092-0.041,0.114-0.095c0.014-0.035,0.025-0.071,0.038-0.106
			c0.003,0.355,0.003,0.711,0.003,1.064C30.928,18.461,30.94,18.487,30.957,18.51z M30.864,15.312
			c-0.02,0.215-0.045,0.429-0.078,0.642c-0.03-0.26-0.065-0.519-0.102-0.777c0.017-0.445-0.014-0.897-0.02-1.271
			c0.024,0.014,0.052,0.021,0.079,0.021C30.799,14.386,30.838,14.848,30.864,15.312z M29.596,17.4
			c-0.002,0.035-0.002,0.069-0.004,0.104c-0.039-0.319-0.094-0.636-0.164-0.952c0.051-0.189,0.09-0.379,0.122-0.57
			C29.574,16.454,29.592,16.927,29.596,17.4z M29.357,17.649c-0.029,0.014-0.055,0.038-0.063,0.078
			c-0.036,0.163-0.062,0.325-0.085,0.487c0-0.344,0-0.688,0-1.032c0.01-0.013,0.02-0.027,0.025-0.044
			c0.013-0.031,0.022-0.062,0.035-0.094C29.304,17.246,29.335,17.447,29.357,17.649z M28.623,12.921
			c-0.016,0.12-0.033,0.24-0.046,0.361c-0.005-0.104-0.015-0.208-0.027-0.312C28.574,12.953,28.6,12.938,28.623,12.921z
			 M27.948,13.734c-0.013,0.021-0.026,0.039-0.04,0.059c-0.128,0.01-0.256,0.02-0.383,0.028c-0.035-0.062-0.071-0.122-0.107-0.182
			c0.188-0.096,0.375-0.198,0.561-0.307C27.967,13.467,27.956,13.601,27.948,13.734z M27.186,13.754
			c0.012,0.029,0.023,0.059,0.036,0.085c-0.077,0.003-0.154,0.004-0.231,0.005C27.056,13.814,27.121,13.785,27.186,13.754z
			 M26.268,14.142c0.053,0.038,0.106,0.075,0.159,0.113c-0.005,0.03,0.003,0.063,0.026,0.096c-0.123-0.066-0.246-0.113-0.371-0.144
			C26.144,14.186,26.205,14.164,26.268,14.142z M24.651,14.658c-0.034,0.03-0.047,0.078-0.044,0.125
			c-0.094,0.002-0.188,0.004-0.281,0.007c-0.006-0.002-0.012-0.004-0.019-0.006c-0.044-0.017-0.083-0.009-0.114,0.011
			c-0.057,0.002-0.113,0.003-0.169,0.006c-0.053-0.017-0.104-0.033-0.157-0.048c0.291-0.046,0.582-0.101,0.869-0.165
			C24.708,14.611,24.68,14.634,24.651,14.658z M22.293,14.378c0.625-0.086,1.248-0.184,1.867-0.294
			c0.457-0.082,0.92-0.172,1.385-0.272C24.499,14.145,23.406,14.309,22.293,14.378z M12.496,14.438
			c-0.335-0.009-0.669-0.026-1.001-0.055c-0.702-0.246-1.39-0.525-2.076-0.815c0.001,0,0.002-0.001,0.003-0.001
			c0.379,0.135,0.755,0.229,1.157,0.278c0.251,0.107,0.506,0.2,0.759,0.284C11.718,14.254,12.104,14.355,12.496,14.438z
			 M9.203,13.063C9.202,13.042,9.201,13.02,9.2,12.999c0.015,0.014,0.03,0.029,0.045,0.043C9.231,13.048,9.218,13.057,9.203,13.063z
			 M8.235,4.641c-0.004-0.01-0.008-0.02-0.012-0.029C8.113,4.384,7.987,4.194,7.849,4.037c0.101-0.075,0.2-0.153,0.295-0.238
			c0.052-0.046,0.07-0.105,0.065-0.163C8.229,3.63,8.25,3.625,8.271,3.618C8.256,3.959,8.244,4.3,8.235,4.641z M7.993,4.996
			C8.005,5.027,8.017,5.06,8.028,5.093C7.951,5.134,7.876,5.178,7.803,5.224C7.867,5.15,7.93,5.072,7.993,4.996z M7.564,11.253
			c-0.013-0.349-0.017-0.699-0.016-1.051c0.076,0.251,0.143,0.505,0.201,0.761C7.688,11.06,7.626,11.156,7.564,11.253z M7.679,6.421
			C7.642,6.473,7.604,6.523,7.564,6.573C7.519,6.43,7.467,6.288,7.411,6.147c0.11-0.123,0.232-0.236,0.363-0.34
			C7.734,6.012,7.703,6.216,7.679,6.421z M7.136,5.256c-0.169,0.177-0.343,0.35-0.524,0.515c-0.003-0.015-0.006-0.03-0.01-0.045
			c0.21-0.552,0.536-1.03,0.963-1.444C7.635,4.356,7.699,4.44,7.76,4.533C7.539,4.765,7.329,5.006,7.136,5.256z M6.323,9.248
			c0.068,0.2,0.133,0.401,0.2,0.602c-0.108,0.192-0.237,0.367-0.379,0.534C6.183,10,6.244,9.62,6.321,9.243
			C6.322,9.245,6.322,9.246,6.323,9.248z M5.815,9.035C5.786,9.169,5.761,9.305,5.736,9.441C5.724,9.345,5.711,9.249,5.699,9.153
			C5.737,9.113,5.777,9.075,5.815,9.035z M6.094,24.531c0.015-0.314,0.034-0.635,0.056-0.957c0.078,0.004,0.159-0.035,0.171-0.119
			c0.001-0.009,0.002-0.017,0.004-0.025c0.001,0.074,0.002,0.146,0.004,0.221c-0.087,0.318-0.165,0.641-0.236,0.965
			C6.092,24.588,6.093,24.559,6.094,24.531z M6.03,31.07c0.016,0.012,0.032,0.022,0.048,0.034c0.244,0.25,0.49,0.498,0.735,0.747
			c-0.24-0.093-0.503-0.158-0.797-0.219C6.025,31.445,6.03,31.258,6.03,31.07z M6.81,31.052c-0.101-0.07-0.202-0.143-0.302-0.215
			c0.013-0.06,0.026-0.12,0.038-0.181c0.001,0.002,0.001,0.004,0.002,0.005c0.167,0.187,0.345,0.354,0.532,0.509
			C6.992,31.128,6.901,31.089,6.81,31.052z M6.876,30.548c0.065-0.02,0.12-0.072,0.123-0.161c0.002-0.072,0.002-0.146,0.004-0.219
			c0.133,0.141,0.27,0.279,0.411,0.414c-0.024,0.134-0.047,0.268-0.068,0.402C7.187,30.842,7.03,30.695,6.876,30.548z M7.949,31.062
			c0.513,0.426,1.071,0.79,1.681,1.033c0.028,0.056,0.054,0.112,0.079,0.17c-0.667-0.283-1.327-0.574-1.924-0.965
			C7.84,31.222,7.896,31.143,7.949,31.062z M20.045,30.6c0.318,0.021,0.637,0.027,0.952-0.006c0.016,0.008,0.031,0.015,0.05,0.018
			c0.01,0.002,0.018,0.003,0.026,0.004c-0.042,0.02-0.085,0.038-0.129,0.057c-0.147,0.004-0.294,0.011-0.44,0.021
			c-0.033-0.011-0.07-0.016-0.113-0.004c-0.021,0.006-0.042,0.011-0.063,0.017c-0.089,0.008-0.177,0.018-0.265,0.027
			c-0.041-0.034-0.097-0.052-0.167-0.034c-0.091,0.024-0.181,0.045-0.271,0.064C19.766,30.713,19.906,30.659,20.045,30.6z
			 M25.799,30.833c-0.019-0.065-0.066-0.125-0.138-0.155c0.194-0.08,0.384-0.169,0.569-0.263c0.375-0.021,0.744-0.058,1.109-0.114
			c-0.289,0.122-0.574,0.255-0.859,0.395c-0.002,0.002-0.002,0.003-0.004,0.004C26.252,30.752,26.025,30.795,25.799,30.833z
			 M29.879,30.7c0.012-0.001,0.023-0.001,0.035-0.003c0.128-0.013,0.189-0.182,0.1-0.255c0.022,0.002,0.045,0.005,0.066,0.006
			c0.282,0.016,0.291-0.403,0.032-0.45c0.005-0.018,0.01-0.033,0.015-0.051c0.013-0.054,0.004-0.109-0.02-0.158
			c0.001-0.003,0.002-0.007,0.002-0.01c0-0.001,0-0.002,0.001-0.003h-0.001c0.002-0.019,0.006-0.036,0.008-0.054
			c0.021-0.238-0.332-0.264-0.399-0.055c-0.001,0.004-0.002,0.009-0.003,0.014c-0.106,0.008-0.211,0.018-0.315,0.031
			c0.057-0.059,0.068-0.144,0.05-0.219c0.043-0.012,0.08-0.045,0.08-0.104c0-0.375,0-0.748,0-1.122
			c0.024-0.033,0.05-0.063,0.073-0.099c0.007-0.011,0.012-0.021,0.017-0.033c0.008,0.307,0.014,0.614,0.016,0.921
			c0,0.136,0.179,0.146,0.223,0.03c0.189-0.494,0.283-1.002,0.329-1.518c0.05,0.696,0.085,1.394,0.099,2.093
			c-0.02,0.038-0.025,0.085-0.001,0.134c0.002,0.004,0.002,0.008,0.004,0.012c0.001,0.082,0.003,0.164,0.004,0.246
			c0.001,0.047,0.024,0.078,0.056,0.097c-0.003,0.206-0.049,0.426-0.073,0.618c-0.141,0.002-0.28-0.002-0.421-0.009
			C29.861,30.74,29.871,30.721,29.879,30.7z M30.308,24.676c-0.009-0.078-0.019-0.156-0.028-0.234
			c0.021-0.087,0.045-0.174,0.064-0.262c0.037,0.152,0.08,0.303,0.127,0.453c-0.014-0.006-0.027-0.01-0.041-0.012
			c0-0.016,0-0.032,0-0.049c0-0.021-0.033-0.021-0.034,0c0,0.017,0,0.033-0.001,0.049C30.359,24.626,30.327,24.644,30.308,24.676z
			 M30.568,22.779c0.016,0.251,0.044,0.502,0.082,0.752c-0.004,0.137-0.008,0.273-0.011,0.41c-0.032-0.326-0.062-0.654-0.093-0.98
			C30.555,22.9,30.562,22.839,30.568,22.779z M30.787,25.181c0.043-0.013,0.078-0.049,0.079-0.11
			c0.001-0.239,0.004-0.479,0.008-0.719c0.027,0.009,0.058,0.009,0.083,0.001c0,0.104,0,0.21,0,0.315
			c-0.019,0.027-0.025,0.064-0.013,0.107c0.005,0.016,0.009,0.031,0.013,0.047c0,0.288,0,0.576,0,0.863
			c-0.006,0.015-0.01,0.031-0.011,0.05c0,0.013-0.001,0.025-0.001,0.038c-0.021-0.123-0.04-0.246-0.056-0.37
			c-0.008-0.06-0.043-0.099-0.086-0.12C30.799,25.249,30.793,25.215,30.787,25.181z M31.34,25.166
			c0.02,0.013,0.043,0.017,0.067,0.016c0,0.099,0,0.197,0,0.295c-0.021-0.102-0.044-0.202-0.069-0.303
			C31.338,25.171,31.34,25.169,31.34,25.166z M29.832,8.054C29.784,7.73,29.739,7.407,29.7,7.082
			c0.019-0.019,0.033-0.042,0.039-0.075c0.021-0.124,0.04-0.247,0.057-0.37c0.042-0.008,0.081-0.033,0.104-0.083
			c0.005-0.011,0.009-0.022,0.015-0.034c0.001-0.002,0.003-0.005,0.004-0.008c0.002-0.003,0.002-0.007,0.004-0.01
			c0.012-0.028,0.023-0.057,0.035-0.085c0.017,0.072,0.033,0.145,0.05,0.216C29.913,7.104,29.86,7.578,29.832,8.054z M29.324,3.964
			c-0.021,0.116-0.038,0.23-0.051,0.345c-0.01-0.063-0.021-0.125-0.03-0.188C29.269,4.068,29.296,4.016,29.324,3.964z M29.279,7.874
			c0.018,0.034,0.043,0.055,0.07,0.067c0.057,0.913,0.123,1.825,0.172,2.738c-0.006-0.006-0.014-0.009-0.021-0.014
			c-0.163-1.026-0.229-2.071-0.378-3.102C29.174,7.667,29.224,7.771,29.279,7.874z M29.255,11.198
			c0.006,0.029,0.013,0.058,0.019,0.087c0.005,0.243,0.012,0.485,0.023,0.729c-0.021,0.024-0.038,0.057-0.037,0.1
			c0.014,1.251,0.181,2.532-0.012,3.766c0,0,0-0.001,0-0.001c0.07-1.14,0-2.288-0.007-3.432c-0.001-0.118-0.107-0.166-0.196-0.146
			c0.009-0.048,0.016-0.096,0.025-0.144c0.007-0.033,0.002-0.062-0.008-0.087C29.151,11.78,29.215,11.49,29.255,11.198z
			 M28.863,11.477c-0.082-0.858-0.232-1.708-0.365-2.56c0.141,0.747,0.283,1.494,0.42,2.242
			C28.902,11.265,28.885,11.371,28.863,11.477z M28.629,4.016c-0.085-0.131-0.176-0.268-0.269-0.418
			c0.047,0.002,0.094,0.005,0.142,0.008c0.053,0.13,0.105,0.26,0.155,0.388C28.647,4,28.639,4.007,28.629,4.016z M27.723,3.663
			c-0.003-0.039-0.004-0.079-0.005-0.118c0.065,0.006,0.13,0.013,0.195,0.019c-0.001,0.073-0.003,0.145-0.003,0.218
			c-0.008-0.017-0.016-0.035-0.023-0.052C27.854,3.662,27.785,3.646,27.723,3.663z M27.798,4.381
			c0.039,0.434,0.124,0.849,0.263,1.258c-0.029,0.007-0.057,0.022-0.081,0.042c-0.077-0.45-0.149-0.902-0.201-1.355
			C27.785,4.344,27.792,4.362,27.798,4.381z M28.572,12.184c-0.054,0.023-0.108,0.043-0.162,0.066
			c-0.001-0.003-0.002-0.007-0.002-0.01c0.061-0.158,0.104-0.338,0.135-0.539C28.557,11.861,28.565,12.022,28.572,12.184z
			 M14.608,13.932c0.027-0.056,0.043-0.118,0.046-0.187c0.285-0.003,0.571-0.008,0.857-0.018
			C15.209,13.788,14.907,13.855,14.608,13.932z M14.436,13.747c-0.057,0.093-0.122,0.172-0.195,0.234
			c-0.715-0.061-1.427-0.153-2.132-0.29c-0.005-0.005-0.01-0.009-0.015-0.015c0.549,0.048,1.093,0.056,1.581,0.065
			C13.927,13.747,14.182,13.748,14.436,13.747z M8.698,3.511c0.002,0,0.005-0.001,0.007-0.001c0.011-0.002,0.019-0.009,0.03-0.013
			c-0.007,0.094-0.012,0.188-0.02,0.282C8.71,3.689,8.704,3.601,8.698,3.511z M6.113,3.865c-0.28,0.08-0.565,0.14-0.858,0.182
			C5.253,4.043,5.251,4.04,5.249,4.037C5.438,3.96,5.625,3.898,5.81,3.855C5.912,3.863,6.013,3.866,6.113,3.865z M5.227,5.522
			C5.222,5.485,5.218,5.448,5.213,5.411c0.009,0.045,0.017,0.09,0.025,0.135C5.235,5.538,5.23,5.53,5.227,5.522z M5.129,4.751
			C5.127,4.735,5.125,4.719,5.123,4.703c0.005,0.008,0.01,0.017,0.014,0.025C5.134,4.735,5.132,4.744,5.129,4.751z M4.82,18.533
			c0.015,0.084,0.029,0.166,0.043,0.249c0.01,0.312,0.028,0.622,0.052,0.933c-0.033-0.344-0.062-0.688-0.089-1.033
			C4.824,18.632,4.822,18.583,4.82,18.533z M5.799,26.023c0.129,0.99,0.079,1.996,0.114,2.994c-0.069-0.695-0.156-1.391-0.228-2.086
			C5.705,26.627,5.742,26.324,5.799,26.023z M9.09,32.439c-0.102-0.082-0.204-0.164-0.306-0.246C9.014,32.299,9.246,32.4,9.479,32.5
			c-0.005,0.021-0.006,0.043-0.004,0.065c-0.112-0.007-0.224-0.015-0.337-0.022C9.14,32.506,9.127,32.469,9.09,32.439z
			 M26.373,31.395c0.649-0.156,1.289-0.357,1.92-0.578c-0.045,0.09,0.01,0.23,0.126,0.215c0.159-0.021,0.317-0.028,0.476-0.029
			C28.24,31.426,27.306,31.479,26.373,31.395z M29.729,31.041c0.125,0.009,0.25,0.016,0.376,0.02
			c-0.162,0.102-0.32,0.211-0.479,0.321C29.662,31.269,29.696,31.155,29.729,31.041z M30.211,31.413
			c-0.014,0.03-0.025,0.062-0.038,0.091c-0.05,0.008-0.1,0.014-0.149,0.02C30.086,31.487,30.148,31.449,30.211,31.413z
			 M30.533,29.639c0-0.145,0-0.289,0-0.434c0.02,0.053,0.042,0.105,0.063,0.157c0,0.126,0,0.251,0,0.376
			c-0.021-0.028-0.04-0.059-0.056-0.091C30.539,29.644,30.535,29.642,30.533,29.639z M30.534,28.232
			c0.001-1.049,0.001-2.099,0.003-3.147c0.019,0.142,0.04,0.282,0.062,0.423c-0.001,1.014-0.002,2.027-0.002,3.041
			C30.573,28.443,30.552,28.338,30.534,28.232z M31.219,26.125c0.055,0.461,0.08,0.928,0.086,1.396
			c-0.031-0.147-0.063-0.294-0.096-0.441c0-0.214-0.001-0.428-0.001-0.642C31.211,26.333,31.215,26.229,31.219,26.125z
			 M30.984,6.741c-0.023-0.084-0.047-0.169-0.074-0.254c0.001-0.008,0.004-0.014,0.004-0.022c0-0.129,0.001-0.257,0.001-0.386
			C30.936,6.301,30.96,6.522,30.984,6.741z M30.496,3.36c-0.059,0.207-0.104,0.415-0.139,0.625
			c-0.004,0.001-0.009,0.002-0.014,0.003c-0.034-0.09-0.071-0.18-0.112-0.271c-0.048-0.107-0.183-0.106-0.263-0.042
			c-0.019-0.042-0.04-0.084-0.061-0.126C30.117,3.51,30.316,3.449,30.496,3.36z M29.125,3.622c-0.088,0.137-0.164,0.278-0.229,0.423
			c-0.03-0.044-0.078-0.07-0.128-0.076c-0.057-0.121-0.115-0.24-0.172-0.358C28.766,3.619,28.943,3.624,29.125,3.622z M17.779,3.328
			c2.379,0.147,4.77-0.011,7.151-0.016c0.74-0.002,1.477,0.089,2.214,0.172c0.048,1.271,0.346,2.55,0.544,3.801
			c0.235,1.48,0.657,3.273,0.266,4.761c-0.068,0.263-0.278,0.443-0.562,0.567c-0.223,0.068-0.448,0.13-0.675,0.188
			c-0.73,0.122-1.584,0.083-2,0.104c-1.612,0.083-3.229,0.065-4.842,0.088c-2.795,0.041-5.717,0.69-8.493,0.144
			c-0.319-0.173-0.658-0.275-1.004-0.299c-0.196-0.114-0.4-0.212-0.612-0.299c-0.259-0.196-0.463-0.435-0.623-0.704
			c-0.111-2.255-0.22-4.511-0.35-6.765c0.045-0.645,0.076-1.29,0.073-1.936C9.346,3.064,9.826,3,10.311,2.962
			C12.799,2.764,15.301,3.175,17.779,3.328z M5.656,3.438C5.64,3.441,5.623,3.444,5.606,3.447C5.525,3.465,5.483,3.513,5.47,3.569
			C5.324,3.615,5.178,3.67,5.034,3.732c-0.013-0.016-0.027-0.031-0.04-0.047c-0.009-0.076-0.02-0.153-0.029-0.229
			C5.189,3.438,5.425,3.435,5.656,3.438z M3.996,3.763c0.116-0.105,0.275-0.178,0.463-0.227C4.453,3.55,4.447,3.564,4.444,3.58
			c-0.025,0.159-0.036,0.314-0.04,0.468C4.384,4.06,4.363,4.071,4.343,4.083C4.247,4.084,4.151,4.151,4.121,4.25
			C4.084,4.085,4.044,3.923,3.996,3.763z M4.239,4.883C4.318,5.182,4.413,5.478,4.52,5.77C4.502,6.183,4.491,6.596,4.485,7.01
			c-0.019-0.186-0.039-0.371-0.06-0.556C4.367,5.943,4.319,5.41,4.239,4.883z M5.287,31.164c0.104-0.04,0.187-0.133,0.186-0.279
			c-0.003-0.537-0.015-1.076-0.032-1.613c0.07,0.732,0.156,1.462,0.197,2.18C5.517,31.362,5.399,31.267,5.287,31.164z
			 M28.786,31.561c0.155-0.066,0.302-0.146,0.437-0.239c0,0.003-0.001,0.006-0.002,0.009c-0.038,0.119,0.031,0.204,0.123,0.235
			C29.149,31.568,28.96,31.564,28.786,31.561z M30.741,31.355c0.044-0.113,0.081-0.227,0.113-0.323c0.1-0.06,0.2-0.12,0.298-0.184
			c0.104-0.066,0.098-0.245-0.035-0.274c-0.291-0.064-0.342,0.012-0.534,0.096c0.021-0.169,0.046-0.34,0.05-0.508
			c0.013,0.007,0.023,0.015,0.037,0.021c0.1,0.042,0.223-0.005,0.223-0.128c0-0.367,0-0.734,0-1.101
			c0.013-0.198,0.031-0.395,0.052-0.591c0,0.453-0.001,0.906-0.001,1.359c0,0.153,0.219,0.178,0.263,0.035
			c0.024-0.08,0.047-0.16,0.069-0.24c-0.004,0.18-0.007,0.358-0.008,0.537c0,0.149,0.173,0.172,0.248,0.081
			c-0.006,0.235-0.043,0.462-0.137,0.673C31.263,31.07,31.03,31.241,30.741,31.355z"/>
		<path fill="#FFFFFF" d="M22.992,5.253c-0.004,0.095-0.004,0.19-0.004,0.286c-0.025,0.122-0.048,0.25-0.07,0.377
			c-0.018,0.098,0.03,0.179,0.1,0.217c0.118,1.369,0.561,2.757,0.817,4.06c0.019,0.094,0.104,0.165,0.192,0.191
			c0.684,0.214,1.438,0.349,2.145,0.189c0.091-0.021,0.195-0.112,0.209-0.208c0.29-2.033-0.727-3.759-0.961-5.728
			c-0.016-0.131-0.086-0.29-0.237-0.312c-0.685-0.103-1.48-0.137-2.074,0.256c-0.028-0.003-0.058,0.01-0.062,0.041
			c0,0.001,0,0.002-0.001,0.004c-0.054,0.04-0.106,0.082-0.156,0.129C22.718,4.917,22.818,5.171,22.992,5.253z M24.902,10.018
			c-0.011-0.071-0.025-0.142-0.037-0.212c0.019,0.007,0.037,0.012,0.057,0.014c-0.008,0.063-0.014,0.13-0.018,0.198
			C24.903,10.018,24.903,10.018,24.902,10.018z M24.615,5.521c0.015-0.161,0.035-0.323,0.062-0.484
			c0.089,0.147,0.17,0.3,0.245,0.455c0.074,0.334,0.163,0.665,0.257,0.995c-0.072-0.202-0.145-0.403-0.22-0.605
			c0.095-0.192-0.146-0.348-0.31-0.25C24.639,5.595,24.627,5.558,24.615,5.521z M23.921,7.271c0.162,0.481,0.286,0.975,0.396,1.475
			c0.001,0.011,0.001,0.022,0.001,0.033c-0.019,0.054-0.039,0.107-0.06,0.16c-0.03-0.091-0.059-0.183-0.087-0.275
			c-0.077-0.44-0.201-0.897-0.307-1.354C23.886,7.299,23.904,7.287,23.921,7.271z M24.752,9.214c0.039-0.046,0.076-0.095,0.115-0.14
			c-0.026,0.099-0.054,0.201-0.081,0.302C24.775,9.322,24.764,9.268,24.752,9.214z M23.439,5.378
			c-0.021,0.021-0.043,0.044-0.066,0.066c0.022-0.076,0.053-0.146,0.094-0.203C23.457,5.286,23.447,5.332,23.439,5.378z
			 M24.552,9.864c0.007,0.03,0.013,0.061,0.02,0.092c-0.036-0.008-0.072-0.016-0.108-0.023C24.497,9.919,24.529,9.895,24.552,9.864z
			 M25.59,10.059c0.008-0.136,0.011-0.27,0.009-0.404c0.002,0.044,0.007,0.088,0.009,0.132c0.004,0.129,0.123,0.172,0.211,0.135
			c-0.001,0.039-0.001,0.077-0.004,0.115C25.74,10.048,25.665,10.055,25.59,10.059z"/>
	</g>
</g>
<g id="Layer_1">
</g>
</svg>
