<?xml version="1.0" encoding="utf-8"?>
<!-- Generator: Adobe Illustrator 16.0.0, SVG Export Plug-In . SVG Version: 6.00 Build 0)  -->
<!DOCTYPE svg PUBLIC "-//W3C//DTD SVG 1.1//EN" "http://www.w3.org/Graphics/SVG/1.1/DTD/svg11.dtd">
<svg version="1.1" xmlns="http://www.w3.org/2000/svg" xmlns:xlink="http://www.w3.org/1999/xlink" x="0px" y="0px" width="36px"
	 height="36px" viewBox="0 0 36 36" enable-background="new 0 0 36 36" xml:space="preserve">
<g id="Layer_2">
	<path d="M36,27.875c0,2.555-2.07,4.625-4.625,4.625H14.307c-2.554,0-4.625-2.07-4.625-4.625l0,0c0-2.555,2.071-4.625,4.625-4.625
		h17.068C33.93,23.25,36,25.32,36,27.875L36,27.875z"/>
</g>
<g id="Layer_1">
	<g>
		<path fill="#FFFFFF" d="M21.496,14.842c-0.256-0.225-0.375-0.599-0.501-0.903c-0.003-0.01-0.018-0.009-0.02,0.002
			c-0.055,0.684,0.54,1.536,1.301,1.435c0.077-0.011,0.102-0.125,0.023-0.155C22.008,15.107,21.738,15.056,21.496,14.842z"/>
		<path fill="#FFFFFF" d="M32.243-5.042c-0.062-0.127-0.201-0.249-0.357-0.215c-1.516,0.325-2.748,1.36-3.832,2.414
			c-1.189,1.154-2.229,2.446-3.346,3.668c-1.269,1.389-2.361,2.848-3.268,4.5c-0.943,1.72-1.839,3.488-2.678,5.26
			c-0.037,0.078-0.014,0.151,0.036,0.202c-0.349,1.209-0.614,2.442-0.966,3.652c-0.334,1.145-0.731,2.37-1.427,3.362
			c-1.347-0.189-2.682,0.626-3.54,1.608c-1.039,1.188-1.647,2.723-2.197,4.181c-0.551,1.458-0.998,2.979-1.7,4.374
			c-0.47,0.936-1.221,1.941-2.392,1.827c-0.345-0.034-0.679-0.085-1.012-0.182c-0.107-0.031-0.182,0.128-0.095,0.193
			c0.25,0.188,0.516,0.337,0.788,0.438c-0.052-0.006-0.104-0.014-0.156-0.02c-0.037-0.004-0.07,0.044-0.034,0.07
			c1.243,0.929,3.15,1.072,4.643,0.878c1.644-0.215,3.222-0.87,4.547-1.862c1.319-0.989,2.35-2.35,2.922-3.895
			c0.529-1.429,0.826-3.449,0.24-4.934c0.029-0.017,0.058-0.039,0.084-0.069c1.767-2.088,3.391-4.336,5.697-5.877
			c0.005-0.004,0-0.013-0.006-0.011c-0.197,0.067-0.39,0.145-0.577,0.229c-0.009-0.02-0.025-0.035-0.054-0.037
			c-0.259-0.025-0.474-0.047-0.712-0.167c-0.304-0.152-0.549-0.416-0.757-0.679c-0.018-0.021-0.048,0.002-0.033,0.024
			c0.285,0.415,0.77,0.942,1.324,0.969c-0.773,0.384-1.475,0.909-2.123,1.511c-0.006-0.002-0.009-0.004-0.014-0.005
			c-0.756-0.067-1.074-0.599-1.246-1.29c-0.015-0.057-0.105-0.032-0.098,0.023c0.092,0.633,0.422,1.519,1.158,1.458
			c-0.373,0.36-0.73,0.743-1.074,1.135c-0.004-0.011-0.009-0.022-0.016-0.031c-0.114-0.144-0.295-0.207-0.436-0.325
			c-0.23-0.195-0.348-0.485-0.385-0.777c-0.018-0.131-0.209-0.107-0.201,0.021c0.016,0.302,0.109,0.566,0.281,0.813
			c0.139,0.199,0.379,0.43,0.631,0.442c-0.312,0.361-0.615,0.729-0.912,1.094c-0.109-0.015-0.219-0.035-0.321-0.102
			c-0.261-0.166-0.364-0.505-0.421-0.791c-0.016-0.074-0.129-0.064-0.121,0.014c0.031,0.325,0.111,0.685,0.361,0.915
			c0.08,0.075,0.193,0.146,0.314,0.194c-0.127,0.156-0.253,0.312-0.378,0.466c-0.295,0.062-0.582,0.065-0.878-0.085
			c-0.211-0.106-0.384-0.291-0.529-0.472c-0.109-0.138-0.238-0.25-0.34-0.39c0.003,0,0.006,0,0.008,0
			c0.313-0.029,0.436-0.323,0.354-0.555c0.622-0.972,0.979-2.113,1.29-3.21c0.373-1.306,0.665-2.72,0.737-4.084
			c0.022-0.012,0.044-0.029,0.062-0.053c1.068-1.46,1.82-3.137,2.7-4.713c0.903-1.617,1.904-3.191,3.191-4.531
			c1.064-1.107,2.021-2.314,3.084-3.423c1.003-1.044,2.222-2.227,3.665-2.626c0.291,0.659,0.462,1.322,0.535,1.984
			c-0.006,0.006-0.012,0.013-0.016,0.021c-0.277,0.616-0.385,1.299-0.578,1.945c-0.214,0.717-0.465,1.422-0.734,2.12
			c-0.58,1.501-1.217,2.969-1.987,4.384c-0.123,0.225-0.251,0.449-0.38,0.672c-1.434,1.862-3.037,3.614-4.397,5.525
			c-0.101,0.089-0.202,0.177-0.305,0.263c-0.008-0.015-0.017-0.029-0.03-0.041c-0.144-0.132-0.302-0.238-0.463-0.34
			c0.246-0.4,0.504-0.794,0.77-1.183c0.148,0.027,0.295,0.018,0.427-0.049c0.084-0.042,0.104-0.144,0.03-0.208
			c-0.062-0.055-0.127-0.092-0.193-0.121c0.238-0.338,0.481-0.673,0.729-1.006c0.266,0.104,0.542,0.136,0.791,0.063
			c0.123-0.036,0.091-0.192,0.004-0.243c-0.16-0.091-0.325-0.159-0.488-0.229c0.444-0.587,0.896-1.168,1.348-1.749
			c0.188-0.006,0.361-0.062,0.482-0.193c0.061-0.065,0.02-0.167-0.051-0.202c-0.033-0.016-0.064-0.028-0.098-0.038
			c0.389-0.505,0.772-1.012,1.146-1.525c0.061-0.084,0.121-0.17,0.182-0.255c0.178,0.018,0.336-0.063,0.498-0.137
			c0.102-0.046,0.085-0.191-0.024-0.214c-0.065-0.013-0.126-0.037-0.186-0.06c0.446-0.645,0.865-1.308,1.245-1.992
			c0.121-0.008,0.23-0.048,0.311-0.136c0.035-0.039,0.033-0.107,0.001-0.148c-0.037-0.047-0.069-0.078-0.103-0.1
			C30.352,2,30.5,1.702,30.639,1.399c0.092-0.201,0.185-0.411,0.273-0.625c0.006,0.002,0.011,0.006,0.017,0.008
			c0.08,0.028,0.188-0.028,0.17-0.125c-0.012-0.066-0.036-0.125-0.065-0.181c0.478-1.208,0.848-2.565,0.718-3.8
			c-0.016-0.146-0.206-0.131-0.24-0.005C31.294-2.534,31.207-1.71,31-0.911c-0.086,0.331-0.189,0.657-0.304,0.979
			c-0.139-0.149-0.264-0.311-0.383-0.477c0.144-0.434,0.244-0.891,0.184-1.309c-0.012-0.071-0.119-0.12-0.163-0.046
			c-0.341,0.562-0.474,1.262-0.735,1.868c-0.209,0.487-0.453,0.963-0.715,1.428c-0.133-0.2-0.228-0.429-0.29-0.66
			c-0.039-0.145-0.274-0.082-0.253,0.062c0.052,0.348,0.164,0.662,0.346,0.94c-0.061,0.103-0.12,0.207-0.183,0.308
			c-0.334,0.547-0.708,1.066-1.091,1.58c-0.095,0.014-0.178,0.095-0.154,0.208c-0.4,0.534-0.805,1.065-1.178,1.619
			c-0.111,0.165-0.223,0.331-0.334,0.497c-0.085-0.205-0.136-0.427-0.166-0.629C25.554,5.274,25.298,5.31,25.3,5.489
			c0.002,0.347,0.057,0.681,0.197,0.975c-0.361,0.541-0.725,1.081-1.1,1.612c-0.073-0.195-0.114-0.404-0.145-0.622
			c-0.008-0.057-0.09-0.091-0.126-0.036c-0.221,0.341-0.196,0.728-0.028,1.078c-0.172,0.236-0.346,0.472-0.524,0.703
			c-0.118,0.153-0.238,0.305-0.36,0.455c-0.266-0.352-0.469-0.789-0.625-1.188c-0.021-0.054-0.102-0.032-0.097,0.024
			c0.047,0.552,0.177,1.021,0.476,1.462c-0.229,0.273-0.468,0.541-0.717,0.796c-0.029,0.031-0.065,0.062-0.104,0.095
			c-0.162-0.296-0.288-0.618-0.396-0.929c-0.045-0.128-0.256-0.077-0.233,0.058c0.057,0.346,0.168,0.746,0.336,1.129
			c-0.066,0.068-0.125,0.139-0.157,0.215c-0.028,0.064,0,0.169,0.006,0.224c0.026,0.236-0.056,0.43-0.183,0.612
			c-0.644-0.557-1.301-1.138-2.057-1.477c-0.178-0.08-0.342,0.139-0.229,0.292c0.55,0.742,1.314,1.345,2,1.957
			c0.669,0.596,1.464,1.492,2.366,1.708c0.129,0.031,0.251-0.044,0.334-0.133c0.18-0.19,0.049-0.394-0.113-0.552
			c0.518-0.855,1.117-1.663,1.742-2.449c1.275-1.131,2.331-2.554,3.217-4.003c0.572-0.741,1.127-1.495,1.647-2.274
			C32.442,2.201,33.984-1.53,32.243-5.042z M17.489,25.208c-0.157,0.426-0.354,0.833-0.586,1.221
			c0.376-0.75,0.655-1.553,0.871-2.359c0.045-0.164,0.086-0.331,0.125-0.498C17.823,24.13,17.684,24.683,17.489,25.208z
			 M17.864,20.165c-0.046,0.052-0.077,0.117-0.078,0.186c0,0.054,0.002,0.107,0.004,0.16c-0.045,0.002-0.092,0.031-0.102,0.079
			c-0.097,0.464-0.251,0.911-0.339,1.376c-0.104,0.553-0.19,1.109-0.317,1.657c-0.258,1.107-0.686,2.154-1.255,3.136
			c-0.56,0.965-1.307,1.795-2.265,2.375c-1.038,0.627-2.291,0.821-3.486,0.832c-0.061,0-0.059,0.084-0.007,0.1
			c0.548,0.158,1.085,0.224,1.604,0.207c-0.276,0.07-0.556,0.128-0.837,0.172c-0.775,0.123-1.562,0.179-2.346,0.121
			c-0.399-0.03-0.794-0.096-1.189-0.165c0.468-0.028,0.929-0.207,1.344-0.565c1.032-0.895,1.577-2.278,2.075-3.513
			c0.615-1.522,1.078-3.099,1.813-4.574c0.607-1.22,1.454-2.47,2.817-2.896c0.349-0.109,0.719-0.129,1.084-0.152
			c0.025,0.004,0.051,0.004,0.076,0.001c0.028,0.13,0.023,0.282,0.07,0.401c0.029,0.074,0.076,0.146,0.125,0.214
			c-0.043,0.01-0.088,0.025-0.131,0.053c-1.597,1.001-2.389,2.759-3.061,4.446c-0.352,0.885-0.711,1.777-1.251,2.567
			c-0.372,0.545-0.833,0.933-1.319,1.301c0.531-1.421,1.09-2.835,1.816-4.168c0.461-0.847,0.961-1.661,1.576-2.405
			c0.599-0.724,1.338-1.169,2.046-1.757c0.227-0.189,0.056-0.507-0.224-0.448c-0.843,0.176-1.553,0.926-2.109,1.543
			c-0.672,0.746-1.212,1.615-1.689,2.495c-0.83,1.526-1.454,3.265-1.749,4.989c-0.241,0.18-0.483,0.36-0.72,0.562
			c-0.088,0.075-0.054,0.228,0.075,0.222c1.953-0.098,3.252-2.303,3.984-3.861c0.796-1.693,1.31-3.631,2.911-4.752
			c-0.4,0.78-0.59,1.691-0.854,2.518c-0.356,1.113-0.759,2.214-1.286,3.258c-0.495,0.98-1.14,1.906-2.025,2.57
			c-0.43,0.321-0.887,0.57-1.398,0.734c-0.575,0.187-1.178,0.179-1.772,0.25c-0.036,0.004-0.057,0.062-0.015,0.076
			c2.262,0.783,4.302-0.982,5.407-2.76c0.653-1.05,1.11-2.217,1.523-3.377c0.384-1.078,0.87-2.229,1-3.37
			c0.003,0.001,0.007,0.003,0.01,0.005C17.551,20.085,17.708,20.139,17.864,20.165z M30.052,0.3c0.045-0.117,0.094-0.24,0.142-0.366
			c0.04,0.083,0.086,0.165,0.142,0.25c0.061,0.091,0.131,0.194,0.209,0.291C30.427,0.773,30.3,1.07,30.166,1.361
			c-0.127,0.277-0.265,0.549-0.408,0.818c-0.162-0.055-0.318-0.138-0.458-0.228c-0.008-0.005-0.016-0.013-0.025-0.019
			C29.572,1.408,29.833,0.866,30.052,0.3z M29.025,2.357c0.011-0.016,0.019-0.033,0.029-0.049c0.114,0.1,0.289,0.209,0.479,0.284
			c-0.381,0.672-0.804,1.322-1.247,1.956c-0.035-0.012-0.071-0.025-0.107-0.041c-0.168-0.073-0.303-0.203-0.409-0.352
			C28.208,3.569,28.641,2.981,29.025,2.357z M26.487,5.908c0.328-0.484,0.68-0.953,1.031-1.42c0.104,0.142,0.227,0.268,0.375,0.372
			c0.04,0.027,0.08,0.05,0.121,0.072c-0.119,0.167-0.24,0.333-0.363,0.498c-0.338,0.459-0.682,0.914-1.027,1.367
			c-0.15-0.013-0.3-0.042-0.445-0.139c-0.045-0.031-0.088-0.066-0.127-0.104C26.196,6.337,26.341,6.122,26.487,5.908z M25.813,6.907
			c0.031,0.031,0.064,0.061,0.1,0.089c0.104,0.085,0.243,0.161,0.396,0.215c-0.416,0.549-0.829,1.099-1.229,1.658
			c-0.122-0.069-0.239-0.15-0.347-0.26c-0.02-0.02-0.036-0.041-0.053-0.061C25.069,8.01,25.442,7.459,25.813,6.907z M23.849,9.641
			c0.188-0.232,0.369-0.469,0.548-0.708c0.118,0.129,0.253,0.244,0.398,0.339c-0.246,0.354-0.484,0.713-0.714,1.077
			c-0.016-0.005-0.03-0.01-0.045-0.016c-0.188-0.068-0.352-0.185-0.498-0.32C23.644,9.891,23.747,9.767,23.849,9.641z
			 M22.413,11.138c0.303-0.253,0.584-0.53,0.853-0.82c0.157,0.156,0.36,0.314,0.576,0.418c-0.229,0.381-0.447,0.771-0.652,1.168
			c-0.243-0.152-0.484-0.308-0.685-0.539c-0.052-0.059-0.099-0.12-0.145-0.184C22.378,11.167,22.395,11.153,22.413,11.138z
			 M21.536,12.167c0.117-0.147,0.219-0.3,0.314-0.466c0.055-0.096,0.115-0.173,0.182-0.24c0.229,0.404,0.527,0.758,0.901,0.965
			c-0.098,0.208-0.19,0.419-0.28,0.632c-0.15-0.107-0.299-0.216-0.443-0.329C21.983,12.552,21.761,12.361,21.536,12.167z
			 M23.27,13.501c-0.174-0.13-0.352-0.256-0.529-0.382c0.112-0.208,0.229-0.415,0.348-0.619c0.159,0.066,0.332,0.106,0.517,0.113
			c-0.23,0.186-0.466,0.367-0.707,0.538c-0.028,0.02-0.003,0.066,0.029,0.052c0.263-0.111,0.52-0.237,0.769-0.374
			C23.55,13.051,23.408,13.275,23.27,13.501z M31.315,2.251c0.055-0.154,0.109-0.309,0.161-0.464
			c0.241-0.733,0.45-1.477,0.634-2.227c0.055-0.226,0.113-0.454,0.167-0.685C32.175,0.027,31.817,1.162,31.315,2.251z"/>
	</g>
</g>
</svg>
