<?xml version="1.0" encoding="utf-8"?>
<!-- Generator: Adobe Illustrator 16.0.0, SVG Export Plug-In . SVG Version: 6.00 Build 0)  -->
<!DOCTYPE svg PUBLIC "-//W3C//DTD SVG 1.1//EN" "http://www.w3.org/Graphics/SVG/1.1/DTD/svg11.dtd">
<svg version="1.1" xmlns="http://www.w3.org/2000/svg" xmlns:xlink="http://www.w3.org/1999/xlink" x="0px" y="0px" width="36px"
	 height="36px" viewBox="0 0 36 36" enable-background="new 0 0 36 36" xml:space="preserve">
<g id="Layer_2">
	<path d="M36,29.875c0,0.767-2.07,1.388-4.625,1.388H14.307c-2.554,0-4.625-0.621-4.625-1.388l0,0c0-0.767,2.071-1.388,4.625-1.388
		h17.068C33.93,28.487,36,29.108,36,29.875L36,29.875z"/>
</g>
<g id="Layer_1">
	<g>
		<path fill="#FFFFFF" d="M35.744,0.945c-2.467-1.86-4.824-3.901-7.528-5.418c-0.569-0.319-1.128,0.445-0.713,0.833
			c-0.003,0.012-0.008,0.021-0.011,0.034c-0.416,1.858-1.721,3.525-2.821,5.031c-1.243,1.703-2.602,3.325-3.756,5.093
			c-1.124,1.721-2.106,3.533-3.189,5.279c-1.16,1.873-2.275,3.787-3.799,5.396c-0.282,0.298-0.584,0.578-0.905,0.834
			c-0.065,0.028-0.13,0.059-0.194,0.09c-0.067,0.032-0.114,0.104-0.116,0.178c0,0.002,0,0.004,0,0.006
			c-0.004,0.022,0,0.045,0.01,0.066c0.004,0.011,0.006,0.021,0.012,0.032c0.032,0.065,0.104,0.116,0.178,0.116
			c0.243,0,0.482-0.029,0.719-0.075c-1.367,3.498-2.607,7.045-3.863,10.584c-0.059,0.088-0.117,0.176-0.174,0.267
			c-0.027,0.043-0.006,0.092,0.028,0.116c-0.001,0.009,0,0.017,0,0.025c-0.069,0.194-0.138,0.388-0.207,0.582
			c-0.091,0.255,0.239,0.455,0.435,0.283c1.533-1.347,3.174-2.559,4.837-3.744c0.259,0.038,0.543-0.146,0.553-0.394
			c1.759-1.245,3.53-2.473,5.216-3.809c0.172-0.137-0.051-0.38-0.223-0.252c-1.488,1.103-3.027,2.141-4.561,3.187
			c-0.107-0.317-0.271-0.577-0.478-0.791c-0.059-0.213-0.247-0.38-0.462-0.369c-0.671-0.416-1.558-0.572-2.373-0.688
			c0.635-1.731,1.286-3.456,1.968-5.169c0.413-0.114,0.824-0.24,1.243-0.303c0.359-0.055,0.774-0.074,1.089,0.135
			c0.4,0.266,0.318,1.074,0.27,1.463c-0.001,0.015,0,0.027,0.003,0.039c-0.074,0.08-0.146,0.164-0.214,0.255
			c-0.076,0.103,0.052,0.21,0.151,0.171c1.124-0.445,2.346-0.754,3.562-0.699c0.275,0.898,0.279,1.868,0.388,2.795
			c0.015,0.131,0.203,0.101,0.216-0.017c0.012-0.098,0.024-0.195,0.038-0.294c0.039,0.05,0.119,0.062,0.175-0.004
			c0.612-0.746,1.259-1.475,1.802-2.272c0.584-0.858,1.169-1.717,1.755-2.574c1.191-1.743,2.364-3.5,3.565-5.236
			c2.379-3.441,4.812-6.844,7.535-10.024C36.106,1.465,35.957,1.106,35.744,0.945z M15.092,25.334
			c-0.025,0.014-0.052,0.029-0.08,0.048c-0.067,0.039-0.135,0.081-0.202,0.12c-0.04-0.037-0.077-0.077-0.118-0.113
			c0.066-0.07,0.132-0.143,0.198-0.214C14.961,25.224,15.028,25.277,15.092,25.334z M13.866,24.764
			c-0.021-0.018-0.041-0.035-0.062-0.053c0.031,0.008,0.062,0.016,0.093,0.024C13.887,24.744,13.877,24.754,13.866,24.764z
			 M11.76,25.361c0.012,0,0.024,0,0.037-0.001c-0.083,0.136-0.165,0.27-0.247,0.405c-0.026,0.033-0.05,0.069-0.075,0.104
			c0.062-0.172,0.124-0.343,0.186-0.514C11.691,25.36,11.725,25.363,11.76,25.361z M12.155,24.461
			c0.061,0.006,0.124,0.012,0.188,0.019c-0.001,0.001-0.002,0.003-0.002,0.004c-0.124,0.005-0.247,0.012-0.371,0.019
			c0.01-0.027,0.02-0.054,0.03-0.081C12.046,24.439,12.097,24.455,12.155,24.461z M27.835-1.368c0.277-0.527,0.53-1.077,0.689-1.652
			c0.446,0.276,0.884,0.565,1.315,0.863c-0.754,0.148-1.463,0.403-2.061,0.891C27.798-1.3,27.817-1.333,27.835-1.368z M26.499,0.82
			c0.749-0.241,1.534-0.397,2.291-0.601c0.433-0.117,1.274-0.231,1.436-0.733c0.014-0.044-0.038-0.101-0.083-0.071
			c-1.054,0.703-2.422,0.768-3.569,1.297c0.406-0.6,0.79-1.214,1.137-1.849c0.693-0.514,1.524-0.73,2.379-0.847
			c0.373,0.263,0.743,0.531,1.108,0.804c-0.249,0.149-0.503,0.403-0.597,0.52c-0.724,0.903-1.473,1.794-2.219,2.688
			c-1.09,0.464-2.28,0.679-3.395,1.073c-0.045,0.016-0.019,0.092,0.027,0.079c1.001-0.286,2.043-0.429,3.029-0.746
			c-0.35,0.422-0.698,0.845-1.041,1.273c-1.234,0.356-2.55,0.59-3.571,1.414c-0.026,0.021,0.008,0.057,0.033,0.038
			c0.966-0.688,2.173-0.877,3.313-1.168c-0.317,0.4-0.629,0.803-0.933,1.211c-0.569,0.192-1.139,0.381-1.717,0.553
			c-0.651,0.195-1.275,0.397-1.86,0.72c0.604-0.835,1.229-1.655,1.861-2.477C24.933,2.957,25.752,1.911,26.499,0.82z M23.585,8.646
			c-1.072,0.283-2.175,0.517-3.142,1.056c-0.028,0.016-0.007,0.057,0.023,0.045c0.931-0.355,1.927-0.485,2.893-0.718
			c-0.251,0.431-0.5,0.863-0.747,1.295c-0.32,0.1-0.647,0.178-0.975,0.249c-0.734,0.157-1.505,0.263-2.259,0.292
			c0.452-0.706,0.897-1.417,1.346-2.126c0.134-0.21,0.269-0.418,0.405-0.625c0.651-0.139,1.299-0.306,1.936-0.494
			c0.444-0.131,0.891-0.26,1.338-0.381c0.016-0.004,0.03-0.008,0.046-0.011c-0.021,0.034-0.044,0.066-0.064,0.1
			C24.111,7.763,23.847,8.203,23.585,8.646z M24.671,6.882c-0.111,0.034-0.22,0.07-0.321,0.098
			c-0.448,0.122-0.893,0.257-1.337,0.391c-0.59,0.178-1.172,0.38-1.76,0.562c0.311-0.464,0.629-0.92,0.955-1.371
			c1.064-0.449,2.242-0.604,3.341-0.952C25.247,6.026,24.953,6.45,24.671,6.882z M19.325,10.947c0.745,0.044,1.475-0.02,2.211-0.148
			c0.312-0.055,0.619-0.125,0.924-0.209c-0.234,0.409-0.469,0.818-0.705,1.226c-0.26,0.071-0.514,0.129-0.725,0.193
			c-0.7,0.214-1.425,0.402-2.083,0.73c-0.049,0.024-0.011,0.097,0.038,0.075c0.775-0.339,1.627-0.497,2.442-0.707
			c0.057-0.014,0.118-0.029,0.183-0.045c-0.237,0.406-0.477,0.811-0.722,1.211c-0.009,0.013-0.017,0.025-0.024,0.039
			c-0.031,0.011-0.062,0.022-0.092,0.032c-0.448,0.146-0.903,0.27-1.355,0.401c-0.766,0.223-1.512,0.475-2.192,0.9
			c-0.018,0.012-0.004,0.041,0.015,0.03c0.743-0.372,1.569-0.573,2.368-0.788c0.361-0.097,0.723-0.193,1.082-0.296
			c-0.216,0.349-0.432,0.697-0.649,1.045c-0.768,0.257-1.528,0.472-2.32,0.657c-0.722,0.17-1.432,0.396-2.003,0.888
			c-0.016,0.015,0.005,0.038,0.023,0.025c1.186-0.937,2.808-0.69,4.116-1.274c-0.294,0.47-0.589,0.939-0.881,1.412
			c-0.07,0.112-0.142,0.225-0.214,0.336c-0.04,0.007-0.081,0.013-0.121,0.018c-0.582,0.072-1.167,0.112-1.751,0.148
			c-0.758,0.047-1.506,0.101-2.253,0.207c0.875-0.842,1.645-1.811,2.37-2.757C17.835,13.219,18.591,12.09,19.325,10.947z
			 M13.858,17.74c0.021-0.018,0.043-0.035,0.064-0.053c-0.004,0.013-0.01,0.025-0.015,0.039
			C13.892,17.73,13.875,17.736,13.858,17.74z M16.205,17.419c-0.532-0.083-1.11,0.041-1.63,0.151
			c-0.027,0.005-0.055,0.012-0.082,0.018c-0.056-0.093-0.173-0.146-0.287-0.14c0.145-0.126,0.287-0.256,0.426-0.39
			c0.84-0.115,1.707-0.096,2.548-0.119c0.441-0.013,0.947-0.01,1.445-0.051c-0.428,0.648-0.88,1.287-1.278,1.952
			c0.032-0.277,0.005-0.554-0.136-0.828C17.015,17.633,16.601,17.48,16.205,17.419z M27.586,10.967
			c0.075-0.395,0.063-0.798-0.032-1.22c-0.121-0.535-0.444-1.5-1.007-1.704c-0.084-0.031-0.147,0.05-0.14,0.127
			c0.023,0.242,0.183,0.429,0.312,0.628c0.18,0.281,0.322,0.587,0.429,0.904c0.208,0.616,0.207,1.295-0.004,1.909
			c-0.002,0.009-0.002,0.017-0.003,0.025c-0.374,0.564-0.746,1.131-1.115,1.699c0.18-1.188-0.133-2.731-1.45-3.031
			c-0.096-0.022-0.145,0.09-0.071,0.15c0.483,0.407,0.908,0.725,1.177,1.319c0.263,0.581,0.258,1.262,0.139,1.879
			c-0.294,0.455-0.586,0.912-0.876,1.37c0.114-0.428,0.113-0.878-0.013-1.339c-0.187-0.683-0.778-1.526-1.527-1.628
			c-0.081-0.011-0.126,0.098-0.074,0.154c0.207,0.223,0.477,0.382,0.7,0.589c0.261,0.241,0.444,0.548,0.58,0.873
			c0.261,0.628,0.196,1.386-0.074,2.005c-0.134,0.214-0.269,0.426-0.401,0.641c-0.547,0.885-1.092,1.771-1.637,2.655
			c-0.523,0.851-0.948,1.755-1.398,2.646c0.132-0.917,0.297-1.842,0.01-2.75c-0.058-0.182-0.177-0.293-0.37-0.315
			c-0.973-0.114-2.013-0.055-2.878,0.366c0.637-0.68,1.198-1.453,1.749-2.195c0.164-0.047,0.32-0.104,0.466-0.176
			c0.056-0.026,0.021-0.099-0.032-0.094c-0.086,0.008-0.172,0.02-0.258,0.033c0.044-0.059,0.088-0.117,0.131-0.175
			c0.907-1.202,1.704-2.491,2.503-3.768c1.341-2.143,2.555-4.369,4.061-6.403c0.574-0.775,1.171-1.531,1.778-2.28
			c0.007,0.012,0.016,0.022,0.028,0.031c0.612,0.385,1.137,0.608,1.496,1.286c0.344,0.648,0.396,1.525,0.197,2.225
			c-0.009,0.033,0.033,0.057,0.056,0.032c-0.219,0.305-0.436,0.61-0.652,0.916c0.042-0.237,0.032-0.486-0.045-0.747
			C29.123,6.883,28.4,6.356,27.67,6.292c-0.095-0.008-0.128,0.119-0.056,0.17c0.498,0.35,1.078,0.601,1.351,1.178
			c0.288,0.61-0.056,1.344-0.405,1.844c-0.015,0.021-0.016,0.044-0.01,0.065C28.226,10.02,27.904,10.493,27.586,10.967z
			 M30.048,7.417c0.43-0.724,0.429-1.507,0.127-2.292c-0.266-0.686-0.981-1.496-1.788-1.42c0.729-0.896,1.469-1.783,2.199-2.679
			c0.262-0.321,0.515-0.647,0.761-0.981c0.155-0.209,0.361-0.504,0.423-0.792c0.969,0.739,1.923,1.499,2.888,2.239
			C33.042,3.401,31.512,5.386,30.048,7.417z"/>
		<path fill="#FFFFFF" d="M21.27,16.182c-0.072-0.04-0.188,0.035-0.134,0.119c0.293,0.46,0.713,0.788,0.953,1.3
			c0.271,0.574,0.264,1.2,0.046,1.788c-0.022,0.062,0.07,0.089,0.097,0.031c0.258-0.578,0.302-1.178,0.098-1.779
			C22.156,17.13,21.75,16.449,21.27,16.182z"/>
		<path fill="#FFFFFF" d="M22.022,14.164c-0.102-0.003-0.144,0.129-0.061,0.187c0.498,0.344,1.005,0.505,1.263,1.106
			c0.271,0.631,0.011,1.356-0.307,1.912c-0.048,0.084,0.071,0.164,0.127,0.082c0.422-0.611,0.718-1.355,0.469-2.095
			C23.31,14.75,22.672,14.188,22.022,14.164z"/>
		<path fill="#FFFFFF" d="M29.62,2.527c-0.083-0.013-0.146,0.112-0.081,0.168c0.411,0.356,0.862,0.604,1.207,1.042
			c0.335,0.424,0.576,1.017,0.589,1.558c0.001,0.062,0.102,0.09,0.114,0.021C31.651,4.206,30.787,2.718,29.62,2.527z"/>
		<path fill="#FFFFFF" d="M31.451,1.226c-0.082,0.012-0.097,0.109-0.056,0.166c0.214,0.299,0.646,0.417,0.895,0.715
			c0.331,0.398,0.293,0.935,0.19,1.407c-0.016,0.069,0.081,0.129,0.12,0.058c0.258-0.478,0.276-0.981,0.043-1.475
			C32.457,1.705,31.918,1.156,31.451,1.226z"/>
		<path fill="#FFFFFF" d="M32.479,0.554c0.565,0.34,1.377,0.79,0.973,1.561c-0.01,0.02,0.016,0.037,0.028,0.019
			c0.22-0.304,0.351-0.534,0.205-0.91c-0.185-0.477-0.698-0.679-1.148-0.79C32.465,0.416,32.41,0.513,32.479,0.554z"/>
	</g>
</g>
</svg>
