<?xml version="1.0" encoding="utf-8"?>
<!-- Generator: Adobe Illustrator 16.0.0, SVG Export Plug-In . SVG Version: 6.00 Build 0)  -->
<!DOCTYPE svg PUBLIC "-//W3C//DTD SVG 1.1//EN" "http://www.w3.org/Graphics/SVG/1.1/DTD/svg11.dtd">
<svg version="1.1" id="Layer_1" xmlns="http://www.w3.org/2000/svg" xmlns:xlink="http://www.w3.org/1999/xlink" x="0px" y="0px"
	 width="612px" height="612px" viewBox="0 90.538 612 612" enable-background="new 0 90.538 612 612" xml:space="preserve">
<g>
	<path fill="none" stroke="#000000" stroke-width="2" d="M87.935,603.072c-0.126,0.93-0.443,1.722-0.95,2.376
		c-0.507,0.655-1.088,1.109-1.743,1.362c-0.655,0.254-1.352,0.285-2.091,0.095c-0.739-0.19-1.425-0.687-2.059-1.488
		c-0.549-0.676-0.855-1.426-0.918-2.249c-0.063-0.824-0.18-1.637-0.348-2.439c-0.422-2.322-1.036-4.709-1.837-7.159
		c-2.619,0.042-5.217,0.063-7.792,0.063c-2.577,0-5.154,0.021-7.729,0.064c-0.38,1.098-0.708,2.217-0.982,3.357
		c-0.275,1.14-0.539,2.26-0.792,3.357c-0.212,0.846-0.402,1.721-0.571,2.629c-0.169,0.909-0.549,1.701-1.14,2.376
		c-0.718,0.845-1.489,1.319-2.312,1.426c-0.824,0.105-1.563-0.032-2.217-0.412c-0.655-0.38-1.183-0.961-1.584-1.742
		c-0.402-0.781-0.539-1.679-0.412-2.692c0.126-1.309,0.38-2.598,0.76-3.864c0.38-1.268,0.739-2.534,1.077-3.802
		c1.9-7.264,4.35-14.296,7.349-21.098c0.253-0.591,0.517-1.16,0.792-1.711c0.274-0.548,0.539-1.098,0.792-1.646
		c0.295-0.592,0.59-1.225,0.887-1.9c0.295-0.676,0.643-1.299,1.045-1.869c0.401-0.57,0.876-1.056,1.426-1.457
		c0.548-0.401,1.225-0.603,2.027-0.603c1.055,0,1.942,0.339,2.661,1.015c2.872,2.872,5.237,6.113,7.096,9.725
		c1.858,3.611,3.526,7.297,5.005,11.056c0.887-0.042,1.752-0.042,2.598,0c0.844,0.042,1.605,0.422,2.281,1.14
		c0.591,0.593,0.939,1.227,1.045,1.9c0.105,0.677,0.042,1.331-0.19,1.964c-0.233,0.635-0.613,1.184-1.141,1.647
		c-0.528,0.466-1.172,0.782-1.932,0.951c0.421,1.479,0.792,2.988,1.109,4.529c0.317,1.543,0.58,3.095,0.792,4.656L87.935,603.072
		L87.935,603.072z M75.01,585.839c-0.803-1.899-1.658-3.79-2.565-5.67c-0.909-1.879-1.933-3.664-3.073-5.354
		c-0.845,1.858-1.637,3.706-2.376,5.543c-0.739,1.838-1.425,3.707-2.059,5.607c1.985-0.041,3.727-0.063,5.227-0.063
		C71.663,585.903,73.278,585.882,75.01,585.839z"/>
	<path fill="none" stroke="#000000" stroke-width="2" d="M117.775,603.263c-0.126,1.056-0.518,1.921-1.172,2.597
		c-0.655,0.676-1.394,1.099-2.218,1.268c-0.824,0.168-1.616,0.063-2.376-0.317c-0.76-0.381-1.31-1.119-1.646-2.218
		c-0.38-1.182-0.529-2.417-0.444-3.706c0.084-1.287,0.127-2.48,0.127-3.58c0-2.281,0.01-4.551,0.032-6.811
		c0.021-2.259-0.075-4.529-0.285-6.811c-0.042-0.085-0.085-0.158-0.127-0.222c-0.042-0.063-0.126-0.158-0.253-0.285
		c-0.972-0.253-2.006-0.19-3.104,0.19c-1.099,0.38-2.027,0.866-2.788,1.457c-0.676,0.549-1.341,1.299-1.996,2.249
		c-0.656,0.95-0.982,1.869-0.982,2.756v8.743c0,0.676,0.021,1.415,0.063,2.218c0.042,0.803,0.011,1.584-0.095,2.344
		c-0.106,0.761-0.348,1.457-0.728,2.091c-0.38,0.634-0.993,1.098-1.837,1.394c-0.465,0.168-0.898,0.232-1.299,0.19
		c-0.402-0.042-0.834-0.148-1.299-0.317c-0.76-0.253-1.31-0.687-1.646-1.299c-0.338-0.611-0.571-1.267-0.697-1.964
		c-0.126-0.696-0.18-1.372-0.159-2.026s0.032-1.173,0.032-1.553c0-0.971-0.011-2.376-0.032-4.213
		c-0.022-1.838-0.032-3.77-0.032-5.798c0-2.026,0-3.959,0-5.797s0-3.241,0-4.214c0-0.928,0.274-1.699,0.824-2.312
		c0.548-0.612,1.193-1.014,1.932-1.204c0.739-0.19,1.521-0.147,2.345,0.127s1.51,0.834,2.059,1.679
		c1.689-1.098,3.548-1.837,5.575-2.218c2.027-0.38,3.938-0.316,5.734,0.19c1.795,0.507,3.294,1.457,4.499,2.851
		c1.204,1.394,1.826,3.316,1.869,5.766c0,0.086,0.021,0.339,0.064,0.761c0.042,0.422,0.063,1.014,0.063,1.773v16.221H117.775z"/>
	<path fill="none" stroke="#000000" stroke-width="2" d="M150.593,602.122c0.337,1.226,0.274,2.239-0.19,3.041
		c-0.465,0.803-1.109,1.341-1.933,1.616c-0.824,0.273-1.721,0.242-2.692-0.096c-0.972-0.338-1.816-1.013-2.534-2.026
		c-1.183,0.887-2.334,1.51-3.453,1.869c-1.119,0.358-2.397,0.56-3.833,0.602c-2.154,0.084-4.077-0.159-5.766-0.729
		c-1.689-0.57-3.115-1.425-4.276-2.565c-1.163-1.141-2.018-2.565-2.566-4.276c-0.549-1.711-0.739-3.686-0.57-5.924
		c0.084-0.929,0.243-1.837,0.475-2.725c0.231-0.887,0.496-1.752,0.792-2.598c0.337-0.929,0.812-1.922,1.425-2.978
		c0.612-1.056,1.235-1.964,1.869-2.724c2.281-2.788,5.131-4.794,8.553-6.019c0.591-0.212,1.394-0.401,2.407-0.571
		c1.014-0.168,2.038-0.242,3.073-0.221c1.034,0.021,2.027,0.158,2.977,0.411c0.951,0.254,1.657,0.697,2.123,1.331
		c0.38,0.507,0.654,0.95,0.824,1.33c0.168,0.38,0.263,0.782,0.285,1.204c0.021,0.423,0.021,0.878,0,1.362
		c-0.022,0.486-0.032,1.088-0.032,1.806c0,1.184-0.011,2.334-0.032,3.453c-0.022,1.119-0.011,2.249,0.032,3.39
		c0,0.38,0,0.877,0,1.489s0.021,1.257,0.063,1.932c0.042,0.676,0.095,1.32,0.159,1.933s0.159,1.108,0.285,1.489L150.593,602.122z
		 M137.162,599.271c0.464-0.294,0.992-0.622,1.584-0.981c0.591-0.357,1.119-0.77,1.583-1.235c-0.38-2.238-0.602-4.477-0.665-6.716
		c-0.063-2.238-0.053-4.498,0.032-6.779c-1.9,0.339-3.611,1.162-5.131,2.471c-1.521,1.311-2.577,2.852-3.168,4.625
		c-0.253,0.72-0.465,1.458-0.633,2.218c-0.169,0.761-0.232,1.5-0.19,2.218c0.042,0.972,0.295,1.784,0.76,2.438
		c0.464,0.655,1.024,1.152,1.679,1.489c0.654,0.339,1.351,0.528,2.091,0.57C135.841,599.63,136.528,599.524,137.162,599.271z"/>
	<path fill="none" stroke="#000000" stroke-width="2" d="M154.203,600.665c-0.253-0.718-0.359-1.426-0.317-2.123
		c0.042-0.697,0.222-1.33,0.539-1.9c0.317-0.569,0.771-1.014,1.362-1.33c0.59-0.317,1.309-0.433,2.154-0.349
		c0.464,0.042,0.887,0.169,1.267,0.38c0.38,0.212,0.729,0.466,1.045,0.761c0.317,0.295,0.633,0.612,0.951,0.95
		c0.317,0.339,0.643,0.634,0.981,0.887c0.718,0.55,1.478,0.95,2.281,1.204c0.802,0.253,1.647,0.443,2.535,0.57
		c0.591,0,1.066-0.147,1.425-0.444c0.358-0.294,0.602-0.653,0.729-1.077c0.127-0.421,0.159-0.876,0.095-1.362
		c-0.064-0.485-0.222-0.876-0.475-1.172c-0.719-0.718-1.595-1.182-2.629-1.394c-1.036-0.211-1.996-0.464-2.883-0.76
		c-1.267-0.422-2.513-0.96-3.738-1.615c-1.226-0.654-2.217-1.553-2.978-2.693c-0.803-1.182-1.278-2.438-1.426-3.77
		c-0.148-1.33-0.042-2.629,0.317-3.896c0.358-1.267,0.96-2.429,1.805-3.484c0.845-1.056,1.858-1.921,3.041-2.597
		c0.887-0.507,1.858-0.834,2.915-0.981c1.056-0.147,2.123-0.18,3.199-0.096c1.077,0.086,2.144,0.285,3.2,0.602
		c1.055,0.317,2.027,0.666,2.915,1.046c1.014,0.465,1.774,1.119,2.281,1.964c0.507,0.846,0.75,1.7,0.729,2.565
		c-0.022,0.866-0.317,1.615-0.887,2.25c-0.57,0.633-1.404,0.95-2.502,0.95c-0.675,0-1.289-0.116-1.837-0.349
		c-0.55-0.231-1.12-0.453-1.711-0.665c-0.76-0.295-1.583-0.496-2.47-0.603c-0.887-0.104-1.606-0.052-2.154,0.159
		c-0.169,0.043-0.359,0.181-0.57,0.412c-0.212,0.232-0.371,0.518-0.475,0.855c-0.106,0.338-0.127,0.675-0.063,1.013
		c0.063,0.339,0.285,0.613,0.665,0.824c1.014,0.549,2.091,0.972,3.231,1.267c1.14,0.296,2.259,0.634,3.358,1.014
		c1.098,0.38,2.123,0.866,3.073,1.457c0.951,0.593,1.743,1.438,2.376,2.535c0.928,1.605,1.403,3.284,1.425,5.036
		c0.021,1.753-0.328,3.39-1.045,4.91c-0.718,1.521-1.773,2.818-3.167,3.896c-1.394,1.077-3.021,1.722-4.878,1.933
		c-1.31,0.126-2.597,0.053-3.865-0.222c-1.267-0.274-2.493-0.719-3.674-1.33c-1.183-0.613-2.281-1.341-3.294-2.186
		c-1.014-0.845-1.9-1.731-2.661-2.661L154.203,600.665z"/>
	<path fill="none" stroke="#000000" stroke-width="2" d="M205.964,578.87c0.295-1.013,0.77-1.783,1.425-2.312
		c0.654-0.527,1.351-0.834,2.091-0.919c0.738-0.084,1.446,0.042,2.122,0.38c0.675,0.339,1.204,0.866,1.584,1.584
		c0.464-0.253,0.929-0.485,1.394-0.697c0.464-0.211,0.992-0.4,1.584-0.57c2.703-0.718,5.1-0.665,7.191,0.159
		c2.091,0.823,3.833,2.09,5.227,3.801c1.394,1.71,2.386,3.717,2.978,6.019c0.591,2.304,0.729,4.604,0.412,6.906
		c-0.317,2.303-1.131,4.456-2.439,6.462c-1.31,2.007-3.189,3.559-5.638,4.657c-1.606,0.718-3.285,1.172-5.037,1.362
		c-1.753,0.19-3.496,0.222-5.227,0.095c0,0.041,0.01,0.38,0.032,1.014c0.021,0.633,0.032,1.436,0.032,2.407s0,2.027,0,3.168
		c0,1.142-0.032,2.238-0.095,3.295c-0.064,1.056-0.148,1.995-0.253,2.819c-0.106,0.824-0.265,1.383-0.475,1.679
		c-0.549,0.802-1.225,1.309-2.027,1.521c-0.803,0.211-1.563,0.179-2.281-0.096c-0.719-0.275-1.341-0.738-1.869-1.393
		c-0.529-0.656-0.792-1.448-0.792-2.377v-38.583L205.964,578.87z M214.073,587.106c-0.126,0.212-0.19,0.307-0.19,0.285
		c0-0.021-0.085,0.054-0.254,0.222v10.454c0.845,0.126,1.689,0.19,2.534,0.19s1.731-0.127,2.661-0.381
		c1.9-0.464,3.399-1.383,4.498-2.756c1.098-1.372,1.521-3.072,1.267-5.1c-0.127-0.845-0.37-1.721-0.729-2.63
		c-0.359-0.907-0.834-1.679-1.426-2.312c-0.592-0.634-1.289-1.077-2.09-1.331c-0.803-0.253-1.711-0.168-2.725,0.254
		c-0.718,0.295-1.362,0.739-1.932,1.33C215.119,585.925,214.581,586.516,214.073,587.106z"/>
	<path fill="none" stroke="#000000" stroke-width="2" d="M246.384,600.982c0.464,0.422,0.855,0.961,1.172,1.615
		c0.317,0.655,0.485,1.31,0.507,1.964c0.021,0.654-0.126,1.267-0.444,1.837c-0.317,0.57-0.877,1.004-1.679,1.299
		c-0.634,0.211-1.33,0.254-2.091,0.127s-1.511-0.38-2.249-0.76c-0.74-0.381-1.395-0.835-1.964-1.362
		c-0.57-0.528-0.981-1.109-1.235-1.743c-0.085-0.211-0.149-0.453-0.19-0.728c-0.043-0.274-0.063-0.518-0.063-0.729v-35.162
		c0-0.972,0.37-1.796,1.109-2.471c0.739-0.676,1.552-1.078,2.439-1.205c0.421-0.041,0.875,0.022,1.362,0.19
		c0.484,0.17,0.939,0.412,1.362,0.729c0.421,0.316,0.771,0.687,1.045,1.108c0.274,0.423,0.412,0.866,0.412,1.331
		c0,1.098,0,2.556,0,4.371c0,1.817,0.01,3.802,0.032,5.955c0.021,2.154,0.032,4.383,0.032,6.685c0,2.303-0.011,4.509-0.032,6.62
		c-0.022,2.112-0.032,4.045-0.032,5.798c0,1.752-0.022,3.157-0.063,4.213L246.384,600.982z"/>
	<path fill="none" stroke="#000000" stroke-width="2" d="M279.266,602.122c0.337,1.226,0.274,2.239-0.19,3.041
		c-0.465,0.803-1.109,1.341-1.933,1.616c-0.824,0.273-1.722,0.242-2.692-0.096c-0.972-0.338-1.816-1.013-2.534-2.026
		c-1.183,0.887-2.334,1.51-3.453,1.869c-1.119,0.358-2.397,0.56-3.833,0.602c-2.154,0.084-4.077-0.159-5.766-0.729
		c-1.69-0.57-3.115-1.425-4.277-2.565c-1.162-1.141-2.017-2.565-2.565-4.276c-0.55-1.711-0.739-3.686-0.57-5.924
		c0.083-0.929,0.242-1.837,0.475-2.725c0.231-0.887,0.496-1.752,0.792-2.598c0.337-0.929,0.813-1.922,1.425-2.978
		s1.236-1.964,1.869-2.724c2.281-2.788,5.132-4.794,8.553-6.019c0.591-0.212,1.394-0.401,2.408-0.571
		c1.013-0.168,2.037-0.242,3.073-0.221c1.034,0.021,2.027,0.158,2.978,0.411c0.95,0.254,1.657,0.697,2.122,1.331
		c0.38,0.507,0.654,0.95,0.824,1.33c0.168,0.38,0.263,0.782,0.285,1.204c0.021,0.423,0.021,0.878,0,1.362
		c-0.022,0.486-0.032,1.088-0.032,1.806c0,1.184-0.011,2.334-0.032,3.453c-0.022,1.119-0.011,2.249,0.032,3.39
		c0,0.38,0,0.877,0,1.489s0.021,1.257,0.064,1.932c0.042,0.676,0.095,1.32,0.158,1.933c0.064,0.612,0.159,1.108,0.285,1.489
		L279.266,602.122z M265.835,599.271c0.464-0.294,0.992-0.622,1.584-0.981c0.591-0.357,1.119-0.77,1.584-1.235
		c-0.38-2.238-0.602-4.477-0.666-6.716c-0.063-2.238-0.053-4.498,0.032-6.779c-1.9,0.339-3.61,1.162-5.131,2.471
		c-1.52,1.311-2.577,2.852-3.168,4.625c-0.253,0.72-0.465,1.458-0.633,2.218c-0.169,0.761-0.232,1.5-0.19,2.218
		c0.042,0.972,0.295,1.784,0.76,2.438c0.464,0.655,1.024,1.152,1.679,1.489c0.654,0.339,1.352,0.528,2.091,0.57
		C264.514,599.63,265.201,599.524,265.835,599.271z"/>
	<path fill="none" stroke="#000000" stroke-width="2" d="M284.525,583.812c-0.845-0.211-1.574-0.57-2.186-1.077
		c-0.613-0.508-1.036-1.098-1.267-1.774c-0.233-0.675-0.233-1.371,0-2.091c0.231-0.718,0.75-1.372,1.552-1.964
		c0.676-0.507,1.436-0.76,2.281-0.76c0.845,0,1.668,0,2.471,0c0-0.295-0.022-0.939-0.063-1.932c-0.042-0.992-0.053-2.08-0.032-3.264
		c0.021-1.182,0.095-2.312,0.221-3.39c0.127-1.077,0.359-1.826,0.697-2.249c0.844-1.182,1.889-1.742,3.136-1.679
		c1.246,0.063,2.27,0.665,3.073,1.806c0.168,0.212,0.327,0.465,0.475,0.76c0.147,0.296,0.222,0.57,0.222,0.824
		c0.042,1.521,0.053,3.041,0.032,4.562c-0.022,1.52-0.032,3.041-0.032,4.562h5.005c0.76,0,1.415,0.253,1.964,0.76
		c0.548,0.507,0.939,1.099,1.172,1.773c0.231,0.676,0.295,1.373,0.19,2.091c-0.106,0.72-0.433,1.311-0.981,1.774
		c-0.972,0.803-2.102,1.226-3.39,1.267c-1.289,0.042-2.608,0.063-3.959,0.063c0,2.323-0.011,4.647-0.032,6.97
		c-0.022,2.323-0.011,4.646,0.032,6.969c0,1.014,0.053,2.05,0.159,3.104c0.104,1.057,0.032,2.07-0.222,3.041
		c-0.212,0.761-0.57,1.363-1.077,1.806c-0.507,0.443-1.077,0.718-1.71,0.824c-0.634,0.104-1.289,0.063-1.964-0.127
		c-0.676-0.19-1.31-0.538-1.9-1.045c-0.296-0.296-0.518-0.803-0.666-1.521c-0.148-0.718-0.243-1.479-0.285-2.281
		c-0.042-0.929-0.042-1.922,0-2.978c0-0.845,0-1.942,0-3.295c0-1.351-0.011-2.756-0.032-4.213c-0.022-1.458-0.032-2.841-0.032-4.149
		c0-1.31,0-2.345,0-3.104L284.525,583.812z"/>
	<path fill="none" stroke="#000000" stroke-width="2" d="M328.24,576.97c0.507-0.845,1.14-1.426,1.9-1.742
		c0.76-0.317,1.51-0.391,2.249-0.222c0.738,0.169,1.394,0.549,1.964,1.14c0.57,0.592,0.918,1.373,1.045,2.345
		c0.085,0.719-0.053,1.732-0.412,3.041c-0.358,1.31-0.803,2.661-1.33,4.055c-0.528,1.394-1.066,2.724-1.615,3.991
		c-0.55,1.267-0.993,2.26-1.331,2.978c-1.437,3.168-2.999,6.271-4.688,9.313c-1.689,3.041-3.421,6.061-5.194,9.061
		c-0.254,0.464-0.549,1.034-0.887,1.71c-0.339,0.675-0.688,1.372-1.046,2.091c-0.359,0.718-0.728,1.394-1.108,2.027
		c-0.381,0.633-0.74,1.098-1.077,1.394c-0.761,0.718-1.543,1.141-2.345,1.267c-0.803,0.127-1.531,0.021-2.186-0.316
		c-0.655-0.339-1.183-0.867-1.584-1.585c-0.402-0.719-0.561-1.584-0.475-2.597c0.041-0.381,0.211-0.877,0.507-1.489
		c0.295-0.612,0.633-1.246,1.014-1.9c0.38-0.655,0.76-1.278,1.14-1.869c0.38-0.593,0.676-1.078,0.887-1.458
		c0.845-1.394,1.657-2.787,2.439-4.181c0.78-1.394,1.573-2.788,2.376-4.182c-2.788-2.322-5.206-4.91-7.255-7.761
		c-2.05-2.852-3.622-5.987-4.72-9.409c-0.212-0.591-0.423-1.182-0.634-1.773c-0.212-0.592-0.275-1.204-0.19-1.838
		c0.084-0.718,0.285-1.362,0.602-1.932s0.729-1.034,1.236-1.394c0.507-0.358,1.086-0.56,1.742-0.602
		c0.654-0.042,1.319,0.105,1.996,0.443c0.548,0.296,0.981,0.708,1.299,1.236c0.316,0.527,0.58,1.099,0.791,1.71
		c0.212,0.613,0.391,1.235,0.539,1.869c0.147,0.634,0.327,1.204,0.538,1.711c1.689,4.182,4.246,7.751,7.666,10.707
		c1.225-2.535,2.323-5.078,3.295-7.635c0.971-2.555,1.838-5.164,2.598-7.824L328.24,576.97z"/>
	<path fill="none" stroke="#000000" stroke-width="2" d="M341.037,585.364c0.041-0.274,0.021-0.771-0.063-1.489
		c-0.676-0.38-1.204-0.865-1.584-1.457c-0.38-0.591-0.602-1.225-0.665-1.9c-0.064-0.675,0.063-1.319,0.38-1.933
		c0.316-0.611,0.833-1.13,1.552-1.552c0.972-0.548,2.037-0.654,3.2-0.317c1.161,0.339,2.164,0.846,3.009,1.521
		c1.056-0.802,2.154-1.478,3.296-2.026c1.14-0.549,2.302-0.919,3.483-1.109c1.183-0.19,2.386-0.158,3.611,0.095
		c1.225,0.254,2.428,0.781,3.611,1.584c0.591,0.38,1.14,0.855,1.646,1.426s0.824,1.214,0.95,1.932
		c0.212,1.057,0.127,1.976-0.253,2.757s-0.909,1.352-1.584,1.71c-0.676,0.359-1.437,0.465-2.281,0.317
		c-0.846-0.147-1.647-0.602-2.408-1.362c-0.253-0.169-0.433-0.307-0.538-0.412s-0.327-0.242-0.665-0.412
		c-0.676-0.168-1.341-0.126-1.996,0.127c-0.655,0.254-1.289,0.602-1.9,1.045c-0.613,0.444-1.184,0.93-1.71,1.458
		c-0.529,0.527-1.005,1.003-1.427,1.425v16.155c0,0.634-0.126,1.246-0.38,1.838c-0.38,0.971-0.981,1.646-1.805,2.026
		c-0.824,0.381-1.647,0.485-2.471,0.317c-0.824-0.169-1.543-0.592-2.154-1.267c-0.613-0.676-0.919-1.542-0.919-2.598v-17.739
		C340.974,585.691,340.995,585.64,341.037,585.364z"/>
	<path fill="none" stroke="#000000" stroke-width="2" d="M373.854,606.209c-0.846,0.611-1.722,0.896-2.63,0.854
		s-1.71-0.412-2.408-1.109c-0.696-0.696-1.045-1.657-1.045-2.882v-35.227c0-0.971,0.38-1.795,1.141-2.471s1.604-1.098,2.534-1.268
		c0.929-0.167,1.795-0.02,2.598,0.444c0.803,0.466,1.245,1.331,1.33,2.598c0.169,2.196,0.243,4.34,0.222,6.431
		s-0.053,4.192-0.095,6.304c1.562-1.055,3.188-1.763,4.879-2.122c1.689-0.358,3.315-0.349,4.878,0.031
		c1.562,0.381,3.021,1.141,4.373,2.281c1.351,1.141,2.449,2.725,3.294,4.752c0.591,1.353,0.992,2.799,1.204,4.34
		c0.211,1.543,0.326,3.104,0.348,4.688s0,3.158-0.063,4.72c-0.063,1.563-0.095,3.042-0.095,4.436c0,0.887-0.232,1.689-0.697,2.407
		s-1.045,1.245-1.742,1.584c-0.697,0.338-1.437,0.443-2.218,0.317c-0.781-0.127-1.488-0.592-2.122-1.394
		c-0.634-0.846-1.025-1.838-1.173-2.978c-0.147-1.141-0.19-2.354-0.126-3.644c0.063-1.287,0.158-2.606,0.285-3.959
		c0.126-1.352,0.158-2.65,0.095-3.896c-0.063-1.245-0.307-2.397-0.729-3.453s-1.161-1.922-2.217-2.598
		c-0.846-0.127-1.605-0.073-2.281,0.158c-0.676,0.232-1.289,0.581-1.837,1.046c-0.55,0.465-1.067,0.992-1.553,1.584
		c-0.486,0.592-0.982,1.183-1.489,1.773c-0.127,0.212-0.274,0.411-0.443,0.602s-0.359,0.392-0.57,0.602V603.2
		C375.248,604.593,374.699,605.596,373.854,606.209z"/>
	<path fill="none" stroke="#000000" stroke-width="2" d="M420.674,576.97c0.507-0.845,1.14-1.426,1.9-1.742
		c0.76-0.317,1.51-0.391,2.249-0.222c0.738,0.169,1.394,0.549,1.964,1.14c0.57,0.592,0.918,1.373,1.045,2.345
		c0.084,0.719-0.053,1.732-0.412,3.041c-0.359,1.31-0.803,2.661-1.33,4.055c-0.528,1.394-1.066,2.724-1.616,3.991
		c-0.549,1.267-0.992,2.26-1.33,2.978c-1.437,3.168-2.999,6.271-4.688,9.313c-1.689,3.041-3.421,6.061-5.194,9.061
		c-0.254,0.464-0.55,1.034-0.888,1.71c-0.339,0.675-0.687,1.372-1.045,2.091c-0.359,0.718-0.729,1.394-1.108,2.027
		c-0.381,0.633-0.739,1.098-1.077,1.394c-0.761,0.718-1.543,1.141-2.345,1.267c-0.803,0.127-1.531,0.021-2.186-0.316
		c-0.655-0.339-1.183-0.867-1.583-1.585c-0.402-0.719-0.561-1.584-0.476-2.597c0.041-0.381,0.211-0.877,0.507-1.489
		c0.295-0.612,0.634-1.246,1.014-1.9c0.38-0.655,0.76-1.278,1.14-1.869c0.381-0.593,0.676-1.078,0.888-1.458
		c0.844-1.394,1.657-2.787,2.438-4.181s1.572-2.788,2.376-4.182c-2.788-2.322-5.206-4.91-7.254-7.761
		c-2.05-2.852-3.623-5.987-4.721-9.409c-0.212-0.591-0.423-1.182-0.634-1.773c-0.212-0.592-0.274-1.204-0.19-1.838
		c0.085-0.718,0.285-1.362,0.602-1.932s0.729-1.034,1.236-1.394c0.507-0.358,1.087-0.56,1.742-0.602
		c0.654-0.042,1.319,0.105,1.996,0.443c0.549,0.296,0.981,0.708,1.299,1.236c0.317,0.527,0.58,1.099,0.792,1.71
		c0.211,0.613,0.391,1.235,0.538,1.869s0.327,1.204,0.539,1.711c1.689,4.182,4.245,7.751,7.666,10.707
		c1.225-2.535,2.322-5.078,3.294-7.635c0.972-2.555,1.838-5.164,2.599-7.824L420.674,576.97z"/>
	<path fill="none" stroke="#000000" stroke-width="2" d="M456.975,603.263c-0.126,1.056-0.518,1.921-1.172,2.597
		c-0.655,0.676-1.394,1.099-2.217,1.268c-0.824,0.168-1.616,0.063-2.377-0.317c-0.76-0.38-1.31-1.119-1.646-2.218
		c-0.38-1.182-0.528-2.417-0.443-3.706c0.084-1.287,0.126-2.48,0.126-3.58c0-2.281,0.011-4.551,0.032-6.811
		c0.021-2.259-0.074-4.529-0.285-6.811c-0.042-0.085-0.085-0.158-0.127-0.222s-0.127-0.158-0.253-0.285
		c-0.973-0.253-2.007-0.19-3.104,0.19c-1.1,0.38-2.027,0.866-2.787,1.457c-0.677,0.549-1.342,1.299-1.997,2.249
		c-0.654,0.95-0.981,1.869-0.981,2.756v8.743c0,0.676,0.021,1.415,0.063,2.218c0.042,0.803,0.011,1.584-0.095,2.344
		c-0.105,0.761-0.349,1.457-0.729,2.091s-0.992,1.098-1.837,1.394c-0.466,0.168-0.897,0.232-1.299,0.19
		c-0.402-0.042-0.835-0.148-1.299-0.317c-0.76-0.253-1.31-0.687-1.647-1.299c-0.338-0.611-0.57-1.267-0.697-1.964
		c-0.126-0.696-0.18-1.372-0.158-2.026c0.021-0.654,0.032-1.173,0.032-1.553c0-0.971-0.012-2.376-0.032-4.213
		c-0.021-1.838-0.031-3.77-0.031-5.798c0-2.026,0-3.959,0-5.797s0-3.241,0-4.214c0-0.928,0.273-1.699,0.823-2.312
		c0.549-0.612,1.192-1.014,1.933-1.204c0.738-0.19,1.521-0.147,2.344,0.127c0.824,0.274,1.51,0.834,2.06,1.679
		c1.688-1.098,3.548-1.837,5.575-2.218c2.026-0.38,3.938-0.316,5.732,0.19c1.796,0.507,3.296,1.457,4.499,2.851
		c1.204,1.394,1.826,3.316,1.869,5.766c0,0.086,0.021,0.339,0.063,0.761s0.064,1.014,0.064,1.773v16.221H456.975z"/>
	<path fill="none" stroke="#000000" stroke-width="2" d="M479.403,596.99c1.056-0.676,2.059-0.972,3.01-0.887
		c0.95,0.085,1.73,0.411,2.344,0.981c0.611,0.57,0.95,1.33,1.014,2.281c0.062,0.95-0.265,1.954-0.982,3.01
		c-0.466,0.718-1.131,1.372-1.995,1.964c-0.867,0.591-1.701,1.056-2.503,1.394c-1.859,0.844-3.738,1.225-5.639,1.14
		c-1.901-0.085-3.665-0.549-5.291-1.394s-3.031-2.017-4.213-3.516c-1.184-1.499-1.985-3.241-2.408-5.228
		c-0.845-3.801-0.676-7.454,0.507-10.96c0.465-1.267,1.023-2.491,1.68-3.675c0.653-1.182,1.445-2.259,2.375-3.231
		c0.93-0.971,1.964-1.826,3.104-2.565c1.141-0.738,2.386-1.235,3.738-1.488c0.929-0.169,2.111-0.159,3.548,0.031
		c1.436,0.19,2.84,0.561,4.213,1.109c1.372,0.549,2.576,1.267,3.611,2.154c1.034,0.887,1.615,1.942,1.742,3.167
		c0.085,0.677,0,1.3-0.253,1.87c-0.254,0.57-0.613,1.045-1.077,1.426c-0.466,0.38-1.005,0.644-1.616,0.791
		c-0.613,0.148-1.235,0.138-1.869-0.031c-0.761-0.211-1.362-0.496-1.806-0.855c-0.443-0.358-1.024-0.833-1.742-1.425
		c-0.339-0.085-0.655-0.222-0.95-0.412c-0.296-0.19-0.613-0.264-0.951-0.222l-1.71,0.19c-0.296,0.169-0.57,0.317-0.824,0.443
		c-0.253,0.127-0.507,0.254-0.76,0.381c-1.438,1.436-2.493,3.03-3.168,4.782c-0.676,1.754-0.846,3.644-0.507,5.671
		c0.211,1.31,0.623,2.386,1.235,3.23c0.612,0.846,1.33,1.426,2.154,1.743c0.824,0.316,1.731,0.348,2.725,0.095
		c0.992-0.254,1.975-0.824,2.945-1.711L479.403,596.99z"/>
	<path fill="none" stroke="#000000" stroke-width="2" d="M498.473,606.209c-0.846,0.611-1.722,0.896-2.63,0.854
		s-1.71-0.412-2.408-1.109c-0.697-0.696-1.045-1.657-1.045-2.882v-35.227c0-0.971,0.38-1.795,1.141-2.471
		c0.76-0.676,1.604-1.098,2.534-1.268c0.929-0.167,1.795-0.02,2.598,0.444c0.802,0.466,1.245,1.331,1.33,2.598
		c0.169,2.196,0.242,4.34,0.222,6.431c-0.021,2.091-0.053,4.192-0.095,6.304c1.562-1.055,3.188-1.763,4.879-2.122
		c1.689-0.358,3.315-0.349,4.878,0.031c1.562,0.381,3.02,1.141,4.372,2.281c1.352,1.141,2.449,2.725,3.295,4.752
		c0.591,1.353,0.992,2.799,1.203,4.34c0.212,1.543,0.327,3.104,0.349,4.688c0.021,1.584,0,3.158-0.063,4.72
		c-0.063,1.563-0.095,3.042-0.095,4.436c0,0.887-0.233,1.689-0.697,2.407c-0.466,0.718-1.046,1.245-1.742,1.584
		c-0.697,0.338-1.437,0.443-2.218,0.317c-0.782-0.127-1.489-0.592-2.122-1.394c-0.634-0.846-1.025-1.838-1.173-2.978
		c-0.148-1.141-0.19-2.354-0.127-3.644c0.064-1.287,0.159-2.606,0.285-3.959c0.127-1.352,0.159-2.65,0.096-3.896
		c-0.064-1.245-0.307-2.397-0.729-3.453c-0.423-1.056-1.162-1.922-2.218-2.598c-0.845-0.127-1.604-0.073-2.28,0.158
		c-0.676,0.232-1.289,0.581-1.838,1.046s-1.067,0.992-1.552,1.584c-0.486,0.592-0.982,1.183-1.489,1.773
		c-0.127,0.212-0.275,0.411-0.444,0.602s-0.359,0.392-0.57,0.602V603.2C499.865,604.593,499.316,605.596,498.473,606.209z"/>
	<path fill="none" stroke="#000000" stroke-width="2" d="M523.18,589.768c0.295-1.225,0.707-2.429,1.235-3.611
		s1.173-2.312,1.933-3.39c0.761-1.077,1.616-2.059,2.566-2.945c0.949-0.888,1.974-1.605,3.072-2.154
		c1.942-1.014,3.896-1.531,5.86-1.553c1.964-0.021,3.79,0.37,5.48,1.172c1.688,0.804,3.125,1.996,4.309,3.58
		c1.182,1.584,1.964,3.475,2.344,5.671c0.211,1.437,0.326,2.798,0.348,4.086c0.021,1.289-0.116,2.63-0.411,4.023
		c-0.423,1.986-1.278,3.96-2.565,5.924c-1.289,1.964-2.831,3.611-4.626,4.941c-1.796,1.331-3.76,2.206-5.892,2.629
		c-2.134,0.422-4.276,0.085-6.431-1.013c-0.973-0.466-1.849-1.004-2.63-1.616c-0.782-0.611-1.488-1.34-2.123-2.186
		c-0.718-0.929-1.277-1.9-1.679-2.914s-0.728-2.069-0.981-3.168c-0.295-1.183-0.401-2.376-0.316-3.58
		c0.084-1.204,0.231-2.376,0.443-3.517L523.18,589.768z M530.783,591.098c-0.127,0.676-0.233,1.342-0.317,1.996
		c-0.085,0.655-0.085,1.32,0,1.996c0.127,0.972,0.391,1.859,0.792,2.661c0.4,0.803,0.929,1.437,1.584,1.9
		c0.654,0.465,1.403,0.708,2.249,0.728c0.845,0.022,1.752-0.242,2.725-0.792c1.225-0.717,2.28-1.826,3.167-3.326
		c0.888-1.498,1.437-3.062,1.647-4.688s0.042-3.168-0.507-4.626c-0.549-1.457-1.626-2.502-3.23-3.136
		c-1.057,0-2.027,0.201-2.915,0.602c-0.887,0.401-1.658,0.93-2.312,1.584c-0.654,0.655-1.225,1.426-1.71,2.312
		C531.469,589.197,531.078,590.127,530.783,591.098z"/>
	<path fill="none" stroke="#000000" stroke-width="2" d="M552.513,600.665c-0.253-0.718-0.359-1.426-0.316-2.123
		c0.041-0.697,0.222-1.33,0.538-1.9c0.317-0.569,0.771-1.014,1.362-1.33c0.592-0.317,1.31-0.433,2.155-0.349
		c0.464,0.042,0.887,0.169,1.267,0.38c0.38,0.212,0.729,0.466,1.045,0.761c0.317,0.295,0.634,0.612,0.951,0.95
		c0.316,0.339,0.644,0.634,0.981,0.887c0.718,0.55,1.478,0.95,2.281,1.204c0.802,0.253,1.646,0.443,2.534,0.57
		c0.591,0,1.065-0.147,1.426-0.444c0.357-0.294,0.602-0.653,0.729-1.077c0.126-0.421,0.158-0.876,0.095-1.362
		c-0.064-0.485-0.222-0.876-0.476-1.172c-0.719-0.718-1.595-1.182-2.63-1.394c-1.034-0.211-1.995-0.464-2.882-0.76
		c-1.267-0.422-2.513-0.96-3.737-1.615c-1.227-0.654-2.219-1.553-2.979-2.693c-0.803-1.182-1.277-2.438-1.425-3.77
		c-0.148-1.33-0.043-2.629,0.316-3.896c0.358-1.267,0.96-2.429,1.806-3.484c0.845-1.056,1.858-1.921,3.042-2.597
		c0.887-0.507,1.857-0.834,2.914-0.981c1.056-0.147,2.122-0.18,3.2-0.096c1.077,0.086,2.143,0.285,3.199,0.602
		c1.056,0.317,2.027,0.666,2.914,1.046c1.014,0.465,1.774,1.119,2.281,1.964c0.507,0.846,0.75,1.7,0.729,2.565
		c-0.021,0.866-0.317,1.615-0.887,2.25c-0.57,0.633-1.404,0.95-2.503,0.95c-0.676,0-1.288-0.116-1.837-0.349
		c-0.549-0.231-1.119-0.453-1.711-0.665c-0.76-0.295-1.584-0.496-2.471-0.603c-0.887-0.104-1.605-0.052-2.154,0.159
		c-0.169,0.043-0.359,0.181-0.57,0.412c-0.212,0.232-0.37,0.518-0.476,0.855s-0.126,0.675-0.063,1.013
		c0.063,0.339,0.285,0.613,0.666,0.824c1.013,0.549,2.09,0.972,3.23,1.267c1.141,0.296,2.259,0.634,3.357,1.014
		s2.123,0.866,3.073,1.457c0.95,0.593,1.742,1.438,2.376,2.535c0.929,1.605,1.403,3.284,1.426,5.036
		c0.021,1.753-0.328,3.39-1.045,4.91c-0.72,1.521-1.774,2.818-3.169,3.896c-1.394,1.077-3.02,1.722-4.878,1.933
		c-1.311,0.126-2.598,0.053-3.865-0.222c-1.267-0.274-2.492-0.719-3.674-1.33c-1.184-0.613-2.281-1.341-3.295-2.186
		s-1.9-1.731-2.661-2.661L552.513,600.665z"/>
	<path fill="none" stroke="#000000" stroke-width="2" d="M266.301,659.982c0.443,0.854,0.601,1.718,0.475,2.589
		c-0.127,0.871-0.697,1.513-1.711,1.925c-0.95,0.348-1.861,0.253-2.732-0.285c-0.871-0.539-1.656-1.268-2.352-2.186
		c-0.697-0.919-1.299-1.886-1.806-2.898c-0.507-1.014-0.887-1.838-1.14-2.471c-1.616-3.737-2.487-7.627-2.614-11.666
		c-0.127-4.039,0.396-7.975,1.568-11.808c0.285-0.981,0.665-1.908,1.14-2.78c0.475-0.87,0.95-1.749,1.425-2.638
		c0.285-0.506,0.642-1.14,1.069-1.899c0.428-0.761,0.926-1.441,1.497-2.044c0.57-0.601,1.195-1.028,1.877-1.282
		c0.68-0.254,1.417-0.143,2.209,0.332c0.76,0.475,1.171,1.038,1.236,1.688c0.063,0.649-0.056,1.314-0.357,1.995
		c-0.301,0.682-0.681,1.339-1.14,1.972c-0.459,0.635-0.831,1.173-1.117,1.617c-0.412,0.728-0.753,1.346-1.021,1.852
		c-0.27,0.508-0.492,0.935-0.666,1.284c-0.174,0.349-0.309,0.657-0.404,0.926c-0.095,0.27-0.174,0.531-0.237,0.784
		c-0.475,1.647-0.824,3.414-1.045,5.298c-0.222,1.886-0.285,3.778-0.19,5.679s0.38,3.761,0.855,5.583
		c0.475,1.822,1.171,3.492,2.091,5.013c0.158,0.285,0.364,0.577,0.617,0.879c0.253,0.301,0.483,0.57,0.689,0.808
		c0.206,0.238,0.372,0.428,0.499,0.571c0.126,0.143,0.158,0.182,0.095,0.118L266.301,659.982z"/>
	<path fill="none" stroke="#000000" stroke-width="2" d="M290.203,652.712c0.538,0.919,0.72,1.742,0.546,2.471
		c-0.174,0.729-0.531,1.275-1.069,1.64c-0.539,0.363-1.196,0.506-1.972,0.427c-0.777-0.079-1.529-0.482-2.257-1.211
		c-0.76,0.539-1.552,0.957-2.375,1.26c-0.824,0.3-1.695,0.562-2.613,0.784c-1.425,0.316-2.796,0.292-4.11-0.072
		c-1.314-0.364-2.479-0.957-3.493-1.781s-1.837-1.846-2.471-3.064c-0.634-1.22-0.982-2.543-1.045-3.968
		c-0.095-1.584,0.024-3.104,0.356-4.562c0.333-1.457,0.863-2.788,1.592-3.991s1.687-2.233,2.875-3.089
		c1.188-0.855,2.59-1.457,4.205-1.806c0.951-0.19,1.908-0.285,2.875-0.285c0.966,0,1.925,0.08,2.875,0.238
		c-0.032-0.697-0.056-1.497-0.072-2.399c-0.016-0.903-0.024-1.782-0.024-2.638c0-0.856,0.031-1.623,0.095-2.306
		c0.063-0.68,0.143-1.163,0.237-1.449c0.221-0.57,0.562-1.005,1.021-1.307c0.459-0.3,0.942-0.459,1.449-0.475
		s1.005,0.111,1.497,0.38c0.491,0.27,0.879,0.674,1.164,1.212c0.063,0.158,0.143,0.309,0.238,0.45
		c0.095,0.143,0.143,0.294,0.143,0.452c0.031,4.15,0.039,8.252,0.024,12.307c-0.017,4.055-0.024,8.156-0.024,12.307
		C289.996,652.427,290.107,652.585,290.203,652.712z M283.598,650.098c0.063-0.095,0.182-0.189,0.356-0.285
		c0.174-0.095,0.261-0.221,0.261-0.38c0-1.33,0-2.638,0-3.92c0-1.283-0.017-2.59-0.048-3.92c-0.76-0.158-1.553-0.253-2.376-0.285
		c-0.824-0.031-1.624,0.048-2.399,0.237c-0.777,0.19-1.49,0.507-2.138,0.951c-0.65,0.444-1.164,1.077-1.544,1.9
		c-0.19,0.602-0.365,1.204-0.522,1.805c-0.159,0.603-0.246,1.188-0.261,1.759c-0.016,0.57,0.055,1.133,0.214,1.687
		c0.158,0.555,0.428,1.086,0.808,1.593c0.126,0.126,0.277,0.254,0.451,0.38s0.515,0.349,1.021,0.665
		c1.172,0.095,2.288-0.016,3.35-0.333C281.831,651.635,282.773,651.018,283.598,650.098z"/>
	<path fill="none" stroke="#000000" stroke-width="2" d="M315.813,652.807c0.285,0.412,0.451,0.896,0.499,1.449
		s-0.017,1.077-0.19,1.567c-0.175,0.492-0.46,0.895-0.855,1.212c-0.396,0.316-0.91,0.458-1.544,0.427
		c-0.824-0.063-1.489-0.349-1.995-0.854c-0.508-0.506-0.982-1.076-1.426-1.711c-1.235,1.015-2.512,1.719-3.825,2.115
		c-1.315,0.395-2.606,0.481-3.873,0.261c-1.268-0.222-2.456-0.753-3.564-1.592c-1.109-0.839-2.042-1.973-2.803-3.397
		c-0.697-1.331-1.086-2.804-1.164-4.42c-0.08-1.615-0.103-3.15-0.072-4.608c0-0.506,0.016-1.006,0.048-1.496
		c0.031-0.492,0.063-1.006,0.095-1.545c0.031-0.411,0.048-0.814,0.048-1.211c0-0.396,0.024-0.768,0.072-1.116
		c0.047-0.349,0.143-0.697,0.285-1.046c0.143-0.348,0.356-0.681,0.641-0.998c0.38-0.411,0.839-0.656,1.377-0.736
		c0.538-0.079,1.053-0.023,1.544,0.166c0.491,0.19,0.918,0.483,1.283,0.88c0.364,0.396,0.562,0.879,0.594,1.449
		c0.063,1.615,0.024,3.247-0.119,4.894c-0.143,1.647-0.135,3.264,0.024,4.847c0.063,0.761,0.261,1.537,0.593,2.328
		c0.333,0.793,0.863,1.363,1.592,1.711c0.729,0.317,1.465,0.293,2.209-0.071c0.745-0.364,1.354-0.8,1.83-1.307
		c0.222-0.253,0.436-0.529,0.642-0.831c0.206-0.301,0.436-0.562,0.689-0.783c-0.127-1.109-0.206-2.218-0.238-3.327
		c-0.032-1.108-0.032-2.217,0-3.326c0-0.602,0.023-1.26,0.071-1.973c0.048-0.712,0.174-1.393,0.381-2.043
		c0.205-0.649,0.515-1.219,0.926-1.711c0.411-0.491,0.998-0.8,1.759-0.927c0.348-0.063,0.688-0.031,1.021,0.095
		c0.333,0.128,0.625,0.302,0.879,0.522c0.444,0.381,0.744,0.808,0.903,1.283c0.158,0.475,0.237,0.982,0.237,1.521
		c0,0.539-0.039,1.085-0.118,1.64c-0.08,0.554-0.136,1.068-0.166,1.544c-0.063,0.887-0.111,1.822-0.142,2.804
		c-0.033,0.981,0,1.964,0.095,2.945c0.095,0.982,0.276,1.933,0.546,2.851C314.871,651.208,315.274,652.047,315.813,652.807z"/>
	<path fill="none" stroke="#000000" stroke-width="2" d="M331.873,650.573c0.792-0.506,1.545-0.728,2.258-0.665
		c0.713,0.063,1.299,0.31,1.758,0.736c0.459,0.428,0.713,0.998,0.76,1.711c0.048,0.713-0.198,1.466-0.735,2.257
		c-0.35,0.539-0.849,1.03-1.497,1.473c-0.65,0.443-1.275,0.792-1.877,1.046c-1.394,0.633-2.804,0.918-4.229,0.854
		c-1.426-0.063-2.749-0.412-3.968-1.045c-1.22-0.634-2.272-1.513-3.159-2.638c-0.888-1.124-1.49-2.431-1.806-3.92
		c-0.634-2.851-0.507-5.591,0.38-8.221c0.348-0.951,0.768-1.869,1.26-2.756c0.49-0.887,1.084-1.695,1.781-2.424
		c0.697-0.728,1.473-1.37,2.328-1.925c0.855-0.554,1.79-0.927,2.804-1.116c0.696-0.126,1.584-0.119,2.661,0.023
		c1.076,0.143,2.13,0.421,3.16,0.831c1.029,0.413,1.932,0.951,2.709,1.616c0.775,0.665,1.211,1.458,1.307,2.376
		c0.063,0.507,0,0.974-0.19,1.401s-0.46,0.784-0.808,1.069c-0.349,0.285-0.753,0.483-1.212,0.595s-0.927,0.103-1.401-0.024
		c-0.57-0.158-1.021-0.372-1.354-0.642c-0.333-0.269-0.769-0.624-1.307-1.068c-0.254-0.064-0.492-0.167-0.713-0.31
		c-0.222-0.143-0.459-0.197-0.713-0.166l-1.282,0.143c-0.223,0.127-0.428,0.237-0.618,0.333c-0.19,0.095-0.381,0.189-0.57,0.285
		c-1.077,1.077-1.87,2.273-2.376,3.587c-0.507,1.314-0.635,2.732-0.38,4.253c0.158,0.981,0.467,1.79,0.926,2.423
		c0.459,0.634,0.998,1.069,1.616,1.307c0.618,0.238,1.299,0.262,2.043,0.072c0.744-0.191,1.48-0.618,2.21-1.284L331.873,650.573z"/>
	<path fill="none" stroke="#000000" stroke-width="2" d="M345.511,657.249c-0.634,0.459-1.291,0.674-1.973,0.643
		c-0.681-0.032-1.282-0.31-1.806-0.832c-0.522-0.522-0.783-1.242-0.783-2.161v-27.085c0-0.475,0.134-0.91,0.403-1.308
		c0.269-0.396,0.609-0.72,1.021-0.974c0.412-0.253,0.863-0.42,1.354-0.499c0.491-0.078,0.942-0.063,1.354,0.048
		c0.411,0.111,0.768,0.349,1.069,0.713c0.3,0.364,0.467,0.863,0.498,1.496c0.096,2.472,0.143,4.688,0.143,6.652
		c0,1.965-0.016,3.944-0.047,5.939c0.728-0.538,1.416-1.101,2.066-1.687c0.649-0.586,1.29-1.195,1.925-1.829
		c0.57-0.601,1.124-1.274,1.663-2.02c0.539-0.744,1.22-1.26,2.044-1.544c0.601-0.19,1.164-0.222,1.687-0.096
		c0.522,0.127,0.966,0.373,1.33,0.736c0.364,0.365,0.609,0.809,0.737,1.331c0.126,0.522,0.095,1.086-0.095,1.688
		c-0.159,0.444-0.516,0.997-1.069,1.662c-0.555,0.666-1.173,1.348-1.854,2.044c-0.681,0.697-1.354,1.339-2.02,1.925
		c-0.665,0.587-1.204,1.038-1.615,1.354c1.108,1.204,2.201,2.423,3.278,3.659c1.076,1.235,2.169,2.471,3.278,3.706
		c0.475,0.539,0.927,1.021,1.354,1.449c0.427,0.428,0.8,0.943,1.116,1.544c0.253,0.507,0.333,1.03,0.238,1.568
		c-0.096,0.539-0.31,1.006-0.643,1.401c-0.332,0.395-0.744,0.688-1.235,0.879s-1.021,0.206-1.592,0.048
		c-0.539-0.159-1.062-0.451-1.568-0.879c-0.507-0.429-0.99-0.896-1.449-1.402s-0.895-1.029-1.307-1.568
		c-0.412-0.538-0.792-0.998-1.14-1.378c-0.855-0.981-1.703-1.955-2.542-2.922c-0.84-0.966-1.703-1.908-2.59-2.827v8.268
		C346.556,656.037,346.144,656.79,345.511,657.249z"/>
	<path fill="none" stroke="#000000" stroke-width="2" d="M363.139,659.363c0.254-0.254,0.483-0.482,0.689-0.688
		c0.205-0.206,0.411-0.412,0.618-0.617c0.205-0.207,0.403-0.437,0.594-0.689c0.19-0.254,0.396-0.555,0.618-0.903
		c0.918-1.488,1.615-3.183,2.09-5.085c0.476-1.899,0.761-3.855,0.855-5.867s0.016-3.991-0.237-5.94
		c-0.254-1.948-0.683-3.73-1.284-5.345c-0.411-1.109-0.926-2.154-1.544-3.137c-0.617-0.981-1.243-1.948-1.876-2.898
		c-0.285-0.411-0.563-0.814-0.831-1.211c-0.27-0.396-0.421-0.862-0.452-1.401c-0.031-0.824,0.167-1.505,0.595-2.044
		c0.428-0.538,0.941-0.88,1.544-1.021c0.601-0.143,1.219-0.087,1.854,0.166c0.633,0.254,1.14,0.745,1.52,1.473
		c0.697,0.981,1.362,1.98,1.996,2.994c0.634,1.015,1.219,2.043,1.758,3.089c0.887,1.711,1.561,3.563,2.021,5.56
		c0.458,1.995,0.728,4.039,0.807,6.13c0.079,2.09-0.023,4.157-0.309,6.2c-0.285,2.044-0.713,3.952-1.283,5.727
		c-0.507,1.52-1.116,3.048-1.829,4.585c-0.713,1.536-1.624,2.891-2.732,4.062c-0.476,0.507-1.015,0.982-1.616,1.426
		s-1.267,0.665-1.995,0.665c-0.666,0-1.212-0.143-1.64-0.428s-0.729-0.649-0.903-1.093c-0.174-0.444-0.23-0.927-0.166-1.449
		c0.063-0.522,0.221-1.037,0.475-1.544L363.139,659.363z"/>
</g>
<path fill="none" stroke="#231F20" stroke-width="2" stroke-miterlimit="10" d="M491.036,388.66
	c-1.823,5.727-0.764,10.568-5.619,15.752c10.441-3.79,20.452-11.303,32.218-9.62c-1.14,7.903-6.723,13.556-11.199,20.414
	c4.304-2.971,7.388-2.477,11.205-4.035c-1.217,27.831-44.869,54.064-69.253,56.981c-22.489,2.691-48.706-14.672-38.882-39.919
	C416.709,409.721,473.249,389.053,491.036,388.66z"/>
<path fill="none" stroke="#231F20" stroke-width="2" stroke-miterlimit="10" d="M365.236,284.575
	c-14.3-10.934-9.313-33.381,4.722-42.347c16.156-10.322,38.185,6.998,36.7,24.612c-1.122,13.311-11.558,23.334-25.075,22.938
	C374.622,289.575,369.215,287.616,365.236,284.575z"/>
<path fill="none" stroke="#231F20" stroke-width="2" stroke-miterlimit="10" d="M369.499,254.813
	c12.523-4.858,23.579,8.724,16.19,20.007c-6.574,10.034-23.284,6.967-24.214-5.524C361.009,263.026,363.243,257.239,369.499,254.813
	z"/>
<path fill="none" stroke="#231F20" stroke-width="2" stroke-miterlimit="10" d="M367.597,269.255
	c2.544-3.653,8.829-1.854,8.846,2.729c0.016,3.668-3.386,6.716-6.586,4.771C367.19,275.135,365.619,272.096,367.597,269.255z"/>
<path fill="none" stroke="#231F20" stroke-width="2" stroke-miterlimit="10" d="M331.969,235.632
	c1.863,1.354,3.767,2.613,5.72,3.842c0.258,0.163,0.524,0.331,0.796,0.499c-0.009,0.147-0.003,0.297,0,0.447
	c3.819-2.225,7.828-4.173,11.907-5.796c0.323-1.32,0.493-2.642,0.517-4.095c0.027-1.775-1.251-3.558-2.104-5.025
	c-0.628-1.079-2.099-0.977-2.748,0c-0.708,1.064-1.968,1.895-2.537,3.023c-0.599,1.188-1.166,2.376-1.725,3.575
	c-0.057-0.022-0.114-0.046-0.171-0.068c-2.672-1.014-5.51-1.222-8.337-1.262C330.491,230.732,329.993,234.196,331.969,235.632z"/>
<path fill="none" stroke="#231F20" stroke-width="2" stroke-miterlimit="10" d="M337.271,247.49
	c-4.169,2.214-6.586,10.394-3.146,14.02c1.127,1.19,2.856,0.977,4.009,0c1.706-1.442,1.98-3.869,2.543-5.913
	c0.397-1.448,0.906-2.97,1.464-4.363C343.299,248.333,339.58,246.263,337.271,247.49L337.271,247.49z"/>
<path fill="none" stroke="#231F20" stroke-width="2" stroke-miterlimit="10" d="M351.141,246.386
	c-1.386,1.859-2.403,3.631-3.149,5.837c-0.593,1.754-0.474,4.276,1.441,5.199c1.522,0.734,3.482-0.985,3.774-2.467
	c0.459-2.322,1.39-4.559,2.054-6.832C356.026,245.496,352.584,244.452,351.141,246.386L351.141,246.386z"/>
<path fill="none" stroke="#231F20" stroke-width="2" stroke-miterlimit="10" d="M358.033,372.695
	c-3.633,2.848-7.584,10.678-3.212,14.535c0.681,0.601,1.503,0.562,2.188,0c1.568-1.285,2.352-3.445,2.904-5.333
	c0.584-1.997,1.661-3.854,2.841-5.558c0.763-1.1,0.432-2.743-0.47-3.643C361.022,371.433,359.321,371.686,358.033,372.695
	L358.033,372.695z"/>
<path fill="none" stroke="#231F20" stroke-width="2" stroke-miterlimit="10" d="M373.121,372.798
	c-4.885,2.691-8.172,9.457-5.943,14.881c1.106,2.691,5.698,2.677,5.5-0.744c-0.24-4.097,0.084-7.509,3.282-10.459
	C377.966,374.626,375.404,371.54,373.121,372.798L373.121,372.798z"/>
<path fill="none" stroke="#231F20" stroke-width="2" stroke-miterlimit="10" d="M360.043,400.163
	c-1.881,1.925-4.482,5.171-2.442,7.858c0.472,0.622,1.477,0.987,2.082,0.269c0.735-0.875,1.072-1.819,1.568-2.833
	c0.432-0.882,1.162-1.553,1.854-2.23C365.102,401.269,361.996,398.163,360.043,400.163L360.043,400.163z"/>
<path fill="none" stroke="#231F20" stroke-width="2" stroke-miterlimit="10" d="M454.05,409.306c1.831-1.55,3.102-3.908,5.826-3.942
	c3.112-0.039,5.125,1.905,6.981,4.201c0.846,1.046,1.115,2.246,0.449,3.481c-0.461,0.854-0.965,1.68-1.477,2.501
	c3.44,0.115,7.038,0.948,8.365,3.876c1.428,3.149,0.491,6.066-1.24,8.653c0.777-0.131,1.566-0.393,2.453-0.752
	c1.044-0.423,2.652,0.246,3.114,1.267c1.543,3.414,3.137,7.634,1.012,11.199c-1.792,3.005-5.062,6.74-8.592,7.413
	c-1.317,0.251-2.412-0.776-2.121-2.121c0.548-2.53,2.447-3.839,4.215-5.613c2.093-2.1,2.315-3.851,1.552-6.109
	c-2.528,0.603-4.968,0.471-7.69-0.63c-1.972-0.799-2.839-3.07-1.257-4.76c0.533-0.57,5.037-5.07,3.187-5.969
	c-2.471-1.196-5.623-0.739-8.244-0.46c-2.287,0.242-3.42-2.586-2.482-4.323c0.977-1.807,2.127-3.501,3.19-5.249
	c-0.701-0.568-1.392-0.673-2.856-0.602c-1.166,0.057-2.34,0.035-3.51,0.053C453.904,411.434,453.207,410.019,454.05,409.306z"/>
<path fill="none" stroke="#231F20" stroke-width="2" stroke-miterlimit="10" d="M432.66,422.531
	c-0.655,0.423,0.306-0.598,0.504-0.867c0.501-0.688,0.964-1.077,1.772-1.364c2.165-0.769,4.182,0.167,6.064,1.228
	c0.896,0.505,1.74,1.719,1.604,2.798c-0.219,1.755-0.763,3.38-1.434,4.969c2.078,0.462,4.186,0.812,6.179,1.622
	c1.293,0.524,2.726,1.698,2.521,3.31c-0.288,2.252-1.52,3.956-2.346,5.85c2.549,2.132,4.496,4.719,3.315,8.361
	c-1.28,3.951-6.096,7.007-10.061,7.095c-1.182,0.025-1.816-1.285-1.298-2.262c1.586-2.988,8.763-6.464,3.23-8.72
	c-1.295-0.528-2.644-1.656-2.477-3.252c0.2-1.904,1.11-3.421,1.869-4.991c-2.411-0.66-4.915-1.035-7.245-2.039
	c-1.729-0.746-1.936-3.091-1.191-4.546c0.563-1.103,1.181-2.205,1.681-3.347c-0.597,0.005-1.223,0.091-2.193-0.046
	C431.234,426.056,431.32,423.396,432.66,422.531z"/>
<path fill="none" stroke="#231F20" stroke-width="2" stroke-miterlimit="10" d="M324.049,277.891
	c-0.497,0.479-0.956,0.629-1.384,1.254c0.228-0.143,0.191-0.105-0.113,0.114c-0.39,0.3-0.616,0.545-0.915,0.921
	c-1.032,1.303-1.755,2.693-2.341,4.246c-1.218,3.235,3.909,5.288,5.514,2.324c0.814-1.501,1.171-3.052,1.195-4.761
	c-0.006-0.252-0.012-0.505-0.014-0.758c0.002,0.178-0.024-1.399-0.149-0.748c0.128-0.664-0.038-1.293,0.018-1.843
	C325.96,277.673,324.658,277.301,324.049,277.891L324.049,277.891z"/>
<path fill="none" stroke="#231F20" stroke-width="2" stroke-miterlimit="10" d="M259.398,362.563
	c6.158-0.647,12.349,0.215,18.169,2.231c0.645-0.933,0.973-1.996,0.758-3.214c-0.912-5.162-4.624-3.815-7.702-1.649
	c0.434-1.099-0.422-3.289-1.731-3.492c-1.963-0.304-1.582,1.567-2.618,2.786c-1.953,2.295-5.932,2.695-8.62,3.588
	C258.234,362.713,258.814,362.624,259.398,362.563z"/>
<path fill="none" stroke="#231F20" stroke-width="2" stroke-miterlimit="10" d="M274.953,414.68
	c10.188,1.185,17.035-9.988,14.835-19.221c-2.532-10.626-18.417-12.255-24.784-4.449c-4.812,5.897-4.505,14.138,1.189,19.329
	C269.126,413.012,272.119,414.351,274.953,414.68z"/>
<path fill="none" stroke="#231F20" stroke-width="2" stroke-miterlimit="10" d="M279.984,393.267
	c-3.208-6.951-13.116-5.764-14.557,1.786c-1.28,6.714,6.782,12.075,12.108,7.326C280.21,399.994,281.585,396.738,279.984,393.267z"
	/>
<path fill="none" stroke="#231F20" stroke-width="2" stroke-miterlimit="10" d="M273.378,393.048
	c0.404-2.504-2.882-4.255-4.706-2.386c-1.458,1.498-1.271,4.094,0.81,4.564C271.216,395.619,273.064,394.995,273.378,393.048z"/>
<path fill="none" stroke="#231F20" stroke-width="2" stroke-miterlimit="10" d="M242.9,403.059c7.975-0.13,12.111-9.44,9.472-16.332
	c-3.037-7.934-15.448-7.565-19.559-0.898c-3.107,5.038-2.028,11.358,2.891,14.777C238.238,402.367,240.681,403.095,242.9,403.059z"
	/>
<path fill="none" stroke="#231F20" stroke-width="2" stroke-miterlimit="10" d="M244.59,386.038
	c-3.182-5.03-10.699-3.103-11.038,2.864c-0.301,5.306,6.46,8.616,10.082,4.41C245.452,391.2,246.18,388.55,244.59,386.038z"/>
<path fill="none" stroke="#231F20" stroke-width="2" stroke-miterlimit="10" d="M239.476,386.545
	c0.056-1.973-2.657-2.987-3.87-1.359c-0.971,1.303-0.563,3.285,1.09,3.435C238.071,388.746,239.432,388.078,239.476,386.545z"/>
<path fill="none" stroke="#000000" stroke-width="2" d="M225.871,389.565c4.312-8.346,11.832-17.271,20.727-22.521v-0.94
	c-1.13-8.337-2.536-16.621-4.227-24.852c-1.69-8.226-3.667-16.283-5.917-24.176c4.058-0.898,7.492-2.589,10.313-5.072
	c2.816-2.478,4.845-5.41,6.086-8.792c1.236-3.381,1.575-6.873,1.015-10.481c-0.565-3.604-2.425-6.985-5.579-10.144
	c-3.608-3.831-7.666-5.859-12.173-6.086c-4.512-0.222-9.129-0.222-13.863,0c-7.893-20.06-16.794-39.729-26.711-59.002
	c-9.921-19.273-22.543-36.57-37.869-51.902c-3.835-3.603-8.569-5.41-14.201-5.41c-4.285,0-7.894,1.073-10.82,3.212
	c-2.932,2.146-5.468,4.734-7.608,7.777c-2.145,3.043-4.005,6.372-5.579,9.975c-1.58,3.609-3.16,6.99-4.734,10.144
	c-1.353,2.932-2.763,5.864-4.227,8.792c-1.469,2.932-2.874,5.975-4.226,9.129C90.271,245.51,77.2,283.042,67.056,321.81
	c-1.807,6.763-3.72,13.525-5.749,20.287c-2.029,6.763-3.381,13.642-4.058,20.626c-0.676,5.41,0.053,10.202,2.198,14.37
	c2.14,4.168,4.956,7.27,8.453,9.298c3.492,2.029,7.438,2.758,11.834,2.198c4.396-0.565,8.506-3.101,12.342-7.608
	c3.154-3.603,5.183-7.83,6.086-12.679c0.897-4.845,1.913-9.521,3.043-14.032c1.353-5.859,2.757-11.834,4.226-17.92
	c1.463-6.086,3.212-12.057,5.241-17.921c13.747-0.222,27.499-0.338,41.25-0.338c13.747,0,27.61-0.111,41.589-0.338
	c4.279,13.076,7.549,25.813,9.805,38.208c0.898,4.285,1.522,8.623,1.86,13.018c0.338,4.396,1.97,8.4,4.903,12.003
	c3.381,4.279,7.042,6.932,10.989,7.945C222.709,389.348,224.308,389.553,225.871,389.565z M151.755,276.839
	c-8.004,0-17.302,0.116-27.895,0.338c3.381-10.144,7.042-20.119,10.989-29.924c3.941-9.806,8.167-19.664,12.68-29.586
	c6.085,9.019,11.548,18.544,16.398,28.571c4.845,10.033,9.409,20.118,13.693,30.262
	C168.375,276.728,159.753,276.839,151.755,276.839z"/>
<path fill="none" stroke="#231F20" stroke-width="2" stroke-miterlimit="10" d="M239.961,463.434
	c1.109-2.488,2.459-4.706,3.989-6.735c-9.268,4.602-17.767,20.253-7.08,26.936c0.369,0.23,0.735,0.43,1.101,0.618
	C236.089,477.435,237.071,469.913,239.961,463.434z"/>
<path fill="none" stroke="#231F20" stroke-width="2" stroke-miterlimit="10" d="M298.591,379.154
	c-9.499-11.14-24.457-18.141-39.193-16.591c-14.438,1.518-27.708,15.326-33.848,27.624c-3.912,7.838-6.598,21.408-2.692,29.636
	c0.185,0.39,0.383,0.771,0.592,1.146c-4.577,1.347-9.313,2.868-3.414,7.157c7.633,5.547,16.924,7.492,26.424,7.792
	c3.898,1.062,7.781,1.77,11.273,2.218c16.764,2.149,39.262,1.876,48.225-15.459C313.055,408.95,308.054,390.252,298.591,379.154z"/>
<path fill="none" stroke="#231F20" stroke-width="2" stroke-miterlimit="10" d="M276.541,515.338
	c0.613-2.758,0.909-6.628,1.194-9.939c-1.418-0.109-2.889-0.23-4.398-0.374c-0.406,3.136-0.736,6.884-0.604,9.705
	c-1.097-0.012-2.177,0.068-3.076,0.166c-2.386,0.257-4.892,0.35-7.236,0.726c-0.16,0.024-0.321,0.053-0.479,0.081
	c-1.949,0.349-3.903,0.76-5.846,1.142c-0.497,0.098-5.486,1.63-5.501,1.613c1.467,1.582,5.736,0.969,6.838,3.321
	c0.807,1.724-1.663,5.781-2.48,7.369c0.786,0.349,2.771-0.132,3.872-0.144c1.567-0.018,2.928-0.051,4.461,0.027
	c0.102,1.165-0.631,2.467-0.88,3.554c-0.269,1.181,0.06,2.522-0.326,3.568c2.137,0.162,5.464-3.437,6.939-4.815
	c2.129-1.993,4.141-3.916,6.007-6.094c1.328-1.549,2.791-3.233,3.41-5.175C279.283,517.418,278.257,516.028,276.541,515.338z"/>
<path fill="none" stroke="#231F20" stroke-width="2" stroke-miterlimit="10" d="M303.515,517.286
	c0.053-3.616-0.771-8.911-1.134-12.579c-1.396,0.271-2.814,0.488-4.248,0.657c0.167,3.451,0.632,8.598,1.529,12.098
	c-1.076,0.211-2.117,0.509-2.979,0.786c-2.285,0.735-4.72,1.334-6.939,2.177c-0.153,0.058-0.303,0.116-0.453,0.177
	c-1.837,0.736-3.668,1.535-5.494,2.303c-0.466,0.196-5.042,2.707-5.06,2.694c1.758,1.253,5.814-0.213,7.369,1.867
	c1.14,1.523-0.457,5.998-0.936,7.718c0.84,0.183,2.687-0.689,3.763-0.926c1.53-0.334,2.857-0.642,4.373-0.877
	c0.337,1.12-0.118,2.544-0.142,3.659c-0.025,1.21,0.569,2.459,0.403,3.56c2.126-0.274,4.656-4.473,5.819-6.121
	c1.684-2.384,3.262-4.675,4.65-7.185c0.987-1.786,2.077-3.733,2.291-5.759C306.621,518.769,305.335,517.615,303.515,517.286z"/>
<path fill="none" stroke="#231F20" stroke-width="2" stroke-miterlimit="10" d="M330.082,463.344
	c1.797-2.094,3.006-4.343,1.873-6.828c-2.565,0.38-4.611,2.81-6.249,4.71c-0.038-4.133-2.392-7.802-7.041-6.853
	c0.417,2.63,1.293,5.771,0.723,8.456c-0.257-0.116-0.52-0.229-0.791-0.337c-2.192-0.857-4.437-0.943-6.689-1.008
	c1.096-1.229,1.991-2.51,1.776-4.338c-0.483-4.104-2.922-1.658-5.034,0.357c-1.064,1.015-2.214,2.075-3.433,3.104
	c-2.999-1.017-6.018-3.176-8.825-4.566c-5.246-2.598-9.173-5.024-10.779-8.888c-0.887-2.128-1.068-4.688-0.379-7.954
	c0.121-0.573,0.239-1.133,0.355-1.685c-6.991,1.688-14.643,1.8-21.749,1.251c-1.47,1.605-3.105,3.018-4.519,4.066
	c-4.361,3.239-8.603,6.397-12.211,10.165c-2.861,2.981-5.327,6.347-7.149,10.436c-4.384,9.828-4.42,22.064,3.35,30.582
	c8.277,9.073,23.492,10.555,34.903,11.42c17.963,1.36,41.153,0.778,47.938-19.798c1.558-4.725,2.071-9.998,0.668-14.448
	c2.249-1.237,4.923-1.379,8.395-0.834C335.608,466.716,333.788,463.936,330.082,463.344z"/>
<path fill="none" stroke="#231F20" stroke-width="2" stroke-miterlimit="10" d="M247.917,407.817
	c5.161-1.143,9.301,2.338,10.666,6.224c1.254,3.57,1.317,8.059,5.993,10.014c2.121,0.886,4.789,1.156,6.765,0.116
	c1.751-0.922,2.129-3.942,4.488-1.726c2.27,8.781-14.486,13.097-22.25,13.425c-11.885,0.501-24.006-0.814-33.542-7.744
	c-7.231-5.258,1.52-6.357,6.367-8.072c4.049-1.432,1.088-2.763,2.622-5.225c1.786-2.866,5.837-0.633,8.82-1.132
	C241.972,413.006,243.621,408.769,247.917,407.817z"/>
<path fill="none" stroke="#231F20" stroke-width="2" stroke-miterlimit="10" d="M304.699,486.953
	c-4.79,3.558-10.452,2.549-14.701-0.925c-3.306-2.704-9.096-7.796-8.187-12.728c1.193-6.457,6.505-5.818,11.38-6.439
	c5.881-0.751,11.312-5.402,15.458-9.357c2.112-2.016,4.551-4.461,5.034-0.357c0.376,3.191-2.635,4.719-4.181,7.205
	c2.739-0.184,5.262-1.437,4.828,2.407c-0.277,2.458-3.746,4.849-5.547,6.201c2.026-0.226,3.87-1.222,5.924-1.039
	C315.738,476.826,308.294,484.285,304.699,486.953z"/>
<path fill="none" stroke="#231F20" stroke-width="2" stroke-miterlimit="10" d="M349.658,287.524
	c1.415,24.407-52.711,34.77-69.384,34.475c-28.241-0.501-12.669-16.515,3.776-23.028c8.312-3.289,15.206-2.785,20.931-10.304
	c5.871-7.71,6.636-26.446,20.249-23.156C335.607,268.019,336.286,285.847,349.658,287.524z"/>
<path fill="none" stroke="#231F20" stroke-width="2" stroke-miterlimit="10" d="M407.15,381.887
	c3.349-5.771,10.676-14.804,14.419-23.075c-6.469-3.055-11.835-7.025-15.087-12.259c-4.97,3.527-14.371,5.987-18.039,7.091
	c-7.583,2.282-21.18,5.479-31.666,4.507c0.121-0.871,0.192-1.718,0.239-2.555c-4.156,7.561-6.854,16.692-15.102,20.359
	c1.726,0.076,3.61,0.377,5.327,0.528c-1.829,2.668-3.564,7.779-6.317,10.75c1.027,0.603,2.828,2.244,3.564,2.725
	c-5.31,3.375-12.636,9.27-7.204,13.391c-1.858,16.351,3.923,30.684,14.089,43.387c1.104,1.385,2.271,2.763,3.479,4.11
	c5.469,6.102,9.94,13.278,18.04,14.805c15.446,2.915,10.731-8.043,11.308-20.113C385.332,422.172,395.571,401.784,407.15,381.887z"
	/>
<path fill="none" stroke="#231F20" stroke-width="2" stroke-miterlimit="10" d="M415.51,507.558
	c1.175-5.285,1.696-12.877,2.242-19.039c-2.58-0.492-5.125-1.051-7.629-1.671c-0.856,5.959-1.664,13.879-1.394,19.626
	c-1.953-0.02-3.876,0.122-5.478,0.295c-4.247,0.458-8.71,0.625-12.884,1.292c-0.286,0.045-0.572,0.094-0.854,0.145
	c-3.47,0.622-6.949,1.353-10.408,2.032c-0.886,0.173-9.769,2.902-9.796,2.872c2.612,2.818,10.213,1.726,12.176,5.916
	c1.437,3.068-2.961,10.291-4.417,13.119c1.399,0.622,4.935-0.234,6.895-0.257c2.791-0.029,5.215-0.089,7.944,0.051
	c0.181,2.073-1.125,4.393-1.568,6.326c-0.479,2.102,0.106,4.492-0.579,6.354c3.805,0.288,9.729-6.12,12.354-8.574
	c3.793-3.55,7.373-6.974,10.697-10.851c2.364-2.758,4.969-5.758,6.072-9.215C420.392,511.262,418.564,508.786,415.51,507.558z"/>
<path fill="none" stroke="#231F20" stroke-width="2" stroke-miterlimit="10" d="M463.54,511.026
	c0.088-6.028-1.196-14.69-1.892-21.13c-2.52,0.364-5.07,0.646-7.644,0.842c0.333,6.111,1.158,14.68,2.676,20.601
	c-1.916,0.375-3.771,0.905-5.304,1.399c-4.07,1.311-8.404,2.377-12.355,3.877c-0.272,0.102-0.541,0.208-0.807,0.315
	c-3.271,1.311-6.53,2.731-9.781,4.099c-0.83,0.349-8.979,4.82-9.009,4.798c3.129,2.23,10.351-0.38,13.12,3.325
	c2.029,2.713-0.813,10.68-1.666,13.742c1.496,0.324,4.784-1.229,6.699-1.647c2.726-0.597,5.088-1.143,7.788-1.562
	c0.599,1.994-0.211,4.529-0.254,6.514c-0.044,2.155,1.014,4.379,0.719,6.34c3.786-0.489,8.291-7.965,10.361-10.9
	c2.997-4.243,5.808-8.324,8.279-12.793c1.757-3.18,3.697-6.646,4.078-10.254C469.07,513.666,466.779,511.611,463.54,511.026z"/>
<path fill="none" stroke="#231F20" stroke-width="2" stroke-miterlimit="10" d="M478.894,371.071
	c-14.229-2.282-39.841-3.971-57.323-12.259c-6.469-3.055-11.835-7.026-15.087-12.259c-1.452-2.329-2.49-4.913-3.019-7.78
	c-0.208-1.131-0.339-2.301-0.387-3.527c0-0.003,0-0.006,0-0.009c-0.037-0.996-0.018-2.03,0.058-3.093
	c0-0.004,0.001-0.008,0.001-0.013c0.059-0.802,0.141-1.593,0.235-2.376c0.035-0.287,0.079-0.569,0.119-0.854
	c0.07-0.511,0.145-1.02,0.229-1.524c0.051-0.297,0.105-0.591,0.16-0.886c0.094-0.503,0.192-1.003,0.299-1.5
	c0.057-0.265,0.114-0.529,0.174-0.792c0.126-0.547,0.26-1.09,0.399-1.63c0.057-0.22,0.11-0.441,0.169-0.659
	c0.078-0.289,0.16-0.575,0.242-0.862c0.094-0.332,0.189-0.663,0.288-0.993c0.089-0.297,0.181-0.593,0.273-0.888
	c0.1-0.315,0.2-0.63,0.304-0.943c0.098-0.297,0.195-0.595,0.297-0.89c0.104-0.307,0.213-0.612,0.321-0.918
	c0.104-0.295,0.207-0.591,0.314-0.884c0.11-0.3,0.224-0.599,0.336-0.898c0.23-0.612,0.465-1.221,0.704-1.827
	c0.087-0.218,0.172-0.438,0.259-0.655c0.147-0.367,0.298-0.732,0.448-1.098c0.085-0.207,0.169-0.414,0.254-0.619
	c0.16-0.385,0.321-0.769,0.483-1.152c0.072-0.169,0.144-0.339,0.215-0.508c0.184-0.43,0.367-0.86,0.552-1.289
	c0.024-0.057,0.049-0.114,0.073-0.171c0.927-2.148,1.865-4.277,2.767-6.405c0.029-0.068,0.058-0.137,0.087-0.206
	c0.209-0.495,0.416-0.991,0.62-1.486c0.063-0.155,0.127-0.311,0.19-0.466c0.171-0.418,0.34-0.837,0.506-1.257
	c0.073-0.184,0.146-0.367,0.217-0.551c0.158-0.404,0.312-0.809,0.466-1.214c0.069-0.184,0.14-0.368,0.207-0.552
	c0.168-0.453,0.33-0.908,0.49-1.363c0.045-0.129,0.093-0.257,0.138-0.387c0.201-0.583,0.396-1.167,0.581-1.753
	c0.038-0.12,0.072-0.241,0.109-0.36c0.144-0.459,0.282-0.919,0.415-1.381c0.06-0.21,0.116-0.421,0.174-0.632
	c0.104-0.377,0.204-0.756,0.3-1.136c0.06-0.234,0.115-0.469,0.172-0.704c0.086-0.365,0.169-0.732,0.247-1.099
	c0.052-0.239,0.103-0.479,0.15-0.719c0.075-0.38,0.144-0.762,0.21-1.146c0.039-0.226,0.081-0.451,0.116-0.678
	c0.074-0.469,0.138-0.94,0.196-1.414c0.018-0.142,0.04-0.281,0.057-0.423c0.069-0.607,0.124-1.219,0.167-1.834
	c0.014-0.2,0.02-0.402,0.03-0.602c0.023-0.427,0.044-0.855,0.054-1.288c0.005-0.246,0.004-0.495,0.005-0.743
	c0.001-0.393-0.002-0.788-0.013-1.186c-0.007-0.262-0.017-0.524-0.029-0.788c-0.019-0.398-0.045-0.798-0.076-1.2
	c-0.021-0.259-0.04-0.518-0.065-0.778c-0.043-0.439-0.098-0.882-0.156-1.326c-0.029-0.225-0.054-0.448-0.088-0.675
	c-0.101-0.672-0.215-1.35-0.354-2.036c-3.556-17.606-16.795-37.097-35.598-39.907c-19.597-2.917-47.7,8.605-62.579,25.698
	c-0.222,0.255-0.426,0.518-0.643,0.776c-0.362,0.432-0.732,0.862-1.078,1.301c-0.935,1.188-1.788,2.405-2.587,3.638
	c-0.144,0.222-0.301,0.44-0.439,0.664c-0.079,0.127-0.146,0.257-0.224,0.384c-1.71,2.811-3.057,5.723-3.939,8.709
	c-0.207,0.702-0.39,1.391-0.56,2.073c-0.043,0.173-0.083,0.345-0.123,0.518c-0.135,0.566-0.257,1.126-0.365,1.679
	c-0.022,0.115-0.048,0.232-0.069,0.347c-0.131,0.69-0.243,1.372-0.335,2.042c-0.001,0.009-0.002,0.017-0.003,0.025
	c-0.09,0.657-0.157,1.302-0.212,1.941c-0.003,0.042-0.01,0.087-0.014,0.129c-1.34,3.439-2.649,6.785-4.427,9.119
	c-5.725,7.52-12.619,7.016-20.931,10.304c-16.445,6.513-32.017,22.526-3.776,23.028c9.029,0.16,29.038-2.808,45.265-9.436
	c0.021,0.02,0.044,0.039,0.065,0.059c0.686,0.624,1.379,1.243,2.08,1.856c0.024,0.021,0.049,0.042,0.073,0.064
	c2.382,2.083,4.838,4.116,7.27,6.147c0.45,0.376,0.899,0.751,1.347,1.127c0.206,0.173,0.412,0.347,0.617,0.521
	c0.555,0.468,1.105,0.936,1.652,1.406c0.168,0.144,0.335,0.288,0.501,0.432c0.569,0.491,1.133,0.984,1.69,1.48
	c0.144,0.127,0.287,0.254,0.43,0.382c0.579,0.519,1.149,1.041,1.713,1.565c0.113,0.106,0.229,0.211,0.342,0.318
	c0.6,0.564,1.188,1.132,1.765,1.706c0.104,0.103,0.206,0.206,0.309,0.309c0.568,0.571,1.124,1.147,1.665,1.729
	c0.1,0.107,0.196,0.216,0.295,0.324c0.508,0.553,1.002,1.112,1.48,1.678c0.107,0.127,0.213,0.255,0.319,0.383
	c0.46,0.555,0.905,1.116,1.335,1.683c0.104,0.138,0.207,0.275,0.309,0.414c0.422,0.571,0.824,1.15,1.211,1.736
	c0.091,0.137,0.183,0.274,0.271,0.412c0.414,0.646,0.808,1.301,1.176,1.968c0.038,0.068,0.077,0.136,0.114,0.205
	c0.385,0.708,0.741,1.428,1.069,2.162c0.037,0.083,0.071,0.167,0.108,0.25c0.326,0.749,0.629,1.509,0.892,2.287h0.001
	c1.083,3.188,1.602,6.639,1.386,10.42c-0.037,0.839-0.123,1.688-0.245,2.564c0,0,0,0,0,0.001h-0.001
	c0.121-0.871,0.192-1.718,0.239-2.555c-4.156,7.561-6.854,16.692-15.102,20.359c1.726,0.076,3.61,0.377,5.327,0.528
	c-1.829,2.668-3.564,7.779-6.317,10.75c1.027,0.603,2.828,2.244,3.564,2.725c-5.31,3.375-12.636,9.27-7.204,13.391
	c-1.858,16.351,3.923,30.684,14.089,43.387c0.001,0.001,0.002,0.003,0.004,0.004c6.601,11.598,16.511,21.458,29.295,28.758
	c31.571,18.019,90.225,24.149,119.939-1.99c27.988-24.621,36.937-66.764,70.063-88.623
	C559.709,368.232,498.094,374.154,478.894,371.071z"/>
</svg>
