<?xml version="1.0" encoding="utf-8"?>
<!-- Generator: Adobe Illustrator 16.0.0, SVG Export Plug-In . SVG Version: 6.00 Build 0)  -->
<!DOCTYPE svg PUBLIC "-//W3C//DTD SVG 1.1//EN" "http://www.w3.org/Graphics/SVG/1.1/DTD/svg11.dtd">
<svg version="1.1" id="Layer_1" xmlns="http://www.w3.org/2000/svg" xmlns:xlink="http://www.w3.org/1999/xlink" x="0px" y="0px"
	 width="612px" height="612px" viewBox="0 90 612 612" enable-background="new 0 90 612 612" xml:space="preserve">
<path fill="none" stroke="#231F20" stroke-width="2" stroke-miterlimit="10" d="M248.108,439.818
	c-0.767-2.891-1.316-5.746-1.675-8.596c-0.574,6.229-1.687,12.437-3.87,18.289c-2.404,6.446-5.982,12.423-11.592,16
	c-1.236,0.786-1.892,1.166-3.641,1.766c-0.335,0.114-0.67,0.229-1.012,0.326c-0.048,0.014-0.761,0.188-0.663,0.178
	c-0.617,0.124-1.237,0.233-1.863,0.296c-2.692,0.266-5.677-0.076-8.217-1.013c-3.493-1.286-6.594-3.154-9.46-5.513
	c-1.604-1.32-3.102-2.742-4.632-4.136c-1.403,1.987-3.166,3.732-5.154,5.101c0.954,0.997,1.927,1.903,2.732,2.676
	c2.509,2.405,5.361,4.472,8.382,6.19c4.807,2.733,10.364,4.438,15.938,4.065c15.052-1.006,23.819-15.269,26.965-28.705
	C249.461,444.403,248.713,442.099,248.108,439.818z"/>
<path fill="none" stroke="#231F20" stroke-width="2" stroke-miterlimit="10" d="M442.894,276.789
	c3.107,14.357-11.865,25.673-25.33,23.824c-15.502-2.129-20.032-24.545-9.793-34.708c7.736-7.681,19.523-8.391,27.715-0.996
	C439.706,268.717,442.03,272.794,442.894,276.789z"/>
<path fill="none" stroke="#231F20" stroke-width="2" stroke-miterlimit="10" d="M413.072,286.944
	c-10.354-3.605-10.043-17.894,0.518-20.998c9.393-2.761,18.158,7.983,12.128,16.24C422.693,286.328,418.243,288.744,413.072,286.944
	z"/>
<path fill="none" stroke="#231F20" stroke-width="2" stroke-miterlimit="10" d="M411.84,277.557
	c-3.514,0.925-6.467-3.516-4.055-6.375c1.93-2.288,5.656-2.383,6.616,0.519C415.203,274.117,414.571,276.838,411.84,277.557z"/>
<path fill="none" stroke="#231F20" stroke-width="2" stroke-miterlimit="10" d="M508.87,281.421
	c3.104,14.358-11.865,25.674-25.332,23.824c-15.501-2.129-20.032-24.545-9.794-34.709c7.737-7.681,19.524-8.39,27.717-0.996
	C505.681,273.349,508.005,277.426,508.87,281.421z"/>
<path fill="none" stroke="#231F20" stroke-width="2" stroke-miterlimit="10" d="M479.048,291.575
	c-10.354-3.604-10.042-17.893,0.518-20.999c9.394-2.76,18.157,7.984,12.13,16.239C488.668,290.96,484.219,293.375,479.048,291.575z"
	/>
<path fill="none" stroke="#231F20" stroke-width="2" stroke-miterlimit="10" d="M477.816,282.189
	c-3.514,0.925-6.468-3.517-4.056-6.375c1.931-2.288,5.657-2.383,6.617,0.518C481.177,278.75,480.547,281.47,477.816,282.189z"/>
<path fill="none" stroke="#231F20" stroke-width="2" stroke-miterlimit="10" d="M406.534,365.705
	c-6.166,1.443-13.062-3.034-9.159-13.14c3.692-9.562,17.568-8,17.079,2.863C414.188,361.374,410.513,364.772,406.534,365.705z"/>
<path fill="none" stroke="#231F20" stroke-width="2" stroke-miterlimit="10" d="M499.979,365.174
	c-6.166,1.442-13.063-3.034-9.16-13.141c3.694-9.561,17.569-8,17.081,2.864C507.632,360.842,503.958,364.242,499.979,365.174z"/>
<path fill="none" stroke="#231F20" stroke-width="2" stroke-miterlimit="10" d="M247.812,404.431
	c2.42,2.396,5.266,4.435,8.519,6.118c11.27,5.829,15.592,1.005,25.05-5.386c9.883-6.677,14.096-8.052,25.316-4.501
	c10.128,3.201,17.256,4.008,27.362-0.702c34.126-15.916-9.132-25.908-0.508-44.26c4.328-9.199,17.059-9.034,17.612-21.751
	c0.235-5.35-6.125-16.432-11.81-19.023c-39.528,10.884-78.788,37.034-88.977,77.965
	C249.381,396.896,248.509,400.729,247.812,404.431z"/>
<path fill="none" stroke="#231F20" stroke-width="2" stroke-miterlimit="10" d="M254.926,456.784
	c14.286,26.823,39.268,41.98,67.561,44.476c-2.187-8.308-15.271-17.122-13.161-29.629c2.048-12.135,10.735-16.745,0.179-29.006
	c-16.88-19.606-41.476-16.333-61.397-2.807C249.557,445.279,251.775,450.867,254.926,456.784z"/>
<path fill="none" stroke="#231F20" stroke-width="2" stroke-miterlimit="10" d="M353.353,480.933
	c2.078,8.39,5.905,13.174,11.164,15.348c20.571-5.904,42.526-15.688,62.147-28.021c1.805-16.718-4.049-38.246-17.695-40.91
	c-9.449-1.841-14.783,7.393-24.347,7.979c-12.098,0.74-16.018-3.85-26.248,6.15c-5.189,5.074-13.625,10.619-13.966,16.406
	c-0.328,5.545,3.567,6.16,5.547,10.632C352.041,473.224,352.08,475.791,353.353,480.933z"/>
<path fill="none" stroke="#000000" stroke-width="2" d="M160.995,609.396c-1.939-0.227-3.123-0.868-3.55-1.928
	c-0.429-1.058-0.439-2.219-0.034-3.481v-27.456c-0.721,0-1.364-0.19-1.927-0.574c-0.564-0.382-1.015-0.867-1.352-1.454
	c-0.339-0.585-0.508-1.228-0.508-1.926c0-0.699,0.204-1.341,0.609-1.929c0.901-1.352,2.062-2.41,3.482-3.178
	c1.42-0.766,2.896-1.396,4.429-1.894c2.389-0.767,4.79-1.194,7.202-1.285c2.411-0.089,4.79,0.406,7.134,1.488
	c2.119,0.992,3.787,2.277,5.004,3.855c1.217,1.577,1.984,3.257,2.299,5.037c0.315,1.781,0.157,3.607-0.474,5.478
	c-0.631,1.871-1.758,3.618-3.38,5.24c2.118,1.353,3.628,2.965,4.53,4.836c0.902,1.87,1.273,3.798,1.116,5.781
	c-0.158,1.984-0.79,3.899-1.894,5.748c-1.105,1.849-2.604,3.449-4.497,4.802c-1.127,0.811-2.446,1.43-3.956,1.859
	c-1.511,0.428-3.066,0.732-4.667,0.913c-1.601,0.179-3.19,0.27-4.768,0.27c-1.579,0-3.021-0.045-4.328-0.135L160.995,609.396z"/>
<path fill="none" stroke="#000000" stroke-width="2" d="M165.662,581.806c0.812,0,1.623,0,2.435,0s1.611-0.078,2.401-0.237
	c0.788-0.157,1.556-0.416,2.299-0.777c0.744-0.36,1.408-0.88,1.995-1.556c0.855-0.947,1.16-1.95,0.913-3.009
	c-0.249-1.059-0.891-1.904-1.927-2.537c-1.172-0.766-2.502-1.16-3.99-1.184c-1.488-0.021-2.863,0.147-4.125,0.508v8.792H165.662z"/>
<path fill="none" stroke="#000000" stroke-width="2" d="M175.4,592.22c-0.812-0.541-1.601-0.947-2.367-1.218
	c-0.767-0.27-1.545-0.449-2.333-0.54c-0.79-0.09-1.589-0.112-2.401-0.068c-0.812,0.046-1.69,0.091-2.637,0.136v10.82
	c0.991,0,2.051-0.034,3.178-0.102c1.126-0.067,2.208-0.247,3.246-0.541c1.037-0.293,2.005-0.71,2.908-1.251
	c0.901-0.541,1.623-1.285,2.164-2.231c0.136-1.082,0.112-2.018-0.067-2.807C176.909,593.63,176.346,592.896,175.4,592.22z"/>
<path fill="none" stroke="#000000" stroke-width="2" d="M190.073,591.611c0.315-1.308,0.754-2.592,1.319-3.854
	c0.563-1.262,1.251-2.469,2.062-3.618c0.812-1.15,1.725-2.198,2.739-3.146c1.015-0.946,2.107-1.713,3.279-2.298
	c2.073-1.083,4.159-1.635,6.255-1.658c2.097-0.021,4.046,0.396,5.85,1.251c1.802,0.857,3.336,2.13,4.599,3.821
	c1.261,1.69,2.096,3.709,2.502,6.053c0.225,1.533,0.348,2.987,0.371,4.361c0.022,1.376-0.125,2.807-0.439,4.295
	c-0.451,2.12-1.364,4.227-2.739,6.323c-1.376,2.096-3.021,3.854-4.937,5.273c-1.917,1.42-4.013,2.356-6.289,2.807
	c-2.277,0.451-4.564,0.09-6.864-1.082c-1.037-0.497-1.972-1.071-2.806-1.725c-0.835-0.652-1.589-1.431-2.266-2.333
	c-0.767-0.991-1.364-2.028-1.792-3.11c-0.429-1.082-0.778-2.208-1.048-3.381c-0.316-1.262-0.429-2.536-0.338-3.82
	c0.09-1.285,0.247-2.537,0.473-3.754L190.073,591.611z"/>
<path fill="none" stroke="#000000" stroke-width="2" d="M198.188,593.031c-0.135,0.722-0.249,1.432-0.338,2.13
	c-0.091,0.699-0.091,1.409,0,2.13c0.135,1.037,0.416,1.984,0.845,2.84c0.428,0.857,0.991,1.533,1.691,2.028
	c0.698,0.497,1.498,0.756,2.4,0.778s1.871-0.26,2.908-0.846c1.307-0.767,2.435-1.95,3.381-3.551c0.947-1.6,1.532-3.269,1.758-5.004
	c0.225-1.735,0.044-3.382-0.541-4.937c-0.586-1.555-1.736-2.671-3.449-3.348c-1.127,0-2.164,0.215-3.111,0.643
	c-0.947,0.429-1.77,0.992-2.468,1.69c-0.699,0.7-1.308,1.521-1.826,2.469C198.921,591.002,198.503,591.994,198.188,593.031z"/>
<path fill="none" stroke="#000000" stroke-width="2" d="M221.382,603.242c-0.271-0.767-0.383-1.521-0.338-2.265
	c0.044-0.744,0.237-1.42,0.575-2.028c0.338-0.609,0.822-1.083,1.454-1.42c0.631-0.339,1.396-0.462,2.299-0.372
	c0.496,0.045,0.947,0.181,1.353,0.405c0.406,0.227,0.778,0.497,1.116,0.812c0.338,0.316,0.676,0.654,1.014,1.015
	c0.338,0.361,0.687,0.676,1.048,0.946c0.766,0.587,1.578,1.015,2.435,1.285c0.855,0.271,1.758,0.474,2.705,0.609
	c0.63,0,1.138-0.158,1.521-0.474c0.383-0.315,0.643-0.699,0.778-1.149s0.169-0.936,0.102-1.454
	c-0.067-0.519-0.237-0.936-0.508-1.251c-0.767-0.767-1.702-1.262-2.806-1.488c-1.105-0.225-2.13-0.495-3.077-0.812
	c-1.353-0.449-2.683-1.024-3.99-1.724c-1.308-0.699-2.367-1.657-3.178-2.875c-0.857-1.261-1.364-2.603-1.521-4.022
	c-0.159-1.42-0.045-2.807,0.338-4.159c0.382-1.353,1.025-2.592,1.927-3.72c0.901-1.126,1.983-2.051,3.246-2.772
	c0.947-0.541,1.983-0.89,3.111-1.048c1.126-0.157,2.266-0.19,3.415-0.102c1.149,0.091,2.288,0.305,3.415,0.643
	c1.126,0.338,2.164,0.71,3.111,1.116c1.082,0.496,1.894,1.194,2.435,2.096c0.541,0.903,0.8,1.815,0.778,2.739
	c-0.023,0.925-0.338,1.725-0.947,2.4c-0.608,0.677-1.5,1.015-2.671,1.015c-0.721,0-1.375-0.123-1.961-0.371
	c-0.586-0.247-1.195-0.484-1.825-0.71c-0.812-0.315-1.69-0.529-2.638-0.644c-0.947-0.111-1.714-0.056-2.299,0.169
	c-0.181,0.046-0.383,0.192-0.608,0.439c-0.227,0.249-0.396,0.554-0.507,0.913c-0.113,0.362-0.135,0.723-0.067,1.082
	c0.067,0.362,0.304,0.654,0.71,0.88c1.082,0.587,2.231,1.038,3.449,1.353c1.217,0.316,2.411,0.676,3.583,1.082
	s2.266,0.925,3.28,1.556c1.014,0.632,1.86,1.533,2.536,2.705c0.991,1.714,1.498,3.507,1.521,5.376
	c0.022,1.872-0.35,3.618-1.116,5.241c-0.767,1.623-1.894,3.009-3.381,4.158s-3.224,1.837-5.207,2.062
	c-1.398,0.136-2.773,0.056-4.125-0.236c-1.353-0.294-2.661-0.768-3.922-1.42c-1.263-0.654-2.435-1.431-3.517-2.333
	c-1.082-0.901-2.029-1.849-2.84-2.84L221.382,603.242z"/>
<path fill="none" stroke="#000000" stroke-width="2" d="M281.161,585.254c-0.902-0.225-1.68-0.608-2.333-1.149
	c-0.654-0.541-1.105-1.172-1.353-1.894c-0.249-0.721-0.249-1.465,0-2.231c0.247-0.766,0.8-1.465,1.657-2.096
	c0.72-0.542,1.532-0.812,2.434-0.812c0.902,0,1.781,0,2.637,0c0-0.315-0.023-1.004-0.067-2.063c-0.045-1.058-0.057-2.22-0.034-3.481
	c0.022-1.262,0.102-2.469,0.237-3.618c0.136-1.15,0.383-1.95,0.744-2.4c0.902-1.262,2.017-1.86,3.348-1.793
	c1.33,0.067,2.423,0.71,3.28,1.928c0.179,0.226,0.349,0.496,0.507,0.812c0.157,0.315,0.237,0.608,0.237,0.879
	c0.044,1.623,0.056,3.246,0.034,4.869c-0.023,1.622-0.034,3.246-0.034,4.869h5.342c0.812,0,1.51,0.27,2.096,0.812
	c0.585,0.54,1.003,1.172,1.251,1.894c0.247,0.722,0.315,1.465,0.203,2.23c-0.113,0.768-0.463,1.397-1.048,1.894
	c-1.038,0.857-2.244,1.309-3.618,1.353c-1.376,0.046-2.784,0.067-4.227,0.067c0,2.48-0.012,4.96-0.034,7.438
	c-0.023,2.48-0.012,4.96,0.034,7.438c0,1.082,0.056,2.188,0.169,3.313c0.112,1.128,0.034,2.21-0.237,3.246
	c-0.226,0.812-0.608,1.454-1.149,1.928c-0.541,0.473-1.149,0.766-1.826,0.879s-1.375,0.067-2.096-0.135
	c-0.721-0.203-1.397-0.575-2.028-1.116c-0.316-0.316-0.553-0.855-0.71-1.623c-0.159-0.766-0.26-1.577-0.304-2.435
	c-0.046-0.99-0.046-2.051,0-3.178c0-0.901,0-2.073,0-3.517c0-1.442-0.012-2.941-0.035-4.497s-0.033-3.031-0.033-4.43
	c0-1.396,0-2.502,0-3.313L281.161,585.254z"/>
<path fill="none" stroke="#000000" stroke-width="2" d="M329.986,604.798c0.359,1.309,0.293,2.39-0.203,3.246
	c-0.497,0.855-1.184,1.431-2.062,1.725c-0.88,0.293-1.838,0.258-2.874-0.102c-1.037-0.361-1.938-1.082-2.705-2.164
	c-1.262,0.946-2.491,1.611-3.685,1.995c-1.195,0.383-2.56,0.598-4.092,0.643c-2.3,0.089-4.352-0.169-6.154-0.778
	c-1.804-0.608-3.325-1.521-4.564-2.738c-1.241-1.217-2.154-2.738-2.739-4.564c-0.586-1.825-0.79-3.934-0.609-6.323
	c0.09-0.991,0.259-1.961,0.507-2.907c0.247-0.947,0.529-1.871,0.845-2.773c0.36-0.99,0.867-2.051,1.521-3.178
	c0.653-1.126,1.319-2.096,1.995-2.907c2.435-2.976,5.478-5.117,9.129-6.425c0.631-0.225,1.488-0.428,2.569-0.608
	c1.083-0.18,2.175-0.259,3.279-0.236s2.164,0.168,3.179,0.439c1.015,0.271,1.769,0.744,2.266,1.42
	c0.405,0.541,0.698,1.014,0.879,1.42c0.18,0.405,0.281,0.834,0.305,1.285c0.021,0.45,0.021,0.936,0,1.454
	c-0.023,0.519-0.034,1.16-0.034,1.926c0,1.263-0.012,2.492-0.034,3.686c-0.023,1.195-0.012,2.401,0.034,3.618
	c0,0.406,0,0.937,0,1.59s0.022,1.342,0.067,2.062c0.044,0.723,0.102,1.41,0.169,2.063s0.169,1.184,0.305,1.589L329.986,604.798z"/>
<path fill="none" stroke="#000000" stroke-width="2" d="M315.65,601.754c0.495-0.314,1.059-0.664,1.69-1.047
	c0.631-0.383,1.193-0.823,1.691-1.319c-0.406-2.389-0.644-4.778-0.71-7.168c-0.068-2.389-0.058-4.802,0.033-7.236
	c-2.028,0.362-3.854,1.241-5.478,2.638c-1.622,1.398-2.75,3.044-3.38,4.937c-0.271,0.767-0.497,1.556-0.677,2.367
	c-0.181,0.812-0.248,1.601-0.203,2.367c0.044,1.037,0.315,1.904,0.812,2.604s1.093,1.229,1.792,1.589
	c0.699,0.361,1.442,0.563,2.231,0.608C314.24,602.138,314.973,602.025,315.65,601.754z"/>
<path fill="none" stroke="#000000" stroke-width="2" d="M363.865,602.499c0.406,0.586,0.644,1.273,0.71,2.062
	c0.067,0.79-0.022,1.533-0.27,2.231c-0.249,0.7-0.654,1.273-1.217,1.725c-0.564,0.45-1.297,0.652-2.198,0.608
	c-1.173-0.091-2.12-0.496-2.841-1.217c-0.722-0.721-1.398-1.532-2.028-2.436c-1.758,1.444-3.574,2.445-5.444,3.01
	c-1.87,0.563-3.708,0.687-5.51,0.372c-1.804-0.316-3.495-1.072-5.073-2.266s-2.907-2.807-3.989-4.835
	c-0.993-1.894-1.545-3.989-1.657-6.289c-0.113-2.299-0.146-4.484-0.102-6.56c0-0.721,0.022-1.431,0.067-2.13
	c0.044-0.698,0.09-1.431,0.136-2.197c0.044-0.586,0.067-1.16,0.067-1.725c0-0.563,0.034-1.093,0.102-1.59
	c0.067-0.495,0.202-0.991,0.405-1.487s0.508-0.97,0.913-1.42c0.542-0.586,1.194-0.936,1.962-1.049
	c0.765-0.112,1.497-0.034,2.196,0.237c0.7,0.27,1.309,0.688,1.827,1.251c0.518,0.564,0.8,1.251,0.845,2.062
	c0.089,2.299,0.033,4.622-0.168,6.965c-0.203,2.346-0.192,4.645,0.033,6.898c0.09,1.082,0.371,2.187,0.845,3.313
	s1.229,1.938,2.266,2.435c1.036,0.45,2.084,0.417,3.145-0.102c1.06-0.518,1.927-1.138,2.604-1.859
	c0.316-0.361,0.62-0.755,0.913-1.185c0.294-0.428,0.62-0.8,0.98-1.115c-0.181-1.577-0.294-3.155-0.338-4.733
	c-0.046-1.577-0.046-3.154,0-4.733c0-0.855,0.034-1.792,0.102-2.807s0.247-1.983,0.541-2.908c0.294-0.923,0.731-1.734,1.318-2.435
	c0.586-0.698,1.42-1.138,2.502-1.318c0.496-0.09,0.981-0.044,1.455,0.136c0.473,0.181,0.889,0.429,1.25,0.744
	c0.631,0.541,1.059,1.149,1.285,1.825c0.225,0.676,0.339,1.397,0.339,2.164c0,0.768-0.058,1.544-0.169,2.333
	c-0.113,0.789-0.191,1.521-0.236,2.197c-0.091,1.263-0.159,2.594-0.203,3.99c-0.046,1.398,0,2.796,0.135,4.193
	c0.136,1.397,0.396,2.75,0.778,4.058C362.523,600.223,363.098,601.417,363.865,602.499z"/>
<path fill="none" stroke="#000000" stroke-width="2" d="M371.235,586.911c0.044-0.293,0.021-0.822-0.067-1.59
	c-0.723-0.405-1.285-0.923-1.691-1.555c-0.405-0.631-0.643-1.308-0.71-2.029c-0.067-0.72,0.067-1.408,0.406-2.062
	c0.338-0.652,0.889-1.205,1.656-1.656c1.036-0.586,2.175-0.699,3.415-0.339c1.239,0.362,2.31,0.903,3.213,1.623
	c1.126-0.855,2.299-1.577,3.516-2.164c1.217-0.585,2.457-0.98,3.72-1.184c1.262-0.202,2.546-0.168,3.854,0.102
	c1.307,0.271,2.592,0.835,3.854,1.691c0.631,0.405,1.217,0.912,1.758,1.521c0.542,0.609,0.88,1.297,1.015,2.062
	c0.225,1.128,0.136,2.108-0.271,2.942c-0.405,0.835-0.97,1.442-1.69,1.825c-0.722,0.384-1.533,0.497-2.435,0.339
	c-0.903-0.157-1.759-0.643-2.57-1.454c-0.27-0.18-0.463-0.326-0.574-0.439c-0.113-0.112-0.35-0.259-0.71-0.439
	c-0.722-0.181-1.432-0.136-2.13,0.135c-0.699,0.271-1.376,0.643-2.028,1.115c-0.654,0.474-1.263,0.992-1.825,1.556
	c-0.564,0.564-1.072,1.071-1.521,1.521v17.244c0,0.677-0.136,1.331-0.406,1.961c-0.405,1.037-1.048,1.759-1.927,2.164
	c-0.879,0.406-1.759,0.518-2.638,0.339c-0.879-0.181-1.646-0.633-2.3-1.354c-0.653-0.722-0.98-1.645-0.98-2.771V587.08
	C371.167,587.261,371.189,587.205,371.235,586.911z"/>
<path fill="none" stroke="#000000" stroke-width="2" d="M428.309,602.499c0.406,0.586,0.643,1.273,0.71,2.062
	c0.067,0.79-0.023,1.533-0.271,2.231c-0.248,0.7-0.653,1.273-1.217,1.725c-0.564,0.45-1.296,0.652-2.198,0.608
	c-1.172-0.091-2.119-0.496-2.84-1.217c-0.722-0.721-1.398-1.532-2.028-2.436c-1.758,1.444-3.574,2.445-5.444,3.01
	c-1.871,0.563-3.709,0.687-5.511,0.372c-1.804-0.316-3.495-1.072-5.072-2.266c-1.579-1.193-2.908-2.807-3.99-4.835
	c-0.992-1.894-1.545-3.989-1.657-6.289c-0.113-2.299-0.146-4.484-0.101-6.56c0-0.721,0.021-1.431,0.067-2.13
	c0.044-0.698,0.089-1.431,0.135-2.197c0.044-0.586,0.067-1.16,0.067-1.725c0-0.563,0.034-1.093,0.102-1.59
	c0.067-0.495,0.203-0.991,0.406-1.487c0.202-0.496,0.507-0.97,0.912-1.42c0.542-0.586,1.194-0.936,1.962-1.049
	c0.766-0.112,1.498-0.034,2.197,0.237c0.699,0.27,1.308,0.688,1.825,1.251c0.519,0.564,0.801,1.251,0.846,2.062
	c0.09,2.299,0.034,4.622-0.168,6.965c-0.203,2.346-0.192,4.645,0.033,6.898c0.09,1.082,0.371,2.187,0.846,3.313
	c0.474,1.127,1.228,1.938,2.265,2.435c1.036,0.45,2.085,0.417,3.145-0.102c1.06-0.518,1.928-1.138,2.604-1.859
	c0.315-0.361,0.619-0.755,0.912-1.185c0.294-0.428,0.62-0.8,0.981-1.115c-0.181-1.577-0.294-3.155-0.339-4.733
	c-0.045-1.577-0.045-3.154,0-4.733c0-0.855,0.035-1.792,0.102-2.807c0.067-1.015,0.248-1.983,0.541-2.908
	c0.294-0.923,0.732-1.734,1.318-2.435c0.586-0.698,1.421-1.138,2.503-1.318c0.495-0.09,0.98-0.044,1.454,0.136
	c0.473,0.181,0.889,0.429,1.251,0.744c0.63,0.541,1.058,1.149,1.285,1.825c0.225,0.676,0.338,1.397,0.338,2.164
	c0,0.768-0.058,1.544-0.169,2.333c-0.113,0.789-0.191,1.521-0.236,2.197c-0.091,1.263-0.159,2.594-0.203,3.99
	c-0.046,1.398,0,2.796,0.135,4.193c0.136,1.397,0.396,2.75,0.778,4.058C426.967,600.223,427.541,601.417,428.309,602.499z"/>
<path fill="none" stroke="#000000" stroke-width="2" d="M432.973,603.242c-0.27-0.767-0.384-1.521-0.338-2.265
	c0.044-0.744,0.236-1.42,0.574-2.028c0.339-0.609,0.822-1.083,1.454-1.42c0.631-0.339,1.396-0.462,2.3-0.372
	c0.495,0.045,0.946,0.181,1.353,0.405c0.405,0.227,0.777,0.497,1.115,0.812c0.339,0.316,0.676,0.654,1.014,1.015
	c0.339,0.361,0.688,0.676,1.049,0.946c0.767,0.587,1.577,1.015,2.435,1.285c0.855,0.271,1.758,0.474,2.705,0.609
	c0.631,0,1.138-0.158,1.521-0.474c0.383-0.315,0.643-0.699,0.777-1.149c0.137-0.45,0.169-0.936,0.102-1.454
	c-0.066-0.519-0.236-0.936-0.507-1.251c-0.767-0.767-1.702-1.262-2.806-1.488c-1.106-0.225-2.13-0.495-3.077-0.812
	c-1.353-0.449-2.683-1.024-3.99-1.724c-1.309-0.699-2.367-1.657-3.178-2.875c-0.857-1.261-1.364-2.603-1.521-4.022
	c-0.158-1.42-0.046-2.807,0.338-4.159c0.383-1.353,1.024-2.592,1.927-3.72c0.901-1.126,1.983-2.051,3.246-2.772
	c0.947-0.541,1.983-0.89,3.111-1.048c1.126-0.157,2.266-0.19,3.415-0.102c1.149,0.091,2.287,0.305,3.414,0.643
	s2.164,0.71,3.111,1.116c1.083,0.496,1.894,1.194,2.436,2.096c0.54,0.903,0.8,1.815,0.777,2.739c-0.023,0.925-0.339,1.725-0.946,2.4
	c-0.609,0.677-1.5,1.015-2.672,1.015c-0.722,0-1.376-0.123-1.961-0.371c-0.586-0.247-1.195-0.484-1.825-0.71
	c-0.812-0.315-1.691-0.529-2.638-0.644c-0.947-0.111-1.714-0.056-2.3,0.169c-0.181,0.046-0.384,0.192-0.608,0.439
	c-0.227,0.249-0.395,0.554-0.507,0.913c-0.113,0.362-0.136,0.723-0.067,1.082c0.067,0.362,0.304,0.654,0.71,0.88
	c1.082,0.587,2.231,1.038,3.449,1.353c1.217,0.316,2.41,0.676,3.584,1.082c1.171,0.406,2.265,0.925,3.279,1.556
	c1.015,0.632,1.859,1.533,2.536,2.705c0.991,1.714,1.498,3.507,1.521,5.376c0.022,1.872-0.349,3.618-1.115,5.241
	s-1.894,3.009-3.381,4.158s-3.224,1.837-5.207,2.062c-1.398,0.136-2.772,0.056-4.125-0.236c-1.353-0.294-2.66-0.768-3.922-1.42
	c-1.263-0.654-2.436-1.431-3.517-2.333c-1.082-0.901-2.028-1.849-2.84-2.84L432.973,603.242z"/>
<path fill="none" stroke="#000000" stroke-width="2" d="M264.018,666.556c0.473,0.913,0.642,1.833,0.507,2.765
	c-0.136,0.929-0.744,1.614-1.826,2.054c-1.015,0.371-1.987,0.27-2.916-0.305c-0.931-0.575-1.768-1.353-2.511-2.333
	c-0.744-0.981-1.387-2.012-1.927-3.094c-0.541-1.083-0.947-1.962-1.217-2.638c-1.724-3.99-2.655-8.141-2.79-12.452
	c-0.136-4.311,0.422-8.512,1.673-12.604c0.305-1.047,0.71-2.037,1.217-2.967c0.507-0.931,1.014-1.868,1.521-2.815
	c0.304-0.54,0.685-1.217,1.141-2.028c0.457-0.812,0.989-1.538,1.598-2.181c0.608-0.643,1.275-1.099,2.003-1.369
	c0.727-0.271,1.513-0.152,2.359,0.355c0.811,0.507,1.25,1.107,1.318,1.8c0.067,0.693-0.059,1.403-0.38,2.13
	c-0.322,0.728-0.728,1.429-1.217,2.104c-0.49,0.676-0.888,1.252-1.191,1.724c-0.44,0.779-0.804,1.438-1.091,1.979
	c-0.288,0.541-0.524,0.997-0.71,1.369c-0.186,0.372-0.33,0.702-0.431,0.989c-0.102,0.287-0.186,0.566-0.254,0.836
	c-0.507,1.759-0.879,3.645-1.115,5.655c-0.237,2.012-0.305,4.032-0.204,6.061s0.406,4.016,0.913,5.96s1.25,3.728,2.231,5.35
	c0.168,0.305,0.388,0.617,0.659,0.938c0.27,0.321,0.515,0.608,0.736,0.862c0.219,0.254,0.397,0.456,0.532,0.608
	c0.135,0.152,0.169,0.193,0.102,0.127L264.018,666.556z"/>
<path fill="none" stroke="#000000" stroke-width="2" d="M280.349,656.514c0.845-0.54,1.648-0.777,2.41-0.71
	c0.76,0.068,1.386,0.33,1.876,0.786c0.49,0.456,0.761,1.064,0.812,1.825s-0.211,1.565-0.786,2.409
	c-0.372,0.576-0.905,1.1-1.597,1.572c-0.694,0.474-1.362,0.845-2.003,1.115c-1.488,0.677-2.993,0.981-4.514,0.913
	c-1.521-0.067-2.933-0.439-4.235-1.115s-2.427-1.614-3.373-2.814c-0.947-1.2-1.59-2.595-1.927-4.186
	c-0.676-3.043-0.541-5.967,0.406-8.773c0.371-1.015,0.819-1.995,1.344-2.942c0.524-0.946,1.158-1.808,1.901-2.586
	c0.744-0.778,1.572-1.463,2.485-2.055s1.91-0.988,2.993-1.191c0.743-0.136,1.69-0.127,2.84,0.024
	c1.149,0.152,2.273,0.449,3.373,0.889c1.098,0.439,2.062,1.014,2.891,1.724c0.828,0.71,1.293,1.556,1.395,2.536
	c0.067,0.542,0,1.04-0.203,1.496c-0.203,0.456-0.491,0.837-0.862,1.142c-0.372,0.304-0.804,0.516-1.293,0.634
	c-0.49,0.118-0.989,0.11-1.497-0.026c-0.608-0.168-1.09-0.396-1.445-0.684s-0.82-0.668-1.395-1.142
	c-0.271-0.066-0.524-0.178-0.761-0.33c-0.237-0.151-0.49-0.21-0.761-0.177L277.053,645c-0.237,0.136-0.457,0.253-0.66,0.354
	c-0.203,0.102-0.406,0.203-0.608,0.305c-1.15,1.15-1.996,2.427-2.536,3.829c-0.541,1.403-0.676,2.916-0.406,4.539
	c0.168,1.049,0.498,1.91,0.989,2.588c0.49,0.676,1.065,1.141,1.725,1.394c0.659,0.254,1.386,0.279,2.181,0.076
	c0.793-0.203,1.58-0.659,2.358-1.369L280.349,656.514z"/>
<path fill="none" stroke="#000000" stroke-width="2" d="M287.957,650.732c0.236-0.98,0.566-1.944,0.989-2.892
	c0.422-0.946,0.938-1.851,1.546-2.714c0.609-0.861,1.293-1.648,2.054-2.358c0.761-0.711,1.58-1.285,2.46-1.725
	c1.555-0.812,3.12-1.225,4.692-1.242c1.572-0.017,3.034,0.296,4.387,0.938c1.352,0.643,2.501,1.597,3.449,2.865
	c0.946,1.268,1.572,2.781,1.876,4.54c0.169,1.149,0.263,2.239,0.279,3.271c0.017,1.033-0.094,2.105-0.329,3.222
	c-0.339,1.59-1.023,3.17-2.055,4.741c-1.031,1.572-2.266,2.892-3.702,3.957c-1.438,1.064-3.01,1.767-4.716,2.104
	c-1.708,0.337-3.424,0.066-5.148-0.812c-0.778-0.373-1.479-0.804-2.104-1.293c-0.626-0.49-1.191-1.074-1.699-1.75
	c-0.576-0.743-1.023-1.521-1.344-2.333c-0.322-0.812-0.583-1.656-0.786-2.536c-0.237-0.946-0.322-1.901-0.254-2.866
	c0.067-0.963,0.186-1.901,0.356-2.814L287.957,650.732z"/>
<path fill="none" stroke="#000000" stroke-width="2" d="M294.043,651.797c-0.102,0.541-0.187,1.073-0.254,1.598
	c-0.068,0.523-0.068,1.058,0,1.597c0.102,0.778,0.312,1.489,0.634,2.13c0.321,0.644,0.744,1.15,1.268,1.521
	c0.524,0.372,1.124,0.567,1.8,0.584c0.676,0.017,1.403-0.194,2.181-0.635c0.98-0.574,1.826-1.463,2.536-2.662
	c0.71-1.2,1.149-2.452,1.318-3.754c0.169-1.301,0.034-2.536-0.406-3.702c-0.44-1.166-1.302-2.004-2.587-2.512
	c-0.846,0-1.623,0.162-2.333,0.481c-0.71,0.322-1.328,0.745-1.851,1.269c-0.524,0.524-0.982,1.142-1.37,1.852
	C294.592,650.275,294.279,651.02,294.043,651.797z"/>
<path fill="none" stroke="#000000" stroke-width="2" d="M339.385,640.942c0.507-0.676,1.09-1.141,1.75-1.394
	c0.658-0.254,1.275-0.305,1.851-0.152c0.573,0.152,1.064,0.498,1.471,1.039c0.405,0.541,0.624,1.268,0.659,2.181
	c0.033,0.507-0.178,1.42-0.635,2.739c-0.456,1.317-1.007,3.043-1.647,5.173c-0.035,0.136-0.094,0.304-0.178,0.507
	c-0.085,0.203-0.203,0.541-0.355,1.015c-0.151,0.474-0.372,1.134-0.659,1.978c-0.287,0.846-0.684,1.978-1.191,3.398
	c-0.237,0.71-0.532,1.556-0.887,2.536c-0.355,0.981-0.804,1.851-1.345,2.612c-0.541,0.761-1.184,1.285-1.927,1.572
	c-0.744,0.287-1.641,0.076-2.688-0.635c-0.339-0.236-0.71-0.717-1.115-1.445c-0.406-0.727-0.795-1.513-1.166-2.358
	c-0.373-0.845-0.702-1.647-0.989-2.409c-0.288-0.761-0.481-1.26-0.583-1.496c-0.238-0.54-0.508-1.141-0.812-1.8
	c-0.305-0.659-0.593-1.326-0.862-2.003l-0.304,0.76c-0.44,1.116-0.88,2.231-1.319,3.348s-0.88,2.215-1.318,3.297
	c-0.237,0.576-0.456,1.201-0.659,1.877s-0.491,1.268-0.862,1.774c-0.304,0.439-0.685,0.752-1.141,0.938
	c-0.456,0.186-0.921,0.262-1.395,0.229c-0.475-0.034-0.922-0.161-1.344-0.381c-0.424-0.22-0.786-0.532-1.091-0.938
	c-0.473-0.676-0.845-1.453-1.115-2.333c-0.271-0.879-0.541-1.69-0.812-2.434c-0.372-1.049-0.71-2.122-1.015-3.222
	c-0.304-1.098-0.625-2.155-0.963-3.17c-0.17-0.541-0.39-1.251-0.66-2.13s-0.531-1.783-0.785-2.714
	c-0.254-0.93-0.456-1.833-0.608-2.714c-0.152-0.879-0.212-1.604-0.178-2.18c0.033-0.574,0.229-1.091,0.583-1.547
	c0.355-0.457,0.786-0.795,1.293-1.015s1.04-0.295,1.598-0.228s1.057,0.321,1.496,0.761c0.642,0.676,1.031,1.394,1.166,2.155
	c0.136,0.76,0.287,1.58,0.457,2.459c0.27,1.354,0.583,2.689,0.938,4.008c0.355,1.318,0.735,2.637,1.142,3.955
	c0.135-0.303,0.287-0.676,0.456-1.115s0.439-1.098,0.812-1.978c0.304-0.743,0.599-1.471,0.888-2.181
	c0.287-0.71,0.565-1.42,0.836-2.13c0.203-0.507,0.406-1.006,0.608-1.495c0.203-0.49,0.406-0.973,0.609-1.446
	c0.236-0.507,0.583-0.921,1.039-1.242s0.955-0.523,1.496-0.608s1.065-0.033,1.572,0.152c0.508,0.187,0.913,0.532,1.218,1.039
	c0.438,0.677,0.777,1.429,1.013,2.258c0.237,0.828,0.49,1.615,0.762,2.358c0.473,1.217,0.938,2.443,1.395,3.677
	c0.456,1.235,0.938,2.443,1.445,3.627c0.743-2.028,1.402-4.065,1.978-6.111c0.574-2.046,1.2-4.083,1.876-6.111L339.385,640.942z"/>
<path fill="none" stroke="#000000" stroke-width="2" d="M348.159,665.896c0.27-0.271,0.515-0.516,0.734-0.736
	c0.22-0.219,0.439-0.439,0.659-0.658c0.22-0.22,0.432-0.466,0.635-0.735c0.203-0.271,0.422-0.593,0.658-0.964
	c0.981-1.589,1.725-3.398,2.231-5.427c0.508-2.028,0.812-4.115,0.913-6.263s0.017-4.261-0.253-6.34
	c-0.271-2.079-0.728-3.982-1.37-5.705c-0.439-1.184-0.988-2.301-1.647-3.349c-0.659-1.047-1.327-2.079-2.003-3.094
	c-0.305-0.439-0.601-0.87-0.888-1.293c-0.288-0.423-0.448-0.921-0.481-1.496c-0.034-0.879,0.177-1.605,0.634-2.181
	c0.456-0.574,1.006-0.938,1.648-1.09c0.642-0.152,1.301-0.093,1.977,0.177c0.676,0.271,1.218,0.795,1.623,1.572
	c0.744,1.049,1.454,2.113,2.13,3.195c0.676,1.083,1.302,2.181,1.877,3.297c0.946,1.826,1.665,3.805,2.155,5.935
	c0.489,2.129,0.777,4.311,0.861,6.542c0.085,2.231-0.024,4.438-0.329,6.618s-0.761,4.219-1.369,6.111
	c-0.541,1.623-1.192,3.254-1.953,4.895c-0.76,1.64-1.732,3.085-2.916,4.336c-0.507,0.541-1.083,1.048-1.725,1.521
	c-0.643,0.474-1.353,0.71-2.13,0.71c-0.71,0-1.293-0.151-1.749-0.456s-0.778-0.693-0.964-1.167
	c-0.187-0.473-0.245-0.988-0.177-1.546c0.067-0.559,0.236-1.108,0.507-1.648L348.159,665.896z"/>
<path fill="none" stroke="#000000" stroke-width="2" d="M113.202,393.652c-9.695-1.131-15.611-4.343-17.751-9.637
	c-2.145-5.294-2.198-11.1-0.169-17.413V229.325c-3.608,0-6.821-0.956-9.637-2.874c-2.821-1.913-5.072-4.337-6.763-7.27
	c-1.69-2.927-2.536-6.139-2.536-9.637c0-3.493,1.015-6.704,3.043-9.637c4.506-6.762,10.313-12.056,17.414-15.892
	c7.1-3.831,14.481-6.984,22.147-9.468c11.946-3.83,23.949-5.97,36.01-6.424c12.056-0.449,23.949,2.029,35.672,7.438
	c10.593,4.961,18.935,11.385,25.021,19.273c6.086,7.893,9.917,16.288,11.497,25.19c1.574,8.908,0.787,18.037-2.367,27.388
	c-3.159,9.356-8.792,18.089-16.906,26.204c10.592,6.763,18.142,14.825,22.654,24.176c4.506,9.356,6.366,18.993,5.579,28.909
	c-0.792,9.922-3.947,19.5-9.468,28.74c-5.526,9.246-13.018,17.244-22.485,24.007c-5.637,4.058-12.23,7.153-19.78,9.298
	c-7.555,2.14-15.332,3.661-23.331,4.564c-8.004,0.898-15.95,1.353-23.837,1.353c-7.893,0-15.105-0.227-21.64-0.676L113.202,393.652z
	"/>
<path fill="none" stroke="#000000" stroke-width="2" d="M136.532,255.698c4.058,0,8.115,0,12.173,0
	c4.057,0,8.057-0.391,12.003-1.184c3.941-0.787,7.777-2.081,11.497-3.889c3.72-1.802,7.042-4.396,9.974-7.777
	c4.28-4.733,5.801-9.747,4.564-15.046c-1.241-5.294-4.454-9.52-9.637-12.679c-5.864-3.831-12.51-5.801-19.949-5.917
	c-7.439-0.111-14.318,0.734-20.625,2.536L136.532,255.698L136.532,255.698z"/>
<path fill="none" stroke="#000000" stroke-width="2" d="M185.221,307.769c-4.058-2.705-8.004-4.734-11.834-6.086
	c-3.835-1.353-7.724-2.25-11.665-2.705c-3.947-0.449-7.946-0.56-12.003-0.337c-4.058,0.227-8.453,0.454-13.187,0.676v54.099
	c4.955,0,10.254-0.169,15.892-0.507c5.632-0.338,11.042-1.236,16.23-2.705c5.182-1.463,10.027-3.55,14.539-6.255
	c4.506-2.705,8.115-6.425,10.82-11.158c0.676-5.41,0.56-10.085-0.338-14.032C192.771,314.816,189.955,311.15,185.221,307.769z"/>
<path fill="none" stroke="#231F20" stroke-width="2" stroke-miterlimit="10" d="M197.605,433.982
	c-11.189-8.246-25.323-3.871-37.822-5.223c5.712,9.89,7.725,22.571,15.455,31.275C191.049,477.837,217.947,448.976,197.605,433.982z
	"/>
<path fill="none" stroke="#231F20" stroke-width="2" stroke-miterlimit="10" d="M333.748,501.583
	c-3.8,0.108-7.56,0.005-11.262-0.323c-11.722-1.034-22.872-4.248-32.932-9.558c0.581,7.019,1.629,14.04,1.802,19.739
	c0.309,10.153-2.556,30.023,6.653,36.617c10.202,7.304,29.603,1.229,33.31-9.335C335.295,527.394,330.961,512.701,333.748,501.583z"
	/>
<path fill="none" stroke="#231F20" stroke-width="2" stroke-miterlimit="10" d="M374.695,493.071
	c-3.419,1.166-6.818,2.244-10.179,3.209c-3.592,1.032-7.143,1.945-10.633,2.733c-7.015,1.584-13.987,2.43-20.829,2.577
	c-0.126,10.661-1.744,27.649,6.637,33.649c10.202,7.306,29.603,1.231,33.31-9.335C376.481,515.985,373.597,503.491,374.695,493.071z
	"/>
<path fill="none" stroke="#231F20" stroke-width="2" stroke-miterlimit="10" d="M496.156,450.422
	c-3.806-7.781-14.271-15.812-24.414-21.448c-1.263,1.723-2.618,3.43-4.075,5.12c-9.086,10.545-20.614,20.407-33.427,29.186
	c14.131,6.881,28.509,17.625,43.356,12.608C487.984,472.378,502.449,463.289,496.156,450.422z"/>
<path fill="none" stroke="#231F20" stroke-width="2" stroke-miterlimit="10" d="M521.768,395.232
	c0.296-0.341,0.604-0.674,0.888-1.022c0.324-0.398,0.622-0.811,0.931-1.217c0.251-0.331,0.515-0.654,0.755-0.991
	c0.311-0.435,0.594-0.883,0.887-1.328c0.212-0.321,0.438-0.637,0.641-0.962c0.294-0.474,0.562-0.959,0.837-1.442
	c0.176-0.308,0.364-0.609,0.531-0.921c0.28-0.52,0.532-1.051,0.79-1.58c0.139-0.284,0.289-0.562,0.421-0.849
	c0.262-0.567,0.495-1.144,0.731-1.72c0.105-0.257,0.224-0.509,0.324-0.768c0.237-0.61,0.446-1.229,0.656-1.848
	c0.078-0.231,0.169-0.459,0.243-0.692c0.211-0.658,0.396-1.324,0.576-1.991c0.054-0.198,0.118-0.393,0.169-0.592
	c0.182-0.707,0.335-1.42,0.483-2.134c0.033-0.163,0.076-0.323,0.107-0.486c0.146-0.75,0.266-1.504,0.376-2.26
	c0.019-0.13,0.045-0.26,0.062-0.391c0.108-0.793,0.189-1.59,0.258-2.389c0.008-0.095,0.021-0.189,0.029-0.284
	c0.065-0.831,0.104-1.664,0.126-2.498c0.002-0.064,0.008-0.127,0.009-0.191c0.02-0.87,0.014-1.742-0.015-2.614
	c0-0.027,0-0.055,0-0.083c-0.42-12.634-5.764-25.325-15.727-34.764c3.593-15.536,0.336-34.052-2.67-50.724
	c-4.393-24.361-24.888-35.786-47.841-39.213c-20.58-3.071-64.615,3.893-68.297,30.443c-1.819,13.143-2.739,26.404-3.201,39.66
	c-0.002,0.062-0.005,0.125-0.007,0.187c-12.171-1.124-24.541-0.548-36.476,1.28c-6.263,0.961-12.64,2.318-19.011,4.074
	c-39.528,10.884-78.788,37.034-88.977,77.965c-0.997,4.005-1.868,7.839-2.565,11.54c-2.376,12.549-2.812,23.676,0.294,35.388
	c1.449,5.461,3.667,11.049,6.818,16.966c14.286,26.823,39.268,41.98,67.561,44.476c10.151,0.898,20.73,0.162,31.397-2.246
	c3.49-0.788,7.041-1.701,10.633-2.733c20.571-5.904,42.527-15.688,62.148-28.021c15.838-9.957,30.156-21.578,41.002-34.165
	c5.395-6.26,9.448-12.729,12.198-19.509c1.733-0.267,3.448-0.565,5.141-0.902c0.003,0,0.007-0.001,0.011-0.002
	c1.689-0.336,3.357-0.705,4.996-1.112c6.999-1.738,13.5-4.133,19.153-7.229c0.912-0.5,1.796-1.021,2.653-1.564
	c0.298-0.188,0.574-0.394,0.865-0.587c0.547-0.364,1.101-0.723,1.625-1.104c0.342-0.249,0.66-0.515,0.993-0.771
	c0.447-0.345,0.905-0.682,1.335-1.039c0.346-0.287,0.666-0.591,1-0.885c0.391-0.345,0.792-0.681,1.167-1.035
	c0.34-0.321,0.653-0.659,0.98-0.988c0.342-0.345,0.696-0.683,1.025-1.036C521.143,395.972,521.449,395.599,521.768,395.232z"/>
<path fill="none" stroke="#231F20" stroke-width="2" stroke-miterlimit="10" d="M514.418,402.001
	c24.055-17.59,23.761-52.999,2.081-73.136c-28.926-26.866-78.835-33.886-110.706-10.357c-30.761,22.708-38.675,70.187,0.482,87.786
	c19.418,8.727,48.457,12.149,73.584,8.293c-2.207,5.438-5.251,10.679-9.156,15.771c11.059,5.918,22.295,11.517,33.814,7.624
	c10.39-3.51,24.854-12.597,18.562-25.466C521.35,408.979,518.242,405.393,514.418,402.001z"/>
<path fill="none" stroke="#231F20" stroke-width="2" stroke-miterlimit="10" d="M532.154,283.964
	c-4.434-3.932-11.971-8.503-18.286-7.034c-1.623-7.594-4.849-13.888-9.247-19.03c8.185-5.904,13.303-19.39,14.347-27.146
	c1.09-8.102-2.389-18.803-8.958-23.938c-7.219-5.645-8.708,0.603-10.229,6.991c-1.579,6.632-1.819,14.511-5.63,20.382
	c-2.746,4.231-8.542,5.358-11.354,9.207c-5.192-1.916-10.745-3.263-16.45-4.115c-13.254-1.978-36.234,0.208-51.901,9.107
	c-2.853-1.975-6.329-3.436-8.255-6.451c-3.764-5.9-3.947-13.781-5.475-20.425c-1.473-6.4-2.915-12.659-10.176-7.069
	c-6.607,5.085-10.167,15.761-9.138,23.869c1.1,8.667,7.22,24.509,17.104,29.003c-0.189,0.784-0.342,1.587-0.456,2.409
	c-0.009,0.064-0.017,0.128-0.025,0.192c-7.403-3.348-15.907,3.63-20.311,9.045c-5.551,6.827-9.458,15.777-9.028,24.706
	c5.971-0.749,12.183-2.362,18.348-2.65c2.617-0.123,5.462-0.074,8.197-0.398c-0.151,2.921-0.28,5.844-0.382,8.766
	c-0.235,6.775-0.581,13.449-0.374,19.745c-20.726,24.57-21.977,61.982,11.801,77.164c22.1,9.932,56.665,12.997,83.737,6.275
	c6.999-1.738,13.5-4.133,19.153-7.229c29.095-15.946,30.465-54.543,7.691-76.121c1.526-6.599,1.809-13.737,1.407-21.041
	c2.788-0.113,5.628-0.632,8.266-0.939c6.131-0.715,12.522-0.129,18.534-0.358C544.044,297.999,538.737,289.801,532.154,283.964z"/>
</svg>
