<?xml version="1.0" encoding="utf-8"?>
<!-- Generator: Adobe Illustrator 16.0.0, SVG Export Plug-In . SVG Version: 6.00 Build 0)  -->
<!DOCTYPE svg PUBLIC "-//W3C//DTD SVG 1.1//EN" "http://www.w3.org/Graphics/SVG/1.1/DTD/svg11.dtd">
<svg version="1.1" id="Layer_1" xmlns="http://www.w3.org/2000/svg" xmlns:xlink="http://www.w3.org/1999/xlink" x="0px" y="0px"
	 width="612px" height="612px" viewBox="0 90 612 612" enable-background="new 0 90 612 612" xml:space="preserve">
<g id="Layer_3">
	<path fill="none" stroke="#000000" stroke-width="2" d="M124.924,585.925c0.721-0.722,1.543-1.138,2.468-1.251
		c0.923-0.112,1.769,0.012,2.536,0.372c0.766,0.36,1.364,0.936,1.792,1.723c0.428,0.79,0.529,1.725,0.305,2.807
		c-0.271,1.082-0.79,2.086-1.556,3.01c-0.767,0.925-1.533,1.771-2.299,2.536c-1.758,1.849-3.708,3.213-5.85,4.092
		c-2.142,0.879-4.306,1.296-6.492,1.251c-2.187-0.045-4.328-0.563-6.424-1.556s-3.979-2.479-5.647-4.463
		c-0.992-1.172-1.826-2.411-2.502-3.719s-1.195-2.683-1.556-4.125c-0.541-2.119-0.79-4.328-0.744-6.628
		c0.044-2.299,0.406-4.53,1.082-6.693c0.676-2.165,1.633-4.204,2.874-6.12c1.239-1.916,2.761-3.551,4.564-4.903
		c1.307-0.991,2.626-1.849,3.956-2.57c1.33-0.721,2.739-1.396,4.227-2.028c0.855-0.36,1.735-0.71,2.637-1.048
		c0.901-0.339,1.826-0.598,2.772-0.778c0.947-0.18,1.894-0.247,2.84-0.202s1.87,0.248,2.772,0.608
		c0.631,0.27,1.262,0.642,1.893,1.115c0.631,0.474,1.217,1.015,1.758,1.623c0.541,0.607,1.015,1.251,1.421,1.927
		s0.698,1.33,0.878,1.961c0.135,0.587,0.169,1.184,0.102,1.792c-0.067,0.608-0.248,1.161-0.541,1.657
		c-0.293,0.497-0.688,0.912-1.184,1.251c-0.497,0.338-1.059,0.553-1.69,0.643c-1.038,0.136-1.837,0.023-2.401-0.338
		c-0.564-0.361-1.014-0.812-1.353-1.354c-0.338-0.541-0.666-1.069-0.98-1.589c-0.316-0.518-0.767-0.89-1.353-1.116
		c-0.361,0-0.632,0.024-0.812,0.068c-1.533,0.405-3.077,0.958-4.632,1.656c-1.556,0.7-2.999,1.545-4.328,2.536
		c-1.331,0.992-2.491,2.142-3.483,3.449c-0.992,1.309-1.713,2.772-2.164,4.396c-0.541,1.939-0.744,3.9-0.609,5.884
		c0.135,1.983,0.676,3.854,1.623,5.613c0.541,1.037,1.262,1.938,2.164,2.705c0.901,0.767,1.894,1.341,2.976,1.724
		s2.186,0.519,3.314,0.405c1.126-0.112,2.208-0.507,3.246-1.184c0.901-0.631,1.713-1.408,2.435-2.333
		C123.684,587.807,124.337,586.871,124.924,585.925z"/>
	<path fill="none" stroke="#000000" stroke-width="2" d="M166.444,594.851c0.36,1.309,0.293,2.391-0.203,3.247
		c-0.497,0.855-1.184,1.43-2.062,1.724c-0.879,0.293-1.837,0.259-2.874-0.102c-1.038-0.361-1.938-1.082-2.705-2.164
		c-1.262,0.947-2.491,1.611-3.686,1.995c-1.195,0.383-2.559,0.597-4.091,0.643c-2.299,0.089-4.352-0.169-6.154-0.777
		c-1.804-0.608-3.325-1.521-4.564-2.739c-1.24-1.218-2.153-2.739-2.739-4.564c-0.586-1.826-0.789-3.934-0.609-6.323
		c0.09-0.991,0.259-1.961,0.507-2.908c0.248-0.946,0.53-1.869,0.845-2.771c0.361-0.991,0.867-2.052,1.521-3.179
		c0.653-1.126,1.319-2.097,1.995-2.908c2.435-2.975,5.478-5.115,9.129-6.424c0.631-0.226,1.488-0.428,2.57-0.609
		c1.082-0.179,2.174-0.258,3.28-0.236c1.104,0.023,2.164,0.169,3.178,0.44c1.014,0.27,1.769,0.743,2.266,1.419
		c0.406,0.542,0.698,1.015,0.879,1.42c0.18,0.406,0.281,0.835,0.304,1.285c0.022,0.451,0.022,0.937,0,1.454
		c-0.023,0.52-0.034,1.161-0.034,1.928c0,1.262-0.011,2.49-0.033,3.685c-0.023,1.195-0.012,2.401,0.033,3.618
		c0,0.405,0,0.936,0,1.589c0,0.654,0.022,1.342,0.067,2.063c0.045,0.721,0.102,1.409,0.169,2.062
		c0.067,0.654,0.169,1.185,0.304,1.59L166.444,594.851z"/>
	<path fill="none" stroke="#000000" stroke-width="2" d="M152.108,591.808c0.496-0.314,1.059-0.665,1.69-1.049
		c0.631-0.382,1.194-0.821,1.691-1.317c-0.406-2.39-0.643-4.778-0.71-7.169c-0.068-2.389-0.057-4.802,0.034-7.235
		c-2.029,0.361-3.854,1.24-5.478,2.638s-2.75,3.043-3.381,4.937c-0.271,0.768-0.497,1.555-0.676,2.366
		c-0.181,0.812-0.249,1.601-0.203,2.366c0.044,1.038,0.315,1.905,0.812,2.604c0.496,0.7,1.092,1.229,1.792,1.591
		c0.699,0.36,1.442,0.563,2.231,0.608C150.699,592.191,151.432,592.079,152.108,591.808z"/>
	<path fill="none" stroke="#000000" stroke-width="2" d="M198.16,596.067c-0.135,1.128-0.553,2.052-1.251,2.773
		c-0.7,0.721-1.488,1.171-2.367,1.352c-0.879,0.181-1.725,0.068-2.536-0.338c-0.812-0.405-1.398-1.194-1.758-2.366
		c-0.406-1.262-0.564-2.58-0.474-3.956c0.09-1.375,0.135-2.648,0.135-3.821c0-2.435,0.01-4.856,0.034-7.27
		c0.022-2.411-0.079-4.835-0.304-7.27c-0.045-0.089-0.091-0.169-0.135-0.236c-0.045-0.068-0.135-0.17-0.271-0.305
		c-1.038-0.271-2.142-0.203-3.314,0.203c-1.173,0.405-2.164,0.924-2.976,1.555c-0.722,0.587-1.432,1.387-2.13,2.401
		c-0.699,1.014-1.048,1.995-1.048,2.941v9.333c0,0.721,0.022,1.511,0.068,2.366c0.044,0.856,0.011,1.69-0.102,2.502
		c-0.113,0.812-0.372,1.556-0.778,2.231c-0.406,0.676-1.06,1.171-1.961,1.488c-0.497,0.179-0.958,0.247-1.386,0.202
		c-0.429-0.046-0.891-0.158-1.386-0.338c-0.812-0.271-1.397-0.733-1.758-1.387c-0.361-0.652-0.609-1.353-0.744-2.097
		c-0.135-0.743-0.192-1.464-0.168-2.163c0.022-0.699,0.033-1.252,0.033-1.657c0-1.036-0.011-2.536-0.033-4.498
		c-0.023-1.96-0.034-4.023-0.034-6.187c0-2.164,0-4.227,0-6.188s0-3.459,0-4.497c0-0.991,0.292-1.814,0.879-2.469
		c0.585-0.652,1.273-1.082,2.062-1.285c0.788-0.202,1.623-0.157,2.501,0.136c0.88,0.294,1.612,0.891,2.198,1.792
		c1.802-1.172,3.787-1.961,5.951-2.367c2.164-0.405,4.203-0.338,6.12,0.203c1.916,0.542,3.517,1.556,4.801,3.044
		c1.285,1.487,1.95,3.539,1.995,6.153c0,0.091,0.022,0.362,0.067,0.812c0.044,0.451,0.067,1.082,0.067,1.894L198.16,596.067
		L198.16,596.067z"/>
	<path fill="none" stroke="#000000" stroke-width="2" d="M205.056,557.454c0.179-1.668,0.754-2.896,1.725-3.685
		c0.969-0.788,1.995-1.172,3.077-1.15c1.082,0.023,2.084,0.44,3.009,1.252c0.923,0.812,1.408,1.961,1.453,3.448
		c0.09,1.534-0.304,2.717-1.184,3.551c-0.879,0.834-1.883,1.308-3.009,1.42c-1.127,0.113-2.188-0.191-3.178-0.913
		c-0.993-0.721-1.601-1.87-1.826-3.449L205.056,557.454z"/>
	<path fill="none" stroke="#000000" stroke-width="2" d="M213.983,595.933c-0.091,0.903-0.406,1.702-0.947,2.402
		c-0.541,0.698-1.161,1.204-1.86,1.52c-0.7,0.316-1.454,0.383-2.266,0.203c-0.812-0.181-1.533-0.676-2.164-1.487
		c-0.362-0.451-0.621-0.957-0.778-1.521c-0.159-0.563-0.26-1.149-0.304-1.758c-0.045-0.609-0.057-1.218-0.034-1.826
		c0.022-0.608,0.034-1.16,0.034-1.656c-0.045-2.66-0.057-5.297-0.034-7.912c0.022-2.614,0.01-5.252-0.034-7.912
		c0-1.083-0.068-2.175-0.203-3.279c-0.135-1.105-0.067-2.199,0.203-3.28c0.225-0.812,0.619-1.51,1.184-2.097
		c0.563-0.585,1.194-0.991,1.894-1.217c0.699-0.225,1.42-0.247,2.164-0.067c0.744,0.181,1.386,0.654,1.927,1.42
		c0.721,0.902,1.082,1.792,1.082,2.671s0,1.951,0,3.212c0,1.533,0,3.066,0,4.599c0,1.533,0.022,3.043,0.067,4.531
		c0.045,2.163,0.068,4.327,0.068,6.491c0,2.163,0,4.328,0,6.491V595.933L213.983,595.933z"/>
	<path fill="none" stroke="#000000" stroke-width="2" d="M219.866,593.296c-0.271-0.767-0.383-1.521-0.338-2.266
		c0.044-0.744,0.237-1.42,0.575-2.028c0.339-0.608,0.822-1.082,1.454-1.42c0.631-0.339,1.397-0.462,2.299-0.372
		c0.496,0.046,0.947,0.181,1.353,0.406c0.406,0.227,0.778,0.497,1.116,0.812c0.338,0.316,0.676,0.653,1.014,1.014
		c0.338,0.361,0.688,0.677,1.048,0.947c0.766,0.587,1.578,1.015,2.435,1.285c0.855,0.27,1.758,0.473,2.705,0.608
		c0.63,0,1.138-0.157,1.521-0.474c0.382-0.314,0.643-0.698,0.778-1.149c0.135-0.449,0.169-0.935,0.102-1.454
		c-0.067-0.518-0.237-0.935-0.507-1.251c-0.767-0.766-1.702-1.262-2.806-1.487c-1.105-0.226-2.13-0.496-3.077-0.812
		c-1.353-0.45-2.683-1.026-3.99-1.725c-1.308-0.698-2.367-1.657-3.178-2.873c-0.856-1.263-1.364-2.604-1.521-4.024
		c-0.159-1.42-0.045-2.806,0.337-4.159c0.383-1.352,1.025-2.591,1.927-3.719c0.901-1.127,1.983-2.051,3.246-2.772
		c0.947-0.541,1.983-0.89,3.111-1.049c1.126-0.157,2.266-0.19,3.415-0.102c1.149,0.091,2.288,0.305,3.415,0.644
		c1.126,0.338,2.164,0.71,3.111,1.115c1.082,0.497,1.894,1.195,2.435,2.097c0.541,0.902,0.8,1.815,0.778,2.738
		c-0.023,0.926-0.339,1.725-0.947,2.401c-0.608,0.676-1.5,1.014-2.671,1.014c-0.722,0-1.376-0.123-1.961-0.371
		c-0.586-0.247-1.195-0.484-1.826-0.71c-0.812-0.314-1.69-0.529-2.638-0.643c-0.947-0.112-1.713-0.056-2.299,0.169
		c-0.181,0.045-0.383,0.192-0.608,0.439c-0.227,0.248-0.395,0.553-0.507,0.913c-0.113,0.361-0.135,0.722-0.067,1.082
		c0.068,0.361,0.304,0.654,0.71,0.879c1.082,0.587,2.231,1.037,3.449,1.354c1.217,0.315,2.411,0.676,3.584,1.082
		c1.172,0.405,2.266,0.925,3.28,1.555c1.014,0.633,1.86,1.534,2.536,2.705c0.991,1.715,1.498,3.506,1.521,5.377
		c0.022,1.87-0.35,3.617-1.115,5.239c-0.767,1.623-1.894,3.01-3.381,4.16c-1.488,1.148-3.224,1.836-5.207,2.062
		c-1.398,0.136-2.773,0.057-4.125-0.236c-1.353-0.294-2.661-0.768-3.922-1.42c-1.262-0.654-2.435-1.431-3.517-2.333
		c-1.082-0.901-2.028-1.849-2.84-2.841L219.866,593.296z"/>
	<path fill="none" stroke="#000000" stroke-width="2" d="M286.745,598.638c-0.586,0.721-1.262,1.217-2.029,1.488
		c-0.767,0.27-1.556,0.27-2.367,0c-0.811-0.271-1.487-0.88-2.028-1.826c-0.227-0.361-0.406-0.744-0.541-1.149
		c-0.135-0.406-0.203-0.812-0.203-1.218v-17.785c-0.857,0-1.635-0.236-2.333-0.71c-0.7-0.473-1.217-1.059-1.556-1.758
		c-0.338-0.698-0.463-1.442-0.372-2.231c0.089-0.788,0.45-1.521,1.082-2.197c0.45-0.496,0.935-0.822,1.454-0.981
		c0.518-0.157,1.07-0.259,1.657-0.305c-0.045-1.396-0.079-2.771-0.102-4.124c-0.023-1.353,0.078-2.705,0.304-4.058
		c0.271-2.119,0.901-3.922,1.894-5.41c0.991-1.488,2.22-2.638,3.686-3.449c1.464-0.812,3.099-1.285,4.902-1.42
		c1.803-0.136,3.674,0.136,5.613,0.812c0.812,0.271,1.589,0.608,2.333,1.014c0.744,0.406,1.409,0.926,1.995,1.556
		c0.406,0.451,0.698,0.981,0.879,1.59c0.179,0.608,0.213,1.217,0.102,1.825c-0.113,0.608-0.338,1.173-0.676,1.691
		c-0.338,0.519-0.823,0.912-1.454,1.184c-0.857,0.36-1.702,0.45-2.536,0.27c-0.835-0.18-1.657-0.473-2.468-0.879
		c-0.497-0.18-0.97-0.361-1.42-0.542c-0.451-0.179-0.925-0.314-1.42-0.405c-0.497-0.09-0.946-0.022-1.352,0.202
		c-0.406,0.227-0.756,0.531-1.048,0.913c-0.294,0.384-0.519,0.812-0.677,1.285c-0.158,0.474-0.237,0.937-0.237,1.388
		c-0.045,1.037-0.057,2.085-0.033,3.144c0.022,1.06,0.033,2.108,0.033,3.145c0.676-0.044,1.397-0.089,2.164-0.135
		c0.767-0.044,1.521-0.067,2.266-0.067c0.745,0,1.431,0.023,2.063,0.067c0.63,0.045,1.126,0.135,1.488,0.27
		c0.721,0.271,1.307,0.688,1.758,1.252c0.45,0.564,0.744,1.173,0.88,1.825c0.135,0.654,0.078,1.319-0.169,1.995
		c-0.249,0.676-0.688,1.263-1.319,1.759c-0.586,0.451-1.263,0.767-2.029,0.946c-0.767,0.181-1.579,0.305-2.435,0.372
		c-0.857,0.066-1.69,0.091-2.502,0.066c-0.812-0.021-1.533-0.033-2.164-0.033v18.056
		C287.692,597.06,287.331,597.916,286.745,598.638z"/>
	<path fill="none" stroke="#000000" stroke-width="2" d="M329.89,594.851c0.359,1.309,0.293,2.391-0.203,3.247
		c-0.497,0.855-1.184,1.43-2.062,1.724c-0.88,0.293-1.837,0.259-2.874-0.102c-1.037-0.361-1.939-1.082-2.705-2.164
		c-1.262,0.947-2.491,1.611-3.685,1.995c-1.195,0.383-2.56,0.597-4.092,0.643c-2.299,0.089-4.352-0.169-6.154-0.777
		c-1.804-0.608-3.325-1.521-4.564-2.739c-1.241-1.218-2.154-2.739-2.739-4.564c-0.586-1.826-0.79-3.934-0.609-6.323
		c0.09-0.991,0.259-1.961,0.507-2.908c0.247-0.946,0.529-1.869,0.845-2.771c0.36-0.991,0.867-2.052,1.521-3.179
		c0.653-1.126,1.319-2.097,1.995-2.908c2.434-2.975,5.478-5.115,9.129-6.424c0.63-0.226,1.487-0.428,2.569-0.609
		c1.082-0.179,2.175-0.258,3.278-0.236c1.104,0.023,2.165,0.169,3.179,0.44c1.015,0.27,1.769,0.743,2.266,1.419
		c0.405,0.542,0.698,1.015,0.879,1.42c0.18,0.406,0.281,0.835,0.305,1.285c0.021,0.451,0.021,0.937,0,1.454
		c-0.023,0.52-0.034,1.161-0.034,1.928c0,1.262-0.012,2.49-0.034,3.685c-0.022,1.195-0.013,2.401,0.034,3.618
		c0,0.405,0,0.936,0,1.589c0,0.654,0.022,1.342,0.067,2.063c0.044,0.721,0.102,1.409,0.168,2.062c0.068,0.654,0.17,1.185,0.306,1.59
		L329.89,594.851z"/>
	<path fill="none" stroke="#000000" stroke-width="2" d="M315.553,591.808c0.496-0.314,1.059-0.665,1.691-1.049
		c0.63-0.382,1.193-0.821,1.69-1.317c-0.405-2.39-0.642-4.778-0.71-7.169c-0.067-2.389-0.058-4.802,0.034-7.235
		c-2.028,0.361-3.854,1.24-5.478,2.638s-2.75,3.043-3.381,4.937c-0.27,0.768-0.497,1.555-0.677,2.366
		c-0.181,0.812-0.247,1.601-0.202,2.366c0.044,1.038,0.315,1.905,0.812,2.604c0.496,0.7,1.093,1.229,1.792,1.591
		c0.699,0.36,1.441,0.563,2.231,0.608C314.144,592.191,314.877,592.079,315.553,591.808z"/>
	<path fill="none" stroke="#000000" stroke-width="2" d="M351.055,578.486v-0.947c-0.405-1.036-1.06-1.769-1.961-2.198
		c-0.902-0.428-1.871-0.687-2.908-0.777c-0.586,0.181-1.06,0.384-1.42,0.608c-0.361,0.227-0.676,0.474-0.946,0.744
		s-0.52,0.574-0.744,0.913c-0.226,0.338-0.497,0.688-0.812,1.048v17.717c0,1.398-0.418,2.491-1.251,3.28
		c-0.834,0.788-1.759,1.239-2.772,1.353c-1.014,0.111-1.95-0.136-2.806-0.744c-0.857-0.608-1.309-1.635-1.353-3.077
		c-0.092-3.471-0.125-7.415-0.102-11.833c0.021-4.418,0.033-9.354,0.033-14.811c0-0.946,0.281-1.735,0.846-2.366
		c0.563-0.631,1.239-1.059,2.028-1.285c0.788-0.226,1.6-0.214,2.435,0.033c0.833,0.249,1.521,0.756,2.062,1.521
		c2.524-1.262,5.038-1.656,7.54-1.184c2.502,0.474,4.768,1.657,6.796,3.551c0.901-0.901,1.871-1.713,2.908-2.435
		c1.036-0.721,2.163-1.194,3.381-1.421c1.396-0.225,2.807-0.168,4.227,0.17s2.738,0.891,3.956,1.656
		c1.217,0.768,2.287,1.715,3.212,2.841c0.924,1.127,1.611,2.345,2.062,3.651c0.225,0.903,0.339,1.715,0.339,2.436v18.394
		c0,0.541-0.068,1.06-0.203,1.555c-0.406,1.173-1.049,1.995-1.928,2.469c-0.879,0.473-1.78,0.643-2.705,0.507
		s-1.724-0.564-2.4-1.284c-0.676-0.723-1.015-1.691-1.015-2.908v-18.191c-0.405-1.082-0.992-1.87-1.758-2.367
		c-0.767-0.495-1.556-0.721-2.367-0.676c-0.812,0.046-1.589,0.338-2.333,0.88c-0.744,0.541-1.342,1.285-1.792,2.231v17.717
		c0,1.218-0.396,2.231-1.184,3.043c-0.79,0.812-1.657,1.329-2.604,1.556c-0.947,0.226-1.838,0.136-2.672-0.271
		c-0.834-0.405-1.317-1.217-1.453-2.435L351.055,578.486z"/>
	<path fill="none" stroke="#000000" stroke-width="2" d="M382.229,557.454c0.181-1.668,0.754-2.896,1.725-3.685
		c0.969-0.788,1.995-1.172,3.077-1.15c1.082,0.023,2.084,0.44,3.009,1.252c0.924,0.812,1.409,1.961,1.454,3.448
		c0.09,1.534-0.305,2.717-1.184,3.551s-1.883,1.308-3.01,1.42c-1.127,0.113-2.187-0.191-3.178-0.913
		c-0.992-0.721-1.601-1.87-1.826-3.449L382.229,557.454z"/>
	<path fill="none" stroke="#000000" stroke-width="2" d="M391.155,595.933c-0.091,0.903-0.405,1.702-0.946,2.402
		c-0.541,0.698-1.161,1.204-1.86,1.52c-0.699,0.316-1.454,0.383-2.265,0.203c-0.812-0.181-1.534-0.676-2.164-1.487
		c-0.361-0.451-0.621-0.957-0.778-1.521c-0.159-0.563-0.26-1.149-0.304-1.758c-0.046-0.609-0.058-1.218-0.034-1.826
		c0.021-0.608,0.034-1.16,0.034-1.656c-0.046-2.66-0.058-5.297-0.034-7.912c0.021-2.614,0.011-5.252-0.034-7.912
		c0-1.083-0.067-2.175-0.203-3.279c-0.135-1.105-0.067-2.199,0.203-3.28c0.225-0.812,0.619-1.51,1.184-2.097
		c0.563-0.585,1.193-0.991,1.894-1.217c0.698-0.225,1.42-0.247,2.164-0.067c0.744,0.181,1.387,0.654,1.927,1.42
		c0.721,0.902,1.083,1.792,1.083,2.671s0,1.951,0,3.212c0,1.533,0,3.066,0,4.599c0,1.533,0.021,3.043,0.067,4.531
		c0.044,2.163,0.067,4.327,0.067,6.491c0,2.163,0,4.328,0,6.491V595.933L391.155,595.933z"/>
	<path fill="none" stroke="#000000" stroke-width="2" d="M408.67,593.635c0.495,0.45,0.912,1.025,1.251,1.723
		c0.338,0.7,0.518,1.398,0.541,2.097c0.021,0.698-0.136,1.354-0.474,1.962s-0.936,1.069-1.792,1.387
		c-0.676,0.225-1.42,0.27-2.231,0.135c-0.812-0.134-1.612-0.406-2.4-0.811c-0.789-0.407-1.488-0.891-2.097-1.455
		s-1.048-1.184-1.318-1.858c-0.091-0.227-0.158-0.484-0.202-0.778c-0.046-0.293-0.068-0.552-0.068-0.777v-37.532
		c0-1.036,0.395-1.915,1.185-2.638c0.787-0.721,1.656-1.149,2.604-1.285c0.449-0.044,0.935,0.024,1.453,0.203
		c0.519,0.181,1.003,0.44,1.454,0.778c0.45,0.338,0.822,0.733,1.115,1.184c0.294,0.451,0.44,0.925,0.44,1.42
		c0,1.173,0,2.729,0,4.666c0,1.939,0.011,4.058,0.034,6.356c0.021,2.3,0.034,4.679,0.034,7.135c0,2.458-0.013,4.812-0.034,7.066
		c-0.023,2.256-0.034,4.318-0.034,6.188c0,1.872-0.023,3.371-0.068,4.498L408.67,593.635z"/>
	<path fill="none" stroke="#000000" stroke-width="2" d="M415.905,557.454c0.18-1.668,0.754-2.896,1.724-3.685
		c0.97-0.788,1.996-1.172,3.078-1.15c1.082,0.023,2.084,0.44,3.009,1.252c0.924,0.812,1.409,1.961,1.454,3.448
		c0.089,1.534-0.305,2.717-1.185,3.551c-0.879,0.834-1.882,1.308-3.009,1.42c-1.127,0.113-2.187-0.191-3.179-0.913
		c-0.991-0.721-1.6-1.87-1.825-3.449L415.905,557.454z"/>
	<path fill="none" stroke="#000000" stroke-width="2" d="M424.832,595.933c-0.091,0.903-0.406,1.702-0.947,2.402
		c-0.54,0.698-1.16,1.204-1.859,1.52c-0.699,0.316-1.454,0.383-2.265,0.203c-0.812-0.181-1.534-0.676-2.164-1.487
		c-0.362-0.451-0.621-0.957-0.778-1.521c-0.159-0.563-0.26-1.149-0.304-1.758c-0.046-0.609-0.058-1.218-0.034-1.826
		c0.021-0.608,0.034-1.16,0.034-1.656c-0.046-2.66-0.058-5.297-0.034-7.912c0.021-2.614,0.011-5.252-0.035-7.912
		c0-1.083-0.066-2.175-0.202-3.279c-0.136-1.105-0.067-2.199,0.202-3.28c0.226-0.812,0.62-1.51,1.184-2.097
		c0.564-0.585,1.194-0.991,1.895-1.217c0.698-0.225,1.42-0.247,2.163-0.067c0.744,0.181,1.387,0.654,1.928,1.42
		c0.721,0.902,1.082,1.792,1.082,2.671s0,1.951,0,3.212c0,1.533,0,3.066,0,4.599c0,1.533,0.022,3.043,0.067,4.531
		c0.044,2.163,0.067,4.327,0.067,6.491c0,2.163,0,4.328,0,6.491L424.832,595.933L424.832,595.933z"/>
	<path fill="none" stroke="#000000" stroke-width="2" d="M460.402,594.851c0.36,1.309,0.293,2.391-0.203,3.247
		c-0.497,0.855-1.184,1.43-2.062,1.724c-0.879,0.293-1.837,0.259-2.874-0.102c-1.037-0.361-1.938-1.082-2.704-2.164
		c-1.263,0.947-2.492,1.611-3.686,1.995c-1.195,0.383-2.56,0.597-4.092,0.643c-2.299,0.089-4.351-0.169-6.153-0.777
		c-1.804-0.608-3.326-1.521-4.565-2.739c-1.24-1.218-2.153-2.739-2.739-4.564c-0.586-1.826-0.788-3.934-0.608-6.323
		c0.09-0.991,0.259-1.961,0.508-2.908c0.246-0.946,0.528-1.869,0.845-2.771c0.36-0.991,0.868-2.052,1.521-3.179
		c0.653-1.126,1.318-2.097,1.995-2.908c2.435-2.975,5.478-5.115,9.13-6.424c0.63-0.226,1.487-0.428,2.569-0.609
		c1.082-0.179,2.175-0.258,3.279-0.236c1.104,0.023,2.164,0.169,3.178,0.44c1.015,0.27,1.77,0.743,2.266,1.419
		c0.406,0.542,0.699,1.015,0.88,1.42c0.179,0.406,0.28,0.835,0.304,1.285c0.022,0.451,0.022,0.937,0,1.454
		c-0.023,0.52-0.034,1.161-0.034,1.928c0,1.262-0.012,2.49-0.033,3.685c-0.023,1.195-0.013,2.401,0.033,3.618
		c0,0.405,0,0.936,0,1.589c0,0.654,0.022,1.342,0.068,2.063c0.044,0.721,0.101,1.409,0.168,2.062
		c0.068,0.654,0.169,1.185,0.305,1.59L460.402,594.851z"/>
	<path fill="none" stroke="#000000" stroke-width="2" d="M446.066,591.808c0.495-0.314,1.058-0.665,1.69-1.049
		c0.631-0.382,1.193-0.821,1.69-1.317c-0.405-2.39-0.642-4.778-0.71-7.169c-0.067-2.389-0.057-4.802,0.034-7.235
		c-2.028,0.361-3.854,1.24-5.478,2.638s-2.75,3.043-3.381,4.937c-0.27,0.768-0.497,1.555-0.676,2.366
		c-0.181,0.812-0.248,1.601-0.203,2.366c0.045,1.038,0.315,1.905,0.812,2.604c0.496,0.7,1.093,1.229,1.793,1.591
		c0.698,0.36,1.441,0.563,2.23,0.608C444.656,592.191,445.39,592.079,446.066,591.808z"/>
	<path fill="none" stroke="#000000" stroke-width="2" d="M466.15,576.964c0.044-0.293,0.022-0.822-0.067-1.589
		c-0.722-0.406-1.285-0.924-1.69-1.556c-0.406-0.631-0.643-1.307-0.71-2.028c-0.067-0.721,0.067-1.408,0.405-2.062
		c0.339-0.653,0.89-1.206,1.657-1.656c1.036-0.586,2.174-0.699,3.415-0.339c1.239,0.361,2.31,0.902,3.212,1.622
		c1.126-0.855,2.3-1.577,3.517-2.163s2.457-0.98,3.72-1.184c1.262-0.203,2.546-0.169,3.854,0.102c1.308,0.27,2.592,0.834,3.855,1.69
		c0.63,0.405,1.217,0.913,1.758,1.521s0.879,1.297,1.015,2.062c0.225,1.128,0.135,2.107-0.271,2.941
		c-0.406,0.835-0.97,1.443-1.691,1.826c-0.722,0.384-1.533,0.497-2.435,0.338c-0.902-0.157-1.758-0.643-2.569-1.454
		c-0.271-0.18-0.463-0.326-0.574-0.439c-0.114-0.112-0.35-0.259-0.711-0.439c-0.721-0.18-1.431-0.136-2.129,0.135
		c-0.7,0.271-1.376,0.644-2.028,1.116c-0.654,0.474-1.263,0.992-1.826,1.556c-0.564,0.563-1.071,1.07-1.521,1.521v17.244
		c0,0.676-0.135,1.33-0.405,1.961c-0.406,1.036-1.049,1.758-1.928,2.163c-0.879,0.406-1.758,0.519-2.638,0.339
		c-0.879-0.181-1.646-0.632-2.299-1.353c-0.653-0.722-0.98-1.645-0.98-2.772v-18.934
		C466.083,577.314,466.104,577.259,466.15,576.964z"/>
	<path fill="none" stroke="#000000" stroke-width="2" d="M494.213,557.454c0.18-1.668,0.754-2.896,1.724-3.685
		c0.97-0.788,1.995-1.172,3.077-1.15c1.082,0.023,2.085,0.44,3.01,1.252c0.923,0.812,1.408,1.961,1.454,3.448
		c0.089,1.534-0.306,2.717-1.185,3.551s-1.883,1.308-3.01,1.42c-1.127,0.113-2.187-0.191-3.178-0.913
		c-0.992-0.721-1.601-1.87-1.825-3.449L494.213,557.454z"/>
	<path fill="none" stroke="#000000" stroke-width="2" d="M503.14,595.933c-0.091,0.903-0.406,1.702-0.947,2.402
		c-0.541,0.698-1.161,1.204-1.859,1.52c-0.7,0.316-1.454,0.383-2.266,0.203c-0.812-0.181-1.533-0.676-2.164-1.487
		c-0.361-0.451-0.62-0.957-0.777-1.521c-0.159-0.563-0.261-1.149-0.305-1.758c-0.046-0.609-0.058-1.218-0.034-1.826
		c0.022-0.608,0.034-1.16,0.034-1.656c-0.046-2.66-0.058-5.297-0.034-7.912c0.022-2.614,0.011-5.252-0.034-7.912
		c0-1.083-0.067-2.175-0.202-3.279c-0.136-1.105-0.067-2.199,0.202-3.28c0.226-0.812,0.619-1.51,1.184-2.097
		c0.563-0.585,1.194-0.991,1.895-1.217c0.698-0.225,1.42-0.247,2.163-0.067c0.744,0.181,1.387,0.654,1.927,1.42
		c0.722,0.902,1.083,1.792,1.083,2.671s0,1.951,0,3.212c0,1.533,0,3.066,0,4.599c0,1.533,0.022,3.043,0.067,4.531
		c0.044,2.163,0.067,4.327,0.067,6.491c0,2.163,0,4.328,0,6.491L503.14,595.933L503.14,595.933z"/>
	<path fill="none" stroke="#000000" stroke-width="2" d="M509.021,593.296c-0.27-0.767-0.384-1.521-0.338-2.266
		c0.045-0.744,0.236-1.42,0.574-2.028c0.339-0.608,0.823-1.082,1.454-1.42c0.631-0.339,1.396-0.462,2.3-0.372
		c0.495,0.046,0.946,0.181,1.353,0.406c0.405,0.227,0.777,0.497,1.115,0.812c0.339,0.316,0.676,0.653,1.015,1.014
		c0.338,0.361,0.687,0.677,1.048,0.947c0.767,0.587,1.577,1.015,2.435,1.285c0.855,0.27,1.759,0.473,2.705,0.608
		c0.631,0,1.138-0.157,1.521-0.474c0.383-0.314,0.643-0.698,0.777-1.149c0.137-0.449,0.17-0.935,0.103-1.454
		c-0.067-0.518-0.237-0.935-0.508-1.251c-0.767-0.766-1.702-1.262-2.806-1.487c-1.106-0.226-2.13-0.496-3.077-0.812
		c-1.353-0.45-2.683-1.026-3.99-1.725c-1.309-0.698-2.367-1.657-3.178-2.873c-0.856-1.263-1.364-2.604-1.521-4.024
		c-0.158-1.42-0.045-2.806,0.339-4.159c0.382-1.352,1.024-2.591,1.926-3.719c0.901-1.127,1.983-2.051,3.246-2.772
		c0.947-0.541,1.983-0.89,3.111-1.049c1.127-0.157,2.266-0.19,3.415-0.102c1.149,0.091,2.287,0.305,3.415,0.644
		c1.126,0.338,2.164,0.71,3.11,1.115c1.083,0.497,1.894,1.195,2.436,2.097c0.541,0.902,0.8,1.815,0.777,2.738
		c-0.023,0.926-0.338,1.725-0.946,2.401c-0.609,0.676-1.5,1.014-2.672,1.014c-0.722,0-1.376-0.123-1.961-0.371
		c-0.586-0.247-1.195-0.484-1.825-0.71c-0.812-0.314-1.691-0.529-2.638-0.643c-0.947-0.112-1.714-0.056-2.3,0.169
		c-0.18,0.045-0.384,0.192-0.608,0.439c-0.226,0.248-0.395,0.553-0.507,0.913c-0.113,0.361-0.136,0.722-0.067,1.082
		c0.068,0.361,0.305,0.654,0.71,0.879c1.082,0.587,2.231,1.037,3.449,1.354c1.217,0.315,2.411,0.676,3.584,1.082
		c1.171,0.405,2.265,0.925,3.279,1.555c1.015,0.633,1.859,1.534,2.536,2.705c0.991,1.715,1.498,3.506,1.521,5.377
		c0.021,1.87-0.35,3.617-1.116,5.239c-0.767,1.623-1.894,3.01-3.381,4.16c-1.487,1.148-3.224,1.836-5.207,2.062
		c-1.397,0.136-2.772,0.057-4.125-0.236c-1.353-0.294-2.66-0.768-3.922-1.42c-1.263-0.654-2.435-1.431-3.517-2.333
		c-1.082-0.901-2.028-1.849-2.84-2.841L509.021,593.296z"/>
	<path fill="none" stroke="#000000" stroke-width="2" d="M170.366,656.609c0.473,0.912,0.642,1.833,0.507,2.764
		c-0.136,0.93-0.744,1.615-1.826,2.055c-1.015,0.371-1.987,0.27-2.917-0.305c-0.931-0.575-1.767-1.354-2.511-2.333
		c-0.744-0.982-1.387-2.012-1.927-3.094c-0.541-1.083-0.947-1.962-1.217-2.638c-1.724-3.99-2.655-8.141-2.79-12.451
		c-0.136-4.312,0.422-8.512,1.673-12.604c0.305-1.049,0.71-2.037,1.217-2.969c0.507-0.929,1.014-1.867,1.521-2.813
		c0.304-0.542,0.685-1.218,1.141-2.029c0.457-0.812,0.989-1.539,1.598-2.181c0.608-0.642,1.275-1.098,2.003-1.369
		c0.727-0.27,1.513-0.152,2.358,0.354c0.812,0.507,1.25,1.108,1.319,1.8c0.067,0.695-0.059,1.405-0.38,2.132
		c-0.322,0.727-0.728,1.428-1.217,2.104c-0.49,0.678-0.888,1.252-1.192,1.725c-0.44,0.778-0.803,1.438-1.09,1.979
		c-0.288,0.541-0.524,0.998-0.71,1.369c-0.186,0.372-0.33,0.701-0.432,0.988c-0.102,0.288-0.186,0.567-0.254,0.837
		c-0.507,1.758-0.879,3.644-1.116,5.654c-0.237,2.012-0.305,4.032-0.203,6.062c0.102,2.028,0.406,4.016,0.913,5.959
		c0.507,1.944,1.25,3.728,2.231,5.351c0.168,0.304,0.388,0.616,0.659,0.938c0.27,0.32,0.515,0.608,0.736,0.862
		c0.219,0.253,0.397,0.456,0.532,0.607c0.135,0.152,0.169,0.195,0.102,0.127L170.366,656.609z"/>
	<path fill="none" stroke="#000000" stroke-width="2" d="M195.877,648.849c0.575,0.982,0.769,1.86,0.583,2.638
		c-0.186,0.777-0.566,1.361-1.141,1.75c-0.575,0.388-1.277,0.54-2.105,0.456c-0.829-0.085-1.631-0.517-2.409-1.293
		c-0.812,0.574-1.657,1.021-2.536,1.343c-0.88,0.321-1.81,0.601-2.79,0.837c-1.521,0.339-2.984,0.313-4.387-0.075
		c-1.403-0.39-2.646-1.023-3.728-1.901c-1.083-0.88-1.961-1.97-2.637-3.271c-0.677-1.302-1.048-2.714-1.116-4.235
		c-0.102-1.69,0.025-3.313,0.38-4.868c0.355-1.556,0.92-2.976,1.699-4.262c0.778-1.284,1.8-2.384,3.068-3.297
		c1.268-0.912,2.765-1.554,4.488-1.927c1.015-0.203,2.037-0.305,3.069-0.305c1.031,0,2.054,0.085,3.068,0.254
		c-0.034-0.743-0.059-1.598-0.076-2.561c-0.018-0.964-0.026-1.902-0.026-2.815c0-0.914,0.034-1.732,0.102-2.461
		c0.067-0.727,0.152-1.242,0.253-1.546c0.236-0.608,0.6-1.073,1.09-1.395c0.49-0.321,1.006-0.49,1.547-0.507
		c0.541-0.017,1.073,0.118,1.597,0.405c0.524,0.288,0.938,0.718,1.243,1.293c0.067,0.169,0.152,0.33,0.253,0.481
		c0.102,0.151,0.152,0.313,0.152,0.481c0.034,4.43,0.042,8.809,0.025,13.137c-0.017,4.328-0.025,8.707-0.025,13.136
		C195.657,648.544,195.776,648.715,195.877,648.849z"/>
	<path fill="none" stroke="#000000" stroke-width="2" d="M188.828,646.06c0.067-0.102,0.194-0.203,0.381-0.305
		c0.186-0.101,0.279-0.235,0.279-0.405c0-1.42,0-2.815,0-4.185s-0.017-2.764-0.051-4.184c-0.812-0.169-1.657-0.271-2.536-0.305
		c-0.879-0.033-1.733,0.051-2.561,0.254c-0.829,0.202-1.59,0.541-2.282,1.014c-0.693,0.475-1.243,1.15-1.648,2.028
		c-0.203,0.644-0.389,1.286-0.558,1.928c-0.17,0.642-0.263,1.269-0.279,1.876c-0.017,0.608,0.059,1.209,0.229,1.8
		c0.168,0.592,0.457,1.159,0.862,1.699c0.134,0.136,0.295,0.271,0.482,0.406c0.186,0.135,0.549,0.371,1.091,0.71
		c1.25,0.102,2.442-0.017,3.575-0.355C186.942,647.699,187.948,647.041,188.828,646.06z"/>
	<path fill="none" stroke="#000000" stroke-width="2" d="M200.492,640.785c0.236-0.98,0.566-1.944,0.989-2.891
		c0.422-0.947,0.938-1.852,1.546-2.714c0.609-0.863,1.293-1.648,2.054-2.358c0.76-0.711,1.58-1.285,2.46-1.725
		c1.555-0.812,3.12-1.226,4.691-1.243c1.572-0.017,3.035,0.296,4.387,0.938c1.352,0.643,2.501,1.598,3.449,2.866
		c0.946,1.267,1.572,2.781,1.876,4.538c0.168,1.15,0.262,2.241,0.279,3.272c0.017,1.031-0.094,2.104-0.33,3.22
		c-0.338,1.591-1.023,3.171-2.054,4.743c-1.032,1.572-2.266,2.891-3.703,3.956c-1.438,1.064-3.01,1.767-4.717,2.104
		c-1.708,0.338-3.423,0.067-5.148-0.812c-0.778-0.372-1.479-0.803-2.104-1.293c-0.626-0.489-1.192-1.072-1.699-1.75
		c-0.575-0.742-1.022-1.521-1.344-2.332c-0.322-0.812-0.583-1.657-0.787-2.537c-0.237-0.945-0.322-1.901-0.254-2.865
		c0.067-0.964,0.186-1.901,0.355-2.815L200.492,640.785z"/>
	<path fill="none" stroke="#000000" stroke-width="2" d="M206.578,641.85c-0.102,0.542-0.186,1.074-0.254,1.598
		c-0.068,0.524-0.068,1.058,0,1.597c0.102,0.779,0.312,1.49,0.634,2.131c0.321,0.643,0.744,1.15,1.268,1.521
		c0.524,0.373,1.124,0.568,1.801,0.583c0.675,0.019,1.403-0.193,2.181-0.633c0.98-0.575,1.826-1.462,2.536-2.664
		c0.709-1.198,1.148-2.45,1.318-3.752c0.169-1.302,0.034-2.536-0.406-3.703c-0.44-1.166-1.302-2.003-2.587-2.511
		c-0.846,0-1.623,0.161-2.333,0.482c-0.709,0.321-1.327,0.743-1.851,1.268c-0.524,0.524-0.981,1.141-1.37,1.851
		C207.128,640.328,206.814,641.072,206.578,641.85z"/>
	<path fill="none" stroke="#000000" stroke-width="2" d="M238.479,638.401v-0.71c-0.304-0.777-0.794-1.327-1.471-1.648
		s-1.403-0.516-2.181-0.583c-0.439,0.135-0.795,0.288-1.065,0.456c-0.271,0.17-0.507,0.355-0.71,0.559
		c-0.203,0.202-0.389,0.43-0.558,0.684c-0.169,0.254-0.372,0.517-0.609,0.786v13.288c0,1.049-0.313,1.869-0.938,2.461
		c-0.626,0.592-1.318,0.93-2.079,1.015c-0.761,0.084-1.463-0.102-2.105-0.559c-0.643-0.456-0.981-1.227-1.014-2.308
		c-0.068-2.604-0.094-5.562-0.077-8.875c0.017-3.313,0.026-7.017,0.026-11.108c0-0.71,0.21-1.3,0.634-1.774
		c0.422-0.472,0.93-0.794,1.521-0.963c0.591-0.169,1.2-0.161,1.826,0.024c0.625,0.187,1.141,0.567,1.547,1.142
		c1.893-0.947,3.779-1.243,5.655-0.887c1.876,0.354,3.576,1.241,5.097,2.662c0.676-0.676,1.403-1.285,2.181-1.825
		c0.777-0.541,1.623-0.896,2.536-1.064c1.048-0.17,2.104-0.128,3.169,0.126c1.065,0.254,2.054,0.669,2.967,1.242
		c0.914,0.576,1.716,1.286,2.41,2.13c0.693,0.847,1.208,1.758,1.547,2.74c0.168,0.676,0.253,1.285,0.253,1.824v13.796
		c0,0.406-0.051,0.795-0.153,1.166c-0.304,0.879-0.786,1.496-1.445,1.852c-0.659,0.354-1.336,0.481-2.029,0.38
		c-0.693-0.102-1.293-0.423-1.8-0.964s-0.761-1.268-0.761-2.181v-13.643c-0.304-0.812-0.745-1.403-1.319-1.775
		c-0.576-0.37-1.167-0.541-1.775-0.507c-0.609,0.035-1.192,0.253-1.75,0.66c-0.558,0.404-1.006,0.963-1.344,1.673v13.288
		c0,0.913-0.296,1.674-0.887,2.282c-0.592,0.608-1.243,0.997-1.953,1.167c-0.71,0.168-1.378,0.102-2.003-0.203
		c-0.626-0.304-0.989-0.912-1.091-1.825L238.479,638.401z"/>
	<path fill="none" stroke="#000000" stroke-width="2" d="M280.423,646.111c0.812-0.203,1.529-0.212,2.155-0.026
		c0.625,0.187,1.107,0.499,1.446,0.938c0.338,0.44,0.489,0.982,0.457,1.623c-0.034,0.644-0.322,1.318-0.862,2.028
		c-0.439,0.576-1.048,1.065-1.826,1.472c-0.778,0.405-1.505,0.727-2.181,0.963c-1.657,0.608-3.229,1.032-4.717,1.269
		c-1.488,0.235-2.883,0.235-4.184,0c-1.302-0.237-2.52-0.729-3.652-1.472c-1.133-0.743-2.189-1.792-3.17-3.144
		c-0.677-0.913-1.175-1.953-1.497-3.12c-0.322-1.167-0.5-2.358-0.532-3.575c-0.034-1.218,0.067-2.417,0.304-3.602
		c0.236-1.184,0.575-2.249,1.015-3.195c0.574-1.184,1.487-2.266,2.739-3.247c1.25-0.98,2.637-1.757,4.158-2.333
		c1.521-0.574,3.077-0.903,4.667-0.988c1.589-0.084,2.992,0.162,4.209,0.735c1.014,0.474,1.884,1.159,2.612,2.055
		c0.727,0.896,1.226,1.868,1.496,2.916c0.271,1.049,0.295,2.104,0.076,3.171c-0.22,1.064-0.769,2.036-1.648,2.915
		c-0.846,0.847-1.775,1.531-2.79,2.055c-1.014,0.524-2.063,0.981-3.145,1.368c-1.083,0.39-2.189,0.72-3.322,0.99
		c-1.133,0.271-2.223,0.574-3.271,0.913c0.71,0.81,1.521,1.326,2.435,1.546s1.868,0.262,2.865,0.127
		c0.997-0.136,2.003-0.414,3.018-0.837c1.014-0.423,1.961-0.888,2.84-1.395L280.423,646.111z"/>
	<path fill="none" stroke="#000000" stroke-width="2" d="M270.178,637.387c-0.778,0.439-1.353,0.989-1.725,1.647
		c-0.372,0.66-0.643,1.582-0.812,2.766c0.879-0.271,1.868-0.559,2.967-0.862c1.098-0.305,2.138-0.626,3.119-0.965
		c0.98-0.337,1.809-0.709,2.485-1.114c0.676-0.406,1.014-0.846,1.014-1.318c0-0.271-0.043-0.533-0.127-0.786
		c-0.085-0.254-0.262-0.432-0.532-0.533c-0.947-0.338-1.927-0.405-2.942-0.202c-1.015,0.202-1.86,0.49-2.536,0.861L270.178,637.387z
		"/>
	<path fill="none" stroke="#000000" stroke-width="2" d="M287.117,649.508c-0.203-0.574-0.288-1.14-0.253-1.698
		c0.033-0.558,0.178-1.064,0.431-1.521c0.254-0.456,0.616-0.812,1.09-1.064c0.473-0.254,1.048-0.347,1.725-0.278
		c0.372,0.033,0.71,0.135,1.014,0.304c0.305,0.169,0.583,0.372,0.837,0.608c0.253,0.237,0.507,0.491,0.761,0.761
		c0.253,0.271,0.515,0.507,0.786,0.71c0.575,0.44,1.184,0.76,1.826,0.963s1.319,0.355,2.029,0.457c0.473,0,0.854-0.118,1.141-0.355
		c0.287-0.236,0.482-0.522,0.583-0.861s0.126-0.701,0.077-1.091c-0.051-0.389-0.178-0.701-0.381-0.938
		c-0.575-0.574-1.277-0.945-2.104-1.115c-0.829-0.168-1.598-0.371-2.308-0.608c-1.015-0.338-2.012-0.769-2.993-1.293
		c-0.981-0.524-1.775-1.243-2.384-2.156c-0.643-0.945-1.023-1.951-1.141-3.017c-0.119-1.065-0.034-2.105,0.254-3.12
		c0.287-1.014,0.769-1.944,1.445-2.789c0.676-0.846,1.488-1.539,2.435-2.08c0.71-0.406,1.487-0.667,2.333-0.786
		c0.845-0.118,1.699-0.144,2.562-0.075s1.715,0.228,2.561,0.481c0.845,0.254,1.623,0.532,2.333,0.837
		c0.812,0.371,1.42,0.896,1.826,1.571c0.406,0.677,0.6,1.362,0.583,2.055c-0.017,0.693-0.253,1.293-0.71,1.8s-1.124,0.76-2.003,0.76
		c-0.541,0-1.032-0.092-1.471-0.278c-0.44-0.186-0.896-0.363-1.37-0.533c-0.608-0.235-1.268-0.396-1.978-0.481
		c-0.71-0.084-1.285-0.041-1.724,0.127c-0.136,0.035-0.288,0.145-0.457,0.33c-0.169,0.187-0.296,0.415-0.38,0.685
		c-0.085,0.271-0.102,0.542-0.051,0.812c0.051,0.271,0.228,0.49,0.533,0.66c0.812,0.438,1.673,0.777,2.587,1.013
		c0.913,0.237,1.809,0.507,2.688,0.812c0.879,0.305,1.699,0.693,2.459,1.167c0.761,0.473,1.395,1.149,1.902,2.028
		c0.744,1.286,1.124,2.63,1.141,4.031c0.017,1.405-0.262,2.714-0.837,3.932c-0.575,1.217-1.42,2.257-2.536,3.119
		c-1.116,0.862-2.418,1.378-3.905,1.546c-1.048,0.102-2.08,0.043-3.094-0.177c-1.014-0.22-1.995-0.574-2.942-1.064
		s-1.826-1.073-2.637-1.75c-0.812-0.676-1.521-1.386-2.13-2.13L287.117,649.508z"/>
	<path fill="none" stroke="#000000" stroke-width="2" d="M310.753,636.018c-0.677-0.168-1.261-0.456-1.75-0.862
		c-0.49-0.405-0.829-0.879-1.015-1.42s-0.186-1.099,0-1.674c0.186-0.574,0.6-1.099,1.243-1.571c0.54-0.406,1.148-0.608,1.825-0.608
		c0.676,0,1.336,0,1.978,0c0-0.237-0.017-0.753-0.05-1.548c-0.035-0.794-0.043-1.664-0.026-2.612
		c0.017-0.945,0.076-1.85,0.178-2.713c0.102-0.862,0.287-1.462,0.559-1.8c0.676-0.947,1.512-1.396,2.51-1.345
		c0.997,0.051,1.818,0.533,2.461,1.446c0.135,0.169,0.261,0.371,0.38,0.608c0.118,0.236,0.178,0.456,0.178,0.659
		c0.033,1.217,0.042,2.434,0.025,3.652c-0.018,1.216-0.025,2.434-0.025,3.651h4.006c0.609,0,1.133,0.202,1.572,0.608
		c0.439,0.405,0.753,0.88,0.938,1.42c0.186,0.541,0.236,1.099,0.152,1.673c-0.085,0.575-0.347,1.049-0.786,1.42
		c-0.778,0.644-1.683,0.981-2.714,1.015c-1.031,0.034-2.088,0.051-3.17,0.051c0,1.859-0.009,3.72-0.025,5.579
		c-0.017,1.86-0.009,3.72,0.025,5.578c0,0.812,0.042,1.641,0.127,2.485c0.084,0.847,0.025,1.657-0.178,2.436
		c-0.169,0.608-0.456,1.09-0.861,1.445c-0.406,0.354-0.862,0.574-1.369,0.659c-0.508,0.084-1.033,0.05-1.572-0.102
		c-0.542-0.151-1.049-0.432-1.521-0.837c-0.237-0.237-0.415-0.642-0.532-1.218c-0.119-0.573-0.195-1.182-0.229-1.825
		c-0.034-0.743-0.034-1.538,0-2.383c0-0.677,0-1.556,0-2.639c0-1.082-0.01-2.206-0.026-3.372c-0.016-1.167-0.024-2.274-0.024-3.323
		c0-1.047,0-1.876,0-2.485L310.753,636.018z"/>
	<path fill="none" stroke="#000000" stroke-width="2" d="M329.365,622.628c0.136-1.25,0.566-2.172,1.293-2.765
		c0.728-0.591,1.497-0.879,2.309-0.862c0.811,0.018,1.563,0.33,2.257,0.938c0.692,0.608,1.057,1.471,1.09,2.587
		c0.067,1.149-0.228,2.038-0.888,2.663c-0.659,0.625-1.412,0.981-2.257,1.065c-0.846,0.085-1.641-0.144-2.384-0.686
		c-0.744-0.54-1.2-1.403-1.369-2.587L329.365,622.628z"/>
	<path fill="none" stroke="#000000" stroke-width="2" d="M336.061,651.486c-0.068,0.676-0.305,1.276-0.71,1.8
		c-0.406,0.524-0.871,0.905-1.396,1.142c-0.523,0.236-1.09,0.287-1.698,0.151c-0.608-0.135-1.149-0.507-1.623-1.115
		c-0.271-0.338-0.465-0.719-0.583-1.142c-0.118-0.421-0.194-0.861-0.229-1.317c-0.034-0.457-0.042-0.913-0.024-1.37
		c0.017-0.455,0.024-0.87,0.024-1.242c-0.034-1.994-0.042-3.973-0.024-5.934c0.017-1.961,0.008-3.939-0.026-5.934
		c0-0.812-0.051-1.631-0.151-2.461c-0.102-0.828-0.051-1.647,0.151-2.46c0.169-0.608,0.465-1.132,0.888-1.571
		s0.896-0.744,1.42-0.913c0.524-0.169,1.065-0.186,1.623-0.051c0.559,0.136,1.04,0.49,1.445,1.065
		c0.541,0.676,0.812,1.343,0.812,2.003c0,0.658,0,1.463,0,2.409c0,1.149,0,2.3,0,3.449c0,1.15,0.017,2.282,0.051,3.397
		c0.033,1.623,0.051,3.247,0.051,4.87s0,3.245,0,4.868V651.486L336.061,651.486z"/>
	<path fill="none" stroke="#000000" stroke-width="2" d="M354.369,646.566c0.846-0.541,1.648-0.777,2.41-0.71
		c0.76,0.067,1.386,0.33,1.876,0.786c0.49,0.457,0.761,1.065,0.812,1.826s-0.212,1.563-0.786,2.409
		c-0.372,0.574-0.905,1.1-1.598,1.571c-0.693,0.474-1.361,0.846-2.003,1.116c-1.488,0.676-2.992,0.98-4.514,0.913
		s-2.934-0.439-4.235-1.116c-1.302-0.676-2.427-1.613-3.373-2.815c-0.946-1.199-1.589-2.593-1.927-4.184
		c-0.677-3.043-0.541-5.968,0.406-8.774c0.37-1.015,0.819-1.995,1.343-2.942c0.524-0.945,1.159-1.808,1.902-2.587
		c0.743-0.776,1.571-1.462,2.485-2.053c0.912-0.592,1.91-0.989,2.992-1.191c0.744-0.136,1.69-0.128,2.841,0.024
		c1.149,0.152,2.273,0.448,3.373,0.887c1.099,0.44,2.062,1.016,2.892,1.725c0.828,0.71,1.293,1.556,1.394,2.537
		c0.067,0.541,0,1.039-0.202,1.495c-0.203,0.457-0.491,0.837-0.862,1.142c-0.372,0.305-0.803,0.517-1.293,0.633
		c-0.491,0.12-0.989,0.11-1.496-0.024c-0.608-0.169-1.091-0.396-1.445-0.685c-0.355-0.287-0.82-0.668-1.395-1.141
		c-0.271-0.068-0.524-0.178-0.761-0.33c-0.237-0.152-0.49-0.212-0.761-0.178l-1.369,0.153c-0.237,0.135-0.456,0.253-0.659,0.354
		c-0.203,0.101-0.406,0.202-0.608,0.304c-1.15,1.149-1.996,2.427-2.536,3.83c-0.542,1.403-0.677,2.915-0.406,4.538
		c0.169,1.049,0.499,1.911,0.989,2.587c0.489,0.677,1.065,1.142,1.725,1.395c0.659,0.254,1.386,0.279,2.18,0.077
		c0.795-0.203,1.581-0.66,2.359-1.37L354.369,646.566z"/>
	<path fill="none" stroke="#000000" stroke-width="2" d="M405.341,648.849c0.574,0.982,0.769,1.86,0.583,2.638
		c-0.187,0.777-0.566,1.361-1.141,1.75c-0.575,0.388-1.277,0.54-2.104,0.456c-0.829-0.085-1.632-0.517-2.409-1.293
		c-0.812,0.574-1.657,1.021-2.537,1.343c-0.879,0.321-1.809,0.601-2.789,0.837c-1.521,0.339-2.985,0.313-4.388-0.075
		c-1.403-0.39-2.646-1.023-3.728-1.901c-1.083-0.88-1.962-1.97-2.638-3.271c-0.677-1.302-1.049-2.714-1.116-4.235
		c-0.101-1.69,0.026-3.313,0.381-4.868c0.355-1.556,0.921-2.976,1.699-4.262c0.777-1.284,1.8-2.384,3.068-3.297
		c1.268-0.912,2.765-1.554,4.488-1.927c1.015-0.203,2.037-0.305,3.068-0.305s2.055,0.085,3.069,0.254
		c-0.034-0.743-0.06-1.598-0.076-2.561c-0.018-0.964-0.025-1.902-0.025-2.815c0-0.914,0.033-1.732,0.102-2.461
		c0.067-0.727,0.152-1.242,0.254-1.546c0.236-0.608,0.599-1.073,1.09-1.395c0.49-0.321,1.006-0.49,1.547-0.507
		c0.54-0.017,1.073,0.118,1.598,0.405c0.523,0.288,0.938,0.718,1.242,1.293c0.066,0.169,0.151,0.33,0.253,0.481
		s0.152,0.313,0.152,0.481c0.033,4.43,0.042,8.809,0.025,13.137s-0.025,8.707-0.025,13.136
		C405.121,648.544,405.239,648.715,405.341,648.849z"/>
	<path fill="none" stroke="#000000" stroke-width="2" d="M398.291,646.06c0.067-0.102,0.194-0.203,0.381-0.305
		c0.186-0.101,0.278-0.235,0.278-0.405c0-1.42,0-2.815,0-4.185s-0.017-2.764-0.051-4.184c-0.812-0.169-1.656-0.271-2.536-0.305
		c-0.88-0.033-1.732,0.051-2.561,0.254c-0.829,0.202-1.59,0.541-2.282,1.014c-0.693,0.475-1.242,1.15-1.648,2.028
		c-0.203,0.644-0.39,1.286-0.558,1.928c-0.169,0.642-0.263,1.269-0.279,1.876c-0.018,0.608,0.06,1.209,0.229,1.8
		c0.168,0.592,0.456,1.159,0.861,1.699c0.136,0.136,0.296,0.271,0.482,0.406c0.186,0.135,0.549,0.371,1.09,0.71
		c1.251,0.102,2.442-0.017,3.576-0.355C396.406,647.699,397.411,647.041,398.291,646.06z"/>
	<path fill="none" stroke="#000000" stroke-width="2" d="M409.955,640.785c0.236-0.98,0.566-1.944,0.989-2.891
		c0.423-0.947,0.938-1.852,1.547-2.714c0.608-0.863,1.293-1.648,2.054-2.358c0.761-0.711,1.58-1.285,2.46-1.725
		c1.555-0.812,3.12-1.226,4.692-1.243c1.571-0.017,3.034,0.296,4.387,0.938c1.352,0.643,2.502,1.598,3.449,2.866
		c0.945,1.267,1.572,2.781,1.876,4.538c0.168,1.15,0.262,2.241,0.278,3.272s-0.093,2.104-0.329,3.22
		c-0.339,1.591-1.023,3.171-2.054,4.743c-1.032,1.572-2.266,2.891-3.703,3.956c-1.438,1.064-3.01,1.767-4.716,2.104
		c-1.709,0.338-3.424,0.067-5.148-0.812c-0.778-0.372-1.479-0.803-2.104-1.293c-0.626-0.489-1.191-1.072-1.698-1.75
		c-0.575-0.742-1.023-1.521-1.345-2.332s-0.583-1.657-0.785-2.537c-0.237-0.945-0.322-1.901-0.254-2.865
		c0.067-0.964,0.186-1.901,0.354-2.815L409.955,640.785z"/>
	<path fill="none" stroke="#000000" stroke-width="2" d="M416.043,641.85c-0.103,0.542-0.188,1.074-0.255,1.598
		c-0.067,0.524-0.067,1.058,0,1.597c0.102,0.779,0.313,1.49,0.635,2.131c0.32,0.643,0.743,1.15,1.268,1.521
		c0.523,0.373,1.124,0.568,1.8,0.583c0.676,0.019,1.403-0.193,2.181-0.633c0.98-0.575,1.826-1.462,2.536-2.664
		c0.71-1.198,1.149-2.45,1.319-3.752c0.168-1.302,0.033-2.536-0.406-3.703c-0.439-1.166-1.302-2.003-2.587-2.511
		c-0.846,0-1.623,0.161-2.333,0.482s-1.327,0.743-1.851,1.268c-0.524,0.524-0.981,1.141-1.369,1.851
		C416.591,640.328,416.278,641.072,416.043,641.85z"/>
	<path fill="none" stroke="#000000" stroke-width="2" d="M436.379,663.507c-0.575-0.71-0.88-1.445-0.913-2.206
		c-0.034-0.762,0.136-1.413,0.508-1.953c0.371-0.541,0.904-0.913,1.597-1.116c0.693-0.202,1.463-0.101,2.309,0.305
		c0.371,0.271,0.71,0.474,1.014,0.608c0.305,0.136,0.728,0.339,1.269,0.608c0.507,0.237,1.082,0.415,1.724,0.533
		s1.251,0.144,1.825,0.076c1.149-0.067,2.037-0.263,2.664-0.583c0.625-0.322,1.072-0.745,1.343-1.268
		c0.271-0.525,0.432-1.167,0.482-1.929c0.051-0.76,0.076-1.614,0.076-2.561c-1.083,0.372-2.164,0.65-3.246,0.837
		c-1.083,0.186-2.198,0.211-3.348,0.075c-2.231-0.27-4.066-1.064-5.503-2.384c-1.438-1.318-2.485-2.891-3.145-4.717
		c-0.659-1.824-0.931-3.778-0.812-5.857c0.118-2.079,0.6-3.997,1.445-5.757c0.507-1.014,1.199-1.952,2.079-2.813
		c0.88-0.863,1.868-1.573,2.967-2.132c1.099-0.557,2.249-0.92,3.449-1.09c1.2-0.168,2.358-0.066,3.475,0.305
		c0.642,0.237,1.268,0.474,1.876,0.71c0.608,0.237,1.2,0.542,1.775,0.913c0.642-0.574,1.395-0.862,2.257-0.862
		c0.861,0,1.598,0.406,2.206,1.218c0.134,0.202,0.286,0.43,0.456,0.684c0.168,0.255,0.253,0.499,0.253,0.736
		c0.034,3.618,0.042,7.227,0.026,10.828c-0.018,3.601-0.026,7.21-0.026,10.828c0,1.453-0.194,2.805-0.583,4.057
		c-0.389,1.25-0.973,2.358-1.749,3.322c-0.778,0.964-1.742,1.749-2.892,2.358s-2.485,0.997-4.007,1.166
		c-0.777,0.068-1.539,0.102-2.282,0.102c-0.744,0-1.505-0.085-2.282-0.253c-1.083-0.203-2.122-0.542-3.119-1.015
		c-0.998-0.474-1.987-0.997-2.968-1.571L436.379,663.507z"/>
	<path fill="none" stroke="#000000" stroke-width="2" d="M442.363,648.037c1.488,0.71,2.857,0.938,4.108,0.686
		c1.251-0.254,2.519-0.82,3.805-1.7v-8.063c-0.982-0.98-1.937-1.665-2.866-2.055c-0.931-0.389-2.037-0.498-3.322-0.329
		c-0.237,0.136-0.466,0.254-0.685,0.355c-0.22,0.101-0.448,0.202-0.685,0.304c-0.71,0.812-1.251,1.598-1.623,2.358
		c-0.372,0.762-0.592,1.54-0.659,2.333c-0.067,0.795-0.009,1.606,0.178,2.436c0.186,0.828,0.465,1.733,0.837,2.714
		c0.102,0.169,0.253,0.338,0.456,0.507C442.11,647.75,442.263,647.902,442.363,648.037z"/>
	<path fill="none" stroke="#000000" stroke-width="2" d="M462.65,655.949c0.271-0.271,0.516-0.515,0.735-0.734
		s0.439-0.44,0.659-0.66s0.432-0.465,0.634-0.735c0.203-0.271,0.422-0.592,0.659-0.963c0.981-1.589,1.725-3.398,2.231-5.427
		c0.507-2.029,0.812-4.117,0.913-6.265c0.102-2.146,0.017-4.26-0.254-6.338c-0.271-2.08-0.728-3.981-1.369-5.706
		c-0.44-1.184-0.989-2.299-1.648-3.348c-0.659-1.048-1.327-2.079-2.003-3.095c-0.304-0.438-0.601-0.87-0.888-1.293
		c-0.287-0.422-0.447-0.921-0.481-1.495c-0.034-0.88,0.178-1.605,0.634-2.182c0.456-0.574,1.006-0.938,1.648-1.09
		c0.643-0.151,1.301-0.093,1.978,0.177c0.676,0.271,1.218,0.795,1.623,1.573c0.743,1.048,1.453,2.113,2.13,3.195
		c0.676,1.083,1.301,2.18,1.876,3.297c0.946,1.825,1.665,3.804,2.155,5.934c0.49,2.129,0.777,4.312,0.862,6.542
		c0.084,2.231-0.025,4.438-0.329,6.618c-0.305,2.182-0.761,4.219-1.37,6.112c-0.541,1.623-1.191,3.253-1.952,4.895
		c-0.761,1.639-1.733,3.085-2.916,4.337c-0.508,0.54-1.083,1.047-1.725,1.52c-0.643,0.474-1.353,0.711-2.13,0.711
		c-0.71,0-1.293-0.152-1.75-0.456c-0.456-0.305-0.777-0.693-0.963-1.167c-0.187-0.474-0.245-0.989-0.178-1.546
		c0.067-0.559,0.236-1.108,0.508-1.648L462.65,655.949z"/>
	<path fill="none" stroke="#000000" stroke-width="2" d="M198.792,308.155c3.603-3.603,7.718-5.689,12.341-6.255
		c4.618-0.56,8.844,0.058,12.68,1.86c3.83,1.807,6.815,4.681,8.96,8.622c2.14,3.947,2.647,8.622,1.521,14.032
		c-1.353,5.41-3.946,10.429-7.776,15.046c-3.835,4.623-7.666,8.849-11.496,12.679c-8.792,9.246-18.544,16.061-29.248,20.457
		c-10.708,4.396-21.529,6.477-32.46,6.255c-10.936-0.227-21.64-2.821-32.121-7.776c-10.482-4.961-19.896-12.395-28.233-22.316
		C88,344.9,83.831,338.703,80.45,332.162c-3.38-6.535-5.975-13.408-7.776-20.625c-2.705-10.593-3.946-21.64-3.719-33.136
		c0.222-11.497,2.028-22.654,5.41-33.474c3.381-10.819,8.167-21.016,14.37-30.6c6.197-9.578,13.805-17.751,22.823-24.514
		c6.535-4.956,13.128-9.24,19.78-12.849c6.646-3.604,13.694-6.984,21.132-10.144c4.279-1.802,8.675-3.55,13.187-5.241
		c4.506-1.691,9.129-2.985,13.862-3.889c4.734-0.898,9.468-1.236,14.202-1.015c4.733,0.227,9.351,1.242,13.862,3.043
		c3.154,1.353,6.309,3.212,9.468,5.579c3.154,2.367,6.086,5.072,8.791,8.115c2.705,3.043,5.072,6.255,7.101,9.637
		c2.029,3.381,3.492,6.651,4.396,9.806c0.676,2.932,0.845,5.917,0.507,8.96c-0.338,3.043-1.242,5.806-2.705,8.284
		c-1.469,2.483-3.439,4.564-5.917,6.255c-2.483,1.691-5.298,2.763-8.453,3.212c-5.188,0.676-9.188,0.116-12.003-1.691
		c-2.821-1.802-5.072-4.058-6.763-6.763c-1.691-2.705-3.328-5.352-4.903-7.946c-1.58-2.588-3.835-4.449-6.762-5.579
		c-1.807,0-3.159,0.116-4.058,0.337c-7.666,2.029-15.385,4.792-23.161,8.284c-7.777,3.498-14.994,7.724-21.64,12.679
		c-6.651,4.961-12.458,10.709-17.414,17.245c-4.96,6.541-8.569,13.863-10.82,21.978c-2.705,9.695-3.719,19.5-3.043,29.417
		c0.676,9.922,3.38,19.273,8.115,28.064c2.704,5.188,6.308,9.694,10.819,13.525c4.507,3.835,9.468,6.709,14.878,8.622
		c5.41,1.918,10.931,2.594,16.568,2.029c5.632-0.56,11.042-2.536,16.23-5.917c4.506-3.154,8.564-7.042,12.172-11.665
		C192.59,317.57,195.86,312.889,198.792,308.155z"/>
</g>
<path fill="none" stroke="#231F20" stroke-width="2" stroke-miterlimit="10" d="M549.765,489.816
	c0.111-0.128,0.227-0.254,0.336-0.383c0.208-0.246,0.408-0.496,0.609-0.745c0.12-0.148,0.243-0.296,0.361-0.446
	c0.187-0.237,0.365-0.478,0.546-0.718c0.124-0.165,0.25-0.328,0.371-0.494c0.17-0.234,0.333-0.471,0.497-0.707
	c0.121-0.175,0.244-0.349,0.362-0.524c0.155-0.231,0.304-0.465,0.453-0.698c0.118-0.184,0.237-0.367,0.352-0.553
	c0.141-0.228,0.274-0.457,0.409-0.687c0.113-0.193,0.228-0.385,0.337-0.579c0.127-0.226,0.248-0.453,0.37-0.681
	c0.106-0.198,0.214-0.397,0.315-0.597c0.115-0.225,0.225-0.45,0.333-0.677c0.099-0.203,0.198-0.407,0.292-0.611
	c0.103-0.224,0.199-0.447,0.297-0.671c0.09-0.209,0.18-0.417,0.266-0.626c0.09-0.222,0.176-0.443,0.261-0.665
	c0.081-0.213,0.161-0.425,0.237-0.638c0.078-0.219,0.152-0.438,0.226-0.658c0.071-0.216,0.142-0.433,0.208-0.649
	c0.066-0.216,0.129-0.432,0.189-0.648c0.062-0.219,0.12-0.438,0.177-0.656c0.055-0.215,0.106-0.431,0.155-0.646
	c0.05-0.22,0.098-0.439,0.142-0.658c0.044-0.214,0.084-0.426,0.121-0.639c0.039-0.222,0.075-0.442,0.107-0.663
	c0.031-0.21,0.061-0.42,0.086-0.629c0.027-0.223,0.051-0.444,0.071-0.666c0.02-0.207,0.037-0.414,0.052-0.62
	c0.015-0.223,0.024-0.443,0.033-0.665c0.008-0.204,0.014-0.408,0.016-0.612c0.003-0.221-0.001-0.441-0.005-0.661
	c-0.005-0.201-0.01-0.402-0.02-0.603c-0.011-0.221-0.027-0.439-0.046-0.658c-0.016-0.198-0.032-0.396-0.054-0.592
	c-0.024-0.219-0.056-0.437-0.088-0.653c-0.028-0.193-0.056-0.387-0.089-0.578c-0.039-0.218-0.085-0.434-0.131-0.648
	c-0.04-0.189-0.079-0.379-0.125-0.566c-0.053-0.214-0.114-0.427-0.175-0.639c-0.053-0.185-0.103-0.369-0.161-0.552
	c-0.067-0.212-0.145-0.421-0.22-0.631c-0.065-0.18-0.127-0.359-0.197-0.537c-0.083-0.209-0.176-0.415-0.268-0.621
	c-0.076-0.173-0.149-0.348-0.232-0.519c-0.1-0.208-0.21-0.411-0.318-0.614c-0.088-0.166-0.171-0.334-0.265-0.497
	c-0.117-0.205-0.247-0.405-0.373-0.607c-0.099-0.157-0.192-0.317-0.297-0.473c-0.137-0.204-0.286-0.403-0.433-0.603
	c-0.108-0.148-0.21-0.298-0.323-0.443c-0.16-0.205-0.334-0.404-0.505-0.605c-0.114-0.135-0.222-0.271-0.341-0.404
	c-0.197-0.219-0.409-0.432-0.62-0.646c-0.105-0.107-0.204-0.218-0.313-0.324c-0.327-0.316-0.668-0.626-1.025-0.929
	c-0.493-0.211-0.976-0.396-1.453-0.566c-0.067-0.024-0.136-0.05-0.203-0.073c-0.451-0.157-0.895-0.294-1.332-0.416
	c-0.082-0.022-0.164-0.045-0.246-0.066c-0.433-0.115-0.859-0.216-1.279-0.299c-0.068-0.014-0.137-0.025-0.205-0.038
	c-0.435-0.081-0.863-0.15-1.285-0.2c-0.017-0.002-0.033-0.003-0.05-0.005c-0.414-0.047-0.822-0.077-1.225-0.096
	c-0.059-0.002-0.118-0.007-0.177-0.009c-0.391-0.015-0.774-0.014-1.154-0.003c-0.077,0.003-0.154,0.005-0.231,0.008
	c-0.372,0.016-0.739,0.042-1.102,0.08c-0.071,0.007-0.141,0.016-0.212,0.024c-0.369,0.043-0.735,0.094-1.096,0.157
	c-0.037,0.007-0.074,0.015-0.111,0.021c-0.341,0.062-0.676,0.135-1.008,0.214c-0.062,0.015-0.126,0.028-0.188,0.044
	c-0.334,0.083-0.663,0.175-0.99,0.273c-0.084,0.025-0.168,0.051-0.252,0.077c-0.314,0.099-0.626,0.202-0.933,0.312
	c-0.089,0.032-0.177,0.065-0.264,0.098c-0.305,0.113-0.605,0.229-0.904,0.353c-0.08,0.032-0.158,0.067-0.238,0.101
	c-0.244,0.104-0.487,0.21-0.729,0.318c-0.101,0.046-0.201,0.09-0.3,0.136c-0.258,0.119-0.514,0.242-0.768,0.366
	c-0.132,0.064-0.264,0.129-0.395,0.194c-0.224,0.111-0.446,0.225-0.667,0.339c-0.188,0.098-0.375,0.195-0.562,0.294
	c-0.021,0.012-0.041,0.022-0.062,0.033c-5.409,2.871-10.169,6.209-15.984,4.367c-0.01-0.003-0.02-0.006-0.029-0.01
	c-0.369-0.117-0.741-0.255-1.119-0.416c0-0.004,0-0.007,0-0.011c-0.001-1.132-0.041-2.279-0.125-3.441c0-0.006,0-0.011-0.001-0.016
	c-0.039-0.542-0.089-1.087-0.146-1.635c-0.005-0.047-0.008-0.094-0.013-0.141c-0.063-0.59-0.138-1.184-0.224-1.781
	c-5.579-38.836-41.078-54.549-73.729-65.827c-11.779-4.067-20.749-16.181-26.327-27.576c-0.049-0.1-0.103-0.228-0.157-0.369
	c-0.011-0.027-0.021-0.054-0.033-0.083c-0.054-0.143-0.11-0.303-0.17-0.48c-0.013-0.037-0.025-0.077-0.038-0.116
	c-0.061-0.185-0.123-0.382-0.188-0.6c-0.003-0.01-0.006-0.02-0.009-0.03c-0.068-0.229-0.141-0.48-0.214-0.744
	c-0.014-0.048-0.026-0.096-0.04-0.146c-0.073-0.264-0.147-0.542-0.224-0.836c-0.013-0.048-0.025-0.097-0.038-0.146
	c-0.164-0.634-0.336-1.332-0.515-2.088c-0.009-0.038-0.018-0.074-0.026-0.112c-0.092-0.391-0.185-0.794-0.279-1.213
	c-0.002-0.009-0.004-0.019-0.007-0.028c-0.794-3.512-1.679-7.966-2.48-12.636c1.06-0.286,2.084-0.591,3.09-0.905
	c0.165-0.052,0.331-0.103,0.494-0.155c0.988-0.316,1.952-0.646,2.889-0.989c0.106-0.039,0.209-0.08,0.314-0.119
	c0.884-0.33,1.744-0.671,2.583-1.025c0.101-0.042,0.204-0.084,0.305-0.127c0.882-0.377,1.737-0.77,2.569-1.174
	c0.126-0.061,0.25-0.124,0.375-0.186c1.676-0.829,3.251-1.711,4.728-2.645c0.109-0.069,0.219-0.139,0.328-0.208
	c1.479-0.951,2.858-1.955,4.144-3.007c0.072-0.059,0.145-0.117,0.216-0.176c0.64-0.53,1.257-1.072,1.85-1.627
	c0.039-0.037,0.077-0.075,0.117-0.112c0.591-0.558,1.16-1.127,1.706-1.709c0.015-0.016,0.03-0.031,0.045-0.046
	c0.555-0.594,1.083-1.2,1.591-1.817c0.043-0.052,0.084-0.104,0.126-0.155c1.011-1.241,1.93-2.529,2.762-3.861
	c0.028-0.045,0.057-0.09,0.084-0.136c0.844-1.363,1.597-2.771,2.265-4.222c0.004-0.011,0.01-0.021,0.014-0.032
	c0.339-0.736,0.655-1.484,0.949-2.242c4.895,3.804,11.104,5.757,19.031,4.813c23.544-2.802,38.134-27.981,35.846-50.051
	c-2.715-26.166-20.992-49.049-40.78-65.234c-10.348-8.464-29.201-20.662-42.281-10.479c-1.528,1.192-2.533,2.437-3.158,3.724
	c-0.658-0.643-1.335-1.272-2.029-1.889c-0.028-0.025-0.058-0.051-0.086-0.076c-0.66-0.584-1.337-1.156-2.031-1.715
	c-0.068-0.055-0.136-0.11-0.204-0.165c-0.653-0.522-1.324-1.033-2.009-1.534c-0.114-0.083-0.226-0.167-0.34-0.249
	c-0.645-0.464-1.306-0.916-1.979-1.36c-0.161-0.106-0.319-0.215-0.482-0.32c-0.637-0.412-1.291-0.812-1.955-1.205
	c-0.207-0.124-0.408-0.25-0.618-0.372c-0.638-0.369-1.295-0.725-1.957-1.078c-0.246-0.13-0.483-0.266-0.732-0.395
	c-0.673-0.347-1.367-0.68-2.065-1.01c-0.249-0.118-0.488-0.242-0.74-0.357c-0.952-0.437-1.927-0.859-2.928-1.264
	c-10.956-9.202-10.442-20.092-13.138-26.489c-7.561-3.404-11.428,6.972-10.597,13.08c-0.771-5.673-4.287-8.561-9.422-5.786
	c-0.351,0.189-0.677,0.39-0.98,0.601c-0.098,0.067-0.179,0.142-0.271,0.211c-0.197,0.148-0.397,0.293-0.575,0.45
	c-0.101,0.089-0.184,0.186-0.278,0.277c-0.151,0.146-0.308,0.29-0.443,0.442c-0.09,0.101-0.163,0.209-0.246,0.312
	c-0.122,0.152-0.251,0.301-0.359,0.458c-0.082,0.117-0.147,0.241-0.222,0.362c-0.094,0.152-0.194,0.3-0.278,0.457
	c-0.068,0.128-0.123,0.264-0.186,0.396c-0.073,0.154-0.152,0.307-0.217,0.465c-0.057,0.141-0.101,0.287-0.151,0.431
	c-0.055,0.155-0.115,0.309-0.162,0.467c-0.046,0.152-0.079,0.31-0.118,0.464c-0.04,0.156-0.085,0.309-0.118,0.467
	c-0.034,0.161-0.058,0.325-0.085,0.488c-0.027,0.157-0.06,0.311-0.081,0.47c-0.023,0.167-0.037,0.338-0.056,0.507
	c-0.017,0.158-0.038,0.314-0.051,0.474c-0.014,0.174-0.021,0.351-0.029,0.527c-0.009,0.157-0.021,0.313-0.025,0.471
	c-0.006,0.176-0.006,0.355-0.008,0.532c-0.002,0.161-0.007,0.32-0.006,0.481c0,0.176,0.006,0.353,0.009,0.529
	c0.004,0.164,0.005,0.328,0.01,0.492c0.006,0.185,0.015,0.37,0.022,0.555c0.007,0.157,0.012,0.313,0.02,0.469
	c0.01,0.191,0.021,0.381,0.031,0.571c0.009,0.156,0.017,0.312,0.025,0.467c0.009,0.151,0.019,0.301,0.027,0.452
	c0.01,0.17,0.021,0.341,0.03,0.51c-0.723-0.749-1.611-1.469-2.648-1.913c-6.033-2.581-11.115-4.07-17.828-4.054
	c-18.051,0.042-33.07,12.435-43.727,26.472c-16.906,22.265-9.568,38.067-5.747,43.822l-0.001,0
	c-0.559,0.466-1.121,0.912-1.686,1.347c-0.08,0.062-0.16,0.123-0.24,0.184c-1.867,1.425-3.75,2.71-5.575,3.979
	c-0.356,0.247-0.71,0.494-1.06,0.741c-0.175,0.123-0.35,0.247-0.522,0.371c-0.464,0.331-0.924,0.663-1.376,1
	c-0.043,0.032-0.087,0.063-0.13,0.095c-0.48,0.359-0.948,0.726-1.411,1.098c-0.121,0.097-0.241,0.195-0.36,0.293
	c-0.473,0.388-0.938,0.781-1.387,1.189c-4.171,3.792-7.247,8.597-7.76,16.846c-1.254,20.219,11.548,40.052,27.698,51.322
	c0.748,0.522,1.513,1.029,2.282,1.532c1.194,2.562,2.431,5.034,3.698,7.371c0,0,0,0.001,0,0.001s0,0,0,0.001
	c-0.131,0.261-0.258,0.525-0.386,0.789c-0.124,0.255-0.249,0.509-0.37,0.765c-0.128,0.269-0.252,0.539-0.377,0.809
	c-0.119,0.258-0.236,0.517-0.353,0.776c-0.119,0.267-0.237,0.534-0.353,0.801c-0.117,0.272-0.232,0.544-0.346,0.816
	c-0.107,0.258-0.217,0.516-0.321,0.775c-0.141,0.348-0.274,0.697-0.408,1.046c-0.127,0.332-0.25,0.663-0.37,0.994
	c-0.129,0.353-0.256,0.706-0.377,1.059c-0.08,0.237-0.156,0.474-0.232,0.711c-0.099,0.301-0.195,0.602-0.287,0.903
	c-0.074,0.242-0.146,0.483-0.215,0.725c-0.088,0.304-0.172,0.607-0.252,0.91c-0.062,0.231-0.125,0.463-0.182,0.693
	c-0.088,0.351-0.168,0.699-0.245,1.048c-0.04,0.178-0.084,0.357-0.12,0.534c-0.105,0.507-0.199,1.011-0.281,1.513
	c-0.03,0.183-0.053,0.363-0.08,0.545c-0.049,0.339-0.097,0.677-0.135,1.013c-0.023,0.206-0.043,0.409-0.062,0.613
	c-0.029,0.315-0.053,0.628-0.072,0.939c-0.012,0.201-0.023,0.401-0.03,0.6c-0.013,0.333-0.015,0.662-0.014,0.99
	c0.001,0.167-0.003,0.335,0.001,0.5c0.012,0.482,0.037,0.958,0.08,1.428c0.008,0.094,0.024,0.186,0.034,0.28
	c0.04,0.381,0.09,0.758,0.151,1.13c0.028,0.164,0.062,0.324,0.095,0.486c0.06,0.301,0.124,0.6,0.199,0.895
	c0.043,0.168,0.088,0.335,0.136,0.5c0.085,0.294,0.18,0.583,0.281,0.869c0.053,0.148,0.102,0.298,0.159,0.444
	c0.142,0.362,0.298,0.716,0.468,1.064c0.029,0.06,0.053,0.124,0.084,0.184c0.204,0.403,0.432,0.794,0.676,1.177
	c0.074,0.115,0.157,0.225,0.234,0.338c0.184,0.267,0.373,0.53,0.578,0.787c0.104,0.13,0.213,0.257,0.322,0.385
	c0.203,0.236,0.416,0.466,0.639,0.691c0.119,0.12,0.236,0.241,0.36,0.357c0.26,0.245,0.536,0.48,0.821,0.71
	c0.102,0.082,0.196,0.168,0.301,0.249c0.396,0.304,0.816,0.595,1.262,0.872c0.098,0.061,0.205,0.115,0.305,0.175
	c0.357,0.212,0.728,0.418,1.116,0.614c0.17,0.086,0.349,0.166,0.525,0.249c0.345,0.16,0.7,0.315,1.067,0.462
	c0.198,0.079,0.397,0.157,0.602,0.231c0.393,0.144,0.802,0.278,1.22,0.407c0.192,0.059,0.378,0.122,0.576,0.178
	c0.622,0.176,1.265,0.34,1.942,0.482c0.421,0.088,0.812,0.16,1.215,0.237c-0.258,0.678-0.504,1.347-0.739,2.009
	c-0.017,0.049-0.035,0.099-0.053,0.147c-0.469,1.324-0.893,2.62-1.274,3.903c-0.023,0.074-0.045,0.149-0.066,0.223
	c-0.375,1.271-0.71,2.534-1.006,3.801c-0.017,0.075-0.033,0.151-0.051,0.226c-0.134,0.584-0.26,1.17-0.379,1.758
	c-0.011,0.056-0.022,0.111-0.033,0.167c-0.128,0.644-0.246,1.292-0.355,1.947c-0.008,0.045-0.015,0.091-0.021,0.136
	c-0.098,0.593-0.188,1.192-0.271,1.797c-0.014,0.107-0.029,0.214-0.044,0.322c-0.173,1.299-0.313,2.632-0.425,4.013
	c-0.011,0.138-0.021,0.278-0.032,0.417c-0.048,0.633-0.091,1.276-0.126,1.932c-0.004,0.059-0.008,0.116-0.012,0.175
	c-0.037,0.714-0.067,1.444-0.092,2.188c-0.005,0.154-0.009,0.312-0.014,0.468c-0.018,0.62-0.031,1.252-0.04,1.896
	c-0.003,0.16-0.005,0.317-0.007,0.479c-0.008,0.771-0.012,1.559-0.008,2.366c0,0.139,0.002,0.284,0.004,0.425
	c0.004,0.686,0.013,1.387,0.025,2.102c0.004,0.225,0.008,0.451,0.012,0.68c0.018,0.855,0.039,1.724,0.066,2.623
	c0.341,11.091,8.733,43.893,6.061,54.831c-2.855,11.67-22.207,23.225-31.143,29.828c-0.473,0.349-0.916,0.692-1.348,1.033
	c-0.121,0.096-0.238,0.191-0.357,0.287c-0.333,0.269-0.654,0.536-0.963,0.801c-0.088,0.075-0.18,0.151-0.266,0.227
	c-0.377,0.329-0.735,0.653-1.074,0.975c-0.072,0.069-0.14,0.138-0.211,0.206c-0.268,0.26-0.523,0.516-0.768,0.771
	c-0.086,0.089-0.171,0.178-0.254,0.267c-0.273,0.294-0.535,0.586-0.777,0.873c-0.016,0.019-0.033,0.038-0.049,0.057
	c-0.256,0.306-0.488,0.606-0.708,0.904c-0.06,0.082-0.116,0.162-0.174,0.243c-0.165,0.233-0.32,0.464-0.465,0.692
	c-0.044,0.07-0.092,0.142-0.134,0.212c-0.174,0.286-0.333,0.569-0.474,0.849c-0.026,0.052-0.048,0.103-0.073,0.155
	c-0.112,0.231-0.213,0.461-0.303,0.688c-0.031,0.076-0.061,0.153-0.089,0.229c-0.089,0.242-0.167,0.482-0.231,0.719
	c-0.008,0.029-0.02,0.059-0.026,0.088c-0.068,0.263-0.118,0.521-0.155,0.777c-0.01,0.068-0.017,0.135-0.025,0.203
	c-0.023,0.199-0.037,0.396-0.043,0.591c-0.002,0.063-0.006,0.127-0.006,0.19c0,0.245,0.013,0.486,0.041,0.725
	c0.004,0.038,0.013,0.075,0.018,0.113c0.027,0.203,0.066,0.402,0.113,0.6c0.017,0.066,0.033,0.132,0.051,0.197
	c0.055,0.196,0.117,0.39,0.19,0.581c0.013,0.034,0.023,0.07,0.038,0.104c0.089,0.222,0.192,0.438,0.307,0.652
	c0.029,0.057,0.062,0.111,0.094,0.168c0.095,0.165,0.195,0.329,0.305,0.491c0.037,0.056,0.074,0.112,0.113,0.168
	c0.145,0.204,0.298,0.405,0.465,0.603c0.022,0.026,0.048,0.053,0.07,0.079c0.15,0.173,0.31,0.342,0.476,0.51
	c0.056,0.056,0.112,0.111,0.171,0.167c0.16,0.154,0.327,0.307,0.501,0.456c0.042,0.036,0.082,0.073,0.125,0.109
	c0.216,0.181,0.44,0.356,0.675,0.53c0.062,0.046,0.127,0.091,0.191,0.136c0.186,0.134,0.378,0.266,0.575,0.396
	c0.073,0.048,0.146,0.096,0.221,0.144c0.259,0.164,0.522,0.326,0.799,0.483c0.03,0.018,0.063,0.034,0.094,0.052
	c0.251,0.142,0.51,0.28,0.774,0.416c0.09,0.047,0.18,0.093,0.271,0.138c0.235,0.118,0.476,0.233,0.721,0.348
	c0.072,0.033,0.143,0.068,0.217,0.102c0.309,0.141,0.627,0.277,0.95,0.412c0.088,0.036,0.178,0.071,0.267,0.107
	c0.253,0.102,0.51,0.202,0.77,0.301c0.105,0.04,0.211,0.079,0.317,0.119c0.331,0.121,0.666,0.24,1.009,0.356
	c0.037,0.013,0.075,0.025,0.113,0.038c0.334,0.111,0.674,0.22,1.018,0.325c0.115,0.036,0.232,0.071,0.35,0.106
	c0.283,0.085,0.569,0.168,0.857,0.25c0.102,0.028,0.201,0.057,0.303,0.085c0.375,0.103,0.754,0.203,1.137,0.3
	c0.105,0.026,0.213,0.052,0.318,0.078c0.296,0.072,0.594,0.144,0.894,0.213c0.132,0.03,0.264,0.061,0.396,0.091
	c0.354,0.079,0.709,0.156,1.068,0.23c0.051,0.011,0.1,0.021,0.15,0.032c0.4,0.081,0.805,0.159,1.21,0.235
	c0.139,0.025,0.278,0.051,0.417,0.076c0.3,0.054,0.602,0.106,0.904,0.157c0.129,0.022,0.257,0.044,0.386,0.065
	c0.407,0.066,0.815,0.13,1.227,0.191c0.118,0.017,0.235,0.033,0.354,0.05c0.316,0.046,0.634,0.09,0.952,0.132
	c0.146,0.019,0.293,0.038,0.439,0.057c0.346,0.044,0.693,0.086,1.041,0.126c0.087,0.01,0.174,0.021,0.261,0.03
	c0.415,0.047,0.832,0.089,1.249,0.13c0.148,0.015,0.297,0.028,0.445,0.042c0.303,0.028,0.604,0.055,0.906,0.08
	c0.143,0.012,0.285,0.024,0.427,0.035c0.416,0.032,0.831,0.063,1.246,0.09c0.108,0.007,0.217,0.013,0.325,0.02
	c0.328,0.021,0.656,0.039,0.983,0.056c0.147,0.008,0.294,0.016,0.44,0.021c0.33,0.016,0.658,0.029,0.985,0.041
	c0.104,0.004,0.208,0.009,0.312,0.012c0.407,0.014,0.812,0.023,1.217,0.031c0.141,0.003,0.281,0.005,0.422,0.007
	c0.295,0.005,0.589,0.008,0.882,0.009c0.137,0.001,0.273,0.002,0.409,0.002c0.392,0,0.781-0.002,1.166-0.007
	c0.002,0.002,0.004,0.004,0.005,0.006c0.052,0.071,0.11,0.151,0.18,0.239c0.016,0.021,0.034,0.042,0.05,0.063
	c0.062,0.078,0.131,0.159,0.207,0.248c0.023,0.028,0.05,0.057,0.074,0.085c0.08,0.09,0.164,0.183,0.258,0.281
	c0.029,0.03,0.06,0.061,0.09,0.092c0.1,0.104,0.207,0.209,0.324,0.32c0.031,0.03,0.063,0.06,0.096,0.09
	c0.125,0.117,0.26,0.237,0.404,0.362c0.031,0.026,0.063,0.053,0.096,0.08c0.155,0.131,0.321,0.265,0.498,0.402
	c0.029,0.022,0.059,0.045,0.088,0.067c0.189,0.145,0.392,0.291,0.605,0.44c0.024,0.017,0.049,0.033,0.073,0.05
	c0.228,0.156,0.468,0.314,0.724,0.474c0.02,0.012,0.037,0.023,0.057,0.035c0.266,0.165,0.549,0.33,0.849,0.497
	c0.013,0.007,0.025,0.014,0.038,0.021c0.31,0.172,0.638,0.343,0.983,0.514c0.005,0.003,0.01,0.005,0.015,0.008
	c0.354,0.175,0.729,0.348,1.122,0.519l0,0c1.98,0.864,4.479,1.676,7.611,2.298c3.46,1.865,9.078,2.5,15.149,2.29
	c0.017-0.001,0.032-0.001,0.048-0.002c0.735-0.026,1.477-0.064,2.222-0.114c0.04-0.003,0.081-0.006,0.121-0.009
	c0.741-0.051,1.484-0.112,2.229-0.186c0.024-0.002,0.049-0.005,0.073-0.008c1.51-0.149,3.02-0.344,4.506-0.577
	c0.034-0.005,0.068-0.01,0.103-0.016c0.705-0.111,1.404-0.233,2.096-0.361c0.08-0.015,0.16-0.029,0.24-0.045
	c0.67-0.126,1.332-0.261,1.983-0.402c0.086-0.019,0.171-0.037,0.257-0.057c0.655-0.145,1.3-0.295,1.93-0.453
	c0.055-0.013,0.107-0.027,0.161-0.041c0.655-0.166,1.297-0.338,1.919-0.518c0.66-0.101,1.303-0.191,1.979-0.302
	c0,0,0.619-0.296,1.567-0.842c0.051-0.028,0.098-0.055,0.149-0.085c0.008-0.003,0.014-0.006,0.021-0.009
	c1.196-0.459,2.27-0.942,3.191-1.445c0.04-0.021,0.079-0.043,0.118-0.064c0.269-0.149,0.525-0.3,0.767-0.452
	c0.026-0.018,0.055-0.034,0.081-0.051c0.265-0.17,0.514-0.341,0.741-0.514c0.012-0.009,0.022-0.019,0.034-0.027
	c0.198-0.153,0.38-0.307,0.547-0.461c0.052-0.047,0.099-0.094,0.147-0.142c0.126-0.123,0.24-0.247,0.346-0.371
	c0.042-0.049,0.085-0.098,0.123-0.146c0.13-0.167,0.247-0.335,0.338-0.504c0.523-0.786,1.064-1.681,1.62-2.669
	c0.002-0.003,0.004-0.007,0.006-0.01c0.002-0.002,0.003-0.005,0.005-0.007c0.741-1.024,1.349-2.129,1.731-3.303
	c0.344-0.695,0.693-1.43,1.045-2.188c0.061-0.129,0.121-0.261,0.181-0.392c0.323-0.701,0.648-1.426,0.977-2.176
	c0.035-0.079,0.069-0.155,0.104-0.235c0.758-1.74,1.528-3.605,2.309-5.585c0.004-0.011,0.008-0.02,0.012-0.03
	c1.047,1.153,2.116,2.311,3.2,3.471c0.018,0.02,0.035,0.038,0.053,0.058c-0.002,0.007-0.003,0.014-0.005,0.021
	c-0.14,0.476-0.258,0.965-0.363,1.463c-0.023,0.11-0.046,0.221-0.068,0.332c-0.1,0.518-0.188,1.043-0.25,1.585
	c-0.043,0.38-0.049,0.746-0.037,1.106c0.003,0.103,0.012,0.202,0.019,0.303c0.021,0.281,0.06,0.556,0.113,0.825
	c0.016,0.079,0.026,0.16,0.045,0.238c0.08,0.335,0.185,0.661,0.314,0.978c0.026,0.065,0.061,0.127,0.089,0.191
	c0.116,0.259,0.248,0.512,0.396,0.758c0.049,0.082,0.098,0.163,0.149,0.243c0.187,0.285,0.389,0.565,0.618,0.835
	c0.009,0.01,0.016,0.021,0.024,0.031c0.245,0.285,0.52,0.559,0.81,0.826c0.066,0.062,0.137,0.121,0.206,0.182
	c0.25,0.219,0.515,0.433,0.794,0.64c0.063,0.047,0.123,0.095,0.188,0.141c0.351,0.251,0.721,0.493,1.113,0.728
	c0.032,0.019,0.067,0.036,0.1,0.056c0.364,0.214,0.749,0.42,1.147,0.62c0.083,0.041,0.166,0.082,0.25,0.123
	c0.893,0.435,1.864,0.837,2.91,1.208c0.062,0.022,0.127,0.044,0.191,0.066c0.488,0.171,0.992,0.335,1.511,0.492
	c0.055,0.017,0.107,0.034,0.162,0.05c1.154,0.347,2.379,0.661,3.664,0.947c0.062,0.014,0.124,0.027,0.186,0.041
	c1.307,0.287,2.674,0.546,4.095,0.777c0.004,0,0.008,0.001,0.013,0.002c0.003,0.001,0.006,0.001,0.009,0.002
	c0.215,0.052,0.44,0.1,0.662,0.149c0.223,0.05,0.444,0.101,0.675,0.148c0.24,0.051,0.487,0.099,0.735,0.147
	c0.22,0.043,0.441,0.086,0.667,0.127c0.266,0.049,0.535,0.096,0.809,0.143c0.218,0.036,0.439,0.072,0.662,0.107
	c0.293,0.046,0.587,0.092,0.889,0.136c0.197,0.028,0.401,0.056,0.603,0.083c1.225,0.166,2.523,0.311,3.9,0.432
	c0.119,0.011,0.234,0.022,0.354,0.032c0.44,0.037,0.893,0.069,1.349,0.102c0.154,0.011,0.308,0.022,0.464,0.032
	c0.468,0.031,0.944,0.059,1.429,0.084c0.137,0.007,0.276,0.014,0.415,0.021c0.521,0.025,1.05,0.049,1.591,0.068
	c0.045,0.001,0.091,0.003,0.135,0.004c2.48,0.086,5.166,0.104,8.069,0.049c0.037-0.001,0.073-0.001,0.11-0.002
	c0.703-0.014,1.42-0.032,2.148-0.056c0.063-0.002,0.127-0.004,0.189-0.006c0.739-0.023,1.488-0.052,2.255-0.085
	c0.942-0.005,1.882-0.015,2.82-0.028c0.14-0.002,0.278-0.003,0.418-0.006c0.914-0.014,1.826-0.031,2.732-0.052
	c0.115-0.003,0.229-0.006,0.344-0.009c0.88-0.021,1.756-0.045,2.625-0.072c0.065-0.002,0.132-0.004,0.198-0.006
	c0.896-0.028,1.784-0.061,2.665-0.095c0.158-0.006,0.315-0.013,0.472-0.019c0.875-0.035,1.744-0.071,2.601-0.111
	c0.061-0.003,0.12-0.006,0.18-0.009c0.827-0.038,1.644-0.079,2.451-0.121c0.12-0.007,0.241-0.013,0.361-0.02
	c0.822-0.044,1.632-0.089,2.43-0.136c0.141-0.009,0.279-0.017,0.42-0.025c1.622-0.097,3.189-0.199,4.69-0.305
	c0.133-0.009,0.266-0.019,0.396-0.027c0.727-0.052,1.438-0.104,2.13-0.156c0.1-0.007,0.196-0.015,0.295-0.022
	c0.669-0.051,1.322-0.102,1.955-0.153c0.054-0.004,0.108-0.008,0.161-0.013c0.657-0.053,1.29-0.106,1.905-0.158
	c0.116-0.011,0.23-0.021,0.346-0.03c0.604-0.052,1.192-0.104,1.752-0.154c0.039-0.003,0.075-0.007,0.114-0.01
	c0.537-0.049,1.048-0.097,1.54-0.144c0.083-0.008,0.167-0.016,0.248-0.023c0.497-0.047,0.968-0.093,1.414-0.138
	c0.079-0.008,0.154-0.016,0.231-0.023c0.447-0.044,0.876-0.088,1.267-0.129c0.613-0.064,1.202-0.13,1.782-0.196
	c0.157-0.018,0.313-0.036,0.468-0.055c0.502-0.059,0.992-0.118,1.469-0.179c0.077-0.01,0.159-0.02,0.236-0.029
	c0.516-0.067,1.012-0.136,1.498-0.205c0.164-0.023,0.325-0.048,0.485-0.071c0.374-0.056,0.74-0.112,1.097-0.17
	c0.124-0.021,0.253-0.04,0.374-0.06c0.428-0.071,0.84-0.145,1.242-0.22c0.164-0.03,0.324-0.062,0.484-0.093
	c0.277-0.054,0.548-0.109,0.813-0.165c0.147-0.031,0.299-0.062,0.442-0.093c0.349-0.077,0.685-0.157,1.012-0.238
	c0.161-0.04,0.316-0.081,0.472-0.121c0.204-0.054,0.402-0.108,0.598-0.164c0.151-0.043,0.306-0.086,0.452-0.13
	c0.282-0.085,0.554-0.172,0.816-0.262c0.15-0.051,0.294-0.104,0.438-0.156c0.149-0.055,0.295-0.109,0.438-0.166
	c0.143-0.056,0.287-0.111,0.424-0.169c0.224-0.095,0.44-0.192,0.649-0.292c0.135-0.064,0.263-0.132,0.392-0.198
	c0.105-0.055,0.21-0.11,0.312-0.167c0.128-0.071,0.256-0.143,0.377-0.217c0.101-0.061,0.195-0.124,0.291-0.188
	c0.192-0.125,0.376-0.254,0.551-0.387c0.073-0.056,0.146-0.111,0.216-0.168c0.108-0.088,0.215-0.177,0.316-0.267
	c0.054-0.049,0.103-0.1,0.154-0.148c0.18-0.17,0.348-0.346,0.505-0.527c0.047-0.055,0.095-0.109,0.14-0.165
	c0.087-0.107,0.173-0.217,0.253-0.328c0.028-0.04,0.055-0.083,0.083-0.124c0.148-0.217,0.285-0.44,0.408-0.673
	c0.026-0.049,0.053-0.098,0.078-0.147c0.066-0.131,0.129-0.265,0.188-0.401c0.014-0.033,0.026-0.067,0.04-0.101
	c0.113-0.272,0.212-0.555,0.299-0.849c0.01-0.035,0.021-0.069,0.031-0.104c0.045-0.16,0.086-0.324,0.124-0.49
	c0.005-0.021,0.009-0.044,0.014-0.066c0.076-0.35,0.138-0.714,0.185-1.094c0.026-0.009,0.053-0.02,0.079-0.029
	c0.608-0.212,1.212-0.435,1.812-0.663c0.166-0.063,0.331-0.128,0.497-0.192c0.553-0.216,1.102-0.437,1.646-0.666
	c0.077-0.032,0.155-0.063,0.231-0.096c0.64-0.271,1.273-0.554,1.902-0.845c0.088-0.041,0.176-0.083,0.264-0.124
	c0.58-0.271,1.154-0.55,1.724-0.837c0.061-0.03,0.121-0.06,0.182-0.091c1.293-0.656,2.559-1.354,3.793-2.092
	c0.022-0.013,0.045-0.026,0.066-0.039c1.256-0.752,2.479-1.545,3.666-2.378c0.604,0.34,1.208,0.661,1.811,0.97
	c0.048,0.025,0.096,0.053,0.144,0.076c0.554,0.282,1.106,0.547,1.658,0.804c0.101,0.047,0.201,0.099,0.302,0.145
	c0.521,0.238,1.041,0.461,1.561,0.678c0.13,0.055,0.261,0.113,0.391,0.167c0.498,0.203,0.994,0.391,1.49,0.574
	c0.151,0.057,0.303,0.116,0.454,0.171c0.481,0.173,0.96,0.331,1.439,0.485c0.164,0.054,0.329,0.11,0.494,0.162
	c0.468,0.146,0.934,0.277,1.399,0.406c0.174,0.049,0.349,0.1,0.521,0.146c0.457,0.121,0.913,0.229,1.367,0.335
	c0.182,0.041,0.362,0.086,0.543,0.125c0.447,0.098,0.894,0.184,1.339,0.267c0.186,0.034,0.371,0.071,0.556,0.103
	c0.44,0.076,0.879,0.142,1.316,0.203c0.188,0.026,0.376,0.055,0.563,0.078c0.432,0.056,0.862,0.102,1.292,0.143
	c0.19,0.019,0.382,0.038,0.571,0.054c0.426,0.036,0.85,0.062,1.272,0.085c0.19,0.011,0.382,0.021,0.571,0.028
	c0.419,0.017,0.836,0.025,1.252,0.029c0.192,0.002,0.384,0.004,0.574,0.003c0.413-0.001,0.823-0.01,1.232-0.023
	c0.19-0.006,0.381-0.013,0.571-0.022c0.406-0.019,0.812-0.044,1.215-0.074c0.189-0.015,0.377-0.03,0.565-0.047
	c0.401-0.036,0.802-0.077,1.2-0.124c0.186-0.022,0.37-0.046,0.555-0.07c0.396-0.053,0.792-0.109,1.185-0.173
	c0.184-0.029,0.366-0.061,0.548-0.093c0.392-0.068,0.78-0.141,1.168-0.219c0.179-0.037,0.356-0.076,0.534-0.114
	c0.388-0.084,0.773-0.172,1.156-0.266c0.173-0.043,0.345-0.089,0.517-0.133c0.383-0.1,0.765-0.202,1.143-0.312
	c0.169-0.049,0.336-0.101,0.504-0.151c0.377-0.114,0.754-0.231,1.127-0.355c0.163-0.055,0.324-0.111,0.485-0.168
	c0.374-0.129,0.745-0.26,1.113-0.398c0.157-0.06,0.312-0.122,0.467-0.183c0.369-0.144,0.737-0.289,1.101-0.442
	c0.148-0.062,0.295-0.128,0.442-0.192c0.366-0.159,0.731-0.319,1.092-0.488c0.138-0.063,0.272-0.132,0.409-0.197
	c0.365-0.175,0.73-0.352,1.089-0.535c0.126-0.064,0.248-0.132,0.372-0.197c0.366-0.192,0.731-0.386,1.09-0.587
	c0.108-0.062,0.215-0.125,0.322-0.187c0.37-0.212,0.739-0.426,1.102-0.646c0.086-0.053,0.17-0.107,0.255-0.16
	c0.38-0.235,0.758-0.473,1.128-0.718c0.056-0.036,0.109-0.075,0.164-0.111c2.587-1.726,4.949-3.686,7.044-5.808
	c0.04-0.041,0.083-0.081,0.123-0.122c0.272-0.278,0.536-0.561,0.799-0.844c0.091-0.099,0.186-0.195,0.276-0.294
	C549.312,490.34,549.538,490.078,549.765,489.816z M342.004,463.926c-0.04,0.446-0.074,0.895-0.13,1.34
	c-0.071,0.576-0.169,1.17-0.279,1.772c-0.017,0.094-0.033,0.187-0.051,0.28c-0.114,0.595-0.246,1.199-0.396,1.814
	c-0.019,0.078-0.039,0.157-0.059,0.236c-0.33,1.326-0.733,2.694-1.205,4.09c-0.004,0.009-0.006,0.018-0.009,0.026
	c-0.03,0.008-0.071,0.019-0.103,0.026c-0.129,0.033-0.267,0.068-0.417,0.108c-0.103,0.027-0.209,0.057-0.321,0.087
	c-0.107,0.029-0.223,0.062-0.338,0.094c-0.257,0.071-0.531,0.151-0.827,0.238c-0.066,0.02-0.131,0.038-0.2,0.059
	c-0.622,0.187-1.321,0.407-2.085,0.663c-0.073,0.024-0.146,0.049-0.219,0.074c-0.249,0.084-0.499,0.17-0.761,0.263
	c-0.002,0-0.005,0.001-0.007,0.002c1.828-4.378,3.719-8.984,5.625-13.75c0.016-0.039,0.031-0.077,0.047-0.116
	c0.564,0.886,1.13,1.772,1.716,2.665C341.992,463.907,341.998,463.917,342.004,463.926z"/>
<path fill="none" stroke="#231F20" stroke-width="2" stroke-miterlimit="10" d="M551.729,455.104
	c-17.199-7.369-24.508,10.83-36.751,5.613c-0.001-2.28-0.164-4.622-0.509-7.024c-5.579-38.836-41.078-54.549-73.729-65.827
	c-11.779-4.067-20.749-16.181-26.327-27.576c-0.872-1.781-2.812-10.271-4.419-19.627c18.556-5.011,28.803-14.479,33.542-26.676
	c4.895,3.804,11.104,5.758,19.031,4.813c23.544-2.802,38.134-27.981,35.846-50.051c-2.715-26.166-20.992-49.049-40.78-65.234
	c-10.348-8.464-29.201-20.662-42.281-10.479c-1.528,1.192-2.533,2.437-3.158,3.724c-5.377-5.251-11.927-9.66-20.156-12.988
	c-10.956-9.202-10.442-20.092-13.138-26.489c-7.561-3.404-11.428,6.972-10.597,13.08c-0.771-5.673-4.287-8.561-9.422-5.786
	c-5.594,3.021-5.092,8.879-4.772,14.255c-0.723-0.749-1.611-1.469-2.648-1.913c-6.033-2.581-11.115-4.07-17.828-4.054
	c-18.051,0.042-33.07,12.435-43.727,26.472c-16.906,22.265-9.568,38.067-5.747,43.822c-4.722,3.939-9.739,6.651-13.748,10.297
	c-4.171,3.792-7.247,8.597-7.76,16.846c-1.254,20.219,11.548,40.052,27.698,51.322c0.748,0.522,1.513,1.029,2.282,1.532
	c1.194,2.563,2.432,5.035,3.698,7.372c-7.387,14.752-10.844,32.47,8.367,36.512c0.421,0.088,0.812,0.16,1.215,0.237
	c-4.316,11.349-5.441,20.042-4.941,36.198c0.341,11.091,8.733,43.893,6.061,54.831c-2.855,11.67-22.207,23.225-31.143,29.828
	c-24.234,17.915,5.988,25.517,27.164,25.236c0.891,1.251,4.426,5.202,14.446,7.191c6.93,3.735,22.53,2.535,33.036-0.498
	c0.66-0.101,1.303-0.191,1.979-0.302c0,0,0.683-0.326,1.717-0.927c3.279-1.256,5.657-2.7,6.455-4.187
	c0.524-0.789,1.067-1.687,1.626-2.679c0.743-1.027,1.354-2.134,1.736-3.31c1.479-2.988,3.035-6.563,4.626-10.605
	c1.063,1.172,2.151,2.349,3.253,3.528c-0.316,1.075-0.551,2.207-0.687,3.4c-0.774,6.788,7.387,10.511,19.07,12.407
	c6.282,1.503,15.299,2.273,28.119,1.718c16.318-0.082,32.242-1.47,39.162-2.194c15.062-1.581,19.869-3.68,20.647-10.043
	c5.705-1.983,11.076-4.692,15.863-8.052C535.52,522.09,574.244,474.155,551.729,455.104z M341.874,465.266
	c-0.312,2.524-1.015,5.316-1.998,8.22c-1.06,0.268-2.929,0.787-5.277,1.614c1.843-4.413,3.75-9.06,5.672-13.866
	c0.57,0.895,1.142,1.79,1.733,2.692C341.964,464.372,341.93,464.82,341.874,465.266z"/>
<path fill="none" stroke="#231F20" stroke-width="2" stroke-miterlimit="10" d="M371.241,504.981
	c1.505-13.191,14.543-18.999,28.67-21.476c-5.242-5.532-9.491-11.821-12.255-18.607c-8.614-21.167-1.677-49.501,25.231-51.966
	c21.924-2.01,57.027,14.213,67.499,33.67c9.286,17.252,7.163,36.026-3.099,47.882c2.438,16.646,2.534,20.095-19.695,22.428
	C440.566,518.695,369.017,524.492,371.241,504.981z"/>
<path fill="none" stroke="#231F20" stroke-width="2" stroke-miterlimit="10" d="M335.037,265.401
	c42.86,22.198-7.957,47.628-29.961,21.834C288.031,267.236,319.167,257.188,335.037,265.401z"/>
<path fill="none" stroke="#231F20" stroke-width="2" stroke-miterlimit="10" d="M378.216,236.818
	c20.977,0.718,14.008,29.067,1.446,36.524C354.848,288.079,357.214,236.107,378.216,236.818z"/>
<path fill="none" stroke="#231F20" stroke-width="2" stroke-miterlimit="10" d="M326.805,219.151
	c15.479,4.061,3.474,28.299-7.72,33.506C296.969,262.958,311.306,215.092,326.805,219.151z"/>
<path fill="none" stroke="#231F20" stroke-width="2" stroke-miterlimit="10" d="M373.62,242.611
	c3.233-2.793,7.594-3.273,12.47,1.119c6.585,5.937,1.56,22.143-8.008,23.414C364.661,268.92,365.947,249.249,373.62,242.611z"/>
<path fill="none" stroke="#231F20" stroke-width="2" stroke-miterlimit="10" d="M322.143,227.227
	c3.624-1.995,7.409-1.692,9.974,3.144c3.462,6.525-6.185,20.437-14.556,19.97C305.818,249.675,313.529,231.972,322.143,227.227z"/>
<path fill="none" stroke="#231F20" stroke-width="2" stroke-miterlimit="10" d="M377.801,242.202
	c9.224-0.881,10.593,13.418,1.369,14.299C369.951,257.386,368.58,243.085,377.801,242.202z"/>
<path fill="none" stroke="#231F20" stroke-width="2" stroke-miterlimit="10" d="M323.807,226.717
	c9.22-0.881,10.59,13.418,1.368,14.3C315.952,241.9,314.582,227.601,323.807,226.717z"/>
<path fill="none" stroke="#231F20" stroke-width="2" stroke-miterlimit="10" d="M440.492,504.117c0,0-47.604-29.587-62.442-3.877
	c0,0-17.563,27.412,66.536,16.473C444.585,516.713,464.33,511.936,440.492,504.117z"/>
<path fill="none" stroke="#231F20" stroke-width="2" stroke-miterlimit="10" d="M331.187,492.938c0,0-14.497,14.376-13.265,27.248
	l-7.836-2.451C310.087,517.735,312.186,490.431,331.187,492.938z"/>
<path fill="none" stroke="#231F20" stroke-width="2" stroke-miterlimit="10" d="M405.396,229.691
	c-1.674-7.187-4.769-12.203-8.629-15.362c-3.047-7.096-17.014-8.569-21.758-5.221c-1.474,1.041-1.771,2.334-1.254,3.707
	c-7.869,3.889-14.785,11.728-17.518,22.027c-8.703,32.805,18.746,58.916,41.509,40.839
	C409.741,266.157,408.512,243.06,405.396,229.691z"/>
<path fill="none" stroke="#231F20" stroke-width="2" stroke-miterlimit="10" d="M327.626,198.699
	c6.031-3.299,21.505,3.515,10.934,8.807c-5.996,3.002-19.907-2.651-11.37-8.539C327.328,198.871,327.474,198.782,327.626,198.699z"
	/>
<path fill="none" stroke="#231F20" stroke-width="2" stroke-miterlimit="10" d="M375.01,209.108
	c4.806-3.392,19.082-1.841,21.878,5.495C403.703,232.562,365.648,215.718,375.01,209.108z"/>
<path fill="none" stroke="#231F20" stroke-width="2" stroke-miterlimit="10" d="M439.676,254.534
	c-9.4-30.837-16.842-58.31-47.638-70.764c-10.956-9.202-10.442-20.092-13.138-26.489c-7.561-3.404-11.428,6.972-10.597,13.08
	c-0.771-5.673-4.287-8.561-9.422-5.786c-5.616,3.033-5.088,8.926-4.769,14.319c-28.158,6.084-45.267,37.099-65.492,59.965
	c-5.818,6.576-12.9,9.765-18.21,14.595c-4.171,3.792-7.247,8.597-7.76,16.846c-1.254,20.219,11.548,40.052,27.698,51.322
	c0.748,0.522,1.513,1.029,2.281,1.532c0.057,0.119,0.113,0.235,0.168,0.354c0.141,0.299,0.282,0.595,0.424,0.891
	c0.008,0.019,0.018,0.038,0.026,0.057c0.144,0.299,0.285,0.598,0.429,0.895c0.005,0.009,0.009,0.018,0.014,0.026
	c0.123,0.253,0.248,0.503,0.371,0.755c0.008,0.015,0.016,0.029,0.021,0.044c0.168,0.338,0.334,0.677,0.502,1.011
	c0.004,0.007,0.008,0.015,0.012,0.022c0.055,0.11,0.111,0.218,0.167,0.328c0.009,0.018,0.019,0.034,0.026,0.052
	c0.5,0.984,1.006,1.951,1.516,2.894c0.008,0.015,0.016,0.03,0.023,0.045c-7.387,14.752-10.843,32.47,8.367,36.512
	c23.563,4.961,18.042-7.5,18.042-7.5c-0.066-3.527,0.405-6.796,1.211-9.783c4.298-0.211,9.1-0.928,14.147-2.066
	c0.005-0.001,0.01-0.002,0.015-0.003c0.013-0.003,0.025-0.006,0.037-0.009c1.128-0.255,2.269-0.531,3.418-0.827
	c0.013-0.003,0.025-0.006,0.038-0.01c0.014-0.003,0.027-0.007,0.041-0.011c0.681-0.176,1.365-0.359,2.053-0.549
	c0.046-0.013,0.092-0.024,0.138-0.037c0.085-0.023,0.168-0.044,0.253-0.067c-4.058,3.34-7.257,7.567-8.867,12.351
	c-7.521,22.323-0.44,50.538,2.894,73.002c1.63,10.975,5.143,22.567,3.758,33.738c-0.312,2.524-1.015,5.316-1.998,8.22
	c-5.939,1.501-37.216,10.769-37.077,39.488c0,0,2.701,5.203,14.7,7.586c6.93,3.735,22.53,2.535,33.036-0.498
	c0.66-0.101,1.303-0.191,1.979-0.302c0,0,0.683-0.326,1.717-0.927c3.279-1.256,5.657-2.7,6.455-4.187
	c0.524-0.789,1.067-1.687,1.626-2.679c0.743-1.027,1.354-2.134,1.736-3.31c16.393-33.143,42.462-137.828,16.864-164.073
	c0.119-0.004,0.235-0.012,0.354-0.017c0.545-0.02,1.081-0.051,1.622-0.076c1.153-0.052,2.301-0.113,3.438-0.188
	c0.611-0.041,1.218-0.085,1.824-0.133c1.123-0.087,2.235-0.187,3.341-0.297c0.526-0.052,1.055-0.101,1.576-0.158
	c1.603-0.176,3.191-0.369,4.752-0.593C453.644,335.116,452.367,296.173,439.676,254.534z"/>
<path fill="none" stroke="#231F20" stroke-width="2" stroke-miterlimit="10" d="M375.693,309.728c0,0-61.552,20.325-87.385-23.377
	c0,0,3.786,9.377,7.613,21.091c1.568,4.804,3.146,9.999,5.221,14.634c-9.874,15.473-19.544,40.101,3.555,44.961
	c23.563,4.961,18.042-7.5,18.042-7.5c-0.288-15.342,9.568-25.84,13.143-29.136c5.796-3.078,11.652-6.86,17.071-9.956
	C365.498,313.279,375.693,309.728,375.693,309.728z"/>
<path fill="none" stroke="#231F20" stroke-width="2" stroke-miterlimit="10" d="M439.676,254.534
	c-9.4-30.837-16.842-58.31-47.638-70.764c-10.956-9.202-10.442-20.092-13.138-26.489c-7.561-3.404-11.428,6.972-10.597,13.08
	c-0.771-5.673-4.287-8.561-9.422-5.786c-5.616,3.033-5.088,8.926-4.769,14.319c-28.158,6.084-45.267,37.099-65.492,59.965
	c-5.818,6.576-12.9,9.765-18.21,14.595c-4.171,3.792-7.247,8.597-7.76,16.846c-1.254,20.219,11.548,40.052,27.698,51.322
	c0.744,0.52,1.512,1.021,2.277,1.522c1.196,2.566,2.436,5.042,3.703,7.383c-7.388,14.751-10.843,32.469,8.367,36.511
	c23.563,4.961,18.042-7.5,18.042-7.5c-0.066-3.53,0.405-6.804,1.214-9.792c5.973-0.292,12.909-1.548,20.137-3.57
	c-4.058,3.34-7.257,7.567-8.867,12.351c-7.521,22.323-0.44,50.538,2.894,73.002c1.63,10.975,5.143,22.567,3.758,33.738
	c-0.312,2.524-1.015,5.316-1.998,8.22c-5.939,1.501-37.216,10.769-37.077,39.488c0,0,2.701,5.203,14.7,7.586
	c6.93,3.735,22.53,2.535,33.036-0.498c0.66-0.101,1.303-0.191,1.979-0.302c0,0,0.683-0.326,1.717-0.927
	c3.279-1.256,5.657-2.7,6.455-4.187c0.524-0.789,1.067-1.687,1.626-2.679c0.743-1.027,1.354-2.134,1.736-3.31
	c16.393-33.143,42.462-137.828,16.864-164.073c5.835-0.197,11.508-0.686,16.908-1.461
	C453.644,335.116,452.367,296.173,439.676,254.534z"/>
<path fill="none" stroke="#231F20" stroke-width="2" stroke-miterlimit="10" d="M391.556,290.499
	c-9.793-7.142-22.888-8.376-32.65-16.287c-10.125-8.212-15.713-17.548-30.297-19.136c-5.4-0.588-11.717,1.265-17.169,1.564
	c-5.01,0.275-12.039-1.401-16.283-0.931c-12.664,1.402-16.979,8.677-16.381,21.457c0.551,11.724,8.282,36.252,17.556,53.36
	c-7.388,14.751-10.844,32.47,8.366,36.512c23.563,4.961,18.042-7.5,18.042-7.5c-0.066-3.528,0.405-6.799,1.212-9.786
	C358.144,348.083,424.347,314.407,391.556,290.499z"/>
<g>
	<path fill="none" stroke="#231F20" stroke-width="2" stroke-miterlimit="10" d="M337.158,329.292c0,0-14.771,11.517-14.419,30.245
		c0,0,5.521,12.461-18.042,7.5c-23.566-4.958-13.023-30.501-2.953-45.897C301.744,321.141,323.802,310.37,337.158,329.292z"/>
</g>
</svg>
