<?xml version="1.0" encoding="utf-8"?>
<!-- Generator: Adobe Illustrator 16.0.0, SVG Export Plug-In . SVG Version: 6.00 Build 0)  -->
<!DOCTYPE svg PUBLIC "-//W3C//DTD SVG 1.1//EN" "http://www.w3.org/Graphics/SVG/1.1/DTD/svg11.dtd">
<svg version="1.1" id="Layer_1" xmlns="http://www.w3.org/2000/svg" xmlns:xlink="http://www.w3.org/1999/xlink" x="0px" y="0px"
	 width="612px" height="612px" viewBox="0 90 612 612" enable-background="new 0 90 612 612" xml:space="preserve">
<path fill="none" stroke="#000000" stroke-width="2" d="M158.164,608.246c-6.874-1.324-4.26-15.121-4.26-19.89
	c0-4.083,0-8.167,0-12.25c0-2.067,0.26-0.275-2.367-1.437c-5.608-2.473-0.699-7.354,2.772-8.655
	c13.833-5.184,31.23,0.693,33.034,16.813C189.295,600.273,173.387,608.513,158.164,608.246z M165.467,572.337
	c-2.864,0-3.313-0.3-3.313,2.28c0,3.286,0,6.572,0,9.858c0,5.084,0,10.167,0,15.25C180.949,599.726,185.985,573.868,165.467,572.337
	C164.881,572.337,166.684,572.428,165.467,572.337z"/>
<path fill="none" stroke="#000000" stroke-width="2" d="M221.865,602.7c1.126,4.091-3.229,6.748-6.594,4.058
	c-2.046-1.637-9.226,1.776-13.296,1c-12.645-2.413-11.507-17.989-4.928-25.886c5.684-6.947,21.572-12.398,21.572,0.677
	C218.619,590.128,218.532,595.867,221.865,602.7z M207.529,599.657c3.764-2.388,3.117-2.872,2.795-7.146
	c-0.241-3.195-0.21-6.425-0.09-9.625C200.24,584.665,197.549,603.661,207.529,599.657
	C208.024,599.343,206.853,599.929,207.529,599.657z"/>
<path fill="none" stroke="#000000" stroke-width="2" d="M253.58,603.918c-0.377,3.149-4.822,6.093-7.202,2.891
	c-2.209-2.973-1.055-8.243-1.045-11.678c0.016-5.3,1.998-17.858-6.969-10.892c-4.239,3.447-3.178,8.645-3.178,13.497
	c0,2.69,0.651,5.844-0.812,8.277c-3,5.003-7.521-0.8-7.405-4.294c0.13-4.108-0.034-8.23-0.034-12.341
	c0-3.149-1.471-10.532,0.88-13.153c3.105-3.462,5.748,0.971,8.625-0.401c4.204-2.003,9.773-2.421,13.619,0.594
	C256.26,581.277,253.58,596.97,253.58,603.918z"/>
<path fill="none" stroke="#000000" stroke-width="2" d="M260.477,565.305c0.64-5.943,9.072-6.422,9.264-0.136
	C270.113,571.514,260.762,571.65,260.477,565.305z M269.404,603.783c-0.76,7.541-8.579,3.461-8.352-2.468
	c0.27-7.439-1.825-16.876-0.034-24.041c2.245-8.098,8.25-0.929,8.25,3.922C269.268,588.726,269.404,596.253,269.404,603.783z"/>
<path fill="none" stroke="#000000" stroke-width="2" d="M275.759,589.514c2-8.296,9.473-16.248,18.69-14.276
	c9.462,2.024,12.162,13.479,9.243,21.6C296.672,616.361,272.003,609.484,275.759,589.514z M283.875,590.935
	c-2.681,14.328,14.027,10.271,12.679-2.028C295.447,578.815,285.769,584.698,283.875,590.935
	C283.739,591.656,284.189,589.897,283.875,590.935z"/>
<path fill="none" stroke="#000000" stroke-width="2" d="M335.336,584.814c0.451-2.982-3.913-3.659-2.062-7.235
	c1.738-3.362,5.963-2.224,8.284-0.372c4.921-3.738,12.088-5.226,16.703-0.034c1.738,1.958,1.533,5.514-0.947,6.83
	c-2.803,1.49-4.181-0.939-6.289-1.995c-5.432-1.354-7.506,4.473-7.506,8.327c0,4.169,0,8.336,0,12.505
	c0,5.869-8.25,7.147-8.25,1.078C333.751,599.276,334.586,589.665,335.336,584.814C335.38,584.521,335.29,585.108,335.336,584.814z"
	/>
<path fill="none" stroke="#000000" stroke-width="2" d="M384.633,596.615c5.332-1.334,6.84,4.229,3.212,7.151
	c-3.411,2.747-9.201,4.107-13.466,4.107c-11.658,0-16.638-12.533-13.517-22.366c2.879-9.068,18.537-15.366,25.292-7.051
	c9.581,11.821-9.153,16.639-16.805,19.104C373.397,602.188,380.315,599.035,384.633,596.615z M370.973,584.983
	c-2.252,1.271-3.032,3.437-3.381,5.884c2.229-0.687,12.781-2.314,12.781-5.681C380.372,580.912,372.912,583.768,370.973,584.983z"/>
<path fill="none" stroke="#000000" stroke-width="2" d="M397.008,584.814c0.451-2.981-3.913-3.659-2.062-7.235
	c1.74-3.359,5.963-2.227,8.284-0.372c4.92-3.735,12.09-5.229,16.703-0.034c1.74,1.957,1.533,5.514-0.947,6.83
	c-2.8,1.49-4.183-0.938-6.288-1.995c-5.433-1.354-7.507,4.471-7.507,8.327c0,4.169,0,8.336,0,12.505c0,5.869-8.25,7.147-8.25,1.078
	C395.423,599.276,396.259,589.665,397.008,584.814C397.052,584.521,396.963,585.108,397.008,584.814z"/>
<path fill="none" stroke="#000000" stroke-width="2" d="M425.07,565.305c0.642-5.943,9.072-6.422,9.265-0.136
	C434.708,571.514,425.354,571.65,425.07,565.305z M433.997,603.783c-0.759,7.541-8.579,3.461-8.351-2.468
	c0.27-7.44-1.823-16.875-0.035-24.041c2.249-8.098,8.25-0.93,8.25,3.922C433.861,588.726,433.997,596.253,433.997,603.783z"/>
<path fill="none" stroke="#000000" stroke-width="2" d="M440.353,589.514c2-8.296,9.474-16.248,18.69-14.276
	c9.461,2.024,12.161,13.48,9.242,21.6C461.265,616.36,436.597,609.484,440.353,589.514z M448.468,590.935
	c-2.681,14.329,14.028,10.27,12.68-2.028C460.04,578.816,450.363,584.698,448.468,590.935
	C448.333,591.656,448.783,589.897,448.468,590.935z"/>
<path fill="none" stroke="#000000" stroke-width="2" d="M209.404,664.459c2.358,4.552-2.724,6.135-5.561,3.499
	c-2.598-2.413-4.129-6.178-5.269-9.463c-3.661-10.551-1.614-20.994,3.704-30.452c3.262-5.795,9.833-2.895,5.68,2.841
	c-2.161,2.981-3.625,6.025-4.336,9.63C202.04,648.53,202.572,658.914,209.404,664.459z"/>
<path fill="none" stroke="#000000" stroke-width="2" d="M233.9,656.141c6.807,3.104-1.178,5.974-4.616,5.63
	c-4.46-0.35-8.923,0.477-13.339,0.203c-9.587-0.614,6.443-16.376,8.47-18.613c-2.496,0.117-15.522,1.916-11.411-4.235
	c2.029-3.05,9.121-1.885,12.172-1.953c3.186,0,13.275,0.027,8.089,5.883c-3.746,4.236-7.92,8.062-11.488,12.478
	C225.81,655.465,229.917,655.563,233.9,656.141z"/>
<path fill="none" stroke="#000000" stroke-width="2" d="M255.456,653.961c4.787-1.199,4.875,4.204,1.369,6.034
	c-3.761,1.962-8.858,3.344-12.971,1.687c-6.82-2.747-8.513-11.38-5.642-17.561c3.117-6.422,15.49-9.813,19.304-2.377
	c4.517,8.805-8.056,11.161-13.523,12.926C246.947,658.047,252.321,655.886,255.456,653.961z M245.21,645.237
	c-1.764,0.995-2.274,2.58-2.536,4.411c1.587-0.487,9.586-1.851,9.586-4.26C252.26,642.193,246.689,644.242,245.21,645.237z"/>
<path fill="none" stroke="#000000" stroke-width="2" d="M272.801,662.075c-6.433,0.217-9.383-0.263-9.383-6.136
	c0-4.443,0-8.886,0-13.327c0-4.014,0-8.027,0-12.041c0-2.782,3.958-4.379,5.572-1.944c1.962,2.961,1.02,8.201,0.869,11.538
	C286.475,630.927,291.268,661.502,272.801,662.075C271.82,662.108,273.917,662.041,272.801,662.075z M269.605,649.092
	c0,4.404-0.272,10.138,6.568,5.791C282.438,650.901,276.948,639.032,269.605,649.092z"/>
<path fill="none" stroke="#000000" stroke-width="2" d="M290.451,645.109c0.2-1.323-4.701-8.942,2.257-6.923
	c4.718,1.375,10.316-4.007,14.937,1.191c1.298,1.461,1.133,4.146-0.71,5.123c-1.991,1.058-3.162-0.719-4.717-1.496
	c-3.108-0.775-5.63,2.676-5.63,5.266c0,3.318,0,6.637,0,9.955c0,4.27-6.187,6.34-6.187,1.211
	C289.209,656.076,289.902,648.659,290.451,645.109C290.484,644.891,290.417,645.33,290.451,645.109z"/>
<path fill="none" stroke="#000000" stroke-width="2" d="M329.148,658.524c1.688,6.111-5.774,2.118-7.284,2.937
	c-2.638,1.427-6.264,1.426-9.047,0.488c-9.175-3.099-6.342-15.451-0.827-20.602c4.743-4.431,14.725-6.575,14.725,2.063
	C326.715,649.25,326.611,653.322,329.148,658.524z M318.396,656.242c4.037-2.563,1.858-8.026,2.028-12.578
	C312.805,645.022,311.049,659.188,318.396,656.242C318.769,656.006,317.89,656.445,318.396,656.242z"/>
<path fill="none" stroke="#000000" stroke-width="2" d="M340.307,661.365c-5.741,7.051-5.376-8.957-5.376-10.351
	c0-3.483,0.669-3.912-1.749-5.55c-1.577-1.065-1.987-3.191-0.635-4.641c2.405-2.646,2.352,1.677,2.258-4.057
	c-0.076-4.431,1.506-9.064,6.156-10.411c2.945-0.854,8.98-0.21,10.049,3.386c1.322,4.491-4.023,3.593-6.34,2.663
	c-4.408-1.752-3.551,4.994-3.551,7.253c9.535-0.619,9.637,6.238,0,6.238C341.118,649.736,342.889,658.178,340.307,661.365
	C339.867,661.905,340.745,660.824,340.307,661.365z"/>
<path fill="none" stroke="#000000" stroke-width="2" d="M352.225,630.478c0.473-4.402,6.807-4.715,6.948-0.102
	C359.45,635.093,352.595,635.109,352.225,630.478z M358.919,659.336c-0.562,5.575-6.431,2.546-6.263-1.851
	c0.205-5.597-1.381-12.616-0.025-18.03c0.467-1.688,2.146-2.969,3.93-2.536c2.992,0.724,2.258,5.069,2.258,7.202
	C358.818,649.193,358.919,654.264,358.919,659.336z"/>
<path fill="none" stroke="#000000" stroke-width="2" d="M363.332,657.359c-1.517-4.291,3.054-5.604,5.604-2.893
	c4.631,4.959,9.172-1.162,3.956-2.23c-14.492-2.946-8.225-20.314,5.097-14.607c1.919,0.881,3.36,3.583,1.699,5.427
	c-1.764,1.96-4.912-0.304-6.821-0.532c-1.309-0.155-2.926,0.284-2.612,1.952c0.322,1.726,6.829,2.759,8.267,3.652
	C388.999,654.667,372.587,670.348,363.332,657.359z"/>
<path fill="none" stroke="#000000" stroke-width="2" d="M390.669,661.796c-6.637,4.808-4.869-18.438-4.869-20.783
	c0-3.265,0-6.53,0-9.795c0-2.625,4.399-4.644,5.769-1.97c1.49,2.907,0.482,8.301,0.42,11.475c7.778-5.255,14.518,1.348,15.107,9.295
	c0.228,3.07-0.044,6.145-0.044,9.218c0,6.343-6.728,2.386-6.467-2.968c0.467-9.458-1.181-13.933-8.597-6.517
	C390.7,652.962,394.079,659.323,390.669,661.796C389.992,662.285,391.345,661.306,390.669,661.796z"/>
<path fill="none" stroke="#000000" stroke-width="2" d="M410.297,663.799c6.671-6.671,7.403-18.256,4.209-26.829
	c-1.084-2.92-4.846-6.172-5.021-9.231c-0.289-7.333,6.649-0.505,8.014,1.674c5.319,8.53,6.273,18.927,3.195,28.503
	c-1.184,3.549-3.887,11.463-8.724,11.463C408.729,669.379,408.322,665.634,410.297,663.799z"/>
<path fill="none" stroke="#000000" stroke-width="2" d="M280.028,354.541c-11.91-2.296-21.302-11.838-21.302-24.249
	c0-3.175,0-6.349,0-9.524c0-16.219,0-32.439,0-48.658c0-27.975,0-55.95,0-83.924c-9.304,1.551-20.084-3.91-23.627-12.848
	c-3.924-9.9,2.774-18.216,10.439-23.898c16.848-12.489,41.769-16.405,62.213-17.227c44.017-1.769,88.677,16.809,108.539,58.03
	c19.383,40.022,11.958,91.421-19.004,123.416c-14.934,15.432-34.226,25.864-55.159,30.466c-11.023,2.423-22.24,4.101-33.396,5.786
	C299.718,353.271,289.135,356.354,280.028,354.541z M316.545,174.999c-4.088,0-16.567-1.941-16.567,3.562c0,4.41,0,8.82,0,13.229
	c0,15.46,0,30.92,0,46.38c0,24.59,0,49.179,0,73.768c16.68,0,36.895-4.62,51.688-12.299c16.984-8.816,26.205-24.646,31.342-42.567
	c5.711-19.929,1.653-42.432-11.235-58.756C358.105,181.006,337.483,176.562,316.545,174.999
	C313.612,174.999,322.632,175.453,316.545,174.999z"/>
<path fill="none" stroke="#231F20" stroke-width="2" stroke-miterlimit="10" d="M500.097,436.053
	c10.246-3.248,21.263-8.205,28.761-16.202c-74.551-57.722-173.236-57.954-260.851-35.118c-29.508-35.29-75.46-76.104-96.706-20.534
	c-9.229,24.14,0.894,38.558,18.667,47.035c-6.621,2.759-13.201,5.616-19.727,8.593c-4.744,2.165-6.123,4.41-9.163-0.02
	c-1.365-1.989-2.796-3.932-4.292-5.824c-20.635-26.118-51.935-39.026-85.017-37.139c16.57,8.403,31.898,21.826,41.487,37.754
	c22.618,37.57,0.983,77.79-26.33,106.101c22.895-3.944,45.333-16.927,60.526-34.318c6.691-7.66,12.112-16.384,16.078-25.748
	c8.245,3.222,16.527,6.343,24.845,9.369c-9.23,1.249-18.448,3.602-25.544,8.746c-3.316,2.405-7.747,7.459-5.706,11.916
	c2.102,4.59,9.341,4.978,13.592,5.066c16.617,0.352,35.273-5.337,49.042-14.889c0.235,0.077,0.469,0.156,0.704,0.232
	c-8.417,12.248-29.283,44.023-13.929,55.118c23.2,16.765,25.672-40.207,23.168-51.617c2.954,8.748,6.339,17.374,10.086,25.812
	c4.718,10.623,11.054,27.504,22.223,33.073c12.257,6.111,9.599-12.533,7.627-18.23c-4.327-12.508-11.411-24.215-19.5-35.121
	c5.257,1.492,10.527,2.938,15.816,4.313c18.979,4.937,38.341,9.244,57.887,12.354c-19.882,8.326-42.215,20.051-34.168,28.135
	c11.198,11.25,33.044-7.517,47.341-22.51c-11.279,20.207-22.468,45.247-7.618,43.728c15.022-1.538,20.134-26.521,21.834-45.852
	c19.441,1.846,38.973,2.263,58.403,0.694c39.27-3.171,94.47-17.373,113.242-57.201c-39.527,10.149-90.738,8.098-122.296-21.593
	C432.346,441.19,467.947,446.245,500.097,436.053z"/>
<path fill="none" stroke="#231F20" stroke-width="2" stroke-miterlimit="10" d="M457.155,405.484
	c-0.062,26.635-41.365,26.54-41.303-0.095C415.911,378.755,457.217,378.851,457.155,405.484z"/>
<path fill="none" stroke="#231F20" stroke-width="2" stroke-miterlimit="10" d="M447.156,405.789
	c-0.041,17.757-27.576,17.692-27.535-0.063C419.662,387.969,447.198,388.033,447.156,405.789
	C447.139,413.393,447.174,398.185,447.156,405.789z"/>
<path fill="none" stroke="#231F20" stroke-width="2" stroke-miterlimit="10" d="M436.022,401.011
	c-0.016,6.343-9.851,6.32-9.834-0.022C426.203,394.646,436.035,394.668,436.022,401.011
	C436.016,403.727,436.028,398.295,436.022,401.011z"/>
<path fill="none" stroke="#231F20" stroke-width="2" stroke-miterlimit="10" d="M163.532,460.632
	c-13.111,31.004-43.467,54.291-76.604,60.066c20.533-21.248,39.935-49.665,35.552-80.711c-3.913-27.722-26.536-50.859-50.709-63.144
	c26.084-1.487,51.893,5.933,71.772,23.221c4.783,4.161,9.21,8.781,13.124,13.771c2.898,3.652,7.603,7.391,4.865,11.45
	C154.018,436.427,156.227,450.049,163.532,460.632C163.22,461.368,162.111,458.572,163.532,460.632z"/>
<path fill="none" stroke="#231F20" stroke-width="2" stroke-miterlimit="10" d="M500.098,436.053
	c10.246-3.249,21.262-8.206,28.76-16.202c-29.646-22.954-64.633-37.925-101.425-44.778c-12.057-2.246-24.263-3.658-36.507-4.337
	c-4.816-0.268-7.898,6.919-9.934,11.931c-17.826,0.047-35.652,0.094-53.478,0.142c-13.554,0.036-27.108,0.072-40.662,0.107
	c-11.336,0.03-20.262,2.181-31.456,5.402c41.142-0.108,82.283-0.217,123.425-0.325c-2.746,7.043-4.801,14.38-6.301,21.833
	c-27.089,0.068-54.177,0.138-81.266,0.208c-23.92,0.062-47.84,0.122-71.761,0.184c-7.052,0.019-14.103,0.036-21.155,0.055
	c-7.064,0.018-11.41,2.363-18.289,5.367c63.831-0.161,127.662-0.323,191.492-0.484c-0.93,5.608-1.571,11.257-1.966,16.872
	c-0.032,0.462-0.057,0.927-0.086,1.39c-20.974-5.51-61.054-13.358-71.243,3.752c-44.688,0.115-89.375,0.23-134.063,0.347
	c-6.812,0.017-6.173-0.995-9.985,5.364c47.353-0.123,94.705-0.246,142.058-0.369c-0.841,4.257-0.399,9.538,1.72,16.071
	c0.708,2.183,1.529,4.115,2.445,5.83c-41.516,0.106-83.031,0.214-124.547,0.32c-0.429,0.001-0.857,0.002-1.286,0.003
	c7.462,2.832,12.708,5.283,20.307,5.264c7.848-0.02,15.696-0.04,23.544-0.061c25.236-0.065,50.473-0.131,75.709-0.195
	c3.356-0.009,6.711-0.018,10.067-0.026c8.526,8.89,21.772,6.429,34.964-0.09c10.687-0.027,21.374-0.056,32.061-0.083
	c0.019,0,0.037,0,0.056,0c0.833,4.528,1.921,9.003,3.318,13.384c0.925,2.897,1.996,5.762,3.232,8.551
	c-40.438,0.105-80.876,0.211-121.315,0.316c11.996,3.305,20.909,5.268,32.91,5.237c14.479-0.038,28.956-0.075,43.436-0.112
	c14.607-0.038,29.214-0.075,43.822-0.113c1.257-0.003,2.515-0.007,3.771-0.01c1.422,2.594,3.015,5.091,4.806,7.45
	c2.095,2.76,4.457,5.319,7.085,7.579c5.764-0.113,11.524-0.39,17.272-0.854c39.27-3.171,94.47-17.373,113.242-57.201
	c-34.533,8.867-77.982,8.418-109.454-11.635c0.234-0.105,0.45-0.225,0.62-0.371c-3.277-1.983-5.031-3.169-6.695-3.876
	c-2.339-1.781-4.603-3.675-6.767-5.711C432.346,441.19,467.947,446.245,500.098,436.053z M348.677,464.286
	c7.599-4.749,14.763-10.281,20.527-15.108c0.149,5.035,0.538,10.068,1.23,15.053C363.182,464.249,355.93,464.268,348.677,464.286z"
	/>
<path fill="none" stroke="#231F20" stroke-width="2" stroke-miterlimit="10" d="M116.614,383.595
	c-6.087,0.058-12.174,0.116-18.261,0.174c-6.092,0.059-12.713,1.519-17.876-1.832C91.98,381.829,105.801,379.29,116.614,383.595z"/>
<path fill="none" stroke="#231F20" stroke-width="2" stroke-miterlimit="10" d="M135.266,393.625
	c-6.81,0.064-13.62,0.129-20.429,0.194c-6.139,0.058-16.151,2.366-20.974-1.799c6.973-0.066,13.945-0.132,20.918-0.198
	C121.229,391.761,129.8,389.815,135.266,393.625z"/>
<path fill="none" stroke="#231F20" stroke-width="2" stroke-miterlimit="10" d="M147.516,403.719
	c-7.24,0.067-14.479,0.136-21.72,0.203c-5.674,0.053-17.757,2.706-21.724-1.798c7.169-0.067,14.34-0.135,21.509-0.202
	C131.572,401.866,142.977,399.289,147.516,403.719z"/>
<path fill="none" stroke="#231F20" stroke-width="2" stroke-miterlimit="10" d="M156.667,413.836
	c-7.549,0.071-15.099,0.144-22.648,0.216c-5.134,0.049-19.231,2.858-22.221-1.79c7.209-0.068,14.419-0.136,21.628-0.203
	C139.008,412.005,152.954,409.103,156.667,413.836z"/>
<path fill="none" stroke="#231F20" stroke-width="2" stroke-miterlimit="10" d="M163.235,423.074
	c-3.518,3.383-17.293,1.069-22.043,1.114c-4.802,0.045-21.723,2.942-23.836-1.776c7.53-0.071,15.059-0.142,22.589-0.214
	C143.876,422.162,161.028,419.549,163.235,423.074z"/>
<path fill="none" stroke="#231F20" stroke-width="2" stroke-miterlimit="10" d="M158.135,432.232
	c-1.442,4.325-14.4,2.14-18.622,2.18c-4.032,0.038-17.372,2.436-18.538-1.828C133.362,432.467,145.748,432.35,158.135,432.232z"/>
<path fill="none" stroke="#231F20" stroke-width="2" stroke-miterlimit="10" d="M156.946,444.449
	c-5.662,0.055-11.325,0.108-16.986,0.162c-3.711,0.036-16.731,2.272-17.149-1.834c5.66-0.055,11.32-0.108,16.979-0.162
	C143.552,442.578,156.448,440.334,156.946,444.449z"/>
<path fill="none" stroke="#231F20" stroke-width="2" stroke-miterlimit="10" d="M160.02,454.629
	c-12.402,0.116-24.805,0.231-37.208,0.347c0.377-4.162,14.464-2.134,18.237-2.17C145.515,452.765,157.939,450.286,160.02,454.629z"
	/>
<path fill="none" stroke="#231F20" stroke-width="2" stroke-miterlimit="10" d="M162.578,462.807
	c-1.997,4.458-15.118,2.148-19.534,2.19c-7.324,0.069-14.648,0.139-21.972,0.208c1.088-4.338,15.204-2.149,19.276-2.188
	C147.758,462.947,155.167,462.877,162.578,462.807z"/>
<path fill="none" stroke="#231F20" stroke-width="2" stroke-miterlimit="10" d="M157.19,473.066
	c-2.663,4.354-13.928,2.13-18.625,2.174c-6.91,0.064-13.819,0.13-20.728,0.194c1.696-4.325,14.107-2.13,18.351-2.17
	C143.189,473.199,150.189,473.132,157.19,473.066z"/>
<path fill="none" stroke="#231F20" stroke-width="2" stroke-miterlimit="10" d="M150.002,483.337
	c-3.379,4.241-13.338,2.128-18.407,2.176c-6.149,0.058-12.298,0.114-18.448,0.173c2.27-4.227,12.827-2.12,17.269-2.162
	C136.945,483.461,143.474,483.399,150.002,483.337z"/>
<path fill="none" stroke="#231F20" stroke-width="2" stroke-miterlimit="10" d="M140.414,493.636
	c-3.964,3.688-10.913,2.106-16.131,2.155c-5.739,0.055-11.478,0.108-17.217,0.163c2.689-4.101,11.907-2.115,16.495-2.158
	C129.179,493.742,134.796,493.688,140.414,493.636z"/>
<path fill="none" stroke="#231F20" stroke-width="2" stroke-miterlimit="10" d="M127.292,503.966
	c-7.009,4.694-19.398,2.183-27.668,2.262C103.788,500.978,120.646,504.029,127.292,503.966z"/>
<path fill="none" stroke="#231F20" stroke-width="2" stroke-miterlimit="10" d="M107.771,514.355
	c-5.789,2.402-10.709,2.103-16.915,2.158C94.458,512.587,102.595,514.404,107.771,514.355z"/>
<path fill="none" stroke="#231F20" stroke-width="2" stroke-miterlimit="10" d="M397.24,464.357c0,7.61-11.799,7.61-11.799,0
	S397.24,456.748,397.24,464.357z"/>
<path fill="none" stroke="#231F20" stroke-width="2" stroke-miterlimit="10" d="M427.479,463.62c0,6.659-10.324,6.659-10.324,0
	S427.479,456.961,427.479,463.62z"/>
<path fill="none" stroke="#231F20" stroke-width="2" stroke-miterlimit="10" d="M418.628,479.846c0,10.464-16.225,10.464-16.225,0
	S418.628,469.382,418.628,479.846z"/>
<path fill="none" stroke="#231F20" stroke-width="2" stroke-miterlimit="10" d="M452.555,473.207c0,7.61-11.799,7.61-11.799,0
	C440.755,465.599,452.555,465.598,452.555,473.207z"/>
<path fill="none" stroke="#231F20" stroke-width="2" stroke-miterlimit="10" d="M437.066,487.959c0,5.708-8.851,5.707-8.851,0
	C428.216,482.249,437.066,482.249,437.066,487.959C437.066,490.402,437.066,485.515,437.066,487.959z"/>
<path fill="none" stroke="#231F20" stroke-width="2" stroke-miterlimit="10" d="M395.027,397.242c0,5.708-8.851,5.708-8.851,0
	C386.177,391.534,395.027,391.534,395.027,397.242z"/>
<path fill="none" stroke="#231F20" stroke-width="2" stroke-miterlimit="10" d="M409.041,405.354c0,4.758-7.377,4.758-7.377,0
	C401.664,400.596,409.041,400.596,409.041,405.354z"/>
<path fill="none" stroke="#231F20" stroke-width="2" stroke-miterlimit="10" d="M395.027,420.843c0,4.759-7.375,4.759-7.375,0
	C387.652,416.083,395.027,416.083,395.027,420.843z"/>
<path fill="none" stroke="#231F20" stroke-width="2" stroke-miterlimit="10" d="M476.892,400.93c0,5.707-8.851,5.707-8.851,0
	C468.041,395.222,476.892,395.222,476.892,400.93C476.892,403.373,476.892,398.486,476.892,400.93z"/>
<path fill="none" stroke="#231F20" stroke-width="2" stroke-miterlimit="10" d="M496.068,406.092c0,5.709-8.851,5.709-8.851,0
	C487.218,400.384,496.068,400.384,496.068,406.092z"/>
<path fill="none" stroke="#231F20" stroke-width="2" stroke-miterlimit="10" d="M480.58,418.631c0,5.707-8.85,5.708-8.85,0
	S480.58,412.923,480.58,418.631z"/>
<path fill="none" stroke="#231F20" stroke-width="2" stroke-miterlimit="10" d="M400.582,432.177
	c31.558,29.69,82.769,31.742,122.296,21.593c-18.772,39.828-73.973,54.03-113.242,57.201c-48.247,3.895-97.112-4.437-143.679-16.549
	c-24.008-6.245-47.695-13.73-71.057-22.065c-10.514-3.751-20.97-7.662-31.368-11.725c-3.966,9.364-9.386,18.088-16.078,25.748
	c-15.193,17.392-37.632,30.374-60.526,34.318c27.313-28.311,48.948-68.53,26.33-106.101c-9.589-15.928-24.917-29.351-41.487-37.754
	c33.082-1.888,64.381,11.021,85.017,37.139c1.495,1.893,2.927,3.835,4.292,5.824c3.04,4.43,4.418,2.185,9.163,0.02
	c10.876-4.961,21.888-9.629,33.025-13.975c20.466-7.985,41.347-14.918,62.583-20.557c88.148-23.403,187.845-23.64,263.008,34.556
	c-7.498,7.997-18.515,12.954-28.761,16.202C467.947,446.245,432.346,441.19,400.582,432.177z"/>
<path fill="none" stroke="#231F20" stroke-width="2" stroke-miterlimit="10" d="M500.098,436.053
	c10.246-3.249,21.262-8.206,28.76-16.202c-29.646-22.954-64.633-37.925-101.425-44.778c-12.057-2.246-24.263-3.658-36.507-4.337
	c-5.615-0.312-8.874,9.512-10.864,14.203c-6.285,14.817-9.359,31.089-10.484,47.088c-0.032,0.463-0.057,0.927-0.086,1.391
	c-26.972-7.086-85.522-18.036-71.513,25.164c11.259,34.716,50.412,8.033,71.226-9.399c0.339,11.446,1.946,22.88,5.412,33.745
	c2.422,7.589,5.829,14.952,10.662,21.319c2.095,2.76,4.457,5.319,7.085,7.579c5.764-0.113,11.524-0.39,17.272-0.854
	c39.27-3.171,94.47-17.373,113.242-57.201c-39.527,10.149-90.738,8.098-122.296-21.593
	C432.346,441.19,467.947,446.245,500.098,436.053z"/>
<path fill="none" stroke="#231F20" stroke-width="2" stroke-miterlimit="10" d="M382.455,437.19c0,0-102.537-34.301-84.477,21.39
	C313.547,506.582,382.455,437.19,382.455,437.19z"/>
</svg>
