<?xml version="1.0" encoding="utf-8"?>
<!-- Generator: Adobe Illustrator 16.0.0, SVG Export Plug-In . SVG Version: 6.00 Build 0)  -->
<!DOCTYPE svg PUBLIC "-//W3C//DTD SVG 1.1//EN" "http://www.w3.org/Graphics/SVG/1.1/DTD/svg11.dtd">
<svg version="1.1" id="Layer_1" xmlns="http://www.w3.org/2000/svg" xmlns:xlink="http://www.w3.org/1999/xlink" x="0px" y="0px"
	 width="612px" height="612px" viewBox="0 90 612 612" enable-background="new 0 90 612 612" xml:space="preserve">
<path fill="none" stroke="#231F20" stroke-width="2" stroke-miterlimit="10" d="M159.567,578.408
	c3.962,0.222,6.368,6.783,1.826,7.912c-5.79,1.716-11.934,2.053-17.921,1.42c-8.801-0.928-7.574-6.05-7.574-12.97
	c0-6.019,0-12.037,0-18.056c0-2.521,0-2.05-1.217-4.14c-2.921-4.997,4.077-6.504,7.371-7.032c4.702-0.723,9.462-0.521,14.202-0.608
	c2.953,0,12.322,2.14,6.686,6.915c-2.728,2.311-7.82,1.243-11.082,1.285c-5.479,0.071-7.709-1.157-7.709,4.376
	c0,3.32-1.334,5.548,2.435,5.548c3.583,0,9.754-1.932,13.018-0.203c3.953,2.093,1.616,6.939-1.792,7.717
	c-4.355,0.994-9.221,0.88-13.659,0.668c0,2.653,0,5.307,0,7.961C144.148,581.188,157.971,578.701,159.567,578.408z"/>
<path fill="none" stroke="#231F20" stroke-width="2" stroke-miterlimit="10" d="M196.624,600.995
	c-1.258,6.596-7.748,3.971-7.98-1.521c-0.167-3.921,0.5-8.226-0.27-12.071c-23.273,6.001-26.229-29.914-3.381-31.513
	c11.625-1.156,11.656,4.647,11.673,14.387C196.683,580.516,196.62,590.756,196.624,600.995z"/>
<path fill="none" stroke="#231F20" stroke-width="2" stroke-miterlimit="10" d="M177.216,576.515
	c0.975,4.387,6.708,3.584,9.864,2.62c2.518-0.771,1.293-5.927,1.293-8.225c0-3.69,1.398-6.704-3.179-6.704
	C177.917,564.206,176.48,570.471,177.216,576.515C177.487,577.731,177.035,575.026,177.216,576.515z"/>
<path fill="none" stroke="#231F20" stroke-width="2" stroke-miterlimit="10" d="M231.721,581.519
	c1.687,2.439,0.456,6.796-2.975,6.627c-3.892-0.302-3.175-4.577-6.646-2.356c-6.668,4.269-14.581,1.837-18.239-5.015
	c-2.997-5.724-1.487-12.741-1.487-18.901c0-2.202,0.703-5.146,3.381-5.546c5.147-0.751,5.005,4.792,4.853,8.181
	c-0.163,3.616-1.975,15.505,4.555,15.295c7.527-0.242,5.606-9.364,5.74-14.041c0-2.858,0.034-7.425,3.026-9.002
	c3.158-1.664,5.765,1.324,5.765,4.404C229.692,567.898,227.447,575.493,231.721,581.519
	C232.126,582.105,230.954,580.437,231.721,581.519z"/>
<path fill="none" stroke="#231F20" stroke-width="2" stroke-miterlimit="10" d="M265.397,581.519
	c1.687,2.439,0.455,6.796-2.976,6.627c-3.892-0.302-3.175-4.577-6.646-2.356c-6.668,4.269-14.58,1.837-18.239-5.015
	c-2.998-5.723-1.487-12.742-1.487-18.901c0-2.201,0.703-5.146,3.381-5.546c5.146-0.751,5.006,4.792,4.854,8.181
	c-0.163,3.616-1.976,15.505,4.554,15.295c7.527-0.242,5.606-9.364,5.74-14.041c0-2.858,0.033-7.425,3.026-9.002
	c3.159-1.664,5.765,1.323,5.765,4.404C263.368,567.899,261.125,575.49,265.397,581.519
	C265.803,582.105,264.63,580.437,265.397,581.519z"/>
<path fill="none" stroke="#231F20" stroke-width="2" stroke-miterlimit="10" d="M270.062,582.263
	c-1.029-2.912,0.464-6.438,3.99-6.084c2.778,0.254,4.297,3.617,6.965,4.463c2.154,0.678,7.615-0.189,4.599-3.72
	c-1.946-1.944-5.446-2.009-7.896-3.068c-16.275-7.032,0.954-27.632,13.305-16.998c2.004,1.726,2.767,5.944-0.278,7.101
	c-3.483,1.322-6.708-2.672-10.271-1.302c-5.84,1.47,9.14,6.869,9.839,7.305c7.506,4.676,3.878,16.926-3.746,19.163
	C280.574,590.881,273.387,587.283,270.062,582.263z"/>
<path fill="none" stroke="#231F20" stroke-width="2" stroke-miterlimit="10" d="M336.94,587.604
	c-7.211,8.866-7.167-9.292-7.167-11.597c0-2.897,0-5.795,0-8.693c0,1.307-3.916-2.725-3.889-2.667
	c-1.43-2.954,1.016-5.5,3.821-5.715c-0.354-10.87,5.129-24.006,18.63-16.636c5.897,3.214,1.92,10.279-4.158,7.235
	c-7.004-2.537-6.153,3.806-6.153,9.13c3.32-0.217,9.651-1.438,10.617,3.211c1.182,5.692-7.419,5.106-10.617,5.106
	C338.025,572.128,340.384,583.361,336.94,587.604C336.354,588.326,337.526,586.883,336.94,587.604z"/>
<path fill="none" stroke="#231F20" stroke-width="2" stroke-miterlimit="10" d="M375.554,577.731
	c5.331-1.331,6.842,4.229,3.211,7.151c-3.411,2.747-9.201,4.107-13.466,4.107c-11.656,0-16.639-12.533-13.517-22.366
	c2.881-9.067,18.538-15.367,25.292-7.049c9.588,11.816-9.158,16.641-16.805,19.104C364.318,583.305,371.236,580.153,375.554,577.731
	z"/>
<path fill="none" stroke="#231F20" stroke-width="2" stroke-miterlimit="10" d="M361.894,566.1
	c-2.251,1.273-3.031,3.436-3.382,5.883c2.229-0.684,12.782-2.315,12.782-5.681C371.294,562.028,363.832,564.883,361.894,566.1z"/>
<path fill="none" stroke="#231F20" stroke-width="2" stroke-miterlimit="10" d="M387.929,565.932
	c0.451-2.984-3.911-3.658-2.062-7.236c1.742-3.358,5.96-2.227,8.283-0.371c4.924-3.743,12.086-5.223,16.703-0.035
	c1.741,1.956,1.533,5.516-0.946,6.83c-2.806,1.49-4.181-0.939-6.29-1.995c-5.432-1.355-7.505,4.474-7.505,8.328
	c0,4.167,0,8.335,0,12.503c0,5.869-8.25,7.149-8.25,1.079C386.346,580.395,387.18,570.782,387.929,565.932
	C387.973,565.639,387.884,566.226,387.929,565.932z"/>
<path fill="none" stroke="#231F20" stroke-width="2" stroke-miterlimit="10" d="M445.003,581.519
	c1.686,2.44,0.455,6.795-2.977,6.627c-3.892-0.302-3.175-4.577-6.645-2.356c-6.667,4.267-14.583,1.839-18.24-5.015
	c-2.997-5.722-1.489-12.742-1.489-18.901c0-2.202,0.703-5.146,3.382-5.546c5.146-0.751,5.007,4.792,4.854,8.181
	c-0.164,3.615-1.976,15.505,4.554,15.295c7.527-0.242,5.605-9.364,5.74-14.041c0-2.858,0.032-7.426,3.025-9.002
	c3.158-1.663,5.767,1.322,5.767,4.404C442.975,567.898,440.729,575.493,445.003,581.519
	C445.408,582.105,444.235,580.437,445.003,581.519z"/>
<path fill="none" stroke="#231F20" stroke-width="2" stroke-miterlimit="10" d="M449.667,582.263
	c-1.027-2.912,0.462-6.438,3.99-6.084c2.778,0.254,4.296,3.618,6.965,4.463c2.149,0.677,7.623-0.194,4.599-3.72
	c-1.944-1.945-5.446-2.009-7.895-3.068c-16.275-7.034,0.956-27.633,13.306-16.998c2.004,1.726,2.766,5.943-0.28,7.101
	c-3.481,1.322-6.707-2.673-10.269-1.302c-5.841,1.465,9.141,6.87,9.838,7.305c7.507,4.674,3.879,16.926-3.745,19.163
	C460.18,590.881,452.994,587.283,449.667,582.263z"/>
<path fill="none" stroke="#231F20" stroke-width="2" stroke-miterlimit="10" d="M243.748,645.576
	c2.358,4.552-2.723,6.136-5.561,3.499c-2.599-2.413-4.129-6.177-5.269-9.463c-3.662-10.552-1.613-20.992,3.702-30.453
	c3.262-5.793,9.836-2.894,5.681,2.841c-2.161,2.979-3.626,6.026-4.337,9.629C236.382,629.648,236.918,640.026,243.748,645.576z"/>
<path fill="none" stroke="#231F20" stroke-width="2" stroke-miterlimit="10" d="M253.436,642.913
	c-6.642,4.801-4.869-18.432-4.869-20.784c0-3.265,0-6.529,0-9.794c0-2.625,4.4-4.644,5.769-1.971
	c1.488,2.907,0.482,8.303,0.418,11.475c7.778-5.257,14.518,1.35,15.107,9.295c0.228,3.071-0.045,6.146-0.045,9.218
	c0,6.338-6.733,2.394-6.465-2.967c0.46-9.474-1.172-13.917-8.596-6.519C253.466,634.08,256.845,640.436,253.436,642.913
	C252.758,643.402,254.111,642.423,253.436,642.913z"/>
<path fill="none" stroke="#231F20" stroke-width="2" stroke-miterlimit="10" d="M273.214,629.752
	c3.202-13.301,21.484-14.653,21.733,0.686C295.236,648.258,268.776,648.027,273.214,629.752z"/>
<path fill="none" stroke="#231F20" stroke-width="2" stroke-miterlimit="10" d="M279.301,630.817
	c-1.464,7.809,6.432,9.686,9.027,2.294C291.266,624.743,281.811,622.556,279.301,630.817
	C279.199,631.358,279.537,630.04,279.301,630.817z"/>
<path fill="none" stroke="#231F20" stroke-width="2" stroke-miterlimit="10" d="M299.587,626.227
	c0.202-1.32-4.702-8.941,2.257-6.922c4.718,1.378,10.316-4.008,14.937,1.191c1.3,1.461,1.133,4.146-0.71,5.123
	c-1.989,1.057-3.163-0.717-4.716-1.497c-3.108-0.772-5.629,2.675-5.629,5.267c0,3.318,0,6.637,0,9.955
	c0,4.269-6.187,6.338-6.187,1.211C298.349,637.196,299.038,629.774,299.587,626.227
	C299.621,626.008,299.553,626.447,299.587,626.227z"/>
<path fill="none" stroke="#231F20" stroke-width="2" stroke-miterlimit="10" d="M318.81,638.475
	c-1.519-4.291,3.052-5.597,5.604-2.891c4.638,4.955,9.167-1.163,3.955-2.231c-14.492-2.948-8.227-20.311,5.097-14.606
	c1.92,0.881,3.359,3.581,1.699,5.426c-1.764,1.96-4.912-0.304-6.821-0.532c-1.309-0.154-2.925,0.283-2.612,1.953
	c0.325,1.724,6.831,2.757,8.269,3.65C344.474,635.759,328.062,651.49,318.81,638.475z"/>
<path fill="none" stroke="#231F20" stroke-width="2" stroke-miterlimit="10" d="M359.129,635.076
	c4.786-1.195,4.875,4.203,1.369,6.035c-3.762,1.962-8.857,3.342-12.971,1.686c-6.82-2.745-8.514-11.382-5.643-17.561
	c3.115-6.422,15.491-9.814,19.305-2.378c4.515,8.803-8.054,11.165-13.523,12.926C350.621,639.161,355.993,637.001,359.129,635.076z"
	/>
<path fill="none" stroke="#231F20" stroke-width="2" stroke-miterlimit="10" d="M348.884,626.354
	c-1.765,0.999-2.273,2.579-2.536,4.413c1.587-0.487,9.587-1.852,9.587-4.26C355.935,623.312,350.363,625.361,348.884,626.354z"/>
<path fill="none" stroke="#231F20" stroke-width="2" stroke-miterlimit="10" d="M364.963,644.917
	c6.128-6.143,6.993-15.94,5.033-24.109c-0.952-3.967-3.108-7.135-5.363-10.455c-3.18-4.676,3.854-5.388,6.49-1.432
	c5.997,8.994,7.583,19.699,4.235,30.113c-1.183,3.549-3.887,11.462-8.724,11.462C363.394,650.496,362.988,646.752,364.963,644.917z"
	/>
<path fill="none" stroke="#231F20" stroke-width="2" stroke-miterlimit="10" d="M204.636,308.859
	c-13.864,11.131-34.214,1.046-39.498-14.532c-6.082-17.934,15.733-34.968,32.276-29.383c12.5,4.221,19.647,16.598,16.075,29.467
	C211.649,301.039,208.493,305.763,204.636,308.859z"/>
<path fill="none" stroke="#231F20" stroke-width="2" stroke-miterlimit="10" d="M177.506,282.068
	c-1.7-13.16,13.938-20.554,23.014-10.801c8.069,8.674,1.181,23.977-11.02,21.917C183.377,292.151,178.356,288.641,177.506,282.068z"
	/>
<path fill="none" stroke="#231F20" stroke-width="2" stroke-miterlimit="10" d="M187.001,275.656
	c-2.903-3.303,0.306-8.904,4.707-7.84c3.521,0.853,5.642,4.835,3.02,7.444C192.543,277.434,189.257,278.224,187.001,275.656z"/>
<path fill="none" stroke="#231F20" stroke-width="2" stroke-miterlimit="10" d="M123.15,325.632
	c21.026-6.692-14.642-32.126-12.212-8.897C111.637,323.413,116.301,327.81,123.15,325.632z"/>
<path fill="none" stroke="#231F20" stroke-width="2" stroke-miterlimit="10" d="M181.065,445.784
	c-1.084,2.417-1.807,5.422-2.093,9.169c-0.628,8.202,1.817,16.162-11.488,12.636c-7.467-1.976-11.575-11.292-14.455-18.108
	c-0.841-1.991-1.512-4.097-1.99-6.271c6.646,3.141,17.985,3.084,22.043,3.077C175.093,446.285,178.405,445.671,181.065,445.784z"/>
<path fill="none" stroke="#231F20" stroke-width="2" stroke-miterlimit="10" d="M254.847,503.985
	c-1.683,3.266-3.461,6.477-5.368,9.617c-7.048,11.61-25.403,16.065-28.655-0.503c-1.143-5.812,0.708-11.506,3.044-17.166
	c5.829,4.565,17.898,6.414,22.096,7.073C248.192,503.355,252.163,503.201,254.847,503.985z"/>
<path fill="none" stroke="#231F20" stroke-width="2" stroke-miterlimit="10" d="M371.201,492.846
	c-2.22,6.833-4.972,12.973-8.479,17.222c-4.695,5.695-10.989,6.269-16.274,0.174c-5.42-6.252-4.517-11.584-4.547-19.855
	c6.675,3.035,17.809,2.98,21.821,2.973C365.61,493.355,368.64,492.815,371.201,492.846z"/>
<path fill="none" stroke="#231F20" stroke-width="2" stroke-miterlimit="10" d="M424.616,502.429
	c-2.86,7.481-6.44,14.272-11.057,18.883c-5.748,5.743-13.378,6.38-19.723,0.336c-6.553-6.249-5.337-11.631-5.311-20.012
	c0.006-1.481-0.003-2.96-0.027-4.445c5.89,4.566,19.8,4.499,24.391,4.491c2.898-0.005,8.497-1.28,10.957,0.191
	C424.125,502.042,424.381,502.224,424.616,502.429z"/>
<path fill="none" stroke="#231F20" stroke-width="2" stroke-miterlimit="10" d="M138.765,371.258
	c-35.326,12.697-57.695-34.678-47.132-64.56c5.909-16.715,22.774-20.217,38.322-12.008c17.666,9.327,37.671,61.898,14.471,74.065
	C142.504,369.762,140.617,370.593,138.765,371.258z"/>
<path fill="none" stroke="#231F20" stroke-width="2" stroke-miterlimit="10" d="M528.138,341.083
	c-1.041-10.785-10.964-18.854-21.47-19.442c-5.672-0.452-12.125,2.378-17.7,3.42c-8.265,1.544-16.626,2.658-25.015,3.26
	c-8.339,0.599-16.72,0.605-25.059,0.001c-3.471-0.252-9.318,1.266-9.318-3.005c0-13.172,0-26.344,0-39.516
	c17.875,0.857,36.012,0.51,53.822-1.238c10.002-0.981,23.749-1.714,29.928-11.029c5.534-8.343,4.258-20.248-3.034-27.181
	c-8.356-7.948-21.858-4.12-32.026-3.495c-12.132,1.011-24.336,2.031-36.518,2.031c-1.784,0-12.173,0.646-12.173-1.026
	c0-1.622,0-3.243,0-4.864c0-5.983,0-11.967,0-17.95c0-6.345,0-12.688,0-19.033c0-1.386,0-2.771,0-4.157
	c0-0.911,11.435-1.549,12.847-1.661c13.775-1.087,27.69-1.095,41.501-1.006c11.885,0.077,24.876,2.083,35.813-3.794
	c11.028-5.927,12.679-19.591,5.528-29.351c-7.002-9.534-17.582-8.908-28.064-8.081c-26.071,2.056-52.117-0.65-78.105,3.346
	c-11.307,1.812-23.557,3.093-32.798,10.482c-8.577,6.433-8.812,18.338-2.792,26.626c2.447,3.371,4.819,3.477,4.819,7.357
	c0,2.977,0,5.955,0,8.931c0,11.037,0,22.074,0,33.111c0,26.313,0,52.626,0,78.939c-11.427-3.086-23.559-4.851-35.826-5.685
	c0.409-1.414,0.576-2.852,0.423-4.291c-1.843,0.473-3.434,0.237-5.188,0.99c7.483-4.64,9.309-18.79-0.088-23.217
	c-4.822,5.473-5.548,14.479-15.994,14.18c-26.298-0.752-44.132-48.549-63.664-62.731c-5.878-4.269-12.294-8.15-18.981-11.461
	c-2.29-8.368-5.405-16.352-7.553-22.559c0,0,0,0,0,0v0c-0.201-0.587-0.397-1.159-0.581-1.714c-5.679,4.01-10.254,9.75-14.649,15.721
	c-2.766-0.704-5.531-1.296-8.278-1.734c-10.16-1.619-26.931-23.372-31.05-0.106c-2.276-3.528-11.425-13.05-16.02-10.854
	c-7.721,3.691-0.773,14.435,3.75,17.474c-5.515,0.168-14.317-1.574-16.88,4.093c-3.274,7.242,6.062,4.981,10.02,9.203
	c-7.518,3.759-18.683,18.578-4.876,18.492c-12.667,8.924-24.926,18.533-39.557,24.574c-4.689,1.937-9.112,4.501-13.088,7.571
	c-8.256,1.193-15.227,6.424-18.608,15.988c-10.563,29.881,11.806,77.256,47.132,64.56c1.852-0.665,3.74-1.496,5.661-2.503
	c2.159-1.132,3.942-2.615,5.39-4.38c8.583-1.919,16.667-5.134,25.761-6.932c5.806-1.147,11.547-1.945,17.24-2.805
	c3.286-0.497,6.555-1.017,9.816-1.634c-3.838,14.73-8.587,31.596-6.682,45.683c-10.542,4.978-25.882,6.578-32.384,10.644
	c-12.001,7.506-15.216,21.724-12.528,33.879c0.478,2.175,1.148,4.28,1.99,6.271c2.879,6.816,6.988,16.133,14.455,18.108
	c13.306,3.526,10.86-4.434,11.488-12.636c0.287-3.747,1.009-6.752,2.093-9.169c5.732-12.781,21.593-9.103,36.906-11.56
	c0.08-0.013,0.163-0.027,0.243-0.041c1.624,2.523,3.271,5.004,4.35,7.433c5.021,11.312,7.857,22.946,7.448,35.056
	c-0.219,6.463-3.493,12.839-6.145,19.264c-2.335,5.659-4.188,11.353-3.044,17.166c2.845,14.497,17.255,12.897,25.535,4.492
	c0.027-0.027,0.053-0.058,0.08-0.086c0.267-0.273,0.53-0.552,0.783-0.84c0.838-0.951,1.598-1.977,2.259-3.065
	c0.752-1.238,1.47-2.497,2.184-3.756c0.235-0.414,0.479-0.822,0.709-1.238c0.848-1.528,1.674-3.068,2.476-4.623c0,0,0,0-0.001,0
	c7.711-14.952,13.451-31.019,20.421-46.461c10.545,0.612,21.122,0.842,31.62,2.956c12.425,2.502,22.043,4.88,33.661,4.881
	c0.905,8.255,1.31,16.587,1.354,24.833c0.001,0.062,0,0.128,0,0.191c0.03,8.271-0.873,13.604,4.547,19.855
	c5.285,6.095,11.579,5.521,16.274-0.174c3.507-4.249,6.259-10.389,8.479-17.222c3.344-10.3,5.47-22.174,7.115-31.529
	c1.96-0.309,3.921-0.632,5.88-0.988c2.516,10.545,3.775,21.426,4.179,32.267c0.01,0.18,0.015,0.363,0.02,0.543
	c0.049,1.353,0.082,2.703,0.104,4.056c0.025,1.485,0.034,2.964,0.027,4.444c-0.026,8.382-1.242,13.764,5.312,20.012
	c6.343,6.044,13.974,5.408,19.722-0.335c4.616-4.611,8.198-11.403,11.058-18.884c4.389-11.476,7.078-24.582,9.19-33.952
	c2.64-11.698,5.688-23.228,7.28-34.933c0.947-1.042,1.874-2.106,2.763-3.227c5.298-6.684,8.62-14.289,10.177-22.239
	c-0.332,6.751-1.134,13.499-1.387,19.688c-0.763,18.645,5.22,59.172,29.383,60.397c-3.283-5.812,2.599-10.029,1.779-16.37
	c6.746,6.159,7.979,10.601,19.033,8.728c6.911-1.172,17.101-5.196,15.765-13.688c-3.757,0.263-4.27-0.655-7.56-2.863
	c13.243-2.252,22.323-22.439,11.7-31.912c-5.566,7.543-16.317,23.688-26.492,8.299c-6.272-9.489,2.138-28.133-0.472-40.189
	c-2.219-10.26-7.701-22.289-15.195-31.857c8.72-0.99,17.372-2.496,25.887-4.585C517.836,360.938,529.489,355.033,528.138,341.083z
	 M202.291,244.536c-6.725-1.772-13.664-1.512-20.146,1.895c-2.405,1.265-4.751,2.62-7.062,4.032
	c1.258-1.359,2.558-2.638,4.032-3.592c6.859-4.442,15.875-4.605,25.32-2.286C203.719,244.556,203.003,244.533,202.291,244.536z
	 M435.153,349.182c-0.379-0.409-0.764-0.811-1.15-1.21C434.39,348.371,434.774,348.772,435.153,349.182z M433.336,347.283
	c-0.431-0.435-0.87-0.859-1.31-1.283C432.467,346.424,432.905,346.849,433.336,347.283z M431.467,345.458
	c-0.625-0.589-1.259-1.167-1.901-1.734C430.208,344.291,430.842,344.87,431.467,345.458z M400.305,326.609
	c-0.002-0.001-0.005-0.002-0.008-0.003C400.3,326.607,400.303,326.608,400.305,326.609z M418.139,335.285
	c-0.299-0.185-0.603-0.365-0.904-0.547C417.536,334.919,417.84,335.1,418.139,335.285z M415.9,333.942
	c-0.169-0.097-0.34-0.19-0.509-0.287C415.561,333.751,415.731,333.845,415.9,333.942z M409.723,330.66
	c-0.137-0.067-0.273-0.136-0.41-0.203C409.449,330.523,409.586,330.593,409.723,330.66z M407.507,329.611
	c-0.169-0.077-0.337-0.156-0.506-0.232C407.17,329.456,407.338,329.534,407.507,329.611z M405.164,328.57
	c-0.157-0.068-0.314-0.136-0.473-0.203C404.85,328.434,405.007,328.502,405.164,328.57z M402.758,327.566
	c-0.112-0.045-0.226-0.09-0.338-0.135C402.532,327.477,402.646,327.521,402.758,327.566z M423.546,338.912
	c0.364,0.265,0.726,0.535,1.085,0.805C424.271,339.447,423.91,339.177,423.546,338.912z M419.34,336.045
	c0.334,0.214,0.667,0.428,0.997,0.646C420.007,336.473,419.673,336.259,419.34,336.045z M421.456,337.443
	c0.35,0.238,0.697,0.479,1.043,0.723C422.153,337.922,421.806,337.681,421.456,337.443z M429.086,343.313
	c-0.49-0.425-0.981-0.848-1.481-1.26C428.104,342.466,428.596,342.888,429.086,343.313z M426.764,341.376
	c-0.387-0.312-0.774-0.623-1.167-0.926C425.989,340.753,426.377,341.064,426.764,341.376z"/>
<path fill="none" stroke="#231F20" stroke-width="2" stroke-miterlimit="10" d="M347.732,313.776
	c7.483-4.64,9.309-18.79-0.088-23.217c-4.822,5.473-5.548,14.479-15.994,14.18c-26.298-0.752-44.132-48.549-63.664-62.731
	c-5.878-4.269-12.294-8.15-18.981-11.461c-2.29-8.368-5.405-16.352-7.553-22.559c0,0,0,0,0,0v0
	c-0.201-0.587-0.397-1.159-0.581-1.714c-5.679,4.01-10.254,9.75-14.649,15.721c-2.766-0.704-5.531-1.296-8.278-1.734
	c-10.16-1.619-26.931-23.372-31.05-0.106c-2.276-3.528-11.425-13.05-16.02-10.854c-7.721,3.691-0.773,14.435,3.75,17.474
	c-5.515,0.168-14.317-1.574-16.88,4.093c-3.274,7.242,6.062,4.981,10.02,9.203c-7.57,3.785-18.852,18.792-4.598,18.495
	c7.385-0.154,10.468-8.148,15.95-11.698c7.102-4.6,16.514-4.621,26.323-2.039c-0.246,0.147-0.487,0.3-0.737,0.44l19.382,14.298
	l0.001,0.001c1.105,6.799,4.38,12.119,10.775,14.223l3.363-3.793l0.002,0.001l3.365,3.422c0.331,0.009,1.911-2.113,3.335-4
	c0.491-0.501,0.951-1.017,1.383-1.547c2.378,2.159,4.427,4.267,6.058,6.233c8.463,10.201,17.91,21.11,23.109,33.265
	c7.273,17.006,10.93,17.093,27.925,13.274c-1.04,9.96-8.215,22.039,8.769,17.429c7.787-2.113,14.978-9.945,18.646-16.827
	c-1.294,4.145-1.791,8.734-0.932,13.337c8.913-0.943,24.152-11.373,23.039-21.802C351.078,313.259,349.487,313.023,347.732,313.776z
	"/>
<path fill="none" stroke="#231F20" stroke-width="2" stroke-miterlimit="10" d="M251.321,241.187
	c-1.811-11.991-6.819-24.384-9.869-33.198c0,0,0,0,0,0v0c-0.201-0.587-0.397-1.159-0.581-1.714
	c-14.149,9.991-21.45,30.72-36.17,38.997l19.382,14.298l0.001,0.001c1.105,6.799,4.38,12.119,10.775,14.223l3.363-3.793l0.002,0.001
	l3.365,3.422c0.331,0.009,1.911-2.113,3.335-4c0.889-0.908,1.691-1.86,2.394-2.862C252.203,259.596,252.729,250.513,251.321,241.187
	z"/>
<path fill="none" stroke="#231F20" stroke-width="2" stroke-miterlimit="10" d="M247.317,266.562
	c-0.544,0.067-5.136,6.878-5.729,6.861L238.222,270l-3.363,3.794c-6.396-2.104-9.67-7.424-10.775-14.224
	c-2.748-16.891,7.887-42.925,17.368-51.581C246.874,223.657,258.485,250.639,247.317,266.562z"/>
<path fill="none" stroke="#231F20" stroke-width="2" stroke-miterlimit="10" d="M450.535,373.82
	c-15.896-40.306-56.202-53.9-98.037-56.743c0.101-0.348,0.187-0.697,0.256-1.047c0.002-0.009,0.004-0.018,0.006-0.027
	c0.063-0.326,0.113-0.652,0.148-0.979c0.004-0.038,0.01-0.075,0.014-0.112c0.029-0.298,0.043-0.598,0.047-0.897
	c0.001-0.06,0.007-0.12,0.007-0.18c-0.001-0.35-0.018-0.699-0.055-1.049c-1.843,0.473-3.434,0.237-5.188,0.99
	c7.483-4.64,9.309-18.79-0.088-23.217c-4.822,5.473-5.548,14.479-15.994,14.18c-26.298-0.752-44.132-48.549-63.664-62.731
	c-5.878-4.269-12.294-8.15-18.981-11.461c-2.29-8.368-5.405-16.352-7.553-22.559c0,0,0,0,0,0v0
	c-0.201-0.587-0.397-1.159-0.581-1.714c-5.679,4.01-10.254,9.75-14.649,15.721c-2.766-0.704-5.531-1.296-8.278-1.734
	c-10.16-1.619-26.931-23.372-31.05-0.106c-2.276-3.528-11.425-13.05-16.02-10.854c-7.721,3.691-0.773,14.435,3.75,17.474
	c-5.515,0.168-14.317-1.574-16.88,4.093c-3.274,7.242,6.062,4.981,10.02,9.203c-0.236,0.118-0.475,0.247-0.717,0.385
	c-0.104,0.06-0.21,0.128-0.315,0.191c-0.139,0.084-0.277,0.164-0.418,0.254c-0.116,0.074-0.233,0.157-0.35,0.235
	c-0.131,0.088-0.263,0.173-0.395,0.267c-0.137,0.097-0.275,0.202-0.413,0.304c-0.111,0.083-0.223,0.161-0.334,0.247
	c-0.155,0.119-0.31,0.246-0.465,0.37c-0.095,0.077-0.19,0.149-0.285,0.227c-0.172,0.143-0.342,0.292-0.513,0.44
	c-0.076,0.066-0.153,0.129-0.229,0.196c-0.185,0.165-0.368,0.335-0.551,0.506c-0.061,0.056-0.122,0.11-0.182,0.167
	c-0.205,0.195-0.407,0.395-0.608,0.597c-0.035,0.035-0.072,0.069-0.107,0.105c-0.216,0.219-0.428,0.442-0.637,0.668
	c-0.019,0.021-0.039,0.041-0.058,0.061c-5.252,5.697-8.222,13.326,1.689,13.269c0.003,0,0.006,0,0.01,0
	c-12.667,8.924-24.926,18.533-39.557,24.574c-4.689,1.937-9.112,4.501-13.088,7.571c-8.256,1.193-15.227,6.424-18.608,15.988
	c-10.563,29.881,11.806,77.256,47.132,64.56c1.852-0.665,3.74-1.496,5.661-2.503c2.159-1.132,3.942-2.615,5.39-4.38
	c8.583-1.919,16.667-5.134,25.761-6.932c5.806-1.147,11.547-1.945,17.24-2.805c3.286-0.497,6.555-1.017,9.816-1.634
	c-5.016,19.253-11.604,42.158-2.833,57.731c2.038,3.625,4.908,6.848,8.821,9.541c1.428,0.98,2.922,1.857,4.466,2.639
	c0.756,6.471,6.826,12.737,9.476,18.701c5.021,11.312,7.857,22.946,7.448,35.056c-0.219,6.463-3.493,12.839-6.145,19.264
	c-2.335,5.659-4.188,11.353-3.044,17.166c3.251,16.567,21.607,12.112,28.655,0.502c1.908-3.14,3.686-6.352,5.368-9.617
	c7.711-14.952,13.451-31.02,20.422-46.462c10.545,0.612,21.122,0.842,31.62,2.956c15.765,3.174,26.997,6.167,43.55,4.33
	c10.722-1.189,22.294-2.396,33.76-4.482c2.516,10.545,3.775,21.426,4.179,32.267c0.01,0.18,0.015,0.363,0.02,0.543
	c0.049,1.353,0.082,2.703,0.104,4.056c0.025,1.485,0.034,2.964,0.027,4.444c-0.026,8.382-1.242,13.764,5.312,20.012
	c6.343,6.044,13.974,5.408,19.722-0.335c4.616-4.611,8.198-11.403,11.058-18.884c4.389-11.476,7.078-24.582,9.19-33.952
	c2.64-11.698,5.688-23.228,7.28-34.933c0.947-1.042,1.874-2.106,2.763-3.227C456.658,414.162,457.951,392.621,450.535,373.82z
	 M202.291,244.536c-6.725-1.772-13.664-1.512-20.146,1.895c-2.405,1.265-4.751,2.62-7.062,4.032
	c0.001-0.001,0.001-0.001,0.002-0.002c0.268-0.289,0.539-0.572,0.812-0.851c0.06-0.061,0.119-0.124,0.179-0.185
	c0.24-0.242,0.484-0.475,0.73-0.706c0.085-0.08,0.168-0.163,0.255-0.241c0.241-0.218,0.488-0.424,0.736-0.628
	c0.091-0.074,0.179-0.155,0.271-0.228c0.34-0.267,0.687-0.52,1.046-0.752c0.569-0.369,1.159-0.697,1.756-1.008
	c0.154-0.08,0.309-0.158,0.465-0.234c0.571-0.28,1.151-0.541,1.745-0.771c0.044-0.018,0.087-0.037,0.131-0.054
	c0.606-0.23,1.228-0.427,1.856-0.608c0.2-0.058,0.401-0.113,0.604-0.166c0.539-0.141,1.084-0.266,1.637-0.374
	c0.191-0.037,0.383-0.074,0.576-0.107c0.555-0.096,1.118-0.172,1.686-0.236c0.281-0.031,0.563-0.059,0.847-0.083
	c0.438-0.037,0.879-0.062,1.324-0.081c0.454-0.02,0.911-0.03,1.371-0.032c0.401-0.001,0.803,0,1.208,0.011
	c0.388,0.012,0.779,0.029,1.171,0.052c0.291,0.017,0.583,0.041,0.876,0.064c0.785,0.063,1.576,0.147,2.373,0.254
	c0.18,0.024,0.359,0.045,0.54,0.071c0.499,0.073,1,0.154,1.502,0.243c0.144,0.025,0.288,0.054,0.431,0.081
	c1.067,0.198,2.141,0.426,3.221,0.691C203.719,244.556,203.003,244.533,202.291,244.536z"/>
<path fill="none" stroke="#231F20" stroke-width="2" stroke-miterlimit="10" d="M522.74,432.061
	c-5.566,7.543-16.317,23.688-26.492,8.299c-6.272-9.489,2.138-28.133-0.472-40.189c-3.688-17.058-16.392-39.015-32.379-46.403
	c-6.212-2.87-17.346-3.315-27.971-4.298c-19.976-21.785-51.004-30.222-82.929-32.392c0.409-1.414,0.576-2.852,0.423-4.291
	c-1.843,0.473-3.434,0.237-5.188,0.99c7.483-4.64,9.309-18.79-0.088-23.217c-4.822,5.473-5.548,14.479-15.994,14.18
	c-26.298-0.752-44.132-48.549-63.664-62.731c-5.878-4.269-12.294-8.15-18.981-11.461c-2.29-8.368-5.405-16.352-7.553-22.559
	c0,0,0,0,0,0v0c-0.201-0.587-0.397-1.159-0.581-1.714c-5.679,4.01-10.254,9.75-14.649,15.721c-2.766-0.704-5.531-1.296-8.278-1.734
	c-10.16-1.619-26.931-23.372-31.05-0.106c-2.276-3.528-11.425-13.05-16.02-10.854c-7.721,3.691-0.773,14.435,3.75,17.474
	c-5.515,0.168-14.317-1.574-16.88,4.093c-3.274,7.242,6.062,4.981,10.02,9.203c-7.518,3.759-18.683,18.578-4.876,18.492
	c-12.667,8.924-24.926,18.533-39.557,24.574c-4.689,1.937-9.112,4.501-13.088,7.571c-8.256,1.193-15.227,6.424-18.608,15.988
	c-10.563,29.881,11.806,77.256,47.132,64.56c1.852-0.665,3.74-1.496,5.661-2.503c2.159-1.132,3.942-2.615,5.39-4.38
	c8.583-1.919,16.667-5.134,25.761-6.932c5.806-1.147,11.547-1.945,17.24-2.805c3.286-0.497,6.555-1.017,9.816-1.634
	c-3.838,14.73-8.587,31.596-6.682,45.683c-10.542,4.978-25.882,6.578-32.384,10.644c-12.001,7.506-15.216,21.724-12.528,33.879
	c0.478,2.175,1.148,4.28,1.99,6.271c2.879,6.816,6.988,16.133,14.455,18.108c13.306,3.526,10.86-4.434,11.488-12.636
	c0.287-3.747,1.009-6.752,2.093-9.169c5.732-12.781,21.593-9.103,36.906-11.56c0.08-0.013,0.163-0.027,0.243-0.041
	c1.624,2.523,3.271,5.004,4.35,7.433c5.021,11.312,7.857,22.946,7.448,35.056c-0.219,6.463-3.493,12.839-6.145,19.264
	c-2.335,5.659-4.188,11.353-3.044,17.166c2.845,14.497,17.255,12.897,25.535,4.492c0.027-0.027,0.053-0.058,0.08-0.086
	c0.267-0.273,0.53-0.552,0.783-0.84c0.838-0.951,1.598-1.977,2.259-3.065c0.752-1.238,1.47-2.497,2.184-3.756
	c0.235-0.414,0.479-0.822,0.709-1.238c0.848-1.528,1.674-3.068,2.476-4.623c0,0,0,0-0.001,0
	c7.711-14.952,13.451-31.019,20.421-46.461c10.545,0.612,21.122,0.842,31.62,2.956c12.425,2.502,22.043,4.88,33.661,4.881
	c0.905,8.255,1.31,16.587,1.354,24.833c0.001,0.062,0,0.128,0,0.191c0.03,8.271-0.873,13.604,4.547,19.855
	c5.285,6.095,11.579,5.521,16.274-0.174c3.507-4.249,6.259-10.389,8.479-17.222c3.344-10.3,5.47-22.174,7.115-31.529
	c1.96-0.309,3.921-0.632,5.88-0.988c2.516,10.545,3.775,21.426,4.179,32.267c0.01,0.18,0.015,0.363,0.02,0.543
	c0.049,1.353,0.082,2.703,0.104,4.056c0.025,1.485,0.034,2.964,0.027,4.444c-0.026,8.382-1.242,13.764,5.312,20.012
	c6.343,6.044,13.974,5.408,19.722-0.335c4.616-4.611,8.198-11.403,11.058-18.884c4.389-11.476,7.078-24.582,9.19-33.952
	c2.64-11.698,5.688-23.228,7.28-34.933c0.947-1.042,1.874-2.106,2.763-3.227c5.298-6.684,8.62-14.289,10.177-22.239
	c-0.332,6.751-1.134,13.499-1.387,19.688c-0.763,18.645,5.22,59.172,29.383,60.397c-3.283-5.812,2.599-10.029,1.779-16.37
	c6.746,6.159,7.979,10.601,19.033,8.728c6.911-1.172,17.101-5.196,15.765-13.688c-3.757,0.263-4.27-0.655-7.56-2.863
	C524.283,461.721,533.363,441.533,522.74,432.061z M179.115,246.87c6.859-4.442,15.875-4.605,25.32-2.286
	c-0.716-0.028-1.432-0.051-2.144-0.049c-6.725-1.772-13.664-1.512-20.146,1.895c-2.405,1.265-4.751,2.62-7.062,4.032
	C176.341,249.104,177.641,247.825,179.115,246.87z"/>
</svg>
