<?xml version="1.0" encoding="utf-8"?>
<!-- Generator: Adobe Illustrator 16.0.0, SVG Export Plug-In . SVG Version: 6.00 Build 0)  -->
<!DOCTYPE svg PUBLIC "-//W3C//DTD SVG 1.1//EN" "http://www.w3.org/Graphics/SVG/1.1/DTD/svg11.dtd">
<svg version="1.1" id="Layer_1" xmlns="http://www.w3.org/2000/svg" xmlns:xlink="http://www.w3.org/1999/xlink" x="0px" y="0px"
	 width="612px" height="612px" viewBox="0 90 612 612" enable-background="new 0 90 612 612" xml:space="preserve">
<path fill="none" stroke="#000000" stroke-width="2" d="M163.28,572.046c-7.911,9.727-7.167-14.134-7.167-15.5
	c0-5.675,0.582-11.181-0.135-17.298c-0.946-13.15,9.536-8.795,21.233-9.975c3.425-0.34,7.418,2.178,5.207,6.053
	c-2.652,4.635-14.024,2.448-18.326,2.706c0.235,2.722,0.326,5.449,0.27,8.183c3.938,0,15.58-3.7,17.414,1.792
	c2.444,7.363-13.99,6.392-17.413,6.392C164.362,558.914,166.362,568.247,163.28,572.046
	C162.694,572.767,163.865,571.325,163.28,572.046z"/>
<path fill="none" stroke="#000000" stroke-width="2" d="M209.671,561.97c10.283-2.565,1.426,8.82-4.312,10.363
	c-12.784,3.436-22.615-6.344-20.033-19.222c1.8-9.008,13.441-16.26,22.384-12.037c18.367,8.575-6.137,19.528-13.322,21.843
	C198.377,567.476,205.531,564.515,209.671,561.97z"/>
<path fill="none" stroke="#000000" stroke-width="2" d="M196.01,550.339c-2.159,1.334-3.287,3.295-3.381,5.884
	c2.42-0.743,14.03-2.431,12.612-6.729C204.242,546.518,197.682,549.217,196.01,550.339z"/>
<path fill="none" stroke="#000000" stroke-width="2" d="M228.809,566.839c7.589,6.902-8.791,10.763-8.791,1.622
	c-2.821-6.165,0-20.051,0-26.807c0-2.404,0.884-23.094,7.812-12.483C232.94,537.059,226.89,558.126,228.809,566.839z"/>
<path fill="none" stroke="#000000" stroke-width="2" d="M236.044,530.66c0.644-5.968,9.071-6.457,9.265-0.135
	C245.718,537.571,237.458,536.11,236.044,530.66z"/>
<path fill="none" stroke="#000000" stroke-width="2" d="M244.971,569.139c-0.611,6.072-7.929,4.706-8.318-0.644
	c-0.559-7.488,0.643-15.112-0.271-22.586c-0.814-6.659,8.453-9.437,8.453-2.569C244.835,551.94,245.016,560.539,244.971,569.139z"/>
<path fill="none" stroke="#000000" stroke-width="2" d="M250.854,566.501c-4.96-14.102,17.188,4.564,16.061-4.09
	c-0.726-5.623-14.101-3.326-15.08-12.173c-1.249-11.196,10.616-13.449,18.562-10.041c6.976,3.2,1.751,9.297-4.193,7.169
	c-5.314-2.068-9.132,2.338-1.959,4.192C287.333,557.571,265.57,586.728,250.854,566.501z"/>
<path fill="none" stroke="#000000" stroke-width="2" d="M323.887,562.579c6.215-3.974,8.715,4.363,3.619,7.845
	c-6.082,4.148-14.246,3.285-18.833-2.536c-10.62-13.451,6.256-38.727,21.741-25.461c11.165,9.564-9.533,4.647-10.007,4.7
	C309.364,548.353,313.778,572.407,323.887,562.579z"/>
<path fill="none" stroke="#000000" stroke-width="2" d="M364.19,568.057c1.526,5.551-5.196,6.444-7.845,2.705
	c-5.1,3.827-13.798,3.736-18.495-0.88c-8.256-8.101-1.056-22.751,7.203-27.492C366.724,529.949,357.685,558.36,364.19,568.057z"/>
<path fill="none" stroke="#000000" stroke-width="2" d="M349.854,565.014c5.381-3.421,2.477-10.699,2.705-16.771
	C342.415,550.054,340.037,568.933,349.854,565.014C350.35,564.698,349.178,565.283,349.854,565.014z"/>
<path fill="none" stroke="#000000" stroke-width="2" d="M369.804,548.514c-7.602-1.898-2.331-8.184,3.044-8.184
	c0-15.077,8.25-16.138,8.25,0c3.324-0.802,13.446,2.086,7.844,6.83c-4.623,3.819-7.817-2.301-7.853,5.139
	c-0.022,4.795-0.301,9.692,0.178,14.472c0.738,7.447-7.98,7.926-8.352,0.744C372.67,562.156,375.811,548.682,369.804,548.514z"/>
<path fill="none" stroke="#000000" stroke-width="2" d="M423.227,565.757c4.007,5.797-4.168,8.238-7.845,2.976
	c-7.702,6.321-18.618,2.993-21.176-6.712c-1.361-5.165-0.329-10.665-0.329-15.908c0-5.272,7.901-8.208,8.249-1.997
	c0.19,4.861-2.812,16.843,2.976,19.613c9.423,4.103,7.2-13.451,7.406-16.534c0.27-4.06,6.151-10.505,8.352-3.956
	C423.293,550.56,418.09,558.518,423.227,565.757C423.632,566.344,422.459,564.675,423.227,565.757z"/>
<path fill="none" stroke="#000000" stroke-width="2" d="M427.891,566.501c-4.969-14.094,17.188,4.56,16.061-4.09
	c-0.732-5.63-14.1-3.32-15.079-12.173c-1.256-11.2,10.618-13.445,18.562-10.041c6.977,3.2,1.751,9.297-4.192,7.169
	c-5.313-2.068-9.132,2.337-1.96,4.192C464.371,557.569,442.606,586.729,427.891,566.501z"/>
<path fill="none" stroke="#000000" stroke-width="2" d="M167.338,629.814c2.857,5.521-4.15,5.601-6.746,2.182
	c-2.974-3.925-4.773-9.118-5.534-13.926c-0.423-2.676,1.97-33.353,11.112-27.867c2.771,1.73-4.653,15.019-5.071,18.587
	C160.234,616.11,161.313,624.883,167.338,629.814z"/>
<path fill="none" stroke="#000000" stroke-width="2" d="M192.849,622.055c3.655,6.251-15.24,6.408-18.513,3.753
	c-10.668-8.663,0.451-23.832,12.021-21.911c-0.106-2.326-1.357-14.078,4.488-10.878C198.279,597.1,188.41,616.18,192.849,622.055
	C193.423,623.036,192.748,621.92,192.849,622.055z"/>
<path fill="none" stroke="#000000" stroke-width="2" d="M185.799,619.265c5.036-7.577-4.78-13.965-8.419-6.087
	C175.567,618.917,179.63,626.143,185.799,619.265C185.867,619.163,184.919,620.246,185.799,619.265z"/>
<path fill="none" stroke="#000000" stroke-width="2" d="M197.464,613.99c3.68-15.287,24.923-12.746,21.403,3.905
	C215.442,633.991,193.656,629.667,197.464,613.99z"/>
<path fill="none" stroke="#000000" stroke-width="2" d="M203.551,615.056c-1.062,5.67,4.131,10.952,8.166,4.132
	C216.783,610.619,206.443,605.527,203.551,615.056C203.449,615.598,203.786,614.277,203.551,615.056z"/>
<path fill="none" stroke="#000000" stroke-width="2" d="M235.452,611.607c-3.209-5.791-6.592-1.596-6.592,2.988
	c0,2.061,1.084,8.063,0,9.843c0,7.068-6.162,1.526-6.207-3.562c-0.032-3.805-1.889-14.734,0.653-17.585
	c1.738-1.945,11.312-0.755,13.23,0.247c5.804,3.031,17.479-4.89,17.479,9.639c0,1.192,0.962,20.305-5.425,13.495
	c-3.044-3.249,2.903-18.478-3.855-18.105c-7.085,0.396-0.468,14.29-3.981,17.902C234.27,633.136,235.493,613.862,235.452,611.607z"
	/>
<path fill="none" stroke="#000000" stroke-width="2" d="M277.395,619.316c6.492-1.625,3.125,5.623-0.812,6.998
	c-10.002,3.677-19.708-2.36-17.447-13.644c3.666-18.328,37.806-2.641,6.796,7.354C268.839,623.347,274.4,621.356,277.395,619.316z"
	/>
<path fill="none" stroke="#000000" stroke-width="2" d="M267.15,610.592c-1.62,1.001-2.463,2.471-2.536,4.413
	C272.476,612.593,277.385,605.704,267.15,610.592z"/>
<path fill="none" stroke="#000000" stroke-width="2" d="M284.089,622.714c-3.416-9.683,10.942,1.438,11.968-1.978
	c1.085-3.631-8.32-4.542-10.093-7.201c-4.877-7.183,3.866-13.364,10.449-11.387c14.617,4.387-6.832,7.255-4.868,8.342
	c5.316,2.881,14.183,3.997,9.941,12.984C297.817,631.236,288.071,628.101,284.089,622.714z"/>
<path fill="none" stroke="#000000" stroke-width="2" d="M307.724,609.223c-6.622-1.649,2.151-7.288,2.205-10.295
	c0.187-10.531,6.265-3.139,6.265,4.159c2.447-0.589,10.086,1.564,5.882,5.122c-5.432,4.484-5.815-4.151-5.908,6.643
	c-0.025,2.686,0.729,7.609-0.025,10.498c-1.237,4.446-5.913,1.438-6.085-1.875C309.824,618.38,312.001,610.843,307.724,609.223z"/>
<path fill="none" stroke="#000000" stroke-width="2" d="M326.337,595.833c0.482-4.476,6.805-4.844,6.948-0.102
	C333.595,601.017,327.397,599.919,326.337,595.833z"/>
<path fill="none" stroke="#000000" stroke-width="2" d="M333.032,624.692c-0.342,3.39-5.018,4.382-6.01,0.836
	c-1.602-5.715,0.286-12.381-0.43-18.258c-0.613-4.995,6.338-7.077,6.338-1.927C332.931,611.794,333.066,618.242,333.032,624.692z"/>
<path fill="none" stroke="#000000" stroke-width="2" d="M351.342,619.772c3.223-2.06,6.53,1.047,4.312,4.312
	c-3.476,5.367-12.158,4.191-15.722-0.33c-8.025-10.172,4.742-28.995,16.308-19.096c8.371,7.175-7.15,3.484-7.506,3.525
	C341.19,609.021,342.524,626.305,351.342,619.772z"/>
<path fill="none" stroke="#000000" stroke-width="2" d="M393.994,619.772c3.225-2.061,6.528,1.047,4.312,4.312
	c-3.48,5.365-12.156,4.194-15.723-0.33c-8.021-10.173,4.741-28.996,16.308-19.096c8.368,7.178-7.149,3.484-7.507,3.525
	C383.842,609.021,385.177,626.305,393.994,619.772z"/>
<path fill="none" stroke="#000000" stroke-width="2" d="M424.223,623.881c1.481,5.383-16.65,4.42-19.754,1.369
	c-7.186-7.043,0.607-19.166,7.988-21.808C426.449,598.43,419.64,617.012,424.223,623.881z"/>
<path fill="none" stroke="#000000" stroke-width="2" d="M413.471,621.598c4.371-2.78,1.849-7.785,2.026-12.577
	C407.446,610.451,406.235,624.495,413.471,621.598C413.842,621.361,412.963,621.801,413.471,621.598z"/>
<path fill="none" stroke="#000000" stroke-width="2" d="M428.433,609.223c-6.62-1.65,2.152-7.288,2.206-10.295
	c0.18-10.525,6.263-3.144,6.263,4.159c2.448-0.59,10.088,1.564,5.883,5.122c-5.433,4.488-5.812-4.156-5.908,6.643
	c-0.024,2.685,0.729,7.611-0.026,10.498c-1.231,4.448-5.911,1.436-6.084-1.875C430.529,618.379,432.713,610.843,428.433,609.223z"/>
<path fill="none" stroke="#000000" stroke-width="2" d="M445.625,629.155c6.683-6.695,7.408-18.237,4.21-26.829
	c-1.093-2.934-4.837-6.08-5.021-9.23c-0.138-3.474,4.3-4.555,5.881-1.521c7.822,11.021,9.154,24.11,3.374,36.593
	C451.375,633.974,441.593,637.249,445.625,629.155z"/>
<g>
	<path fill="none" stroke="#000000" stroke-width="2" stroke-miterlimit="10" d="M568.822,360.808
		c-4.409-15.168-16.59-28.282-31.791-32.966c-12.376-3.814-36.519,3.066-28.966,20.79c6.134,14.394,26.918,12.131,30.168,29.936
		c3.02,16.542-10.201,31.521-25.536,35.689c2.238-0.607,4.444-1.206-0.01,0.003c-0.566,0.153-1.026,0.278-1.395,0.379
		c0-0.001,0-0.001,0-0.001c0.42-0.113,0.903-0.245,1.39-0.377c-0.357,0.097-0.896,0.162-1.573,0.206
		c-23.109-21.226-53.932-23.387-86.625-28.583c5.129-8.389,7.286-18.35,4.925-28.928c8.399-5.13,19.021-12.636,22.223-21.36
		c3.624-9.871-22.394-4.868-34.003-1.708c-9.59-12.013-23.32-21.481-38.088-25.458c1.496-9.968,3.77-29.507-4.806-35.314
		c-11.91,7.252-18.603,20.4-22.327,33.398c-0.143,0.499-0.272,0.971-0.397,1.433c-17.155,4.193-29.912,15.965-35.093,30.862
		c-2.883-2.495-5.582-3.732-6.74-1.638c-1.286,2.327,1.377,5.683,4.909,8.646c-0.552,3.109-0.792,6.311-0.69,9.575
		c-4.947-1.998-10.87-3.555-11.093-0.413c-0.275,3.868,6.265,4.96,11.454,4.898c0.538,4.291,1.645,8.653,3.413,13.019
		c6.415,15.838,18.895,27.043,33.821,32.87c0.401,3.624,0.881,6.788,1.267,9.119c0.017,0.104,0.034,0.209,0.051,0.309
		c-2.222-13.268,0.417,2.507,0.014,0.086l0,0c2.872,17.229,6.229,34.446,9.826,51.539c1.903,9.05,4.324,18.194,9.239,26.135
		c5.981,9.676,6.68-7.214,6.236-10.142c-0.395-2.605-2.564-8.904-1.388-11.94c0.002,0.007,0.004,0.014,0.006,0.021
		c0.034-0.112,0.078-0.201,0.116-0.306c0.078-0.158,0.16-0.312,0.261-0.446c1.239-1.67,2.916-2.111,4.77-1.782
		c5.505,1.778,13.39,10.437,15.646,13.464c3.21,5.747,6.453,14.608,12.307,17.002c6.812,2.788,4.217-12.964,3.348-15.418
		c20.628,3.881,41.808,4.785,62.696,2.737c13.909-1.364,44.217-14.52,56.294-3.73c3.718,3.323,4.128,9.143,7.793,12.539
		c6.311,5.85,7.943-10.074,7.361-13.033c-3.275-16.645-12.916-34.369-21.572-48.692c-1.615-2.673-3.298-5.168-5.04-7.506
		C549.892,418.021,578.226,393.155,568.822,360.808z"/>
	<polygon fill="none" stroke="#000000" stroke-width="2" stroke-miterlimit="10" points="512.697,414.257 512.683,414.261 
		512.688,414.26 	"/>
</g>
<path fill="none" stroke="#000000" stroke-width="2" stroke-miterlimit="10" d="M369.64,431.849
	c1.15,13.233,3.707,26.343,7.604,39.042c2.999-9.9,19.641,8.887,21.286,11.646c-5.073-15.299-7.918-30.833-10.249-46.735
	c-0.854-5.824-2.202-13.131-6.944-17.205C372.552,411.047,369.154,426.244,369.64,431.849
	C370.79,445.083,369.351,428.502,369.64,431.849z"/>
<path fill="#231F20" stroke="#000000" stroke-miterlimit="10" d="M350.947,348.218c-1.076,0.93-2.433,1.534-3.735,2.071
	c-1.398,0.574-2.833,0.981-4.333,1.188c-2.812,0.39-5.685,0.067-8.251-1.192c-4.58-2.249-7.712-7.572-6.419-12.667
	c0.432-1.703,3.07-0.982,2.637,0.727c-1.026,4.049,1.67,8.155,5.215,9.959c2.153,1.096,4.729,1.34,7.104,1.126
	c1.222-0.114,2.441-0.359,3.619-0.7c1.262-0.363,2.433-0.95,3.677-1.353C350.925,347.227,351.328,347.89,350.947,348.218
	L350.947,348.218z"/>
<path fill="#231F20" stroke="#000000" stroke-miterlimit="10" d="M382.494,366.482c-2.15,4.2-1.284,9.82,2.305,12.97
	c3.686,3.236,9.351,3.004,13.163,0.152c1.129-0.846,2.584,1.037,1.514,1.963c-3.569,3.089-8.759,3.667-13.064,1.836
	c-4.249-1.807-6.898-6.056-7.046-10.625c-0.078-2.477,0.562-4.928,1.986-6.963C381.838,365.124,382.885,365.718,382.494,366.482
	L382.494,366.482z"/>
<path fill="#231F20" stroke="#000000" stroke-miterlimit="10" d="M354.12,368.4c1.423,0.441,1.51,2.451,0.582,3.417
	c-0.651,0.678-1.686,0.282-2.391-0.136c-0.723-0.425-1.331-1.083-1.679-1.847c-0.423-0.922-0.655-1.948,0.354-2.574
	c0.658-0.409,1.5-0.435,2.214-0.163c0.733,0.28,1.382,0.807,1.72,1.527c0.369,0.786,0.417,1.989-0.341,2.572
	c-0.825,0.637-2.243,0.312-3.04-0.219c-0.938-0.625-1.467-1.572-1.55-2.688c-0.054-0.739,0.641-1.244,1.298-1.296
	c1.686-0.136,4.636,1.147,4.043,3.301c-0.298,1.082-1.529,1.548-2.474,0.958c-1.05-0.654-0.986-1.956-0.036-2.649
	c0.528-0.385,1.352-0.141,1.713,0.342c0.395,0.527,0.371,1.263-0.104,1.744c-0.021,0.02-0.04,0.042-0.063,0.063
	c0.113-0.197,0.229-0.393,0.343-0.59c-0.006,0.024-0.011,0.048-0.015,0.072c0-0.239,0-0.476,0-0.713
	c-0.386-0.218-0.77-0.438-1.154-0.656c-0.194,0.115-0.395,0.229-0.592,0.344c-0.021,0.017-0.039,0.036-0.061,0.054
	c-0.063,0.223-0.121,0.447-0.182,0.674c-0.023,0.271,0.182,0.129-0.07,0.013c-0.131-0.063-0.242-0.167-0.377-0.227
	c-0.322-0.143-0.623-0.156-0.976-0.136c0.433-0.433,0.865-0.863,1.297-1.296c0.02,0.334,0.522,0.803,0.908,0.728
	c-0.246,0.191-0.495,0.382-0.744,0.574c-0.074,0.164-0.028,0.092-0.071-0.021c0.07,0.189-0.132-0.121-0.015-0.007
	c-0.027-0.028-0.208-0.212-0.165-0.177c-0.09-0.074-0.199-0.14-0.348-0.163c-0.059-0.009-0.143,0.071-0.008-0.035
	c0.109-0.266,0.218-0.528,0.326-0.792c-0.027,1.041,0.716,1.886,1.706,2.138c-0.217,0.029-0.438,0.058-0.655,0.086
	c0.595-0.337,0.388-1.087,0.088-1.553C353.392,368.738,353.748,368.286,354.12,368.4L354.12,368.4z"/>
<path fill="#231F20" stroke="#000000" stroke-miterlimit="10" d="M353.693,370.907c-1.623,3.758-2.778,8.021-1.684,12.101
	c0.758,2.833,2.725,5.973,5.942,6.207c1.596,0.115,1.634,2.571,0,2.512c-4.271-0.147-7.112-3.91-8.05-7.784
	c-1.105-4.554,0.076-9.975,3.05-13.609C353.323,369.885,353.887,370.461,353.693,370.907L353.693,370.907z"/>
<path fill="#231F20" stroke="#000000" stroke-miterlimit="10" d="M352.629,370.189c0.083,2.309-1.596,4.665-3.284,6.106
	c-1.894,1.619-4.445,2.585-6.951,2.423c-5.171-0.329-9.603-4.585-10.017-9.757c-0.108-1.362,2.189-1.696,2.408-0.326
	c0.608,3.79,3.746,7.263,7.729,7.479c1.977,0.106,3.847-0.491,5.506-1.539c1.835-1.159,2.771-2.786,3.85-4.591
	C352.079,369.628,352.616,369.787,352.629,370.189L352.629,370.189z"/>
<g>
	<path fill="none" stroke="#000000" stroke-width="2" stroke-miterlimit="10" d="M381.351,410.433
		c-0.954,0.132-1.878,0.26-2.646,0.366C379.383,410.705,380.267,410.582,381.351,410.433z"/>
	<path fill="none" stroke="#000000" stroke-width="2" stroke-miterlimit="10" d="M426.916,349.232
		c-11.013-25.764-41.469-46.625-69.994-42.275c-19.625,2.993-34.34,15.563-40.004,31.851c-2.883-2.495-5.582-3.732-6.74-1.638
		c-1.286,2.327,1.377,5.683,4.909,8.646c-0.552,3.109-0.792,6.311-0.69,9.575c-4.947-1.998-10.87-3.555-11.093-0.413
		c-0.275,3.868,6.265,4.96,11.454,4.898c0.538,4.291,1.645,8.653,3.413,13.019c10.492,25.904,37.192,39.43,64.322,37.249
		c0.025,0.04,0.052,0.08,0.077,0.12c-0.433,0.06-0.841,0.116-1.22,0.169c0.405-0.057,0.812-0.112,1.22-0.169
		c2.391,3.662,5.204,6.392,6.898,3.812c0.753-1.146,0.103-2.846-1.188-4.647c3.672-0.628,7.251-1.617,10.677-2.934
		c0.936,0.136,1.66-0.098,2.054-0.839C422.758,396.297,437.393,373.739,426.916,349.232z"/>
	<path fill="none" stroke="#000000" stroke-width="2" stroke-miterlimit="10" d="M378.624,410.81
		c-0.353,0.049-0.656,0.091-0.906,0.126C377.982,410.898,378.287,410.856,378.624,410.81z"/>
</g>
<path fill="none" stroke="#000000" stroke-width="2" stroke-miterlimit="10" d="M326.609,352.07
	c0.202-3.043-13.398-20.387-16.432-14.9C307.11,342.718,326.479,354.125,326.609,352.07z"/>
<path fill="none" stroke="#000000" stroke-width="2" stroke-miterlimit="10" d="M320.752,358.506
	c-2.373-1.664-17.095-8.516-17.448-3.528C302.825,361.702,322.947,360.043,320.752,358.506z"/>
<path fill="none" stroke="#000000" stroke-width="2" stroke-miterlimit="10" d="M383.752,393.996
	c1.139,2.892,16.951,17.983,17.574,10.465C401.674,400.261,383.394,393.083,383.752,393.996z"/>
<path fill="none" stroke="#000000" stroke-width="2" stroke-miterlimit="10" d="M378.221,400.978
	c0.264,2.741,7.918,18.168,11.248,13.099C392.06,410.134,378.093,399.634,378.221,400.978z"/>
<path fill="none" stroke="#000000" stroke-width="2" d="M215.376,250.354c-3.106,5.766-3.096,12.763-0.17,18.596
	c-0.752-1.507,6.593,10.142,6.593,7.293c0,11.53,0,23.06,0,34.59c0,14.042,0,28.084,0,42.127c0,4.979,1.361,9.65,3.627,13.559
	c7.571-0.738,15.206-0.069,22.462,2.253c3.76-2.469,7.663-4.524,9.816-5.724c1.28-0.713,2.78-1.613,4.388-2.531
	c3.482-11.904,0.958-27.517,0.958-38.371c0-13.675,0-27.349,0-41.023c16.674,0,99.24,4.665,87.067-31.954
	c-5.842-17.499-22.889-15.277-37.194-12.297c-16.313,3.399-33.288,3.339-49.872,3.339c0-13.625,0.068-27.345-1.353-40.913
	c24.511-1.481,56.145,5.048,79.351-4.003c27.822-10.851,12.645-42.426-13.756-39.784c-28.728,2.872-57.779,1.113-86.429,4.398
	c-12.975,1.488-27.86,6.142-26.083,22.441c1.254,11.506,7.017,20.986,7.017,33.007c0,5.581,0.045,11.16-0.169,16.737
	c-0.106,3.608-0.049,7.215,0.169,10.819C219.112,244.923,216.971,247.403,215.376,250.354z"/>
<path fill="#1D1D1B" stroke="#000000" stroke-miterlimit="10" d="M269.525,395.858c-1.758,0.432-2.027,2.955-1.201,4.3
	c0.707,1.152,2.17,1.318,3.214,0.525c0.75-0.572,1.39-1.375,1.636-2.297c0.592-2.222-1.652-4.404-3.817-3.411
	c-2.024,0.93-2.454,3.657-1.845,5.588c0.294,0.938,1.091,1.527,2.063,1.57c1.434,0.064,2.935-0.928,3.245-2.371
	c0.223-1.043-0.224-2.082-1.231-2.508c-0.962-0.406-2.115-0.051-2.653,0.871c-0.162,0.275,0,0.025,0.132-0.074
	c0.133-0.096,0.34-0.195,0.507-0.195c0.688,0.523,1.375,1.047,2.062,1.572c-0.075-0.211-0.16-0.436-0.186-0.656
	c0.028,0.234,0.021-0.027,0.024-0.115c0.033-0.611-0.098,0.26,0.051-0.34c0.087-0.344,0.113-0.08-0.042-0.006
	c-0.242,0.115-1.77,0.166-1.956-0.107c-0.042-0.166-0.085-0.33-0.127-0.496c-0.004-0.066,0.011-0.127,0.042-0.182
	c-0.039-0.041-0.138,0.227-0.043,0.098c-0.036,0.047-0.396,0.395-0.216,0.291c0.298-0.08,0.596-0.16,0.893-0.24
	c-0.051-0.006-0.102-0.012-0.154-0.014c0.293,0.08,0.585,0.158,0.88,0.236c0.186,0.105,0.038,0.139,0.007-0.092
	c-0.016-0.113-0.072-0.264-0.102-0.387c-0.077-0.328-0.099-0.662-0.188-0.996C270.409,395.993,269.95,395.754,269.525,395.858
	L269.525,395.858z"/>
<path fill="#1D1D1B" stroke="#000000" stroke-miterlimit="10" d="M230.036,392.685c-0.88,0.383-1.125,1.582-1.193,2.444
	c-0.089,1.106,0.21,2.232,1.288,2.738c1.954,0.914,3.915-1.041,4.488-2.75c0.663-1.977-0.242-5.156-2.754-5.162
	c-2.972-0.008-3.447,3.701-3.04,5.917c0.343,1.868,2.833,2.241,4.055,1.071c0.995-0.957,1.057-2.466,0.253-3.55
	c-0.735-0.992-2.313-1.461-3.378-0.659c-0.657,0.495-1.12,1.083-1.12,1.951c0,0.739,0.419,1.624,1.12,1.952
	c0.034,0.018,0.067,0.033,0.101,0.047c-0.279-0.277-0.558-0.556-0.837-0.835c0.121,0.194,0.094,0.127-0.08-0.209
	c0-0.43,0-0.86,0-1.289c-0.009,0.043-0.018,0.089-0.027,0.133c0.209-0.358,0.417-0.716,0.625-1.074
	c-0.03,0.037-0.061,0.07-0.089,0.104c1.351,0.357,2.703,0.713,4.056,1.07c-0.046-0.165-0.106-0.339-0.124-0.511
	c0.033,0.312,0.03-0.182,0.038-0.279c0.013-0.127,0.091-0.054,0.04-0.152c0.049-0.147,0.048-0.167-0.007-0.055
	c-0.055,0.101-0.115,0.197-0.173,0.294c-0.338,0.195-0.675,0.394-1.01,0.589c0.066-0.013,0.138-0.022,0.203-0.035
	c-0.402,0-0.806,0-1.211,0c-0.638-0.626-0.829-0.74-0.566-0.342c-0.085-0.212-0.089-0.195-0.013,0.045
	c0.144-0.545-0.094,0.604-0.007,0.101c-0.077,0.223-0.077,0.258,0.001,0.102c-0.058,0.121-0.124,0.237-0.199,0.347
	c0.083-0.129,0.054-0.104-0.089,0.073c0.204-0.09,0.424-0.126,0.661-0.103c0.24,0.14,0.482,0.279,0.722,0.421
	c-0.396-0.37-0.185-1.563-0.565-2.089C230.91,392.582,230.496,392.485,230.036,392.685L230.036,392.685z"/>
<path fill="none" stroke="#000000" stroke-width="2" stroke-miterlimit="10" d="M238.803,443.434
	c1.15,13.193,9.513,2.752,11.423-3.475c1.055-3.438,1.863-6.934,2.425-10.484c-3.751-0.564-3.994-5.367-3.949-8.094
	c-0.08,4.871-5.521,4.98-8.113,7.816C237.4,432.689,238.435,439.215,238.803,443.434
	C238.929,444.873,238.478,439.705,238.803,443.434z"/>
<path fill="#1D1D1B" stroke="#000000" stroke-miterlimit="10" d="M252.883,413.33c0.671-1.57-0.546-3.172-2.201-3.305
	c-2.277-0.186-4.7,3.02-3.629,5.086c2.226,4.303,9.125,1.258,7.879-3.326c-0.606-2.232-2.849-3.742-5.12-3.689
	c-2.406,0.057-4.386,1.977-5.023,4.209c-1.474,5.182,4.834,10.508,9.216,6.393c2.226-2.088,2.262-5.867-0.44-7.582
	c-2.478-1.574-5.771-0.736-6.712,2.146c-0.374,1.146,0.248,2.506,1.26,3.098c1.125,0.658,2.37,0.348,3.326-0.428
	c-1.106,0.898-2.285-0.986-1.163-1.596c0.32-0.176,0.316,0.402,0.052-0.135c-0.086-0.176-0.165-0.242-0.097-0.438
	c0.034-0.098,0.115-0.479,0.212-0.42c0,0-0.254,0.166-0.379,0.088c-0.399-0.238,0.217-1.062,0.36-1.186
	c-0.45,0.393-0.102-0.074,0.052,0.041c0.275,0.205,0.365,0.002,0.665,0.443c0.08,0.607,0.159,1.213,0.238,1.82
	c0.046-0.27,0.293-0.855,0.259-1.105c0.029-0.072,0.076-0.127,0.146-0.17c-0.175,0.104-0.338,0.053-0.488-0.146
	C251.494,413.764,252.571,414.064,252.883,413.33L252.883,413.33z"/>
<path fill="#1D1D1B" stroke="#000000" stroke-miterlimit="10" d="M235.318,425.752c0.986,1.713,1.951,2.814,3.954,3.352
	c1.795,0.484,3.814,0.203,5.465-0.625c3.808-1.914,5.934-6.871,5.084-10.992c-0.383-1.859-3.104-1.33-3.188,0.43
	c-0.138,2.891-0.298,5.768-2.868,7.66c-2.016,1.484-5.854,1.51-7.659-0.432C235.714,424.721,235.037,425.264,235.318,425.752
	L235.318,425.752z"/>
<path fill="#1D1D1B" stroke="#000000" stroke-miterlimit="10" d="M256.372,429.582c-2.6-0.064-4.297-0.984-5.033-3.633
	c-0.733-2.648-0.233-5.121,0.207-7.752c0.416-2.496-3.002-3.521-3.838-1.057c-1.292,3.811-0.938,8.912,1.476,12.227
	c1.542,2.115,6.065,4.34,7.623,0.969C256.965,429.996,256.779,429.594,256.372,429.582L256.372,429.582z"/>
<path fill="none" stroke="#000000" stroke-width="2" stroke-miterlimit="10" d="M211.04,410.303
	c-1.738-7.396-32.335-7.219-30.442-0.295C181.818,414.473,210.986,410.074,211.04,410.303z"/>
<path fill="none" stroke="#000000" stroke-width="2" stroke-miterlimit="10" d="M212.156,422.375
	c-1.024-6.443-26.869,2.891-27.678,6.525C182.615,437.275,212.497,424.514,212.156,422.375z"/>
<path fill="none" stroke="#000000" stroke-width="2" stroke-miterlimit="10" d="M311.963,440.572
	c-0.711-3.61-8.769-6.217-14.142-7.755c-0.161-2.356-0.53-4.742-1.082-7.138c7.231,0.44,14.103-0.279,12.06-4.875
	c-1.955-4.396-10.655-2.535-14.209-2.267c-3.308-8.971-8.758-17.785-14.85-25.37c3.402-10.752,3.938-22.257,0.056-33.229
	c-3.221-9.104-15.531-0.542-22.09,3.11c-2.154,1.199-6.057,3.255-9.816,5.724c-10.344-3.31-21.457-3.272-32.056-0.569
	c-9.577-10.41-23.902-17.869-37.781-18.123c-2.508-0.046-2.178,21.856-2.018,24.424c0.215,3.488,0.605,11.498,2.308,17.785
	c-3.897-0.584-7.794,0.845-11.317,5.525c-14.022,1.413-26.497-25.062-33.263-33.564c-8.231-10.34-19.611-18.029-32.998-19.504
	c-3.38-0.373-6.433-0.393-9.194-0.114c-1.273-17.14,6.933-35.752,24.585-38.362c12.366-1.829,22.589,2.073,34.076,5.694
	c14.379,4.533,13.366-16.161,8.883-23.982c-14.362-25.057-48.961-10.229-63.715,5.952c-12.954,14.207-18.65,34.978-13.151,53.228
	c-18.297,8.991-15.285,38.286-9.313,57.92c5.43,17.854,8.348,35.755,8.779,54.418c0.264,11.461,1.529,32.448,16.083,35.654
	c7.072,1.561,11.8-4.885,6.368-10.5c-3.502-3.62-9.559-4.638-11.721-9.587c-2.194-5.022,0.995-9.931,4.526-14.437
	c0.069,1.969,0.38,3.908,1.53,5.781c2.049,3.338,5.299,5.685,7.935,8.505c2.077,2.22,14.85,23.567,16.704,7.367
	c1.221-10.676-14.834-10.728-14.39-22.515c0.318-8.395,0.635-16.788,0.953-25.182c4.239,5.949,8.521,20.243,10.279,23.362
	c4.317,7.662,9.751,14.75,16.606,20.314c17.919,14.543,41.162,10.439,62.647,11.677c22.928,1.319,45.73,4.322,68.677,5.361
	c2.732,0.123,29.927,2.274,21.903-7.875c-2.419-3.06-19.033-0.998-22.521-1.544c-9.57-1.496-19.044-3.5-28.623-4.972
	c-5.337-0.82-10.087-2.146-14.3-4.026c0.218-0.509,0.381-1.033,0.484-1.571c8.469,1.304,17,1.633,25.274,0.646
	c14.063,2.198,33.09,1.088,39.272,1.059c8.275-0.036,2.418-7.944-2.186-9.142c-3.038-0.789-6.119-1.292-9.221-1.608
	c4.146-2.655,8.084-5.865,11.736-9.733c4.39-4.648,6.818-9.948,7.742-15.578C305.219,444.037,312.957,445.623,311.963,440.572z"/>
<path fill="none" stroke="#000000" stroke-width="2" stroke-miterlimit="10" d="M282.752,424.066
	c3.004,0.832,29.833,5.621,26.046-2.896c-1.992-4.48-11.003-2.457-14.419-2.248C293.935,418.949,275.812,422.15,282.752,424.066z"/>
<path fill="none" stroke="#000000" stroke-width="2" stroke-miterlimit="10" d="M283.012,433.316
	c2.38,3.43,30.802,17.025,28.951,7.621c-0.917-4.654-14.045-7.641-17.889-8.82C293.163,431.838,279.565,428.342,283.012,433.316z"/>
<path fill="none" stroke="#000000" stroke-width="2" stroke-miterlimit="10" d="M195.403,467.458
	c1.129,0.452,2.837,1.135,3.027,1.211c-0.099-0.039-0.917-0.366-3.036-1.214c-0.001,0-0.001-0.001-0.002-0.001l0,0
	c-0.324-0.13-0.593-0.237-0.769-0.308c-0.056-0.022-0.101-0.04-0.134-0.054c0.034,0.014,0.081,0.032,0.134,0.054
	c0.155,0.062,0.4,0.16,0.769,0.308c-28.643-11.458-34.73-52.674-16.174-75.554c0.02-0.025,0.042-0.048,0.062-0.074
	c-4.698-1.084-9.446,0.604-13.574,7.268c-9.564,15.433-3.91,40.145,4.937,54.722c-1.958-3.214-3.86-6.334,0.048,0.081
	c3.964,6.503,2.001,3.281,0.024,0.037c5.089,8.302,24.269,23.217,35.309,17.307C202.416,470.106,198.863,468.841,195.403,467.458z"
	/>
<g>
	<path fill="none" stroke="#000000" stroke-width="2" stroke-miterlimit="10" d="M169.7,396.59
		C170.026,396.482,169.962,396.503,169.7,396.59L169.7,396.59z"/>
	<path fill="none" stroke="#000000" stroke-width="2" stroke-miterlimit="10" d="M311.963,440.938
		c-0.711-3.61-8.769-6.217-14.142-7.755c-0.161-2.356-0.53-4.742-1.082-7.138c7.232,0.44,14.103-0.279,12.06-4.875
		c-1.955-4.396-10.655-2.534-14.208-2.266c-6.278-17.021-20.271-33.482-31.704-42.044c-26.229-19.642-64.019-9.189-83.668,15.04
		c-1.941,2.394-3.597,4.997-5.001,7.737c0-0.001,0.001-0.002,0.001-0.003c-1.984-2.041-3.735-3.301-4.832-2.94
		c0.123-0.04,0.226-0.074,0.313-0.104c-0.082,0.027-0.179,0.06-0.313,0.104c-14.974,4.934-28.479-24.1-35.623-33.078
		c-8.231-10.34-19.611-18.029-32.998-19.504c-38.162-4.204-35.328,35.682-27.83,60.335c5.43,17.854,8.348,35.754,8.779,54.418
		c0.264,11.461,1.529,32.447,16.083,35.654c7.072,1.561,11.8-4.885,6.368-10.5c-3.502-3.621-9.559-4.639-11.721-9.588
		c-3.555-8.139,7.021-15.979,10.294-22.289c3.287-6.336,4.534-13.738,3.434-20.795c5.145-0.43,11.553,21.965,13.809,25.967
		c4.317,7.662,9.751,14.75,16.606,20.314c17.919,14.543,41.162,10.439,62.647,11.678c22.928,1.318,45.73,4.322,68.677,5.361
		c2.732,0.123,29.927,2.273,21.903-7.875c-2.419-3.061-19.033-0.998-22.521-1.545c-9.57-1.496-19.044-3.5-28.623-4.971
		c-5.339-0.82-10.091-2.147-14.301-4.034c0.085-0.199,0.17-0.399,0.238-0.604c23.506,3.672,47.542-0.12,65.123-18.739
		c4.39-4.648,6.818-9.947,7.742-15.578C305.219,444.402,312.957,445.988,311.963,440.938z M169.141,416.087
		c-0.008,0.057-0.016,0.113-0.024,0.17C169.125,416.2,169.133,416.144,169.141,416.087z M168.866,418.529
		c-0.009,0.101-0.018,0.2-0.026,0.301C168.848,418.729,168.857,418.63,168.866,418.529z M168.696,421.051
		c-0.005,0.112-0.008,0.226-0.013,0.338C168.688,421.276,168.691,421.163,168.696,421.051z M168.639,423.616
		c0,0.088,0.003,0.176,0.003,0.264C168.642,423.792,168.639,423.704,168.639,423.616z M179.713,455.985
		c-0.36-0.433-0.704-0.88-1.047-1.328C179.009,455.105,179.353,455.553,179.713,455.985z M178.113,453.947
		c-0.497-0.676-0.975-1.366-1.433-2.071C177.139,452.58,177.617,453.271,178.113,453.947z M176.132,450.981
		c-0.268-0.433-0.538-0.863-0.791-1.306C175.595,450.118,175.864,450.549,176.132,450.981z M174.735,448.559
		c-0.206-0.383-0.414-0.765-0.609-1.153C174.322,447.794,174.529,448.176,174.735,448.559z M173.539,446.175
		c-0.171-0.366-0.341-0.731-0.503-1.102C173.198,445.443,173.368,445.809,173.539,446.175z M172.484,443.751
		c-0.142-0.352-0.281-0.704-0.415-1.059C172.204,443.047,172.343,443.4,172.484,443.751z M171.561,441.281
		c-0.114-0.332-0.223-0.666-0.331-1.001C171.338,440.615,171.447,440.949,171.561,441.281z M170.764,438.764
		c-0.084-0.295-0.162-0.592-0.242-0.888C170.603,438.172,170.68,438.469,170.764,438.764z M170.094,436.204
		c-0.049-0.209-0.09-0.42-0.137-0.63C170.003,435.784,170.044,435.995,170.094,436.204z M180.402,456.773
		c0.339,0.388,0.68,0.774,1.034,1.149C181.082,457.548,180.742,457.161,180.402,456.773z M182.204,458.703
		c0.354,0.355,0.712,0.708,1.08,1.051C182.916,459.411,182.559,459.06,182.204,458.703z M192.901,466.351
		c0.812,0.392,1.64,0.763,2.492,1.104C194.541,467.113,193.712,466.742,192.901,466.351z M184.111,460.498
		c0.376,0.332,0.759,0.657,1.149,0.975C184.87,461.155,184.488,460.83,184.111,460.498z M186.132,462.164
		c0.405,0.312,0.82,0.613,1.24,0.91C186.952,462.777,186.537,462.476,186.132,462.164z M188.271,463.699
		c0.445,0.296,0.903,0.578,1.363,0.857C189.173,464.277,188.715,463.995,188.271,463.699z M190.526,465.097
		c0.517,0.295,1.05,0.571,1.585,0.845C191.577,465.668,191.043,465.392,190.526,465.097z M195.403,467.458
		c1.482,0.593,2.985,1.156,4.498,1.705C198.389,468.614,196.885,468.051,195.403,467.458z"/>
</g>
<path fill="none" stroke="#000000" stroke-width="2" stroke-miterlimit="10" d="M212.094,465.588
	c-12.193,3.795-3.004,20.385,8.347,15.805C231.018,477.127,221.125,462.776,212.094,465.588
	C209.469,466.404,217.352,463.95,212.094,465.588z"/>
</svg>
