<?xml version="1.0" encoding="utf-8"?>
<!-- Generator: Adobe Illustrator 16.0.0, SVG Export Plug-In . SVG Version: 6.00 Build 0)  -->
<!DOCTYPE svg PUBLIC "-//W3C//DTD SVG 1.1//EN" "http://www.w3.org/Graphics/SVG/1.1/DTD/svg11.dtd">
<svg version="1.1" id="Layer_1" xmlns="http://www.w3.org/2000/svg" xmlns:xlink="http://www.w3.org/1999/xlink" x="0px" y="0px"
	 width="612px" height="612px" viewBox="0 90 612 612" enable-background="new 0 90 612 612" xml:space="preserve">
<path fill="none" stroke="#000000" stroke-width="2" d="M175.155,553.492c3.674,1.104,4.975,5.459,1.556,7.574
	c-1.328,1.968,0.217,8.042-0.289,10.541c-1.716,8.485-15.861,9.803-22.081,7.409c-9.361-3.602-14.695-13.619-13.92-23.411
	c0.896-11.316,10.024-18.501,20.668-20.574c3.493-0.678,7.79-0.559,11.064,1.007c3.266,1.56,5.75,7.854,0.262,8.428
	c-3.252,0.333-5.833-2.073-9.163-1.521c-4.73,1.35-9.654,3.358-12.68,7.438c-5.25,7.08-0.732,18.778,7.447,21.158
	c2.083,0.605,10.439,0.72,10.439-2.832c0-2.3,0-4.599,0-6.898c-3.67,0.186-7.724,1.233-11.158-0.675
	c-3.038-1.782-2.142-6.504,1.149-7.371C163.555,552.629,169.97,553.492,175.155,553.492
	C176.057,553.764,173.352,553.492,175.155,553.492z"/>
<path fill="none" stroke="#000000" stroke-width="2" d="M212.957,574.592c1.127,4.09-3.23,6.746-6.594,4.057
	c-2.045-1.636-9.227,1.775-13.295,0.999c-12.646-2.411-11.507-17.989-4.929-25.884c5.684-6.948,21.572-12.4,21.572,0.675
	C209.711,562.019,209.624,567.758,212.957,574.592z M198.62,571.549c3.762-2.392,3.118-2.87,2.795-7.146
	c-0.241-3.196-0.21-6.424-0.09-9.626C191.352,556.558,188.618,575.544,198.62,571.549
	C199.116,571.233,197.944,571.818,198.62,571.549z"/>
<path fill="none" stroke="#000000" stroke-width="2" d="M227.226,573.374c7.587,6.909-8.791,10.757-8.791,1.622
	c-0.733-2.832,0-6.829,0-9.729c0-9.268,0-18.534,0-27.802c0-3.475,4.197-4.811,6.694-2.941c2.922,2.195,1.548,8.192,1.57,11.387
	c0.033,4.718,0.069,9.436,0.038,14.153C226.714,563.617,225.443,570.624,227.226,573.374z"/>
<path fill="none" stroke="#000000" stroke-width="2" d="M246.026,573.374c7.587,6.909-8.792,10.757-8.792,1.622
	c-0.733-2.832,0-6.829,0-9.729c0-9.268,0-18.534,0-27.802c0-3.475,4.197-4.811,6.695-2.941c2.922,2.195,1.548,8.192,1.57,11.387
	c0.032,4.718,0.068,9.436,0.038,14.153C245.514,563.617,244.243,570.624,246.026,573.374z"/>
<path fill="none" stroke="#000000" stroke-width="2" d="M281.597,572.292c1.687,2.439,0.456,6.796-2.976,6.628
	c-3.893-0.302-3.175-4.578-6.646-2.356c-6.667,4.268-14.583,1.839-18.239-5.015c-2.999-5.723-1.488-12.743-1.488-18.902
	c0-2.2,0.702-5.147,3.38-5.545c5.146-0.751,5.007,4.791,4.854,8.18c-0.164,3.615-1.976,15.506,4.554,15.295
	c7.528-0.244,5.605-9.364,5.74-14.041c0-2.859,0.034-7.425,3.025-9.002c3.159-1.664,5.765,1.323,5.765,4.403
	C279.568,558.671,277.323,566.266,281.597,572.292C282.002,572.879,280.829,571.21,281.597,572.292z"/>
<path fill="none" stroke="#000000" stroke-width="2" d="M286.261,573.036c-1.028-2.913,0.463-6.437,3.99-6.086
	c2.779,0.254,4.294,3.619,6.965,4.463c2.154,0.68,7.616-0.191,4.599-3.72c-1.945-1.943-5.446-2.009-7.896-3.067
	c-16.275-7.033,0.954-27.634,13.305-16.999c2.004,1.725,2.768,5.942-0.278,7.101c-3.482,1.322-6.707-2.673-10.271-1.302
	c-5.839,1.469,9.14,6.867,9.84,7.303c7.507,4.675,3.877,16.927-3.746,19.164C296.771,581.652,289.592,578.054,286.261,573.036z"/>
<path fill="none" stroke="#000000" stroke-width="2" d="M342.93,591.7c-4.33-5.341,1.809-7.693,6.018-5.815
	c7.148,3.162,12.511,1.489,12.511-6.83c-11.688,4.009-22.127-3.336-21.404-16.062c0.343-6.021,3.152-11.476,8.657-14.268
	c2.815-1.432,6.171-2.068,9.23-1.049c1.705,0.537,3.328,1.259,4.869,2.164c0.856-0.767,1.859-1.149,3.009-1.149
	c7.355,0,3.889,27.343,3.889,32.392C369.708,595.996,353.405,599.037,342.93,591.7z M350.908,571.075
	c3.814,1.82,10.55,1.347,10.55-3.676c0-2.81,0-5.62,0-8.43C352.168,549.685,344.748,562.87,350.908,571.075
	C352.892,572.021,350.773,570.895,350.908,571.075z"/>
<path fill="none" stroke="#000000" stroke-width="2" d="M404.061,574.592c1.127,4.09-3.23,6.746-6.594,4.057
	c-2.045-1.636-9.227,1.775-13.296,0.999c-12.645-2.41-11.509-17.99-4.929-25.884c5.684-6.949,21.572-12.399,21.572,0.675
	C400.814,562.019,400.728,567.758,404.061,574.592z M389.725,571.549c3.762-2.394,3.117-2.869,2.794-7.146
	c-0.24-3.196-0.209-6.424-0.089-9.626C382.456,556.558,379.72,575.543,389.725,571.549
	C390.219,571.233,389.048,571.818,389.725,571.549z"/>
<path fill="none" stroke="#000000" stroke-width="2" d="M418.329,573.374c7.587,6.91-8.791,10.756-8.791,1.622
	c-0.732-2.832,0-6.829,0-9.729c0-9.268,0-18.534,0-27.802c0-3.475,4.198-4.811,6.694-2.941c2.922,2.193,1.548,8.193,1.57,11.387
	c0.033,4.718,0.068,9.436,0.038,14.153C417.817,563.618,416.547,570.623,418.329,573.374z"/>
<path fill="none" stroke="#000000" stroke-width="2" d="M437.13,573.374c7.587,6.91-8.792,10.756-8.792,1.622
	c-0.732-2.832,0-6.829,0-9.729c0-9.268,0-18.534,0-27.802c0-3.475,4.198-4.811,6.695-2.941c2.921,2.193,1.548,8.193,1.569,11.387
	c0.033,4.718,0.068,9.436,0.038,14.153C436.617,563.618,435.347,570.623,437.13,573.374z"/>
<path fill="none" stroke="#000000" stroke-width="2" d="M472.699,572.292c1.689,2.438,0.455,6.796-2.975,6.628
	c-3.892-0.302-3.175-4.577-6.646-2.356c-6.668,4.268-14.583,1.838-18.24-5.015c-2.998-5.723-1.487-12.743-1.487-18.902
	c0-2.201,0.701-5.147,3.38-5.545c5.147-0.751,5.007,4.791,4.854,8.18c-0.163,3.615-1.976,15.506,4.554,15.295
	c7.528-0.244,5.605-9.364,5.74-14.041c0-2.859,0.034-7.425,3.026-9.002c3.157-1.665,5.765,1.323,5.765,4.403
	C470.671,558.672,468.428,566.266,472.699,572.292C473.106,572.879,471.933,571.21,472.699,572.292z"/>
<path fill="none" stroke="#000000" stroke-width="2" d="M477.364,573.036c-1.029-2.913,0.465-6.437,3.99-6.086
	c2.779,0.254,4.295,3.619,6.966,4.463c2.155,0.68,7.613-0.19,4.599-3.72c-1.946-1.943-5.446-2.009-7.896-3.067
	c-16.275-7.033,0.956-27.635,13.306-16.999c2.003,1.725,2.767,5.943-0.279,7.101c-3.482,1.321-6.707-2.673-10.271-1.302
	c-5.84,1.469,9.14,6.867,9.84,7.303c7.505,4.678,3.879,16.926-3.746,19.164C487.876,581.652,480.693,578.054,477.364,573.036z"/>
<path fill="none" stroke="#000000" stroke-width="2" d="M241.865,636.35c2.359,4.552-2.724,6.135-5.561,3.499
	c-2.598-2.414-4.129-6.177-5.269-9.462c-3.661-10.552-1.614-20.995,3.703-30.453c3.261-5.796,9.837-2.893,5.681,2.841
	c-2.161,2.98-3.625,6.026-4.337,9.63C234.5,620.42,235.033,630.805,241.865,636.35z"/>
<path fill="none" stroke="#000000" stroke-width="2" d="M258.197,626.307c4.66-2.98,6.535,3.271,2.713,5.883
	c-3.198,2.183-7.25,2.732-10.752,0.913c-7.711-4.007-7.062-15.64-1.648-21.302c3.718-3.889,12.45-5.08,15.552,0.559
	c4.112,7.473-7.538,2.079-9.161,2.434C247.38,619.117,252.1,632.827,258.197,626.307z"/>
<path fill="none" stroke="#000000" stroke-width="2" d="M273.462,633.687c-6.407,4.633-4.869-11.979-4.869-14.084
	c0-5.543,0-11.084,0-16.626c0-2.622,4.464-4.385,5.769-1.839c1.49,2.907,0.482,8.303,0.419,11.476
	c7.778-5.257,14.517,1.348,15.107,9.294c0.229,3.071-0.044,6.146-0.044,9.218c0,6.34-6.73,2.391-6.466-2.967
	c0.462-9.447-1.183-13.944-8.597-6.517C273.493,624.854,276.872,631.212,273.462,633.687
	C272.786,634.177,274.138,633.196,273.462,633.687z"/>
<path fill="none" stroke="#000000" stroke-width="2" d="M295.017,602.368c0.474-4.402,6.808-4.716,6.948-0.102
	C302.24,606.983,295.387,607,295.017,602.368z M301.711,631.227c-0.561,5.574-6.431,2.545-6.264-1.852
	c0.205-5.599-1.379-12.614-0.025-18.03c0.467-1.688,2.146-2.966,3.93-2.536c2.991,0.728,2.257,5.067,2.257,7.203
	C301.61,621.083,301.711,626.154,301.711,631.227z"/>
<path fill="none" stroke="#000000" stroke-width="2" d="M320.021,626.307c4.661-2.979,6.535,3.272,2.714,5.883
	c-3.197,2.183-7.25,2.732-10.752,0.913c-7.712-4.006-7.062-15.64-1.648-21.302c3.718-3.889,12.449-5.08,15.552,0.559
	c4.112,7.473-7.537,2.079-9.161,2.434C309.207,619.121,313.925,632.827,320.021,626.307z"/>
<path fill="none" stroke="#000000" stroke-width="2" d="M334.576,633.434c-6.368,4.607-4.868-11.546-4.868-13.656
	c0-5.921,0-11.843,0-17.764c0-2.498,3.896-4.157,5.553-2.155c2.181,2.644,0.683,11.89,0.634,15.037
	c2.525-1.864,6.313-8.551,10.017-7.658c6.795,1.653-3.017,10.017-4.894,11.462c1.99,2.162,14.263,12.697,7.887,15.164
	c-4.024,1.559-10.608-9.174-13.01-11.665C335.896,624.944,337.225,631.51,334.576,633.434
	C333.899,633.923,335.253,632.941,334.576,633.434z"/>
<path fill="none" stroke="#000000" stroke-width="2" d="M370.991,625.85c4.787-1.194,4.877,4.205,1.37,6.036
	c-3.762,1.961-8.857,3.343-12.972,1.686c-6.819-2.746-8.513-11.38-5.642-17.56c3.114-6.423,15.49-9.812,19.304-2.378
	c4.515,8.802-8.054,11.165-13.522,12.926C362.484,629.938,367.856,627.777,370.991,625.85z M360.746,617.127
	c-1.765,0.997-2.273,2.579-2.536,4.412c1.587-0.487,9.586-1.852,9.586-4.26C367.797,614.084,362.225,616.134,360.746,617.127z"/>
<path fill="none" stroke="#000000" stroke-width="2" d="M398.075,631.328c-0.648,5.419-6.604,2.865-6.289-1.901
	c0.198-3.051,1.5-11.362-0.203-13.948c-2.039-3.059-7.304,3.465-7.304,5.485c0,2.204,0,4.407,0,6.611
	c0,8.868-6.084,7.353-6.143-0.564c-0.028-3.742-0.044-7.483-0.044-11.228c0-2.695,2.158-10.231,5.73-4.742
	c7.24-4.709,14.252-0.65,14.252,7.559C398.075,622.843,398.075,627.086,398.075,631.328z"/>
<path fill="none" stroke="#000000" stroke-width="2" d="M401.271,635.689c6.667-6.681,7.407-18.249,4.21-26.83
	c-1.084-2.919-4.847-6.172-5.021-9.23c-0.29-7.334,6.649-0.504,8.014,1.674c5.322,8.526,6.271,18.93,3.195,28.503
	c-1.184,3.549-3.888,11.463-8.724,11.463C399.705,641.269,399.295,637.524,401.271,635.689z"/>
<path fill="none" stroke="#231F20" stroke-width="2" stroke-miterlimit="10" d="M533.764,311.119
	c-18.687,1.449-33.585,12.478-45.629,26.424c-2.001,2.317-4.489,6.188-7.326,10.621c0,0-0.001,0-0.001,0.001
	c-0.343,0.387-0.685,0.783-1.029,1.177c-2.638,3.051-6.191,8.991-10.247,15.232c-2.891,0.067-6.093,0.082-9.384,0.031
	c2.081-3.179,2.767-6.128-0.707-7.414c-2.291-0.849-8.422,3.275-13.519,6.748c-0.693-0.06-1.374-0.124-2.041-0.191
	c4.338-4.553,8.737-10.811,6.053-15.667c-6.916,0.988-13.928,6.526-19.991,11.523c-4.441-3.95-8.21-8.737-12.079-13.386
	c4.035-4.252,5.563-9.947-0.004-11.745c-1.779-0.575-6.05,3.198-8.695,1.657c-2.735-1.594-2.287-5.857-2.376-8.655
	c-0.194-6.106,0.905-13.13,0.832-19.547c-0.166-14.777-2.779-26.559-15.011-35.978c-1.887-1.453-3.86-2.75-5.903-3.891
	c4.69,0.92,9.943,3.087,12.804,1.966c12.863-5.047-2.177-14.123-8.394-15.629c7.016-0.218,15.952-3.227,8.609-9.923
	c-5.636-5.14-15.059-1.722-21.478,0.119c3.834-6.794,13.009-13.734-0.096-14.411c-9.338-0.481-16.416,7.429-19.467,15.185
	c1.032-7.669-1.717-12.422-7.954-8.633c-5.188,3.15-6.342,11.621-7.692,16.62c-7.601-2.806-10.686-6.976-19.106-3.617
	c-0.522,11.536,14.111,10.098,19.688,16.68c-4,1.774-7.668,4.087-10.896,6.944c-0.82-0.905-1.735-1.682-2.741-2.282
	c-7.413-4.417-15.39-7.679-23.895-4.109c4.343,4.344,9.407,9.461,14.286,13.724c-5.939,5.006-13.82,9.536-16.698,17.347
	c4.261,0.249,10.909,1.724,17.11,1.958c0.124,0.761,0.299,1.505,0.539,2.22c2.618,7.764,8.37,6.876,13.722,9.833
	c-0.84,6.777-6.513,13.229-8.812,21.022c-2.934,9.94-3.761,25.91,9.414,27.238c0.243,1.699,0.712,3.305,1.542,4.674
	c-7.827,15.83-4.805,34.421,2.182,50.56c3.322,7.673,7.743,14.52,13.031,20.354c-1.005,7.399,5.603,16.635,8.825,21.707
	c1.023,1.611,2.109,2.926,3.231,3.979c-0.239,1.886-0.408,3.565-0.6,4.618c-0.232,1.272-1.776,11.397-1.882,19.354
	c-2.863-1.68-6.486-2.851-8.513-3.918c-5.135-2.71-10.119-4.693-16.14-2.486c-6.707,2.456-3.424,3.453,1.46,3.883
	c4.699,0.413,8.885,1.351,13.193,3.828c-2.961-0.063-23.844-1.127-21.278,6.486c0.97,2.879,17.296,0.129,20.862,0.257
	c-5.128,0.677-11.499,5.384-12.053,10.759c0.128,0.295,0.321,0.539,0.577,0.732c6.354-0.948,11.494-7.387,17.837-9.228
	c1.602-0.466,3.769-0.591,5.488-1.161c0.336,0.405,0.739,0.622,1.224,0.606c5.065-0.163,3.16-18.51,4.136-22.503
	c0.312-1.279,1.72-4.431,3.012-7.998c4.295,0.017,8.437-3.029,11.281-8.237c0.23-0.422,0.474-0.873,0.726-1.35
	c4.105,1.093,8.364,1.797,12.751,2.056c2.001,4.626,5.052,9.029,6.94,12.002c2.366,3.726,5.061,5.905,7.792,6.774
	c1.249,3.784,3.404,9.885,5.722,14.789c-3.312-0.254-7.081,0.28-9.372,0.21c-5.805-0.18-11.152,0.226-15.594,4.848
	c-4.95,5.151-1.562,4.607,3.019,2.85c4.4-1.69,8.573-2.684,13.533-2.351c-2.689,1.243-21.919,9.452-16.274,15.167
	c2.135,2.161,15.598-7.476,18.86-8.925c-4.312,2.859-7.971,9.884-6.111,14.957c0.246,0.209,0.526,0.343,0.843,0.404
	c5.293-3.642,7.085-11.681,11.978-16.119c1.234-1.12,3.126-2.185,4.422-3.452c0.479,0.216,0.937,0.232,1.364,0.007
	c4.481-2.368-5.283-18.019-6.158-22.032c-0.032-0.148-0.062-0.336-0.092-0.54c3.032-1.14,5.818-3.795,7.905-7.617
	c2.437-4.46,6.276-12.153,6.653-18.353c23.404-12.002,36.408-36.591,44.304-62.072c8.198,0.198,17.935-2.651,24.163,1.797
	c12.392,8.847,3.338,24.964,5.05,36.521c12.71-3.668,13.053-33.543,5.897-41.859c-2.637-3.063-6.8-5.732-11.54-7.587
	c7.137,0.115,14.167,1.11,20.543,3.493c10.246,3.839,14.686,9.747,16.479,20.757c1.061,6.497-5.645,23.506-2.403,25.888
	c18.841-14.05,21.14-46.521,1.206-60.093l0,0c3.942,1.792,7.5,4.821,11.125,9.183c4.659,5.618,7.805,25.631,12.238,26.089
	c4.122-9.792,3.896-20.963,0.37-30.885v0v-0.006v0c2.458-13.733-2.805-28.741-12.924-37.875c4.6,1.665,8.627,4.894,12.735,9.851
	c4.659,5.612,7.804,25.623,12.237,26.083C582.2,343.692,563.437,308.815,533.764,311.119z M529.944,344.361
	c0.442,0.065,0.879,0.141,1.309,0.231c0.22,0.045,0.432,0.09,0.653,0.143c0.007,0.002,0.014,0.004,0.021,0.006
	c-0.008-0.001-0.015-0.004-0.021-0.006c-0.222-0.053-0.435-0.097-0.654-0.143C530.822,344.501,530.381,344.438,529.944,344.361z"/>
<path fill="none" stroke="#000000" stroke-width="2" d="M192.514,367.969c-0.066-0.522-0.103-1.055-0.065-1.607
	c0.798-11.896,16.558-6.829,23.927-8.68c14.254-3.58,16.607-21.551,27.457-29.459c1.105-0.806,2.277-1.505,3.494-2.125
	c-5.479-2.978-12.854-5.144-12.786-8.268c0.131-6.013,8.563-8.348,16.024-6.636c0.33-9.518,0.069-19.051-0.366-28.564
	c-0.314-6.694-0.292-7.121,4.526-11.345c3.691-3.235,6.076-7.53,6.378-12.493c0.656-10.813-8.717-19.427-18.343-22.316
	c-0.333,0-0.625,0.002-0.898,0.006c-17.79,0.033-35.604,1.027-53.389,0.652c-12.123-0.256-30.755-3.849-39.372,7.118
	c-11.64,14.812-1.523,30.552,14.674,34.436c15.014,3.6,30.399,0.139,45.512-0.623c0,9.35,0,18.699,0,28.048
	c0,3.932,1.093,7.57-1.908,10.286c-6.673,6.042-14.761,9.875-23.577,11.592c-45.322,8.824-77.399-35.788-73.997-77.134
	c1.719-20.892,12.383-36.893,29.739-48.39c8.972-5.944,18.756-10.253,28.846-13.914c8.861-3.216,18.948-7.301,28.554-5.216
	c14.588,3.168,38.861,18.083,47.508-3.496c8.285-20.729-17.38-32.476-33.037-35.447c-26.166-4.964-50.516,1.016-74.42,11.8
	c-22.613,10.202-42.358,23.856-54.652,45.957C57.95,246,67.142,305.437,102.514,340.752
	C126.76,364.958,160.899,374.533,192.514,367.969z"/>
<path fill="none" stroke="#231F20" stroke-width="2" stroke-miterlimit="10" d="M258.394,398.734
	c-5.31,1.281-8.09,9.279-14.718,7.91c-5.973-1.234-4.064-8.32-3.944-13.461c-3.382,3.238-11.757,6.131-15.982,4.506
	c-6.054-2.327-3.865-10.177-2.935-14.743c-8.761,2.451-16.942,2.976-12.015-7.743c-5.695,3.828-14.766,0.074-16.177-6.496
	c-5.15,1.131-10.381,1.871-15.563,2.193c-20.617,1.28-38.898,4.198-48.644,24.305c-3.983,8.218-1.007,21.75,2.409,29.55
	c6.203,14.17,19.506,31.832,35.482,43.281c24.754,17.736,49.785,10.9,73.997-4.209c12.582-7.85,18.744-19.725,21.242-34.01
	c0.926-5.294,2.113-11.122,3.127-17.104C259.761,417.062,258.499,402.557,258.394,398.734z"/>
<path fill="none" stroke="#231F20" stroke-width="2" stroke-miterlimit="10" d="M247.088,357.501
	c-7.256-6.671-3.425-18.666,4.673-22.86c9.322-4.829,20.477,5.708,18.794,15.241c-1.271,7.203-7.459,12.152-14.811,11.267
	C251.96,360.694,249.108,359.357,247.088,357.501z"/>
<path fill="none" stroke="#231F20" stroke-width="2" stroke-miterlimit="10" d="M259.512,340.399
	c7.072-2.03,12.427,5.926,7.839,11.712c-4.082,5.147-13.044,2.646-12.932-4.212C254.475,344.457,255.979,341.412,259.512,340.399z"
	/>
<path fill="none" stroke="#231F20" stroke-width="2" stroke-miterlimit="10" d="M263.818,345.068
	c1.568-1.867,4.906-0.574,4.689,1.926c-0.174,2.002-2.18,3.495-3.829,2.276C263.304,348.254,262.599,346.519,263.818,345.068z"/>
<path fill="none" stroke="#231F20" stroke-width="2" stroke-miterlimit="10" d="M294.35,362.097
	c-11.417,5.306-13.209-17.319-7.594-22.469c3.321-3.046,8.933-3.345,13.12-2.882c8.25,0.912,11.76,4.933,18.343,8.538
	C313.211,351.958,302.087,358.501,294.35,362.097z"/>
<path fill="none" stroke="#231F20" stroke-width="2" stroke-miterlimit="10" d="M170.229,391.983
	c-4.124-2.473-13.021-5.373-13.662,2.294c-0.371,4.422,6.339,8.557,9.633,10.117c-4.55,0.215-10.07,1.965-8.082,7.561
	c1.733,4.873,8.876,5.883,13.048,6.787c-22.039,8.922,21.069,28.342,32.653,27.344c7.967-0.688,18.145-3.877,22.078-11.955
	c6.033-12.393-5.526-18.715-15.772-21.822c-5.481-1.664-10.58-2.52-15.672-5.102C185.912,402.879,178.42,396.893,170.229,391.983z"
	/>
<path fill="none" stroke="#231F20" stroke-width="2" stroke-miterlimit="10" d="M299.876,336.747
	c-1.835-0.203-3.943-0.259-6.012-0.002c-3.739-4.541-8.988-8.171-14.864-10.594c3.76-2.001,9.889-2.68,8.683-6.072
	c-1.738-4.895-13.152-2.685-16.579-2.919c-2.01-4.445-9.916-25.102-12.266-1.57c-7.072-7.44-24.11-6.329-24.297,2.239
	c-0.069,3.124,7.307,5.29,12.786,8.268c-1.216,0.62-2.389,1.32-3.494,2.125c-10.849,7.909-13.202,25.88-27.457,29.459
	c-7.37,1.851-23.129-3.216-23.927,8.68c-0.055,0.815,0.012,1.598,0.173,2.347c-5.15,1.131-10.381,1.871-15.563,2.193
	c-14.005,0.87-26.929,2.502-36.835,9.758c-7.091-5.089-16.567-8.237-23.152-9.641c-3.505-0.747-11.533-3.714-17.75-3.401
	c-3.973,0.2-7.207,1.739-8.05,6.052c-0.788,4.023,10.857,15.837,14.682,15.201c-6.665,1.11-18.777,5.034-22.153,11.528
	c-6.579,12.66,8.988,10.919,16.062,12.193c-5.588,3.122-9.593,8.482-5.722,14.811c4.837,7.907,13.808,4.237,20.063,0.201
	c3.591-2.316,9.057-5.056,14.641-8.261c0.605,1.979,1.281,3.82,1.979,5.415c6.203,14.17,19.506,31.832,35.482,43.28
	c1.644,1.178,3.289,2.24,4.935,3.205c0.285,5.768,0.306,11.488,6.473,14.27c-2.816,6.028-5.892,13.208-2.94,14.769
	c0.438,0.231,0.907,0.214,1.399-0.009c1.329,1.3,3.269,2.391,4.536,3.539c5.017,4.552,6.855,12.796,12.283,16.53
	c0.323-0.061,0.611-0.199,0.862-0.413c1.908-5.203-1.844-12.406-6.266-15.34c3.345,1.487,17.151,11.369,19.341,9.152
	c5.789-5.858-13.931-14.278-16.689-15.551c5.085-0.344,9.365,0.675,13.879,2.408c4.694,1.803,8.169,2.359,3.094-2.921
	c-4.556-4.74-10.039-5.157-15.99-4.973c-2.35,0.073-6.216-0.475-9.612-0.215c0.855-1.811,1.688-3.78,2.466-5.741
	c3.588-0.312,6.369-2.611,8.566-6.426c0.339-0.59,0.732-1.22,1.149-1.875c8.648,0.631,17.281-0.986,25.853-4.174
	c0.925,0.38,1.828,0.758,2.688,1.144c5.407,2.425,13.26,7.079,19.178,4.514c0.074-0.032,0.133-0.072,0.204-0.105
	c2.292,2.315,5.073,5.213,7.689,7.401c-0.267,0.81-0.368,1.621-0.235,2.421c0.903,5.416,6.34,2.784,9.919,2.5
	c6.752-0.533,14.017,3.778,20.457,2.382c0.177-0.276,0.273-0.58,0.289-0.91c-2.481-4.954-10.299-7.159-15.465-5.947
	c3.375-1.418,20.031-4.7,19.918-7.814c-0.3-8.232-19.946,0.361-22.763,1.498c3.235-3.94,6.911-6.359,11.266-8.458
	c4.529-2.184,7.317-4.332-0.007-4.256c-6.575,0.07-10.635,3.777-14.579,8.239c-1.215,1.374-3.34,3.161-5.231,5.14
	c-2.234-2.399-5.045-4.972-7.707-7.267c0.279-3.352-1.454-7.626-3.793-11.701c11.787-7.847,17.657-19.405,20.075-33.233
	c0.926-5.294,2.113-11.122,3.127-17.104c0.251-0.223,0.509-0.479,0.78-0.805c1.597-1.92,1.326-7.3,2.249-9.82
	c1.074-2.934,2.9-7.004,4.586-9.55c4.257-6.429,10.338-11.965,14.819-18.346c1.413-2.012,3.931-7.526,6.494-11.796
	c0.248-0.092,0.494-0.181,0.751-0.301c7.737-3.596,18.861-10.139,23.869-16.813C311.636,341.68,308.126,337.658,299.876,336.747z"/>
<path fill="none" stroke="#231F20" stroke-width="2" stroke-miterlimit="10" d="M374.921,301.107
	c9.777-8.987,4.614-25.147-6.297-30.799c-12.559-6.505-27.588,7.69-25.322,20.534c1.713,9.707,10.051,16.375,19.955,15.181
	C368.357,305.409,372.2,303.608,374.921,301.107z"/>
<path fill="none" stroke="#231F20" stroke-width="2" stroke-miterlimit="10" d="M358.184,278.066
	c-9.526-2.734-16.743,7.983-10.562,15.78c5.5,6.934,17.575,3.565,17.423-5.674C364.969,283.533,362.941,279.431,358.184,278.066z"/>
<path fill="none" stroke="#231F20" stroke-width="2" stroke-miterlimit="10" d="M352.382,284.356
	c-2.113-2.515-6.61-0.773-6.317,2.595c0.233,2.697,2.937,4.709,5.159,3.066C353.072,288.65,354.024,286.312,352.382,284.356z"/>
<g>
	<path fill="none" stroke="#231F20" stroke-width="2" stroke-miterlimit="10" d="M546.481,333.252
		c-6.401-5.779-14.75-9.203-24.322-8.458c-16.829,1.308-30.348,10.97-41.352,23.371c-0.343,0.387-0.685,0.783-1.029,1.177
		c-2.638,3.05-6.191,8.991-10.247,15.231c-2.891,0.067-6.092,0.082-9.384,0.032c-2.672,4.082-7.646,8.541-9.071,10.337
		c3.775-2.589,8.14-5.927,12.436-6.542c0.402,13.219-15.49,23.759-24.112,31.308c2.699-1.18,5.778-1.975,8.877-1.627
		c1.206,17.145-37.042,30.538-50.718,27.835c-14.228-2.811-20.786-21.884-17.089-34.596c2.181-7.498,5.948-9.98,12.884-12.3
		c11.979-4.006,21.851-7.568,32.188-15.812c1.396-1.114,2.875-2.346,4.41-3.612c-4.442-3.95-8.218-8.729-12.088-13.379
		c-4.219,4.446-11.178,7.314-15.664,2.485c8.698,13.638-8.611,10.352-15.819,4.825c1.07,17.245-8.746,8.484-16.573,3.147
		c-3.165,12.767-9.624,11.691-18.347,3.127c-1.16,5.754-4.212,10.928-10.309,8.519c-1.835-0.725-3.091-1.901-3.959-3.334
		c-7.827,15.83-4.805,34.421,2.182,50.56c12.384,28.6,39.897,45.856,71.544,41.059c40.76-6.178,58.695-42.7,68.038-78.16
		c4.339-0.718,8.841-1.284,13.385-1.562c9.645-0.597,19.443,0.097,28.05,3.312c10.246,3.839,14.686,9.747,16.479,20.757
		c1.061,6.497-5.645,23.506-2.403,25.888c18.841-14.05,21.14-46.521,1.206-60.093c-1.244-0.86-2.57-1.631-3.988-2.323
		c-15.195-7.411-31.83-5.637-47.582-0.291c-0.401,0.136-0.834,0.298-1.288,0.479h-0.006c-0.001,0-0.002,0.001-0.004,0.001
		c0.002-0.001,0.003-0.002,0.004-0.003h0.006c10.823-9.009,23.902-17.539,37.545-19.927c4.117-0.718,7.677-0.77,10.894-0.09
		c0.22,0.045,0.432,0.09,0.653,0.143c5.159,1.262,9.471,4.439,13.895,9.772c4.33,5.216,7.256,23.804,11.372,24.231
		c1.036-2.46,1.772-5.009,2.233-7.605v-0.006C561.864,357.395,556.602,342.386,546.481,333.252z"/>
	<path fill="none" stroke="#231F20" stroke-width="2" stroke-miterlimit="10" d="M443.881,363.748
		c-1.721,1.806-3.433,3.344-4.688,4.419c1.351-0.549,3.879-2.287,6.729-4.228C445.229,363.88,444.548,363.816,443.881,363.748z"/>
</g>
<path fill="none" stroke="#231F20" stroke-width="2" stroke-miterlimit="10" d="M303.677,298.041c7.86,0.458,23.838,5.1,30.16-1.593
	c6.281-6.648,3.683-20.878-3.854-25.369c-7.413-4.417-15.39-7.679-23.895-4.109c4.343,4.344,9.407,9.461,14.286,13.724
	C314.436,285.7,306.555,290.229,303.677,298.041z"/>
<path fill="none" stroke="#231F20" stroke-width="2" stroke-miterlimit="10" d="M417.859,334.473
	c-1.779-0.575-6.05,3.198-8.695,1.657c-2.735-1.594-2.287-5.857-2.376-8.655c-0.194-6.106,0.905-13.13,0.832-19.547
	c-0.166-14.777-2.779-26.559-15.011-35.978c-10.197-7.852-22.907-11.214-35.614-9.345c-9.281,1.365-17.692,4.933-24.271,10.755
	c-0.82-0.905-1.735-1.682-2.741-2.282c-7.413-4.417-15.39-7.679-23.895-4.109c4.343,4.344,9.407,9.461,14.286,13.724
	c-5.939,5.006-13.82,9.536-16.698,17.347c4.261,0.249,10.909,1.724,17.11,1.958c0.124,0.761,0.299,1.505,0.539,2.22
	c2.995,8.883,10.093,6.44,15.999,11.387c8.865,7.427-1.173,27.291-1.687,37.321c-0.301,5.835-1.329,14.689,5.513,17.392
	c6.097,2.409,9.148-2.765,10.309-8.519c8.723,8.564,15.182,9.64,18.347-3.127c7.827,5.337,17.644,14.098,16.573-3.147
	c7.208,5.527,24.518,8.813,15.819-4.825C410.976,358.15,429.247,338.15,417.859,334.473z"/>
</svg>
