<?xml version="1.0" encoding="utf-8"?>
<!-- Generator: Adobe Illustrator 16.0.0, SVG Export Plug-In . SVG Version: 6.00 Build 0)  -->
<!DOCTYPE svg PUBLIC "-//W3C//DTD SVG 1.1//EN" "http://www.w3.org/Graphics/SVG/1.1/DTD/svg11.dtd">
<svg version="1.1" id="Layer_1" xmlns="http://www.w3.org/2000/svg" xmlns:xlink="http://www.w3.org/1999/xlink" x="0px" y="0px"
	 width="1000px" height="1000px" viewBox="0 0 1000 1000" enable-background="new 0 0 1000 1000" xml:space="preserve">
<path fill="none" stroke="#231F20" stroke-width="2" stroke-miterlimit="10" d="M212.069,826.637
	c4.762,0.186,8.918,4.771,6.851,9.56c-2.6,5.999-13.931,4.438-18.785,4.088c-3.935-0.28-10.67,1.139-14.033-1.437
	c-4.842-3.71-2.947-11.652,3.425-12.211c9.146-0.791,5.083-13.21,5.083-21.878c0-7.642,4.017-21.702-4.751-21.935
	c-5.877-0.141-8.76-6.171-5.304-10.662c3.593-4.677,12.377-2.768,17.293-2.818c4.507-0.042,9.322-0.729,13.536,0.939
	c5.609,3.176,4.244,11.138-1.712,12.32c-9.002,1.811-5.581,7.884-5.581,17.586c0,8.89,0,17.777,0,26.668
	C209.396,826.857,210.775,826.782,212.069,826.637z"/>
<path fill="none" stroke="#231F20" stroke-width="2" stroke-miterlimit="10" d="M231.626,861.333
	c-8.927-11.018,6.172-11.391,12.597-8.177c11.175,5.205,17.68-1.861,17.68-12.486c-22.298,7.664-39.586-10.501-33.992-32.775
	c2.478-9.867,10.39-17.705,20.677-19.157c3.626-0.511,23.729,2.945,25.249,4.973c6.434,9.678,3.718,48.022,0.276,59.115
	C268.262,871.63,244.833,870.701,231.626,861.333z"/>
<path fill="none" stroke="#231F20" stroke-width="2" stroke-miterlimit="10" d="M244.665,827.631
	c12.649,6.042,24.647-7.78,17.238-19.778C246.159,792.123,234.902,814.671,244.665,827.631
	C247.906,829.179,244.444,827.338,244.665,827.631z"/>
<path fill="none" stroke="#231F20" stroke-width="2" stroke-miterlimit="10" d="M330.963,829.621
	c6.554,9.459-6.806,13.462-12.818,4.861c-11.104,9.116-25.937,6.616-32.707-6.078c-2.948-5.627-4.429-52.813,9.668-37.515
	c5.907,6.437-0.997,23.017,2.542,31.438c2.669,6.356,9.348,4.77,13.094,0.772c4.918-5.637,2.333-11.989,2.542-19.227
	c0-6.351,9.211-24.8,13.812-11.051C331.074,804.787,322.574,817.785,330.963,829.621
	C331.626,830.578,329.709,827.854,330.963,829.621z"/>
<path fill="none" stroke="#231F20" stroke-width="2" stroke-miterlimit="10" d="M386.431,833.377
	c2.498,9.068-8.491,10.533-12.816,4.42c-7.389,5.539-18.917,5.927-26.837,1.175c-16.165-9.698-8.113-34.219,3.412-44.034
	c10.72-9.131,30.938-12.508,30.938,5.513C381.127,812.4,380.076,822.847,386.431,833.377z"/>
<path fill="none" stroke="#231F20" stroke-width="2" stroke-miterlimit="10" d="M363.006,828.404
	c8.795-5.58,4.05-17.487,4.42-27.402C350.812,803.958,347.004,834.824,363.006,828.404
	C363.815,827.891,361.901,828.848,363.006,828.404z"/>
<path fill="none" stroke="#231F20" stroke-width="2" stroke-miterlimit="10" d="M438.253,835.366
	c-0.561,4.685-5.446,8.489-10.055,6.188c-6.275-3.144-3.438-17.147-3.412-22.526c0.046-10.191-1.284-31.643-14.875-11.894
	c-3.99,5.781-1.957,17.236-1.603,23.922c0.661,12.803-13.963,13.523-13.535,0.72c0.396-12.509-0.056-25.108-0.056-37.625
	c0-6.971,9.083-8.212,12.486-2.982c5.68-3.693,13.099-5.404,19.724-3.537C443.773,792.393,438.253,822.411,438.253,835.366z"/>
<path fill="none" stroke="#231F20" stroke-width="2" stroke-miterlimit="10" d="M495.49,833.377
	c2.498,9.068-8.492,10.533-12.817,4.42c-7.388,5.539-18.917,5.927-26.838,1.175c-16.164-9.698-8.113-34.219,3.412-44.034
	c10.72-9.131,30.938-12.508,30.938,5.513C490.188,812.4,489.135,822.847,495.49,833.377z"/>
<path fill="none" stroke="#231F20" stroke-width="2" stroke-miterlimit="10" d="M472.065,828.404
	c8.795-5.58,4.05-17.487,4.42-27.402C459.872,803.958,456.062,834.824,472.065,828.404
	C472.875,827.891,470.96,828.848,472.065,828.404z"/>
<path fill="none" stroke="#231F20" stroke-width="2" stroke-miterlimit="10" d="M544.99,772.271
	c1.049-9.753,14.822-10.549,15.139-0.222C560.748,782.644,546.057,782.443,544.99,772.271z"/>
<path fill="none" stroke="#231F20" stroke-width="2" stroke-miterlimit="10" d="M559.576,835.146
	c-1,9.926-12.948,7.688-13.592-1.051c-0.913-12.235,1.051-24.692-0.441-36.905c-1.714-14.015,13.812-13.616,13.812,1.05
	C559.355,810.542,559.604,822.842,559.576,835.146z"/>
<path fill="none" stroke="#231F20" stroke-width="2" stroke-miterlimit="10" d="M575.045,861.333
	c-8.926-11.021,6.174-11.389,12.598-8.177c11.175,5.206,17.681-1.863,17.681-12.486c-22.299,7.661-39.586-10.499-33.993-32.775
	c2.478-9.866,10.391-17.707,20.678-19.157c3.627-0.511,23.729,2.945,25.249,4.973c6.433,9.689,3.722,48.013,0.275,59.115
	C611.681,871.63,588.252,870.701,575.045,861.333z"/>
<path fill="none" stroke="#231F20" stroke-width="2" stroke-miterlimit="10" d="M588.084,827.631
	c12.649,6.043,24.646-7.78,17.238-19.778C589.576,792.128,578.319,814.669,588.084,827.631
	C591.324,829.179,587.863,827.338,588.084,827.631z"/>
<path fill="none" stroke="#231F20" stroke-width="2" stroke-miterlimit="10" d="M674.382,829.621
	c6.553,9.458-6.807,13.465-12.816,4.861c-11.104,9.114-25.938,6.618-32.707-6.078c-2.948-5.627-4.432-52.813,9.668-37.515
	c5.906,6.439-0.998,23.015,2.541,31.438c2.669,6.355,9.349,4.771,13.094,0.772c4.923-5.632,2.334-11.993,2.542-19.227
	c0-6.352,9.205-24.799,13.812-11.051C674.498,804.786,665.995,817.782,674.382,829.621
	C675.045,830.578,673.129,827.854,674.382,829.621z"/>
<path fill="none" stroke="#231F20" stroke-width="2" stroke-miterlimit="10" d="M729.851,833.377
	c2.493,9.066-8.49,10.536-12.816,4.42c-7.391,5.537-18.917,5.928-26.838,1.175c-16.164-9.7-8.114-34.218,3.412-44.034
	c10.719-9.13,30.938-12.508,30.938,5.513C724.547,812.399,723.493,822.848,729.851,833.377z"/>
<path fill="none" stroke="#231F20" stroke-width="2" stroke-miterlimit="10" d="M706.425,828.404
	c8.795-5.58,4.05-17.488,4.42-27.402C694.229,803.958,690.428,834.826,706.425,828.404
	C707.234,827.891,705.32,828.848,706.425,828.404z"/>
<path fill="none" stroke="#231F20" stroke-width="2" stroke-miterlimit="10" d="M781.672,835.366
	c-0.561,4.684-5.446,8.491-10.055,6.188c-6.274-3.142-3.438-17.148-3.412-22.526c0.047-10.196-1.283-31.638-14.876-11.894
	c-3.988,5.781-1.956,17.236-1.603,23.922c0.661,12.803-13.963,13.523-13.535,0.72c0.396-12.509-0.057-25.108-0.057-37.625
	c0-6.97,9.083-8.215,12.486-2.982c5.68-3.693,13.099-5.404,19.724-3.537C787.192,792.392,781.672,822.412,781.672,835.366z"/>
<path fill="none" stroke="#231F20" stroke-width="2" stroke-miterlimit="10" d="M838.909,833.377
	c2.494,9.068-8.491,10.533-12.818,4.42c-7.387,5.54-18.917,5.926-26.837,1.175c-16.165-9.697-8.113-34.219,3.412-44.034
	c10.72-9.131,30.938-12.507,30.938,5.513C833.604,812.401,832.555,822.845,838.909,833.377z"/>
<path fill="none" stroke="#231F20" stroke-width="2" stroke-miterlimit="10" d="M815.483,828.404
	c8.795-5.58,4.05-17.488,4.42-27.402C803.293,803.957,799.479,834.823,815.483,828.404
	C816.293,827.891,814.378,828.848,815.483,828.404z"/>
<path fill="none" stroke="#231F20" stroke-width="2" stroke-miterlimit="10" d="M393.156,934.289
	c4.67,9.017-6.781,9.155-11.022,3.562c-6.254-8.243-9.377-19.508-9.696-29.71c-0.342-10.86,2.127-20.556,7.211-30.041
	c1.323-2.351,12.68-16.552,13.757-5.594c0.488,5.047-5.346,10.884-7.5,15.207c-3.171,6.332-3.61,15.398-3.273,22.127
	C383.084,918.917,385.875,928.422,393.156,934.289z"/>
<path fill="none" stroke="#231F20" stroke-width="2" stroke-miterlimit="10" d="M400.532,878.764
	c0.788-7.312,11.117-7.912,11.354-0.166C412.39,887.233,402.265,885.44,400.532,878.764z"/>
<path fill="none" stroke="#231F20" stroke-width="2" stroke-miterlimit="10" d="M411.471,925.919
	c-0.558,5.538-8.203,7.165-9.819,1.367c-2.627-9.335,0.472-20.235-0.705-29.834c-0.998-8.161,10.358-11.566,10.358-3.149
	C411.305,904.842,411.526,915.38,411.471,925.919z"/>
<path fill="none" stroke="#231F20" stroke-width="2" stroke-miterlimit="10" d="M423.073,945.56
	c-6.694-8.259,4.627-8.549,9.446-6.132c8.384,3.894,13.261-1.39,13.261-9.365c-38.959,13.378-28.482-55.277,1.657-35.801
	c12.168-10.898,8.452,35.099,8.452,38.287C455.891,950.854,435.657,954.66,423.073,945.56z"/>
<path fill="none" stroke="#231F20" stroke-width="2" stroke-miterlimit="10" d="M432.852,920.283
	c16.803,8.02,18.588-20.805,2.818-18.729C428.593,905.589,428.225,914.141,432.852,920.283
	C435.283,921.443,432.688,920.062,432.852,920.283z"/>
<path fill="none" stroke="#231F20" stroke-width="2" stroke-miterlimit="10" d="M497.575,921.775
	c3.183,4.603-2.438,11.319-7.127,6.629c-6.806-6.793-27.854,9.252-29.047-15.248c-0.24-4.869-1.219-14.208,0.829-19.228
	c4.975-12.158,9.542,6.854,9.281,9.861c-0.461,5.328,1.476,23.146,10.898,13.095c4.911-5.619,0.444-14.344,2.693-21.423
	c2.093-6.6,9.985-5.464,9.985,1.367C495.089,905.11,492.307,914.346,497.575,921.775
	C498.072,922.494,496.635,920.449,497.575,921.775z"/>
<path fill="none" stroke="#231F20" stroke-width="2" stroke-miterlimit="10" d="M539.176,924.593
	c2.428,8.791-27.21,7.218-32.277,2.237c-11.741-11.515,0.991-31.313,13.052-35.635C542.84,883.045,531.668,913.34,539.176,924.593z"
	/>
<path fill="none" stroke="#231F20" stroke-width="2" stroke-miterlimit="10" d="M521.607,920.863
	c7.146-4.538,3.021-12.728,3.313-20.554C511.768,902.656,509.79,925.602,521.607,920.863
	C522.215,920.479,520.779,921.195,521.607,920.863z"/>
<path fill="none" stroke="#231F20" stroke-width="2" stroke-miterlimit="10" d="M578.043,926.084
	c-1.584,13.191-10.111-1.322-10.111-7.789c0-6.109,3.995-26.075-8.534-16.326c-2.083,1.691-6.083,38.896-12.847,26.645
	c-3.89-7.018-1.16-20.5-1.16-27.93c0-12.846,7.081-8.854,16.658-10.647C582.933,886.112,578.043,914.138,578.043,926.084z"/>
<path fill="none" stroke="#231F20" stroke-width="2" stroke-miterlimit="10" d="M620.971,924.593
	c2.422,8.794-27.209,7.217-32.278,2.237c-11.736-11.518,0.987-31.312,13.053-35.635
	C624.633,883.046,613.462,913.339,620.971,924.593z"/>
<path fill="none" stroke="#231F20" stroke-width="2" stroke-miterlimit="10" d="M603.401,920.863
	c7.146-4.538,3.022-12.729,3.314-20.554C593.567,902.655,591.578,925.599,603.401,920.863
	C604.009,920.479,602.572,921.195,603.401,920.863z"/>
<path fill="none" stroke="#231F20" stroke-width="2" stroke-miterlimit="10" d="M628.014,933.211
	c8.984-9.004,10.711-22.244,9.116-34.516c-1.103-8.469-4.938-15.003-9.655-21.961c-3.852-5.682,5.433-11.44,8.826-4.933
	c10.957,15.449,14.586,33.49,8.702,51.795c-1.458,4.375-8.668,23.618-17.113,17.984C624.56,939.359,626.216,935.61,628.014,933.211z
	"/>
<g>
	<path fill="none" stroke="#231F20" stroke-width="2" stroke-miterlimit="10" d="M291.494,415.765
		c-2.211,5.365-5.401,11.774-9.295,17.25c7.891-0.583,15.635,0.568,20.853,3.338c0.922,0.489,1.818,1.019,2.69,1.585
		C303.966,429.595,298.709,421.547,291.494,415.765z"/>
	<path fill="none" stroke="#231F20" stroke-width="2" stroke-miterlimit="10" d="M210.412,473.81
		c4.951-10.052,17.522-29.447,30.087-30.719c5.244-0.529,9.75,1.152,13.489,4.209c0.642-1.21,1.414-2.344,2.311-3.397
		c-14.44-6.343-22.721-30.844-19.31-44.143c1.994-7.772,6.601-14.646,12.449-20.948c0-45.951,0-91.902,0-137.853
		c0-13.822,0-27.645,0-41.467c0-12.984-1.261-11.151,13.812-11.151c25.957,0,52.31-21.206,37.048-48.791
		c-15.343-27.732-55.966-19.139-82.076-18.889c-28.454,0.285-75.647-9.987-91.093,21.481c-16.536,33.69,21.195,45.982,46.615,46.169
		c11.77,0.086,8.291,2.924,8.291,13.575c0,12.937,0,25.872,0,38.808c0,55.477,0,110.954,0,166.431
		c-18.264-1.58-39.051-2.103-50.676,14.549c-9.068,12.991-7.646,30.481,3.131,41.992c14.119,15.08,37.884,10.862,56.577,10.862
		c5.955,0,12.208,0.354,18.63,0.815C209.929,474.834,210.158,474.325,210.412,473.81z"/>
</g>
<path fill="none" stroke="#231F20" stroke-width="2" stroke-miterlimit="10" d="M460.409,455.062
	c11.127-0.147,21.234-10.902,18.482-23.427c-0.547,10.951-14.116,14.917-23.157,15.592c-28.69,2.367-53.346-11.251-75.909-27.297
	c-5.552-4.358-12.678-5.418-19.284-5.607c-2.621-0.131-4.7,0.645-5.607,3.018c0.708,2.593,1.512,5.128,2.387,7.613
	c2.391-0.794,5.062-1.033,8.064-0.537C398.753,429.885,425.983,456.722,460.409,455.062z"/>
<path fill="none" stroke="#231F20" stroke-width="2" stroke-miterlimit="10" d="M550.238,391.093
	c3.729-13.419,0.029-29.527-7.328-40.611c-11.521-17.355-33.57-18.841-52.233-14.21c-19.475,4.833-44.312,20.089-38.201,43.696
	c1.419,5.48,4.053,10.167,7.479,14.231c7.476,14.403,23.854,28.183,39.824,33.901c31.229,11.187,46.189-18.471,50.78-36.956
	L550.238,391.093z"/>
<path fill="none" stroke="#231F20" stroke-width="2" stroke-miterlimit="10" d="M483.178,346.204
	c35.033-15.867,66.708,3.043,63.902,41.017C541.656,460.603,407.32,380.56,483.178,346.204z"/>
<path fill="none" stroke="#231F20" stroke-width="2" stroke-miterlimit="10" d="M499.699,392.923
	c18.904,14.642,28.198-22.286,8.955-24.071C494.196,367.511,489.033,384.663,499.699,392.923z"/>
<path fill="none" stroke="#231F20" stroke-width="2" stroke-miterlimit="10" d="M782.766,586.721
	c41.631-40.33,63.081-109.887,27.703-160.375c-31.734-45.292-66.549-67.279-123.299-60.55
	c-24.383,2.892-42.457,12.827-58.803,30.907c43.521,11.91,79.966,16.652,118.057,44.541c31.697,23.207,56.277,54.393,45.938,94.681
	c-4.477,17.44-8.584,34.157-9.946,52.188L782.766,586.721z"/>
<path fill="none" stroke="#231F20" stroke-width="2" stroke-miterlimit="10" d="M537.131,332.928
	c-15.854-11.124,19.958,1.054,33.659,15.419c17.09,17.922,9.979,24.031,1.301,43.07
	C561.863,376.082,562.203,350.518,537.131,332.928z"/>
<path fill="none" stroke="#231F20" stroke-width="2" stroke-miterlimit="10" d="M514.729,376.614
	c-6.735-1.927-13.577,4.354-6.482,8.352C518.202,390.577,514.852,376.152,514.729,376.614z"/>
<path fill="none" stroke="#231F20" stroke-width="2" stroke-miterlimit="10" d="M476.35,488.117c0,38.003,67.904,38.003,67.904,0
	S476.35,450.113,476.35,488.117C476.35,504.069,476.35,472.165,476.35,488.117z"/>
<g>
	<path fill="none" stroke="#231F20" stroke-width="2" stroke-miterlimit="10" d="M434.44,451.335
		c5.753,1.805,11.63,3.094,17.709,3.576L434.44,451.335z"/>
	<path fill="none" stroke="#231F20" stroke-width="2" stroke-miterlimit="10" d="M498.275,526.478
		c-30.097-5.066-59.478-22.932-85.617-38.206c-18.863-11.022-34.302-24.903-45.055-42.028c-1.576-2.51-3.05-5.09-4.42-7.739
		c6.053,19.629-1.615,42.398,10.774,59.885c7.074,9.987,10.539,7.9,20.105,8.881c17.753,1.82,8.996,23.775,17.765,37.163
		c10.747,16.405,19.088-14.573,32.317-11.457c18.001,4.243,6.148,40.691,20.592,44.456c9.928,2.592,15.6-14.178,24.434-17.722
		c10.947-4.392,17.064,0.032,26.074,6.871c19.133,14.519,19.514-6.166,25.281-23.572c1.903-5.744,4.734-14.006,8.167-18.784
		c3.007-4.186,7.812-4.819,10.695-8.292c3.27-3.947,3.671-15.505,3.835-25.243C548.877,515.183,528.256,531.524,498.275,526.478z"/>
</g>
<path fill="none" stroke="#231F20" stroke-width="2" stroke-miterlimit="10" d="M344.201,500.061
	c-11.778-19.469-19.639-52.283-41.149-63.708c-5.217-2.77-12.961-3.92-20.853-3.338c5.266-7.406,9.25-16.525,11.258-22.448
	c8.445-24.913-4.869-41.567-4.21-65.77c-16.159,16.023-46.207,31.372-52.258,54.963c-3.411,13.298,4.87,37.8,19.31,44.143
	c-0.897,1.053-1.669,2.188-2.311,3.397c-3.739-3.057-8.245-4.738-13.489-4.209c-12.565,1.271-25.136,20.667-30.087,30.719
	c-11.622,23.597-0.595,41.846-4.406,65.757c18.111-13.78,49.906-25.077,58.982-47.678c1.386-3.45,2.028-7.828,1.961-12.54
	c4.386,3.906,8.914,7.191,12.335,9.355C301.515,502.764,320.831,493.736,344.201,500.061z"/>
<path fill="none" stroke="#231F20" stroke-width="2" stroke-miterlimit="10" d="M344.201,500.061
	c-11.778-19.469-19.639-52.283-41.149-63.708c-15.024-7.977-50.998-2.56-51.12,19.174c-0.07,12.63,17.882,27.188,27.352,33.178
	C301.515,502.764,320.831,493.736,344.201,500.061z"/>
<path fill="none" stroke="#231F20" stroke-width="2" stroke-miterlimit="10" d="M843.754,616.843
	c-5.278-4.098-10.631-8.327-16.059-12.602c-1.955-1.539-3.92-3.084-5.896-4.63c-0.062-0.049-0.123-0.098-0.186-0.146
	c4.096-3.272,8.126-6.605,12.083-9.986c25.755-22.008,33.373-58.364,30.169-94.803c11.217-14.728,20.495-32.204,18.857-46.766
	c-1.87-16.628-20.159-17.566-32.22-9.702c-0.068-0.174-0.138-0.347-0.206-0.521c0.008-0.013,0.016-0.025,0.023-0.038
	c0.644-1.022,1.243-2.041,1.768-3.029c0.022-0.043,0.047-0.086,0.069-0.128c0.1-0.189,0.193-0.375,0.287-0.562
	c0.046-0.093,0.093-0.186,0.139-0.278c0.081-0.167,0.158-0.331,0.234-0.495c0.051-0.11,0.101-0.219,0.149-0.328
	c0.066-0.151,0.133-0.301,0.194-0.449c0.051-0.122,0.098-0.241,0.146-0.361c0.053-0.133,0.106-0.268,0.154-0.398
	c0.055-0.148,0.101-0.292,0.149-0.437c0.032-0.099,0.069-0.2,0.099-0.296c0.07-0.233,0.131-0.458,0.182-0.679
	c0.02-0.082,0.031-0.159,0.048-0.238c0.029-0.146,0.057-0.29,0.076-0.429c0.013-0.084,0.02-0.166,0.027-0.248
	c0.013-0.128,0.022-0.254,0.026-0.376c0.002-0.079,0.002-0.156,0-0.232c-0.003-0.119-0.012-0.234-0.025-0.346
	c-0.008-0.069-0.015-0.138-0.027-0.204c-0.021-0.117-0.053-0.228-0.087-0.335c-0.017-0.051-0.028-0.106-0.048-0.155
	c-0.06-0.153-0.132-0.297-0.222-0.428c-0.133-0.193-0.303-0.356-0.487-0.507c-0.043-0.035-0.087-0.069-0.132-0.102
	c-0.194-0.138-0.405-0.262-0.644-0.363c-0.022-0.009-0.049-0.016-0.071-0.025c-0.229-0.092-0.48-0.165-0.745-0.226
	c-0.057-0.013-0.111-0.026-0.17-0.038c-0.293-0.058-0.602-0.102-0.93-0.127c-0.032-0.002-0.066-0.003-0.1-0.005
	c-0.32-0.022-0.656-0.029-1.005-0.023c-0.041,0-0.08,0-0.122,0.001c-0.38,0.009-0.772,0.034-1.179,0.071
	c-0.023,0.002-0.048,0.005-0.072,0.008c-0.844,0.082-1.732,0.218-2.643,0.396c-0.003,0-0.006,0.001-0.009,0.001
	c-3.131-6.607-6.547-12.767-10.173-18.334c0.104-0.19,0.206-0.385,0.31-0.578c0.085-0.158,0.169-0.314,0.253-0.474
	c0.147-0.276,0.293-0.554,0.44-0.833c0.126-0.24,0.251-0.481,0.376-0.723c0.193-0.372,0.385-0.745,0.576-1.121
	c0.143-0.281,0.285-0.563,0.428-0.846c0.114-0.229,0.229-0.458,0.344-0.688c0.215-0.436,0.429-0.874,0.64-1.312
	c0.101-0.209,0.201-0.418,0.301-0.629c0.22-0.462,0.438-0.926,0.651-1.39c0.076-0.166,0.149-0.331,0.225-0.497
	c0.188-0.412,0.372-0.823,0.553-1.235c0.059-0.134,0.119-0.269,0.178-0.403c0.217-0.5,0.426-0.998,0.632-1.494
	c0.062-0.15,0.124-0.3,0.185-0.449c0.204-0.501,0.401-1,0.592-1.495c0.047-0.122,0.092-0.244,0.138-0.366
	c0.19-0.504,0.374-1.005,0.548-1.5c0.016-0.044,0.031-0.089,0.046-0.133c0.178-0.51,0.341-1.012,0.498-1.509
	c0.031-0.101,0.064-0.202,0.095-0.302c0.151-0.492,0.291-0.977,0.42-1.453c0.026-0.098,0.052-0.195,0.077-0.293
	c0.128-0.488,0.246-0.97,0.347-1.438c0.009-0.042,0.016-0.082,0.024-0.124c0.097-0.454,0.177-0.897,0.245-1.331
	c0.011-0.063,0.022-0.127,0.031-0.189c0.065-0.439,0.113-0.865,0.148-1.28c0.007-0.079,0.013-0.158,0.018-0.236
	c0.028-0.411,0.043-0.811,0.037-1.195c0-0.052-0.004-0.102-0.005-0.154c-0.011-0.374-0.036-0.734-0.081-1.078
	c-0.004-0.03-0.006-0.061-0.01-0.091c-0.05-0.35-0.124-0.679-0.213-0.995c-0.017-0.06-0.032-0.119-0.051-0.177
	c-0.095-0.303-0.208-0.59-0.343-0.857c-0.023-0.046-0.051-0.09-0.075-0.136c-0.149-0.272-0.313-0.531-0.509-0.762
	c-0.193-0.229-0.413-0.426-0.644-0.609c-0.044-0.035-0.088-0.072-0.133-0.105c-0.229-0.168-0.474-0.316-0.735-0.444
	c-0.049-0.024-0.101-0.045-0.15-0.067c-0.264-0.12-0.539-0.224-0.832-0.306c-0.017-0.005-0.032-0.012-0.05-0.016
	c-0.305-0.083-0.629-0.142-0.963-0.187c-0.065-0.009-0.131-0.019-0.198-0.026c-0.331-0.037-0.673-0.059-1.028-0.062
	c-0.061-0.001-0.123,0.001-0.186,0.002c-0.344,0.002-0.696,0.017-1.06,0.048c-0.041,0.003-0.079,0.004-0.12,0.008
	c-0.385,0.036-0.781,0.09-1.185,0.156c-0.09,0.014-0.179,0.029-0.269,0.045c-0.399,0.07-0.806,0.151-1.221,0.248
	c-0.078,0.018-0.159,0.04-0.238,0.059c-0.376,0.091-0.757,0.191-1.145,0.302c-0.083,0.024-0.165,0.045-0.249,0.07
	c-0.419,0.123-0.844,0.258-1.272,0.402c-0.13,0.043-0.261,0.088-0.392,0.133c-0.42,0.146-0.842,0.297-1.27,0.459
	c-0.124,0.047-0.249,0.098-0.374,0.146c-0.342,0.134-0.687,0.272-1.032,0.416c-0.15,0.062-0.301,0.123-0.452,0.188
	c-0.402,0.171-0.806,0.349-1.211,0.531c-0.194,0.088-0.389,0.177-0.584,0.267c-0.307,0.142-0.613,0.287-0.921,0.435
	c-0.293,0.141-0.585,0.283-0.877,0.429c-0.231,0.115-0.463,0.23-0.694,0.349c-0.271,0.138-0.542,0.277-0.813,0.418
	c-0.307,0.161-0.613,0.323-0.919,0.488c-0.274,0.148-0.547,0.297-0.819,0.448c-0.134,0.074-0.267,0.148-0.4,0.223
	c-0.496,0.277-0.987,0.557-1.475,0.841c-0.087,0.051-0.175,0.102-0.262,0.153c-0.915,0.537-1.809,1.08-2.676,1.626
	c-0.005,0.003-0.01,0.006-0.015,0.009c-4.396-4.212-9.01-8.009-13.81-11.419c0.287-1.288,0.571-2.637,0.848-4.034
	c0.022-0.11,0.044-0.221,0.065-0.332c0.084-0.428,0.167-0.858,0.249-1.294c0.016-0.079,0.029-0.16,0.045-0.24
	c0.142-0.759,0.279-1.527,0.413-2.304c0.041-0.239,0.082-0.478,0.123-0.718c0.059-0.351,0.115-0.702,0.173-1.056
	c0.05-0.312,0.098-0.625,0.146-0.938c0.06-0.392,0.119-0.782,0.177-1.175c0.07-0.482,0.139-0.966,0.203-1.449
	c0.037-0.277,0.072-0.553,0.108-0.831c0.051-0.397,0.099-0.793,0.146-1.189c0.03-0.25,0.061-0.5,0.088-0.75
	c0.067-0.605,0.131-1.209,0.188-1.81c0.018-0.186,0.032-0.369,0.049-0.553c0.042-0.474,0.081-0.945,0.115-1.414
	c0.016-0.207,0.031-0.414,0.045-0.619c0.039-0.589,0.074-1.174,0.101-1.752c0.002-0.049,0.005-0.1,0.007-0.149
	c0.026-0.609,0.043-1.209,0.053-1.803c0.004-0.169,0.005-0.336,0.007-0.503c0.005-0.498,0.003-0.99-0.005-1.474
	c-0.002-0.113-0.002-0.229-0.004-0.341c-0.014-0.582-0.037-1.151-0.07-1.709c-0.007-0.122-0.018-0.239-0.025-0.359
	c-0.031-0.456-0.069-0.901-0.115-1.337c-0.014-0.128-0.025-0.258-0.041-0.384c-0.061-0.528-0.132-1.044-0.217-1.541
	c-0.008-0.044-0.017-0.085-0.024-0.129c-0.079-0.448-0.171-0.878-0.271-1.296c-0.028-0.118-0.058-0.233-0.087-0.349
	c-0.105-0.405-0.219-0.796-0.345-1.169c-0.016-0.043-0.027-0.09-0.042-0.133c-0.143-0.407-0.302-0.788-0.472-1.152
	c-0.041-0.089-0.086-0.173-0.129-0.259c-0.144-0.286-0.297-0.557-0.46-0.812c-0.046-0.072-0.089-0.147-0.137-0.217
	c-0.206-0.301-0.426-0.58-0.662-0.831c-0.045-0.048-0.095-0.088-0.141-0.134c-0.201-0.2-0.413-0.381-0.636-0.544
	c-0.074-0.054-0.148-0.108-0.225-0.158c-0.278-0.183-0.568-0.347-0.881-0.471c-0.225-0.089-0.454-0.157-0.686-0.214
	c-0.062-0.015-0.124-0.029-0.187-0.042c-0.201-0.042-0.403-0.074-0.608-0.094c-0.036-0.003-0.07-0.01-0.106-0.013
	c-0.236-0.018-0.476-0.019-0.718-0.008c-0.062,0.002-0.124,0.008-0.186,0.013c-0.199,0.015-0.4,0.038-0.603,0.071
	c-0.056,0.009-0.109,0.016-0.165,0.026c-0.246,0.045-0.494,0.104-0.744,0.175c-0.057,0.017-0.114,0.036-0.171,0.054
	c-0.206,0.063-0.413,0.134-0.622,0.214c-0.066,0.025-0.134,0.05-0.201,0.077c-0.255,0.103-0.511,0.215-0.769,0.341
	c-0.041,0.02-0.083,0.043-0.124,0.064c-0.224,0.112-0.448,0.232-0.674,0.36c-0.074,0.042-0.148,0.084-0.223,0.128
	c-0.255,0.15-0.511,0.307-0.768,0.476c-0.009,0.006-0.019,0.011-0.027,0.018c-0.266,0.175-0.531,0.363-0.798,0.558
	c-0.076,0.056-0.152,0.112-0.229,0.169c-0.224,0.167-0.447,0.34-0.672,0.519c-0.049,0.039-0.098,0.076-0.146,0.116
	c-0.265,0.214-0.529,0.438-0.795,0.668c-0.075,0.065-0.15,0.132-0.226,0.199c-0.212,0.187-0.423,0.378-0.635,0.574
	c-0.068,0.063-0.136,0.125-0.204,0.188c-0.264,0.248-0.527,0.502-0.79,0.763c-0.067,0.066-0.135,0.135-0.202,0.203
	c-0.212,0.212-0.424,0.428-0.635,0.648c-0.076,0.079-0.152,0.158-0.229,0.238c-0.263,0.276-0.525,0.557-0.786,0.844
	c-0.051,0.055-0.101,0.112-0.15,0.167c-0.221,0.244-0.44,0.491-0.66,0.742c-0.081,0.093-0.162,0.185-0.243,0.278
	c-0.241,0.278-0.481,0.56-0.721,0.844c-0.028,0.034-0.057,0.067-0.085,0.101c-0.254,0.302-0.505,0.609-0.756,0.918
	c-0.08,0.099-0.16,0.199-0.24,0.298c-0.211,0.262-0.42,0.525-0.629,0.79c-0.05,0.064-0.102,0.128-0.151,0.192
	c-0.252,0.322-0.502,0.647-0.75,0.973c-0.071,0.093-0.142,0.187-0.212,0.28c-0.196,0.259-0.391,0.52-0.584,0.78
	c-0.064,0.086-0.129,0.172-0.192,0.258c-0.242,0.329-0.482,0.659-0.721,0.989c-0.057,0.079-0.113,0.159-0.17,0.238
	c-0.194,0.271-0.387,0.542-0.578,0.813c-0.063,0.09-0.128,0.181-0.191,0.271c-0.235,0.336-0.468,0.67-0.697,1.004
	c-0.028,0.042-0.057,0.082-0.084,0.124c-0.209,0.304-0.415,0.607-0.619,0.909c-0.055,0.082-0.11,0.163-0.165,0.245
	c-0.457,0.681-0.901,1.354-1.33,2.015c-0.043,0.067-0.086,0.133-0.129,0.2c-0.203,0.314-0.403,0.625-0.6,0.932
	c-0.009,0.014-0.019,0.028-0.027,0.042c-0.215,0.338-0.425,0.671-0.631,1c-0.022,0.036-0.045,0.07-0.066,0.106
	c-0.194,0.309-0.384,0.614-0.568,0.913c-0.01,0.016-0.021,0.033-0.03,0.049c-0.201,0.326-0.396,0.646-0.587,0.958
	c-4.011-1.52-8.092-2.854-12.24-3.99c-0.172-1.66-0.417-3.875-0.733-6.431c-0.006-0.045-0.012-0.091-0.018-0.137
	c-0.061-0.483-0.123-0.977-0.188-1.483c-0.006-0.043-0.012-0.087-0.018-0.131c-0.131-1.015-0.273-2.072-0.426-3.159
	c-0.012-0.086-0.024-0.172-0.036-0.259c-0.073-0.518-0.148-1.042-0.227-1.572c-0.012-0.083-0.024-0.168-0.037-0.252
	c-0.08-0.546-0.163-1.097-0.248-1.653c-0.001-0.006-0.002-0.012-0.003-0.019c-0.085-0.552-0.174-1.11-0.264-1.669
	c-0.016-0.099-0.031-0.197-0.048-0.295c-0.087-0.541-0.177-1.084-0.27-1.628c-0.018-0.103-0.035-0.206-0.053-0.309
	c-0.096-0.562-0.193-1.124-0.295-1.687c-0.004-0.023-0.008-0.046-0.012-0.069c-0.099-0.545-0.199-1.091-0.302-1.635
	c-0.02-0.102-0.038-0.204-0.058-0.305c-0.103-0.539-0.207-1.075-0.313-1.609c-0.023-0.114-0.046-0.227-0.069-0.341
	c-0.11-0.545-0.223-1.089-0.338-1.628c-0.01-0.046-0.02-0.092-0.03-0.138c-0.11-0.516-0.224-1.027-0.339-1.535
	c-0.021-0.091-0.041-0.183-0.062-0.273c-0.119-0.519-0.24-1.031-0.364-1.539c-0.025-0.104-0.051-0.206-0.076-0.309
	c-0.126-0.511-0.255-1.018-0.386-1.515c-0.016-0.059-0.032-0.117-0.048-0.176c-0.125-0.471-0.253-0.933-0.383-1.388
	c-0.021-0.072-0.04-0.145-0.061-0.216c-0.136-0.47-0.274-0.929-0.415-1.38c-0.029-0.094-0.059-0.188-0.089-0.282
	c-0.142-0.448-0.285-0.887-0.432-1.312c-0.021-0.061-0.042-0.119-0.063-0.179c-0.141-0.404-0.284-0.797-0.43-1.178
	c-0.02-0.052-0.039-0.105-0.059-0.156c-0.153-0.395-0.309-0.774-0.467-1.141c-0.032-0.077-0.065-0.152-0.098-0.227
	c-0.158-0.36-0.318-0.707-0.48-1.036c-0.026-0.052-0.052-0.101-0.078-0.152c-0.16-0.317-0.321-0.621-0.486-0.907
	c-0.016-0.027-0.031-0.057-0.047-0.084c-0.171-0.294-0.346-0.565-0.521-0.822c-0.035-0.051-0.07-0.102-0.105-0.152
	c-0.174-0.246-0.351-0.474-0.53-0.682c-0.031-0.036-0.062-0.069-0.093-0.104c-0.181-0.201-0.363-0.387-0.549-0.547
	c-0.01-0.009-0.02-0.019-0.029-0.027c-0.19-0.163-0.384-0.295-0.579-0.412c-0.037-0.022-0.073-0.045-0.11-0.066
	c-0.191-0.105-0.385-0.188-0.581-0.247c-0.036-0.011-0.072-0.018-0.108-0.028c-0.205-0.053-0.412-0.088-0.623-0.088
	c-0.241,0-0.485,0.035-0.731,0.093c-0.022,0.005-0.045,0.008-0.067,0.014c-0.234,0.06-0.472,0.148-0.71,0.257
	c-0.034,0.016-0.068,0.03-0.103,0.046c-0.233,0.113-0.468,0.25-0.704,0.406c-0.039,0.026-0.078,0.052-0.117,0.079
	c-0.234,0.163-0.471,0.345-0.708,0.548c-0.039,0.034-0.079,0.068-0.118,0.103c-0.24,0.211-0.48,0.439-0.723,0.688
	c-0.033,0.035-0.067,0.072-0.102,0.107c-0.249,0.261-0.498,0.538-0.749,0.836c-0.021,0.024-0.041,0.051-0.062,0.075
	c-0.255,0.307-0.511,0.631-0.767,0.973c-0.011,0.014-0.021,0.027-0.032,0.042c-0.256,0.344-0.513,0.708-0.77,1.083
	c-0.029,0.044-0.06,0.087-0.09,0.132c-0.245,0.362-0.49,0.741-0.734,1.129c-0.041,0.066-0.082,0.13-0.123,0.197
	c-0.24,0.385-0.479,0.782-0.717,1.189c-0.043,0.074-0.086,0.147-0.129,0.222c-0.237,0.41-0.475,0.829-0.71,1.257
	c-0.042,0.078-0.085,0.156-0.127,0.234c-0.238,0.437-0.475,0.88-0.71,1.333c-0.036,0.068-0.071,0.138-0.106,0.207
	c-0.243,0.47-0.484,0.946-0.724,1.431c-0.021,0.041-0.041,0.083-0.062,0.125c-0.236,0.48-0.471,0.967-0.704,1.458
	c-0.022,0.047-0.045,0.094-0.067,0.141c-0.232,0.493-0.463,0.992-0.691,1.493c-0.038,0.083-0.076,0.166-0.114,0.249
	c-0.219,0.483-0.436,0.971-0.651,1.459c-0.044,0.101-0.089,0.202-0.133,0.303c-0.21,0.481-0.418,0.963-0.624,1.446
	c-0.044,0.105-0.089,0.21-0.134,0.315c-0.204,0.483-0.406,0.967-0.605,1.449c-0.042,0.102-0.084,0.204-0.125,0.306
	c-0.201,0.488-0.399,0.975-0.594,1.459c-0.033,0.084-0.066,0.168-0.101,0.252c-0.196,0.491-0.39,0.979-0.579,1.463
	c-0.023,0.062-0.048,0.123-0.071,0.185c-0.184,0.47-0.363,0.936-0.54,1.398c-0.03,0.079-0.061,0.157-0.09,0.235
	c-0.181,0.474-0.356,0.94-0.529,1.402c-0.032,0.085-0.064,0.171-0.096,0.256c-0.167,0.448-0.33,0.888-0.488,1.321
	c-0.036,0.099-0.072,0.197-0.108,0.295c-0.156,0.428-0.309,0.848-0.456,1.259c-0.03,0.086-0.061,0.17-0.091,0.255
	c-0.148,0.415-0.293,0.821-0.433,1.215c-0.023,0.068-0.047,0.133-0.07,0.2c-0.144,0.408-0.283,0.807-0.416,1.19
	c-0.011,0.032-0.021,0.062-0.032,0.093c-0.284,0.822-0.543,1.582-0.773,2.266c-0.006,0.02-0.013,0.039-0.02,0.059
	c-0.476,1.417-0.826,2.501-1.028,3.136c-3.383-0.158-6.783-0.223-10.198-0.188c-0.015-0.091-0.03-0.198-0.046-0.296
	c-0.188-1.195-0.406-2.916-0.687-4.991c-0.008-0.059-0.017-0.121-0.024-0.181c-0.052-0.384-0.105-0.776-0.162-1.182
	c-0.017-0.123-0.035-0.248-0.052-0.372c-0.051-0.358-0.103-0.721-0.156-1.093c-0.023-0.158-0.047-0.318-0.07-0.479
	c-0.052-0.352-0.105-0.707-0.16-1.069c-0.028-0.18-0.057-0.361-0.085-0.544c-0.055-0.353-0.111-0.709-0.17-1.07
	c-0.032-0.194-0.063-0.388-0.097-0.584c-0.06-0.359-0.121-0.722-0.186-1.087c-0.035-0.203-0.07-0.405-0.106-0.61
	c-0.065-0.368-0.134-0.738-0.204-1.11c-0.038-0.205-0.076-0.409-0.115-0.615c-0.072-0.376-0.148-0.754-0.225-1.134
	c-0.042-0.206-0.082-0.41-0.125-0.616c-0.083-0.395-0.169-0.791-0.256-1.187c-0.042-0.188-0.082-0.376-0.124-0.565
	c-0.098-0.431-0.2-0.861-0.304-1.292c-0.038-0.154-0.073-0.309-0.111-0.463c-0.128-0.519-0.262-1.036-0.399-1.55
	c-0.018-0.064-0.033-0.129-0.05-0.193c-0.316-1.166-0.658-2.315-1.028-3.434c-0.045-0.135-0.093-0.267-0.139-0.401
	c-0.14-0.412-0.281-0.822-0.43-1.225c-0.067-0.183-0.139-0.36-0.208-0.542c-0.133-0.346-0.266-0.691-0.404-1.028
	c-0.081-0.198-0.167-0.389-0.251-0.583c-0.134-0.31-0.268-0.619-0.407-0.919c-0.093-0.199-0.189-0.392-0.285-0.587
	c-0.138-0.283-0.277-0.563-0.422-0.835c-0.103-0.194-0.208-0.383-0.314-0.572c-0.145-0.258-0.291-0.513-0.442-0.76
	c-0.112-0.185-0.227-0.364-0.342-0.542c-0.152-0.235-0.308-0.464-0.466-0.688c-0.122-0.171-0.245-0.338-0.37-0.502
	c-0.161-0.211-0.326-0.415-0.493-0.613c-0.131-0.155-0.262-0.307-0.396-0.454c-0.172-0.187-0.349-0.364-0.526-0.537
	c-0.138-0.135-0.276-0.27-0.418-0.396c-0.185-0.163-0.374-0.312-0.564-0.459c-0.145-0.112-0.289-0.227-0.438-0.329
	c-0.199-0.138-0.405-0.257-0.611-0.376c-0.149-0.087-0.297-0.18-0.45-0.257c-0.22-0.111-0.448-0.199-0.677-0.289
	c-0.148-0.059-0.294-0.128-0.446-0.178c-0.257-0.084-0.524-0.141-0.791-0.198c-0.133-0.029-0.261-0.071-0.396-0.092
	c-0.407-0.065-0.823-0.102-1.253-0.102c-0.34,0-0.675,0.035-1.006,0.086c-0.058,0.009-0.115,0.016-0.172,0.026
	c-0.316,0.058-0.629,0.139-0.938,0.242c-0.061,0.02-0.12,0.042-0.181,0.064c-0.313,0.113-0.624,0.243-0.93,0.4
	c-0.026,0.013-0.052,0.03-0.078,0.043c-0.294,0.155-0.585,0.332-0.872,0.525c-0.046,0.031-0.092,0.059-0.138,0.091
	c-0.291,0.203-0.578,0.427-0.861,0.667c-0.059,0.049-0.116,0.1-0.175,0.151c-0.282,0.248-0.561,0.509-0.836,0.791
	c-0.04,0.042-0.08,0.086-0.12,0.128c-0.262,0.275-0.521,0.564-0.776,0.868c-0.033,0.04-0.067,0.078-0.102,0.119
	c-0.266,0.322-0.527,0.663-0.786,1.015c-0.055,0.074-0.108,0.147-0.163,0.223c-0.253,0.352-0.502,0.716-0.748,1.095
	c-0.046,0.071-0.092,0.145-0.138,0.217c-0.24,0.377-0.479,0.764-0.712,1.164c-0.019,0.031-0.037,0.061-0.055,0.092
	c-0.243,0.418-0.479,0.851-0.715,1.291c-0.049,0.092-0.098,0.183-0.146,0.275c-0.225,0.429-0.446,0.868-0.664,1.315
	c-0.048,0.099-0.096,0.2-0.144,0.299c-0.222,0.462-0.44,0.93-0.655,1.409c-0.02,0.043-0.038,0.088-0.058,0.132
	c-0.203,0.457-0.402,0.921-0.599,1.391c-0.042,0.101-0.084,0.2-0.126,0.3c-0.198,0.48-0.393,0.966-0.584,1.457
	c-0.047,0.12-0.093,0.241-0.14,0.361c-0.19,0.497-0.379,0.996-0.562,1.5c-0.031,0.086-0.062,0.173-0.093,0.26
	c-0.169,0.467-0.334,0.938-0.497,1.41c-0.033,0.098-0.067,0.196-0.102,0.294c-0.173,0.508-0.342,1.019-0.508,1.53
	c-0.042,0.13-0.084,0.261-0.126,0.391c-0.163,0.508-0.323,1.017-0.479,1.526c-0.034,0.111-0.066,0.221-0.101,0.331
	c-0.146,0.479-0.288,0.958-0.428,1.436c-0.022,0.076-0.045,0.152-0.066,0.228c-0.15,0.517-0.296,1.031-0.438,1.544
	c-0.035,0.127-0.07,0.253-0.105,0.38c-0.138,0.501-0.272,0.999-0.403,1.494c-0.03,0.116-0.061,0.23-0.091,0.345
	c-0.131,0.501-0.261,0.999-0.385,1.491c-0.01,0.037-0.019,0.075-0.028,0.112c-0.126,0.5-0.247,0.992-0.365,1.479
	c-0.025,0.102-0.05,0.204-0.074,0.304c-0.116,0.48-0.229,0.953-0.337,1.419c-0.023,0.1-0.046,0.199-0.068,0.298
	c-0.11,0.476-0.218,0.946-0.32,1.404c-0.009,0.038-0.017,0.074-0.024,0.111c-0.103,0.458-0.2,0.905-0.295,1.343
	c-0.011,0.052-0.022,0.106-0.034,0.158c-0.096,0.446-0.187,0.879-0.274,1.302c-0.014,0.064-0.026,0.127-0.04,0.19
	c-0.088,0.43-0.174,0.847-0.254,1.248c-0.001,0.007-0.003,0.015-0.004,0.022c-0.26,1.297-0.475,2.437-0.646,3.378
	c-3.454,0.679-6.901,1.437-10.337,2.275c-0.713-1.207-2.097-3.308-3.975-5.884c-0.152-0.209-0.301-0.415-0.46-0.629
	c-0.126-0.17-0.259-0.347-0.389-0.521c-0.197-0.265-0.395-0.529-0.601-0.801c-0.123-0.163-0.251-0.329-0.377-0.493
	c-0.223-0.291-0.446-0.582-0.678-0.879c-0.127-0.163-0.258-0.328-0.387-0.493c-0.242-0.308-0.486-0.617-0.737-0.93
	c-0.13-0.163-0.263-0.326-0.395-0.489c-0.259-0.32-0.521-0.642-0.788-0.966c-0.135-0.162-0.27-0.325-0.405-0.488
	c-0.277-0.333-0.56-0.667-0.846-1.003c-0.132-0.156-0.265-0.311-0.398-0.467c-0.297-0.345-0.599-0.69-0.903-1.037
	c-0.132-0.15-0.263-0.299-0.396-0.449c-0.319-0.36-0.645-0.719-0.973-1.078c-0.122-0.134-0.242-0.268-0.366-0.401
	c-0.354-0.383-0.712-0.764-1.073-1.144c-0.104-0.109-0.205-0.218-0.309-0.327c-0.405-0.421-0.814-0.838-1.228-1.253
	c-0.064-0.065-0.128-0.13-0.192-0.195c-1.459-1.455-2.966-2.857-4.502-4.156c-0.072-0.062-0.145-0.119-0.217-0.18
	c-0.429-0.358-0.857-0.711-1.289-1.052c-0.138-0.108-0.275-0.211-0.412-0.317c-0.368-0.286-0.737-0.567-1.107-0.838
	c-0.169-0.124-0.339-0.242-0.509-0.362c-0.34-0.242-0.68-0.48-1.021-0.708c-0.188-0.125-0.375-0.245-0.562-0.366
	c-0.324-0.209-0.648-0.413-0.974-0.608c-0.198-0.119-0.396-0.233-0.594-0.347c-0.314-0.181-0.628-0.354-0.942-0.52
	c-0.205-0.108-0.41-0.214-0.614-0.315c-0.307-0.152-0.612-0.295-0.918-0.433c-0.209-0.094-0.418-0.187-0.627-0.274
	c-0.302-0.125-0.602-0.238-0.901-0.347c-0.209-0.076-0.418-0.153-0.627-0.222c-0.3-0.098-0.599-0.18-0.897-0.261
	c-0.204-0.055-0.409-0.115-0.612-0.162c-0.306-0.071-0.609-0.121-0.912-0.171c-0.191-0.032-0.385-0.072-0.575-0.096
	c-0.33-0.041-0.655-0.057-0.981-0.072c-0.16-0.008-0.321-0.028-0.48-0.029c-0.481-0.004-0.96,0.018-1.432,0.074
	c-0.351,0.042-0.685,0.116-1.011,0.206c-0.069,0.019-0.139,0.037-0.207,0.059c-0.312,0.097-0.615,0.212-0.905,0.352
	c-0.05,0.024-0.097,0.052-0.146,0.077c-0.264,0.135-0.519,0.287-0.765,0.456c-0.043,0.03-0.089,0.057-0.132,0.088
	c-0.264,0.19-0.516,0.403-0.759,0.632c-0.055,0.051-0.108,0.105-0.162,0.158c-0.243,0.241-0.479,0.494-0.701,0.772
	c-0.007,0.008-0.013,0.018-0.02,0.026c-0.217,0.273-0.423,0.569-0.621,0.877c-0.045,0.069-0.091,0.138-0.135,0.209
	c-0.193,0.312-0.379,0.638-0.554,0.98c-0.034,0.066-0.065,0.135-0.099,0.202c-0.156,0.316-0.306,0.644-0.448,0.982
	c-0.027,0.065-0.056,0.128-0.083,0.194c-0.153,0.378-0.298,0.771-0.436,1.175c-0.033,0.098-0.065,0.197-0.099,0.297
	c-0.135,0.415-0.265,0.837-0.384,1.275c-0.009,0.032-0.017,0.065-0.025,0.098c-0.112,0.419-0.217,0.851-0.316,1.289
	c-0.024,0.111-0.05,0.221-0.074,0.333c-0.098,0.455-0.19,0.917-0.275,1.391c-0.018,0.102-0.034,0.206-0.052,0.309
	c-0.074,0.429-0.143,0.864-0.206,1.306c-0.013,0.091-0.027,0.181-0.04,0.273c-0.068,0.496-0.13,1-0.186,1.509
	c-0.015,0.131-0.028,0.263-0.042,0.396c-0.054,0.516-0.104,1.036-0.146,1.564c-0.005,0.06-0.009,0.121-0.013,0.18
	c-0.038,0.492-0.07,0.988-0.1,1.487c-0.008,0.135-0.016,0.27-0.022,0.406c-0.028,0.529-0.052,1.062-0.069,1.599
	c-0.005,0.127-0.008,0.256-0.012,0.384c-0.015,0.481-0.025,0.963-0.033,1.448c-0.001,0.103-0.004,0.205-0.005,0.308
	c-0.007,0.548-0.008,1.097-0.007,1.647c0.001,0.145,0.002,0.29,0.002,0.435c0.004,0.555,0.011,1.11,0.021,1.666
	c0.001,0.065,0.003,0.13,0.005,0.196c0.011,0.515,0.025,1.029,0.043,1.543c0.004,0.137,0.009,0.273,0.014,0.41
	c0.02,0.546,0.042,1.09,0.067,1.632c0.006,0.124,0.013,0.247,0.019,0.37c0.024,0.488,0.051,0.974,0.079,1.456
	c0.006,0.094,0.011,0.189,0.017,0.283c0.032,0.54,0.068,1.075,0.105,1.606c0.009,0.133,0.019,0.265,0.028,0.397
	c0.038,0.531,0.078,1.058,0.12,1.577c0.005,0.059,0.01,0.117,0.015,0.176c0.04,0.488,0.082,0.969,0.125,1.445
	c0.01,0.111,0.02,0.222,0.03,0.333c0.046,0.501,0.093,0.995,0.141,1.479c0.01,0.102,0.021,0.202,0.03,0.303
	c0.045,0.441,0.09,0.875,0.135,1.3c0.008,0.068,0.015,0.138,0.022,0.206c0.051,0.469,0.102,0.925,0.153,1.373
	c0.012,0.099,0.022,0.197,0.034,0.296c0.052,0.446,0.104,0.883,0.155,1.304c0.004,0.034,0.008,0.065,0.012,0.098
	c0.05,0.399,0.098,0.785,0.146,1.16c0.011,0.083,0.021,0.167,0.032,0.249c0.049,0.379,0.098,0.746,0.145,1.098
	c0.004,0.025,0.008,0.053,0.011,0.078c-4.195,1.909-8.332,3.916-12.39,6.023v0c-4.921,2.555-9.727,5.253-14.405,8.073
	c2.207-10.768,3.887-21.483,3.889-32.313c0.002-10.327-3.234-18.49-8.762-24.91c2.581-18.921,7.192-50.499-1.356-52.172
	c-6.708-1.313-16.461,10.921-23.805,22.054c-2.619-11.577-7.609-27.032-15.648-27.517c-8.713-0.527-12.881,22.09-14.668,36.824
	c-33.006-2.591-69.606,3.058-85.734,6.56C415.467,322.096,345.863,360.645,352,403.18c0.706,4.893,1.691,9.609,2.934,14.16
	c0,0,0,0.001,0,0.001c0.708,2.593,1.512,5.128,2.387,7.613c0.48-0.16,0.976-0.29,1.479-0.403c-0.503,0.113-0.997,0.244-1.477,0.403
	c1.663,4.709,3.623,9.223,5.861,13.55c1.313,4.259,1.98,8.666,2.347,13.135c-2.301-0.408-4.588-0.806-6.861-1.195
	c-0.104-0.018-0.207-0.035-0.31-0.053c-4.575-0.781-9.085-1.521-13.513-2.211c-0.055-0.008-0.109-0.017-0.163-0.025
	c-2.213-0.345-4.405-0.678-6.573-0.998c-0.009-0.001-0.019-0.003-0.028-0.004c-4.391-0.648-8.685-1.242-12.861-1.775
	c-0.02-0.003-0.039-0.005-0.058-0.008c-4.178-0.533-8.237-1.006-12.158-1.412c-0.002,0-0.005,0-0.007,0
	c-2.976-3.044-6.257-5.645-9.947-7.605c-5.217-2.77-12.961-3.92-20.853-3.338c5.266-7.406,9.25-16.525,11.258-22.448
	c8.445-24.913-4.869-41.567-4.21-65.77c-16.159,16.023-46.207,31.372-52.258,54.963c-3.411,13.298,4.87,37.8,19.31,44.143
	c-0.897,1.053-1.669,2.188-2.311,3.397c-3.739-3.057-8.245-4.738-13.489-4.209c-12.565,1.271-25.136,20.667-30.087,30.719
	c-11.622,23.597-0.595,41.846-4.406,65.757c18.111-13.78,49.906-25.077,58.982-47.678c0.366-0.912,0.675-1.895,0.938-2.925
	c15.271,12.7,39.535,23.354,59.869,30.667c0.064,0.023,0.129,0.047,0.193,0.069c1.553,0.558,3.082,1.096,4.583,1.614
	c0.14,0.048,0.28,0.096,0.419,0.145c1.435,0.493,2.841,0.968,4.216,1.423c0.206,0.068,0.41,0.136,0.614,0.203
	c0.667,0.22,1.326,0.435,1.978,0.646c0.248,0.08,0.496,0.161,0.741,0.24c0.363,0.116,0.721,0.23,1.078,0.345
	c0.292,0.093,0.579,0.184,0.867,0.274c0.492,0.155,0.977,0.308,1.457,0.456c0.326,0.102,0.65,0.203,0.971,0.302
	c0.291,0.09,0.58,0.178,0.866,0.266c0.403,0.123,0.8,0.243,1.193,0.362c0.313,0.094,0.623,0.187,0.93,0.278
	c0.362,0.108,0.72,0.215,1.073,0.319c0.22,0.064,0.439,0.129,0.655,0.192c0.494,0.145,0.979,0.286,1.453,0.422
	c0.154,0.045,0.303,0.087,0.456,0.13c0.39,0.112,0.773,0.221,1.148,0.326c0.148,0.042,0.298,0.084,0.444,0.125
	c0.467,0.13,0.921,0.256,1.362,0.377c0.122,0.033,0.239,0.064,0.358,0.098c0.381,0.104,0.752,0.203,1.112,0.3
	c0.088,0.023,0.178,0.048,0.265,0.07c0.425,0.113,0.833,0.22,1.227,0.321c0.093,0.024,0.182,0.047,0.273,0.07
	c0.352,0.09,0.692,0.177,1.017,0.258c0.049,0.012,0.101,0.025,0.148,0.037c0.357,0.089,0.693,0.17,1.016,0.247
	c0.076,0.019,0.15,0.036,0.224,0.054c0.32,0.076,0.629,0.147,0.912,0.212c6.807,1.537,13.66,3.078,20.547,4.607
	c-0.851,0.31-1.715,0.641-2.584,0.981c-0.156,0.062-0.312,0.121-0.469,0.184c-0.834,0.331-1.675,0.676-2.522,1.031
	c-0.17,0.072-0.342,0.146-0.513,0.218c-0.872,0.371-1.748,0.75-2.63,1.144c-0.039,0.018-0.077,0.035-0.116,0.053
	c-0.863,0.386-1.731,0.784-2.602,1.189c-0.166,0.078-0.332,0.154-0.499,0.232c-0.859,0.403-1.719,0.814-2.582,1.233
	c-0.191,0.094-0.383,0.188-0.575,0.281c-0.878,0.429-1.755,0.863-2.633,1.306c-0.08,0.04-0.158,0.081-0.238,0.121
	c-0.839,0.425-1.677,0.854-2.514,1.288c-0.167,0.087-0.335,0.173-0.503,0.261c-0.855,0.445-1.707,0.895-2.556,1.347
	c-0.193,0.104-0.385,0.206-0.577,0.309c-0.854,0.458-1.706,0.917-2.55,1.378c-0.112,0.062-0.222,0.122-0.333,0.183
	c-0.793,0.435-1.58,0.869-2.36,1.303c-0.155,0.086-0.31,0.172-0.464,0.258c-0.818,0.457-1.628,0.913-2.431,1.367
	c-0.191,0.108-0.38,0.216-0.57,0.323c-0.8,0.455-1.593,0.908-2.374,1.357c-0.114,0.065-0.225,0.13-0.338,0.194
	c-0.738,0.426-1.466,0.848-2.184,1.266c-0.129,0.075-0.259,0.15-0.387,0.226c-0.749,0.437-1.482,0.867-2.205,1.293
	c-0.184,0.108-0.366,0.216-0.548,0.323c-0.701,0.413-1.392,0.822-2.064,1.222c-0.147,0.088-0.289,0.172-0.435,0.259
	c-0.589,0.351-1.167,0.695-1.732,1.032c-0.093,0.056-0.192,0.115-0.285,0.17c-17.614-42.824-80.523-20.618-115.783-0.629
	c15.229,13.267,37.752,29.311,60.379,36.628c-18.32,20.761-22.02,61.862-20.577,90.289c22.392-9.181,53.037-25.936,68.713-48.08
	c0.005-0.005,0.01-0.01,0.015-0.014c1.605-1.51,3.184-3.027,4.738-4.551c8.667,19.762,26.477,26.534,38.42,44.84
	c4.172-22.367,20.149-52.085,11.703-74.931c-1.472-3.98-4.473-8.207-8.374-12.059c0.008-0.007,0.016-0.015,0.024-0.021
	c2.191-1.967,4.432-3.896,6.731-5.785c0.135-0.111,0.27-0.222,0.405-0.332c2.24-1.829,4.538-3.618,6.907-5.359
	c0.209-0.154,0.421-0.307,0.632-0.46c0.988-0.719,1.989-1.429,3.002-2.131c0.227-0.157,0.451-0.315,0.678-0.472
	c1.179-0.808,2.375-1.604,3.591-2.387c0.213-0.138,0.431-0.271,0.645-0.407c1.015-0.646,2.044-1.283,3.086-1.911
	c0.338-0.204,0.676-0.407,1.017-0.609c1.259-0.745,2.531-1.481,3.833-2.2c11.427-6.307,22.429-13.611,33.364-20.708
	c2.606,0.495,5.215,0.979,7.825,1.458c0.648,0.118,1.296,0.236,1.945,0.354c2.639,0.479,5.278,0.952,7.919,1.412
	c1.799,11.71,1.089,25.507,9.679,27.745c9.928,2.592,15.6-14.178,24.434-17.722c10.947-4.392,17.064,0.032,26.074,6.871
	c12.92,9.805,17.287,3.549,20.539-6.903c0.08,0.006,0.159,0.011,0.239,0.017c2.274,0.157,4.541,0.314,6.796,0.472
	c0.572,0.04,1.144,0.08,1.716,0.12c1.397,0.098,2.792,0.196,4.183,0.296c0.735,0.052,1.467,0.105,2.199,0.158
	c1.236,0.09,2.471,0.18,3.701,0.271c0.797,0.059,1.591,0.119,2.386,0.179c1.17,0.089,2.337,0.179,3.502,0.27
	c0.822,0.064,1.643,0.13,2.462,0.196c1.135,0.091,2.267,0.184,3.396,0.277c0.83,0.069,1.659,0.14,2.487,0.211
	c1.111,0.096,2.222,0.194,3.329,0.294c0.84,0.075,1.68,0.151,2.518,0.229c1.088,0.102,2.173,0.206,3.257,0.312
	c0.85,0.083,1.698,0.166,2.545,0.252c1.07,0.108,2.139,0.222,3.206,0.335c0.85,0.091,1.7,0.182,2.548,0.275
	c1.062,0.117,2.12,0.24,3.179,0.364c0.849,0.099,1.698,0.197,2.546,0.3c1.054,0.128,2.105,0.264,3.157,0.398
	c0.845,0.107,1.689,0.214,2.532,0.327c1.06,0.142,2.116,0.291,3.174,0.44c0.828,0.116,1.657,0.229,2.483,0.352
	c1.08,0.158,2.156,0.327,3.233,0.494c0.802,0.124,1.604,0.244,2.403,0.373c1.126,0.182,2.249,0.375,3.373,0.567
	c0.745,0.127,1.492,0.248,2.237,0.38c1.245,0.221,2.487,0.456,3.729,0.689c0.622,0.117,1.245,0.228,1.866,0.348
	c1.862,0.361,3.722,0.737,5.579,1.132c1.695,0.36,3.39,0.739,5.082,1.13c0.297,0.068,0.594,0.138,0.891,0.207
	c1.669,0.391,3.337,0.791,5.004,1.211c-13.089,10.308-20.448,25.807-16.061,47.17c7.396,36,50.217,44.679,74.941,40.838
	c20.987-3.26,41.076-9.961,60.173-19.01c0.004,0.006,0.009,0.012,0.013,0.018c0.941,1.219,1.87,2.466,2.789,3.737
	c0.089,0.125,0.178,0.251,0.268,0.376c0.9,1.255,1.791,2.532,2.668,3.845c3.936,5.882,7.654,12.325,11.21,19.485
	c16.654,33.534,67.4,111.106,112.551,68.784C927.594,698.129,875.301,641.346,843.754,616.843z"/>
<path fill="none" stroke="#231F20" stroke-width="2" stroke-miterlimit="10" d="M707.453,535.359
	c0.096,0.281,0.189,0.562,0.281,0.842c-0.009-0.003-0.019-0.006-0.027-0.009c-5.413-1.717-10.851-3.407-16.307-5.076
	c-0.396-0.121-0.792-0.241-1.188-0.361c-5.324-1.624-10.663-3.229-16.02-4.809c-0.041-0.012-0.081-0.024-0.121-0.036
	C685.359,528.446,696.891,531.528,707.453,535.359z"/>
<path fill="none" stroke="#231F20" stroke-width="2" stroke-miterlimit="10" d="M600.198,448.955
	c8.389-18.581,13.819-37.171,13.692-57.163c0.003-1.161,0.058-2.423,0.099-3.734c-0.041,1.312-0.096,2.574-0.099,3.735
	c0.127,19.992-5.304,38.582-13.692,57.164c-1.037,2.176-2.091,4.353-3.152,6.529C598.107,453.31,599.161,451.132,600.198,448.955z"
	/>
<path fill="none" stroke="#231F20" stroke-width="2" stroke-miterlimit="10" d="M596.308,456.993
	c-0.362,0.738-0.72,1.476-1.085,2.213c-0.005,0.001-0.01,0.002-0.016,0.003C595.573,458.471,595.944,457.733,596.308,456.993z"/>
<path fill="none" stroke="#231F20" stroke-width="2" stroke-miterlimit="10" d="M478.892,431.639c0-0.001,0-0.002,0-0.003
	c1.218,5.544-0.087,10.74-2.883,14.825C478.804,442.377,480.109,437.183,478.892,431.639z"/>
<path fill="none" stroke="#231F20" stroke-width="2" stroke-miterlimit="10" d="M460.409,455.062
	c0.12-0.001,0.238-0.011,0.358-0.016C460.648,455.051,460.529,455.061,460.409,455.062c-1.075,0.052-2.144,0.076-3.206,0.074
	C458.265,455.138,459.333,455.114,460.409,455.062z"/>
<path fill="none" stroke="#231F20" stroke-width="2" stroke-miterlimit="10" d="M360.541,414.323
	C360.542,414.323,360.542,414.323,360.541,414.323c6.607,0.188,13.733,1.249,19.285,5.607c7.35,5.227,14.924,10.192,22.786,14.436
	c-7.862-4.244-15.436-9.208-22.787-14.436C374.273,415.572,367.147,414.513,360.541,414.323z"/>
<path fill="none" stroke="#231F20" stroke-width="2" stroke-miterlimit="10" d="M661.204,626.329
	c-12.17-7.056-16.604-23.388-8.418-35.355c3.571-5.223,8.254-7.976,13.437-9.165c0.012,0.004,0.022,0.009,0.033,0.013
	c3.624,1.38,7.252,2.855,10.885,4.437c0.106,0.047,0.213,0.096,0.319,0.142c1.542,0.674,3.086,1.372,4.63,2.084
	c0.389,0.18,0.776,0.358,1.165,0.54c1.668,0.78,3.338,1.577,5.01,2.405c0.802,0.397,1.592,0.793,2.382,1.189
	c-31.365,9.259-7.856,18.764,10.556,8.651c0.999-0.549,1.925-1.102,2.808-1.658c0.001,0,0.001,0.001,0.002,0.001
	c1.014,0.557,2.017,1.115,3.009,1.676c0.02,0.011,0.04,0.022,0.06,0.033c7.013,3.96,13.489,8.006,19.511,12.326
	C708.047,627.608,679.654,637.026,661.204,626.329z"/>
<path fill="none" stroke="#231F20" stroke-width="2" stroke-miterlimit="10" d="M381.828,601.304
	c-5.004-13.53-27.662-29.891-43.312-24.712c-6.056-67.144-80.491-41.913-120.079-19.47c15.229,13.267,37.753,29.309,60.382,36.625
	c-18.323,20.761-22.022,61.864-20.58,90.292c24.493-10.042,58.869-29.144,72.718-54.453c8.35,21.172,26.868,27.797,39.168,46.648
	C374.297,653.867,390.274,624.149,381.828,601.304z"/>
<path fill="none" stroke="#231F20" stroke-width="2" stroke-miterlimit="10" d="M381.828,601.304
	c-5.9-15.955-36.354-35.859-50.911-19.723c-0.919,1.019-1.687,2.203-2.334,3.506c-61.93-23.592-72.639,53.726-70.343,98.952
	c24.493-10.042,58.869-29.144,72.718-54.453c8.35,21.172,26.868,27.797,39.168,46.648
	C374.297,653.867,390.274,624.149,381.828,601.304z"/>
<path fill="none" stroke="#231F20" stroke-width="2" stroke-miterlimit="10" d="M370.125,676.234
	c4.172-22.367,20.149-52.085,11.703-74.931c-5.9-15.955-36.354-35.859-50.911-19.723c-8.46,9.378-4.754,32.192-1.675,42.965
	C336.472,649.839,356.897,655.961,370.125,676.234z"/>
<path fill="none" stroke="#231F20" stroke-width="2" stroke-miterlimit="10" d="M592.36,342.33
	c-2.363-1.772,11.809-63.776-0.264-66.139c-6.708-1.313-16.461,10.921-23.805,22.054c-2.619-11.577-7.609-27.032-15.648-27.517
	c-12.898-0.781-15.837,49.162-15.837,49.162s12.003,2.772,22.117-0.134C564.369,334.125,594.506,343.942,592.36,342.33z"/>
<path fill="none" stroke="#231F20" stroke-width="2" stroke-miterlimit="10" d="M859.979,469.488
	c1.562-1.404,2.619-2.967,2.604-4.632c-0.019-2.024-2.032-3.392-4.771-4.318c-2.1-7.897-4.635-15.566-7.515-22.851
	c2.699-4.282,4.677-8.56,3.362-10.47c-1.189-1.731-4.586-1.666-8.308-0.938c-3.131-6.607-6.547-12.767-10.173-18.334
	c5.852-10.842,12.12-24.984,8.067-29.765c-4.18-4.933-17.269,1.032-26.862,7.074c-4.396-4.212-9.01-8.009-13.81-11.419
	c3.187-14.322,6.259-36.575-1.64-39.713c-8.079-3.211-20.313,14.603-26.495,24.763c-4.011-1.52-8.092-2.854-12.24-3.99
	c-1.114-10.729-5.222-44.57-12.676-44.57c-8.199,0-19.434,34.271-21.059,39.369c-3.383-0.158-6.783-0.223-10.198-0.188
	c-1.223-7.371-3.638-39.181-16.883-39.181c-12.017,0-18.938,33.094-20.765,43.164c-3.454,0.679-6.901,1.437-10.337,2.275
	c-3.494-5.911-23.104-33.414-37.582-31.688c-12.54,1.492-9.344,34.4-7.58,47.414c-4.195,1.909-8.332,3.917-12.391,6.024
	c1.882,4.485,1.171,10.046,1.16,14.279c0.127,19.992-5.304,38.582-13.692,57.164c-1.628,3.417-3.286,6.836-4.976,10.25
	c-1.755,0.401-3.501,0.835-5.226,1.358c-8.756,2.651-15.251,7.949-17.55,17.332c-1.278,5.218,0.256,11.579,3.72,16.062
	c-2.759,3.738-6.515,7.29-12.944,10.542c14.098,2.829,32.247,6.365,47.84,9.479c-0.926,2.091-1.953,4.133-3.154,6.077
	c-10.573-0.143-24.96-5.844-34.865-0.608c-15.255,8.066-5.761,13.769,6.273,15.426c10.188,1.405,22.194-1.589,31.611,4.186
	c7.973,4.894,19.746-7.275,25.435-20.328c19.653,3.357,47.744,8.162,71.091,16.629c1.938,5.729,3.375,11.358,3.348,16.705
	c-13.617-2.571-18.676-17.933-30.345-20.459c-17.077-3.7-10.467,11.745-1.488,18.224c9.933,7.163,20.556,8.699,28.627,19.029
	c0.81,1.036,1.54,2.202,2.227,3.442c-9.762-9.892-30.168-16.286-44.264-12.932c-28.664,6.824-51.947,26.021-44.896,60.355
	c7.396,36,50.217,44.679,74.941,40.838c52.034-8.081,98.548-37.295,138.094-71.084C865.426,562.366,869.632,513.48,859.979,469.488z
	 M750.014,576.176c-0.331,7.314-3.554,15.562-10.493,24.882c-14.605,19.613-54.646,38.995-78.316,25.271
	c-12.17-7.056-16.604-23.388-8.418-35.355c9.377-13.71,26.397-10.44,40.096-6.356c0.085,2.299-0.891,5.939-2.039,7.941
	c-31.666,9.277-8.092,18.845,10.359,8.711c10.417-5.721,14.42-11.904,14.219-17.746c2.65,4.607,6.048,8.216,11.952,8.178
	c5.075-9.987-1.999-32.076-3.271-49.145c7.281,3.797,13.491,8.15,18.01,13.164c0.825,2.623,1.677,5.236,2.599,7.824
	c1.287,3.612,2.887,8.001,5.313,11.575c-0.003,0.351,0.007,0.698-0.01,1.053c0.132-0.173,0.256-0.342,0.387-0.515
	c0,0.001,0,0.001,0.001,0.001C750.271,575.833,750.146,576.002,750.014,576.176z"/>
<path fill="none" stroke="#231F20" stroke-width="2" stroke-miterlimit="10" d="M625.908,376.723c0,0-8.854-50.785,6.793-52.647
	c15.646-1.864,37.302,30.428,38.115,32.688C671.629,359.022,651.17,378.828,625.908,376.723z"/>
<path fill="none" stroke="#231F20" stroke-width="2" stroke-miterlimit="10" d="M680.127,356.366c0,0,7.085-46.041,21.258-46.041
	c14.172,0,15.945,36.423,17.126,40.356C719.69,354.615,698.716,365.045,680.127,356.366z"/>
<path fill="none" stroke="#231F20" stroke-width="2" stroke-miterlimit="10" d="M728.265,350.33c0,0,12.401-40.005,21.26-40.005
	s12.99,47.794,12.99,47.794S731.809,364.354,728.265,350.33z"/>
<path fill="none" stroke="#231F20" stroke-width="2" stroke-miterlimit="10" d="M770.573,365.581c0,0,19.17-35.908,30.362-31.459
	c11.192,4.447,0.355,47.302-1.619,51.537C797.343,389.894,772.233,379.483,770.573,365.581z"/>
<path fill="none" stroke="#231F20" stroke-width="2" stroke-miterlimit="10" d="M805.521,394.158
	c-0.287-2.627,30.836-24.109,37.726-15.978c6.891,8.129-16.06,43.336-16.06,43.336S806.534,403.378,805.521,394.158z"/>
<path fill="none" stroke="#231F20" stroke-width="2" stroke-miterlimit="10" d="M832.683,430.285c0,0,17.895-7.554,20.978-3.068
	c3.086,4.487-11.962,22.027-11.962,22.027S830.806,439.647,832.683,430.285z"/>
<path fill="none" stroke="#231F20" stroke-width="2" stroke-miterlimit="10" d="M842.645,458.601c0,0,19.88-0.128,19.938,6.256
	c0.06,6.382-15.562,11.297-15.562,11.297S840.861,465.884,842.645,458.601z"/>
<path fill="none" stroke="#231F20" stroke-width="2" stroke-miterlimit="10" d="M593.453,328.363
	c2.581-18.921,7.192-50.499-1.356-52.172c-6.708-1.313-16.461,10.921-23.805,22.054c-2.619-11.577-7.609-27.032-15.648-27.517
	c-8.713-0.527-12.881,22.09-14.668,36.824c-33.006-2.591-69.606,3.058-85.734,6.56C415.467,322.096,345.863,360.645,352,403.18
	c0.706,4.894,1.691,9.61,2.935,14.161c0.907-2.373,2.986-3.147,5.607-3.018c6.606,0.188,13.732,1.249,19.284,5.607
	c22.562,16.046,47.218,29.665,75.909,27.297c9.041-0.675,22.61-4.641,23.157-15.592c2.751,12.523-7.355,23.278-18.482,23.427
	c-34.426,1.659-61.656-25.179-95.023-30.646c-3.002-0.497-5.674-0.258-8.064,0.537c2.681,7.594,6.133,14.682,10.281,21.289
	c10.753,17.125,26.191,31.006,45.055,42.028c26.14,15.274,55.521,33.14,85.617,38.206c34.176,5.753,56.191-16.284,70.611-46.51
	c13.183-27.636,20.158-52.846,26.815-82.332c3.354-14.859,6.51-29.503,6.513-44.363C602.217,342.946,598.98,334.783,593.453,328.363
	z"/>
<path fill="none" stroke="#231F20" stroke-width="2" stroke-miterlimit="10" d="M704.177,483.852
	c-18.312,19.029,6.739,46.039,6.624,68.213c-13.617-2.571-18.676-17.933-30.345-20.459c-17.077-3.7-10.467,11.745-1.488,18.224
	c9.933,7.163,20.556,8.699,28.627,19.029c6.109,7.812,7.726,22.921,19.778,22.843c7.91-15.565-13.718-60.551,3.162-70.059
	c3.2,4.283,4.561,11.812,6.206,16.789c2.754,8.336,5.026,16.846,7.97,25.113c2.225,6.246,5.369,14.827,12.144,17.472
	c8.104,3.164,14.049-4.637,16.64-11.353c4.222-10.938,2.012-21.658-0.563-32.607c-1.843-7.844-6.362-12.764-11.632-18.479
	c-4.856-5.27-6.543-10.859-9.179-17.351c-4.519-11.124-13.849-24.818-26.646-26.99C717.369,472.862,709.58,478.239,704.177,483.852z
	"/>
<path fill="none" stroke="#231F20" stroke-width="2" stroke-miterlimit="10" d="M615.872,500.375
	c-0.153,0.499-29.171-0.492-31.76-1.071c-8.641-1.935-13.695-13.119-11.665-21.407c2.299-9.383,8.794-14.681,17.55-17.332
	c9.587-2.905,19.714-3.629,29.509-5.586c12.252-2.447,25.645-2.614,32.698,9.553c10.257,17.693-8.957,38.275-15.774,54.049
	c-5.663,13.109-17.499,25.391-25.502,20.479c-9.417-5.774-21.423-2.78-31.611-4.186c-12.034-1.657-21.528-7.359-6.273-15.426
	c9.905-5.235,24.292,0.466,34.865,0.608C611.641,514.013,613.816,507.09,615.872,500.375z"/>
</svg>
