<?xml version="1.0" encoding="utf-8"?>
<!-- Generator: Adobe Illustrator 16.0.0, SVG Export Plug-In . SVG Version: 6.00 Build 0)  -->
<!DOCTYPE svg PUBLIC "-//W3C//DTD SVG 1.1//EN" "http://www.w3.org/Graphics/SVG/1.1/DTD/svg11.dtd">
<svg version="1.1" id="Layer_1" xmlns="http://www.w3.org/2000/svg" xmlns:xlink="http://www.w3.org/1999/xlink" x="0px" y="0px"
	 width="612px" height="612px" viewBox="0 90 612 612" enable-background="new 0 90 612 612" xml:space="preserve">
<path fill="none" stroke="#231F20" stroke-width="2" stroke-miterlimit="10" d="M549.393,254.517
	c-17.051-14.816-37.401-14.41-58.834-7.505c-24.433,7.873-48.592,21.043-64.844,40.46c-4.773-8.816-12.024-15.681-22.449-18.621
	c-3.979-1.123-8.112-1.809-12.295-2.064c1.363-12.654,1.634-25.462,5.35-37.735c1.584-5.229,3.705-10.375,7.189-14.635
	c2.866-3.503,6.375-6.534,10.421-8.59c3.267-1.662,7.34-2.59,10.777-1.011c3.991,1.833,6.472,6.326,7.274,10.486
	c1.322,6.851-3.539,12.98-9.531,15.788c-1.123,0.525-2.763,1.011-4.212,1.238c-0.064,0.005-0.329,0.038-0.34,0.039
	c-0.178,0.018-0.354,0.027-0.532,0.038c-0.348,0.02-0.698,0.019-1.044,0.009c-0.831-0.023-0.931-0.037-1.832-0.274
	c-1.188-0.312-1.979-0.773-2.854-1.71c-0.085-0.092-0.164-0.189-0.244-0.286c0.039,0.039-0.172-0.244-0.186-0.265
	c-0.194-0.286-0.359-0.593-0.514-0.902c-0.233-0.467-0.488-1.347-0.64-2.129c-0.318-1.633-0.246-3.781,0.175-5.518
	c0.203-0.84,0.327-1.147,0.727-1.834c0.084-0.143,0.178-0.279,0.271-0.415c0.011-0.016,0.014-0.02,0.022-0.033
	c0.018-0.019,0.045-0.048,0.09-0.102c0.101-0.118,0.565-0.529,0.576-0.559c0.211-0.153,0.437-0.288,0.667-0.408
	c0.025-0.013,0.099-0.045,0.161-0.072c0.106-0.039,0.213-0.075,0.32-0.109c0.232-0.073,0.471-0.118,0.709-0.16
	c-0.003,0.017,0.617-0.043,0.762-0.043c0.244-0.001,0.488,0.021,0.732,0.043c0.057,0.017,0.549,0.09,0.653,0.112
	c0.286,0.062,0.567,0.143,0.846,0.229c0.125,0.039,0.637,0.236,0.732,0.267c0.411,0.182,0.809,0.39,1.193,0.618
	c0.196,0.118,0.389,0.246,0.576,0.376c0.03,0.021,0.121,0.088,0.179,0.13c0.063,0.052,0.127,0.103,0.189,0.156
	c0.16,0.136,0.311,0.282,0.46,0.429c0.061,0.061,0.274,0.314,0.349,0.394c0.074,0.105,0.149,0.21,0.216,0.32
	c0.045,0.075,0.084,0.153,0.125,0.231c0.024,0.07,0.037,0.144,0.054,0.215c-0.043-0.097-0.057,0.104-0.039,0.187
	c-0.007,0.007-0.009,0.008-0.017,0.016c-0.036,0.039-0.058,0.063-0.074,0.083c-0.022,0.014-0.042,0.026-0.079,0.05
	c-0.081,0.055-0.447,0.232-0.51,0.272c-0.556,0.214-1.141,0.346-1.725,0.447c-2.276,0.398-1.309,3.854,0.954,3.459
	c2.709-0.473,5.449-2.039,5.016-5.165c-0.316-2.271-2.596-4.051-4.479-5.043c-2.376-1.252-5.295-1.862-7.91-1.042
	c-3.25,1.021-4.984,4.097-5.459,7.305c-0.567,3.832-0.144,7.95,2.368,11.032c1.942,2.384,5.158,3.331,8.13,3.285
	c6.921-0.107,13.779-4.868,16.891-10.933c4.006-7.81,0.965-18.623-6.748-23.025c-8.216-4.688-17.957,1.376-23.769,7.168
	c-6.995,6.971-10.319,16.458-12.33,25.944c-2.199,10.378-2.546,21.005-3.669,31.527c-4.011-0.01-8.04,0.366-12.002,1.134
	c-0.66-11.904-3.555-23.773-7.515-34.967c-3.528-9.973-7.817-19.984-16.366-26.666c-6.136-4.795-14.852-7.913-21.67-2.594
	c-3.869,3.02-5.899,7.86-7.122,12.474c-0.988,3.733-1.23,8.108,0.072,11.794c2.008,5.681,7.719,8.431,13.513,7.709
	c5.258-0.655,10.849-3.769,12.349-9.184c0.861-3.104-0.139-6.159-1.675-8.865c-1.684-2.965-4.75-5.46-8.326-4.398
	c-5.229,1.552-8.757,10.657-2.423,13.162c1.596,0.632,3.358,0.498,5.017,0.253c0.969-0.145,1.488-1.352,1.253-2.207
	c-0.282-1.028-1.24-1.396-2.206-1.253c-0.379,0.057-0.765,0.074-1.147,0.084c-0.204,0.005-0.407-0.003-0.61-0.013
	c-0.009,0-0.283-0.033-0.356-0.037c-0.291-0.052-0.576-0.131-0.855-0.23c0.385,0.137-0.435-0.345-0.387-0.253
	c-0.062-0.059-0.127-0.117-0.186-0.179c-0.011-0.011-0.014-0.013-0.022-0.022c-0.002-0.003-0.002-0.004-0.005-0.008
	c-0.069-0.1-0.126-0.208-0.181-0.314c-0.005-0.013-0.006-0.018-0.012-0.035c-0.035-0.1-0.098-0.472-0.119-0.549
	c-0.015-0.252-0.01-0.506,0.011-0.757c0.005-0.021,0.009-0.039,0.016-0.078c0.025-0.139,0.061-0.275,0.094-0.412
	c0.061-0.246,0.147-0.485,0.236-0.722c0.019-0.016,0.237-0.501,0.292-0.601c0.152-0.279,0.33-0.543,0.516-0.802
	c0.009,0.008,0.359-0.419,0.439-0.502c0.18-0.187,0.377-0.356,0.576-0.521c-0.021,0.036,0.442-0.283,0.544-0.341
	c0.074-0.042,0.152-0.077,0.229-0.113c-0.038,0.027,0.302-0.108,0.372-0.129c0.088-0.026,0.178-0.043,0.267-0.061
	c0.069-0.011,0.168-0.027,0.21-0.029c0.14-0.008,0.279-0.002,0.419,0.004c0.021,0.001,0.026,0,0.042,0.001
	c0.018,0.003,0.024,0.005,0.048,0.01c0.128,0.024,0.636,0.211,0.639,0.197c0.125,0.062,0.247,0.129,0.365,0.198
	c0.047,0.028,0.364,0.26,0.393,0.273c0.613,0.509,1.066,1.092,1.493,1.752c0.294,0.456,0.548,0.939,0.791,1.426
	c0.098,0.194,0.191,0.391,0.288,0.586c0.184,0.381,0.07,0.137,0.159,0.365c0.22,0.562,0.372,1.147,0.479,1.74
	c-0.011,0.002,0.054,0.55,0.059,0.667c0.014,0.334-0.004,0.669-0.033,1.003c-0.001,0.012-0.001,0.014-0.002,0.024
	c-0.003,0.019-0.005,0.028-0.01,0.056c-0.023,0.137-0.053,0.274-0.082,0.41c-0.061,0.27-0.142,0.535-0.229,0.797
	c-0.024,0.072-0.054,0.144-0.081,0.215c-0.019,0.043-0.086,0.206-0.106,0.249c-0.139,0.292-0.301,0.572-0.471,0.846
	c-0.4,0.648-0.27,0.465-0.836,1.083c-0.193,0.212-0.4,0.412-0.61,0.608c-0.104,0.098-0.597,0.503-0.594,0.511
	c-0.455,0.344-0.938,0.651-1.433,0.935c-0.264,0.15-0.533,0.288-0.805,0.421c-0.137,0.068-0.275,0.13-0.414,0.193
	c-0.049,0.022-0.069,0.032-0.079,0.038c-0.024,0.009-0.079,0.029-0.198,0.076c-0.574,0.226-1.164,0.408-1.761,0.563
	c-0.298,0.077-0.601,0.142-0.904,0.203c-0.151,0.029-0.304,0.055-0.455,0.08c-0.057,0.009-0.112,0.017-0.168,0.025
	c-0.025,0.003-0.063,0.007-0.119,0.014c-0.61,0.069-1.224,0.091-1.837,0.082c-0.304-0.004-0.607-0.023-0.909-0.048
	c-0.614-0.051-0.112,0.01-0.718-0.1c-0.586-0.106-1.16-0.266-1.723-0.463c-0.089-0.03-0.175-0.065-0.261-0.099
	c-0.044-0.02-0.23-0.098-0.268-0.115c-0.312-0.146-0.612-0.314-0.906-0.491c-0.876-0.527-1.73-1.381-2.271-2.202
	c-0.826-1.252-1.136-2.252-1.424-3.846c-0.261-1.456-0.211-3.542,0.026-5.232c0.638-4.538,2.389-9.456,5.805-12.651
	c2.451-2.29,5.717-2.898,8.809-2.305c3.761,0.723,7.171,2.847,10.045,5.314c3.316,2.849,6.244,6.393,8.241,10.292
	c4.016,7.839,6.965,16.228,9.247,24.722c2.082,7.747,3.584,15.721,3.975,23.748c-2.396,0.613-4.755,1.372-7.059,2.273
	c-6.245-9.064-13.641-17.172-23.446-22.938c-16.554-9.733-34.965-19.077-53.673-22.988c-14.243-2.977-33.771-9.247-46.076,2.217
	c-9.592,8.938-5.43,32.2-3.032,43.588c3.812,18.112,11.329,37.98,5.039,56.322c-6.938,20.234-16.919,39.18-19.051,60.828
	c-2.244,22.787,11.361,35.734,32.107,41.773c2.159,0.629,4.32,1.079,6.481,1.398c-8.891,7.546-17.966,17.238-18.078,25.027
	c-0.099,6.834,9.804,11.323,15.301,14.177c12.514,6.495,34.912,18.903,47.89,8.941c9.019-6.92,17.749-18.162,25.275-26.866
	c0.017-0.02,0.033-0.04,0.05-0.06c-0.399,2.042-0.655,4.101-0.719,6.176l0.001,0.001c-0.031,1.018-0.02,2.038,0.044,3.063
	c1.281,21.466,24.284,38.696,45.042,31.06c10.395-3.825,17.751-11.686,22.787-21.34c2.988-5.723,5.146-12.076,6.654-18.589
	c1.511,3.97,3.15,7.869,4.98,11.618c5.046,10.34,10.606,23.443,17.553,32.443c9.995,12.952,34.824,6.692,48.583,3.619
	c6.046-1.35,16.768-3.153,18.423-9.785c2.661-10.668-10.962-29.572-18.931-39.118c22.782,2.883,39.098-8.052,46.83-30.178
	c6.582-18.837,10.915-37.884,15.087-57.339c1.886-8.79,3.072-17.838,6.796-26.199c4.263-9.572,10.93-18.027,15.662-27.384
	C572.059,291.165,565.561,268.563,549.393,254.517z M420.852,221.248c0.003-0.01,0.006-0.03,0.009-0.043
	c0.001,0.005,0.003,0.01,0.004,0.015C420.86,221.229,420.854,221.24,420.852,221.248z M420.867,221.212
	c0,0.001-0.001,0.001-0.001,0.002c-0.001-0.005-0.003-0.013-0.004-0.019c0.008-0.036,0.015-0.062,0.024-0.119
	C420.877,221.137,420.871,221.181,420.867,221.212z M408.003,400.035c-0.034-0.261-0.067-0.521-0.102-0.781
	c0.338,0.413,0.676,0.826,1.018,1.238C408.611,400.333,408.307,400.182,408.003,400.035z"/>
<path fill="none" stroke="#231F20" stroke-width="2" stroke-miterlimit="10" d="M129.612,525.749c3.503,0,5.685,4.144,3.178,6.83
	c-1.746,1.942-4.743,1.42-7.033,1.42c0,8.993,1.915,18.325-0.567,27.186c-3.42,12.209-19.249,12.561-25.528,2.959
	c-1.793-2.744-3.505-9.486,2.426-8.64c4.696,0.67,4.546,7.825,9.712,7.371c10.062-0.884,5.8-22.176,5.706-28.74
	c-2.672,0.079-25.334,1.805-17.379-7c2.294-2.538,9.642-1.146,12.637-1.174C118.381,525.91,123.997,525.884,129.612,525.749
	C130.513,525.749,125.825,525.84,129.612,525.749z"/>
<path fill="none" stroke="#231F20" stroke-width="2" stroke-miterlimit="10" d="M164.168,562.537
	c1.688,2.439,0.454,6.795-2.976,6.627c-3.893-0.302-3.175-4.578-6.646-2.355c-6.667,4.268-14.584,1.838-18.239-5.016
	c-2.999-5.723-1.488-12.742-1.488-18.901c0-2.199,0.702-5.15,3.38-5.545c5.146-0.755,5.007,4.792,4.854,8.179
	c-0.164,3.616-1.976,15.505,4.554,15.295c7.528-0.242,5.605-9.364,5.74-14.041c0-2.858,0.034-7.425,3.025-9.002
	c3.159-1.664,5.765,1.323,5.765,4.404C162.139,548.916,159.895,556.511,164.168,562.537
	C164.574,563.123,163.401,561.455,164.168,562.537z"/>
<path fill="none" stroke="#231F20" stroke-width="2" stroke-miterlimit="10" d="M196.559,566.054
	c-0.378,3.149-4.823,6.093-7.202,2.89c-2.208-2.973-1.055-8.242-1.044-11.677c0.016-5.301,1.998-17.858-6.969-10.892
	c-4.24,3.444-3.178,8.646-3.178,13.496c0,2.691,0.65,5.844-0.812,8.278c-3.002,5.001-7.521-0.8-7.405-4.294
	c0.13-4.109-0.034-8.231-0.034-12.342c0-3.149-1.471-10.531,0.879-13.152c3.102-3.462,5.749,0.969,8.625-0.402
	c4.204-2.003,9.774-2.42,13.619,0.594C199.238,543.413,196.559,559.104,196.559,566.054z"/>
<path fill="none" stroke="#231F20" stroke-width="2" stroke-miterlimit="10" d="M202.441,551.649c2-8.297,9.473-16.249,18.69-14.276
	c9.462,2.023,12.162,13.48,9.243,21.599C223.354,578.495,198.684,571.619,202.441,551.649z M210.556,553.069
	c-2.683,14.327,14.027,10.271,12.679-2.028C222.129,540.951,212.45,546.834,210.556,553.069
	C210.421,553.791,210.871,552.032,210.556,553.069z"/>
<path fill="none" stroke="#231F20" stroke-width="2" stroke-miterlimit="10" d="M263.301,566.054
	c-0.377,3.149-4.822,6.093-7.202,2.89c-2.208-2.973-1.054-8.242-1.044-11.677c0.016-5.301,1.998-17.858-6.969-10.892
	c-4.24,3.444-3.178,8.646-3.178,13.496c0,2.691,0.65,5.844-0.812,8.278c-3.002,5.001-7.521-0.8-7.405-4.294
	c0.13-4.109-0.034-8.231-0.034-12.342c0-3.149-1.471-10.531,0.879-13.152c3.103-3.462,5.75,0.969,8.625-0.402
	c4.204-2.003,9.774-2.42,13.619,0.594C265.98,543.413,263.301,559.104,263.301,566.054z"/>
<path fill="none" stroke="#231F20" stroke-width="2" stroke-miterlimit="10" d="M270.199,527.439
	c0.64-5.944,9.073-6.421,9.264-0.136C279.836,533.649,270.483,533.785,270.199,527.439z M279.125,565.919
	c-0.759,7.54-8.579,3.461-8.351-2.469c0.27-7.438-1.825-16.876-0.034-24.04c2.246-8.099,8.25-0.93,8.25,3.922
	C278.99,550.861,279.125,558.389,279.125,565.919z"/>
<path fill="none" stroke="#231F20" stroke-width="2" stroke-miterlimit="10" d="M314.696,564.836
	c1.124,4.09-3.229,6.749-6.594,4.058c-2.046-1.637-9.226,1.775-13.296,0.999c-12.645-2.413-11.508-17.988-4.929-25.885
	c5.684-6.948,21.572-12.398,21.572,0.676C311.449,552.263,311.363,558.003,314.696,564.836z M300.359,561.793
	c3.762-2.392,3.117-2.87,2.795-7.146c-0.241-3.196-0.21-6.426-0.09-9.626C293.081,546.801,290.368,565.793,300.359,561.793
	C300.855,561.479,299.683,562.063,300.359,561.793z"/>
<path fill="none" stroke="#231F20" stroke-width="2" stroke-miterlimit="10" d="M363.113,559.358
	c4.294-2.748,8.687,1.428,5.748,5.749c-3.734,5.758-13.002,5.978-18.123,2.295c-10.602-7.621-6.427-29.242,6.762-31.712
	c4.405-0.8,13.437,1.455,13.999,6.898c1.104,8.885-8.788,0.951-10.955,1.217C348.169,542.811,352.922,570.152,363.113,559.358z"/>
<path fill="none" stroke="#231F20" stroke-width="2" stroke-miterlimit="10" d="M373.256,551.649c2-8.297,9.474-16.248,18.69-14.276
	c9.463,2.023,12.161,13.48,9.243,21.599C394.171,578.496,369.499,571.619,373.256,551.649z M381.371,553.069
	c-2.683,14.327,14.028,10.271,12.68-2.028C392.943,540.951,383.266,546.834,381.371,553.069
	C381.236,553.791,381.687,552.032,381.371,553.069z"/>
<path fill="none" stroke="#231F20" stroke-width="2" stroke-miterlimit="10" d="M430.398,558.75c5.332-1.334,6.84,4.229,3.212,7.151
	c-3.41,2.747-9.202,4.108-13.466,4.108c-11.658,0-16.639-12.533-13.517-22.366c2.88-9.069,18.536-15.367,25.292-7.051
	c9.589,11.818-9.161,16.639-16.805,19.104C419.164,564.324,426.079,561.17,430.398,558.75z M416.737,547.119
	c-2.252,1.271-3.031,3.436-3.38,5.883c2.228-0.685,12.78-2.315,12.78-5.68C426.138,543.047,418.677,545.902,416.737,547.119z"/>
<path fill="none" stroke="#231F20" stroke-width="2" stroke-miterlimit="10" d="M466.51,566.054
	c-0.377,3.149-4.822,6.093-7.202,2.89c-2.208-2.973-1.055-8.242-1.045-11.677c0.017-5.297,1.997-17.862-6.969-10.892
	c-4.24,3.443-3.178,8.647-3.178,13.496c0,2.69,0.65,5.844-0.812,8.278c-3.002,5.001-7.521-0.8-7.405-4.294
	c0.131-4.109-0.034-8.231-0.034-12.342c0-3.149-1.47-10.53,0.88-13.152c3.103-3.462,5.749,0.969,8.625-0.402
	c4.204-2.003,9.775-2.421,13.619,0.594C469.188,543.413,466.51,559.104,466.51,566.054z"/>
<path fill="none" stroke="#231F20" stroke-width="2" stroke-miterlimit="10" d="M473.406,527.439
	c0.642-5.943,9.073-6.422,9.266-0.136C483.042,533.649,473.69,533.785,473.406,527.439z M482.333,565.919
	c-0.76,7.54-8.579,3.461-8.352-2.469c0.271-7.439-1.823-16.874-0.034-24.04c2.249-8.099,8.251-0.93,8.251,3.922
	C482.198,550.861,482.333,558.389,482.333,565.919z"/>
<path fill="none" stroke="#231F20" stroke-width="2" stroke-miterlimit="10" d="M517.903,564.836
	c1.125,4.09-3.229,6.749-6.593,4.058c-2.047-1.637-9.227,1.776-13.296,0.999c-12.643-2.413-11.511-17.989-4.93-25.885
	c5.684-6.948,21.572-12.398,21.572,0.676C514.657,552.263,514.57,558.003,517.903,564.836z M503.567,561.793
	c3.761-2.392,3.118-2.87,2.795-7.146c-0.242-3.196-0.21-6.426-0.09-9.626C496.29,546.801,493.573,565.792,503.567,561.793
	C504.062,561.479,502.891,562.063,503.567,561.793z"/>
<path fill="none" stroke="#231F20" stroke-width="2" stroke-miterlimit="10" d="M113.525,626.594
	c2.358,4.552-2.723,6.135-5.561,3.499c-2.598-2.413-4.129-6.178-5.269-9.462c-3.661-10.552-1.614-20.994,3.703-30.452
	c3.261-5.796,9.835-2.895,5.681,2.84c-2.161,2.981-3.625,6.026-4.336,9.631C106.161,610.663,106.692,621.051,113.525,626.594z"/>
<path fill="none" stroke="#231F20" stroke-width="2" stroke-miterlimit="10" d="M128.334,624.211
	c-6.433,0.219-9.383-0.266-9.383-6.137c0-4.442,0-8.885,0-13.326c0-4.015,0-8.028,0-12.042c0-2.783,3.958-4.378,5.572-1.943
	c1.962,2.96,1.02,8.201,0.869,11.538C142.012,593.06,146.799,623.646,128.334,624.211
	C127.353,624.243,129.45,624.176,128.334,624.211z M125.139,611.227c0,4.405-0.271,10.138,6.568,5.792
	C137.972,613.036,132.479,601.167,125.139,611.227z"/>
<path fill="none" stroke="#231F20" stroke-width="2" stroke-miterlimit="10" d="M166.474,618.936
	c0.922,1.332,0.705,3.481-0.583,4.514c-2.987,2.384-3.884-2.799-7.31-0.906c-4.936,2.727-10.411,0.692-13.003-4.165
	c-2.258-4.312-1.116-9.535-1.116-14.176c0-3.954,5.927-6.156,6.188-1.497c0.145,3.7-2.13,12.626,2.231,14.709
	c5.792,2.521,5.452-5.986,5.452-8.521c0-2.264,0.79-12.233,5.401-8.217C167.741,604.111,163,614.037,166.474,618.936
	C166.778,619.375,165.898,618.124,166.474,618.936z"/>
<path fill="none" stroke="#231F20" stroke-width="2" stroke-miterlimit="10" d="M183.616,616.552
	c5.552-3.551,5.958,4.785,0.71,6.999c-4.982,2.265-11.019,0.018-13.314-4.963c-3.95-8.575,2.405-22.199,12.939-19.426
	c2.47,0.65,7.274,2.876,5.75,6.309c-2.122,4.769-5.481-0.896-8.014-0.583C171.949,605.067,176.504,624.152,183.616,616.552z"/>
<path fill="none" stroke="#231F20" stroke-width="2" stroke-miterlimit="10" d="M198.172,623.678
	c-6.626,4.792-4.869-20.838-4.869-23.427c0-2.298-1.003-7.274,0.431-9.389c6.087-8.966,5.784,12.556,5.756,14.277
	c2.52-1.863,6.317-8.555,10.017-7.658c6.796,1.645-3.018,10.021-4.894,11.462c1.993,2.166,14.26,12.692,7.887,15.165
	c-4.023,1.558-10.609-9.175-13.009-11.665C199.49,615.188,200.82,621.755,198.172,623.678
	C197.495,624.167,198.847,623.188,198.172,623.678z"/>
<path fill="none" stroke="#231F20" stroke-width="2" stroke-miterlimit="10" d="M234.587,616.096
	c4.785-1.198,4.877,4.207,1.369,6.034c-3.76,1.964-8.859,3.343-12.971,1.688c-6.821-2.746-8.512-11.382-5.642-17.562
	c3.116-6.421,15.49-9.813,19.304-2.377c4.515,8.803-8.055,11.164-13.523,12.927C226.078,620.183,231.452,618.021,234.587,616.096z
	 M224.341,607.372c-1.764,0.997-2.274,2.579-2.536,4.412c1.588-0.488,9.586-1.851,9.586-4.261
	C231.391,604.328,225.82,606.378,224.341,607.372z"/>
<path fill="none" stroke="#231F20" stroke-width="2" stroke-miterlimit="10" d="M257.105,600.524c3.307-5.514,6.027,1.874,4.92,5.25
	c-1.67,5.089-4.101,10.012-6.695,14.683c-2.195,3.95-4.269,8.046-6.593,11.918c-3.069,5.119-7.453,0.171-4.92-4.184
	c1.812-3.127,3.673-6.225,5.477-9.357c-4.968-4.139-7.949-9.146-10.093-15.165c-1.14-3.177,3.309-6.676,5.351-3.271
	c2.719,4.54,3.268,9.034,7.633,12.806C254.168,609.101,255.634,604.805,257.105,600.524z"/>
<path fill="none" stroke="#231F20" stroke-width="2" stroke-miterlimit="10" d="M282.464,616.096
	c4.785-1.198,4.877,4.207,1.369,6.034c-3.76,1.964-8.859,3.343-12.972,1.688c-6.82-2.746-8.512-11.382-5.642-17.562
	c3.117-6.421,15.49-9.813,19.305-2.377c4.515,8.803-8.055,11.164-13.523,12.927C273.956,620.183,279.33,618.021,282.464,616.096z
	 M272.219,607.372c-1.764,0.997-2.274,2.579-2.536,4.412c1.588-0.488,9.586-1.851,9.586-4.261
	C279.269,604.328,273.698,606.378,272.219,607.372z"/>
<path fill="none" stroke="#231F20" stroke-width="2" stroke-miterlimit="10" d="M318.778,624.211
	c-6.433,0.219-9.383-0.266-9.383-6.137c0-4.442,0-8.885,0-13.326c0-4.015,0-8.028,0-12.042c0-2.783,3.958-4.379,5.572-1.943
	c1.961,2.96,1.02,8.201,0.868,11.538C332.469,593.07,337.232,623.647,318.778,624.211
	C317.797,624.243,319.895,624.176,318.778,624.211z M315.583,611.227c0,4.405-0.272,10.138,6.567,5.792
	C328.416,613.037,322.925,601.168,315.583,611.227z"/>
<path fill="none" stroke="#231F20" stroke-width="2" stroke-miterlimit="10" d="M356.917,618.936
	c0.922,1.332,0.704,3.481-0.583,4.514c-2.986,2.383-3.884-2.799-7.31-0.906c-4.935,2.727-10.411,0.692-13.003-4.165
	c-2.258-4.312-1.115-9.535-1.115-14.176c0-3.956,5.931-6.154,6.188-1.497c0.144,3.7-2.13,12.625,2.23,14.709
	c5.794,2.52,5.452-5.986,5.452-8.521c0-2.267,0.789-12.23,5.402-8.217C358.184,604.115,353.445,614.035,356.917,618.936
	C357.222,619.375,356.343,618.124,356.917,618.936z"/>
<path fill="none" stroke="#231F20" stroke-width="2" stroke-miterlimit="10" d="M361.33,606.002
	c-5.702-1.42-1.748-6.136,2.282-6.136c0-2.243-0.845-12.776,4.532-9.618c2.948,1.731,1.654,6.857,1.654,9.618
	c2.345-0.326,10.296,1.389,5.884,5.123c-3.113,2.567-5.866-1.523-5.89,3.854c-0.017,3.596-0.227,7.269,0.134,10.853
	c0.681,6.889-6.529,4.762-6.264-1.825C363.663,615.053,365.168,605.053,361.33,606.002z"/>
<path fill="none" stroke="#231F20" stroke-width="2" stroke-miterlimit="10" d="M381.973,606.002
	c-5.701-1.42-1.747-6.136,2.282-6.136c0-2.243-0.845-12.776,4.532-9.618c2.948,1.731,1.655,6.857,1.655,9.618
	c2.344-0.326,10.295,1.389,5.883,5.123c-3.113,2.567-5.865-1.523-5.89,3.854c-0.017,3.596-0.227,7.269,0.134,10.853
	c0.681,6.889-6.529,4.762-6.264-1.825C384.306,615.053,385.811,605.053,381.973,606.002z"/>
<path fill="none" stroke="#231F20" stroke-width="2" stroke-miterlimit="10" d="M416.207,616.096
	c4.785-1.198,4.878,4.207,1.369,6.034c-3.76,1.964-8.858,3.343-12.972,1.688c-6.82-2.746-8.512-11.382-5.642-17.562
	c3.117-6.421,15.489-9.813,19.305-2.377c4.516,8.803-8.055,11.164-13.523,12.927C407.699,620.183,413.072,618.021,416.207,616.096z
	 M405.962,607.372c-1.764,0.997-2.274,2.579-2.536,4.412c1.588-0.488,9.586-1.851,9.586-4.261
	C413.012,604.328,407.44,606.378,405.962,607.372z"/>
<path fill="none" stroke="#231F20" stroke-width="2" stroke-miterlimit="10" d="M425.488,607.245
	c0.202-1.321-4.701-8.944,2.258-6.923c4.719,1.377,10.315-4.008,14.937,1.191c1.298,1.462,1.133,4.145-0.71,5.123
	c-1.993,1.057-3.161-0.719-4.717-1.496c-3.108-0.775-5.63,2.676-5.63,5.267c0,3.317,0,6.636,0,9.954c0,4.269-6.188,6.34-6.188,1.211
	C424.248,618.213,424.939,610.793,425.488,607.245C425.522,607.025,425.455,607.465,425.488,607.245z"/>
<path fill="none" stroke="#231F20" stroke-width="2" stroke-miterlimit="10" d="M454.296,623.5
	c-5.741,7.051-5.376-8.957-5.376-10.351c0-3.486,0.668-3.909-1.75-5.549c-1.576-1.066-1.987-3.192-0.634-4.642
	c2.404-2.646,2.352,1.676,2.257-4.057c-0.076-4.432,1.506-9.064,6.156-10.41c2.946-0.854,8.981-0.211,10.049,3.385
	c1.323,4.493-4.023,3.589-6.34,2.663c-4.405-1.76-3.55,5.001-3.55,7.253c9.534-0.619,9.636,6.238,0,6.238
	C455.107,611.869,456.879,620.315,454.296,623.5C453.856,624.04,454.735,622.959,454.296,623.5z"/>
<path fill="none" stroke="#231F20" stroke-width="2" stroke-miterlimit="10" d="M473.568,619.747c5.4,4.914-6.594,8.097-6.594,0.098
	c0-6.742,0-13.484,0-20.227c0-2.151,0.925-15.676,5.858-8.121c1.909,2.944,0.38,11.293,0.38,14.683
	C473.213,610.37,472.396,616.06,473.568,619.747z"/>
<path fill="none" stroke="#231F20" stroke-width="2" stroke-miterlimit="10" d="M495.885,600.524
	c3.307-5.513,6.028,1.874,4.919,5.25c-1.67,5.089-4.101,10.012-6.694,14.683c-2.195,3.95-4.27,8.046-6.593,11.918
	c-3.066,5.121-7.45,0.172-4.92-4.184c1.812-3.127,3.675-6.225,5.478-9.357c-4.966-4.137-7.953-9.147-10.093-15.165
	c-1.14-3.177,3.308-6.675,5.351-3.271c2.719,4.539,3.268,9.034,7.633,12.806C492.947,609.102,494.413,604.805,495.885,600.524z"/>
<path fill="none" stroke="#231F20" stroke-width="2" stroke-miterlimit="10" d="M505.47,625.935
	c6.129-6.142,6.995-15.941,5.033-24.11c-0.953-3.969-3.11-7.131-5.363-10.454c-3.18-4.675,3.854-5.392,6.492-1.433
	c5.994,8.992,7.585,19.699,4.234,30.113c-1.183,3.549-3.888,11.462-8.724,11.462C503.902,631.514,503.495,627.77,505.47,625.935z"/>
<path fill="none" stroke="#231F20" stroke-width="2" stroke-miterlimit="10" d="M222.65,148.969c13.84,0,25.742,14.096,20.109,27.76
	c-6.598,16.007-25.34,13.49-39.382,13.49c0,21.485,2.792,43.107,3.099,64.645c0.348,24.419,0.828,51.412-7.026,74.851
	c-15.85,47.307-84.026,62.423-116.699,24.473c-11.024-12.805-34.141-44.734-7.778-55.473c26.234-10.687,30.405,28.742,49.527,34.916
	c9.731,3.142,22.14-0.538,29.396-7.467c8.891-8.49,9.106-22.041,9.266-33.473c0.382-27.371,0.118-54.457-0.623-81.829
	c-0.18-6.655-0.317-13.311-0.412-19.968c-11.941,0.354-23.882,0.338-35.827,0.338c-10.796,0-21.932,1.535-32.663,0.978
	c-9.654-0.501-19.092-4.415-22.52-14.035c-3.424-9.609-0.262-22.045,9.774-26.29c8.721-3.69,20.277-1.566,29.503-1.566
	c12.082-0.143,24.164-0.265,36.248-0.364C171.98,149.748,197.316,149.576,222.65,148.969
	C227.157,148.969,203.715,149.423,222.65,148.969z"/>
<path fill="none" stroke="#231F20" stroke-width="2" stroke-miterlimit="10" d="M467.329,491.877
	c9.433-7.604,8.695-23.893,5.054-34.212c-6.607-18.729-36.45-28.354-48.41-8.934C411.952,468.252,445.581,509.401,467.329,491.877z"
	/>
<path fill="none" stroke="#231F20" stroke-width="2" stroke-miterlimit="10" d="M275.856,471.999
	c10.889,6.78,26.919,0.372,35.968-6.865c16.425-13.132,15.651-46.324-7.933-51.518C280.185,408.399,250.757,456.358,275.856,471.999
	z"/>
<path fill="none" stroke="#231F20" stroke-width="2" stroke-miterlimit="10" d="M284.292,461.996
	c7.406,4.611,18.308,0.254,24.462-4.668c11.172-8.932,10.646-31.506-5.394-35.039C287.237,418.74,267.222,451.359,284.292,461.996z"
	/>
<path fill="none" stroke="#231F20" stroke-width="2" stroke-miterlimit="10" d="M333.554,452.318
	c1.489-7.623,5.084-15.002,9.122-22.062c3.76-6.565,7.892-12.861,11.051-18.823c1.763-3.323,3.568-6.631,5.374-9.94
	c1.515-2.775,3.026-5.553,4.514-8.343c-4.363-6.281-21.882,2.655-28.262,4.284c-21.014,5.364-40.423,11.419-58.729,23.484
	c-8.839,5.824-31.409,22.897-31.587,35.209c-0.099,6.834,9.804,11.323,15.301,14.177c12.514,6.495,34.912,18.903,47.89,8.941
	c9.019-6.92,17.749-18.162,25.275-26.866C333.521,452.359,333.536,452.338,333.554,452.318z"/>
<path fill="none" stroke="#231F20" stroke-width="2" stroke-miterlimit="10" d="M408.479,403.696
	c-10.788,2.333-22.579,2.187-33.399,0.713c-4.051-0.551-10.186-1.343-15.979-2.917c4.509-8.262,9.018-16.542,12.824-25.127
	c3.824,1.176,7.421,2.025,8.817,2.214c8.379,1.122,16.481,0.918,24.454-0.325C406.136,386.809,407.431,395.262,408.479,403.696z"/>
<path fill="none" stroke="#231F20" stroke-width="2" stroke-miterlimit="10" d="M409.537,439.727
	c-1.16,10.828-3.87,22.056-8.829,31.553c-8.841,1.737-20.143,1.065-25.687,1.258c-15.704,0.541-29.864-4.697-42.188-14.042
	c0.299-9.824,4.722-19.287,9.841-28.238c7.076,3.551,15.344,5.483,22.303,6.979C379.085,440.276,395.349,444.182,409.537,439.727z"
	/>
<path fill="none" stroke="#231F20" stroke-width="2" stroke-miterlimit="10" d="M335.356,312.252
	c2.183,14.751,20.45,20.149,32.581,13.578c13.967-7.563,10.259-30.479-3.103-36.475c-10.096-4.53-21.548-0.992-26.688,8.962
	C335.5,303.442,334.751,308.147,335.356,312.252z"/>
<path fill="none" stroke="#231F20" stroke-width="2" stroke-miterlimit="10" d="M357.575,311.238
	c8.548-7.126,3.145-20.589-7.998-19.764c-9.908,0.735-14.396,14.076-5.718,19.764C348.215,314.092,353.307,314.797,357.575,311.238z
	"/>
<path fill="none" stroke="#231F20" stroke-width="2" stroke-miterlimit="10" d="M346.054,303.709
	c3.669-0.376,4.887-5.651,1.574-7.505c-2.652-1.483-6.228-0.242-6.103,2.857C341.631,301.643,343.202,304.002,346.054,303.709z"/>
<path fill="none" stroke="#231F20" stroke-width="2" stroke-miterlimit="10" d="M384.169,305.123
	c2.35,15.883,22.02,21.695,35.081,14.621c15.035-8.145,11.044-32.818-3.342-39.273c-10.87-4.879-23.201-1.068-28.735,9.649
	C384.323,295.639,383.516,300.705,384.169,305.123z"/>
<path fill="none" stroke="#231F20" stroke-width="2" stroke-miterlimit="10" d="M408.188,304.609
	c9.202-7.673,3.384-22.168-8.611-21.279c-10.67,0.792-15.502,15.156-6.158,21.279C398.108,307.684,403.59,308.442,408.188,304.609z"
	/>
<path fill="none" stroke="#231F20" stroke-width="2" stroke-miterlimit="10" d="M396.054,296.129
	c3.95-0.405,5.263-6.085,1.695-8.081c-2.856-1.598-6.705-0.26-6.57,3.078C391.291,293.905,392.981,296.447,396.054,296.129z"/>
<path fill="none" stroke="#231F20" stroke-width="2" stroke-linecap="round" stroke-miterlimit="10" d="M370.259,335.191
	c8.986,0.847,16.263-0.331,23.575-6.599C395.134,342.574,378.475,343.772,370.259,335.191"/>
<path fill="none" stroke="#231F20" stroke-width="2" stroke-miterlimit="10" d="M461.543,483.951
	c6.415-5.172,5.915-16.25,3.438-23.269c-4.495-12.738-24.791-19.284-32.926-6.076C423.881,467.883,446.753,495.87,461.543,483.951z"
	/>
<path fill="none" stroke="#231F20" stroke-width="2" stroke-miterlimit="10" d="M273.977,282.19
	c13.48-0.031,22.162-12.94,17.771-25.161c-4.61-12.826-24.57-11.073-32.429-1.91C250.067,265.91,261.292,282.219,273.977,282.19z"/>
<path fill="none" stroke="#231F20" stroke-width="2" stroke-miterlimit="10" d="M275.038,339.466
	c12.656-0.028,20.808-12.148,16.686-23.624c-4.327-12.042-23.068-10.396-30.446-1.792
	C252.59,324.181,263.129,339.493,275.038,339.466z"/>
<path fill="none" stroke="#231F20" stroke-width="2" stroke-miterlimit="10" d="M272.978,410.062
	c15.012-0.034,24.68-14.413,19.792-28.022c-5.133-14.284-27.364-12.333-36.115-2.126C246.35,391.93,258.85,410.093,272.978,410.062z
	"/>
<path fill="none" stroke="#231F20" stroke-width="2" stroke-miterlimit="10" d="M518.427,311.389
	c15.966-0.036,26.25-15.329,21.051-29.804c-5.461-15.192-29.106-13.117-38.415-2.261
	C490.104,292.104,503.398,311.423,518.427,311.389z"/>
<path fill="none" stroke="#231F20" stroke-width="2" stroke-miterlimit="10" d="M497.136,374.836
	c14.413-0.032,23.692-13.835,19-26.902c-4.928-13.712-26.271-11.838-34.671-2.04C471.573,357.431,483.574,374.867,497.136,374.836z"
	/>
<path fill="none" stroke="#231F20" stroke-width="2" stroke-miterlimit="10" d="M471.407,432.84
	c13.95-0.031,22.935-13.392,18.39-26.04c-4.768-13.274-25.426-11.459-33.559-1.976C446.663,415.99,458.278,432.869,471.407,432.84z"
	/>
<path fill="none" stroke="#231F20" stroke-width="2" stroke-miterlimit="10" d="M466.489,439.445c2.38,0.802,4.87,1.241,7.4,1.235
	c19.711-0.044,32.405-18.922,25.984-36.794c-5.746-15.997-27.82-16.477-41.321-7.959c-2.049-4.378-4.712-8.39-6.671-10.714
	c-8.531-10.121-19.277-17.696-30.218-24.944c-2.365-1.566-5.125-2.805-7.649-3.33c0.618-0.277,1.228-0.565,1.826-0.867
	c0.265,0.143,0.529,0.286,0.817,0.428c10.569,5.217,23.479,6.314,35.174,6.311c5.505-0.001,14.174,0.604,21.5-0.937
	c-2.037-6.789-1.192-14.181,4.117-20.373c0.246-0.287,0.511-0.561,0.772-0.838c-5.844-2.833-13.382-4.252-17.604-4.454
	c-9.864-0.472-19.529,0.926-29.1,2.948c0.625-1.851,1.068-3.828,1.309-5.938c0.435-0.148,0.846-0.28,1.209-0.382
	c21.769-6.086,43.158-15.754,62.234-27.75c-5.724-8.156-7.682-18.6-2.629-27.598c-13.094-2.537-27.896,5.983-39.674,11.403
	c-8.258,3.8-15.652,8.305-22.832,13.201c-3.676-15.492-12.172-28.815-27.869-33.242c-20.888-5.891-45.971,0.227-60.544,17.672
	c-9.118-11.159-27.476-23.337-42.331-24.033c-0.59,9.609-6.503,18.196-15.483,22.061c5.592,5.585,16.044,6.016,22.92,8.426
	c7.849,2.753,13.572,6.984,20.465,11.637c1.069,0.722,2.411,1.755,3.933,2.93c-1.07,4.422-1.573,8.979-1.412,13.463
	c-9.543-3.417-21.88-7.405-31.349-5.954c2.457,9.232-0.625,18.502-7.17,24.383c3.721,1.45,8.242,1.988,11.621,2.729
	c11.78,2.583,24.315,2.583,36.468,3.021c2.952,3.152,6.405,5.744,10.147,7.865c-15.475,3.568-39.977,10.606-52.94,19.782
	c1.087,1.499,1.998,3.192,2.683,5.099c1.909,5.315,2.213,10.716,1.201,15.731c10.74-1.201,25.434-8.611,31.073-10.583
	c11.28-3.943,26.974-12.296,36.055-20.107c0.92-0.792,1.715-1.677,2.436-2.614c1.05,0.215,2.095,0.418,3.126,0.596
	c1.119,0.193,2.266,0.354,3.426,0.499c-0.011,0.036-0.024,0.072-0.035,0.107c-1.572,5.066-3.491,9.982-5.629,14.803
	c-3.807,8.585-8.315,16.865-12.824,25.127c-1.806,3.31-3.611,6.617-5.374,9.94c-3.159,5.962-7.291,12.258-11.051,18.823
	c-5.12,8.952-9.542,18.415-9.841,28.238c-0.031,1.019-0.02,2.039,0.044,3.065c1.281,21.466,24.284,38.696,45.042,31.06
	c10.395-3.825,17.751-11.686,22.787-21.34c2.988-5.722,5.146-12.076,6.654-18.589c1.511,3.97,3.15,7.869,4.98,11.618
	c5.046,10.34,10.606,23.443,17.553,32.443c9.995,12.952,34.824,6.692,48.583,3.619c6.046-1.35,16.768-3.153,18.423-9.785
	c2.98-11.945-14.466-34.229-21.519-42.123C472.518,445.256,469.548,442.267,466.489,439.445z M409.086,443.339
	c0.167-1.206,0.322-2.412,0.451-3.612C409.408,440.927,409.255,442.132,409.086,443.339z M407.906,450.157
	c0.079-0.384,0.159-0.768,0.233-1.151C408.065,449.39,407.985,449.773,407.906,450.157z M408.538,446.824
	c0.104-0.609,0.202-1.218,0.296-1.827C408.739,445.606,408.644,446.215,408.538,446.824z M424.626,410.723
	c-3.544-1.978-10.467-7.725-16.623-10.688c0.16,1.221,0.324,2.441,0.476,3.661c-1.048-8.435-2.343-16.889-3.282-25.442
	c-0.096-0.874-0.188-1.748-0.276-2.624c-0.505-5.001-0.82-10.165-1.212-15.319c1.008-0.228,2.005-0.48,2.989-0.755
	c-0.607,1.607-0.569,3.958,0.408,7.239c3.366,11.295,11.345,21.504,19.301,30.073c4.897,5.274,12.712,15.22,21.108,18.259
	c0.169,4.238,1.61,8.438,3.938,12.174C443.008,421.282,434.03,415.97,424.626,410.723z"/>
<path fill="none" stroke="#231F20" stroke-width="2" stroke-miterlimit="10" d="M274.257,286.723
	c18.661-0.042,30.68-17.915,24.603-34.832c-6.381-17.755-34.015-15.33-44.894-2.644
	C241.157,264.186,256.696,286.764,274.257,286.723z"/>
<path fill="none" stroke="#231F20" stroke-width="2" stroke-miterlimit="10" d="M275.726,345.667
	c17.521-0.039,28.804-16.817,23.098-32.703c-5.989-16.67-31.935-14.392-42.148-2.48
	C244.649,324.506,259.239,345.704,275.726,345.667z"/>
<path fill="none" stroke="#231F20" stroke-width="2" stroke-miterlimit="10" d="M272.874,416.726
	c20.782-0.046,34.167-19.952,27.399-38.792c-7.106-19.775-37.882-17.073-49.997-2.943
	C236.01,391.626,253.316,416.771,272.874,416.726z"/>
<path fill="none" stroke="#231F20" stroke-width="2" stroke-miterlimit="10" d="M521.021,318.925
	c22.62-0.05,37.189-21.716,29.822-42.224c-7.734-21.523-41.234-18.583-54.421-3.203
	C480.896,291.605,499.732,318.974,521.021,318.925z"/>
<path fill="none" stroke="#231F20" stroke-width="2" stroke-miterlimit="10" d="M499.618,382.444
	c20.389-0.045,33.517-19.572,26.879-38.057c-6.974-19.398-37.164-16.748-49.048-2.885
	C463.454,357.822,480.433,382.488,499.618,382.444z"/>
<path fill="none" stroke="#231F20" stroke-width="2" stroke-miterlimit="10" d="M473.89,440.681
	c19.711-0.044,32.405-18.922,25.984-36.794c-6.737-18.755-35.928-16.191-47.419-2.791
	C438.924,416.873,455.339,440.722,473.89,440.681z"/>
<path fill="none" stroke="#231F20" stroke-width="2" stroke-miterlimit="10" d="M420.708,221.403
	c-0.022,0.014-0.042,0.026-0.079,0.05c-0.081,0.055-0.447,0.232-0.51,0.272c-0.556,0.214-1.141,0.346-1.725,0.447
	c-2.276,0.398-1.309,3.854,0.954,3.459c2.709-0.473,5.449-2.039,5.016-5.165c-0.316-2.271-2.596-4.051-4.479-5.043
	c-2.376-1.252-5.295-1.862-7.91-1.042c-3.25,1.021-4.984,4.097-5.459,7.305c-0.567,3.832-0.144,7.95,2.368,11.032
	c1.942,2.384,5.158,3.331,8.13,3.285c6.921-0.107,13.779-4.868,16.891-10.933c4.006-7.81,0.965-18.623-6.748-23.025
	c-8.216-4.688-17.957,1.376-23.769,7.168c-6.995,6.971-10.319,16.458-12.33,25.944c-2.199,10.378-2.546,21.005-3.669,31.527
	c-4.011-0.01-8.04,0.366-12.002,1.134c-0.66-11.904-3.555-23.773-7.515-34.967c-3.528-9.973-7.817-19.984-16.366-26.666
	c-6.136-4.795-14.852-7.913-21.67-2.594c-3.869,3.02-5.899,7.86-7.122,12.474c-0.988,3.733-1.23,8.108,0.072,11.794
	c2.008,5.681,7.719,8.431,13.513,7.709c5.258-0.655,10.849-3.769,12.349-9.184c0.861-3.104-0.139-6.159-1.675-8.865
	c-1.684-2.965-4.75-5.46-8.326-4.398c-5.229,1.552-8.757,10.657-2.423,13.162c1.596,0.632,3.358,0.498,5.017,0.253
	c0.969-0.145,1.488-1.352,1.253-2.207c-0.282-1.028-1.24-1.396-2.206-1.253c-0.379,0.057-0.765,0.074-1.147,0.084
	c-0.204,0.005-0.407-0.003-0.61-0.013c-0.009,0-0.283-0.033-0.356-0.037c-0.291-0.052-0.576-0.131-0.855-0.23
	c0.385,0.137-0.435-0.345-0.387-0.253c-0.062-0.059-0.127-0.117-0.186-0.179c-0.011-0.011-0.014-0.013-0.022-0.022
	c-0.002-0.003-0.002-0.004-0.005-0.008c-0.069-0.1-0.126-0.208-0.181-0.314c-0.005-0.013-0.006-0.018-0.012-0.035
	c-0.035-0.1-0.098-0.472-0.119-0.549c-0.015-0.252-0.01-0.506,0.011-0.757c0.005-0.021,0.009-0.039,0.016-0.078
	c0.025-0.139,0.061-0.275,0.094-0.412c0.061-0.246,0.147-0.485,0.236-0.722c0.019-0.016,0.237-0.501,0.292-0.601
	c0.152-0.279,0.33-0.543,0.516-0.802c0.009,0.008,0.359-0.419,0.439-0.502c0.18-0.187,0.377-0.356,0.576-0.521
	c-0.021,0.036,0.442-0.283,0.544-0.341c0.074-0.042,0.152-0.077,0.229-0.113c-0.038,0.027,0.302-0.108,0.372-0.129
	c0.088-0.026,0.178-0.043,0.267-0.061c0.069-0.011,0.168-0.027,0.21-0.029c0.14-0.008,0.279-0.002,0.419,0.004
	c0.021,0.001,0.026,0,0.042,0.001c0.018,0.003,0.024,0.005,0.048,0.01c0.128,0.024,0.636,0.211,0.639,0.197
	c0.125,0.062,0.247,0.129,0.365,0.198c0.047,0.028,0.364,0.26,0.393,0.273c0.613,0.509,1.066,1.092,1.493,1.752
	c0.294,0.456,0.548,0.939,0.791,1.426c0.098,0.194,0.191,0.391,0.288,0.586c0.184,0.381,0.07,0.137,0.159,0.365
	c0.22,0.562,0.372,1.147,0.479,1.74c-0.011,0.002,0.054,0.55,0.059,0.667c0.014,0.334-0.004,0.669-0.033,1.003
	c-0.001,0.012-0.001,0.014-0.002,0.024c-0.003,0.019-0.005,0.028-0.01,0.056c-0.023,0.137-0.053,0.274-0.082,0.41
	c-0.061,0.27-0.142,0.535-0.229,0.797c-0.024,0.072-0.054,0.144-0.081,0.215c-0.019,0.043-0.086,0.206-0.106,0.249
	c-0.139,0.292-0.301,0.572-0.471,0.846c-0.4,0.648-0.27,0.465-0.836,1.083c-0.193,0.212-0.4,0.412-0.61,0.608
	c-0.104,0.098-0.597,0.503-0.594,0.511c-0.455,0.344-0.938,0.651-1.433,0.935c-0.264,0.15-0.533,0.288-0.805,0.421
	c-0.137,0.068-0.275,0.13-0.414,0.193c-0.049,0.022-0.069,0.032-0.079,0.038c-0.024,0.009-0.079,0.029-0.198,0.076
	c-0.574,0.226-1.164,0.408-1.761,0.563c-0.298,0.077-0.601,0.142-0.904,0.203c-0.151,0.029-0.304,0.055-0.455,0.08
	c-0.057,0.009-0.112,0.017-0.168,0.025c-0.025,0.003-0.063,0.007-0.119,0.014c-0.61,0.069-1.224,0.091-1.837,0.082
	c-0.304-0.004-0.607-0.023-0.909-0.048c-0.614-0.051-0.112,0.01-0.718-0.1c-0.586-0.106-1.16-0.266-1.723-0.463
	c-0.089-0.03-0.175-0.065-0.261-0.099c-0.044-0.02-0.23-0.098-0.268-0.115c-0.312-0.146-0.612-0.314-0.906-0.491
	c-0.876-0.527-1.73-1.381-2.271-2.202c-0.826-1.252-1.136-2.252-1.424-3.846c-0.261-1.456-0.211-3.542,0.026-5.232
	c0.638-4.538,2.389-9.456,5.805-12.651c2.451-2.29,5.717-2.898,8.809-2.305c3.761,0.723,7.171,2.847,10.045,5.314
	c3.316,2.849,6.244,6.393,8.241,10.292c4.016,7.839,6.965,16.228,9.247,24.722c2.082,7.747,3.584,15.721,3.975,23.748
	c-15.957,4.084-30.332,14.578-37.121,31.232c-5.952,14.601-5.734,32.345,4.835,44.427c8.735,9.987,22.435,14.569,34.625,16.671
	c1.119,0.193,2.266,0.354,3.426,0.499c-0.011,0.036-0.024,0.072-0.035,0.107c-1.572,5.066-3.491,9.982-5.629,14.803
	c-3.807,8.585-8.315,16.865-12.824,25.127c-1.806,3.31-3.611,6.617-5.374,9.94c-3.159,5.962-7.291,12.258-11.051,18.823
	c-5.12,8.952-9.542,18.415-9.841,28.238c-0.031,1.019-0.02,2.039,0.044,3.065c1.281,21.466,24.284,38.696,45.042,31.06
	c10.395-3.825,17.751-11.686,22.787-21.34c4.959-9.497,7.669-20.725,8.829-31.553c0.728-6.797,0.843-13.434,0.517-19.386
	c-0.307-5.553-0.888-11.094-1.575-16.645c-1.048-8.435-2.343-16.889-3.282-25.442c-0.096-0.874-0.188-1.748-0.276-2.624
	c-0.505-5.001-0.82-10.165-1.212-15.319c14.912-3.365,27.604-11.835,29.17-27.515c2.543-25.465-3.852-56.68-29.612-63.945
	c-3.979-1.123-8.112-1.809-12.295-2.064c1.363-12.654,1.634-25.462,5.35-37.735c1.584-5.229,3.705-10.375,7.189-14.635
	c2.866-3.503,6.375-6.534,10.421-8.59c3.267-1.662,7.34-2.59,10.777-1.011c3.991,1.833,6.472,6.326,7.274,10.486
	c1.322,6.851-3.539,12.98-9.531,15.788c-1.123,0.525-2.763,1.011-4.212,1.238c-0.064,0.005-0.329,0.038-0.34,0.039
	c-0.178,0.018-0.354,0.027-0.532,0.038c-0.348,0.02-0.698,0.019-1.044,0.009c-0.831-0.023-0.931-0.037-1.832-0.274
	c-1.188-0.312-1.979-0.773-2.854-1.71c-0.085-0.092-0.164-0.189-0.244-0.286c0.039,0.039-0.172-0.244-0.186-0.265
	c-0.194-0.286-0.359-0.593-0.514-0.902c-0.233-0.467-0.488-1.347-0.64-2.129c-0.318-1.633-0.246-3.781,0.175-5.518
	c0.203-0.84,0.327-1.147,0.727-1.834c0.084-0.143,0.178-0.279,0.271-0.415c0.011-0.016,0.014-0.02,0.022-0.033
	c0.018-0.019,0.045-0.048,0.09-0.102c0.101-0.118,0.565-0.529,0.576-0.559c0.211-0.153,0.437-0.288,0.667-0.408
	c0.025-0.013,0.099-0.045,0.161-0.072c0.106-0.039,0.213-0.075,0.32-0.109c0.232-0.073,0.471-0.118,0.709-0.16
	c-0.003,0.017,0.617-0.043,0.762-0.043c0.244-0.001,0.488,0.021,0.732,0.043c0.057,0.017,0.549,0.09,0.653,0.112
	c0.286,0.062,0.567,0.143,0.846,0.229c0.125,0.039,0.637,0.236,0.732,0.267c0.411,0.182,0.809,0.39,1.193,0.618
	c0.196,0.118,0.389,0.246,0.576,0.376c0.03,0.021,0.121,0.088,0.179,0.13c0.063,0.052,0.127,0.103,0.189,0.156
	c0.16,0.136,0.311,0.282,0.46,0.429c0.061,0.061,0.274,0.314,0.349,0.394c0.074,0.105,0.149,0.21,0.216,0.32
	c0.045,0.075,0.084,0.153,0.125,0.231c0.024,0.07,0.037,0.144,0.054,0.215c-0.043-0.097-0.057,0.104-0.039,0.187
	c-0.007,0.007-0.009,0.008-0.017,0.016C420.746,221.358,420.725,221.383,420.708,221.403z M420.887,221.077
	c-0.01,0.06-0.016,0.104-0.02,0.135c0,0.001-0.001,0.001-0.001,0.002c-0.001-0.005-0.003-0.013-0.004-0.019
	C420.87,221.16,420.877,221.134,420.887,221.077z M420.864,221.219c-0.004,0.01-0.01,0.021-0.013,0.029
	c0.003-0.01,0.006-0.03,0.009-0.043C420.861,221.209,420.863,221.214,420.864,221.219z"/>
</svg>
