<?xml version="1.0" encoding="utf-8"?>
<!-- Generator: Adobe Illustrator 16.0.0, SVG Export Plug-In . SVG Version: 6.00 Build 0)  -->
<!DOCTYPE svg PUBLIC "-//W3C//DTD SVG 1.1//EN" "http://www.w3.org/Graphics/SVG/1.1/DTD/svg11.dtd">
<svg version="1.1" id="Layer_1" xmlns="http://www.w3.org/2000/svg" xmlns:xlink="http://www.w3.org/1999/xlink" x="0px" y="0px"
	 width="612px" height="612px" viewBox="0 90 612 612" enable-background="new 0 90 612 612" xml:space="preserve">
<path fill="none" stroke="#000000" stroke-width="2" d="M65.809,615.327c-0.116,0.85-0.444,1.592-0.984,2.229
	c-0.541,0.637-1.157,1.07-1.851,1.302c-0.695,0.231-1.39,0.231-2.083,0s-1.235-0.791-1.62-1.678
	c-0.193-0.424-0.328-1.186-0.405-2.285c-0.078-1.101-0.136-2.247-0.174-3.443c-0.039-1.195-0.049-2.305-0.029-3.328
	c0.019-1.021,0.029-1.648,0.029-1.88v-12.095c0-0.115-0.011-0.694-0.029-1.736c-0.021-1.042-0.021-2.189,0-3.443
	c0.019-1.253,0.077-2.468,0.174-3.646c0.096-1.176,0.28-1.976,0.549-2.401c0.347-0.579,0.771-0.992,1.274-1.244
	c0.5-0.25,1.013-0.356,1.533-0.318c0.521,0.038,1.042,0.193,1.562,0.463c0.521,0.27,0.955,0.676,1.302,1.215
	c0.154,0.193,0.299,0.425,0.434,0.694c0.135,0.271,0.203,0.521,0.203,0.752c0.038,1.852,0.038,3.675,0,5.469
	c-0.039,1.794-0.058,3.617-0.058,5.47c1.389-0.811,2.671-1.727,3.848-2.749c1.176-1.022,2.324-2.189,3.443-3.501
	c0.269-0.348,0.655-0.869,1.157-1.563c0.501-0.693,1.042-1.407,1.62-2.141c0.579-0.731,1.157-1.417,1.736-2.054
	c0.579-0.637,1.08-1.051,1.504-1.244c0.848-0.424,1.658-0.578,2.43-0.464c0.771,0.116,1.408,0.416,1.91,0.897
	c0.501,0.483,0.819,1.1,0.955,1.852c0.135,0.753-0.01,1.533-0.434,2.344c-0.154,0.347-0.318,0.637-0.492,0.868
	s-0.347,0.444-0.521,0.636c-0.174,0.193-0.357,0.405-0.549,0.637c-0.193,0.232-0.386,0.502-0.579,0.811
	c-0.502,0.81-1.099,1.63-1.794,2.46c-0.694,0.829-1.428,1.64-2.199,2.431c-0.772,0.79-1.562,1.553-2.372,2.285
	c-0.811,0.733-1.582,1.428-2.314,2.083c0.964,1.042,1.928,2.083,2.894,3.124c0.964,1.042,1.948,2.084,2.951,3.125
	c0.231,0.231,0.733,0.724,1.504,1.476c0.771,0.752,1.592,1.582,2.459,2.488c0.868,0.906,1.659,1.804,2.373,2.69
	c0.713,0.888,1.128,1.582,1.244,2.083c0.193,0.772,0.153,1.495-0.116,2.17c-0.271,0.676-0.686,1.226-1.244,1.649
	c-0.56,0.424-1.196,0.655-1.91,0.694c-0.714,0.038-1.417-0.193-2.112-0.694c-0.309-0.232-0.627-0.511-0.955-0.839
	c-0.328-0.327-0.636-0.666-0.926-1.013c-0.29-0.348-0.57-0.685-0.839-1.013c-0.271-0.327-0.502-0.588-0.695-0.781
	c-1.814-1.967-3.608-3.896-5.381-5.787c-1.775-1.89-3.569-3.799-5.382-5.728c-0.193,0.077-0.405,0.164-0.637,0.26
	c-0.231,0.097-0.444,0.185-0.636,0.261c0,1.968,0.019,3.926,0.058,5.874c0.038,1.948,0.096,3.906,0.174,5.874L65.809,615.327
	L65.809,615.327z"/>
<path fill="none" stroke="#000000" stroke-width="2" d="M88.84,603.581c0.27-1.118,0.646-2.219,1.128-3.299
	c0.482-1.08,1.071-2.112,1.765-3.097c0.694-0.983,1.476-1.881,2.343-2.69s1.803-1.466,2.807-1.967
	c1.774-0.927,3.559-1.398,5.353-1.419c1.794-0.018,3.462,0.339,5.006,1.071c1.543,0.733,2.855,1.823,3.935,3.27
	c1.08,1.446,1.794,3.174,2.142,5.18c0.192,1.312,0.298,2.556,0.318,3.732c0.019,1.177-0.106,2.401-0.376,3.674
	c-0.386,1.814-1.167,3.617-2.344,5.412c-1.177,1.793-2.585,3.298-4.224,4.513c-1.64,1.215-3.434,2.016-5.382,2.402
	c-1.949,0.385-3.906,0.076-5.874-0.927c-0.888-0.425-1.688-0.916-2.401-1.476c-0.714-0.559-1.36-1.225-1.939-1.996
	c-0.656-0.849-1.167-1.736-1.533-2.663c-0.367-0.926-0.666-1.889-0.897-2.894c-0.27-1.079-0.367-2.17-0.29-3.269
	c0.077-1.1,0.212-2.171,0.405-3.212L88.84,603.581z M95.784,604.795c-0.116,0.619-0.212,1.226-0.29,1.823
	c-0.078,0.6-0.078,1.207,0,1.823c0.116,0.889,0.356,1.698,0.724,2.432c0.366,0.732,0.848,1.312,1.446,1.735
	c0.598,0.425,1.282,0.646,2.054,0.666c0.771,0.02,1.6-0.222,2.488-0.724c1.119-0.655,2.083-1.669,2.894-3.039
	c0.81-1.368,1.312-2.796,1.504-4.282c0.193-1.484,0.038-2.894-0.463-4.224c-0.502-1.331-1.485-2.285-2.951-2.865
	c-0.964,0-1.852,0.185-2.662,0.55c-0.81,0.368-1.515,0.85-2.112,1.447c-0.599,0.599-1.12,1.302-1.562,2.111
	C96.411,603.06,96.054,603.908,95.784,604.795z"/>
<path fill="none" stroke="#000000" stroke-width="2" d="M128.421,618.915c-1.119,0.038-2.19-0.039-3.212-0.231
	c-1.022-0.193-2.035-0.521-3.038-0.983c-0.502,0.27-0.994,0.405-1.476,0.405c-0.483,0-0.926-0.078-1.331-0.231
	c-0.405-0.155-0.752-0.339-1.042-0.55c-0.289-0.211-0.492-0.376-0.607-0.492c-0.425-0.617-0.676-1.312-0.752-2.083
	c-0.078-0.771,0.174-1.504,0.752-2.199v-29.744c0-0.887,0.309-1.629,0.926-2.229c0.617-0.598,1.331-0.974,2.142-1.128
	c0.81-0.154,1.592-0.02,2.344,0.404c0.752,0.425,1.263,1.197,1.534,2.315c0.154,0.694,0.28,1.38,0.376,2.054
	c0.096,0.676,0.153,1.456,0.174,2.344c0.019,0.888,0.019,1.909,0,3.066c-0.02,1.158-0.068,2.586-0.145,4.282
	c0.347-0.192,0.703-0.376,1.071-0.55c0.366-0.173,0.743-0.355,1.129-0.549c1.079-0.5,2.237-0.81,3.472-0.926
	c1.234-0.115,2.439-0.048,3.617,0.202c1.176,0.252,2.276,0.715,3.299,1.39c1.021,0.675,1.861,1.553,2.517,2.633
	c0.926,1.543,1.553,3.348,1.881,5.411c0.327,2.064,0.327,4.108,0,6.133c-0.328,2.026-1.004,3.907-2.026,5.643
	c-1.022,1.736-2.459,3.029-4.311,3.878c-1.157,0.539-2.344,0.954-3.559,1.243C130.938,618.713,129.694,618.876,128.421,618.915z
	 M124.776,604.101v6.944c0.076,0.078,0.153,0.136,0.231,0.174c0.076,0.039,0.153,0.097,0.231,0.174
	c3.472,1.157,6.481,0.367,9.027-2.373c0.579-1.543,0.858-2.999,0.839-4.369c-0.02-1.368-0.28-2.844-0.781-4.427
	c-0.193-0.463-0.512-0.761-0.955-0.897c-0.444-0.134-0.839-0.298-1.186-0.491c-0.617-0.115-1.283,0-1.996,0.347
	c-0.714,0.347-1.399,0.781-2.054,1.303c-0.657,0.521-1.254,1.09-1.794,1.706c-0.541,0.618-0.965,1.139-1.273,1.562L124.776,604.101z
	"/>
<path fill="none" stroke="#000000" stroke-width="2" d="M171.937,612.897c0.347,0.501,0.55,1.09,0.608,1.765
	c0.058,0.676-0.02,1.312-0.231,1.909c-0.213,0.6-0.56,1.09-1.042,1.476c-0.483,0.386-1.11,0.559-1.881,0.521
	c-1.003-0.078-1.813-0.425-2.43-1.041c-0.618-0.617-1.196-1.312-1.736-2.084c-1.504,1.236-3.058,2.093-4.658,2.575
	c-1.602,0.482-3.174,0.588-4.717,0.318c-1.543-0.27-2.99-0.917-4.34-1.938c-1.351-1.021-2.488-2.401-3.414-4.137
	c-0.85-1.62-1.322-3.415-1.418-5.383c-0.097-1.967-0.125-3.838-0.087-5.613c0-0.616,0.019-1.224,0.057-1.822
	s0.077-1.225,0.116-1.881c0.038-0.501,0.058-0.993,0.058-1.476c0-0.481,0.029-0.935,0.087-1.36c0.058-0.424,0.174-0.848,0.347-1.272
	c0.174-0.425,0.434-0.829,0.781-1.216c0.463-0.5,1.021-0.801,1.678-0.896c0.655-0.096,1.282-0.029,1.881,0.202
	c0.598,0.231,1.119,0.589,1.562,1.071s0.685,1.07,0.724,1.765c0.077,1.968,0.029,3.955-0.145,5.96
	c-0.174,2.006-0.165,3.974,0.029,5.903c0.077,0.926,0.318,1.872,0.723,2.835c0.405,0.965,1.051,1.659,1.938,2.083
	c0.887,0.387,1.784,0.357,2.691-0.087c0.906-0.443,1.649-0.974,2.228-1.592c0.27-0.309,0.53-0.646,0.781-1.012
	c0.25-0.367,0.53-0.686,0.839-0.955c-0.154-1.351-0.251-2.7-0.29-4.052c-0.039-1.349-0.039-2.699,0-4.05
	c0-0.732,0.029-1.533,0.087-2.402c0.058-0.867,0.212-1.696,0.463-2.487c0.25-0.79,0.626-1.485,1.128-2.083
	c0.5-0.599,1.215-0.975,2.142-1.129c0.424-0.076,0.839-0.038,1.244,0.115c0.405,0.155,0.761,0.367,1.071,0.637
	c0.54,0.464,0.906,0.983,1.099,1.562c0.193,0.578,0.29,1.196,0.29,1.852c0,0.656-0.049,1.321-0.145,1.997
	c-0.097,0.676-0.165,1.302-0.203,1.88c-0.078,1.081-0.135,2.219-0.173,3.414c-0.039,1.196,0,2.393,0.115,3.588
	c0.116,1.196,0.337,2.354,0.666,3.473C170.789,610.949,171.28,611.972,171.937,612.897z"/>
<path fill="none" stroke="#000000" stroke-width="2" d="M175.929,613.533c-0.231-0.655-0.329-1.302-0.29-1.938
	c0.038-0.637,0.203-1.215,0.492-1.736c0.289-0.521,0.703-0.926,1.244-1.215c0.54-0.289,1.195-0.396,1.967-0.318
	c0.424,0.039,0.811,0.154,1.157,0.348c0.347,0.192,0.666,0.425,0.955,0.693c0.289,0.271,0.579,0.561,0.868,0.868
	c0.29,0.31,0.587,0.579,0.896,0.811c0.656,0.502,1.35,0.868,2.083,1.1c0.732,0.231,1.504,0.405,2.314,0.521
	c0.54,0,0.974-0.135,1.302-0.404c0.327-0.27,0.549-0.598,0.665-0.983s0.145-0.801,0.087-1.244s-0.203-0.801-0.434-1.07
	c-0.657-0.656-1.457-1.08-2.402-1.273c-0.945-0.192-1.823-0.424-2.633-0.694c-1.157-0.386-2.295-0.878-3.414-1.476
	c-1.12-0.598-2.026-1.418-2.72-2.46c-0.733-1.08-1.168-2.229-1.302-3.443c-0.136-1.215-0.039-2.401,0.29-3.559
	c0.327-1.157,0.877-2.218,1.649-3.183c0.771-0.964,1.697-1.755,2.778-2.372c0.81-0.464,1.697-0.762,2.662-0.897
	c0.964-0.135,1.938-0.164,2.922-0.087c0.983,0.078,1.958,0.26,2.922,0.549c0.964,0.29,1.852,0.608,2.663,0.955
	c0.926,0.425,1.62,1.023,2.083,1.795c0.463,0.772,0.685,1.553,0.666,2.343c-0.02,0.792-0.29,1.476-0.811,2.055
	c-0.521,0.578-1.283,0.868-2.286,0.868c-0.618,0-1.177-0.105-1.678-0.319c-0.502-0.211-1.022-0.414-1.562-0.607
	c-0.694-0.269-1.447-0.452-2.257-0.549c-0.811-0.096-1.466-0.048-1.968,0.145c-0.155,0.038-0.329,0.165-0.521,0.376
	c-0.193,0.213-0.338,0.473-0.434,0.78c-0.097,0.311-0.116,0.618-0.058,0.927c0.058,0.31,0.26,0.56,0.608,0.752
	c0.926,0.502,1.909,0.888,2.951,1.157c1.042,0.271,2.064,0.579,3.067,0.927c1.003,0.347,1.939,0.791,2.807,1.331
	s1.592,1.312,2.17,2.314c0.849,1.466,1.282,2.999,1.302,4.601c0.019,1.602-0.299,3.096-0.955,4.484
	c-0.657,1.39-1.62,2.575-2.894,3.559s-2.759,1.571-4.456,1.766c-1.196,0.115-2.373,0.047-3.53-0.203
	c-1.157-0.251-2.277-0.656-3.356-1.215c-1.081-0.56-2.083-1.225-3.009-1.997c-0.926-0.771-1.736-1.581-2.43-2.43L175.929,613.533z"
	/>
<path fill="none" stroke="#000000" stroke-width="2" d="M243.633,609.656c0.926-0.231,1.746-0.241,2.46-0.029
	c0.713,0.213,1.263,0.57,1.649,1.07c0.385,0.502,0.559,1.119,0.521,1.853c-0.039,0.732-0.367,1.504-0.983,2.314
	c-0.502,0.656-1.196,1.215-2.083,1.678c-0.888,0.463-1.717,0.829-2.488,1.1c-1.891,0.694-3.685,1.177-5.381,1.446
	c-1.698,0.27-3.29,0.27-4.774,0c-1.486-0.27-2.875-0.83-4.167-1.678c-1.293-0.849-2.499-2.045-3.617-3.588
	c-0.772-1.041-1.341-2.229-1.708-3.559c-0.367-1.331-0.57-2.69-0.607-4.08c-0.039-1.389,0.076-2.757,0.347-4.107
	c0.27-1.351,0.656-2.566,1.157-3.646c0.656-1.35,1.697-2.584,3.125-3.703c1.427-1.119,3.009-2.006,4.745-2.662
	c1.736-0.656,3.51-1.032,5.324-1.129c1.812-0.096,3.414,0.184,4.803,0.839c1.157,0.541,2.15,1.322,2.98,2.344
	c0.829,1.022,1.398,2.132,1.708,3.328c0.308,1.195,0.337,2.401,0.087,3.616c-0.251,1.215-0.878,2.324-1.881,3.328
	c-0.964,0.964-2.026,1.746-3.183,2.343c-1.157,0.599-2.354,1.119-3.587,1.562c-1.235,0.444-2.498,0.82-3.79,1.129
	c-1.293,0.31-2.538,0.656-3.732,1.041c0.81,0.927,1.735,1.515,2.778,1.766c1.042,0.251,2.131,0.299,3.269,0.145
	c1.137-0.154,2.286-0.472,3.443-0.955c1.157-0.482,2.237-1.013,3.24-1.592L243.633,609.656z M231.944,599.703
	c-0.888,0.502-1.543,1.129-1.968,1.881c-0.425,0.752-0.733,1.804-0.926,3.153c1.002-0.308,2.131-0.637,3.385-0.983
	c1.253-0.347,2.439-0.713,3.559-1.1c1.119-0.385,2.063-0.81,2.835-1.272c0.771-0.464,1.158-0.964,1.158-1.505
	c0-0.309-0.049-0.607-0.145-0.897c-0.097-0.289-0.299-0.492-0.608-0.607c-1.081-0.385-2.199-0.463-3.356-0.231
	c-1.157,0.231-2.122,0.56-2.894,0.983L231.944,599.703z"/>
<path fill="none" stroke="#000000" stroke-width="2" d="M260.009,613.823c0.424,0.386,0.781,0.878,1.071,1.476
	c0.29,0.599,0.443,1.195,0.462,1.794c0.019,0.598-0.116,1.157-0.405,1.678c-0.29,0.521-0.801,0.916-1.533,1.186
	c-0.579,0.193-1.215,0.232-1.91,0.116s-1.379-0.347-2.054-0.694c-0.676-0.348-1.274-0.763-1.794-1.244
	c-0.521-0.483-0.897-1.013-1.128-1.592c-0.078-0.192-0.135-0.414-0.173-0.666c-0.039-0.25-0.058-0.472-0.058-0.665v-32.117
	c0-0.887,0.337-1.64,1.013-2.257c0.675-0.617,1.417-0.983,2.228-1.1c0.385-0.038,0.8,0.021,1.244,0.174
	c0.443,0.154,0.858,0.376,1.244,0.665c0.385,0.289,0.703,0.627,0.955,1.013c0.25,0.387,0.376,0.791,0.376,1.215
	c0,1.004,0,2.334,0,3.993s0.009,3.472,0.029,5.439c0.019,1.967,0.029,4.003,0.029,6.105s-0.01,4.118-0.029,6.047
	c-0.02,1.93-0.029,3.694-0.029,5.295s-0.02,2.885-0.058,3.849L260.009,613.823z"/>
<path fill="none" stroke="#000000" stroke-width="2" d="M276.097,613.823c0.424,0.386,0.781,0.878,1.071,1.476
	c0.29,0.599,0.443,1.195,0.463,1.794c0.019,0.598-0.116,1.157-0.405,1.678c-0.29,0.521-0.801,0.916-1.533,1.186
	c-0.579,0.193-1.215,0.232-1.91,0.116c-0.695-0.116-1.38-0.347-2.054-0.694c-0.676-0.348-1.273-0.763-1.793-1.244
	c-0.521-0.483-0.897-1.013-1.129-1.592c-0.078-0.192-0.135-0.414-0.173-0.666c-0.04-0.25-0.058-0.472-0.058-0.665v-32.117
	c0-0.887,0.337-1.64,1.013-2.257c0.674-0.617,1.417-0.983,2.228-1.1c0.385-0.038,0.801,0.021,1.244,0.174
	c0.443,0.154,0.858,0.376,1.244,0.665c0.385,0.289,0.704,0.627,0.955,1.013c0.25,0.387,0.376,0.791,0.376,1.215
	c0,1.004,0,2.334,0,3.993s0.009,3.472,0.029,5.439c0.019,1.967,0.029,4.003,0.029,6.105s-0.01,4.118-0.029,6.047
	c-0.02,1.93-0.029,3.694-0.029,5.295s-0.02,2.885-0.058,3.849L276.097,613.823z"/>
<path fill="none" stroke="#000000" stroke-width="2" d="M282.289,582.864c0.154-1.427,0.646-2.479,1.476-3.154
	c0.829-0.675,1.708-1.003,2.633-0.983c0.926,0.02,1.784,0.376,2.575,1.07c0.79,0.695,1.205,1.679,1.244,2.951
	c0.077,1.312-0.26,2.325-1.013,3.038c-0.752,0.715-1.611,1.119-2.575,1.216c-0.965,0.097-1.872-0.164-2.72-0.781
	c-0.849-0.617-1.37-1.601-1.562-2.951L282.289,582.864z M289.928,615.791c-0.078,0.771-0.347,1.456-0.811,2.054
	c-0.463,0.597-0.994,1.031-1.592,1.302c-0.599,0.27-1.244,0.327-1.938,0.174c-0.695-0.154-1.312-0.578-1.852-1.273
	c-0.309-0.386-0.53-0.819-0.665-1.302c-0.135-0.482-0.222-0.983-0.26-1.505c-0.039-0.521-0.049-1.041-0.029-1.562
	c0.019-0.521,0.029-0.992,0.029-1.417c-0.039-2.276-0.049-4.532-0.029-6.771c0.019-2.237,0.009-4.494-0.029-6.771
	c0-0.926-0.058-1.86-0.174-2.807c-0.116-0.944-0.057-1.88,0.174-2.807c0.193-0.694,0.53-1.292,1.013-1.794
	c0.482-0.501,1.021-0.849,1.62-1.042c0.598-0.191,1.215-0.212,1.852-0.058s1.186,0.56,1.649,1.215
	c0.617,0.772,0.926,1.534,0.926,2.285c0,0.753,0,1.67,0,2.75c0,1.312,0,2.623,0,3.935c0,1.312,0.019,2.604,0.058,3.877
	c0.038,1.852,0.058,3.704,0.058,5.556c0,1.851,0,3.703,0,5.555L289.928,615.791L289.928,615.791z"/>
<path fill="none" stroke="#000000" stroke-width="2" d="M295.599,593.627c0.269-0.926,0.703-1.629,1.302-2.112
	c0.598-0.481,1.234-0.761,1.91-0.839c0.674-0.076,1.321,0.039,1.938,0.348s1.099,0.791,1.447,1.446
	c0.424-0.231,0.848-0.443,1.273-0.637c0.424-0.192,0.906-0.366,1.447-0.521c2.469-0.655,4.658-0.606,6.568,0.145
	c1.908,0.753,3.501,1.91,4.774,3.473c1.272,1.562,2.179,3.396,2.719,5.497c0.54,2.104,0.666,4.205,0.376,6.308
	c-0.289,2.104-1.033,4.07-2.228,5.903c-1.197,1.833-2.913,3.251-5.151,4.253c-1.466,0.655-3,1.07-4.6,1.244
	c-1.602,0.174-3.193,0.202-4.774,0.087c0,0.038,0.009,0.347,0.028,0.926c0.019,0.579,0.029,1.312,0.029,2.199
	c0,0.887,0,1.852,0,2.894s-0.029,2.045-0.087,3.01c-0.058,0.964-0.136,1.822-0.231,2.575c-0.097,0.752-0.241,1.262-0.434,1.533
	c-0.502,0.732-1.12,1.195-1.852,1.389c-0.733,0.193-1.428,0.164-2.083-0.087c-0.657-0.251-1.226-0.676-1.708-1.272
	c-0.483-0.599-0.724-1.322-0.724-2.171v-35.241L295.599,593.627z M303.006,601.149c-0.115,0.193-0.174,0.28-0.174,0.261
	c0-0.019-0.078,0.049-0.231,0.203v9.548c0.771,0.116,1.542,0.174,2.314,0.174c0.771,0,1.582-0.115,2.43-0.348
	c1.737-0.423,3.105-1.263,4.109-2.517c1.003-1.253,1.389-2.807,1.157-4.658c-0.115-0.771-0.338-1.571-0.665-2.401
	c-0.328-0.829-0.763-1.534-1.302-2.112c-0.541-0.578-1.178-0.983-1.91-1.215s-1.562-0.154-2.488,0.231
	c-0.656,0.271-1.244,0.676-1.765,1.215C303.961,600.07,303.469,600.61,303.006,601.149z"/>
<path fill="none" stroke="#000000" stroke-width="2" d="M322.564,613.533c-0.231-0.655-0.328-1.302-0.29-1.938
	s0.203-1.215,0.492-1.736c0.29-0.521,0.703-0.926,1.244-1.215c0.54-0.289,1.195-0.396,1.968-0.318
	c0.424,0.039,0.81,0.154,1.157,0.348c0.348,0.192,0.666,0.425,0.956,0.693c0.289,0.271,0.578,0.561,0.867,0.868
	c0.29,0.31,0.588,0.579,0.897,0.811c0.655,0.502,1.35,0.868,2.083,1.1c0.732,0.231,1.505,0.405,2.314,0.521
	c0.54,0,0.974-0.135,1.302-0.404s0.55-0.598,0.666-0.983s0.145-0.801,0.087-1.244s-0.202-0.801-0.434-1.07
	c-0.656-0.656-1.457-1.08-2.401-1.273c-0.946-0.192-1.823-0.424-2.634-0.694c-1.157-0.386-2.296-0.878-3.414-1.476
	c-1.119-0.598-2.025-1.418-2.72-2.46c-0.732-1.08-1.167-2.229-1.302-3.443c-0.136-1.215-0.039-2.401,0.289-3.559
	s0.878-2.218,1.649-3.183c0.771-0.964,1.697-1.755,2.777-2.372c0.811-0.464,1.697-0.762,2.662-0.897
	c0.964-0.135,1.939-0.164,2.923-0.087c0.983,0.078,1.957,0.26,2.922,0.549c0.963,0.29,1.852,0.608,2.662,0.955
	c0.926,0.425,1.62,1.023,2.083,1.795c0.463,0.772,0.684,1.553,0.666,2.343c-0.021,0.792-0.29,1.476-0.811,2.055
	c-0.521,0.578-1.283,0.868-2.285,0.868c-0.618,0-1.178-0.105-1.679-0.319c-0.501-0.211-1.022-0.414-1.562-0.607
	c-0.694-0.269-1.446-0.452-2.257-0.549c-0.81-0.096-1.467-0.048-1.968,0.145c-0.154,0.038-0.328,0.165-0.521,0.376
	c-0.193,0.213-0.339,0.473-0.435,0.78c-0.097,0.311-0.115,0.618-0.058,0.927c0.058,0.31,0.261,0.56,0.606,0.752
	c0.927,0.502,1.91,0.888,2.952,1.157c1.041,0.271,2.062,0.579,3.066,0.927c1.003,0.347,1.939,0.791,2.807,1.331
	c0.868,0.54,1.592,1.312,2.17,2.314c0.849,1.466,1.282,2.999,1.303,4.601c0.019,1.602-0.299,3.096-0.955,4.484
	c-0.656,1.39-1.62,2.575-2.894,3.559s-2.759,1.571-4.456,1.766c-1.196,0.115-2.372,0.047-3.53-0.203
	c-1.157-0.251-2.276-0.656-3.356-1.215c-1.08-0.56-2.082-1.225-3.009-1.997c-0.926-0.771-1.735-1.581-2.431-2.43L322.564,613.533z"
	/>
<path fill="none" stroke="#000000" stroke-width="2" d="M347.853,582.864c0.154-1.427,0.646-2.479,1.476-3.154
	c0.829-0.675,1.707-1.003,2.633-0.983s1.784,0.376,2.575,1.07c0.79,0.695,1.205,1.679,1.244,2.951
	c0.077,1.312-0.261,2.325-1.013,3.038c-0.752,0.715-1.611,1.119-2.575,1.216s-1.871-0.164-2.719-0.781
	c-0.85-0.617-1.37-1.601-1.563-2.951L347.853,582.864z M355.49,615.791c-0.077,0.771-0.347,1.456-0.81,2.054
	s-0.993,1.031-1.592,1.302c-0.599,0.27-1.244,0.327-1.938,0.174c-0.695-0.154-1.313-0.578-1.853-1.273
	c-0.309-0.386-0.53-0.819-0.665-1.302c-0.136-0.482-0.222-0.983-0.261-1.505c-0.038-0.521-0.049-1.041-0.028-1.562
	c0.018-0.521,0.028-0.992,0.028-1.417c-0.038-2.276-0.049-4.532-0.028-6.771c0.018-2.237,0.009-4.494-0.03-6.771
	c0-0.926-0.058-1.86-0.173-2.807c-0.115-0.944-0.058-1.88,0.173-2.807c0.192-0.694,0.53-1.292,1.014-1.794
	c0.481-0.501,1.021-0.849,1.619-1.042c0.599-0.191,1.215-0.212,1.852-0.058s1.187,0.56,1.649,1.215
	c0.616,0.772,0.926,1.534,0.926,2.285c0,0.753,0,1.67,0,2.75c0,1.312,0,2.623,0,3.935c0,1.312,0.02,2.604,0.059,3.877
	c0.038,1.852,0.058,3.704,0.058,5.556c0,1.851,0,3.703,0,5.555V615.791L355.49,615.791z"/>
<path fill="none" stroke="#000000" stroke-width="2" d="M361.163,593.627c0.269-0.926,0.703-1.629,1.302-2.112
	c0.598-0.481,1.234-0.761,1.909-0.839c0.675-0.076,1.321,0.039,1.938,0.348s1.1,0.791,1.447,1.446
	c0.423-0.231,0.848-0.443,1.272-0.637c0.424-0.192,0.906-0.366,1.446-0.521c2.469-0.655,4.658-0.606,6.568,0.145
	c1.909,0.753,3.501,1.91,4.773,3.473c1.273,1.562,2.18,3.396,2.72,5.497c0.54,2.104,0.666,4.205,0.376,6.308
	c-0.289,2.104-1.033,4.07-2.229,5.903s-2.913,3.251-5.149,4.253c-1.467,0.655-3,1.07-4.602,1.244
	c-1.601,0.174-3.192,0.202-4.773,0.087c0,0.038,0.01,0.347,0.029,0.926c0.019,0.579,0.028,1.312,0.028,2.199
	c0,0.887,0,1.852,0,2.894s-0.028,2.045-0.087,3.01c-0.058,0.964-0.136,1.822-0.231,2.575c-0.097,0.752-0.241,1.262-0.434,1.533
	c-0.502,0.732-1.119,1.195-1.852,1.389c-0.733,0.193-1.428,0.164-2.084-0.087s-1.225-0.676-1.707-1.272
	c-0.482-0.599-0.723-1.322-0.723-2.171v-35.241L361.163,593.627z M368.569,601.149c-0.115,0.193-0.174,0.28-0.174,0.261
	c0-0.019-0.077,0.049-0.231,0.203v9.548c0.771,0.116,1.543,0.174,2.314,0.174s1.581-0.115,2.431-0.348
	c1.736-0.423,3.104-1.263,4.109-2.517c1.002-1.253,1.389-2.807,1.157-4.658c-0.116-0.771-0.339-1.571-0.665-2.401
	c-0.329-0.829-0.763-1.534-1.303-2.112c-0.541-0.578-1.178-0.983-1.909-1.215c-0.733-0.231-1.562-0.154-2.488,0.231
	c-0.656,0.271-1.244,0.676-1.766,1.215C369.524,600.07,369.032,600.61,368.569,601.149z"/>
<path fill="none" stroke="#000000" stroke-width="2" d="M389.922,599.559c0.038-0.25,0.02-0.703-0.058-1.36
	c-0.617-0.348-1.1-0.79-1.446-1.331c-0.347-0.54-0.55-1.118-0.607-1.736c-0.059-0.616,0.058-1.205,0.347-1.766
	c0.29-0.558,0.762-1.031,1.418-1.417c0.887-0.501,1.86-0.598,2.922-0.289c1.06,0.31,1.977,0.772,2.748,1.389
	c0.964-0.731,1.968-1.35,3.01-1.851c1.042-0.502,2.103-0.84,3.183-1.014c1.08-0.173,2.179-0.145,3.299,0.087
	c1.118,0.232,2.218,0.715,3.298,1.447c0.54,0.347,1.042,0.78,1.505,1.302s0.753,1.109,0.868,1.766
	c0.192,0.964,0.116,1.804-0.231,2.517c-0.347,0.715-0.83,1.235-1.446,1.562c-0.618,0.328-1.312,0.425-2.084,0.29
	c-0.771-0.136-1.504-0.55-2.198-1.244c-0.231-0.154-0.396-0.279-0.492-0.376c-0.097-0.097-0.3-0.222-0.607-0.377
	c-0.618-0.153-1.226-0.114-1.823,0.116c-0.599,0.231-1.177,0.55-1.736,0.955c-0.56,0.404-1.08,0.849-1.562,1.331
	c-0.482,0.483-0.917,0.917-1.302,1.302v14.756c0,0.579-0.116,1.139-0.348,1.679c-0.347,0.887-0.896,1.505-1.648,1.852
	c-0.753,0.347-1.505,0.443-2.258,0.289c-0.752-0.154-1.408-0.541-1.967-1.157c-0.56-0.618-0.84-1.408-0.84-2.372v-16.204
	C389.864,599.857,389.883,599.81,389.922,599.559z"/>
<path fill="none" stroke="#000000" stroke-width="2" d="M433.438,591.891c0.464-0.771,1.042-1.302,1.736-1.591
	c0.695-0.29,1.379-0.356,2.055-0.203c0.675,0.155,1.272,0.502,1.794,1.042c0.521,0.54,0.839,1.254,0.955,2.141
	c0.077,0.657-0.05,1.583-0.376,2.778c-0.328,1.195-0.733,2.43-1.216,3.703s-0.974,2.488-1.476,3.646
	c-0.501,1.157-0.906,2.063-1.215,2.719c-1.312,2.894-2.739,5.729-4.282,8.506c-1.542,2.778-3.124,5.536-4.744,8.275
	c-0.232,0.424-0.502,0.944-0.811,1.562c-0.31,0.616-0.627,1.253-0.955,1.91c-0.328,0.655-0.665,1.272-1.013,1.851
	c-0.347,0.578-0.676,1.003-0.983,1.273c-0.694,0.655-1.409,1.041-2.142,1.158c-0.732,0.114-1.398,0.019-1.996-0.29
	c-0.6-0.31-1.081-0.791-1.446-1.446c-0.367-0.656-0.512-1.447-0.435-2.373c0.038-0.347,0.192-0.801,0.464-1.36
	c0.269-0.56,0.578-1.138,0.926-1.735c0.347-0.599,0.694-1.168,1.041-1.707c0.348-0.541,0.617-0.983,0.811-1.331
	c0.771-1.273,1.514-2.546,2.228-3.819s1.438-2.547,2.171-3.819c-2.546-2.121-4.756-4.484-6.626-7.089
	c-1.872-2.604-3.309-5.469-4.312-8.593c-0.193-0.541-0.386-1.08-0.578-1.62c-0.193-0.541-0.252-1.1-0.174-1.679
	c0.077-0.655,0.261-1.244,0.55-1.765c0.289-0.521,0.665-0.945,1.128-1.273c0.464-0.327,0.993-0.511,1.592-0.549
	s1.206,0.096,1.823,0.404c0.501,0.271,0.897,0.647,1.187,1.129c0.289,0.482,0.529,1.004,0.723,1.562
	c0.192,0.56,0.356,1.129,0.492,1.707s0.298,1.1,0.492,1.562c1.543,3.819,3.877,7.08,7.002,9.779
	c1.118-2.314,2.121-4.639,3.009-6.974c0.888-2.333,1.679-4.716,2.373-7.146L433.438,591.891z"/>
<path fill="none" stroke="#000000" stroke-width="2" d="M457.568,600.86v-0.81c-0.348-0.887-0.907-1.515-1.678-1.881
	c-0.772-0.366-1.602-0.588-2.488-0.666c-0.502,0.155-0.906,0.329-1.215,0.521c-0.31,0.193-0.579,0.405-0.811,0.637
	s-0.444,0.492-0.637,0.78c-0.193,0.29-0.425,0.589-0.694,0.897v15.161c0,1.196-0.356,2.131-1.07,2.807
	c-0.714,0.675-1.505,1.061-2.373,1.157s-1.669-0.115-2.401-0.637c-0.733-0.521-1.119-1.398-1.157-2.633
	c-0.078-2.971-0.107-6.346-0.088-10.127c0.02-3.78,0.029-8.004,0.029-12.673c0-0.811,0.241-1.484,0.724-2.025
	c0.481-0.54,1.061-0.906,1.736-1.1c0.675-0.192,1.368-0.183,2.083,0.029c0.713,0.212,1.302,0.646,1.766,1.302
	c2.159-1.08,4.311-1.418,6.451-1.013c2.142,0.405,4.08,1.418,5.816,3.038c0.771-0.771,1.6-1.466,2.488-2.083
	c0.887-0.616,1.851-1.021,2.894-1.215c1.195-0.192,2.401-0.145,3.616,0.145s2.344,0.763,3.386,1.417
	c1.041,0.657,1.957,1.467,2.748,2.431c0.79,0.965,1.379,2.007,1.766,3.125c0.191,0.772,0.289,1.467,0.289,2.083v15.74
	c0,0.463-0.059,0.906-0.173,1.331c-0.348,1.003-0.897,1.707-1.649,2.112c-0.753,0.404-1.524,0.549-2.314,0.434
	c-0.792-0.115-1.476-0.482-2.055-1.1c-0.578-0.617-0.867-1.446-0.867-2.487v-15.567c-0.348-0.926-0.85-1.601-1.505-2.025
	c-0.656-0.424-1.331-0.617-2.026-0.578c-0.694,0.038-1.359,0.289-1.996,0.752s-1.148,1.1-1.533,1.91v15.161
	c0,1.041-0.339,1.909-1.013,2.604c-0.676,0.695-1.418,1.138-2.229,1.331c-0.81,0.192-1.572,0.115-2.285-0.231
	c-0.715-0.348-1.129-1.041-1.244-2.083L457.568,600.86z"/>
<path fill="none" stroke="#000000" stroke-width="2" d="M506.061,615.906c-0.116,0.965-0.473,1.755-1.07,2.372
	c-0.6,0.617-1.273,1.003-2.026,1.158c-0.752,0.153-1.476,0.058-2.17-0.29s-1.196-1.022-1.504-2.025
	c-0.348-1.08-0.483-2.208-0.405-3.385c0.076-1.177,0.115-2.267,0.115-3.271c0-2.083,0.01-4.156,0.029-6.221
	c0.019-2.062-0.068-4.137-0.261-6.221c-0.039-0.077-0.078-0.144-0.115-0.202c-0.039-0.059-0.116-0.145-0.232-0.261
	c-0.887-0.231-1.832-0.173-2.835,0.174c-1.004,0.347-1.852,0.791-2.546,1.331c-0.618,0.501-1.226,1.187-1.823,2.054
	c-0.6,0.868-0.897,1.707-0.897,2.518v7.985c0,0.618,0.02,1.293,0.059,2.025c0.038,0.733,0.009,1.447-0.088,2.142
	s-0.318,1.331-0.665,1.909s-0.907,1.003-1.678,1.273c-0.425,0.153-0.82,0.212-1.187,0.174c-0.367-0.039-0.762-0.136-1.186-0.29
	c-0.695-0.231-1.196-0.627-1.505-1.186c-0.31-0.559-0.521-1.158-0.637-1.795c-0.115-0.636-0.165-1.253-0.144-1.851
	c0.018-0.599,0.028-1.071,0.028-1.418c0-0.888-0.011-2.17-0.028-3.848c-0.021-1.679-0.03-3.443-0.03-5.296c0-1.851,0-3.616,0-5.294
	s0-2.96,0-3.849c0-0.848,0.251-1.553,0.753-2.111c0.5-0.56,1.089-0.927,1.765-1.101c0.675-0.173,1.39-0.134,2.142,0.116
	c0.752,0.251,1.379,0.762,1.88,1.533c1.543-1.003,3.241-1.678,5.093-2.025c1.851-0.348,3.597-0.289,5.237,0.173
	c1.639,0.464,3.009,1.331,4.108,2.605c1.1,1.272,1.668,3.028,1.707,5.266c0,0.077,0.019,0.309,0.058,0.693
	c0.038,0.387,0.059,0.927,0.059,1.621V615.906L506.061,615.906z"/>
<path fill="none" stroke="#000000" stroke-width="2" d="M537.077,612.897c0.347,0.501,0.55,1.09,0.607,1.765
	c0.059,0.676-0.02,1.312-0.231,1.909c-0.213,0.6-0.56,1.09-1.041,1.476c-0.483,0.386-1.109,0.559-1.881,0.521
	c-1.004-0.078-1.814-0.425-2.431-1.041c-0.618-0.617-1.196-1.312-1.736-2.084c-1.505,1.236-3.058,2.093-4.658,2.575
	s-3.174,0.588-4.716,0.318c-1.543-0.27-2.99-0.917-4.341-1.938s-2.487-2.401-3.413-4.137c-0.85-1.62-1.322-3.415-1.418-5.383
	c-0.097-1.967-0.126-3.838-0.087-5.613c0-0.616,0.019-1.224,0.058-1.822c0.038-0.599,0.077-1.225,0.116-1.881
	c0.038-0.501,0.058-0.993,0.058-1.476c0-0.481,0.029-0.935,0.087-1.36c0.059-0.424,0.174-0.848,0.348-1.272
	c0.173-0.425,0.434-0.829,0.78-1.216c0.464-0.5,1.021-0.801,1.679-0.896c0.655-0.096,1.282-0.029,1.88,0.202
	c0.599,0.231,1.118,0.589,1.562,1.071c0.443,0.482,0.685,1.07,0.724,1.765c0.077,1.968,0.029,3.955-0.145,5.96
	c-0.173,2.006-0.164,3.974,0.029,5.903c0.077,0.926,0.318,1.872,0.724,2.835c0.405,0.965,1.051,1.659,1.938,2.083
	c0.887,0.387,1.784,0.357,2.69-0.087c0.906-0.443,1.648-0.974,2.229-1.592c0.269-0.309,0.529-0.646,0.781-1.012
	c0.25-0.367,0.529-0.686,0.839-0.955c-0.155-1.351-0.252-2.7-0.29-4.052c-0.039-1.349-0.039-2.699,0-4.05
	c0-0.732,0.029-1.533,0.087-2.402c0.059-0.867,0.212-1.696,0.463-2.487c0.25-0.79,0.627-1.485,1.129-2.083
	c0.501-0.599,1.215-0.975,2.142-1.129c0.423-0.076,0.839-0.038,1.244,0.115c0.404,0.155,0.761,0.367,1.07,0.637
	c0.539,0.464,0.905,0.983,1.1,1.562c0.192,0.578,0.289,1.196,0.289,1.852c0,0.656-0.049,1.321-0.145,1.997
	c-0.097,0.676-0.165,1.302-0.202,1.88c-0.078,1.081-0.136,2.219-0.174,3.414c-0.038,1.196,0,2.393,0.115,3.588
	c0.116,1.196,0.338,2.354,0.666,3.473C535.929,610.949,536.421,611.972,537.077,612.897z"/>
<path fill="none" stroke="#000000" stroke-width="2" d="M541.069,613.533c-0.231-0.655-0.328-1.302-0.29-1.938
	s0.203-1.215,0.492-1.736c0.29-0.521,0.703-0.926,1.244-1.215c0.54-0.289,1.195-0.396,1.968-0.318
	c0.424,0.039,0.81,0.154,1.157,0.348c0.348,0.192,0.666,0.425,0.955,0.693c0.29,0.271,0.579,0.561,0.868,0.868
	c0.29,0.31,0.588,0.579,0.897,0.811c0.655,0.502,1.35,0.868,2.083,1.1c0.732,0.231,1.505,0.405,2.314,0.521
	c0.54,0,0.974-0.135,1.302-0.404c0.327-0.27,0.55-0.598,0.666-0.983c0.115-0.386,0.145-0.801,0.087-1.244s-0.202-0.801-0.434-1.07
	c-0.656-0.656-1.457-1.08-2.401-1.273c-0.946-0.192-1.823-0.424-2.634-0.694c-1.157-0.386-2.296-0.878-3.414-1.476
	c-1.119-0.598-2.025-1.418-2.72-2.46c-0.732-1.08-1.167-2.229-1.302-3.443c-0.136-1.215-0.039-2.401,0.289-3.559
	c0.327-1.157,0.878-2.218,1.649-3.183c0.771-0.964,1.697-1.755,2.777-2.372c0.811-0.464,1.697-0.762,2.662-0.897
	c0.964-0.135,1.939-0.164,2.923-0.087c0.983,0.078,1.957,0.26,2.922,0.549c0.963,0.29,1.852,0.608,2.662,0.955
	c0.926,0.425,1.62,1.023,2.083,1.795c0.463,0.772,0.684,1.553,0.666,2.343c-0.021,0.792-0.29,1.476-0.811,2.055
	c-0.521,0.578-1.283,0.868-2.285,0.868c-0.618,0-1.178-0.105-1.679-0.319c-0.501-0.211-1.022-0.414-1.562-0.607
	c-0.694-0.269-1.446-0.452-2.257-0.549c-0.811-0.096-1.467-0.048-1.968,0.145c-0.154,0.038-0.328,0.165-0.521,0.376
	c-0.193,0.213-0.338,0.473-0.434,0.78c-0.097,0.311-0.115,0.618-0.058,0.927c0.058,0.31,0.261,0.56,0.606,0.752
	c0.927,0.502,1.91,0.888,2.952,1.157c1.041,0.271,2.062,0.579,3.066,0.927c1.003,0.347,1.939,0.791,2.807,1.331
	c0.868,0.54,1.592,1.312,2.17,2.314c0.849,1.466,1.282,2.999,1.303,4.601c0.019,1.602-0.299,3.096-0.955,4.484
	c-0.656,1.39-1.62,2.575-2.894,3.559s-2.759,1.571-4.456,1.766c-1.196,0.115-2.372,0.047-3.53-0.203
	c-1.157-0.251-2.276-0.656-3.356-1.215c-1.08-0.56-2.082-1.225-3.009-1.997c-0.926-0.771-1.735-1.581-2.431-2.43L541.069,613.533z"
	/>
<path fill="none" stroke="#000000" stroke-width="2" d="M214.164,667.712c0.405,0.781,0.549,1.569,0.434,2.365
	c-0.116,0.796-0.637,1.382-1.562,1.758c-0.868,0.318-1.7,0.231-2.496-0.261s-1.512-1.158-2.148-1.996
	c-0.637-0.84-1.187-1.722-1.649-2.647c-0.463-0.927-0.811-1.679-1.042-2.257c-1.476-3.414-2.272-6.966-2.387-10.655
	c-0.116-3.688,0.361-7.283,1.432-10.785c0.26-0.896,0.608-1.743,1.042-2.539c0.434-0.795,0.868-1.598,1.302-2.408
	c0.26-0.463,0.585-1.042,0.976-1.736c0.391-0.694,0.846-1.315,1.367-1.866c0.521-0.549,1.092-0.939,1.714-1.172
	c0.622-0.231,1.294-0.131,2.018,0.304c0.695,0.434,1.07,0.948,1.128,1.541c0.058,0.594-0.051,1.201-0.325,1.823
	c-0.275,0.623-0.623,1.223-1.042,1.801c-0.419,0.579-0.759,1.07-1.02,1.476c-0.376,0.666-0.688,1.23-0.933,1.692
	c-0.246,0.464-0.449,0.854-0.608,1.172c-0.159,0.319-0.282,0.601-0.369,0.847s-0.159,0.485-0.217,0.716
	c-0.434,1.505-0.752,3.118-0.955,4.84c-0.203,1.721-0.26,3.45-0.174,5.187c0.087,1.735,0.347,3.436,0.781,5.099
	c0.434,1.665,1.07,3.19,1.91,4.579c0.145,0.261,0.333,0.527,0.564,0.804c0.231,0.274,0.44,0.521,0.629,0.737
	c0.188,0.217,0.34,0.391,0.456,0.521c0.115,0.13,0.145,0.165,0.087,0.108L214.164,667.712z"/>
<path fill="none" stroke="#000000" stroke-width="2" d="M238.686,645.795c0.434-0.579,0.934-0.978,1.498-1.193
	c0.564-0.217,1.092-0.261,1.584-0.131c0.491,0.131,0.911,0.428,1.259,0.89c0.347,0.464,0.535,1.085,0.564,1.866
	c0.028,0.434-0.152,1.216-0.542,2.344c-0.391,1.129-0.861,2.604-1.411,4.427c-0.029,0.116-0.08,0.26-0.152,0.434
	c-0.073,0.174-0.174,0.464-0.304,0.868c-0.129,0.406-0.319,0.97-0.564,1.692c-0.246,0.725-0.586,1.694-1.02,2.909
	c-0.203,0.606-0.456,1.33-0.76,2.17c-0.304,0.839-0.688,1.584-1.15,2.234c-0.463,0.651-1.014,1.1-1.649,1.346
	c-0.637,0.245-1.404,0.064-2.3-0.543c-0.29-0.203-0.608-0.614-0.955-1.237c-0.347-0.621-0.68-1.294-0.998-2.018
	c-0.319-0.724-0.601-1.41-0.846-2.062c-0.246-0.65-0.413-1.078-0.5-1.28c-0.203-0.463-0.434-0.977-0.694-1.541
	c-0.261-0.564-0.507-1.135-0.738-1.714l-0.26,0.65c-0.376,0.955-0.752,1.909-1.128,2.864c-0.376,0.955-0.752,1.896-1.128,2.821
	c-0.203,0.492-0.391,1.027-0.564,1.605c-0.174,0.579-0.419,1.085-0.738,1.519c-0.261,0.376-0.586,0.644-0.977,0.803
	c-0.39,0.158-0.789,0.224-1.193,0.195c-0.406-0.029-0.789-0.139-1.15-0.325c-0.362-0.188-0.672-0.456-0.933-0.804
	c-0.406-0.578-0.724-1.243-0.955-1.997c-0.232-0.752-0.463-1.445-0.695-2.083c-0.319-0.896-0.608-1.815-0.868-2.756
	c-0.261-0.939-0.536-1.845-0.825-2.712c-0.145-0.463-0.333-1.07-0.564-1.823c-0.232-0.752-0.456-1.525-0.673-2.322
	c-0.217-0.795-0.391-1.569-0.521-2.322c-0.13-0.752-0.181-1.373-0.151-1.866c0.028-0.492,0.195-0.933,0.499-1.323
	c0.304-0.392,0.673-0.68,1.107-0.868s0.89-0.253,1.368-0.195c0.477,0.059,0.904,0.275,1.28,0.65
	c0.549,0.579,0.882,1.193,0.998,1.845c0.115,0.651,0.245,1.354,0.391,2.104c0.23,1.158,0.499,2.301,0.803,3.43
	c0.304,1.128,0.629,2.257,0.977,3.385c0.115-0.26,0.245-0.578,0.39-0.955c0.145-0.376,0.376-0.939,0.695-1.692
	c0.261-0.637,0.513-1.259,0.759-1.867c0.246-0.606,0.484-1.215,0.716-1.823c0.174-0.434,0.347-0.86,0.521-1.279
	c0.174-0.42,0.347-0.832,0.521-1.237c0.202-0.434,0.499-0.788,0.89-1.063c0.391-0.273,0.817-0.447,1.281-0.521
	c0.462-0.071,0.911-0.028,1.345,0.131c0.434,0.159,0.781,0.455,1.042,0.889c0.375,0.579,0.665,1.223,0.868,1.932
	c0.202,0.709,0.419,1.382,0.65,2.019c0.405,1.041,0.803,2.091,1.193,3.146c0.391,1.057,0.803,2.091,1.237,3.104
	c0.637-1.736,1.2-3.479,1.693-5.23c0.492-1.75,1.026-3.494,1.606-5.229L238.686,645.795z"/>
<path fill="none" stroke="#000000" stroke-width="2" d="M264.422,662.635c0.231,0.839,0.188,1.533-0.13,2.082
	c-0.319,0.55-0.759,0.919-1.324,1.107c-0.564,0.188-1.179,0.166-1.844-0.065c-0.666-0.231-1.245-0.694-1.736-1.388
	c-0.811,0.606-1.599,1.033-2.365,1.279c-0.767,0.246-1.643,0.384-2.626,0.413c-1.476,0.058-2.792-0.109-3.95-0.499
	c-1.157-0.391-2.134-0.977-2.93-1.758s-1.382-1.758-1.758-2.93s-0.506-2.523-0.39-4.058c0.058-0.636,0.166-1.259,0.326-1.867
	c0.158-0.606,0.339-1.2,0.542-1.778c0.231-0.637,0.557-1.316,0.977-2.04s0.847-1.346,1.281-1.866
	c1.562-1.91,3.515-3.284,5.859-4.123c0.405-0.145,0.955-0.274,1.649-0.391c0.694-0.115,1.396-0.166,2.105-0.152
	c0.708,0.015,1.388,0.108,2.04,0.282c0.65,0.173,1.135,0.478,1.454,0.911c0.261,0.348,0.448,0.65,0.564,0.911
	c0.115,0.261,0.181,0.536,0.195,0.825c0.014,0.29,0.014,0.601,0,0.933c-0.015,0.333-0.022,0.746-0.022,1.237
	c0,0.81-0.007,1.599-0.021,2.364c-0.015,0.768-0.007,1.541,0.021,2.322c0,0.261,0,0.601,0,1.021s0.014,0.86,0.043,1.323
	c0.029,0.464,0.065,0.905,0.109,1.324c0.043,0.42,0.108,0.759,0.195,1.02L264.422,662.635z M255.221,660.681
	c0.318-0.202,0.679-0.427,1.085-0.673c0.405-0.245,0.766-0.527,1.085-0.847c-0.26-1.533-0.412-3.066-0.456-4.601
	c-0.043-1.533-0.037-3.081,0.022-4.644c-1.302,0.231-2.474,0.796-3.516,1.692c-1.042,0.897-1.765,1.953-2.17,3.169
	c-0.174,0.492-0.319,0.998-0.434,1.519c-0.116,0.521-0.16,1.027-0.13,1.519c0.028,0.666,0.202,1.223,0.521,1.671
	c0.318,0.448,0.701,0.789,1.15,1.02c0.448,0.232,0.926,0.362,1.432,0.391C254.316,660.928,254.787,660.854,255.221,660.681z"/>
<path fill="none" stroke="#000000" stroke-width="2" d="M268.025,650.092c-0.579-0.145-1.079-0.391-1.497-0.738
	c-0.42-0.347-0.709-0.752-0.868-1.215c-0.159-0.463-0.159-0.939,0-1.433c0.158-0.492,0.513-0.939,1.063-1.345
	c0.462-0.348,0.983-0.521,1.562-0.521c0.578,0,1.143,0,1.693,0c0-0.202-0.015-0.644-0.044-1.324
	c-0.029-0.679-0.037-1.424-0.022-2.234c0.014-0.81,0.065-1.584,0.152-2.321c0.087-0.738,0.246-1.252,0.478-1.541
	c0.579-0.81,1.294-1.193,2.148-1.151c0.854,0.044,1.555,0.456,2.105,1.237c0.115,0.146,0.224,0.319,0.326,0.521
	c0.101,0.203,0.151,0.392,0.151,0.564c0.028,1.042,0.036,2.083,0.022,3.125c-0.015,1.042-0.022,2.083-0.022,3.124h3.429
	c0.521,0,0.969,0.174,1.345,0.521c0.376,0.348,0.644,0.752,0.803,1.215c0.159,0.464,0.202,0.94,0.13,1.433
	c-0.073,0.492-0.296,0.897-0.673,1.215c-0.666,0.55-1.439,0.839-2.322,0.868c-0.882,0.029-1.786,0.043-2.712,0.043
	c0,1.592-0.007,3.184-0.022,4.774c-0.015,1.592-0.007,3.184,0.022,4.774c0,0.694,0.036,1.403,0.108,2.127s0.022,1.418-0.151,2.083
	c-0.146,0.521-0.391,0.933-0.738,1.236c-0.347,0.305-0.738,0.492-1.172,0.564c-0.434,0.072-0.883,0.044-1.345-0.087
	c-0.463-0.13-0.897-0.369-1.302-0.716c-0.203-0.202-0.355-0.549-0.456-1.042c-0.102-0.491-0.167-1.012-0.195-1.562
	c-0.029-0.637-0.029-1.316,0-2.04c0-0.578,0-1.331,0-2.257c0-0.927-0.007-1.889-0.021-2.887c-0.015-0.999-0.022-1.946-0.022-2.844
	c0-0.896,0-1.605,0-2.126L268.025,650.092z"/>
<path fill="none" stroke="#000000" stroke-width="2" d="M297.321,658.728c0.694-0.173,1.309-0.181,1.844-0.021
	c0.535,0.158,0.947,0.427,1.237,0.803c0.289,0.376,0.419,0.84,0.391,1.389c-0.029,0.55-0.275,1.129-0.738,1.736
	c-0.376,0.493-0.897,0.911-1.562,1.259c-0.666,0.348-1.288,0.623-1.866,0.824c-1.418,0.521-2.763,0.883-4.036,1.086
	c-1.273,0.201-2.467,0.201-3.581,0c-1.114-0.203-2.155-0.623-3.125-1.26c-0.97-0.636-1.874-1.532-2.712-2.689
	c-0.579-0.781-1.006-1.671-1.28-2.669c-0.275-0.999-0.427-2.019-0.456-3.061s0.058-2.068,0.261-3.081
	c0.202-1.013,0.491-1.925,0.868-2.734c0.492-1.013,1.273-1.938,2.343-2.777s2.257-1.505,3.559-1.997
	c1.302-0.491,2.632-0.773,3.993-0.847c1.36-0.071,2.561,0.138,3.602,0.629c0.868,0.406,1.613,0.992,2.235,1.758
	c0.622,0.767,1.049,1.6,1.28,2.496c0.231,0.897,0.253,1.801,0.065,2.712c-0.188,0.912-0.658,1.744-1.411,2.496
	c-0.723,0.724-1.519,1.31-2.387,1.758s-1.765,0.84-2.691,1.172c-0.927,0.333-1.874,0.615-2.843,0.847
	c-0.969,0.231-1.903,0.492-2.799,0.78c0.608,0.695,1.302,1.136,2.083,1.324c0.781,0.188,1.598,0.224,2.452,0.108
	c0.853-0.115,1.714-0.354,2.582-0.716s1.678-0.76,2.431-1.193L297.321,658.728z M288.554,651.264
	c-0.666,0.376-1.157,0.846-1.476,1.41c-0.319,0.564-0.549,1.354-0.694,2.365c0.752-0.231,1.598-0.477,2.539-0.737
	c0.94-0.261,1.829-0.535,2.669-0.825c0.839-0.289,1.547-0.607,2.126-0.955c0.579-0.347,0.868-0.724,0.868-1.129
	c0-0.23-0.037-0.455-0.108-0.673c-0.073-0.217-0.225-0.369-0.456-0.455c-0.811-0.29-1.649-0.347-2.517-0.174
	c-0.868,0.174-1.592,0.42-2.17,0.738L288.554,651.264z"/>
<path fill="none" stroke="#000000" stroke-width="2" d="M305.263,651.154c0.029-0.188,0.014-0.527-0.043-1.02
	c-0.463-0.261-0.825-0.593-1.085-0.998c-0.26-0.405-0.412-0.839-0.456-1.303c-0.043-0.462,0.043-0.904,0.261-1.323
	c0.216-0.419,0.571-0.774,1.063-1.063c0.665-0.376,1.396-0.447,2.192-0.217c0.795,0.232,1.481,0.579,2.061,1.042
	c0.723-0.549,1.476-1.013,2.258-1.39c0.78-0.375,1.577-0.629,2.387-0.759c0.81-0.131,1.635-0.108,2.474,0.064
	s1.664,0.536,2.474,1.085c0.405,0.261,0.781,0.586,1.129,0.977c0.347,0.391,0.564,0.832,0.65,1.323
	c0.145,0.725,0.087,1.354-0.173,1.889c-0.261,0.536-0.623,0.927-1.085,1.172c-0.464,0.246-0.983,0.318-1.562,0.217
	s-1.129-0.413-1.649-0.933c-0.174-0.115-0.297-0.21-0.369-0.282s-0.225-0.166-0.455-0.282c-0.464-0.115-0.92-0.088-1.367,0.087
	c-0.449,0.173-0.883,0.412-1.302,0.716c-0.421,0.304-0.811,0.637-1.172,0.998c-0.362,0.362-0.688,0.688-0.978,0.977v11.067
	c0,0.435-0.087,0.854-0.261,1.259c-0.26,0.666-0.672,1.129-1.236,1.39c-0.564,0.26-1.129,0.332-1.693,0.217
	c-0.563-0.116-1.057-0.406-1.476-0.868c-0.42-0.464-0.629-1.056-0.629-1.779v-12.152
	C305.219,651.379,305.234,651.344,305.263,651.154z"/>
<path fill="none" stroke="#000000" stroke-width="2" d="M331.042,665.672c-0.84,0.029-1.643-0.029-2.409-0.173
	c-0.767-0.146-1.526-0.391-2.279-0.738c-0.375,0.202-0.745,0.304-1.106,0.304c-0.362,0-0.694-0.058-0.998-0.173
	c-0.304-0.116-0.564-0.254-0.781-0.413c-0.217-0.158-0.369-0.282-0.455-0.369c-0.319-0.462-0.507-0.982-0.564-1.562
	c-0.059-0.578,0.13-1.129,0.564-1.648V638.59c0-0.665,0.231-1.222,0.694-1.671c0.463-0.447,0.998-0.729,1.605-0.846
	c0.607-0.115,1.193-0.014,1.758,0.304c0.564,0.319,0.947,0.897,1.15,1.735c0.115,0.521,0.21,1.035,0.282,1.541
	c0.071,0.507,0.115,1.093,0.13,1.758c0.015,0.667,0.015,1.433,0,2.301s-0.051,1.938-0.108,3.212
	c0.261-0.145,0.527-0.282,0.803-0.413c0.274-0.13,0.557-0.267,0.847-0.412c0.81-0.375,1.677-0.607,2.604-0.694
	c0.926-0.087,1.829-0.036,2.713,0.152c0.882,0.188,1.707,0.535,2.474,1.041c0.767,0.507,1.396,1.165,1.889,1.975
	c0.694,1.158,1.164,2.511,1.41,4.059s0.246,3.081,0,4.601c-0.246,1.519-0.753,2.93-1.519,4.231
	c-0.767,1.303-1.845,2.271-3.233,2.908c-0.868,0.404-1.758,0.716-2.669,0.933S331.997,665.643,331.042,665.672z M328.308,654.562
	v5.208c0.058,0.059,0.115,0.102,0.174,0.131c0.058,0.029,0.115,0.071,0.173,0.13c2.604,0.868,4.86,0.274,6.771-1.779
	c0.434-1.157,0.644-2.249,0.629-3.277c-0.015-1.026-0.21-2.133-0.586-3.32c-0.146-0.347-0.384-0.571-0.716-0.673
	c-0.333-0.101-0.629-0.224-0.89-0.369c-0.464-0.087-0.963,0-1.497,0.261c-0.536,0.261-1.049,0.586-1.541,0.977
	c-0.493,0.391-0.94,0.818-1.346,1.28c-0.405,0.463-0.724,0.854-0.955,1.172L328.308,654.562z"/>
<path fill="none" stroke="#000000" stroke-width="2" d="M363.679,661.159c0.261,0.376,0.412,0.817,0.456,1.323
	c0.043,0.506-0.015,0.983-0.174,1.433c-0.159,0.448-0.42,0.816-0.781,1.106c-0.362,0.289-0.832,0.42-1.41,0.391
	c-0.753-0.058-1.361-0.318-1.823-0.781c-0.464-0.462-0.897-0.982-1.302-1.562c-1.129,0.926-2.294,1.568-3.494,1.931
	c-1.201,0.361-2.381,0.441-3.537,0.239c-1.157-0.203-2.243-0.688-3.255-1.454c-1.013-0.767-1.866-1.801-2.561-3.104
	c-0.638-1.215-0.991-2.561-1.063-4.036s-0.094-2.878-0.065-4.21c0-0.462,0.015-0.918,0.044-1.367
	c0.028-0.447,0.058-0.918,0.087-1.41c0.028-0.376,0.043-0.745,0.043-1.107c0-0.361,0.021-0.701,0.065-1.02
	c0.043-0.318,0.13-0.637,0.261-0.955c0.129-0.318,0.324-0.622,0.585-0.911c0.348-0.376,0.767-0.6,1.259-0.674
	c0.492-0.071,0.962-0.021,1.411,0.153c0.448,0.173,0.839,0.44,1.172,0.803c0.332,0.362,0.514,0.803,0.542,1.323
	c0.059,1.476,0.022,2.967-0.108,4.471c-0.13,1.505-0.123,2.98,0.021,4.427c0.059,0.694,0.239,1.403,0.543,2.127
	s0.788,1.244,1.454,1.562c0.665,0.29,1.338,0.268,2.018-0.065c0.68-0.332,1.237-0.729,1.671-1.193
	c0.202-0.231,0.397-0.483,0.587-0.76c0.188-0.273,0.396-0.513,0.628-0.716c-0.115-1.012-0.188-2.025-0.217-3.038
	c-0.028-1.012-0.028-2.024,0-3.038c0-0.549,0.022-1.15,0.065-1.801s0.159-1.272,0.347-1.866c0.188-0.593,0.471-1.113,0.847-1.562
	c0.376-0.448,0.911-0.73,1.605-0.847c0.318-0.058,0.63-0.028,0.933,0.087c0.305,0.116,0.572,0.275,0.804,0.478
	c0.404,0.347,0.679,0.738,0.824,1.172c0.145,0.434,0.217,0.897,0.217,1.39s-0.037,0.991-0.108,1.497
	c-0.072,0.506-0.123,0.977-0.152,1.41c-0.059,0.811-0.102,1.665-0.13,2.562c-0.029,0.897,0,1.794,0.087,2.69
	s0.253,1.765,0.499,2.604S363.187,660.464,363.679,661.159z"/>
<path fill="none" stroke="#000000" stroke-width="2" d="M378.348,659.119c0.724-0.463,1.41-0.665,2.062-0.607
	c0.65,0.059,1.187,0.281,1.606,0.673c0.419,0.391,0.65,0.911,0.694,1.562c0.043,0.65-0.182,1.339-0.673,2.062
	c-0.319,0.492-0.775,0.94-1.367,1.345c-0.594,0.405-1.165,0.724-1.715,0.955c-1.273,0.578-2.561,0.839-3.862,0.781
	c-1.303-0.059-2.512-0.377-3.625-0.955s-2.076-1.382-2.886-2.409c-0.811-1.027-1.36-2.221-1.648-3.581
	c-0.579-2.604-0.464-5.106,0.347-7.509c0.318-0.867,0.701-1.707,1.15-2.517c0.447-0.81,0.99-1.548,1.627-2.213
	s1.345-1.252,2.127-1.758c0.781-0.507,1.634-0.847,2.561-1.021c0.636-0.115,1.446-0.108,2.432,0.022
	c0.982,0.13,1.945,0.384,2.886,0.759c0.939,0.376,1.765,0.868,2.474,1.476s1.107,1.331,1.193,2.17c0.058,0.463,0,0.89-0.173,1.281
	c-0.174,0.39-0.421,0.716-0.738,0.977c-0.319,0.26-0.688,0.441-1.107,0.542c-0.42,0.102-0.846,0.095-1.28-0.021
	c-0.521-0.145-0.933-0.34-1.236-0.586c-0.304-0.245-0.701-0.571-1.193-0.977c-0.232-0.058-0.449-0.151-0.651-0.282
	c-0.202-0.13-0.419-0.181-0.65-0.151l-1.172,0.13c-0.202,0.115-0.391,0.217-0.564,0.304c-0.173,0.087-0.347,0.174-0.521,0.261
	c-0.984,0.983-1.707,2.077-2.17,3.276c-0.464,1.201-0.579,2.496-0.347,3.884c0.144,0.898,0.426,1.636,0.846,2.214
	c0.42,0.579,0.911,0.977,1.476,1.193s1.187,0.239,1.867,0.065c0.679-0.174,1.352-0.564,2.018-1.172L378.348,659.119z"/>
<path fill="none" stroke="#000000" stroke-width="2" d="M390.804,665.217c-0.579,0.419-1.18,0.614-1.801,0.585
	c-0.623-0.029-1.172-0.282-1.649-0.759c-0.478-0.478-0.716-1.135-0.716-1.976v-24.738c0-0.435,0.122-0.831,0.369-1.193
	c0.245-0.361,0.557-0.657,0.933-0.89c0.376-0.231,0.788-0.383,1.237-0.456c0.447-0.071,0.86-0.058,1.236,0.044
	s0.701,0.318,0.977,0.65c0.275,0.333,0.427,0.789,0.456,1.367c0.087,2.257,0.131,4.282,0.131,6.076c0,1.795-0.015,3.603-0.044,5.425
	c0.665-0.492,1.295-1.006,1.889-1.541c0.593-0.535,1.179-1.092,1.757-1.671c0.521-0.549,1.027-1.164,1.52-1.845
	c0.491-0.679,1.113-1.15,1.866-1.411c0.549-0.173,1.062-0.202,1.541-0.087c0.477,0.116,0.882,0.341,1.215,0.674
	c0.332,0.333,0.557,0.737,0.673,1.215c0.115,0.477,0.087,0.991-0.087,1.541c-0.146,0.405-0.472,0.911-0.977,1.519
	c-0.507,0.607-1.071,1.23-1.693,1.866c-0.623,0.637-1.236,1.223-1.845,1.758c-0.607,0.536-1.1,0.948-1.475,1.236
	c1.012,1.1,2.01,2.214,2.994,3.343c0.982,1.128,1.981,2.257,2.995,3.385c0.434,0.492,0.847,0.933,1.236,1.323
	c0.392,0.391,0.73,0.861,1.021,1.411c0.231,0.463,0.304,0.94,0.217,1.432c-0.087,0.493-0.282,0.92-0.586,1.28
	c-0.304,0.362-0.68,0.63-1.128,0.804c-0.449,0.173-0.934,0.188-1.454,0.042c-0.493-0.145-0.971-0.411-1.433-0.803
	c-0.463-0.391-0.905-0.817-1.323-1.28c-0.421-0.463-0.818-0.939-1.193-1.433c-0.377-0.491-0.725-0.911-1.042-1.259
	c-0.781-0.896-1.556-1.786-2.322-2.669c-0.768-0.882-1.556-1.743-2.365-2.582v7.552
	C391.759,664.109,391.383,664.797,390.804,665.217z"/>
<path fill="none" stroke="#000000" stroke-width="2" d="M406.905,667.147c0.231-0.231,0.441-0.441,0.629-0.629
	c0.188-0.188,0.376-0.376,0.564-0.564s0.369-0.397,0.543-0.629c0.173-0.231,0.361-0.506,0.564-0.825
	c0.838-1.359,1.476-2.907,1.909-4.644s0.694-3.522,0.781-5.36c0.087-1.837,0.014-3.646-0.217-5.425
	c-0.232-1.779-0.623-3.406-1.172-4.883c-0.376-1.012-0.847-1.968-1.411-2.864c-0.564-0.897-1.135-1.779-1.714-2.647
	c-0.261-0.376-0.515-0.745-0.76-1.107c-0.246-0.361-0.384-0.788-0.412-1.28c-0.029-0.752,0.151-1.373,0.543-1.866
	c0.39-0.492,0.86-0.803,1.41-0.933c0.549-0.131,1.113-0.08,1.693,0.151c0.578,0.232,1.041,0.681,1.389,1.346
	c0.636,0.897,1.244,1.809,1.823,2.734c0.578,0.927,1.113,1.866,1.606,2.82c0.81,1.562,1.424,3.255,1.844,5.078
	s0.666,3.689,0.738,5.599c0.071,1.909-0.021,3.797-0.282,5.664c-0.261,1.866-0.651,3.609-1.172,5.229
	c-0.463,1.39-1.021,2.784-1.671,4.188c-0.65,1.403-1.482,2.64-2.495,3.711c-0.435,0.462-0.927,0.896-1.476,1.301
	c-0.55,0.405-1.157,0.608-1.823,0.608c-0.607,0-1.106-0.131-1.497-0.391c-0.391-0.261-0.666-0.594-0.825-0.999
	s-0.21-0.846-0.151-1.323c0.058-0.478,0.201-0.948,0.434-1.411L406.905,667.147z"/>
<path fill="none" stroke="#000000" stroke-width="2" d="M123.202,374.598c-0.676,4.961-2.594,9.298-5.749,13.018
	c-3.159,3.72-6.763,6.256-10.819,7.608c-4.058,1.353-8.115,1.353-12.173,0s-7.217-4.623-9.468-9.806
	c-1.13-2.478-1.918-6.931-2.366-13.355c-0.455-6.424-0.793-13.128-1.015-20.118c-0.227-6.984-0.285-13.467-0.169-19.442
	c0.112-5.97,0.169-9.636,0.169-10.989v-70.668c0-0.676-0.058-4.058-0.169-10.143c-0.115-6.086-0.115-12.791,0-20.118
	c0.112-7.323,0.449-14.423,1.015-21.302c0.56-6.873,1.632-11.549,3.212-14.032c2.029-3.381,4.506-5.801,7.438-7.27
	c2.927-1.463,5.917-2.081,8.96-1.86c3.043,0.227,6.086,1.13,9.129,2.705c3.042,1.58,5.579,3.946,7.607,7.101
	c0.898,1.13,1.744,2.483,2.536,4.058c0.788,1.58,1.184,3.043,1.184,4.396c0.222,10.82,0.222,21.471,0,31.952
	c-0.228,10.482-0.338,21.132-0.338,31.953c8.115-4.734,15.607-10.086,22.485-16.061c6.874-5.97,13.578-12.791,20.119-20.457
	c1.574-2.028,3.83-5.071,6.762-9.129c2.927-4.058,6.086-8.226,9.468-12.511c3.381-4.28,6.763-8.284,10.144-12.003
	c3.38-3.72,6.308-6.139,8.791-7.27c4.956-2.478,9.69-3.381,14.202-2.705c4.507,0.676,8.226,2.425,11.158,5.241
	c2.927,2.821,4.787,6.424,5.579,10.82c0.787,4.395-0.058,8.96-2.536,13.693c-0.904,2.029-1.86,3.72-2.874,5.072
	c-1.015,1.353-2.029,2.594-3.043,3.719c-1.014,1.131-2.087,2.367-3.212,3.719c-1.13,1.353-2.256,2.932-3.381,4.733
	c-2.932,4.734-6.424,9.526-10.481,14.371c-4.058,4.85-8.342,9.583-12.849,14.201c-4.512,4.623-9.129,9.077-13.863,13.355
	c-4.734,4.285-9.246,8.342-13.524,12.173c5.631,6.085,11.269,12.173,16.906,18.258c5.632,6.086,11.38,12.173,17.244,18.258
	c1.353,1.353,4.28,4.227,8.792,8.623c4.507,4.396,9.298,9.246,14.37,14.539c5.072,5.299,9.69,10.54,13.863,15.723
	c4.168,5.188,6.593,9.245,7.269,12.172c1.125,4.512,0.898,8.738-0.676,12.68c-1.58,3.947-4.004,7.159-7.269,9.636
	c-3.271,2.478-6.99,3.831-11.158,4.058c-4.173,0.222-8.284-1.131-12.341-4.058c-1.807-1.352-3.667-2.984-5.579-4.902
	c-1.917-1.913-3.719-3.889-5.41-5.917c-1.691-2.028-3.329-3.999-4.903-5.917c-1.579-1.913-2.932-3.434-4.057-4.565
	c-10.598-11.496-21.08-22.765-31.445-33.812c-10.371-11.042-20.853-22.2-31.445-33.474c-1.131,0.454-2.367,0.961-3.72,1.521
	c-1.353,0.565-2.594,1.072-3.719,1.521c0,11.496,0.111,22.939,0.338,34.319c0.222,11.385,0.56,22.824,1.015,34.319L123.202,374.598
	L123.202,374.598z"/>
<path fill="none" stroke="#231F20" stroke-width="2" stroke-linecap="square" stroke-miterlimit="10" d="M531.047,397.227
	c-6.613-18.794-29.934-27.148-29.934-27.148s11.139,2.087,12.879-1.395c1.741-3.479-10.789-20.883-29.238-19.141
	c-12.156,1.146-15.998,10.825-17.205,17.295c-16.965-0.42-35.882,9.868-46.375,10.885c-12.064,1.172-27.846-0.864-32.022-6.807
	c-2.447-3.483,2.277-28.523,2.217-51.549c2.005,0.818,4.445,1.399,7.521,1.619c16.243,1.161,26.221-12.762,26.221-12.762
	c-20.883-31.326-32.252-14.39-35.966-11.858c-0.072,0.049-0.154,0.084-0.229,0.13c-0.418-1.545-0.899-3.018-1.45-4.405
	c3.288-0.632,6.52-1.487,7.825-1.783c9.029-2.044,17.746-5.865,24.557-12.252c12.951-12.146,17.51-31.638,20.264-48.436
	c1.6-9.759,3.253-89.101-11.128-87.023c0.434,20.648,2.393,41.286,2.167,61.945c-0.181,16.598-4.432,32.4-10.433,47.811
	c-6.61,16.974-18.848,30.349-37.13,32.936c-0.146-0.176-0.298-0.343-0.447-0.513c1.29-1.446,1.786-3.121,0.843-4.898
	c-4.826-9.09-32.102-9.694-34.233-6.912c-1.61,2.104,1.63,3.81,3.316,4.521c-3.106-0.115-6.364-0.173-9.726-0.169
	c-11.444-12.419-13.051-29.362-9.499-46.294c3.655-17.423,9.489-33.192,19.197-48.098c10.357-15.902,21.873-31.017,32.409-46.801
	c-10.864-9.355-51.855,57.482-55.828,66.612c-6.745,15.503-13.441,34.22-9.569,51.36c2.02,8.938,6.949,16.788,13.165,23.403
	c-14.09,0.484-28.948,1.938-41.082,4.409c-4.906-1.44-10.072-2.01-13.898-2.03c-10.153-0.053-34.476,4.207-32.329,19.39
	c1.715,12.129,14.104,16.532,24.917,18.198c9.65,11.214,29.394,21.182,57.999,22.448c0,0,6.497,13.227,6.032,29.353
	c-0.463,16.129-19.491,49.541-5.105,73.211c0.726,1.194,1.541,2.325,2.404,3.422c1.864,26.248,18.416,80.487,20.339,87.071
	c0,0-3.479,5.22-0.003,7.659c-0.019,0.018-7.312,6.978-12.182,19.145c0,0,4.887,2.375,9.791,3.636
	c-0.158,0.51-0.292,1.002-0.392,1.467c0,0,17.403,3.018,22.276,0c3.615-2.238,3.59-14.233,3.337-20.276
	c1.437-0.276,2.608-0.667,3.274-1.185c3.133-2.436-0.349-3.829,0-13.227c0.226-6.095,4.745-35.314,9.635-62.604
	c11.471,0.788,23.405,0.497,34.802-0.514c1.682-0.149,3.371-0.343,5.062-0.558c4.771,11.394,9.705,23.867,11.762,31.305
	c4.524,16.357,5.916,37.242,4.872,38.981c-1.043,1.739-2.821,4.178,0.329,6.265c0,0,0,0,0.001,0
	c-0.005,0.004-6.595,5.503-8.683,16.709c0,0,6.025,2.808,11.363,3.091c-0.093,0.378-0.172,0.743-0.226,1.084
	c0,0,15.658,2.091,19.489,0c3.222-1.755,5.228-11.211,5.261-16.112c3.66-1.842-0.004-7.574,0.31-11.036
	c0.35-3.827,14.968-73.442,19.145-82.839c2.826-6.357,8.496-18.721,11.139-30.583c28.722,5.794,9.049-24.412,9.049-24.412
	C516.081,405.58,537.661,416.024,531.047,397.227z"/>
<path fill="none" stroke="#231F20" stroke-width="2" stroke-linecap="square" stroke-miterlimit="10" d="M349.705,321.58
	c0,4.18-8.121,17.404-16.01,16.011c-7.892-1.392-11.835-10.21-11.835-10.21C330.909,326.918,349.705,321.58,349.705,321.58"/>
<path fill="none" stroke="#231F20" stroke-width="2" stroke-linecap="square" stroke-miterlimit="10" d="M343.904,308.141
	c0-8.855,20.188-8.855,20.188,0S343.904,316.995,343.904,308.141"/>
<path fill="none" stroke="#231F20" stroke-width="2" stroke-linecap="square" stroke-miterlimit="10" d="M341.395,290.931
	c1.054-7.253,9.32-6.051,8.268,1.201C348.608,299.385,340.343,298.184,341.395,290.931"/>
<path fill="none" stroke="#231F20" stroke-width="2" stroke-linecap="square" stroke-miterlimit="10" d="M327.428,288.727
	c1.057-7.252,9.321-6.052,8.268,1.201C334.646,297.18,326.376,295.979,327.428,288.727"/>
<path fill="none" stroke="#231F20" stroke-width="2" stroke-linecap="square" stroke-miterlimit="10" d="M491.716,453.963
	c4.178-9.398,14.581-31.924,12.209-46.55c-0.001-0.006-0.003-0.012-0.004-0.018c-0.422-21.636-12.725-35.495-28.911-39.586
	c-18.565-4.691-41.771,8.744-53.836,9.914c-12.064,1.172-27.846-0.864-32.022-6.807c-2.447-3.484,2.276-28.525,2.213-51.551
	c2.005,0.819,4.447,1.4,7.525,1.621c16.243,1.161,26.221-12.762,26.221-12.762c-20.883-31.326-32.252-14.39-35.966-11.858
	c-0.074,0.051-0.159,0.087-0.237,0.134c-0.419-1.549-0.908-3.016-1.461-4.406c3.295-0.632,6.536-1.49,7.844-1.786
	c9.029-2.044,17.746-5.865,24.557-12.252c12.951-12.146,17.51-31.638,20.264-48.436c1.6-9.759,3.253-89.101-11.128-87.023
	c0.434,20.648,2.393,41.286,2.167,61.945c-0.181,16.598-4.432,32.4-10.433,47.811c-6.613,16.981-18.859,30.361-37.155,32.939
	c-0.142-0.171-0.276-0.352-0.422-0.517c1.29-1.446,1.786-3.121,0.843-4.898c-4.826-9.09-32.102-9.694-34.233-6.912
	c-1.609,2.103,1.627,3.808,3.313,4.52c-18.628-0.691-42.817,0.735-60.929,4.423c-4.906-1.44-10.072-2.01-13.898-2.03
	c-10.153-0.053-34.476,4.207-32.329,19.39c1.715,12.129,14.104,16.532,24.917,18.198c9.65,11.214,29.394,21.182,57.999,22.448
	c0,0,6.497,13.227,6.032,29.353c-0.463,16.129-19.491,49.541-5.105,73.211c6.078,10,17.138,16.51,30.639,20.461
	c1.382,31.066,2.764,66.295,2.197,71.774c0,0-3.003,6.614-2.197,8.703c0.056,0.146,0.184,0.281,0.362,0.409
	c-3.256,4.839-9.75,15.019-11.043,21.052c0,0,17.403,3.018,22.276,0c3.615-2.238,3.59-14.233,3.337-20.276
	c1.437-0.276,2.608-0.667,3.274-1.185c3.133-2.436-0.349-3.829,0-13.227c0.226-6.095,4.745-35.314,9.635-62.604
	c11.471,0.788,23.405,0.497,34.802-0.514c9.49-0.841,19.194-2.748,28.436-5.575c2.373,8.162,4.45,15.531,5.443,19.613
	c2.812,11.56,1.697,52.213,0.433,61.958c-0.037,0.061-8.787,14.282-9.83,20.881c0,0,15.658,2.091,19.489,0
	c3.222-1.755,5.228-11.211,5.261-16.112c3.66-1.842-0.004-7.574,0.31-11.036C472.921,532.975,487.539,463.359,491.716,453.963z"/>
<path fill="none" stroke="#231F20" stroke-width="2" stroke-linecap="square" stroke-miterlimit="10" d="M342.021,290.491
	c0.723-4.976,6.393-4.152,5.671,0.824C346.971,296.291,341.3,295.465,342.021,290.491"/>
<path fill="none" stroke="#231F20" stroke-width="2" stroke-linecap="square" stroke-miterlimit="10" d="M328.011,287.808
	c0.725-4.975,6.395-4.152,5.672,0.824C332.962,293.607,327.289,292.783,328.011,287.808"/>
<path fill="none" stroke="#231F20" stroke-width="2" stroke-linecap="square" stroke-miterlimit="10" d="M278.235,279.878
	c10.373,0.055,30.601,4.129,28.773,18.719c-1.76,14.081-19.438,20.605-31.557,19.442c-11.567-1.11-27.578-4.858-29.546-18.771
	C243.76,284.085,268.083,279.825,278.235,279.878"/>
<path fill="none" stroke="#231F20" stroke-width="2" stroke-linecap="square" stroke-miterlimit="10" d="M374.525,305.292
	c9.516,3.333,8.123,14.533,24.364,15.694c16.243,1.161,26.221-12.762,26.221-12.762c-20.883-31.326-32.252-14.39-35.966-11.858
	c-3.714,2.535-11.371,0-11.371,0"/>
<path fill="none" stroke="#231F20" stroke-width="2" stroke-linecap="square" stroke-miterlimit="10" d="M385.446,304.994
	c3.029,1.046,3.859,7.708,14.701,9.429c10.841,1.721,14.565-7.122,14.565-7.122c-2.087-3.655-9.088-11.86-15.365-9.884
	C392.438,299.594,385.446,304.994,385.446,304.994"/>
<path fill="none" stroke="#231F20" stroke-width="2" stroke-linecap="square" stroke-miterlimit="10" d="M428.982,142.597
	c0.434,20.648,2.393,41.286,2.167,61.945c-0.181,16.598-4.432,32.4-10.433,47.811c-6.743,17.314-19.341,30.885-38.236,33.079
	c1.759-1.585,2.592-3.501,1.502-5.555c-4.826-9.09-32.102-9.694-34.233-6.912c-2.133,2.787,4.25,4.878,4.25,4.878
	s-5.105,3.627,0,6.859s14.852,0,14.852,0s-4.874,2.882-0.348,4.624c1.753,0.674,4.969,0.336,8.058-0.688
	c0.196,1.193,1.105,2.507,2.176,3.541c2.065,1.995,13.75-1.236,16.554-1.871c9.029-2.044,17.746-5.865,24.557-12.252
	c12.951-12.146,17.51-31.638,20.264-48.436C441.71,219.861,443.363,140.52,428.982,142.597z"/>
<path fill="none" stroke="#231F20" stroke-width="2" stroke-linecap="square" stroke-miterlimit="10" d="M383.982,279.877
	c3.298,6.215-10.957,11.188-15.479,9.45c-4.526-1.741,0.348-4.624,0.348-4.624s-9.746,3.232-14.852,0s0-6.859,0-6.859
	s-6.383-2.092-4.25-4.878C351.881,270.183,379.156,270.787,383.982,279.877"/>
<path fill="none" stroke="#231F20" stroke-width="2" stroke-linecap="square" stroke-miterlimit="10" d="M457.344,543.066h-12.287
	c0,0-6.594,5.499-8.683,16.709c0,0,6.025,2.808,11.363,3.091C449.443,555.901,457.344,543.066,457.344,543.066z"/>
<path fill="none" stroke="#231F20" stroke-width="2" stroke-linecap="square" stroke-miterlimit="10" d="M457.344,543.066
	c0,0,13.836-0.697,14.721,2.56c0.881,3.255-1.232,16.237-5.063,18.324c-3.831,2.091-19.489,0-19.489,0
	C448.557,557.338,457.344,543.066,457.344,543.066"/>
<path fill="none" stroke="#231F20" stroke-width="2" stroke-linecap="square" stroke-miterlimit="10" d="M375.115,541.112h-11.331
	h-2.45l-8.844-0.483c0,0-7.309,6.964-12.184,19.146c0,0,4.887,2.375,9.791,3.636c-0.158,0.51-0.292,1.002-0.392,1.467
	c0,0,17.403,3.018,22.276,0C376.854,561.861,375.115,541.112,375.115,541.112z"/>
<path fill="none" stroke="#231F20" stroke-width="2" stroke-linecap="square" stroke-miterlimit="10" d="M375.115,541.112
	c0,0,1.739,20.749-3.133,23.766c-4.873,3.018-22.276,0-22.276,0c1.74-8.121,12.911-23.766,12.911-23.766H375.115z"/>
</svg>
