<?xml version="1.0" encoding="utf-8"?>
<!-- Generator: Adobe Illustrator 16.0.0, SVG Export Plug-In . SVG Version: 6.00 Build 0)  -->
<!DOCTYPE svg PUBLIC "-//W3C//DTD SVG 1.1//EN" "http://www.w3.org/Graphics/SVG/1.1/DTD/svg11.dtd">
<svg version="1.1" id="Layer_1" xmlns="http://www.w3.org/2000/svg" xmlns:xlink="http://www.w3.org/1999/xlink" x="0px" y="0px"
	 width="612px" height="612px" viewBox="0 90 612 612" enable-background="new 0 90 612 612" xml:space="preserve">
<path fill="none" stroke="#000000" stroke-width="2" d="M79.998,587.324c0.971,0.466,1.71,1.058,2.217,1.774
	c0.507,0.719,0.75,1.447,0.729,2.186c-0.022,0.739-0.296,1.437-0.824,2.091c-0.529,0.654-1.341,1.15-2.439,1.489
	c-0.423,0.126-1.014,0.2-1.773,0.221c-0.761,0.021-1.816,0.032-3.168,0.032s-3.063,0-5.131,0c-2.07,0-4.625,0.021-7.666,0.063
	c-0.76,0.042-1.542,0.063-2.345,0.063c-0.803,0-1.5-0.274-2.09-0.823c-0.507-0.423-0.877-1.066-1.109-1.933
	c-0.233-0.865-0.38-1.773-0.444-2.724c-0.063-0.951-0.085-1.9-0.063-2.852c0.021-0.95,0.032-1.742,0.032-2.376
	c0-1.267,0.01-2.724,0.032-4.371c0.021-1.647,0.042-3.327,0.063-5.037c0.021-1.71,0.032-3.389,0.032-5.036s0-3.104,0-4.372
	c0-2.237,0.021-4.043,0.064-5.417c0.042-1.372,0.136-2.449,0.285-3.23c0.147-0.781,0.39-1.352,0.728-1.711
	c0.338-0.358,0.802-0.665,1.394-0.919c0.507-0.211,1.066-0.285,1.68-0.221c0.612,0.063,1.182,0.232,1.71,0.506
	c0.527,0.275,0.971,0.655,1.331,1.141c0.358,0.486,0.539,1.024,0.539,1.615c0.084,5.069,0.084,10.096,0,15.079
	c-0.085,4.984-0.127,9.969-0.127,14.952c2.661,0,5.311-0.032,7.951-0.095c2.639-0.063,5.311-0.137,8.015-0.222L79.998,587.324z"/>
<path fill="none" stroke="#000000" stroke-width="2" d="M85.826,578.328c0.295-1.225,0.707-2.429,1.236-3.61
	c0.527-1.183,1.172-2.312,1.932-3.39c0.76-1.078,1.616-2.06,2.566-2.946c0.95-0.887,1.974-1.604,3.073-2.154
	c1.942-1.014,3.896-1.53,5.86-1.552c1.964-0.021,3.79,0.369,5.48,1.172c1.688,0.803,3.125,1.996,4.309,3.58
	c1.182,1.584,1.964,3.475,2.344,5.67c0.211,1.437,0.327,2.799,0.348,4.087c0.021,1.289-0.116,2.63-0.412,4.023
	c-0.422,1.985-1.278,3.959-2.565,5.924c-1.289,1.964-2.831,3.61-4.625,4.941c-1.796,1.33-3.76,2.206-5.892,2.629
	c-2.133,0.422-4.277,0.085-6.431-1.014c-0.972-0.465-1.848-1.003-2.629-1.615c-0.782-0.612-1.489-1.341-2.123-2.186
	c-0.718-0.929-1.278-1.9-1.679-2.914c-0.402-1.015-0.729-2.069-0.982-3.169c-0.296-1.182-0.402-2.376-0.317-3.579
	c0.084-1.204,0.231-2.377,0.444-3.517L85.826,578.328z"/>
<path fill="none" stroke="#000000" stroke-width="2" d="M93.429,579.659c-0.127,0.676-0.233,1.341-0.317,1.996
	c-0.085,0.654-0.085,1.32,0,1.995c0.127,0.973,0.39,1.859,0.792,2.661c0.401,0.804,0.929,1.438,1.584,1.9
	c0.654,0.466,1.403,0.708,2.249,0.729c0.845,0.022,1.752-0.242,2.725-0.792c1.224-0.717,2.281-1.826,3.168-3.326
	c0.887-1.499,1.436-3.062,1.647-4.688c0.21-1.626,0.042-3.169-0.507-4.626c-0.55-1.457-1.627-2.503-3.231-3.136
	c-1.056,0-2.027,0.2-2.914,0.602c-0.887,0.401-1.658,0.93-2.312,1.584c-0.655,0.654-1.225,1.425-1.71,2.312
	C94.115,577.758,93.724,578.688,93.429,579.659z"/>
<path fill="none" stroke="#000000" stroke-width="2" d="M137.145,564.517c0.844-0.548,1.699-0.833,2.565-0.854
	c0.865-0.021,1.625,0.158,2.281,0.538c0.654,0.38,1.119,0.95,1.394,1.711c0.274,0.76,0.243,1.669-0.095,2.724
	c-0.338,0.846-0.909,1.627-1.71,2.345c-0.803,0.719-1.5,1.372-2.091,1.964c-0.93,0.972-1.837,1.922-2.725,2.851
	c-0.887,0.93-1.773,1.88-2.661,2.851c1.308,1.521,2.576,3.073,3.801,4.657c1.225,1.583,2.386,3.222,3.484,4.909
	c0.421,0.633,0.844,1.268,1.267,1.9c0.422,0.634,0.675,1.331,0.76,2.091c0.127,0.93-0.063,1.742-0.57,2.439
	c-0.507,0.696-1.14,1.203-1.901,1.52c-0.76,0.317-1.552,0.391-2.376,0.222s-1.51-0.654-2.059-1.457
	c-1.226-1.773-2.439-3.526-3.643-5.259c-1.204-1.73-2.482-3.421-3.833-5.068c-0.972,1.184-1.901,2.387-2.788,3.611
	c-0.887,1.226-1.753,2.471-2.598,3.737c-0.296,0.466-0.57,0.93-0.824,1.394s-0.57,0.866-0.95,1.204
	c-0.76,0.76-1.616,1.204-2.565,1.331c-0.951,0.126-1.796,0-2.535-0.381c-0.739-0.38-1.278-0.96-1.616-1.742
	c-0.338-0.78-0.317-1.679,0.064-2.692c0.38-0.971,0.928-2.016,1.647-3.136c0.718-1.118,1.489-2.228,2.312-3.326
	s1.657-2.164,2.502-3.2c0.845-1.034,1.584-1.933,2.218-2.692c-0.549-0.591-1.004-1.077-1.362-1.457
	c-0.359-0.38-0.675-0.718-0.95-1.014c-0.275-0.295-0.561-0.602-0.855-0.919c-0.296-0.316-0.697-0.729-1.204-1.235
	c-0.38-0.38-0.803-0.771-1.268-1.172c-0.465-0.401-0.909-0.834-1.331-1.299c-0.423-0.465-0.814-0.951-1.172-1.458
	c-0.359-0.507-0.624-1.033-0.792-1.584c-0.212-0.76-0.19-1.466,0.063-2.122c0.253-0.654,0.644-1.204,1.172-1.646
	c0.527-0.444,1.15-0.729,1.869-0.855c0.718-0.127,1.415-0.021,2.091,0.317c0.38,0.212,0.686,0.401,0.918,0.57
	c0.231,0.169,0.497,0.401,0.792,0.697c0.253,0.295,0.666,0.707,1.236,1.235s1.193,1.119,1.869,1.773
	c0.675,0.655,1.372,1.353,2.09,2.091c0.718,0.74,1.372,1.447,1.964,2.123c1.225-1.394,2.492-2.745,3.801-4.056
	c1.309-1.308,2.639-2.618,3.991-3.928L137.145,564.517z"/>
<path fill="none" stroke="#000000" stroke-width="2" d="M145.254,578.328c0.295-1.225,0.707-2.429,1.236-3.61
	c0.527-1.183,1.172-2.312,1.932-3.39c0.76-1.078,1.615-2.06,2.566-2.946c0.95-0.887,1.974-1.604,3.073-2.154
	c1.942-1.014,3.896-1.53,5.86-1.552c1.964-0.021,3.791,0.369,5.48,1.172c1.688,0.803,3.125,1.996,4.309,3.58
	c1.182,1.584,1.964,3.475,2.344,5.67c0.211,1.437,0.327,2.799,0.348,4.087c0.021,1.289-0.116,2.63-0.412,4.023
	c-0.422,1.985-1.278,3.959-2.565,5.924c-1.289,1.964-2.831,3.61-4.625,4.941c-1.796,1.33-3.76,2.206-5.892,2.629
	c-2.133,0.422-4.277,0.085-6.43-1.014c-0.972-0.465-1.849-1.003-2.629-1.615c-0.782-0.612-1.489-1.341-2.123-2.186
	c-0.718-0.929-1.278-1.9-1.679-2.914c-0.402-1.015-0.729-2.069-0.982-3.169c-0.296-1.182-0.402-2.376-0.317-3.579
	c0.084-1.204,0.231-2.377,0.444-3.517L145.254,578.328z"/>
<path fill="none" stroke="#000000" stroke-width="2" d="M152.857,579.659c-0.127,0.676-0.233,1.341-0.317,1.996
	c-0.085,0.654-0.085,1.32,0,1.995c0.127,0.973,0.39,1.859,0.792,2.661c0.401,0.804,0.929,1.438,1.584,1.9
	c0.654,0.466,1.403,0.708,2.249,0.729c0.845,0.022,1.752-0.242,2.725-0.792c1.224-0.717,2.281-1.826,3.168-3.326
	c0.887-1.499,1.436-3.062,1.647-4.688c0.21-1.626,0.042-3.169-0.507-4.626c-0.55-1.457-1.626-2.503-3.231-3.136
	c-1.056,0-2.027,0.2-2.914,0.602c-0.887,0.401-1.658,0.93-2.312,1.584c-0.655,0.654-1.225,1.425-1.71,2.312
	C153.543,577.758,153.152,578.688,152.857,579.659z"/>
<path fill="none" stroke="#000000" stroke-width="2" d="M205.948,588.401c0.717,1.227,0.96,2.324,0.729,3.296
	c-0.233,0.972-0.708,1.699-1.426,2.185c-0.718,0.485-1.595,0.676-2.629,0.57c-1.036-0.105-2.039-0.644-3.009-1.615
	c-1.013,0.718-2.07,1.277-3.167,1.679c-1.099,0.4-2.26,0.75-3.485,1.045c-1.901,0.422-3.729,0.391-5.48-0.095
	c-1.753-0.485-3.306-1.277-4.657-2.376c-1.353-1.098-2.45-2.46-3.294-4.086c-0.845-1.625-1.31-3.39-1.394-5.291
	c-0.126-2.111,0.032-4.139,0.475-6.082c0.443-1.942,1.15-3.716,2.122-5.321c0.972-1.604,2.25-2.978,3.833-4.118
	c1.584-1.14,3.453-1.942,5.607-2.407c1.268-0.254,2.544-0.38,3.833-0.38c1.288,0,2.566,0.105,3.833,0.316
	c-0.042-0.929-0.075-1.995-0.095-3.199c-0.022-1.204-0.032-2.376-0.032-3.517c0-1.14,0.042-2.164,0.127-3.073
	c0.084-0.907,0.19-1.552,0.317-1.932c0.295-0.76,0.75-1.34,1.362-1.743c0.612-0.4,1.256-0.611,1.933-0.633
	c0.675-0.021,1.34,0.148,1.996,0.506c0.654,0.36,1.172,0.898,1.553,1.617c0.084,0.211,0.19,0.411,0.317,0.602
	c0.127,0.189,0.19,0.391,0.19,0.602c0.042,5.533,0.052,11.003,0.032,16.408c-0.022,5.407-0.032,10.876-0.032,16.409
	C205.672,588.021,205.821,588.233,205.948,588.401z"/>
<path fill="none" stroke="#000000" stroke-width="2" d="M197.141,584.917c0.084-0.127,0.242-0.253,0.475-0.38
	c0.231-0.127,0.348-0.295,0.348-0.507c0-1.773,0-3.516,0-5.228c0-1.71-0.022-3.452-0.064-5.226
	c-1.013-0.212-2.069-0.338-3.167-0.381c-1.099-0.041-2.165,0.064-3.2,0.317c-1.035,0.253-1.986,0.676-2.851,1.267
	c-0.867,0.592-1.552,1.437-2.06,2.534c-0.253,0.804-0.486,1.606-0.697,2.408c-0.212,0.803-0.328,1.584-0.349,2.345
	c-0.022,0.76,0.074,1.51,0.286,2.249c0.211,0.739,0.57,1.447,1.077,2.122c0.168,0.169,0.369,0.339,0.602,0.507
	c0.231,0.17,0.686,0.466,1.362,0.887c1.562,0.127,3.051-0.021,4.466-0.443C194.786,586.967,196.042,586.143,197.141,584.917z"/>
<path fill="none" stroke="#000000" stroke-width="2" d="M211.713,578.328c0.295-1.225,0.707-2.429,1.235-3.61
	c0.528-1.183,1.172-2.312,1.932-3.39c0.76-1.078,1.616-2.06,2.566-2.946c0.95-0.887,1.974-1.604,3.073-2.154
	c1.942-1.014,3.896-1.53,5.86-1.552c1.964-0.021,3.79,0.369,5.48,1.172c1.688,0.803,3.125,1.996,4.309,3.58
	c1.182,1.584,1.964,3.475,2.344,5.67c0.211,1.437,0.327,2.799,0.349,4.087c0.021,1.289-0.117,2.63-0.412,4.023
	c-0.422,1.985-1.278,3.959-2.565,5.924c-1.289,1.964-2.831,3.61-4.625,4.941c-1.796,1.33-3.76,2.206-5.892,2.629
	c-2.133,0.422-4.277,0.085-6.43-1.014c-0.972-0.465-1.849-1.003-2.629-1.615c-0.782-0.612-1.489-1.341-2.123-2.186
	c-0.718-0.929-1.278-1.9-1.679-2.914c-0.402-1.015-0.729-2.069-0.982-3.169c-0.296-1.182-0.402-2.376-0.317-3.579
	c0.084-1.204,0.231-2.377,0.444-3.517L211.713,578.328z"/>
<path fill="none" stroke="#000000" stroke-width="2" d="M219.315,579.659c-0.126,0.676-0.232,1.341-0.317,1.996
	c-0.085,0.654-0.085,1.32,0,1.995c0.127,0.973,0.39,1.859,0.792,2.661c0.401,0.804,0.929,1.438,1.584,1.9
	c0.654,0.466,1.403,0.708,2.249,0.729c0.845,0.022,1.752-0.242,2.725-0.792c1.224-0.717,2.281-1.826,3.167-3.326
	c0.888-1.499,1.436-3.062,1.647-4.688c0.211-1.626,0.042-3.169-0.506-4.626c-0.55-1.457-1.627-2.503-3.231-3.136
	c-1.057,0-2.028,0.2-2.915,0.602s-1.658,0.93-2.312,1.584c-0.655,0.654-1.225,1.425-1.71,2.312
	C220.001,577.758,219.61,578.688,219.315,579.659z"/>
<path fill="none" stroke="#000000" stroke-width="2" d="M268.731,591.823c-0.126,1.057-0.518,1.922-1.172,2.598
	c-0.655,0.676-1.394,1.098-2.218,1.267c-0.824,0.169-1.616,0.063-2.376-0.316c-0.76-0.381-1.31-1.12-1.646-2.218
	c-0.38-1.183-0.529-2.417-0.444-3.706c0.084-1.288,0.127-2.481,0.127-3.58c0-2.281,0.01-4.551,0.032-6.812
	c0.021-2.258-0.075-4.529-0.285-6.81c-0.042-0.085-0.085-0.159-0.127-0.222c-0.042-0.064-0.126-0.159-0.253-0.285
	c-0.972-0.254-2.006-0.19-3.104,0.19c-1.099,0.38-2.027,0.865-2.788,1.457c-0.676,0.549-1.341,1.298-1.996,2.249
	c-0.656,0.95-0.982,1.869-0.982,2.756v8.743c0,0.676,0.021,1.415,0.063,2.218c0.042,0.803,0.011,1.584-0.095,2.344
	c-0.106,0.76-0.348,1.457-0.728,2.091c-0.38,0.633-0.993,1.098-1.837,1.394c-0.465,0.168-0.898,0.231-1.299,0.19
	c-0.402-0.043-0.834-0.148-1.299-0.317c-0.76-0.254-1.31-0.687-1.646-1.299c-0.339-0.612-0.571-1.267-0.697-1.964
	s-0.18-1.372-0.159-2.027c0.021-0.654,0.032-1.172,0.032-1.553c0-0.97-0.011-2.375-0.032-4.213
	c-0.022-1.837-0.032-3.769-0.032-5.797c0-2.027,0-3.96,0-5.797c0-1.838,0-3.241,0-4.214c0-0.929,0.274-1.699,0.824-2.312
	c0.548-0.611,1.193-1.013,1.932-1.203c0.739-0.19,1.521-0.147,2.345,0.126c0.824,0.275,1.51,0.835,2.059,1.679
	c1.689-1.098,3.548-1.837,5.575-2.217s3.938-0.317,5.734,0.19c1.795,0.507,3.294,1.457,4.499,2.851
	c1.204,1.394,1.826,3.316,1.869,5.766c0,0.085,0.021,0.339,0.064,0.76c0.042,0.423,0.063,1.014,0.063,1.774v16.22H268.731z"/>
<path fill="none" stroke="#000000" stroke-width="2" d="M276.588,572.373c-0.845-0.211-1.574-0.57-2.186-1.077
	c-0.613-0.508-1.036-1.098-1.267-1.774c-0.232-0.675-0.232-1.371,0-2.091c0.231-0.718,0.75-1.372,1.552-1.964
	c0.676-0.507,1.436-0.76,2.281-0.76c0.845,0,1.668,0,2.471,0c0-0.295-0.022-0.939-0.063-1.933c-0.042-0.991-0.053-2.079-0.032-3.263
	c0.021-1.182,0.095-2.312,0.221-3.39c0.127-1.077,0.359-1.826,0.697-2.249c0.844-1.182,1.889-1.742,3.136-1.679
	c1.246,0.063,2.27,0.665,3.073,1.806c0.168,0.212,0.327,0.465,0.475,0.76c0.147,0.296,0.222,0.57,0.222,0.824
	c0.042,1.521,0.053,3.041,0.032,4.562c-0.022,1.52-0.032,3.041-0.032,4.562h5.005c0.76,0,1.415,0.253,1.964,0.76
	c0.548,0.507,0.939,1.099,1.172,1.773c0.231,0.676,0.295,1.373,0.19,2.091c-0.106,0.72-0.433,1.311-0.981,1.774
	c-0.972,0.803-2.102,1.226-3.39,1.267c-1.289,0.042-2.608,0.063-3.959,0.063c0,2.323-0.011,4.647-0.032,6.969
	c-0.022,2.324-0.011,4.647,0.032,6.97c0,1.014,0.053,2.05,0.158,3.104c0.105,1.057,0.032,2.07-0.221,3.041
	c-0.212,0.761-0.57,1.362-1.077,1.806s-1.077,0.718-1.71,0.824c-0.634,0.104-1.289,0.063-1.964-0.127
	c-0.677-0.19-1.31-0.538-1.9-1.045c-0.296-0.296-0.518-0.803-0.666-1.521c-0.148-0.718-0.244-1.479-0.285-2.281
	c-0.042-0.929-0.042-1.922,0-2.978c0-0.845,0-1.942,0-3.295c0-1.351-0.011-2.756-0.032-4.213c-0.022-1.458-0.032-2.841-0.032-4.149
	c0-1.31,0-2.345,0-3.104L276.588,572.373z"/>
<path fill="none" stroke="#000000" stroke-width="2" d="M322.332,590.683c0.337,1.226,0.273,2.239-0.19,3.041
	c-0.466,0.803-1.109,1.341-1.933,1.616c-0.824,0.273-1.721,0.242-2.692-0.096s-1.816-1.013-2.534-2.026
	c-1.184,0.887-2.334,1.51-3.453,1.869c-1.12,0.358-2.397,0.56-3.833,0.602c-2.155,0.084-4.077-0.159-5.766-0.729
	c-1.69-0.57-3.115-1.426-4.277-2.565c-1.162-1.141-2.017-2.565-2.565-4.276c-0.549-1.711-0.739-3.686-0.57-5.924
	c0.084-0.929,0.242-1.837,0.475-2.725c0.231-0.887,0.496-1.752,0.792-2.598c0.337-0.929,0.812-1.922,1.425-2.978
	c0.612-1.056,1.235-1.964,1.869-2.724c2.281-2.788,5.131-4.794,8.553-6.02c0.592-0.211,1.394-0.4,2.408-0.57
	c1.014-0.168,2.037-0.242,3.072-0.221c1.034,0.021,2.027,0.158,2.978,0.411c0.95,0.254,1.657,0.697,2.123,1.331
	c0.38,0.507,0.653,0.95,0.823,1.33c0.168,0.38,0.264,0.782,0.285,1.204c0.021,0.423,0.021,0.877,0,1.362
	c-0.021,0.486-0.031,1.088-0.031,1.806c0,1.184-0.012,2.334-0.032,3.453c-0.021,1.119-0.011,2.249,0.032,3.39
	c0,0.38,0,0.877,0,1.489s0.021,1.257,0.063,1.932c0.041,0.676,0.095,1.32,0.158,1.933s0.158,1.108,0.285,1.489L322.332,590.683z"/>
<path fill="none" stroke="#000000" stroke-width="2" d="M308.899,587.831c0.465-0.294,0.992-0.622,1.584-0.981
	c0.591-0.357,1.119-0.77,1.584-1.235c-0.38-2.238-0.602-4.477-0.665-6.716c-0.063-2.238-0.054-4.499,0.031-6.779
	c-1.9,0.339-3.61,1.162-5.131,2.471c-1.521,1.31-2.577,2.851-3.168,4.625c-0.253,0.72-0.465,1.458-0.634,2.218
	c-0.169,0.761-0.232,1.5-0.19,2.218c0.042,0.972,0.295,1.784,0.76,2.438c0.465,0.655,1.024,1.152,1.68,1.489
	c0.654,0.339,1.351,0.528,2.091,0.57C307.579,588.191,308.267,588.085,308.899,587.831z"/>
<path fill="none" stroke="#000000" stroke-width="2" d="M378.083,590.683c0.337,1.226,0.273,2.239-0.19,3.041
	c-0.466,0.803-1.109,1.341-1.933,1.616c-0.823,0.273-1.721,0.242-2.692-0.096s-1.816-1.013-2.534-2.026
	c-1.184,0.887-2.334,1.51-3.453,1.869c-1.119,0.358-2.397,0.56-3.833,0.602c-2.154,0.084-4.076-0.159-5.766-0.729
	c-1.689-0.57-3.115-1.426-4.276-2.565c-1.162-1.141-2.018-2.565-2.565-4.276c-0.55-1.711-0.739-3.686-0.571-5.924
	c0.085-0.929,0.243-1.837,0.476-2.725c0.231-0.887,0.496-1.752,0.792-2.598c0.338-0.929,0.812-1.922,1.426-2.978
	c0.611-1.056,1.235-1.964,1.869-2.724c2.28-2.788,5.132-4.794,8.553-6.02c0.592-0.211,1.394-0.4,2.408-0.57
	c1.014-0.168,2.037-0.242,3.072-0.221c1.035,0.021,2.028,0.158,2.979,0.411c0.95,0.254,1.656,0.697,2.122,1.331
	c0.38,0.507,0.654,0.95,0.824,1.33c0.168,0.38,0.264,0.782,0.285,1.204c0.021,0.423,0.021,0.877,0,1.362
	c-0.021,0.486-0.032,1.088-0.032,1.806c0,1.184-0.011,2.334-0.031,3.453c-0.021,1.119-0.012,2.249,0.031,3.39
	c0,0.38,0,0.877,0,1.489s0.021,1.257,0.063,1.932c0.042,0.676,0.096,1.32,0.159,1.933s0.158,1.108,0.285,1.489L378.083,590.683z"/>
<path fill="none" stroke="#000000" stroke-width="2" d="M364.651,587.831c0.465-0.294,0.992-0.622,1.584-0.981
	c0.592-0.357,1.119-0.77,1.584-1.235c-0.38-2.238-0.602-4.477-0.665-6.716c-0.063-2.238-0.054-4.499,0.031-6.779
	c-1.899,0.339-3.61,1.162-5.131,2.471c-1.521,1.31-2.577,2.851-3.169,4.625c-0.253,0.72-0.465,1.458-0.633,2.218
	c-0.169,0.761-0.233,1.5-0.19,2.218c0.041,0.972,0.295,1.784,0.76,2.438c0.465,0.655,1.024,1.152,1.679,1.489
	c0.654,0.339,1.352,0.528,2.091,0.57C363.331,588.191,364.019,588.085,364.651,587.831z"/>
<path fill="none" stroke="#000000" stroke-width="2" d="M392.021,594.23c-0.55,0.676-1.184,1.141-1.9,1.394
	c-0.719,0.253-1.458,0.253-2.218,0s-1.394-0.824-1.9-1.711c-0.212-0.338-0.38-0.696-0.507-1.077c-0.127-0.38-0.19-0.76-0.19-1.14
	v-16.663c-0.803,0-1.531-0.222-2.186-0.665c-0.655-0.443-1.141-0.992-1.457-1.647c-0.317-0.653-0.434-1.351-0.349-2.091
	c0.085-0.738,0.422-1.425,1.015-2.059c0.421-0.465,0.875-0.77,1.362-0.919c0.484-0.147,1.003-0.242,1.552-0.285
	c-0.042-1.309-0.074-2.597-0.095-3.864c-0.022-1.267,0.072-2.534,0.285-3.802c0.253-1.984,0.845-3.674,1.773-5.067
	s2.079-2.472,3.453-3.231c1.372-0.761,2.903-1.204,4.594-1.331c1.688-0.126,3.441,0.127,5.259,0.761
	c0.76,0.253,1.488,0.57,2.186,0.95c0.696,0.38,1.319,0.866,1.869,1.458c0.38,0.422,0.653,0.918,0.823,1.488
	c0.168,0.57,0.2,1.141,0.095,1.711s-0.316,1.099-0.633,1.584c-0.317,0.486-0.771,0.854-1.362,1.108
	c-0.804,0.34-1.596,0.423-2.376,0.254c-0.782-0.168-1.553-0.443-2.312-0.824c-0.466-0.167-0.909-0.338-1.331-0.507
	c-0.422-0.168-0.866-0.295-1.33-0.38c-0.466-0.084-0.887-0.021-1.268,0.19c-0.38,0.213-0.707,0.497-0.981,0.855
	c-0.275,0.359-0.485,0.76-0.633,1.203c-0.149,0.444-0.222,0.878-0.222,1.299c-0.043,0.973-0.054,1.954-0.032,2.946
	c0.021,0.993,0.032,1.975,0.032,2.945c0.633-0.041,1.309-0.084,2.026-0.126s1.426-0.064,2.123-0.064s1.34,0.021,1.932,0.064
	c0.592,0.042,1.056,0.126,1.395,0.253c0.675,0.254,1.224,0.645,1.646,1.172c0.421,0.529,0.697,1.1,0.824,1.711
	c0.126,0.613,0.072,1.236-0.159,1.869c-0.232,0.634-0.645,1.184-1.235,1.647c-0.55,0.422-1.184,0.718-1.9,0.887
	c-0.719,0.169-1.479,0.285-2.281,0.348c-0.803,0.063-1.584,0.085-2.344,0.063c-0.761-0.021-1.437-0.031-2.027-0.031v16.916
	C392.908,592.753,392.569,593.555,392.021,594.23z"/>
<path fill="none" stroke="#000000" stroke-width="2" d="M408.43,573.926c0.041-0.274,0.021-0.771-0.063-1.489
	c-0.677-0.38-1.204-0.865-1.585-1.457c-0.38-0.591-0.602-1.225-0.665-1.901c-0.063-0.675,0.063-1.319,0.38-1.932
	c0.317-0.612,0.834-1.13,1.553-1.552c0.971-0.549,2.037-0.654,3.2-0.317c1.161,0.339,2.164,0.846,3.009,1.521
	c1.056-0.803,2.154-1.479,3.295-2.027c1.141-0.548,2.302-0.919,3.484-1.108c1.183-0.19,2.386-0.159,3.61,0.095
	c1.225,0.253,2.429,0.781,3.611,1.584c0.592,0.38,1.141,0.854,1.647,1.425s0.823,1.215,0.95,1.933
	c0.211,1.057,0.127,1.976-0.253,2.756c-0.381,0.781-0.909,1.353-1.584,1.711c-0.676,0.359-1.438,0.465-2.281,0.316
	c-0.846-0.147-1.647-0.602-2.408-1.362c-0.253-0.168-0.434-0.306-0.538-0.411c-0.106-0.105-0.328-0.243-0.666-0.412
	c-0.675-0.168-1.341-0.127-1.995,0.127c-0.655,0.253-1.289,0.602-1.9,1.045c-0.613,0.443-1.184,0.93-1.711,1.457
	c-0.528,0.528-1.004,1.004-1.426,1.426v16.155c0,0.634-0.127,1.246-0.38,1.837c-0.38,0.972-0.981,1.647-1.806,2.027
	c-0.823,0.38-1.646,0.485-2.471,0.317c-0.823-0.169-1.543-0.592-2.154-1.268c-0.613-0.676-0.918-1.541-0.918-2.597v-17.74
	C408.367,574.253,408.387,574.2,408.43,573.926z"/>
<path fill="none" stroke="#000000" stroke-width="2" d="M434.72,555.646c0.169-1.562,0.707-2.713,1.616-3.453
	c0.907-0.738,1.869-1.098,2.883-1.077c1.014,0.022,1.953,0.412,2.819,1.172c0.865,0.761,1.319,1.838,1.362,3.231
	c0.084,1.437-0.285,2.545-1.109,3.326c-0.823,0.782-1.764,1.226-2.818,1.331c-1.057,0.106-2.05-0.179-2.978-0.855
	c-0.931-0.675-1.5-1.752-1.711-3.23L434.72,555.646z"/>
<path fill="none" stroke="#000000" stroke-width="2" d="M443.083,591.697c-0.085,0.845-0.38,1.594-0.887,2.249
	c-0.507,0.654-1.088,1.129-1.742,1.425c-0.655,0.295-1.362,0.358-2.122,0.19c-0.761-0.169-1.438-0.634-2.027-1.394
	c-0.339-0.422-0.581-0.897-0.729-1.426c-0.148-0.527-0.243-1.076-0.285-1.646c-0.043-0.57-0.054-1.14-0.032-1.711
	c0.021-0.57,0.032-1.086,0.032-1.552c-0.043-2.492-0.054-4.963-0.032-7.412c0.021-2.449,0.011-4.921-0.032-7.413
	c0-1.013-0.063-2.037-0.19-3.072c-0.126-1.034-0.063-2.059,0.19-3.073c0.211-0.76,0.58-1.415,1.109-1.964
	c0.526-0.548,1.118-0.929,1.773-1.14c0.654-0.212,1.33-0.232,2.027-0.064c0.696,0.169,1.298,0.613,1.805,1.331
	c0.676,0.845,1.014,1.679,1.014,2.502c0,0.824,0,1.828,0,3.01c0,1.437,0,2.872,0,4.309c0,1.436,0.021,2.851,0.063,4.244
	c0.042,2.028,0.064,4.056,0.064,6.082c0,2.027,0,4.056,0,6.082V591.697L443.083,591.697z"/>
<path fill="none" stroke="#000000" stroke-width="2" d="M465.955,585.551c1.056-0.676,2.059-0.971,3.01-0.887
	c0.95,0.085,1.731,0.412,2.344,0.981c0.611,0.571,0.95,1.331,1.014,2.281c0.062,0.95-0.265,1.954-0.981,3.01
	c-0.466,0.719-1.132,1.373-1.996,1.964c-0.866,0.592-1.701,1.056-2.503,1.394c-1.858,0.845-3.737,1.225-5.639,1.141
	c-1.9-0.085-3.664-0.549-5.291-1.394c-1.626-0.845-3.031-2.017-4.213-3.517c-1.184-1.498-1.985-3.241-2.408-5.227
	c-0.845-3.802-0.676-7.454,0.507-10.96c0.465-1.268,1.024-2.492,1.68-3.676c0.653-1.182,1.446-2.258,2.376-3.23
	c0.929-0.972,1.964-1.826,3.104-2.565c1.141-0.739,2.386-1.235,3.738-1.489c0.929-0.168,2.111-0.158,3.548,0.032
	c1.436,0.19,2.84,0.56,4.214,1.108c1.371,0.549,2.575,1.268,3.61,2.154c1.034,0.887,1.616,1.943,1.742,3.168
	c0.085,0.676,0,1.299-0.253,1.87c-0.254,0.57-0.612,1.045-1.077,1.425c-0.466,0.38-1.005,0.645-1.616,0.792
	c-0.613,0.148-1.235,0.138-1.869-0.032c-0.76-0.211-1.362-0.496-1.806-0.854s-1.024-0.834-1.742-1.426
	c-0.339-0.084-0.655-0.221-0.95-0.411c-0.296-0.19-0.613-0.264-0.951-0.222l-1.71,0.19c-0.296,0.169-0.57,0.316-0.824,0.443
	c-0.253,0.127-0.507,0.253-0.76,0.38c-1.437,1.437-2.492,3.031-3.168,4.783c-0.676,1.753-0.846,3.643-0.507,5.671
	c0.211,1.31,0.623,2.386,1.235,3.23c0.612,0.846,1.33,1.425,2.155,1.742c0.823,0.317,1.73,0.349,2.724,0.095
	c0.992-0.253,1.975-0.823,2.945-1.71L465.955,585.551z"/>
<path fill="none" stroke="#000000" stroke-width="2" d="M503.715,590.683c0.338,1.226,0.273,2.239-0.19,3.041
	c-0.466,0.803-1.109,1.341-1.933,1.616c-0.823,0.273-1.721,0.242-2.691-0.096c-0.973-0.338-1.817-1.013-2.535-2.026
	c-1.184,0.887-2.334,1.51-3.453,1.869c-1.119,0.358-2.397,0.56-3.833,0.602c-2.154,0.084-4.076-0.159-5.766-0.729
	c-1.689-0.57-3.115-1.426-4.276-2.565c-1.162-1.141-2.018-2.565-2.565-4.276c-0.549-1.711-0.739-3.686-0.57-5.924
	c0.084-0.929,0.242-1.837,0.475-2.725c0.231-0.887,0.496-1.752,0.792-2.598c0.338-0.929,0.812-1.922,1.426-2.978
	c0.611-1.056,1.235-1.964,1.869-2.724c2.281-2.788,5.132-4.794,8.554-6.02c0.591-0.211,1.394-0.4,2.407-0.57
	c1.014-0.168,2.037-0.242,3.073-0.221c1.034,0.021,2.027,0.158,2.978,0.411c0.95,0.254,1.656,0.697,2.122,1.331
	c0.381,0.507,0.654,0.95,0.824,1.33c0.168,0.38,0.264,0.782,0.285,1.204c0.021,0.423,0.021,0.877,0,1.362
	c-0.021,0.486-0.032,1.088-0.032,1.806c0,1.184-0.011,2.334-0.031,3.453c-0.021,1.119-0.011,2.249,0.031,3.39
	c0,0.38,0,0.877,0,1.489s0.021,1.257,0.064,1.932c0.041,0.676,0.095,1.32,0.158,1.933s0.158,1.108,0.285,1.489L503.715,590.683z"/>
<path fill="none" stroke="#000000" stroke-width="2" d="M490.283,587.831c0.465-0.294,0.992-0.622,1.584-0.981
	c0.592-0.357,1.119-0.77,1.584-1.235c-0.38-2.238-0.602-4.477-0.665-6.716c-0.063-2.238-0.054-4.499,0.032-6.779
	c-1.9,0.339-3.611,1.162-5.132,2.471c-1.521,1.31-2.577,2.851-3.169,4.625c-0.253,0.72-0.465,1.458-0.633,2.218
	c-0.169,0.761-0.232,1.5-0.19,2.218c0.042,0.972,0.295,1.784,0.76,2.438c0.465,0.655,1.024,1.152,1.679,1.489
	c0.654,0.339,1.352,0.528,2.092,0.57C488.963,588.191,489.65,588.085,490.283,587.831z"/>
<path fill="none" stroke="#000000" stroke-width="2" d="M533.428,591.823c-0.127,1.057-0.518,1.922-1.172,2.598
	c-0.655,0.676-1.394,1.098-2.218,1.267c-0.823,0.169-1.615,0.063-2.376-0.316c-0.76-0.381-1.31-1.12-1.646-2.218
	c-0.381-1.183-0.528-2.417-0.444-3.706c0.085-1.288,0.127-2.481,0.127-3.58c0-2.281,0.011-4.551,0.032-6.812
	c0.021-2.258-0.074-4.529-0.285-6.81c-0.043-0.085-0.086-0.159-0.127-0.222c-0.042-0.064-0.127-0.159-0.254-0.285
	c-0.972-0.254-2.006-0.19-3.104,0.19c-1.1,0.38-2.027,0.865-2.788,1.457c-0.676,0.549-1.341,1.298-1.996,2.249
	c-0.655,0.95-0.981,1.869-0.981,2.756v8.743c0,0.676,0.021,1.415,0.063,2.218c0.042,0.803,0.011,1.584-0.095,2.344
	c-0.106,0.76-0.349,1.457-0.729,2.091c-0.38,0.633-0.992,1.098-1.837,1.394c-0.466,0.168-0.898,0.231-1.299,0.19
	c-0.402-0.043-0.835-0.148-1.299-0.317c-0.76-0.254-1.311-0.687-1.647-1.299c-0.339-0.612-0.57-1.267-0.697-1.964
	s-0.18-1.372-0.158-2.027c0.021-0.654,0.031-1.172,0.031-1.553c0-0.97-0.011-2.375-0.031-4.213
	c-0.021-1.837-0.032-3.769-0.032-5.797c0-2.027,0-3.96,0-5.797c0-1.838,0-3.241,0-4.214c0-0.929,0.274-1.699,0.824-2.312
	c0.548-0.611,1.192-1.013,1.933-1.203c0.738-0.19,1.521-0.147,2.344,0.126c0.824,0.275,1.51,0.835,2.059,1.679
	c1.689-1.098,3.549-1.837,5.576-2.217c2.026-0.38,3.938-0.317,5.732,0.19c1.795,0.507,3.295,1.457,4.499,2.851
	s1.826,3.316,1.869,5.766c0,0.085,0.021,0.339,0.063,0.76c0.042,0.423,0.063,1.014,0.063,1.774L533.428,591.823L533.428,591.823z"/>
<path fill="none" stroke="#000000" stroke-width="2" d="M566.246,590.683c0.337,1.226,0.273,2.239-0.19,3.041
	c-0.466,0.803-1.109,1.341-1.933,1.616c-0.823,0.273-1.721,0.242-2.692-0.096s-1.816-1.013-2.534-2.026
	c-1.184,0.887-2.334,1.51-3.453,1.869c-1.119,0.358-2.398,0.56-3.833,0.602c-2.154,0.084-4.076-0.159-5.766-0.729
	c-1.689-0.57-3.115-1.426-4.276-2.565c-1.162-1.141-2.018-2.565-2.565-4.276c-0.55-1.711-0.739-3.686-0.571-5.924
	c0.085-0.929,0.243-1.837,0.476-2.725c0.231-0.887,0.496-1.752,0.792-2.598c0.338-0.929,0.812-1.922,1.426-2.978
	c0.611-1.056,1.235-1.964,1.869-2.724c2.281-2.788,5.132-4.794,8.553-6.02c0.592-0.211,1.394-0.4,2.408-0.57
	c1.014-0.168,2.037-0.242,3.072-0.221c1.035,0.021,2.028,0.158,2.979,0.411c0.95,0.254,1.656,0.697,2.122,1.331
	c0.38,0.507,0.654,0.95,0.824,1.33c0.168,0.38,0.264,0.782,0.285,1.204c0.021,0.423,0.021,0.877,0,1.362
	c-0.021,0.486-0.032,1.088-0.032,1.806c0,1.184-0.011,2.334-0.031,3.453c-0.021,1.119-0.012,2.249,0.031,3.39
	c0,0.38,0,0.877,0,1.489s0.021,1.257,0.063,1.932c0.042,0.676,0.096,1.32,0.159,1.933s0.158,1.108,0.285,1.489L566.246,590.683z"/>
<path fill="none" stroke="#000000" stroke-width="2" d="M552.814,587.831c0.465-0.294,0.992-0.622,1.584-0.981
	c0.592-0.357,1.119-0.77,1.584-1.235c-0.38-2.238-0.602-4.477-0.665-6.716c-0.063-2.238-0.054-4.499,0.031-6.779
	c-1.899,0.339-3.61,1.162-5.131,2.471c-1.521,1.31-2.577,2.851-3.169,4.625c-0.253,0.72-0.465,1.458-0.633,2.218
	c-0.169,0.761-0.232,1.5-0.19,2.218c0.041,0.972,0.295,1.784,0.76,2.438c0.465,0.655,1.024,1.152,1.679,1.489
	c0.654,0.339,1.352,0.528,2.092,0.57C551.494,588.191,552.182,588.085,552.814,587.831z"/>
<path fill="none" stroke="#000000" stroke-width="2" d="M144.286,648.542c0.443,0.855,0.601,1.719,0.475,2.59
	c-0.127,0.871-0.697,1.513-1.71,1.925c-0.951,0.348-1.862,0.253-2.732-0.285c-0.872-0.539-1.656-1.268-2.352-2.186
	c-0.697-0.919-1.299-1.886-1.806-2.898c-0.507-1.014-0.887-1.838-1.14-2.471c-1.616-3.737-2.487-7.627-2.614-11.666
	c-0.126-4.039,0.396-7.975,1.568-11.808c0.285-0.981,0.666-1.908,1.14-2.78c0.475-0.87,0.951-1.749,1.425-2.638
	c0.285-0.506,0.642-1.14,1.069-1.899c0.428-0.761,0.927-1.441,1.497-2.044c0.57-0.601,1.195-1.028,1.877-1.283
	c0.681-0.253,1.417-0.143,2.209,0.333c0.76,0.475,1.171,1.038,1.235,1.688c0.063,0.649-0.056,1.314-0.357,1.995
	c-0.301,0.682-0.681,1.339-1.14,1.972c-0.459,0.635-0.831,1.173-1.117,1.616c-0.412,0.729-0.753,1.347-1.021,1.853
	c-0.269,0.508-0.491,0.935-0.665,1.284c-0.175,0.349-0.309,0.657-0.404,0.926c-0.095,0.27-0.174,0.531-0.237,0.784
	c-0.475,1.647-0.824,3.414-1.045,5.298c-0.222,1.886-0.285,3.778-0.19,5.679c0.095,1.9,0.38,3.761,0.855,5.583
	c0.475,1.822,1.171,3.492,2.09,5.013c0.159,0.285,0.364,0.577,0.618,0.879c0.253,0.301,0.483,0.57,0.689,0.808
	c0.206,0.237,0.372,0.428,0.499,0.57c0.126,0.143,0.158,0.183,0.095,0.119L144.286,648.542z"/>
<path fill="none" stroke="#000000" stroke-width="2" d="M166.952,642.983c0.253,0.919,0.206,1.679-0.143,2.28
	c-0.349,0.602-0.832,1.006-1.449,1.211c-0.618,0.206-1.291,0.183-2.02-0.07c-0.729-0.254-1.362-0.761-1.9-1.521
	c-0.887,0.665-1.751,1.132-2.589,1.401c-0.839,0.269-1.798,0.42-2.875,0.452c-1.616,0.062-3.058-0.119-4.324-0.548
	c-1.268-0.427-2.336-1.068-3.208-1.925c-0.872-0.854-1.513-1.925-1.924-3.206c-0.412-1.284-0.554-2.764-0.428-4.443
	c0.064-0.696,0.182-1.378,0.357-2.044c0.174-0.665,0.372-1.313,0.594-1.947c0.253-0.697,0.609-1.441,1.069-2.233
	c0.459-0.791,0.926-1.474,1.402-2.044c1.71-2.09,3.849-3.595,6.415-4.514c0.443-0.158,1.045-0.301,1.806-0.428
	c0.76-0.126,1.528-0.182,2.305-0.166c0.776,0.017,1.52,0.119,2.233,0.31c0.713,0.189,1.243,0.522,1.592,0.998
	c0.285,0.38,0.491,0.712,0.618,0.997c0.126,0.285,0.197,0.587,0.214,0.903c0.015,0.317,0.015,0.658,0,1.021
	c-0.017,0.365-0.024,0.816-0.024,1.354c0,0.888-0.009,1.75-0.024,2.589c-0.017,0.84-0.008,1.688,0.024,2.543
	c0,0.285,0,0.657,0,1.116s0.015,0.942,0.048,1.449c0.031,0.507,0.071,0.99,0.119,1.449s0.119,0.831,0.214,1.116L166.952,642.983z"/>
<path fill="none" stroke="#000000" stroke-width="2" d="M156.878,640.845c0.348-0.221,0.744-0.467,1.188-0.736
	c0.443-0.269,0.839-0.578,1.188-0.927c-0.285-1.679-0.451-3.357-0.499-5.036s-0.04-3.374,0.024-5.085
	c-1.425,0.254-2.708,0.871-3.849,1.853c-1.14,0.982-1.933,2.139-2.375,3.469c-0.19,0.539-0.349,1.093-0.475,1.663
	c-0.127,0.571-0.174,1.125-0.143,1.664c0.031,0.729,0.221,1.338,0.57,1.829c0.348,0.491,0.768,0.863,1.259,1.116
	c0.491,0.254,1.014,0.396,1.568,0.428C155.888,641.114,156.403,641.035,156.878,640.845z"/>
<path fill="none" stroke="#000000" stroke-width="2" d="M177.405,645.644c-0.412,0.507-0.887,0.855-1.425,1.046
	c-0.539,0.19-1.093,0.19-1.663,0c-0.57-0.19-1.045-0.617-1.426-1.283c-0.158-0.254-0.285-0.522-0.38-0.808s-0.143-0.57-0.143-0.854
	v-12.497c-0.603,0-1.148-0.166-1.64-0.499c-0.491-0.332-0.855-0.744-1.093-1.235c-0.237-0.491-0.325-1.014-0.261-1.568
	c0.063-0.554,0.316-1.069,0.76-1.544c0.316-0.348,0.657-0.577,1.021-0.688s0.752-0.183,1.164-0.214
	c-0.032-0.982-0.056-1.949-0.071-2.898c-0.016-0.951,0.055-1.9,0.214-2.852c0.19-1.488,0.633-2.756,1.331-3.802
	c0.696-1.045,1.56-1.853,2.589-2.423c1.029-0.57,2.177-0.903,3.445-0.998c1.267-0.095,2.582,0.095,3.944,0.57
	c0.57,0.19,1.117,0.428,1.64,0.713c0.522,0.285,0.989,0.65,1.401,1.093c0.285,0.317,0.491,0.689,0.618,1.117
	c0.126,0.427,0.15,0.854,0.071,1.282c-0.08,0.428-0.237,0.824-0.475,1.188c-0.237,0.364-0.578,0.641-1.021,0.831
	c-0.603,0.254-1.196,0.317-1.782,0.189c-0.586-0.126-1.164-0.332-1.734-0.617c-0.349-0.127-0.682-0.253-0.998-0.38
	c-0.317-0.127-0.65-0.222-0.998-0.285c-0.349-0.063-0.666-0.016-0.951,0.142c-0.285,0.159-0.531,0.373-0.737,0.642
	c-0.206,0.27-0.365,0.57-0.475,0.903c-0.111,0.332-0.166,0.658-0.166,0.975c-0.032,0.729-0.041,1.466-0.024,2.209
	c0.015,0.745,0.024,1.481,0.024,2.209c0.475-0.031,0.981-0.063,1.52-0.095c0.538-0.031,1.069-0.048,1.592-0.048
	c0.523,0,1.006,0.017,1.449,0.048c0.443,0.032,0.792,0.095,1.045,0.19c0.506,0.19,0.918,0.483,1.236,0.88
	c0.316,0.396,0.522,0.824,0.617,1.282c0.095,0.46,0.055,0.928-0.119,1.402c-0.174,0.475-0.483,0.887-0.927,1.235
	c-0.412,0.317-0.887,0.539-1.425,0.666c-0.539,0.126-1.109,0.214-1.71,0.261c-0.602,0.048-1.188,0.063-1.758,0.048
	s-1.077-0.023-1.52-0.023v12.687C178.071,644.535,177.816,645.137,177.405,645.644z"/>
<path fill="none" stroke="#000000" stroke-width="2" d="M189.711,630.415c0.031-0.206,0.015-0.578-0.048-1.117
	c-0.507-0.285-0.903-0.648-1.188-1.092c-0.285-0.444-0.451-0.919-0.499-1.427c-0.048-0.506,0.048-0.988,0.285-1.448
	c0.237-0.459,0.625-0.848,1.164-1.164c0.728-0.412,1.528-0.491,2.399-0.238c0.871,0.254,1.623,0.635,2.257,1.141
	c0.791-0.602,1.616-1.108,2.471-1.521c0.855-0.411,1.726-0.689,2.614-0.831c0.886-0.143,1.79-0.118,2.708,0.071
	c0.918,0.19,1.821,0.586,2.708,1.188c0.443,0.285,0.855,0.642,1.236,1.069c0.38,0.427,0.618,0.911,0.713,1.448
	c0.158,0.793,0.095,1.482-0.19,2.067c-0.285,0.587-0.681,1.015-1.188,1.284c-0.507,0.269-1.077,0.348-1.711,0.237
	c-0.634-0.111-1.235-0.451-1.806-1.021c-0.19-0.126-0.325-0.229-0.404-0.31c-0.08-0.079-0.246-0.182-0.499-0.309
	c-0.507-0.126-1.006-0.095-1.497,0.095c-0.491,0.19-0.966,0.451-1.425,0.784c-0.459,0.333-0.887,0.697-1.283,1.093
	c-0.396,0.396-0.753,0.752-1.069,1.068v12.117c0,0.475-0.095,0.935-0.285,1.378c-0.285,0.729-0.737,1.236-1.354,1.521
	c-0.618,0.284-1.236,0.364-1.854,0.238c-0.617-0.128-1.157-0.444-1.616-0.95c-0.459-0.508-0.688-1.157-0.688-1.949v-13.305
	C189.664,630.661,189.68,630.621,189.711,630.415z"/>
<path fill="none" stroke="#000000" stroke-width="2" d="M209.43,616.706c0.126-1.171,0.53-2.035,1.211-2.589
	s1.402-0.823,2.162-0.808c0.76,0.016,1.465,0.309,2.115,0.88c0.649,0.57,0.989,1.377,1.021,2.423
	c0.063,1.077-0.214,1.908-0.832,2.494c-0.617,0.587-1.323,0.919-2.114,0.998c-0.792,0.08-1.537-0.135-2.233-0.642
	s-1.125-1.313-1.283-2.423L209.43,616.706z"/>
<path fill="none" stroke="#000000" stroke-width="2" d="M215.703,643.744c-0.064,0.634-0.285,1.195-0.666,1.687
	c-0.38,0.49-0.816,0.848-1.307,1.069c-0.491,0.221-1.021,0.269-1.592,0.143c-0.57-0.128-1.077-0.476-1.52-1.046
	c-0.254-0.317-0.436-0.673-0.546-1.069c-0.112-0.395-0.183-0.808-0.214-1.235c-0.032-0.428-0.041-0.855-0.024-1.283
	c0.016-0.428,0.024-0.815,0.024-1.164c-0.032-1.869-0.041-3.722-0.024-5.56c0.016-1.837,0.007-3.689-0.024-5.56
	c0-0.76-0.047-1.528-0.143-2.305c-0.095-0.775-0.048-1.544,0.143-2.305c0.158-0.57,0.435-1.061,0.831-1.473
	c0.396-0.411,0.839-0.696,1.331-0.855c0.491-0.158,0.998-0.174,1.521-0.047c0.522,0.127,0.974,0.459,1.354,0.997
	c0.506,0.635,0.76,1.26,0.76,1.877c0,0.618,0,1.371,0,2.258c0,1.077,0,2.154,0,3.23c0,1.078,0.015,2.139,0.048,3.184
	c0.031,1.521,0.048,3.042,0.048,4.562c0,1.521,0,3.041,0,4.562V643.744z"/>
<path fill="none" stroke="#000000" stroke-width="2" d="M232.856,639.134c0.791-0.506,1.544-0.728,2.257-0.665
	c0.713,0.063,1.299,0.31,1.758,0.736c0.459,0.428,0.713,0.998,0.76,1.711s-0.199,1.466-0.737,2.257
	c-0.349,0.539-0.847,1.03-1.497,1.473c-0.65,0.443-1.275,0.792-1.877,1.046c-1.395,0.633-2.804,0.918-4.229,0.854
	c-1.426-0.063-2.749-0.412-3.968-1.045c-1.22-0.634-2.273-1.513-3.16-2.638c-0.887-1.125-1.49-2.431-1.805-3.92
	c-0.634-2.851-0.508-5.591,0.38-8.221c0.348-0.951,0.768-1.869,1.259-2.756c0.491-0.887,1.084-1.695,1.782-2.424
	c0.696-0.728,1.473-1.37,2.329-1.925c0.855-0.554,1.79-0.927,2.804-1.116c0.696-0.126,1.583-0.119,2.661,0.023
	c1.077,0.143,2.13,0.421,3.16,0.831c1.029,0.413,1.932,0.95,2.708,1.616c0.776,0.665,1.212,1.457,1.307,2.376
	c0.063,0.507,0,0.974-0.19,1.401s-0.459,0.784-0.808,1.069c-0.349,0.285-0.753,0.483-1.211,0.595
	c-0.459,0.111-0.926,0.103-1.402-0.024c-0.57-0.158-1.021-0.372-1.354-0.642c-0.333-0.269-0.768-0.624-1.307-1.068
	c-0.254-0.064-0.491-0.167-0.713-0.31c-0.222-0.143-0.459-0.197-0.713-0.166l-1.283,0.143c-0.222,0.127-0.428,0.237-0.618,0.333
	c-0.19,0.095-0.381,0.189-0.57,0.285c-1.077,1.077-1.87,2.273-2.376,3.587c-0.507,1.314-0.634,2.732-0.38,4.253
	c0.158,0.981,0.467,1.79,0.926,2.423c0.459,0.634,0.999,1.069,1.616,1.307c0.618,0.238,1.299,0.262,2.043,0.071
	s1.48-0.617,2.209-1.283L232.856,639.134z"/>
<path fill="none" stroke="#000000" stroke-width="2" d="M261.176,642.983c0.253,0.919,0.206,1.679-0.143,2.28
	c-0.349,0.602-0.832,1.006-1.449,1.211c-0.617,0.206-1.291,0.183-2.02-0.07c-0.729-0.254-1.362-0.761-1.9-1.521
	c-0.887,0.665-1.751,1.132-2.589,1.401c-0.839,0.269-1.798,0.42-2.875,0.452c-1.616,0.062-3.058-0.119-4.324-0.548
	c-1.268-0.427-2.336-1.068-3.208-1.925c-0.872-0.854-1.513-1.925-1.924-3.206c-0.412-1.284-0.555-2.764-0.428-4.443
	c0.064-0.696,0.182-1.378,0.357-2.044c0.174-0.665,0.372-1.313,0.594-1.947c0.253-0.697,0.61-1.441,1.069-2.233
	c0.459-0.791,0.926-1.474,1.402-2.044c1.711-2.09,3.849-3.595,6.415-4.514c0.443-0.158,1.045-0.301,1.806-0.428
	c0.76-0.126,1.528-0.182,2.305-0.166c0.776,0.017,1.52,0.119,2.233,0.31c0.713,0.189,1.243,0.522,1.592,0.998
	c0.286,0.38,0.491,0.712,0.618,0.997c0.126,0.285,0.197,0.587,0.214,0.903c0.015,0.317,0.015,0.658,0,1.021
	c-0.017,0.365-0.024,0.816-0.024,1.354c0,0.888-0.009,1.75-0.024,2.589c-0.017,0.84-0.008,1.688,0.024,2.543
	c0,0.285,0,0.657,0,1.116s0.015,0.942,0.048,1.449c0.031,0.507,0.071,0.99,0.119,1.449s0.119,0.831,0.214,1.116L261.176,642.983z"/>
<path fill="none" stroke="#000000" stroke-width="2" d="M251.103,640.845c0.348-0.221,0.743-0.467,1.188-0.736
	c0.443-0.269,0.839-0.578,1.188-0.927c-0.285-1.679-0.451-3.357-0.499-5.036s-0.04-3.374,0.024-5.085
	c-1.425,0.254-2.708,0.871-3.849,1.853c-1.14,0.982-1.933,2.139-2.375,3.469c-0.19,0.539-0.349,1.093-0.475,1.663
	c-0.127,0.571-0.174,1.125-0.143,1.664c0.031,0.729,0.221,1.338,0.57,1.829c0.348,0.491,0.768,0.863,1.26,1.116
	c0.491,0.254,1.013,0.396,1.568,0.428C250.111,641.114,250.627,641.035,251.103,640.845z"/>
<path fill="none" stroke="#000000" stroke-width="2" d="M283.46,643.839c-0.095,0.792-0.388,1.44-0.879,1.948
	c-0.491,0.506-1.045,0.823-1.663,0.95c-0.618,0.126-1.212,0.048-1.782-0.237s-0.982-0.84-1.236-1.664
	c-0.285-0.886-0.396-1.812-0.332-2.779c0.063-0.966,0.095-1.86,0.095-2.686c0-1.71,0.007-3.412,0.024-5.107
	c0.015-1.694-0.056-3.397-0.214-5.108c-0.032-0.063-0.063-0.118-0.095-0.166c-0.032-0.048-0.095-0.118-0.19-0.214
	c-0.729-0.19-1.505-0.143-2.328,0.142c-0.824,0.286-1.521,0.65-2.091,1.094c-0.507,0.411-1.006,0.974-1.497,1.687
	c-0.492,0.713-0.736,1.402-0.736,2.067v6.557c0,0.508,0.015,1.062,0.048,1.663c0.031,0.603,0.007,1.188-0.072,1.759
	c-0.08,0.57-0.261,1.093-0.546,1.567c-0.285,0.476-0.745,0.823-1.378,1.046c-0.349,0.126-0.673,0.173-0.974,0.142
	c-0.302-0.031-0.626-0.111-0.974-0.237c-0.57-0.19-0.982-0.516-1.236-0.974c-0.254-0.46-0.428-0.951-0.522-1.474
	c-0.095-0.522-0.135-1.029-0.119-1.521c0.015-0.49,0.023-0.879,0.023-1.164c0-0.728-0.008-1.781-0.023-3.159
	c-0.017-1.378-0.024-2.827-0.024-4.348s0-2.971,0-4.348c0-1.378,0-2.431,0-3.16c0-0.696,0.206-1.274,0.617-1.734
	c0.412-0.458,0.895-0.76,1.449-0.902s1.141-0.111,1.758,0.095c0.618,0.206,1.132,0.625,1.544,1.26
	c1.266-0.824,2.661-1.379,4.182-1.664c1.52-0.285,2.954-0.237,4.3,0.143c1.347,0.381,2.471,1.093,3.374,2.138
	c0.903,1.046,1.37,2.487,1.402,4.324c0,0.063,0.016,0.254,0.048,0.57c0.031,0.317,0.048,0.76,0.048,1.331L283.46,643.839
	L283.46,643.839z"/>
<path fill="none" stroke="#000000" stroke-width="2" d="M322.377,638.706c0.76-0.19,1.433-0.196,2.02-0.023
	c0.585,0.174,1.036,0.468,1.354,0.879c0.316,0.413,0.459,0.92,0.428,1.521c-0.032,0.602-0.301,1.235-0.808,1.899
	c-0.412,0.54-0.982,0.998-1.71,1.378c-0.729,0.38-1.411,0.682-2.044,0.903c-1.553,0.57-3.024,0.966-4.419,1.188
	c-1.395,0.221-2.701,0.221-3.92,0c-1.22-0.223-2.36-0.683-3.422-1.379s-2.051-1.679-2.97-2.945
	c-0.634-0.854-1.101-1.829-1.402-2.922c-0.302-1.094-0.467-2.21-0.499-3.351c-0.032-1.14,0.063-2.265,0.285-3.374
	c0.221-1.108,0.539-2.105,0.951-2.994c0.538-1.108,1.394-2.121,2.565-3.041c1.172-0.918,2.471-1.646,3.896-2.186
	c1.425-0.538,2.882-0.847,4.371-0.927c1.489-0.078,2.804,0.151,3.944,0.689c0.95,0.444,1.766,1.085,2.447,1.925
	c0.681,0.839,1.147,1.75,1.401,2.732c0.253,0.981,0.277,1.972,0.071,2.97c-0.207,0.998-0.722,1.909-1.544,2.732
	c-0.792,0.792-1.663,1.434-2.614,1.925c-0.95,0.491-1.933,0.919-2.945,1.283c-1.015,0.364-2.052,0.674-3.112,0.927
	c-1.062,0.254-2.083,0.539-3.065,0.854c0.666,0.76,1.426,1.243,2.281,1.449c0.855,0.207,1.75,0.245,2.685,0.119
	c0.935-0.127,1.877-0.388,2.828-0.784c0.95-0.396,1.836-0.831,2.661-1.307L322.377,638.706z"/>
<path fill="none" stroke="#000000" stroke-width="2" d="M312.778,630.533c-0.729,0.413-1.268,0.928-1.616,1.545
	c-0.349,0.618-0.603,1.481-0.76,2.589c0.823-0.253,1.749-0.522,2.779-0.807c1.029-0.286,2.003-0.586,2.922-0.903
	c0.919-0.316,1.694-0.666,2.328-1.046s0.951-0.791,0.951-1.235c0-0.254-0.04-0.499-0.119-0.736
	c-0.079-0.238-0.245-0.404-0.499-0.499c-0.887-0.316-1.805-0.38-2.756-0.19c-0.95,0.19-1.742,0.46-2.375,0.808L312.778,630.533z"/>
<path fill="none" stroke="#000000" stroke-width="2" d="M335.823,642.128c0.348,0.317,0.642,0.721,0.879,1.211
	c0.238,0.491,0.364,0.982,0.38,1.474c0.016,0.49-0.095,0.95-0.332,1.377c-0.238,0.428-0.658,0.753-1.26,0.975
	c-0.475,0.158-0.998,0.19-1.567,0.095c-0.57-0.095-1.133-0.285-1.688-0.57c-0.554-0.285-1.045-0.625-1.473-1.021
	c-0.427-0.396-0.736-0.831-0.927-1.307c-0.063-0.158-0.111-0.341-0.142-0.547c-0.032-0.206-0.048-0.388-0.048-0.547v-26.372
	c0-0.728,0.276-1.346,0.831-1.853c0.554-0.507,1.164-0.808,1.829-0.903c0.316-0.031,0.657,0.016,1.021,0.143
	s0.704,0.309,1.022,0.547c0.316,0.237,0.577,0.515,0.783,0.831c0.206,0.317,0.309,0.649,0.309,0.998c0,0.824,0,1.917,0,3.278
	s0.008,2.851,0.024,4.467c0.015,1.615,0.023,3.287,0.023,5.013c0,1.727-0.009,3.382-0.023,4.965
	c-0.017,1.585-0.024,3.034-0.024,4.348c0,1.314-0.016,2.368-0.047,3.16L335.823,642.128z"/>
<path fill="none" stroke="#000000" stroke-width="2" d="M357.444,638.706c0.76-0.19,1.433-0.196,2.02-0.023
	c0.586,0.174,1.037,0.468,1.354,0.879c0.316,0.413,0.459,0.92,0.428,1.521c-0.032,0.602-0.302,1.235-0.809,1.899
	c-0.411,0.54-0.981,0.998-1.71,1.378s-1.41,0.682-2.044,0.903c-1.552,0.57-3.024,0.966-4.419,1.188c-1.394,0.221-2.7,0.221-3.92,0
	c-1.22-0.223-2.359-0.683-3.421-1.379s-2.052-1.679-2.971-2.945c-0.634-0.854-1.101-1.829-1.401-2.922
	c-0.301-1.094-0.469-2.21-0.499-3.351c-0.031-1.14,0.063-2.265,0.285-3.374c0.221-1.108,0.539-2.105,0.95-2.994
	c0.539-1.108,1.394-2.121,2.566-3.041c1.172-0.918,2.471-1.646,3.896-2.186c1.425-0.538,2.882-0.847,4.372-0.927
	c1.488-0.078,2.803,0.151,3.942,0.689c0.951,0.444,1.767,1.085,2.448,1.925c0.68,0.839,1.147,1.75,1.401,2.732
	c0.253,0.982,0.277,1.972,0.071,2.97c-0.207,0.998-0.722,1.909-1.544,2.732c-0.793,0.792-1.663,1.434-2.614,1.925
	c-0.95,0.491-1.933,0.919-2.945,1.283c-1.014,0.364-2.052,0.674-3.112,0.927c-1.062,0.254-2.084,0.539-3.065,0.854
	c0.665,0.76,1.426,1.243,2.281,1.449c0.854,0.207,1.75,0.245,2.685,0.119c0.935-0.127,1.877-0.388,2.827-0.784
	c0.951-0.396,1.837-0.831,2.661-1.307L357.444,638.706z"/>
<path fill="none" stroke="#000000" stroke-width="2" d="M347.846,630.533c-0.729,0.413-1.267,0.928-1.616,1.545
	c-0.349,0.618-0.602,1.481-0.76,2.589c0.823-0.253,1.75-0.522,2.779-0.807c1.029-0.286,2.004-0.586,2.922-0.903
	c0.919-0.316,1.694-0.666,2.329-1.046c0.633-0.38,0.95-0.791,0.95-1.235c0-0.254-0.04-0.499-0.118-0.736
	c-0.079-0.238-0.246-0.404-0.499-0.499c-0.887-0.316-1.805-0.38-2.756-0.19c-0.951,0.19-1.743,0.46-2.376,0.808L347.846,630.533z"/>
<path fill="none" stroke="#000000" stroke-width="2" d="M364.951,625.544c0.222-0.76,0.577-1.338,1.069-1.734
	c0.491-0.396,1.013-0.625,1.568-0.688c0.554-0.063,1.084,0.032,1.592,0.285c0.507,0.254,0.903,0.65,1.188,1.188
	c0.349-0.19,0.697-0.363,1.046-0.522c0.348-0.159,0.744-0.301,1.188-0.428c2.027-0.539,3.825-0.499,5.393,0.118
	c1.568,0.617,2.875,1.568,3.92,2.851c1.046,1.284,1.79,2.789,2.233,4.515c0.443,1.727,0.547,3.453,0.31,5.179
	c-0.238,1.728-0.849,3.343-1.83,4.848s-2.392,2.669-4.229,3.492c-1.204,0.538-2.463,0.879-3.778,1.021
	c-1.314,0.143-2.621,0.166-3.92,0.071c0,0.031,0.008,0.285,0.024,0.76c0.016,0.476,0.023,1.077,0.023,1.806s0,1.521,0,2.376
	c0,0.856-0.023,1.679-0.071,2.471c-0.047,0.792-0.111,1.497-0.19,2.115c-0.079,0.617-0.198,1.036-0.356,1.259
	c-0.412,0.602-0.919,0.982-1.52,1.141c-0.603,0.158-1.173,0.135-1.712-0.071c-0.538-0.207-1.006-0.555-1.401-1.045
	c-0.396-0.492-0.594-1.086-0.594-1.782v-28.938L364.951,625.544z"/>
<path fill="none" stroke="#000000" stroke-width="2" d="M371.033,631.722c-0.095,0.159-0.142,0.229-0.142,0.214
	c0-0.015-0.063,0.04-0.19,0.166v7.841c0.634,0.095,1.267,0.143,1.9,0.143s1.299-0.096,1.996-0.286
	c1.426-0.348,2.549-1.037,3.373-2.066s1.141-2.306,0.951-3.825c-0.095-0.633-0.277-1.29-0.547-1.972
	c-0.27-0.681-0.625-1.26-1.069-1.734c-0.444-0.476-0.966-0.809-1.567-0.999c-0.602-0.189-1.283-0.126-2.043,0.19
	c-0.539,0.223-1.022,0.555-1.449,0.998C371.817,630.835,371.414,631.278,371.033,631.722z"/>
<path fill="none" stroke="#000000" stroke-width="2" d="M393.223,646.048c-0.634,0.459-1.291,0.673-1.973,0.642
	c-0.681-0.032-1.282-0.31-1.805-0.831c-0.523-0.522-0.784-1.243-0.784-2.162v-26.42c0-0.728,0.285-1.346,0.854-1.853
	c0.57-0.507,1.204-0.823,1.901-0.95c0.696-0.127,1.346-0.016,1.948,0.332c0.602,0.349,0.934,0.998,0.998,1.949
	c0.126,1.646,0.182,3.254,0.166,4.823c-0.017,1.567-0.04,3.145-0.071,4.728c1.171-0.792,2.391-1.322,3.659-1.592
	c1.266-0.269,2.485-0.262,3.659,0.023c1.171,0.285,2.264,0.855,3.278,1.711c1.013,0.854,1.837,2.043,2.471,3.563
	c0.443,1.014,0.744,2.1,0.902,3.255c0.158,1.156,0.245,2.328,0.262,3.516c0.016,1.188,0,2.368-0.048,3.54
	c-0.047,1.172-0.07,2.281-0.07,3.326c0,0.666-0.175,1.268-0.522,1.806c-0.349,0.539-0.784,0.934-1.307,1.188
	c-0.523,0.252-1.077,0.332-1.664,0.237c-0.586-0.095-1.116-0.444-1.592-1.046c-0.475-0.634-0.769-1.378-0.879-2.232
	c-0.111-0.855-0.143-1.766-0.096-2.732c0.048-0.966,0.119-1.955,0.215-2.97c0.095-1.014,0.118-1.988,0.071-2.923
	c-0.048-0.934-0.23-1.797-0.547-2.589c-0.317-0.792-0.872-1.441-1.663-1.949c-0.635-0.095-1.205-0.055-1.711,0.119
	c-0.508,0.174-0.967,0.436-1.378,0.784c-0.412,0.349-0.801,0.744-1.164,1.188c-0.365,0.443-0.736,0.887-1.116,1.33
	c-0.096,0.159-0.207,0.31-0.333,0.451c-0.127,0.143-0.269,0.293-0.428,0.451v9.028C394.269,644.836,393.856,645.588,393.223,646.048
	z"/>
<path fill="none" stroke="#000000" stroke-width="2" d="M433.232,642.983c0.253,0.919,0.205,1.679-0.143,2.28
	c-0.349,0.602-0.831,1.006-1.449,1.211c-0.617,0.207-1.291,0.183-2.02-0.07c-0.729-0.254-1.362-0.761-1.9-1.521
	c-0.888,0.665-1.75,1.132-2.59,1.401c-0.839,0.269-1.798,0.42-2.874,0.452c-1.616,0.062-3.058-0.119-4.324-0.548
	c-1.267-0.427-2.336-1.068-3.207-1.925c-0.872-0.854-1.514-1.925-1.925-3.206c-0.412-1.284-0.555-2.764-0.428-4.443
	c0.063-0.696,0.183-1.378,0.356-2.044c0.174-0.665,0.372-1.313,0.595-1.947c0.253-0.697,0.609-1.441,1.069-2.233
	c0.458-0.791,0.926-1.474,1.401-2.044c1.71-2.09,3.849-3.595,6.414-4.514c0.443-0.158,1.045-0.301,1.806-0.428
	c0.761-0.126,1.528-0.182,2.305-0.166c0.776,0.017,1.521,0.119,2.233,0.31c0.713,0.189,1.242,0.522,1.592,0.998
	c0.285,0.38,0.491,0.712,0.618,0.997c0.126,0.285,0.197,0.587,0.214,0.903c0.016,0.317,0.016,0.658,0,1.021
	c-0.016,0.365-0.024,0.816-0.024,1.354c0,0.888-0.008,1.75-0.022,2.589c-0.017,0.84-0.009,1.688,0.022,2.543
	c0,0.285,0,0.657,0,1.116s0.016,0.942,0.048,1.449c0.031,0.507,0.071,0.99,0.119,1.449c0.047,0.459,0.118,0.831,0.214,1.116
	L433.232,642.983z"/>
<path fill="none" stroke="#000000" stroke-width="2" d="M423.158,640.845c0.349-0.221,0.744-0.467,1.188-0.736
	c0.444-0.269,0.84-0.578,1.188-0.927c-0.285-1.679-0.452-3.357-0.499-5.036c-0.048-1.679-0.04-3.374,0.023-5.085
	c-1.426,0.254-2.708,0.871-3.849,1.853c-1.14,0.982-1.933,2.139-2.376,3.469c-0.19,0.539-0.349,1.093-0.475,1.663
	c-0.127,0.571-0.175,1.125-0.143,1.664c0.031,0.729,0.221,1.338,0.57,1.829c0.349,0.491,0.768,0.863,1.26,1.116
	c0.49,0.254,1.014,0.396,1.567,0.428C422.169,641.114,422.683,641.035,423.158,640.845z"/>
<path fill="none" stroke="#000000" stroke-width="2" d="M455.518,643.839c-0.096,0.792-0.389,1.44-0.88,1.948
	c-0.491,0.506-1.045,0.823-1.663,0.95c-0.618,0.126-1.212,0.048-1.782-0.237s-0.981-0.84-1.235-1.664
	c-0.285-0.886-0.396-1.812-0.332-2.779c0.062-0.966,0.095-1.86,0.095-2.686c0-1.71,0.007-3.412,0.023-5.107
	c0.016-1.694-0.056-3.397-0.214-5.108c-0.032-0.063-0.063-0.118-0.095-0.166c-0.032-0.048-0.095-0.118-0.19-0.214
	c-0.729-0.19-1.505-0.143-2.329,0.142c-0.824,0.286-1.52,0.65-2.09,1.094c-0.508,0.411-1.007,0.974-1.497,1.687
	c-0.491,0.713-0.736,1.402-0.736,2.067v6.557c0,0.508,0.016,1.062,0.047,1.663c0.032,0.603,0.008,1.188-0.071,1.759
	s-0.261,1.093-0.546,1.567c-0.285,0.476-0.745,0.823-1.378,1.046c-0.35,0.126-0.674,0.173-0.975,0.142s-0.626-0.111-0.975-0.237
	c-0.57-0.19-0.981-0.516-1.235-0.974c-0.254-0.46-0.428-0.951-0.522-1.474s-0.136-1.029-0.119-1.521
	c0.016-0.49,0.024-0.879,0.024-1.164c0-0.728-0.009-1.781-0.024-3.159s-0.023-2.827-0.023-4.348s0-2.971,0-4.348
	c0-1.378,0-2.431,0-3.16c0-0.696,0.205-1.274,0.618-1.734c0.411-0.458,0.895-0.76,1.449-0.902c0.553-0.143,1.14-0.111,1.758,0.095
	c0.617,0.206,1.133,0.625,1.544,1.26c1.267-0.824,2.661-1.379,4.182-1.664s2.953-0.237,4.3,0.143
	c1.346,0.381,2.471,1.093,3.374,2.138c0.903,1.046,1.369,2.487,1.401,4.324c0,0.063,0.016,0.254,0.048,0.57
	c0.031,0.317,0.047,0.76,0.047,1.331v12.165H455.518z"/>
<path fill="none" stroke="#000000" stroke-width="2" d="M461.409,629.251c-0.634-0.158-1.181-0.428-1.64-0.808
	s-0.777-0.824-0.95-1.331c-0.174-0.506-0.174-1.029,0-1.567c0.173-0.538,0.562-1.029,1.163-1.473c0.507-0.38,1.077-0.57,1.712-0.57
	c0.633,0,1.251,0,1.853,0c0-0.222-0.017-0.705-0.048-1.449c-0.032-0.744-0.039-1.561-0.023-2.447s0.071-1.734,0.166-2.542
	s0.269-1.369,0.522-1.688c0.634-0.886,1.417-1.307,2.352-1.259c0.935,0.047,1.703,0.498,2.305,1.354
	c0.127,0.159,0.245,0.35,0.357,0.57c0.11,0.223,0.166,0.429,0.166,0.619c0.031,1.14,0.039,2.28,0.023,3.421
	c-0.017,1.14-0.023,2.28-0.023,3.421h3.754c0.57,0,1.061,0.19,1.473,0.571c0.411,0.38,0.704,0.824,0.879,1.33
	c0.174,0.507,0.222,1.03,0.143,1.568c-0.079,0.539-0.325,0.981-0.736,1.331c-0.729,0.602-1.576,0.919-2.542,0.95
	c-0.967,0.031-1.956,0.047-2.97,0.047c0,1.743-0.009,3.484-0.024,5.228c-0.016,1.742-0.008,3.484,0.024,5.227
	c0,0.76,0.039,1.537,0.118,2.328c0.078,0.793,0.024,1.553-0.166,2.281c-0.159,0.57-0.428,1.021-0.808,1.354
	s-0.808,0.538-1.283,0.618c-0.475,0.078-0.967,0.047-1.473-0.096c-0.507-0.143-0.982-0.403-1.426-0.783
	c-0.222-0.222-0.388-0.602-0.498-1.141c-0.112-0.538-0.184-1.108-0.215-1.71c-0.032-0.697-0.032-1.441,0-2.233
	c0-0.634,0-1.457,0-2.471s-0.008-2.067-0.023-3.16s-0.023-2.13-0.023-3.112c0-0.981,0-1.759,0-2.329L461.409,629.251z"/>
<path fill="none" stroke="#000000" stroke-width="2" d="M477.518,647.925c0.253-0.254,0.482-0.482,0.688-0.688
	c0.206-0.207,0.411-0.412,0.618-0.618c0.206-0.206,0.404-0.436,0.595-0.688c0.19-0.255,0.396-0.555,0.617-0.904
	c0.919-1.488,1.616-3.183,2.091-5.084c0.475-1.9,0.76-3.856,0.854-5.868s0.017-3.991-0.237-5.939s-0.682-3.73-1.283-5.346
	c-0.412-1.108-0.927-2.154-1.544-3.136s-1.243-1.948-1.876-2.898c-0.286-0.411-0.563-0.815-0.832-1.212
	c-0.269-0.396-0.421-0.862-0.451-1.401c-0.032-0.823,0.166-1.504,0.595-2.043c0.428-0.538,0.941-0.88,1.544-1.021
	c0.601-0.143,1.219-0.087,1.853,0.165c0.633,0.255,1.141,0.745,1.521,1.474c0.696,0.981,1.361,1.979,1.996,2.994
	c0.633,1.014,1.219,2.043,1.758,3.089c0.887,1.71,1.561,3.562,2.02,5.559s0.728,4.04,0.808,6.13
	c0.079,2.091-0.023,4.158-0.309,6.201s-0.713,3.952-1.283,5.726c-0.508,1.521-1.116,3.048-1.829,4.585
	c-0.714,1.536-1.624,2.891-2.733,4.063c-0.475,0.506-1.014,0.981-1.615,1.425s-1.267,0.666-1.996,0.666
	c-0.665,0-1.211-0.143-1.64-0.428c-0.427-0.285-0.729-0.65-0.903-1.093c-0.174-0.444-0.229-0.927-0.165-1.449
	c0.063-0.522,0.221-1.038,0.475-1.544L477.518,647.925z"/>
<path fill="none" stroke="#000000" stroke-width="2" d="M535.817,435.057c4.583-1.578,8.415-5.957,5.528-10.867
	c-3.704-6.306-13.699-4.971-19.271-2.607c-2.061,0.874-3.93,2.013-5.568,3.37c-7.441-12.011-8.993-27.133-10.009-40.906
	c-1.262-17.131-1.208-34.601-5.4-51.363c-4.774-19.081-17.356-39.912-36.239-48.134c-12.919-9.713-29.651-15.358-44.645-18.193
	c-28.521-5.392-59.18-1.589-86.006,9.821c-8.688-1.477-17.622-1.844-26.243-1.523c-22.815,0.851-45.29,9.272-57.891,29.216
	c-8.39-7.507-20.417-10.451-31.892-8.631c-20.95,3.324-32.189,18.668-36.602,36.907c-9.183,0.264-18.303,0.505-27.343,0.722
	c-14.09,0.338-28.233,0.507-42.434,0.507c0-26.596,0.222-53.196,0.676-79.797c0.449-26.596,0.449-53.423,0-80.473
	c0-3.153-0.961-6.028-2.874-8.622c-1.917-2.589-4.285-4.618-7.101-6.086c-2.821-1.463-5.864-2.367-9.129-2.705
	c-3.271-0.338-6.255,0.058-8.96,1.184c-3.159,1.353-5.637,2.99-7.439,4.903c-1.807,1.917-3.101,4.961-3.889,9.129
	c-0.792,4.174-1.3,9.921-1.521,17.244c-0.228,7.328-0.338,16.964-0.338,28.91c0,6.763,0,14.539,0,23.331
	c0,8.791-0.058,17.751-0.169,26.88c-0.116,9.129-0.227,18.089-0.338,26.881c-0.116,8.792-0.169,16.568-0.169,23.331
	c0,3.381-0.057,7.607-0.168,12.68c-0.117,5.071,0,10.143,0.338,15.215c0.338,5.072,1.125,9.922,2.366,14.539
	c1.236,4.623,3.212,8.057,5.917,10.313c3.154,2.927,6.874,4.396,11.158,4.396c4.279,0,8.453-0.116,12.51-0.338
	c16.229-0.227,29.866-0.338,40.913-0.338c11.042,0,20.171,0,27.387,0c3.711,0,6.998-0.016,9.875-0.046
	c0.938,6.476,2.366,12.86,4.455,18.871c1.852,5.331,4.506,10.208,7.541,14.864c-0.927,0.152-1.893,0.287-2.905,0.415
	c-4.625,0.587-11.802,1.993-12.358,7.749c-1.188,12.301,13.6,19.537,23.399,14.243c2.583,13.397,8.878,26.658,17.347,37.288
	c13.97,17.532,33.947,25.201,55.194,24.642c1.184,5.768,2.452,11.52,4.029,17.186c1.42,5.095,2.333,10.261,7.991,11.684
	c0.596,0.149,1.197,0.285,1.802,0.411c2.248,0.743,11.068,2.369,14.484,1.215c1.425-0.016,2.847-0.061,4.26-0.129
	c3.976,0.022,8.094-0.084,11.965-0.882c4.157-0.42,8.58-1.436,9.954-5.226c2.347-6.475,2.269-14.104,2.448-20.894
	c0.188-7.08,0.131-14.177-0.091-21.267c1.248-0.764,2.481-1.547,3.696-2.354c1.76,0.143,3.525,0.26,5.295,0.363
	c1.157,9.981,2.483,19.947,4.112,29.854c0.992,6.028,1.376,14.656,4.893,19.909c2.997,4.478,16.482,2.407,20.784,2.161
	c0.207-0.012,0.418-0.026,0.626-0.038c1.682-0.094,2.812-0.049,3.541-0.226c8.279-0.569,16.83-1.534,24.641-4.1
	c5.912-1.942,5.795-7.124,6.482-12.708c1.65-13.412,2.251-26.995,2.633-40.533c2.685-0.625,5.354-1.281,7.993-2.002
	c1.747-0.478,3.492-0.989,5.237-1.521c0.379,1.812,0.743,3.536,0.952,5.035c1.362,9.744,2.813,19.485,4.558,29.169
	c0.77,4.28,0.543,11.329,5.254,13.062c9.045,3.328,19.851,4.37,29.395,3.53c7.814-0.688,14.128-3.057,17.256-10.459
	c3.224-7.623,4.992-15.93,6.696-23.997c4.386-20.771,7.346-41.91,9.573-63.019c0.472-4.477,0.908-8.958,1.207-13.449
	c0.112-1.668,0.799-4.833,0.13-6.753c0.872-5.103,1.278-10.394,1.37-15.87c2.539,17.323,5.136,35.212,16.625,48.141
	c-2.109,2.781-3.465,6.12-3.82,9.875c-0.48,5.084,1.318,12.232,7.611,12.243c6.27,0.007,8.096-6.067,7.411-11.317
	c2.709,8.344,7.359,18.224,15.73,22.249c4.623,2.221,10.105,1.493,12.751-3.258C559.732,445.971,545.845,437.36,535.817,435.057z
	 M255.52,454.212c-9.967,1.904-20.539-4.391-26.168-12.229c-1.601-2.229-2.99-4.65-4.14-7.188
	c6.601,1.385,13.527,1.107,20.223-0.719c-3.93,5.988-5.122,11.069,0.618,12.408c6.512,1.519,14.694-1.189,21.345-4.756
	C265.821,447.771,262.206,452.934,255.52,454.212z"/>
<path fill="none" stroke="#000000" stroke-width="2" d="M517.104,450.391c-6.293-0.011-8.092-7.159-7.611-12.243
	c0.725-7.656,5.586-13.597,12.583-16.565c5.571-2.363,15.566-3.698,19.271,2.607c2.887,4.91-0.945,9.289-5.528,10.867
	c10.027,2.304,23.915,10.914,17.179,23.008c-2.646,4.751-8.128,5.479-12.751,3.258c-8.371-4.025-13.021-13.905-15.73-22.249
	C525.199,444.323,523.373,450.397,517.104,450.391"/>
<path fill="none" stroke="#000000" stroke-width="2" d="M287.191,521.205c-1.434-4.82-2.427-10.548-0.939-15.453
	c2.017-6.65,9.465-7.665,12.851-1.673c2.82,4.993,3.644,11.224,4.086,16.86C303.476,524.604,289.679,522.104,287.191,521.205"/>
<path fill="none" stroke="#000000" stroke-width="2" d="M320.421,520.879c0.694-4.908,1.784-18.941-6.425-18.04
	c-7.279,0.799-9.711,13.759-10.719,19.477C308.886,522.386,315.004,522.483,320.421,520.879"/>
<path fill="none" stroke="#000000" stroke-width="2" d="M377.984,523.28c-0.355-5.118-0.328-10.421,0.682-15.463
	c1.256-6.286,6.385-11.716,11.025-4.367c0.984,1.561,6.867,16.96,3.129,17.537C387.875,521.752,382.931,522.517,377.984,523.28z"/>
<path fill="none" stroke="#000000" stroke-width="2" d="M356.66,524.117c-1.1-5.948-4.916-31.412,7.407-28.169
	c8.32,2.19,9.826,16.71,10.338,23.451c0.392,5.183-0.215,4.291-4.891,4.584C365.287,524.251,360.883,524.639,356.66,524.117"/>
<path fill="none" stroke="#000000" stroke-width="2" d="M434.449,511.188c-1.148-4.956-2.633-26.103,8.168-21.52
	c6.901,2.929,5.924,17.846,5.665,23.887C443.697,513.013,438.867,512.584,434.449,511.188"/>
<path fill="none" stroke="#000000" stroke-width="2" d="M453.173,513.554c-0.62-5.149-0.441-10.705,1.223-15.646
	c1.364-4.052,9.755-14.033,13.179-6.434c2.372,5.271,0.943,12.525-0.014,17.984c-0.197,1.125-0.013,3.046-1.287,3.181
	C461.931,513.098,457.543,513.554,453.173,513.554"/>
<path fill="none" stroke="#000000" stroke-width="2" d="M371.838,318.58c9.955-13.607,26.641-23.306,43.619-23.491
	c25.736-0.281,40.501,19.956,44.832,43.4c3.89,21.057,1.872,43.057-16.033,56.931c-19.419,15.051-48.002,17.403-64.626-2.981
	C363.214,372.307,363.313,342.119,371.838,318.58"/>
<path fill="none" stroke="#000000" stroke-width="2" d="M362.815,408.191c0,11.332-23.776,11.332-23.776,0
	S362.815,396.861,362.815,408.191"/>
<path fill="none" stroke="#000000" stroke-width="2" d="M293.83,404.107c0,11.332-23.776,11.332-23.776,0
	C270.054,392.775,293.83,392.775,293.83,404.107"/>
<path fill="none" stroke="#000000" stroke-width="2" d="M334.828,462.329c3.745-9.876,7.848-20.18,9.548-30.64
	C356.903,440.003,350.223,463.171,334.828,462.329"/>
<path fill="none" stroke="#000000" stroke-width="2" d="M342.067,380.6c0,12.718-14.48,12.718-14.48,0
	C327.588,367.884,342.067,367.884,342.067,380.6"/>
<path fill="none" stroke="#000000" stroke-width="2" d="M292.553,380.6c0,12.718-14.481,12.718-14.481,0
	C278.072,367.884,292.553,367.884,292.553,380.6"/>
<path fill="none" stroke="#000000" stroke-width="2" d="M335.877,378.315c0,6.618-7.535,6.618-7.535,0
	C328.342,371.699,335.877,371.699,335.877,378.315"/>
<path fill="none" stroke="#000000" stroke-width="2" d="M285.709,378.315c0,6.618-7.535,6.618-7.535,0
	C278.174,371.699,285.709,371.699,285.709,378.315"/>
<path fill="none" stroke="#000000" stroke-width="2" d="M481.036,369.849c-0.809-12.437,0.88-24.864-1.509-37.185
	c-1.515-7.802-3.319-15.516-6.956-22.644c-11.7-22.941-40.75-35.753-65.744-31.937c-12.493,1.908-24.878,7.611-35.068,15.585
	c-16.757-16.041-41.343-19.85-63.794-19.015c-22.87,0.853-45.4,9.311-57.984,29.358c-9.034,14.394-12.104,32.142-11.062,48.927
	c1.422,22.93,16.949,40.441,24.984,60.797c-9.963,9.146-30.358,29.829-17.85,32.747c6.512,1.519,14.694-1.189,21.345-4.756
	c-1.576,6.043-5.192,11.206-11.878,12.484c-9.967,1.904-20.539-4.391-26.168-12.229c-4.332-6.03-7.134-13.455-7.744-20.863
	c-0.479-5.839,1.136-9.191,3.649-14.018c3.955-7.595,0.415-17.953-8.143-20.675c-8.2-2.608-10.344,6.48-12.27,12.004
	c-2.667,7.646-7.72,8.712-14.905,9.623c-4.625,0.587-11.802,1.993-12.358,7.749c-1.188,12.301,13.6,19.537,23.399,14.243
	c2.583,13.397,8.878,26.658,17.347,37.288c16.825,21.115,42.361,27.937,68.336,23.289c25.768-4.607,52.841-18.11,69.512-38.716
	c3.069-3.795,5.837-7.948,8.407-12.264c3.208,3.493,7.023,6.5,10.218,8.538c8.372,5.342,12.264-0.031,13.516-8.637
	c0.919-6.315,0.446-15.582-3.681-21.453c20.9,20.799,56.533,21.814,82.514,7.561c10.676-5.856,19.856-15.627,20.416-28.35
	C488,387.433,481.671,379.618,481.036,369.849z M378.378,413.274c0.25-0.523,0.518-1.038,0.764-1.564
	c0.906,1.242,1.869,2.415,2.859,3.554C380.946,414.421,379.744,413.743,378.378,413.274z"/>
<path fill="none" stroke="#000000" stroke-width="2" d="M357.946,427.674c-1.446-9.869,11.784-17.193,20.209-14.48
	c10.045,3.231,11.431,17.616,10.16,26.352c-1.252,8.605-5.144,13.979-13.516,8.637C368.275,444.02,359.142,435.825,357.946,427.674"
	/>
<path fill="none" stroke="#000000" stroke-width="2" d="M268.359,409.803c-4.587,3.774-37.399,33.16-22.307,36.681
	c8.911,2.078,20.959-3.749,27.915-8.875C283.303,430.725,279.154,413.38,268.359,409.803"/>
<path fill="none" stroke="#000000" stroke-width="2" d="M238.918,352.939c-0.712-11.483,0.502-23.415,4.231-34.417
	c-5.929-3.084-12.349-5.479-18.987-6.404c-12.487-1.738-21.088,3.202-25.985,14.697c-0.681,1.598-1.283,3.229-1.814,4.888
	c-14.208,0.446-28.252,0.831-42.126,1.164c-14.09,0.338-28.233,0.507-42.434,0.507c0-26.596,0.222-53.196,0.676-79.797
	c0.449-26.596,0.449-53.423,0-80.473c0-3.153-0.961-6.028-2.874-8.622c-1.917-2.589-4.285-4.618-7.101-6.086
	c-2.821-1.463-5.864-2.367-9.129-2.705c-3.271-0.338-6.255,0.058-8.96,1.184c-3.159,1.353-5.637,2.99-7.439,4.903
	c-1.807,1.917-3.101,4.961-3.889,9.129c-0.792,4.174-1.3,9.921-1.521,17.244c-0.228,7.328-0.338,16.964-0.338,28.91
	c0,6.763,0,14.539,0,23.331c0,8.791-0.058,17.751-0.169,26.88c-0.116,9.129-0.227,18.089-0.338,26.881
	c-0.116,8.792-0.169,16.568-0.169,23.331c0,3.381-0.057,7.607-0.168,12.68c-0.117,5.071,0,10.143,0.338,15.215
	c0.338,5.072,1.125,9.922,2.366,14.539c1.236,4.623,3.212,8.057,5.917,10.313c3.154,2.927,6.874,4.396,11.158,4.396
	c4.279,0,8.453-0.116,12.51-0.338c16.229-0.227,29.866-0.338,40.913-0.338c11.042,0,20.171,0,27.387,0
	c7.212,0,12.849-0.058,16.907-0.169c2.575-0.074,4.783-0.259,6.631-0.557c1.478,9.449,4.185,19.122,9.597,26.996
	c0.26-0.558,0.509-1.142,0.735-1.789c1.926-5.524,4.07-14.612,12.27-12.004c8.558,2.722,12.098,13.081,8.143,20.675
	c-1.266,2.43-2.302,4.486-2.96,6.675c10.857,3.245,23.271,1.137,33.04-5.181c1.748-1.131,3.254-2.394,4.567-3.759
	C251.571,388.065,240.13,372.467,238.918,352.939z"/>
<path fill="none" stroke="#000000" stroke-width="2" d="M199.038,332.361c5.183,2.483,9.129,5.637,11.834,9.467
	c2.705,3.835,4,7.724,3.889,11.666c-0.116,3.946-1.58,7.666-4.396,11.158c-2.821,3.492-7.159,6.139-13.018,7.945
	c-2.256,0.676-5.409,1.067-9.467,1.184c-4.058,0.111-9.695,0.169-16.907,0.169c-7.216,0-16.346,0-27.387,0
	c-11.047,0-24.684,0.111-40.913,0.338c-4.058,0.222-8.231,0.338-12.51,0.338c-4.285,0-8.004-1.469-11.158-4.396
	c-2.705-2.256-4.681-5.69-5.917-10.313c-1.241-4.617-2.028-9.467-2.366-14.539c-0.338-5.072-0.455-10.144-0.338-15.215
	c0.111-5.072,0.168-9.298,0.168-12.68c0-6.763,0.053-14.539,0.169-23.331c0.111-8.792,0.222-17.751,0.338-26.881
	c0.111-9.129,0.169-18.089,0.169-26.88c0-8.792,0-16.568,0-23.331c0-11.946,0.111-21.582,0.338-28.91
	c0.222-7.323,0.729-13.07,1.521-17.244c0.788-4.168,2.082-7.212,3.889-9.129c1.802-1.913,4.28-3.55,7.439-4.903
	c2.705-1.125,5.69-1.521,8.96-1.184c3.265,0.338,6.308,1.242,9.129,2.705c2.816,1.469,5.183,3.498,7.101,6.086
	c1.913,2.594,2.874,5.468,2.874,8.622c0.449,27.05,0.449,53.877,0,80.473c-0.454,26.601-0.676,53.201-0.676,79.797
	c14.201,0,28.344-0.169,42.434-0.507c14.085-0.338,28.344-0.729,42.773-1.184L199.038,332.361z"/>
</svg>
