<?xml version="1.0" encoding="utf-8"?>
<!-- Generator: Adobe Illustrator 16.0.0, SVG Export Plug-In . SVG Version: 6.00 Build 0)  -->
<!DOCTYPE svg PUBLIC "-//W3C//DTD SVG 1.1//EN" "http://www.w3.org/Graphics/SVG/1.1/DTD/svg11.dtd">
<svg version="1.1" id="Layer_1" xmlns="http://www.w3.org/2000/svg" xmlns:xlink="http://www.w3.org/1999/xlink" x="0px" y="0px"
	 width="612px" height="612px" viewBox="0 90 612 612" enable-background="new 0 90 612 612" xml:space="preserve">
<path fill="none" stroke="#231F20" stroke-width="2" stroke-miterlimit="10" d="M252.562,224.822
	c7.325,30.897,13.523,62.461,17.201,94.057c10.071-7.923,21.055-15.492,32.384-21.626c-15.355-5.552-9.487-22.394-1.329-36.064
	c-0.866-4.004-1.708-7.953-2.493-11.827c-3.15-16.487-6.704-32.895-10.838-49.165c-3.633-14.294-5.79-32.387-12.915-45.342
	c-8.29-15.073-25.487-14.895-35.378-2.134c-8.843,11.409-11.945,28.439-16.848,41.844c-10.775,29.462-22.127,58.833-33.782,87.958
	c-13.652-25.594-26.267-51.695-39.13-77.688c-8.618-17.415-17.363-47.354-34.487-58.271c-22.193-13.304-29.762,16.593-31.101,31.495
	c-2.349,26.146-4.906,52.271-7.353,78.408c-2.482,26.521-6.122,53.067-7.911,79.632c-0.678,10.07-0.301,19.958,9.831,25.178
	c9.543,4.917,21.435,1.675,26.916-7.459c9.265-13.911,6.62-38.377,7.627-54.383c2.215-22.641,3.742-45.34,5.969-67.98
	c12.004,23.726,24.087,47.411,36.241,71.061c8.46,16.461,17.424,52.053,41.851,45.126c18.901-5.359,25.013-41.331,31.006-57.161
	C235.939,268.497,243.879,246.518,252.562,224.822z"/>
<path fill="none" stroke="#000000" stroke-width="2" d="M184.509,665.148c2.806,5.41-4.07,5.494-6.616,2.139
	c-3.752-4.95-5.628-11.725-5.82-17.832c-0.206-6.557,1.285-12.341,4.327-18.031c0.794-1.409,7.612-9.935,8.257-3.357
	c0.409,4.211-5.69,11.547-6.267,16.464C177.545,651.707,178.597,660.318,184.509,665.148z"/>
<path fill="none" stroke="#000000" stroke-width="2" d="M194.01,662.537c-6.726,4.866-4.775-18.854-4.775-20.991
	c0-12.974,6.382-15.821,6.068,0.324c11.001-7.438,15.185,6.438,14.848,14.674c-0.438,10.718-7,6.099-6.193-2.537
	c0.686-7.328-3.172-9.689-7.86-4.229C194.134,653.067,197.474,660.02,194.01,662.537
	C193.347,663.018,194.673,662.056,194.01,662.537z"/>
<path fill="none" stroke="#000000" stroke-width="2" d="M213.409,649.629c3.608-14.99,24.453-12.499,20.991,3.83
	C231.043,669.246,209.667,665.003,213.409,649.629z"/>
<path fill="none" stroke="#000000" stroke-width="2" d="M219.378,650.674c-1.045,5.561,4.054,10.744,8.008,4.054
	C232.36,646.324,222.212,641.33,219.378,650.674C219.278,651.205,219.609,649.911,219.378,650.674z"/>
<path fill="none" stroke="#000000" stroke-width="2" d="M260.016,657.638c1.913,2.764-1.461,6.79-4.278,3.979
	c-4.089-4.08-16.711,5.552-17.434-9.153c-0.143-2.92-0.732-8.531,0.499-11.54c2.979-7.297,5.727,4.111,5.57,5.919
	c-0.277,3.196,0.887,13.895,6.541,7.859c2.945-3.372,0.268-8.609,1.616-12.857C256.383,629.711,259.991,657.604,260.016,657.638
	C260.314,658.068,259.451,656.842,260.016,657.638z"/>
<path fill="none" stroke="#000000" stroke-width="2" d="M263.446,658.185c-3.353-9.496,10.734,1.409,11.74-1.94
	c1.061-3.564-8.157-4.451-9.899-7.062c-4.778-7.045,3.787-13.11,10.247-11.168c14.339,4.28-6.697,7.111-4.774,8.185
	c5.219,2.817,13.905,3.928,9.749,12.732C276.91,666.547,267.35,663.467,263.446,658.185z"/>
<path fill="none" stroke="#000000" stroke-width="2" d="M302.99,654.853c6.371-1.594,3.062,5.515-0.796,6.864
	c-9.81,3.607-19.326-2.316-17.111-13.38c3.582-17.976,37.089-2.587,6.666,7.212C294.601,658.808,300.053,656.856,302.99,654.853z"/>
<path fill="none" stroke="#000000" stroke-width="2" d="M292.943,646.296c-1.588,0.98-2.417,2.423-2.487,4.327
	C298.162,648.257,302.978,641.501,292.943,646.296z"/>
<path fill="none" stroke="#000000" stroke-width="2" d="M340.444,647.291c-3.147-5.68-6.466-1.567-6.466,2.93
	c0,2.021,1.063,7.908,0,9.654c0,6.93-6.045,1.495-6.087-3.495c-0.032-3.727-1.853-14.46,0.641-17.248
	c1.702-1.908,11.097-0.74,12.976,0.242c4.545,2.375,17.143-5.146,17.143,7.773c0,1.14,1.074,21.733-5.322,14.914
	c-2.988-3.189,2.851-18.116-3.78-17.758c-6.95,0.396-0.46,14.011-3.905,17.559C339.279,668.403,340.485,649.505,340.444,647.291z"/>
<path fill="none" stroke="#000000" stroke-width="2" d="M361.684,649.629c3.616-14.987,24.453-12.5,20.991,3.83
	C379.317,669.245,357.941,665.003,361.684,649.629z"/>
<path fill="none" stroke="#000000" stroke-width="2" d="M367.653,650.674c-1.046,5.559,4.056,10.746,8.008,4.054
	C380.635,646.326,370.487,641.329,367.653,650.674C367.553,651.205,367.884,649.911,367.653,650.674z"/>
<path fill="none" stroke="#000000" stroke-width="2" d="M408.291,657.638c1.915,2.763-1.462,6.791-4.276,3.979
	c-4.087-4.077-16.717,5.552-17.435-9.153c-0.143-2.925-0.73-8.527,0.497-11.54c2.979-7.299,5.728,4.114,5.571,5.919
	c-0.277,3.201,0.885,13.89,6.542,7.859c2.947-3.374,0.264-8.607,1.616-12.857C404.648,629.706,408.271,657.609,408.291,657.638
	C408.59,658.068,407.728,656.842,408.291,657.638z"/>
<path fill="none" stroke="#000000" stroke-width="2" d="M411.722,658.185c-3.352-9.492,10.729,1.403,11.74-1.94
	c1.066-3.559-8.16-4.456-9.898-7.062c-4.778-7.045,3.785-13.11,10.245-11.168c14.341,4.284-6.699,7.11-4.774,8.185
	c5.222,2.817,13.902,3.926,9.75,12.732C425.184,666.544,415.627,663.469,411.722,658.185z"/>
<path fill="none" stroke="#000000" stroke-width="2" d="M451.266,654.853c6.37-1.594,3.06,5.515-0.798,6.864
	c-9.806,3.608-19.33-2.317-17.11-13.38c3.582-17.972,37.087-2.592,6.666,7.212C442.874,658.809,448.328,656.855,451.266,654.853z"/>
<path fill="none" stroke="#000000" stroke-width="2" d="M441.218,646.296c-1.589,0.98-2.417,2.423-2.487,4.327
	C446.438,648.256,451.253,641.501,441.218,646.296z"/>
<path fill="none" stroke="#000000" stroke-width="2" d="M456.986,664.502c6.547-6.576,7.271-17.879,4.129-26.312
	c-1.068-2.877-4.747-5.966-4.924-9.053c-0.132-3.406,4.219-4.47,5.771-1.492c7.664,10.812,8.983,23.643,3.308,35.889
	C462.629,669.222,453.033,672.444,456.986,664.502z"/>
<path fill="none" stroke="#000000" stroke-width="2" d="M170.158,607.523c-1.132,8.293-8.01,2.37-8.521-2.772
	c-0.651-7.105-2.076-14.231-3.719-21.166c-2.269,5.671-5.135,21.854-10.346,24.648c-7.541,4.036-14.527-18.594-16.907-23.296
	c-0.739,7.518-0.785,15.233-1.995,22.688c-0.579,3.541-4.859,6.069-7.574,2.705c-2.902-3.599,0.461-15.427,0.854-19.627
	c0.295-3.169-0.263-27.967,7.904-23.077c7.119,4.538,10.995,20.193,15.013,27.726c2.049-5.12,8.204-30.841,15.114-28.233
	C168.225,570.257,169.432,599.821,170.158,607.523z"/>
<path fill="none" stroke="#000000" stroke-width="2" d="M203.226,604.007c4.008,5.797-4.167,8.237-7.845,2.976
	c-7.701,6.323-18.618,2.994-21.175-6.712c-1.361-5.165-0.329-10.663-0.329-15.908c0-5.272,7.903-8.207,8.25-1.995
	c0.189,4.858-2.813,16.847,2.976,19.611c9.423,4.102,7.199-13.45,7.405-16.534c0.27-4.055,6.161-10.51,8.352-3.956
	C203.296,588.809,198.09,596.765,203.226,604.007C203.631,604.594,202.459,602.925,203.226,604.007z"/>
<path fill="none" stroke="#000000" stroke-width="2" d="M207.89,604.751c-4.973-14.09,17.186,4.556,16.061-4.092
	c-0.735-5.63-14.101-3.318-15.081-12.172c-1.25-11.196,10.616-13.449,18.562-10.042c6.977,3.202,1.75,9.296-4.193,7.168
	c-5.315-2.062-9.131,2.338-1.961,4.193C244.365,595.802,222.614,624.982,207.89,604.751z"/>
<path fill="none" stroke="#000000" stroke-width="2" d="M279.03,589.941c-2.687-10.32-8.791,0.204-8.791,4.997
	c0,2.92,1.289,9.461,0,12.111c0,3.462-3.828,6.023-6.83,3.889c-3.086-2.19-1.469-12.037-1.454-14.91
	c0.021-4.188-2.587-16.89,2.908-18.462c4.381-1.252,14.894,0.245,18.833,3.922c12.235-12.234,20.084,3.781,20.084,14.568
	c0,2.36,1.176,8.621,0,10.723c0,5.471-8.25,6.227-8.25,0.339c-1.117-2.148,3.146-27.337-6.458-20.355
	c-6.344,4.619,3.849,22.298-5.579,24.548C276.793,612.905,279.096,593.567,279.03,589.941z"/>
<path fill="none" stroke="#000000" stroke-width="2" d="M338.269,604.007c4.007,5.796-4.168,8.239-7.845,2.976
	c-7.701,6.323-18.618,2.994-21.175-6.712c-1.361-5.165-0.33-10.664-0.33-15.908c0-5.272,7.902-8.207,8.25-1.995
	c0.189,4.858-2.812,16.847,2.976,19.611c9.422,4.103,7.199-13.451,7.405-16.534c0.27-4.056,6.158-10.509,8.352-3.956
	C338.335,588.809,333.131,596.767,338.269,604.007C338.674,604.594,337.501,602.925,338.269,604.007z"/>
<path fill="none" stroke="#000000" stroke-width="2" d="M342.933,604.751c-4.969-14.095,17.186,4.558,16.062-4.092
	c-0.734-5.63-14.101-3.319-15.081-12.172c-1.248-11.196,10.615-13.45,18.562-10.042c6.977,3.2,1.75,9.297-4.192,7.168
	c-5.315-2.062-9.131,2.338-1.961,4.193C379.407,595.805,357.656,624.981,342.933,604.751z"/>
<path fill="none" stroke="#000000" stroke-width="2" d="M389.999,600.829c6.215-3.974,8.714,4.362,3.618,7.845
	c-6.082,4.148-14.245,3.283-18.833-2.536c-10.616-13.451,6.254-38.729,21.741-25.461c11.161,9.566-9.533,4.646-10.009,4.7
	C375.477,586.602,379.883,610.656,389.999,600.829z"/>
<path fill="none" stroke="#000000" stroke-width="2" d="M432.332,604.007c4.008,5.796-4.168,8.239-7.844,2.976
	c-7.702,6.323-18.618,2.995-21.176-6.712c-1.361-5.165-0.329-10.664-0.329-15.908c0-5.272,7.901-8.207,8.249-1.995
	c0.191,4.858-2.813,16.846,2.976,19.611c9.423,4.103,7.2-13.451,7.405-16.534c0.271-4.056,6.158-10.509,8.352-3.956
	C432.398,588.809,427.195,596.767,432.332,604.007C432.738,604.594,431.564,602.925,432.332,604.007z"/>
<path fill="none" stroke="#000000" stroke-width="2" d="M448.492,605.089c7.587,6.91-8.792,10.757-8.792,1.623
	c-2.82-6.165,0-20.051,0-26.806c0-2.402,0.889-23.101,7.812-12.483C452.625,575.303,446.569,596.382,448.492,605.089z"/>
<path fill="none" stroke="#000000" stroke-width="2" d="M484.062,604.007c4.008,5.796-4.168,8.239-7.844,2.976
	c-7.702,6.323-18.618,2.995-21.176-6.712c-1.361-5.165-0.329-10.664-0.329-15.908c0-5.272,7.901-8.207,8.249-1.995
	c0.191,4.858-2.812,16.846,2.976,19.611c9.423,4.103,7.2-13.451,7.405-16.534c0.271-4.056,6.158-10.509,8.352-3.956
	C484.13,588.809,478.926,596.767,484.062,604.007C484.469,604.594,483.295,602.925,484.062,604.007z"/>
<path fill="none" stroke="#000000" stroke-width="2" d="M488.727,604.751c-4.97-14.095,17.186,4.558,16.061-4.092
	c-0.734-5.63-14.1-3.319-15.08-12.172c-1.248-11.196,10.614-13.45,18.562-10.042c6.977,3.2,1.75,9.297-4.192,7.168
	c-5.316-2.062-9.132,2.338-1.961,4.193C525.202,595.805,503.45,624.981,488.727,604.751z"/>
<path fill="none" stroke="#231F20" stroke-width="2" stroke-miterlimit="10" d="M420.824,336.8c0,0-6.2-5.355-7.326-21.133
	c-1.127-15.775,16.907-36.906,34.375-34.371c17.468,2.536,30.146,35.497,23.102,55.503
	C463.934,356.806,435.195,349.194,420.824,336.8z"/>
<path fill="none" stroke="#231F20" stroke-width="2" stroke-miterlimit="10" d="M343.629,313.342c11.185,0,11.185,25.994,0,25.994
	C332.442,339.336,332.442,313.342,343.629,313.342z"/>
<path fill="none" stroke="#231F20" stroke-width="2" stroke-miterlimit="10" d="M342.283,321.831c0,2.486,1.271,4.509,2.837,4.509
	c1.568,0,2.841-2.021,2.841-4.509c0-2.492-1.271-4.512-2.841-4.512C343.554,317.319,342.283,319.339,342.283,321.831z"/>
<path fill="none" stroke="#231F20" stroke-width="2" stroke-miterlimit="10" d="M300.797,318.626c0,5.486,2.083,9.932,4.649,9.932
	c2.566,0,4.649-4.445,4.649-9.932c0-5.484-2.083-9.93-4.649-9.93S300.797,313.143,300.797,318.626z"/>
<path fill="none" stroke="#231F20" stroke-width="2" stroke-miterlimit="10" d="M304.348,314.147c0,1.811,0.688,3.277,1.536,3.277
	c0.846,0,1.533-1.467,1.533-3.277c0-1.809-0.688-3.274-1.533-3.274C305.036,310.873,304.348,312.339,304.348,314.147z"/>
<path fill="none" stroke="#231F20" stroke-width="2" stroke-miterlimit="10" d="M327.267,362.157
	c12.917,0,31.885,5.92,37.347-11.412c2.7,7.98,1.341,17.328-5.305,22.999C340.809,389.534,333.298,379.257,327.267,362.157z"/>
<path fill="none" stroke="#231F20" stroke-width="2" stroke-miterlimit="10" d="M370.911,341.345c0,2.989,4.417,5.418,9.868,5.418
	c5.449,0,9.866-2.429,9.866-5.418c0-2.995-4.417-5.422-9.866-5.422C375.33,335.922,370.911,338.351,370.911,341.345z"/>
<path fill="none" stroke="#231F20" stroke-width="2" stroke-miterlimit="10" d="M447.516,410.516c0,4.068,3.297,7.367,7.36,7.367
	c4.069,0,7.366-3.299,7.366-7.367c0-4.063-3.297-7.362-7.366-7.362C450.812,403.153,447.516,406.452,447.516,410.516z"/>
<path fill="none" stroke="#231F20" stroke-width="2" stroke-miterlimit="10" d="M269.342,410.516c0,4.068,3.297,7.367,7.365,7.367
	c4.067,0,7.362-3.299,7.362-7.367c0-4.063-3.294-7.362-7.362-7.362C272.637,403.153,269.342,406.452,269.342,410.516z"/>
<path fill="none" stroke="#231F20" stroke-width="2" stroke-miterlimit="10" d="M352.682,507.858
	c18.625-0.347,33.332-22.889,32.819-50.348c-0.512-27.458-16.052-49.424-34.674-49.075c-18.638,0.348-33.349,22.878-32.831,50.336
	C318.508,486.233,334.047,508.207,352.682,507.858z"/>
<path fill="none" stroke="#231F20" stroke-width="2" stroke-miterlimit="10" d="M564.167,359.419
	c-6.871-29.93-33.389-37.57-61.833-36.036c0.247-19.561-5.602-39.369-17.056-54.853c-30.802-41.636-95.625-12.775-90.656,36.994
	c-2.436-3.151-4.985-5.912-7.623-8.348c5.92-15.996,8.046-34.915,0.432-50.393c-16.928-34.412-55.247-26.145-75.638-1.169
	c-9.067,11.106-32.153,43.501-9.646,51.639c-20.44,11.069-39.771,26.799-54.608,40.876c-2.285-1.163-4.943-1.842-7.792-1.842
	c-8.464,0.001-15.328,5.898-15.328,13.169c0,7.272,6.864,13.167,15.328,13.167c2.592,0,5.031-0.557,7.171-1.532
	c18.896,18.203,46.716,29.153,72.44,33.845c-1.013,4.185-2.811,11.7-4.935,20.926c-4.011-2.009-18.139-9.225-26.913-15.487
	c-10.305-7.355-30.592-4.821-22.423,16.034c6.22,15.869,31.211,25.371,42.792,29.005c-2.801,13.268-5.434,26.762-7.083,37.619
	c-2.741,18.041-1.157,35.462,8.674,47.668c-7.849,1.859-13.529,7.229-13.529,13.569c0,7.876,8.767,14.269,19.579,14.269
	c10.188,0,18.553-5.674,19.489-12.915c5.77,1.344,12.364,2.07,19.883,2.07c1.23,0,2.455-0.027,3.675-0.069
	c2.104,6.26,9.931,10.914,19.289,10.914c10.97,0,19.864-6.388,19.864-14.269c0-2.163-0.688-4.205-1.886-6.041
	c14.458-7.733,25.84-20.368,31.718-38.48C482.739,461.014,583.87,445.232,564.167,359.419z M431.845,474.543
	c0.386-9.456-0.362-19.905-2.406-31.383c12.638-4.655,30.981-13.475,36.186-26.752c8.171-20.855-12.116-23.39-22.422-16.034
	c-6.087,4.346-14.757,9.152-20.835,12.358c-4.044-15.163-7.57-25.226-10.56-31.829c5.125-4.927,8.575-11.205,9.442-19.168
	c20.151,17.734,61.058,24.521,73.788-4.039c3.572-8.015,5.81-16.658,6.767-25.497c52.85,2.269,60.587,42.963,25.122,80.762
	C488.264,454.174,463.753,448.789,431.845,474.543z"/>
<path fill="none" stroke="#231F20" stroke-width="2" stroke-miterlimit="10" d="M485.278,268.53
	c-30.802-41.637-95.625-12.775-90.656,36.994c-39.882-51.594-108.598-3.909-147.083,32.604c-2.286-1.163-4.943-1.842-7.793-1.842
	c-8.464,0.002-15.328,5.898-15.328,13.17s6.864,13.166,15.328,13.166c2.592,0,5.03-0.557,7.171-1.532
	c22.658,21.827,58.158,33.234,87.47,35.92c25.564,2.341,82.918,0.943,86.863-35.275c20.151,17.734,61.058,24.521,73.788-4.039
	C507.625,329.456,503.683,293.409,485.278,268.53z"/>
<path fill="none" stroke="#231F20" stroke-width="2" stroke-miterlimit="10" d="M375.502,288.951
	c4.501-24.327-15.005-44.248-37.917-24.255c-7.221,6.3-12.282,15.659-10.132,21.78C344.242,281.456,360.852,281.173,375.502,288.951
	z"/>
<path fill="none" stroke="#231F20" stroke-width="2" stroke-miterlimit="10" d="M224.418,349.456
	c0,7.271,6.864,13.166,15.328,13.166c8.469,0,15.333-5.895,15.333-13.166s-6.863-13.17-15.333-13.17
	C231.282,336.288,224.418,342.185,224.418,349.456z"/>
</svg>
