<?xml version="1.0" encoding="utf-8"?>
<!-- Generator: Adobe Illustrator 16.0.0, SVG Export Plug-In . SVG Version: 6.00 Build 0)  -->
<!DOCTYPE svg PUBLIC "-//W3C//DTD SVG 1.1//EN" "http://www.w3.org/Graphics/SVG/1.1/DTD/svg11.dtd">
<svg version="1.1" id="Layer_1" xmlns="http://www.w3.org/2000/svg" xmlns:xlink="http://www.w3.org/1999/xlink" x="0px" y="0px"
	 width="612px" height="612px" viewBox="0 90 612 612" enable-background="new 0 90 612 612" xml:space="preserve">
<path fill="none" stroke="#000000" stroke-width="2" d="M156.621,568.615c1.003-3.342,5.25-4.907,7.439-1.622
	c2.022,2.543,0.802,8.32,0.786,11.353c-0.051,9.655-0.382,19.312-0.921,28.951c0,7.292-7.548,1.774-9.188-0.84
	c-5.411-8.632-11.55-16.787-17.929-24.723c0,6.048,0,12.095,0,18.142c0,2.929,1.097,9.761-2.401,11.275
	c-7.073,3.054-5.714-8.102-5.714-11.359c0-5.278-3.356-33.13,3.787-33.609c4.545-0.297,8.064,6.876,10.564,9.933
	c4.611,5.642,9.053,11.372,13.171,17.387C156.489,585.21,156.314,576.894,156.621,568.615z"/>
<path fill="none" stroke="#000000" stroke-width="2" d="M199.428,605.74c1.126,4.091-3.229,6.749-6.594,4.058
	c-2.045-1.636-9.227,1.775-13.296,0.999c-12.645-2.41-11.507-17.99-4.928-25.885c5.684-6.947,21.572-12.399,21.572,0.677
	C196.182,593.168,196.095,598.906,199.428,605.74z"/>
<path fill="none" stroke="#000000" stroke-width="2" d="M185.091,602.697c3.762-2.392,3.118-2.869,2.795-7.146
	c-0.241-3.196-0.209-6.425-0.089-9.626C177.818,587.702,175.091,606.693,185.091,602.697
	C185.587,602.383,184.415,602.968,185.091,602.697z"/>
<path fill="none" stroke="#000000" stroke-width="2" d="M203.281,604.186c-1.027-2.911,0.463-6.439,3.99-6.085
	c2.78,0.254,4.293,3.619,6.965,4.462c2.155,0.682,7.615-0.191,4.599-3.719c-1.946-1.944-5.446-2.009-7.896-3.068
	c-16.273-7.032,0.952-27.632,13.306-16.998c2.003,1.724,2.766,5.944-0.279,7.1c-3.483,1.322-6.706-2.67-10.271-1.302
	c-5.839,1.488,9.132,6.864,9.84,7.304c7.507,4.677,3.878,16.927-3.746,19.164C213.792,612.801,206.612,609.202,203.281,604.186z"/>
<path fill="none" stroke="#000000" stroke-width="2" d="M261.776,603.441c1.687,2.439,0.455,6.795-2.976,6.627
	c-3.893-0.301-3.175-4.577-6.646-2.356c-6.667,4.268-14.583,1.839-18.239-5.015c-2.998-5.723-1.488-12.741-1.488-18.9
	c0-2.199,0.701-5.153,3.38-5.546c5.146-0.755,5.007,4.792,4.854,8.178c-0.164,3.616-1.976,15.507,4.553,15.296
	c7.528-0.244,5.605-9.364,5.74-14.041c0-2.859,0.034-7.425,3.026-9.002c3.159-1.665,5.765,1.323,5.765,4.403
	C259.747,589.82,257.503,597.415,261.776,603.441C262.182,604.028,261.009,602.359,261.776,603.441z"/>
<path fill="none" stroke="#000000" stroke-width="2" d="M295.723,605.74c1.127,4.091-3.229,6.749-6.594,4.058
	c-2.045-1.636-9.226,1.775-13.295,0.999c-12.646-2.41-11.507-17.99-4.929-25.885c5.684-6.947,21.572-12.399,21.572,0.677
	C292.477,593.168,292.389,598.906,295.723,605.74z"/>
<path fill="none" stroke="#000000" stroke-width="2" d="M281.386,602.697c3.762-2.392,3.118-2.869,2.794-7.146
	c-0.241-3.196-0.209-6.425-0.089-9.626C274.112,587.702,271.385,606.693,281.386,602.697
	C281.882,602.383,280.71,602.968,281.386,602.697z"/>
<path fill="none" stroke="#000000" stroke-width="2" d="M352.796,606.958c-0.377,3.148-4.823,6.094-7.202,2.891
	c-2.209-2.974-1.056-8.242-1.045-11.678c0.016-5.3,1.999-17.858-6.97-10.893c-4.238,3.449-3.178,8.645-3.178,13.497
	c0,2.692,0.65,5.844-0.811,8.279c-3.002,5-7.521-0.8-7.405-4.295c0.131-4.11-0.035-8.23-0.035-12.342
	c0-3.149-1.47-10.531,0.881-13.152c3.103-3.462,5.748,0.97,8.624-0.402c4.204-2.003,9.774-2.42,13.62,0.594
	C355.476,584.316,352.796,600.01,352.796,606.958z"/>
<path fill="none" stroke="#000000" stroke-width="2" d="M387.825,605.74c1.125,4.091-3.229,6.75-6.594,4.058
	c-2.046-1.636-9.226,1.775-13.296,0.999c-12.643-2.41-11.511-17.99-4.929-25.885c5.684-6.948,21.571-12.398,21.571,0.677
	C384.578,593.168,384.491,598.906,387.825,605.74z"/>
<path fill="none" stroke="#000000" stroke-width="2" d="M373.488,602.697c3.762-2.392,3.117-2.869,2.794-7.146
	c-0.24-3.196-0.21-6.425-0.089-9.626C366.217,587.702,363.485,606.692,373.488,602.697
	C373.984,602.383,372.812,602.968,373.488,602.697z"/>
<path fill="none" stroke="#000000" stroke-width="2" d="M391.678,604.186c-1.028-2.911,0.464-6.439,3.99-6.085
	c2.78,0.254,4.294,3.619,6.967,4.462c2.155,0.682,7.612-0.191,4.599-3.719c-1.946-1.943-5.446-2.009-7.896-3.068
	c-16.274-7.033,0.953-27.632,13.306-16.998c2.003,1.724,2.767,5.944-0.279,7.1c-3.482,1.321-6.707-2.669-10.271-1.302
	c-5.839,1.488,9.133,6.864,9.84,7.304c7.506,4.679,3.879,16.926-3.746,19.164C402.189,612.801,395.008,609.202,391.678,604.186z"/>
<path fill="none" stroke="#000000" stroke-width="2" d="M450.173,603.441c1.688,2.439,0.454,6.795-2.976,6.627
	c-3.892-0.301-3.175-4.577-6.646-2.356c-6.668,4.268-14.582,1.839-18.24-5.015c-2.997-5.723-1.487-12.741-1.487-18.9
	c0-2.199,0.701-5.153,3.38-5.546c5.146-0.755,5.008,4.792,4.854,8.178c-0.163,3.615-1.976,15.507,4.553,15.296
	c7.528-0.244,5.605-9.364,5.74-14.041c0-2.859,0.035-7.425,3.026-9.002c3.158-1.665,5.765,1.324,5.765,4.403
	C448.145,589.821,445.9,597.414,450.173,603.441C450.579,604.028,449.405,602.359,450.173,603.441z"/>
<path fill="none" stroke="#000000" stroke-width="2" d="M484.119,605.74c1.127,4.092-3.229,6.749-6.593,4.058
	c-2.046-1.636-9.226,1.775-13.296,0.999c-12.646-2.41-11.506-17.988-4.93-25.885c5.686-6.947,21.572-12.399,21.572,0.677
	C480.873,593.168,480.786,598.906,484.119,605.74z"/>
<path fill="none" stroke="#000000" stroke-width="2" d="M469.783,602.697c3.762-2.389,3.118-2.871,2.794-7.146
	c-0.241-3.196-0.21-6.425-0.089-9.626C462.508,587.703,459.784,606.693,469.783,602.697
	C470.279,602.383,469.107,602.968,469.783,602.697z"/>
<path fill="none" stroke="#000000" stroke-width="2" d="M127.018,667.498c2.359,4.553-2.724,6.136-5.561,3.5
	c-2.598-2.413-4.129-6.178-5.269-9.463c-3.661-10.551-1.615-20.994,3.703-30.452c3.261-5.796,9.835-2.895,5.681,2.84
	c-2.161,2.983-3.625,6.026-4.337,9.631C119.655,651.569,120.187,661.953,127.018,667.498z"/>
<path fill="none" stroke="#000000" stroke-width="2" d="M131.025,648.149c0.2-1.323-4.701-8.942,2.257-6.923
	c4.719,1.378,10.315-4.008,14.937,1.191c1.3,1.461,1.131,4.146-0.71,5.123c-1.99,1.058-3.164-0.717-4.717-1.496
	c-3.109-0.773-5.63,2.675-5.63,5.267c0,3.317,0,6.636,0,9.954c0,4.269-6.187,6.339-6.187,1.211
	C129.784,659.116,130.477,651.699,131.025,648.149C131.059,647.93,130.991,648.37,131.025,648.149z"/>
<path fill="none" stroke="#000000" stroke-width="2" d="M152.072,633.518c0.474-4.402,6.808-4.715,6.949-0.102
	C159.296,638.134,152.442,638.148,152.072,633.518z"/>
<path fill="none" stroke="#000000" stroke-width="2" d="M158.767,662.376c-0.562,5.575-6.431,2.546-6.264-1.851
	c0.206-5.599-1.379-12.614-0.025-18.031c0.467-1.688,2.145-2.966,3.93-2.535c2.991,0.727,2.257,5.066,2.257,7.202
	C158.665,652.232,158.767,657.304,158.767,662.376z"/>
<path fill="none" stroke="#000000" stroke-width="2" d="M184.633,662.478c-0.369,3.079-4.836,4.636-5.934,1.065
	c-1.065-3.313-0.261-7.842-0.229-11.285c0.012-1.255,0.458-4.865-0.532-5.857c-2.919-0.76-7.101,2.222-7.101,5.325
	c-0.645,2.497-0.088,6.157,0.051,8.774c0.358,6.884-6.188,5.295-6.188-0.913c0-5.342-0.051-10.684-0.051-16.026
	c0-3.199,4.169-3.771,5.731-1.369c3.141-2.043,7.703-2.857,11.031-0.749C186.729,644.812,184.633,657.143,184.633,662.478z"/>
<path fill="none" stroke="#000000" stroke-width="2" d="M191.023,674.396c-4.099-5.057,2.833-5.229,5.782-3.754
	c5.104,2.377,8.115-0.829,8.115-5.73c-10.088,3.463-18.222-4.611-15.602-15.044c0.995-3.961,3.797-7.152,7.728-8.395
	c1.706-0.539,3.519-0.668,5.238-0.095c1.278,0.402,2.495,0.943,3.652,1.622c1.109-0.92,2.261-1.106,3.455-0.558
	c4.284,2.364,2.474,23.733,1.135,28.047C207.853,679.075,197.19,678.644,191.023,674.396z"/>
<path fill="none" stroke="#000000" stroke-width="2" d="M197.008,658.927c5.854,2.794,11.215-3.608,7.912-9.078
	C198.105,643.04,192.257,652.621,197.008,658.927C198.495,659.637,196.906,658.792,197.008,658.927z"/>
<path fill="none" stroke="#000000" stroke-width="2" d="M216.179,656.595c-6.615-1.575-0.652-6.188,3.195-6.188
	c3.158-0.06,11.414-1.907,13.288,1.698C235.928,658.421,219.55,656.595,216.179,656.595z"/>
<path fill="none" stroke="#000000" stroke-width="2" d="M241.081,646.907c-5.702-1.419-1.748-6.136,2.282-6.136
	c0-2.242-0.843-12.778,4.532-9.618c2.948,1.732,1.655,6.856,1.655,9.618c2.345-0.326,10.294,1.387,5.883,5.122
	c-3.113,2.568-5.865-1.523-5.89,3.855c-0.017,3.595-0.227,7.269,0.133,10.853c0.684,6.887-6.529,4.763-6.263-1.825
	C243.414,655.957,244.919,645.957,241.081,646.907z"/>
<path fill="none" stroke="#000000" stroke-width="2" d="M277.7,661.564c1.685,6.112-5.772,2.117-7.284,2.936
	c-2.638,1.427-6.264,1.428-9.047,0.488c-9.175-3.098-6.341-15.449-0.828-20.601c4.743-4.431,14.725-6.574,14.725,2.063
	C275.266,652.289,275.163,656.362,277.7,661.564z"/>
<path fill="none" stroke="#000000" stroke-width="2" d="M266.948,659.281c4.036-2.562,1.858-8.024,2.028-12.578
	C261.354,648.061,259.598,662.228,266.948,659.281C267.32,659.045,266.441,659.485,266.948,659.281z"/>
<path fill="none" stroke="#000000" stroke-width="2" d="M281.402,633.518c0.474-4.402,6.808-4.715,6.949-0.102
	C288.626,638.134,281.771,638.148,281.402,633.518z"/>
<path fill="none" stroke="#000000" stroke-width="2" d="M288.097,662.376c-0.562,5.575-6.431,2.546-6.264-1.851
	c0.206-5.599-1.378-12.614-0.025-18.031c0.468-1.688,2.145-2.966,3.93-2.535c2.992,0.727,2.257,5.066,2.257,7.202
	C287.996,652.232,288.097,657.304,288.097,662.376z"/>
<path fill="none" stroke="#000000" stroke-width="2" d="M301.232,660.652c5.399,4.916-6.592,8.094-6.592,0.098
	c0-6.742,0-13.484,0-20.228c0-2.154,0.918-15.669,5.857-8.122c1.909,2.949,0.38,11.289,0.38,14.683
	C300.877,651.274,300.061,656.965,301.232,660.652z"/>
<path fill="none" stroke="#000000" stroke-width="2" d="M324.31,657c4.786-1.198,4.875,4.205,1.369,6.035
	c-3.761,1.961-8.858,3.344-12.971,1.687c-6.821-2.748-8.513-11.381-5.643-17.562c3.117-6.419,15.49-9.813,19.305-2.377
	c4.515,8.804-8.054,11.164-13.523,12.927C315.803,661.085,321.174,658.926,324.31,657z"/>
<path fill="none" stroke="#000000" stroke-width="2" d="M314.064,648.276c-1.765,0.997-2.273,2.579-2.536,4.412
	c1.586-0.487,9.586-1.851,9.586-4.26C321.114,645.233,315.544,647.283,314.064,648.276z"/>
<path fill="none" stroke="#000000" stroke-width="2" d="M355.399,659.738c1.337,2.282,0.247,5.139-2.663,4.844
	c-0.803-0.432-1.605-0.862-2.41-1.293c-1.632,1.075-3.406,1.803-5.325,2.18c-4.349,0.965-8.733-1.36-10.751-5.249
	c-5.286-10.164,4.393-20.345,14.657-18.639c-0.129-2.803,0.515-17.356,5.983-9.104c1.602,2.393,0.19,10.683,0.179,13.617
	C355.058,649.093,353.646,657.403,355.399,659.738C355.974,660.72,355.299,659.604,355.399,659.738z"/>
<path fill="none" stroke="#000000" stroke-width="2" d="M348.35,656.949c1.211-1.839,0.674-4.695,0.646-6.968
	c-0.057-4.688-7.576-2.345-9.065,0.881C337.966,657.097,342.783,663.154,348.35,656.949
	C348.417,656.848,347.471,657.93,348.35,656.949z"/>
<path fill="none" stroke="#000000" stroke-width="2" d="M393.641,657.456c5.549-3.551,5.958,4.785,0.71,7
	c-4.984,2.263-11.019,0.018-13.314-4.963c-3.488-7.571,1.365-21.069,11.233-19.762c2.749,0.364,9.251,2.597,7.456,6.644
	c-2.116,4.77-5.485-0.896-8.015-0.583C381.973,645.972,386.53,665.059,393.641,657.456z"/>
<path fill="none" stroke="#000000" stroke-width="2" d="M401.247,651.675c3.212-13.298,21.476-14.654,21.733,0.685
	C423.27,670.174,396.82,669.957,401.247,651.675z"/>
<path fill="none" stroke="#000000" stroke-width="2" d="M407.334,652.739c-1.467,7.812,6.432,9.686,9.027,2.296
	C419.301,646.668,409.842,644.479,407.334,652.739C407.232,653.281,407.57,651.962,407.334,652.739z"/>
<path fill="none" stroke="#000000" stroke-width="2" d="M448.263,661.564c1.683,6.112-5.772,2.117-7.285,2.936
	c-2.637,1.427-6.263,1.428-9.046,0.488c-9.175-3.098-6.341-15.449-0.828-20.601c4.743-4.431,14.725-6.573,14.725,2.063
	C445.828,652.289,445.725,656.362,448.263,661.564z"/>
<path fill="none" stroke="#000000" stroke-width="2" d="M437.51,659.281c4.036-2.562,1.859-8.025,2.029-12.578
	C431.918,648.061,430.159,662.227,437.51,659.281C437.882,659.045,437.003,659.485,437.51,659.281z"/>
<path fill="none" stroke="#000000" stroke-width="2" d="M452.473,646.907c-5.703-1.419-1.749-6.136,2.282-6.136
	c0-2.241-0.844-12.778,4.532-9.618c2.947,1.732,1.655,6.856,1.655,9.618c2.346-0.326,10.292,1.386,5.883,5.122
	c-3.112,2.568-5.864-1.523-5.89,3.855c-0.017,3.595-0.227,7.269,0.134,10.853c0.681,6.889-6.529,4.762-6.264-1.825
	C454.806,655.957,456.31,645.957,452.473,646.907z"/>
<path fill="none" stroke="#000000" stroke-width="2" d="M471.086,633.518c0.473-4.402,6.805-4.715,6.948-0.102
	C478.309,638.133,471.455,638.148,471.086,633.518z"/>
<path fill="none" stroke="#000000" stroke-width="2" d="M477.781,662.376c-0.562,5.578-6.425,2.541-6.264-1.851
	c0.205-5.6-1.378-12.612-0.025-18.031c0.468-1.688,2.146-2.966,3.931-2.535c2.991,0.728,2.257,5.065,2.257,7.202
	C477.679,652.232,477.781,657.304,477.781,662.376z"/>
<path fill="none" stroke="#000000" stroke-width="2" d="M485.944,666.84c6.129-6.143,6.995-15.941,5.034-24.111
	c-0.953-3.969-3.11-7.131-5.363-10.454c-3.182-4.67,3.851-5.393,6.49-1.433c5.996,8.994,7.584,19.699,4.236,30.113
	c-1.185,3.549-3.888,11.463-8.725,11.463C484.379,672.418,483.972,668.674,485.944,666.84z"/>
<g>
	<path fill="none" stroke="#000000" stroke-width="2" d="M430.061,551.966C430.196,553.85,430.061,545.1,430.061,551.966
		L430.061,551.966z"/>
	<path fill="none" stroke="#000000" stroke-width="2" d="M518.886,306.222c-1.472-3.692-3.168-7.356-5.068-10.952
		c0.429-0.419,0.892-0.898,1.417-1.47c17.363-18.903,3.888-49.851-1.743-70.647c-12.423,8.872-44.625,8.347-50.931,25.135
		c-5.338-1.827-10.911-3.038-16.694-3.484c-17.394-1.341-35.148,0.68-50.893,7.829c-3.521-4.323-9.224-8.58-11.546-10.104
		c-11.233-7.375-28.442-3.083-38.527-11.909c-4.458,10.386-7.123,21.941-7.377,33.235c-0.323,14.42,5.149,24.863,12.699,35.96
		c-0.148,0.304-0.303,0.606-0.448,0.911c-5.175,10.849-15.77,17.7-16.593,30.8c-0.887,14.12,9.04,26.28,19.018,35.069
		c7.522,6.626,15.967,12.258,24.826,17.075c-6.471,10.12-13.046,20.222-19.612,30.237c-7.85,11.973-20.563,20.869-29.47,32.259
		c-5.537,7.081-10.606,14.679-14.64,22.764l-0.109,0.113c-3.006-2.009-7.224-5.087-11.604-9.091l0.666-0.495
		c-5.921-5.307-12.182-12.327-16.23-20.734c-0.131,0.098-0.271,0.201-0.403,0.299c-0.732-1.594-1.391-3.229-1.94-4.917
		c0,0-2.726-4.006-4.893-10.81l0.329-0.119c-1.597-4.707-2.968-10.898-2.91-18.131c0.2-7.378,1.906-15.776,6.396-24.757
		c0,0,27.013-39.156,25.647-73.017c-0.195-8.146-1.99-16.012-6.144-22.993c-0.197,0.003-0.406,0.007-0.605,0.011
		c-1.647-2.582-3.62-5.039-5.983-7.329c0,0-40.833-37.632-76.848-5.564c0.369-10.572,0.703-21.145,0.964-31.72
		c0.707-28.837,0.914-57.687,0.626-86.531c-0.118-11.714-2.601-24.459-16.255-27.374c-11.5-2.454-21.633,6.558-24.777,17.033
		c-1.98,9.06-0.36,20.038-0.403,29.312c-0.051,10.179-0.13,20.356-0.235,30.534c-0.224,21.531-0.679,43.061-1.389,64.582
		c-28.542-41.681-60.124-81.634-92.308-120.54c-7.671-9.26-15.782-17.921-28.867-15.774c-11.785,1.933-16.962,10.362-17.2,21.592
		c-0.526,24.796,0.529,49.692,0.707,74.498c0.186,25.974,0.053,51.953,0.053,77.927c0,16.982-6.19,53.49,21.001,52.331
		c23.743-1.012,19.573-34.655,19.573-50.81c0-11.301,0-22.603,0-33.903c0-21.385,0-42.769,0-64.154
		c34.853,43.346,68.135,88.02,97.041,135.587c0-0.226,0-0.451,0-0.676c0,3.901,6.803,8.113,9.805,9.297
		c3.554,1.404,7.34,1.965,11.081,1.566c9.725,49.747,40.387,100.38,40.387,100.38s35.02,57.854,70.558,67.111
		c2.624,5.556,6.357,10.731,10.96,14.766c2.854,2.502,5.995,4.708,9.246,6.658c4.121,2.47,2.169,4.793,2.646,9.303
		c0.281,2.647,39.805,2.571,44.003,2.762c18.192,0.822,36.385,1.64,54.578,2.461c-0.136-1.885-0.27-3.768-0.405-5.651
		c0-3.611-3.003-5.736-7.168-7.243c1.462-0.596,2.898-1.232,4.31-1.909c16.684,1.47,37.246,5.974,53.214,0.325
		c3.376-1.194,10.305-5.248,7.824-10.004c-3.1-5.943-16.704-4.813-22.258-4.578c18.882-15.819,29.824-63.51,3.263-76.953
		c-0.001-4.813-0.154-9.645-0.451-14.468c2.867,1.6,14.229-3.261,15.902-4.239c9.995-5.849,20.519-17.507,25.844-28.289
		c0.015,0.013,0.029,0.024,0.044,0.036c4.071-7.236,7.268-18.157,1.751-25.162c-0.69-1.081-1.548-2.032-2.652-2.76
		c-0.647-0.426-1.308-0.724-1.976-0.931c-0.143-0.062-0.285-0.121-0.427-0.173c11.124-6.956,22.665-16.213,27.089-28.917
		C539.827,331.021,530.083,316.48,518.886,306.222z M489.408,387.466c-1.602,2.081-2.94,4.023-3.889,5.423
		c-5.979,8.824-12.337,6.9-17.865,1.135c2.573-0.827,5.122-1.735,7.626-2.755c5.545-1.989,10.979-4.312,16.271-6.907
		C490.762,385.434,490.043,386.49,489.408,387.466z"/>
</g>
<path fill="none" stroke="#231F20" stroke-width="2" stroke-miterlimit="10" d="M302.108,284.281
	c-28.388,0.503-79.231,1.585-97.538,3.114c-7.226,11.77-9.806,26.146-9.339,41.508l110.974-2.622
	C309.43,311.747,309.455,296.629,302.108,284.281z"/>
<path fill="none" stroke="#231F20" stroke-width="2" stroke-miterlimit="10" d="M302.575,339.081
	c-20.862,2.396-79.963,9.273-104.644,13.101c2.116,11.118,5.274,22.278,8.939,32.94l78.034-9.457
	C288.845,369.38,297.004,355.365,302.575,339.081z"/>
<path fill="none" stroke="#231F20" stroke-width="2" stroke-miterlimit="10" d="M277.014,396.032
	c-16.867,6.041-39.138,14.066-57.433,20.823c4.255,9.36,8.344,17.451,11.635,23.642l47.902-17.319
	C276.891,416.614,275.088,407.177,277.014,396.032z"/>
<path fill="none" stroke="#231F20" stroke-width="2" stroke-miterlimit="10" d="M286.025,438.725
	c-11.713,8.664-25.702,19.052-38.302,28.511c4.303,5.985,9.904,13.284,16.388,20.584l38.145-28.36
	C296.334,454.152,290.074,447.132,286.025,438.725z"/>
<path fill="none" stroke="#231F20" stroke-width="2" stroke-miterlimit="10" d="M496.255,288.265"/>
<path fill="none" stroke="#231F20" stroke-width="2" stroke-miterlimit="10" d="M397.372,338.645c10.879,0,10.878,18.704,0,18.704
	S386.493,338.645,397.372,338.645z"/>
<path fill="none" stroke="#231F20" stroke-width="2" stroke-miterlimit="10" d="M466.788,338.645c10.878,0,10.877,18.704,0,18.704
	C455.91,357.349,455.909,338.645,466.788,338.645z"/>
<path fill="none" stroke="#231F20" stroke-width="2" stroke-miterlimit="10" d="M443.053,365.177c0,12.417-23.651,12.417-23.651,0
	C419.401,355.045,443.053,355.163,443.053,365.177z"/>
<path fill="none" stroke="#231F20" stroke-width="2" stroke-miterlimit="10" d="M387.008,388.363
	c4.586-13.297,13.741-26.379,26.197-33.255c13.476-7.439,27.311-5.349,40.024,2.509c9.683,5.984,16.967,15.061,21.63,25.377
	c1.09,2.41,4.553,6.552,1.352,7.899c-3.024,1.273-6.123,2.371-9.251,3.357C440.854,402.48,411.034,402.873,387.008,388.363z"/>
<path fill="none" stroke="#231F20" stroke-width="2" stroke-miterlimit="10" d="M446.819,365.578c0,15.716-29.938,15.715-29.938,0
	C416.882,352.752,446.819,352.903,446.819,365.578C446.819,372.115,446.819,359.038,446.819,365.578z"/>
<path fill="none" stroke="#231F20" stroke-width="2" stroke-miterlimit="10" d="M398.039,338.645c6.698,0,6.698,11.512,0,11.512
	C391.342,350.156,391.342,338.645,398.039,338.645z"/>
<path fill="none" stroke="#231F20" stroke-width="2" stroke-miterlimit="10" d="M466.787,338.645c6.697,0,6.697,11.512,0,11.512
	S460.09,338.645,466.787,338.645z"/>
<g>
	<path fill="none" stroke="#231F20" stroke-width="2" stroke-miterlimit="10" d="M518.886,306.222
		c-3.07-7.701-7.108-15.286-11.976-22.362c3.396-4.817,3.647-11.554,2.986-17.264c-0.838-7.244-0.644-19.166-5.137-25.265
		c-10.563,1.823-22.877,4.817-31.656,11.513c-8.384-4.418-17.522-7.29-27.237-8.039c-20.679-1.594-41.879,1.536-59.589,12.426
		c-8.496-5.926-21.152-6.721-30.648-6.144c-1.984,10.055-3.534,21.326-1.299,31.438c0.39,1.763,1.101,3.921,2.209,5.745
		c-2.491,4.053-4.748,8.231-6.765,12.458c-5.175,10.849-15.77,17.7-16.593,30.8c-0.887,14.12,9.04,26.28,19.018,35.069
		c7.522,6.626,15.967,12.258,24.826,17.075c-6.471,10.12-13.046,20.222-19.612,30.237c-7.85,11.973-20.563,20.869-29.47,32.259
		c-8.312,10.629-15.584,22.416-19.851,35.282c-4.092,12.339-5.071,25.883-0.005,38.1c2.634,6.353,6.723,12.341,11.905,16.884
		c2.854,2.502,5.995,4.708,9.246,6.658c4.121,2.47,2.169,4.793,2.646,9.303c0.281,2.647,39.805,2.571,44.003,2.762
		c18.192,0.822,36.385,1.64,54.578,2.461c-0.136-1.885-0.27-3.768-0.405-5.651c0-10.55-25.614-8.417-31.017-15.236
		c-5.651-7.136-1.312-15.848,2.103-22.742c4.908-9.909,6.853-22.666,4.438-33.503c-1.771-7.95-5.981-15.133-11.826-20.749
		c1.277-0.119,2.51-0.303,3.476-0.381c12.521-1.017,24.525-7.396,33.854-15.661c3.59-0.053,6.869-3.242,10.003-7
		c4.864-5.835,10.264-17.026,2.582-23.035c-8.55-6.687-19.437-1.356-26.976,4.7c-5.903,3.224-10.508,6.784-14.85-1.582
		c-0.614-1.184-1.148-2.414-1.649-3.662c1.716-5.919,3.419-11.841,5.105-17.768c7.576,1.88,15.224,2.802,23.658,3.569
		c27.068,1.076,53.718-8.311,76.69-22.289c11.606-7.062,24.077-16.601,28.717-29.926
		C539.827,331.021,530.083,316.48,518.886,306.222z"/>
	<path fill="none" stroke="#231F20" stroke-width="2" stroke-miterlimit="10" d="M430.061,551.966
		C430.196,553.85,430.061,545.1,430.061,551.966L430.061,551.966z"/>
</g>
<path fill="none" stroke="#231F20" stroke-width="2" stroke-miterlimit="10" d="M443.673,413.658
	c-8.55-6.687-19.437-1.356-26.976,4.7c-5.903,3.224-10.508,6.784-14.85-1.582c-3.448-6.644-4.982-14.464-6.03-21.826
	c-19.876-0.09-12.708,40.371-10.933,51.468c0.573,3.589,1.227,7.167,1.979,10.724c0.839,3.956,7.115,2.477,10.371,2.213
	c12.521-1.017,24.525-7.396,33.854-15.661c3.59-0.053,6.869-3.242,10.003-7C445.955,430.858,451.354,419.667,443.673,413.658z"/>
<path fill="none" stroke="#231F20" stroke-width="2" stroke-miterlimit="10" d="M355.629,251.087
	c-1.984,10.055-3.534,21.326-1.299,31.438c0.88,3.978,3.383,9.974,8.432,9.583c2.794-0.216,5.629-0.946,8.097-2.292
	c1.516-0.826,6.413-8.029,6.203-8.007c7.961-0.846,21.195-6.508,16.078-16.756C386.617,251.989,368.306,250.316,355.629,251.087z"/>
<path fill="none" stroke="#231F20" stroke-width="2" stroke-miterlimit="10" d="M504.76,241.331
	c-11.487,1.983-25.056,5.337-33.885,13.346c-3.753,3.404-6.938,9.193-3.731,13.94c5.023,7.435,12.915,2.21,19.443,0.534
	c-1.074,5.524-1.469,13.095,2.698,17.49c3.759,3.964,10.439,3.368,14.554,0.36c6.302-4.607,6.88-13.303,6.058-20.405
	C509.059,259.352,509.253,247.43,504.76,241.331z"/>
<g>
	<path fill="none" stroke="#231F20" stroke-width="2" stroke-miterlimit="10" d="M430.061,551.966
		C430.196,553.85,430.061,545.1,430.061,551.966L430.061,551.966z"/>
	<path fill="none" stroke="#231F20" stroke-width="2" stroke-miterlimit="10" d="M518.886,306.222
		c-3.07-7.701-7.108-15.286-11.976-22.362c3.396-4.817,3.647-11.554,2.986-17.264c-0.838-7.244-0.644-19.166-5.137-25.265
		c-10.563,1.823-22.877,4.817-31.656,11.513c-8.384-4.418-17.522-7.29-27.237-8.039c-20.679-1.594-41.879,1.536-59.589,12.426
		c-8.496-5.926-21.152-6.721-30.648-6.144c-1.984,10.055-3.534,21.326-1.299,31.438c0.39,1.763,1.101,3.921,2.209,5.745
		c-2.491,4.053-4.748,8.231-6.765,12.458c-5.175,10.849-15.77,17.7-16.593,30.8c-0.887,14.12,9.04,26.28,19.018,35.069
		c7.522,6.626,15.967,12.258,24.826,17.075c-6.471,10.12-13.046,20.222-19.612,30.237c-7.85,11.973-20.563,20.869-29.47,32.259
		c-8.312,10.629-15.584,22.416-19.851,35.282c-4.092,12.339-5.071,25.883-0.005,38.1c2.634,6.353,6.723,12.341,11.905,16.884
		c2.854,2.502,5.995,4.708,9.246,6.658c4.121,2.47,2.169,4.793,2.646,9.303c0.281,2.647,39.805,2.571,44.003,2.762
		c18.192,0.822,36.385,1.64,54.578,2.461c-0.136-1.885-0.27-3.768-0.405-5.651c0-3.611-3.003-5.736-7.168-7.243
		c3.94-1.607,7.712-3.5,11.235-5.694c17.938-11.174,27.601-32.361,31.779-52.314c5.993-28.613,3.157-60.774-2.269-89.426
		c-0.119-0.629-0.253-1.402-0.405-2.287c14.936-3.892,29.279-10.38,42.419-18.375c11.606-7.062,24.077-16.601,28.717-29.926
		C539.827,331.021,530.083,316.48,518.886,306.222z"/>
</g>
<path fill="none" stroke="#231F20" stroke-width="2" stroke-miterlimit="10" d="M518.886,306.222
	c-3.07-7.701-7.108-15.286-11.976-22.362c3.396-4.817,3.647-11.554,2.986-17.264c-0.838-7.244-0.644-19.166-5.137-25.265
	c-10.563,1.823-22.877,4.817-31.656,11.513c-8.384-4.418-17.522-7.29-27.237-8.039c-20.679-1.594-41.879,1.536-59.589,12.426
	c-8.496-5.926-21.152-6.721-30.648-6.144c-1.984,10.055-3.534,21.326-1.299,31.438c0.39,1.763,1.101,3.921,2.209,5.745
	c-2.491,4.053-4.748,8.231-6.765,12.458c-5.175,10.849-15.77,17.7-16.593,30.8c-0.887,14.12,9.04,26.28,19.018,35.069
	c11.457,10.092,25.034,17.918,38.998,23.987c12.548,5.452,24.128,7.092,37.765,8.331c27.068,1.076,53.718-8.311,76.69-22.289
	c11.606-7.062,24.077-16.601,28.717-29.926C539.827,331.021,530.083,316.48,518.886,306.222z"/>
<g>
	<path fill="none" stroke="#231F20" stroke-width="2" stroke-miterlimit="10" d="M430.061,551.966
		C430.196,553.85,430.061,545.1,430.061,551.966L430.061,551.966z"/>
	<path fill="none" stroke="#231F20" stroke-width="2" stroke-miterlimit="10" d="M518.886,306.222
		c-1.472-3.692-3.168-7.356-5.068-10.952c0.429-0.419,0.892-0.898,1.417-1.47c17.363-18.903,3.888-49.851-1.743-70.647
		c-12.423,8.872-44.625,8.347-50.931,25.135c-5.338-1.827-10.911-3.038-16.694-3.484c-17.394-1.341-35.148,0.68-50.893,7.829
		c-3.521-4.323-9.224-8.58-11.546-10.104c-11.233-7.375-28.442-3.083-38.527-11.909c-4.458,10.386-7.123,21.941-7.377,33.235
		c-0.323,14.42,5.149,24.863,12.699,35.96c-0.148,0.304-0.303,0.606-0.448,0.911c-5.175,10.849-15.77,17.7-16.593,30.8
		c-0.887,14.12,9.04,26.28,19.018,35.069c7.522,6.626,15.967,12.258,24.826,17.075c-6.471,10.12-13.046,20.222-19.612,30.237
		c-7.85,11.973-20.563,20.869-29.47,32.259c-5.537,7.081-10.606,14.679-14.64,22.764l-0.109,0.113
		c-3.006-2.009-7.224-5.087-11.604-9.091l0.666-0.495c-5.921-5.307-12.182-12.327-16.23-20.734
		c-0.131,0.098-0.271,0.201-0.403,0.299c-0.732-1.594-1.391-3.229-1.94-4.917c0,0-2.726-4.006-4.893-10.81l0.329-0.119
		c-1.597-4.707-2.968-10.898-2.91-18.131c0.2-7.378,1.906-15.776,6.396-24.757c0,0,27.013-39.156,25.647-73.017
		c-0.195-8.146-1.99-16.012-6.144-22.993c-0.197,0.003-0.406,0.007-0.605,0.011c-1.647-2.582-3.62-5.039-5.983-7.329
		c0,0-51.529-47.493-89.873,9.687c-0.153,0.228-0.289,0.465-0.438,0.695c-0.21,0.017-0.437,0.033-0.639,0.05
		c-6.431,10.475-9.175,23.018-9.374,36.479c-1.383,56.935,43.278,130.683,43.278,130.683s35.02,57.854,70.558,67.111
		c2.624,5.556,6.357,10.731,10.96,14.766c2.854,2.502,5.995,4.708,9.246,6.658c4.121,2.47,2.169,4.793,2.646,9.303
		c0.281,2.647,39.805,2.571,44.003,2.762c18.192,0.822,36.385,1.64,54.578,2.461c-0.136-1.885-0.27-3.768-0.405-5.651
		c0-3.611-3.003-5.736-7.168-7.243c1.462-0.596,2.898-1.232,4.31-1.909c16.684,1.47,37.246,5.974,53.214,0.325
		c3.376-1.194,10.305-5.248,7.824-10.004c-3.1-5.943-16.704-4.813-22.258-4.578c18.882-15.819,29.824-63.51,3.263-76.953
		c-0.001-4.813-0.154-9.645-0.451-14.468c2.867,1.6,14.229-3.261,15.902-4.239c9.995-5.849,20.519-17.507,25.844-28.289
		c0.015,0.013,0.029,0.024,0.044,0.036c4.071-7.236,7.268-18.157,1.751-25.162c-0.69-1.081-1.548-2.032-2.652-2.76
		c-0.647-0.426-1.308-0.724-1.976-0.931c-0.143-0.062-0.285-0.121-0.427-0.173c11.124-6.956,22.665-16.213,27.089-28.917
		C539.827,331.021,530.083,316.48,518.886,306.222z M467.654,394.024c2.573-0.827,5.122-1.735,7.626-2.755
		c5.545-1.989,10.979-4.312,16.271-6.907c-0.789,1.071-1.508,2.128-2.143,3.104c-1.602,2.081-2.94,4.023-3.889,5.423
		C479.54,401.713,473.183,399.789,467.654,394.024z"/>
</g>
</svg>
