<?xml version="1.0" encoding="utf-8"?>
<!-- Generator: Adobe Illustrator 16.0.0, SVG Export Plug-In . SVG Version: 6.00 Build 0)  -->
<!DOCTYPE svg PUBLIC "-//W3C//DTD SVG 1.1//EN" "http://www.w3.org/Graphics/SVG/1.1/DTD/svg11.dtd">
<svg version="1.1" id="Layer_1" xmlns="http://www.w3.org/2000/svg" xmlns:xlink="http://www.w3.org/1999/xlink" x="0px" y="0px"
	 width="612px" height="612px" viewBox="0 90 612 612" enable-background="new 0 90 612 612" xml:space="preserve">
<path fill="none" stroke="#000000" stroke-width="2" d="M196.503,574.321c-3.33,10.964-10.925,21.46-23.644,20.025
	c-13.495-1.522-18.36-15.406-15.511-27.328c2.499-10.467,11.064-19.425,22.384-18.8C193.634,548.996,198.33,562.281,196.503,574.321
	C195.735,576.848,196.817,572.248,196.503,574.321z"/>
<path fill="none" stroke="#000000" stroke-width="2" d="M178.987,585.75c13.703-5.934,12.558-36.601-5.08-28.857
	C160.875,562.612,162.35,592.972,178.987,585.75C180.34,585.164,177.635,586.337,178.987,585.75z"/>
<path fill="none" stroke="#000000" stroke-width="2" d="M220.847,562.352c1.942-2.588,6.266-3.121,7.388,0.592
	c0.866,2.864-1.02,6.465-1.907,9.143c-1.794,5.415-3.603,10.928-5.785,16.2c-1.697,4.087-7.104,9.535-9.468,2.197
	c-2.778-8.566-8.343-16.638-10.583-25.224c-2.039-7.138,7.194-4.516,9.197-0.067c2.002,4.45,3.842,9.004,5.681,13.524
	C217.293,573.312,218.807,567.676,220.847,562.352z"/>
<path fill="none" stroke="#000000" stroke-width="2" d="M233.019,551.194c0.64-5.944,9.072-6.422,9.264-0.136
	C242.656,557.402,233.304,557.539,233.019,551.194z"/>
<path fill="none" stroke="#000000" stroke-width="2" d="M241.946,589.672c-0.76,7.541-8.579,3.461-8.352-2.468
	c0.27-7.438-1.825-16.876-0.034-24.041c2.245-8.098,8.25-0.929,8.25,3.923C241.811,574.614,241.946,582.143,241.946,589.672z"/>
<path fill="none" stroke="#000000" stroke-width="2" d="M247.829,587.034c-1.028-2.912,0.463-6.437,3.99-6.086
	c2.779,0.255,4.294,3.621,6.965,4.463c2.155,0.683,7.615-0.191,4.599-3.719c-1.947-1.943-5.446-2.009-7.896-3.068
	c-16.273-7.032,0.952-27.632,13.306-16.998c2.003,1.725,2.766,5.944-0.279,7.1c-3.483,1.322-6.706-2.67-10.271-1.302
	c-5.838,1.489,9.132,6.864,9.84,7.304c7.505,4.676,3.879,16.928-3.746,19.164C258.339,595.651,251.16,592.053,247.829,587.034z"/>
<path fill="none" stroke="#000000" stroke-width="2" d="M331.952,588.59c1.126,4.091-3.229,6.748-6.594,4.058
	c-2.046-1.637-9.227,1.775-13.296,0.999c-12.644-2.411-11.509-17.99-4.929-25.885c5.684-6.949,21.572-12.398,21.572,0.676
	C328.706,576.018,328.618,581.756,331.952,588.59z"/>
<path fill="none" stroke="#000000" stroke-width="2" d="M317.616,585.547c3.762-2.39,3.117-2.871,2.794-7.146
	c-0.241-3.195-0.209-6.425-0.09-9.625C310.329,570.555,307.634,589.551,317.616,585.547
	C318.111,585.232,316.939,585.818,317.616,585.547z"/>
<path fill="none" stroke="#000000" stroke-width="2" d="M337.7,570.703c0.45-2.982-3.913-3.659-2.062-7.234
	c1.738-3.363,5.963-2.225,8.283-0.373c4.922-3.738,12.089-5.225,16.704-0.034c1.738,1.958,1.533,5.515-0.947,6.83
	c-2.803,1.49-4.181-0.938-6.289-1.994c-5.432-1.355-7.506,4.472-7.506,8.327c0,4.168,0,8.336,0,12.504
	c0,5.869-8.25,7.148-8.25,1.079C336.114,585.166,336.95,575.555,337.7,570.703C337.744,570.411,337.654,570.997,337.7,570.703z"/>
<path fill="none" stroke="#000000" stroke-width="2" d="M365.762,551.194c0.642-5.943,9.073-6.422,9.266-0.136
	C375.398,557.403,366.047,557.539,365.762,551.194z"/>
<path fill="none" stroke="#000000" stroke-width="2" d="M374.688,589.672c-0.76,7.547-8.573,3.456-8.352-2.468
	c0.277-7.443-1.823-16.87-0.033-24.041c2.242-8.098,8.249-0.929,8.249,3.923C374.554,574.614,374.688,582.143,374.688,589.672z"/>
<path fill="none" stroke="#000000" stroke-width="2" d="M406.607,582.504c5.332-1.335,6.84,4.229,3.212,7.151
	c-3.41,2.748-9.202,4.107-13.467,4.107c-11.656,0-16.638-12.533-13.516-22.365c2.88-9.07,18.534-15.364,25.292-7.051
	c9.584,11.817-9.156,16.64-16.805,19.104C395.371,588.079,402.29,584.925,406.607,582.504z"/>
<path fill="none" stroke="#000000" stroke-width="2" d="M392.947,570.873c-2.254,1.271-3.031,3.436-3.382,5.883
	c2.228-0.686,12.781-2.315,12.781-5.681C402.347,566.801,394.885,569.656,392.947,570.873z"/>
<path fill="none" stroke="#000000" stroke-width="2" d="M415.532,587.034c-1.026-2.912,0.463-6.437,3.99-6.086
	c2.779,0.255,4.294,3.621,6.966,4.463c2.151,0.681,7.622-0.194,4.599-3.719c-1.945-1.943-5.446-2.009-7.896-3.068
	c-16.273-7.034,0.955-27.633,13.306-16.998c2.004,1.725,2.768,5.944-0.278,7.1c-3.483,1.322-6.707-2.669-10.271-1.302
	c-5.839,1.489,9.131,6.864,9.839,7.304c7.507,4.674,3.878,16.929-3.746,19.164C426.041,595.651,418.865,592.053,415.532,587.034z"/>
<path fill="none" stroke="#000000" stroke-width="2" d="M236.154,650.349c2.359,4.552-2.724,6.135-5.561,3.499
	c-2.598-2.413-4.129-6.178-5.269-9.463c-3.661-10.551-1.614-20.994,3.703-30.452c3.261-5.796,9.835-2.895,5.681,2.84
	c-2.16,2.983-3.625,6.025-4.336,9.631C228.79,634.419,229.322,644.803,236.154,650.349z"/>
<path fill="none" stroke="#000000" stroke-width="2" d="M237.523,643.247c-1.515-4.288,3.055-5.604,5.604-2.891
	c4.631,4.959,9.173-1.162,3.956-2.231c-14.492-2.946-8.224-20.313,5.097-14.606c1.919,0.88,3.361,3.582,1.699,5.427
	c-1.762,1.959-4.914-0.305-6.821-0.533c-1.31-0.154-2.924,0.284-2.612,1.953c0.323,1.725,6.83,2.758,8.267,3.651
	C263.189,640.542,246.779,656.25,237.523,643.247z"/>
<path fill="none" stroke="#000000" stroke-width="2" d="M264.86,647.686c-6.641,4.803-4.869-18.434-4.869-20.784
	c0-3.265,0-6.529,0-9.794c0-2.625,4.399-4.643,5.769-1.971c1.489,2.907,0.481,8.303,0.418,11.476
	c7.779-5.257,14.518,1.348,15.108,9.294c0.229,3.071-0.044,6.146-0.044,9.218c0,6.34-6.73,2.391-6.466-2.967
	c0.464-9.466-1.178-13.924-8.597-6.517C264.892,638.853,268.27,645.21,264.86,647.686
	C264.183,648.175,265.536,647.194,264.86,647.686z"/>
<path fill="none" stroke="#000000" stroke-width="2" d="M303.812,639.85c4.786-1.199,4.875,4.205,1.369,6.035
	c-3.761,1.961-8.858,3.343-12.972,1.687c-6.82-2.748-8.512-11.381-5.642-17.562c3.117-6.42,15.489-9.814,19.304-2.377
	c4.514,8.803-8.055,11.164-13.523,12.927C295.304,643.936,300.676,641.776,303.812,639.85z"/>
<path fill="none" stroke="#000000" stroke-width="2" d="M293.566,631.125c-1.764,0.997-2.274,2.58-2.536,4.413
	c1.587-0.487,9.586-1.852,9.586-4.26C300.616,628.083,295.045,630.132,293.566,631.125z"/>
<path fill="none" stroke="#000000" stroke-width="2" d="M328.968,639.85c4.785-1.199,4.875,4.206,1.368,6.035
	c-3.761,1.961-8.857,3.343-12.971,1.687c-6.82-2.747-8.512-11.381-5.643-17.562c3.121-6.419,15.489-9.815,19.305-2.377
	c4.516,8.803-8.054,11.165-13.523,12.927C320.46,643.936,325.832,641.775,328.968,639.85z"/>
<path fill="none" stroke="#000000" stroke-width="2" d="M318.723,631.125c-1.765,0.997-2.275,2.58-2.536,4.413
	c1.587-0.487,9.585-1.852,9.585-4.26C325.772,628.083,320.201,630.132,318.723,631.125z"/>
<path fill="none" stroke="#000000" stroke-width="2" d="M336.98,625.801c1.438-4.94,4.781-0.608,6.898-1.572
	c4.967-2.252,10.314,0.24,12.641,4.944c5.084,10.278-3.176,18.934-13.401,18.183c0,1.909,0.2,18.677-5.554,11.539
	c-1.613-2.001-0.634-7.197-0.634-9.424C336.93,641.599,336.655,633.661,336.98,625.801z"/>
<path fill="none" stroke="#000000" stroke-width="2" d="M343.473,632.395c-1.4,2.34-1.391,8.926,1.673,8.926
	C356.561,641.32,350.776,623.863,343.473,632.395C343.371,632.563,343.879,631.921,343.473,632.395z"/>
<path fill="none" stroke="#000000" stroke-width="2" d="M360.818,649.688c6.123-6.15,6.995-15.934,5.033-24.11
	c-0.953-3.969-3.11-7.132-5.363-10.454c-3.182-4.67,3.852-5.393,6.491-1.433c5.995,8.992,7.588,19.701,4.235,30.114
	c-1.182,3.549-3.888,11.462-8.724,11.462C359.251,655.269,358.845,651.523,360.818,649.688z"/>
<path fill="none" stroke="#000000" stroke-width="2" d="M163.889,326.453c34.725-15.03,49.423-57.982,49.873-92.984
	c0.451-36.584-36.322-64.481-71.738-52.67c-33.598,11.205-49.07,56.316-49.817,88.172c-0.457,19.025,6.115,37.411,21.098,49.653
	C127.455,330.188,146.94,333.802,163.889,326.453C170.651,323.526,157.127,329.385,163.889,326.453z"/>
<path fill="none" stroke="#000000" stroke-width="2" d="M191.95,352.654c-10.003-13.721,9.665-19.702,22.961-14.286
	c17.055-19.009,28.799-43.997,36.185-67.875c0.112-0.356,0.232-0.743,0.366-1.184c0.049-0.325,0.092-0.617,0.128-0.879
	c5.16-34.737,3.835-72.434-20.98-99.804c-33.327-36.758-92.039-39.131-130.138-8.658c-39.127,31.295-56.056,86.018-46.022,134.513
	c4.724,22.828,15.529,46.322,35.467,59.729c18.273,12.287,43.462,17.755,65.244,15.793c6.011-0.542,11.723-1.685,17.15-3.343
	C171.834,355.471,179.014,344.484,191.95,352.654z"/>
<path fill="none" stroke="#231F20" stroke-width="2" stroke-linecap="round" stroke-miterlimit="10" d="M487.037,359.695
	c5.233-7.25,42.116-19.574,38.572-4.228c-13.257,2.744-28.592,3.042-40.61,6.266L487.037,359.695z"/>
<path fill="none" stroke="#231F20" stroke-width="2" stroke-linecap="round" stroke-miterlimit="10" d="M259.001,331.655
	c-26.569-10.829-48.015,7.676-44.447,34.498c-27.737-8.908-31.4,37.939-19.438,52.414c-11.813,16.5-12.784,40.216,8.76,49.174
	c-10.05,10.812,2.162,23.774,12.434,28.574c13.782,6.439,23.856-2.661,36.549-1.633c10.433,0.845,21.913,11.786,33.586,13.496
	c14.997,2.199,23.09-3.934,34.724-11.665c7.767,15.802,58.408,16.752,60.111-4.655c7.953,8.243,23.803,9.731,34.513,9.247
	c15.484-0.702,19.429-9.577,31.925-14.252c12.545-4.69,25,2.717,36.86-7.104c10.109-8.373,14.084-25.882,3.285-35.865
	c-0.47-0.435-0.458-0.372,0.036,0.184c27.252,8.881,11.884-31.286,10.143-40.785c-0.917-5.012,1.565-11.156,0.673-16.739
	c-2.059-12.898-9.778-14.41-15.963-24.018c-13.167-20.454-7.159-41.057-40.523-35.716c-4.544-18.437-39.707-39.139-54.013-18.25
	c-14.465-10.481-41.824,4.139-42.652,21.449c-3.277-12.493-24.023-8.738-29.001,1.495
	C289.911,307.244,259.001,331.655,259.001,331.655z"/>
<path fill="none" stroke="#231F20" stroke-width="2" stroke-linecap="round" stroke-miterlimit="10" d="M411.376,355.927
	c0.804,13.987,16.696,15.837,25.198,6.589c0.837,9.73,12.541,10.996,20.203,8.279c3.927,11.968,8.68,14.671,9.021,27.356
	c0.288,10.732-2.345,21.786-5.622,31.527c-6.241,18.564-23.105,35.523-44.748,33.828c-32.311-2.534-58.732-67.565-49.28-95.355
	C384.104,383.697,411.376,355.927,411.376,355.927z"/>
<path fill="none" stroke="#231F20" stroke-width="2" stroke-linecap="round" stroke-miterlimit="10" d="M376.458,409.493
	c-9.304-7.113-6.059-21.717,3.072-27.55c10.511-6.715,24.841,4.552,23.876,16.012c-0.729,8.66-7.52,15.181-16.312,14.923
	C382.563,412.746,379.046,411.472,376.458,409.493z"/>
<path fill="none" stroke="#231F20" stroke-width="2" stroke-linecap="round" stroke-miterlimit="10" d="M389.318,387.922
	c8.148-3.161,15.34,5.675,10.533,13.016c-4.276,6.528-15.148,4.532-15.753-3.594C383.794,393.266,385.248,389.501,389.318,387.922z"
	/>
<path fill="none" stroke="#231F20" stroke-width="2" stroke-linecap="round" stroke-miterlimit="10" d="M394.914,392.984
	c1.655-2.377,5.743-1.206,5.756,1.775c0.009,2.386-2.205,4.37-4.285,3.104C394.65,396.809,393.629,394.833,394.914,392.984z"/>
<path fill="none" stroke="#231F20" stroke-width="2" stroke-linecap="round" stroke-miterlimit="10" d="M429.979,406.825
	c-10.145-7.757-6.606-23.68,3.349-30.041c11.462-7.322,27.089,4.965,26.036,17.46c-0.796,9.443-8.199,16.553-17.787,16.273
	C436.637,410.371,432.801,408.982,429.979,406.825z"/>
<path fill="none" stroke="#231F20" stroke-width="2" stroke-linecap="round" stroke-miterlimit="10" d="M444.002,383.303
	c8.884-3.446,16.727,6.189,11.484,14.193c-4.663,7.117-16.518,4.942-17.176-3.918C437.979,389.13,439.563,385.024,444.002,383.303z"
	/>
<path fill="none" stroke="#231F20" stroke-width="2" stroke-linecap="round" stroke-miterlimit="10" d="M450.104,388.823
	c1.804-2.592,6.262-1.315,6.274,1.936c0.011,2.602-2.402,4.765-4.673,3.384C449.815,392.994,448.7,390.838,450.104,388.823z"/>
<path fill="none" stroke="#231F20" stroke-width="2" stroke-linecap="round" stroke-miterlimit="10" d="M360.774,363.874
	c-10.119-10.339-49.942-24.301-58.788-4.446c-8.356,18.759,37.327,20.787,48.563,20.824L360.774,363.874z"/>
<path fill="none" stroke="#231F20" stroke-width="2" stroke-linecap="round" stroke-miterlimit="10" d="M349.52,369.447
	c-5.081-7.25-40.898-19.574-37.456-4.227c12.874,2.743,27.764,3.042,39.436,6.266L349.52,369.447z"/>
<path fill="none" stroke="#231F20" stroke-width="2" stroke-linecap="round" stroke-miterlimit="10" d="M404.305,449.16
	c12.415,7.237,46.791-1.815,25.576-13.399C421.293,431.07,396.387,444.543,404.305,449.16z"/>
<path fill="none" stroke="#231F20" stroke-width="2" stroke-linecap="round" stroke-miterlimit="10" d="M223.623,418.638
	c0.846-6.922,3.991-11.299,8.165-16.619c2.364-3.012-0.548-7.626-4.272-5.536c-7.785,4.368-12.643,15.076-8.687,23.455
	C220.052,422.528,223.349,420.873,223.623,418.638L223.623,418.638z"/>
<path fill="none" stroke="#231F20" stroke-width="2" stroke-linecap="round" stroke-miterlimit="10" d="M244.339,378.609
	c0.981-1.495,2.293-2.588,3.64-3.741c1.652-1.413,3.837-2.2,4.829-4.28c0.321-0.673,0.237-1.638-0.525-2.004
	c-5.314-2.552-10.361,4.058-12.059,8.29C239.229,379.354,243.011,380.631,244.339,378.609L244.339,378.609z"/>
<path fill="none" stroke="#231F20" stroke-width="2" stroke-linecap="round" stroke-miterlimit="10" d="M250.019,387.704
	c-3.179,0.225-5.497,1.332-7.146,4.213c-1.777,3.106-1.933,7.58-0.194,10.711c1.59,2.865,5.261,1.224,5.595-1.516
	c0.43-3.521-0.628-7.243,2.738-9.746C252.417,390.321,252.174,387.551,250.019,387.704L250.019,387.704z"/>
<path fill="none" stroke="#231F20" stroke-width="2" stroke-linecap="round" stroke-miterlimit="10" d="M237.298,422.317
	c-5.185,2.932-11.307,11.473-6.637,17.203c0.735,0.902,2.23,0.343,2.508-0.663c0.661-2.382,0.229-4.905,0.728-7.353
	c0.602-2.958,2.435-5.59,4.656-7.561C239.456,423.146,238.301,421.75,237.298,422.317L237.298,422.317z"/>
<path fill="none" stroke="#231F20" stroke-width="2" stroke-linecap="round" stroke-miterlimit="10" d="M275.615,397.646
	c-7.423,2.78-13.231,9.851-15.846,17.154c-3.223,9.006,1.867,20.142,12.079,20.847c3.514,0.242,4.617-4.135,2.649-6.397
	c-1.798-2.067-4.82-3.784-5.865-6.41c-0.942-2.369-0.633-4.858,0.016-7.248c1.614-5.941,5.35-10.914,8.339-16.161
	C277.479,398.569,276.659,397.255,275.615,397.646L275.615,397.646z"/>
<path fill="none" stroke="#231F20" stroke-width="2" stroke-linecap="round" stroke-miterlimit="10" d="M289.77,437.044
	c-2.732,3.212-3.727,7.895-2.69,12.007c0.648,2.569,4.503,2.55,5.163,0c0.837-3.238,0.287-6.757,0.873-10.06
	C293.43,437.215,291.194,435.369,289.77,437.044L289.77,437.044z"/>
<path fill="none" stroke="#231F20" stroke-width="2" stroke-linecap="round" stroke-miterlimit="10" d="M262.216,447.988
	c-7.601,0.828-9.363,13.051-3.934,17.274c0.851,0.661,2.077,0.289,2.135-0.885c0.125-2.531-0.433-4.96-0.309-7.475
	c0.144-2.892,1.987-4.726,3.096-7.194C263.516,449.015,263.171,447.885,262.216,447.988L262.216,447.988z"/>
<path fill="none" stroke="#231F20" stroke-width="2" stroke-linecap="round" stroke-miterlimit="10" d="M372.834,343.705
	c-2.686,3.485,0.022,8.602,3.266,10.746c4.295,2.84,10.472,2.685,14.931,0.389c1.776-0.915,1.99-3.065,1.222-4.659
	c-1.188-2.46-5.357-1.998-7.567-2.142c-1.904-0.125-3.942-0.306-5.695-1.133c-1.935-0.913-3.115-2.671-5.031-3.495
	C373.504,343.214,373.134,343.315,372.834,343.705L372.834,343.705z"/>
<path fill="none" stroke="#231F20" stroke-width="2" stroke-linecap="round" stroke-miterlimit="10" d="M404.332,327.804
	c-4.006-1.042-7.859,0.472-10.714,3.369c-2.317,2.354,1.101,5.592,3.559,3.558c2.196-1.817,4.379-3.902,7.155-4.791
	C405.348,329.616,405.431,328.09,404.332,327.804L404.332,327.804z"/>
<path fill="none" stroke="#231F20" stroke-width="2" stroke-linecap="round" stroke-miterlimit="10" d="M378.527,321.292
	c-1.715-0.284-3.558-0.693-5.199,0.086c-1.797,0.853-3.381,2.909-2.495,4.911c0.195,0.442,0.872,0.843,1.356,0.778
	c1.456-0.195,2.046-1.384,3.061-1.951c0.66-0.368,2.104-0.667,3.277-0.861C379.999,324.01,380,321.536,378.527,321.292
	L378.527,321.292z"/>
<path fill="none" stroke="#231F20" stroke-width="2" stroke-linecap="round" stroke-miterlimit="10" d="M416.677,344.12
	c0.043-1.908,0.306-4.241,1.55-5.794c1.619-2.025,4.188-2.57,6.355-3.771c2.538-1.407,1.351-5.312-1.447-5.341
	c-4.039-0.042-7.915,2.381-10.116,5.725c-2.079,3.158-1.639,6.968-0.006,10.175C413.936,346.924,416.633,345.982,416.677,344.12
	L416.677,344.12z"/>
<path fill="none" stroke="#231F20" stroke-width="2" stroke-linecap="round" stroke-miterlimit="10" d="M427.513,350.267
	c3.057,1.536,5.383,1.967,8.816,1.502c3.034-0.412,6.43-2.92,7.683-5.664c1.005-2.196-1.23-5.355-3.665-3.667
	c-3.513,2.435-7.378,4.948-11.914,4.434C426.621,346.666,425.952,349.483,427.513,350.267L427.513,350.267z"/>
<path fill="none" stroke="#231F20" stroke-width="2" stroke-linecap="round" stroke-miterlimit="10" d="M483.708,392.596
	c-0.142,0.421-1.521,2.479-1.877,3.733c-0.805,2.842-1.408,5.723-2.207,8.568c-0.982,3.502-5.136,13.104,0.241,14.825
	c2.595,0.831,4.905-2.104,6.211-3.879c1.865-2.539,2.134-6.73,2.396-9.748c0.257-2.965,0.038-6.039-0.548-8.945
	c-0.192-0.946-0.294-2.133-0.79-2.98c-0.23-0.393-1.238-1.836-1.149-1.575C485.604,391.473,484.087,391.474,483.708,392.596
	L483.708,392.596z"/>
<path fill="none" stroke="#231F20" stroke-width="2" stroke-linecap="round" stroke-miterlimit="10" d="M488.283,426.032
	c-2.271,1.599-4.527,3.217-6.807,4.851c-2.864,2.053-5.497,3.75-7.353,6.847c-0.763,1.272,0.249,2.62,1.574,2.741
	c4,0.367,7.256-1.272,10.331-3.685c2.938-2.303,4.635-4.637,5.562-8.21C492.053,426.792,489.974,424.843,488.283,426.032
	L488.283,426.032z"/>
<path fill="none" stroke="#231F20" stroke-width="2" stroke-linecap="round" stroke-miterlimit="10" d="M533.673,350.545
	c-8.179-17.832-42.074-8.388-56.45,1.211c-6.745-16.187-7.558-29.34-34.995-24.948c-4.544-18.437-39.707-39.139-54.013-18.25
	c-14.465-10.481-41.824,4.139-42.652,21.449c-3.277-12.493-24.023-8.738-29.001,1.495c-26.65-24.258-57.561,0.152-57.561,0.152
	c-16.843-6.864-31.616-1.932-39.273,9.425c-12.451-9.571-39.089-3.941-27.777,11.575c-17.475-11.036-24.46,12.881-16.231,25.043
	c3.054,4.514,8.006,7.231,13.635,8.922c-1.933,11.781,0.26,25.289,5.763,31.947c-11.813,16.5-12.784,40.216,8.76,49.174
	c-10.05,10.812,2.162,23.774,12.434,28.574c1.552,0.726,3.055,1.244,4.521,1.612c-1.311,7.815-1.449,16.379-0.438,22.342
	c2.756-2.131,6.699-3.759,8.923-7.646c1.019,4.983,3.273,10.483,8.847,10.619c4.97-7.816,11.67-19.728,18.14-27.943
	c9.491,2.508,19.739,11.356,30.141,12.88c14.997,2.199,23.09-3.934,34.724-11.665c4.77,9.703,25.703,13.804,41.547,10.568
	c0.799,8.952,3.703,19.142,7.012,25.431c1.956-2.88,5.197-5.654,6.103-10.04c2.519,4.419,6.372,8.946,11.713,7.341
	c2.165-8.478,4.661-20.905,7.96-30.533c6.865,1.751,14.363,2.094,20.29,1.825c13.552-0.614,18.265-7.489,27.606-12.329
	c4.446,8.949,8.547,22.403,11.708,31.156c4.657,0.539,7.32-4.633,8.884-9.441c1.292,4.116,4.339,6.203,6.324,8.644
	c2.64-8.982,3.871-24.516,1.811-34.17c4.207-0.493,8.365-1.831,12.452-5.215c10.027-8.305,14.011-25.593,3.538-35.615
	c26.947,8.591,11.662-31.378,9.926-40.852c-0.917-5.012,1.565-11.156,0.673-16.739c-1.259-7.886-4.634-11.516-8.48-15.342
	C507.147,370.455,541.092,366.719,533.673,350.545z M381.269,491.949c0.003-0.031,0.009-0.061,0.011-0.092
	c0.026,0.027,0.057,0.05,0.083,0.077L381.269,491.949z"/>
</svg>
