<?xml version="1.0" encoding="utf-8"?>
<!-- Generator: Adobe Illustrator 16.0.0, SVG Export Plug-In . SVG Version: 6.00 Build 0)  -->
<!DOCTYPE svg PUBLIC "-//W3C//DTD SVG 1.1//EN" "http://www.w3.org/Graphics/SVG/1.1/DTD/svg11.dtd">
<svg version="1.1" id="Layer_1" xmlns="http://www.w3.org/2000/svg" xmlns:xlink="http://www.w3.org/1999/xlink" x="0px" y="0px"
	 width="612px" height="612px" viewBox="0 90 612 612" enable-background="new 0 90 612 612" xml:space="preserve">
<g>
	<path fill="none" stroke="#000000" stroke-width="2" stroke-miterlimit="10" d="M376.912,318.547
		c2.787-5.606,5.449-11.259,7.973-16.947c-1.373-10.422-6.559-4.969-11.284,2.52c1.021-7.599-2.944-18.058-26.873-25.652
		c0,0-0.335,1.885-0.555,4.789c-3.124-7.873-10.304-13.957-22.16-14.124c-4.561-0.064-9.086,1.105-13.052,3.352
		c-21.035-50.574-83.362-72.137-132.801-51.521c-12.018,5.012-23.063,12.36-32.208,21.64c-4.485,4.551-8.508,9.558-11.959,14.935
		c-4.288,6.68-8.994,0.683-16.585,1.363c-27.354,2.45-30.792,41.862-4.279,49.018c8.375,2.261,6.552,0.79,7.942,9.911
		c0.896,5.879,2.402,11.664,4.475,17.238c2.202,5.922,5.059,11.581,8.443,16.907c0.004,0.02,0.007,0.04,0.011,0.059
		c0.548,0.861,1.114,1.712,1.691,2.555c0.085,0.125,0.175,0.247,0.261,0.371c0.659,0.953,1.338,1.892,2.033,2.821
		c0.207,0.277,0.413,0.554,0.623,0.829c0.745,0.973,1.505,1.933,2.288,2.878c0.238,0.287,0.483,0.567,0.725,0.852
		c0.605,0.712,1.221,1.417,1.847,2.112c0.186,0.207,0.361,0.423,0.549,0.628c0.099,0.108,0.206,0.209,0.305,0.317
		c0.844,0.913,1.708,1.808,2.589,2.689c0.283,0.283,0.57,0.561,0.856,0.84c0.864,0.843,1.742,1.674,2.639,2.487
		c0.101,0.091,0.197,0.185,0.297,0.275c1.056,0.948,2.141,1.868,3.241,2.772c0.14,0.115,0.279,0.23,0.419,0.344
		c1.635,1.33,3.315,2.613,5.042,3.843c0.239,2.944,0.618,5.733,1.04,8.137c-0.453-2.553-0.797-4.491,0.027,0.159
		c1.291,7.273,0.59,3.32,0.013,0.066c1.399,7.842,4.886,18.789,10.602,27.182c-2.552,2.803-5.289,5.424-8.314,7.74
		c-8.067,6.177-20.036,7.716-29.408,11.095c-8.137,2.934-16.293,6.244-17.697,15.628c-1.254,8.387,1.889,15.559,9.673,19.242
		c10.866,5.144,28.23,1.037,39.251,5.682c-20.798,3.302-41.956,3.649-62.528,0.412c0.684-0.281,1.376-0.582,2.086-0.926
		c0,0,13.749-31.499-37.52-31.324c0,0.001,2.197,16.259,10.462,26.405c-1.865-0.588-3.723-1.206-5.57-1.862
		c-0.43-0.15-0.384-0.133-0.106-0.034c-7.14-2.429-4.699,5.562-2.912,8.137c7.68,3.369,15.707,5.769,23.851,7.715
		c4.884,1.163,9.806,2.146,14.754,2.955c-6.516,3.537-12.379,12.661-11.401,34.467c0.001,0,39.045-6.932,28.441-32.391
		c7.978,0.639,15.994,0.823,24.006,0.534c0.042-0.002,0.085-0.005,0.127-0.007c-4.033,5.462-5.885,15.274-0.721,32.835
		c0,0.002,32.396-14.347,20.938-34.529c4.274-0.559,8.528-1.24,12.756-2.046c36.943,18.336,94.58,10.42,106.14-33.508
		c1.577-5.992,2.259-12.224,2.146-18.462c20.296-16.725,38.21-36.337,53.769-57.725c11.281,26.859,47.581,3.743,47.581,3.743
		c-16.479-19.644-28.61-22.129-36.706-19.547c6.64-10.212,12.779-20.742,18.426-31.48c-0.394,1.174-0.555,1.902-0.555,1.902
		c20.804,38.837,61.889-4.18,61.889-4.179C399.743,299.642,383.844,308.987,376.912,318.547z M287.328,415.351
		c-2.917-11.636-8.62-22.53-16.682-31.069c6.621-3.771,12.727-8.261,18.202-13.355c-0.185,10.112,1.967,25.795,16.848,27.197
		C299.803,404.109,293.683,409.865,287.328,415.351z M335.69,363.358c-6.054,7.962-12.425,15.702-19.107,23.163
		c0.252-6.755-3.81-15.3-21.359-22.127c5.065-5.72,9.415-12.026,12.89-18.818c-0.004-0.028-0.009-0.056-0.012-0.084
		c4.289-8.33,7.294-17.475,8.689-27.309c16.929,4.663,27.758-6.004,30.521-18.568c2.2,8.406,7.722,15.825,20.617,14.516
		c-1.035,1.957-1.858,3.546-2.357,4.396C356.48,334.025,346.568,349.053,335.69,363.358z"/>
	<path fill="none" stroke="#000000" stroke-width="2" stroke-miterlimit="10" d="M324.013,269.133
		C338.066,269.331,319.256,269.065,324.013,269.133L324.013,269.133z"/>
</g>
<path fill="none" stroke="#000000" stroke-width="2" stroke-miterlimit="10" d="M85.306,552.85
	c3.237-11.848,26.905-4.976,30.905,3.584c6.961,15.666-9.212,24.946-22.722,23.33c-0.039,3.273,1.296,9.858-0.744,12.781
	c-5.967,9.942-7.439-9.685-7.439-11.519c0-4.25,0.191-1.37-1.894-4.847c-2.011-3.351,1.826-3.867,1.826-6.357
	C85.239,564.17,85.132,558.492,85.306,552.85z"/>
<path fill="none" stroke="#000000" stroke-width="2" stroke-miterlimit="10" d="M104.985,555.825
	c-13.896-5.623-11.497,6.82-11.497,15.007C93.488,575.046,122.621,566.278,104.985,555.825
	C103.091,555.059,106.202,556.547,104.985,555.825z"/>
<path fill="none" stroke="#000000" stroke-width="2" stroke-miterlimit="10" d="M147.048,587.946
	c1.529,5.55-5.197,6.445-7.844,2.705c-5.103,3.825-13.795,3.736-18.495-0.879c-8.257-8.101-1.055-22.753,7.202-27.493
	C149.581,549.839,140.544,578.248,147.048,587.946z"/>
<path fill="none" stroke="#000000" stroke-width="2" stroke-miterlimit="10" d="M132.711,584.903
	c5.381-3.42,2.479-10.698,2.705-16.771C125.266,569.939,122.897,588.824,132.711,584.903
	C133.208,584.589,132.035,585.174,132.711,584.903z"/>
<path fill="none" stroke="#000000" stroke-width="2" stroke-miterlimit="10" d="M178.763,589.164
	c-0.343,2.866-3.333,5.197-6.154,3.787c-3.84-1.918-2.103-10.499-2.088-13.786c0.024-5.17,1.961-16.627-6.974-9.679
	c-1.894,1.538-4.999,31.681-10.482,21.74c-3.758-6.789-0.947-19.937-0.947-27.286c0-2.903,2.899-4.466,5.444-3.618
	c4.864,1.623,8.159-2.098,14.269-0.371C182.185,562.874,178.763,581.271,178.763,589.164z"/>
<path fill="none" stroke="#000000" stroke-width="2" stroke-miterlimit="10" d="M214.806,568.402
	c-7.602-1.893-2.33-8.182,3.043-8.182c0-15.078,8.25-16.139,8.25,0c3.323-0.802,13.448,2.087,7.844,6.83
	c-4.623,3.817-7.818-2.302-7.853,5.139c-0.022,4.795-0.302,9.692,0.178,14.472c0.74,7.447-7.981,7.925-8.352,0.744
	C217.669,582.047,220.812,568.573,214.806,568.402z"/>
<path fill="none" stroke="#000000" stroke-width="2" stroke-miterlimit="10" d="M240.976,570.06c0.47-3.106-5.574-5.852-0.406-8.893
	c3.853-2.174,5.546,1.337,10.144-0.879c3.749-1.802,7.915-1.772,11.429,0.608c5.633,3.624,0.906,12.336-4.193,7.236
	c-3.458-2.298-6.366,1.022-8.792,3.448c-1.848,3.356,4.063,23.556-4.971,21.708C238.418,592.104,240.343,574.16,240.976,570.06
	C241.021,569.768,240.931,570.354,240.976,570.06z"/>
<path fill="none" stroke="#000000" stroke-width="2" stroke-miterlimit="10" d="M265.185,574.76
	c5.636-23.389,37.14-13.843,27.514,8.377C284.921,601.094,260.413,594.379,265.185,574.76z"/>
<path fill="none" stroke="#000000" stroke-width="2" stroke-miterlimit="10" d="M273.3,576.18
	c-1.414,7.556,5.508,14.609,10.887,5.512C291.238,569.776,277.146,563.524,273.3,576.18
	C273.165,576.901,273.615,575.144,273.3,576.18z"/>
<path fill="none" stroke="#000000" stroke-width="2" stroke-miterlimit="10" d="M300.416,605.056
	c-5.461-6.739,3.775-6.976,7.709-5.005c6.84,3.185,10.82-1.137,10.82-7.641c-11.771,4.042-22.122-3.489-21.403-16.062
	c0.96-16.898,14.796-14.302,25.765-14.302C329.929,562.046,334.575,629.273,300.416,605.056z"/>
<path fill="none" stroke="#000000" stroke-width="2" stroke-miterlimit="10" d="M308.396,584.431
	c11.736,5.601,14.978-11.388,6.729-14.844C305.659,565.638,304.479,579.214,308.396,584.431
	C310.38,585.377,308.261,584.251,308.396,584.431z"/>
<path fill="none" stroke="#000000" stroke-width="2" stroke-miterlimit="10" d="M342.072,586.729
	c7.589,6.903-8.791,10.761-8.791,1.622c-2.821-6.165,0-20.051,0-26.806c0-2.409,0.88-23.091,7.811-12.483
	C346.206,556.942,340.15,578.022,342.072,586.729z"/>
<path fill="none" stroke="#000000" stroke-width="2" stroke-miterlimit="10" d="M348.294,574.76
	c5.646-23.387,37.139-13.841,27.515,8.377C368.029,601.094,343.524,594.379,348.294,574.76z"/>
<path fill="none" stroke="#000000" stroke-width="2" stroke-miterlimit="10" d="M356.408,576.18
	c-1.413,7.557,5.51,14.609,10.889,5.512C374.346,569.778,360.263,563.524,356.408,576.18
	C356.273,576.901,356.725,575.144,356.408,576.18z"/>
<path fill="none" stroke="#000000" stroke-width="2" stroke-miterlimit="10" d="M413.077,585.512
	c4.592,7.84-7.297,5.483-10.144,6.526c-8.872,3.237-19.076-1.023-19.544-11.53c-0.749-12.503,8.496-21.295,21.031-19.205
	c-0.099-2.135,1.75-23.912,7.642-12.782C415.804,557.974,407.157,577.653,413.077,585.512
	C413.844,586.82,412.942,585.333,413.077,585.512z"/>
<path fill="none" stroke="#000000" stroke-width="2" stroke-miterlimit="10" d="M403.678,581.793
	c6.709-10.108-6.378-18.62-11.226-8.115C390.034,581.331,395.453,590.968,403.678,581.793
	C403.767,581.657,402.505,583.102,403.678,581.793z"/>
<path fill="none" stroke="#000000" stroke-width="2" stroke-miterlimit="10" d="M442.831,561.1c3.432-5.72,8.479,0.206,7.202,4.869
	c-2.07,7.542-5.791,14.905-9.568,21.708c-2.926,5.265-5.695,10.729-8.792,15.892c-3.058,5.093-10.347,2.047-7.642-3.55
	c2.4-4.987,5.629-9.719,8.386-14.506c-5.268-4.39-14.701-14.426-13.66-22.181c1.639-13.911,16.289,13.615,17.515,14.675
	C438.915,572.535,440.869,566.806,442.831,561.1z"/>
<path fill="none" stroke="#000000" stroke-width="2" stroke-miterlimit="10" d="M459.668,568.402
	c-7.602-1.893-2.33-8.182,3.044-8.182c0-15.078,8.25-16.139,8.25,0c3.321-0.802,13.449,2.089,7.844,6.83
	c-4.623,3.817-7.819-2.302-7.853,5.139c-0.022,4.795-0.304,9.693,0.178,14.472c0.734,7.447-7.98,7.926-8.352,0.744
	C462.531,582.046,465.676,568.573,459.668,568.402z"/>
<path fill="none" stroke="#000000" stroke-width="2" stroke-miterlimit="10" d="M505.315,581.86
	c10.275-2.572,1.432,8.819-4.312,10.363c-12.788,3.438-22.611-6.346-20.033-19.223c1.799-9.008,13.442-16.258,22.384-12.036
	c18.362,8.577-6.135,19.526-13.322,21.842C494.022,587.365,501.174,584.404,505.315,581.86z"/>
<path fill="none" stroke="#000000" stroke-width="2" stroke-miterlimit="10" d="M491.654,570.229
	c-2.159,1.332-3.286,3.293-3.381,5.883c2.413-0.742,14.038-2.434,12.612-6.729C499.891,566.406,493.324,569.106,491.654,570.229z"/>
<path fill="none" stroke="#000000" stroke-width="2" stroke-miterlimit="10" d="M514.241,586.392
	c-4.97-14.096,17.186,4.558,16.061-4.092c-0.734-5.631-14.1-3.319-15.08-12.172c-1.249-11.197,10.614-13.45,18.562-10.043
	c6.976,3.201,1.749,9.298-4.193,7.169c-5.315-2.063-9.131,2.337-1.961,4.192C550.716,577.444,528.964,606.621,514.241,586.392z"/>
<path fill="none" stroke="#000000" stroke-width="2" stroke-miterlimit="10" d="M94.46,649.705c2.86,5.517-4.15,5.603-6.746,2.18
	c-2.974-3.923-4.773-9.117-5.534-13.925c-0.423-2.676,1.972-33.352,11.113-27.866c2.772,1.731-4.653,15.019-5.072,18.588
	C87.36,636.001,88.434,644.775,94.46,649.705z"/>
<path fill="none" stroke="#000000" stroke-width="2" stroke-miterlimit="10" d="M110.792,639.662
	c3.222-2.061,6.53,1.048,4.311,4.312c-3.476,5.367-12.159,4.192-15.722-0.33c-8.024-10.169,4.744-28.999,16.306-19.096
	c8.37,7.178-7.15,3.485-7.506,3.526C100.637,628.912,101.972,646.196,110.792,639.662z"/>
<path fill="none" stroke="#000000" stroke-width="2" stroke-miterlimit="10" d="M118.399,633.88
	c3.686-15.284,24.926-12.746,21.403,3.905C136.375,653.881,114.586,649.557,118.399,633.88z"/>
<path fill="none" stroke="#000000" stroke-width="2" stroke-miterlimit="10" d="M124.486,634.945
	c-1.06,5.667,4.131,10.956,8.166,4.134C137.723,630.512,127.378,625.418,124.486,634.945
	C124.385,635.486,124.722,634.168,124.486,634.945z"/>
<path fill="none" stroke="#000000" stroke-width="2" stroke-miterlimit="10" d="M156.387,631.497
	c-3.21-5.791-6.593-1.598-6.593,2.988c0,2.061,1.084,8.063,0,9.844c0,7.065-6.164,1.525-6.207-3.563
	c-0.033-3.801-1.888-14.742,0.653-17.586c1.737-1.945,11.313-0.754,13.231,0.247c5.804,3.031,17.479-4.89,17.479,9.639
	c0,1.191,0.96,20.308-5.427,13.495c-3.045-3.248,2.904-18.478-3.854-18.106c-7.084,0.396-0.471,14.29-3.981,17.903
	C155.198,653.026,156.428,633.754,156.387,631.497z"/>
<path fill="none" stroke="#000000" stroke-width="2" stroke-miterlimit="10" d="M192.649,631.497
	c-3.21-5.791-6.593-1.598-6.593,2.988c0,2.061,1.084,8.063,0,9.844c0,7.065-6.164,1.525-6.207-3.563
	c-0.032-3.801-1.888-14.742,0.654-17.586c1.737-1.945,11.313-0.754,13.23,0.247c5.804,3.031,17.479-4.89,17.479,9.639
	c0,1.191,0.961,20.308-5.427,13.495c-3.044-3.248,2.904-18.478-3.854-18.106c-7.084,0.396-0.471,14.29-3.981,17.903
	C191.46,653.026,192.69,633.754,192.649,631.497z"/>
<path fill="none" stroke="#000000" stroke-width="2" stroke-miterlimit="10" d="M214.306,633.88
	c3.686-15.284,24.926-12.746,21.404,3.905C232.282,653.881,210.493,649.557,214.306,633.88z"/>
<path fill="none" stroke="#000000" stroke-width="2" stroke-miterlimit="10" d="M220.392,634.945
	c-1.06,5.667,4.131,10.956,8.166,4.134C233.629,630.512,223.285,625.418,220.392,634.945
	C220.291,635.486,220.628,634.168,220.392,634.945z"/>
<path fill="none" stroke="#000000" stroke-width="2" stroke-miterlimit="10" d="M259.951,644.684
	c-0.967,8.071-6.187-0.81-6.187-4.768c0-3.739,2.445-15.957-5.224-9.991c-3.504,2.846-0.321,19.597-6.543,17.346
	c-6.36-2.123-1.51-30.884,3.703-22.874C261.371,614.205,259.951,636.532,259.951,644.684z"/>
<path fill="none" stroke="#000000" stroke-width="2" stroke-miterlimit="10" d="M296.925,639.662
	c3.222-2.061,6.53,1.048,4.311,4.312c-3.475,5.367-12.159,4.192-15.722-0.33c-8.024-10.169,4.744-28.999,16.306-19.096
	c8.37,7.178-7.15,3.485-7.506,3.526C286.77,628.912,288.104,646.196,296.925,639.662z"/>
<path fill="none" stroke="#000000" stroke-width="2" stroke-miterlimit="10" d="M312.19,647.042
	c-6.861,4.959-4.87-19.224-4.87-21.405c0-13.229,6.515-16.131,6.188,0.331c11.218-7.582,15.48,6.562,15.139,14.962
	c-0.443,10.927-7.141,6.219-6.313-2.587c0.701-7.466-3.239-9.888-8.014-4.311C312.306,637.387,315.728,644.472,312.19,647.042
	C311.514,647.531,312.866,646.551,312.19,647.042z"/>
<path fill="none" stroke="#000000" stroke-width="2" stroke-miterlimit="10" d="M333.744,615.723
	c0.483-4.475,6.807-4.843,6.949-0.101C341.003,620.907,334.805,619.809,333.744,615.723z"/>
<path fill="none" stroke="#000000" stroke-width="2" stroke-miterlimit="10" d="M340.439,644.582
	c-0.342,3.39-5.019,4.383-6.01,0.837c-1.608-5.713,0.288-12.384-0.432-18.259c-0.609-4.993,6.34-7.079,6.34-1.927
	C340.338,631.683,340.474,638.132,340.439,644.582z"/>
<path fill="none" stroke="#000000" stroke-width="2" stroke-miterlimit="10" d="M358.393,631.497
	c-3.21-5.791-6.593-1.598-6.593,2.988c0,2.06,1.084,8.063,0,9.844c0,7.065-6.163,1.526-6.207-3.563
	c-0.032-3.801-1.888-14.74,0.653-17.586c1.737-1.945,11.313-0.754,13.231,0.247c5.803,3.032,17.479-4.89,17.479,9.639
	c0,1.189,0.959,20.311-5.427,13.495c-3.044-3.249,2.903-18.478-3.855-18.106c-7.083,0.396-0.47,14.29-3.98,17.903
	C357.203,653.024,358.435,633.755,358.393,631.497z"/>
<path fill="none" stroke="#000000" stroke-width="2" stroke-miterlimit="10" d="M381.317,625.156
	c0.8-2.742,11.533-2.843,13.923-1.901c14.487,5.712,5.367,24.421-7.786,23.457c0,2.994,1.211,8.952-0.608,11.513
	c-2.792,4.074-5.578-0.838-5.578-3.587C381.268,644.816,381.1,634.969,381.317,625.156z"/>
<path fill="none" stroke="#000000" stroke-width="2" stroke-miterlimit="10" d="M387.81,631.75
	c-2.253,3.786-1.449,10.058,3.805,8.622C400.406,638.225,394.685,623.743,387.81,631.75
	C387.709,631.92,388.216,631.276,387.81,631.75z"/>
<path fill="none" stroke="#000000" stroke-width="2" stroke-miterlimit="10" d="M428.231,643.771
	c1.481,5.382-16.651,4.418-19.755,1.369c-7.182-7.049,0.605-19.164,7.989-21.809C430.464,618.328,423.645,636.894,428.231,643.771z"
	/>
<path fill="none" stroke="#000000" stroke-width="2" stroke-miterlimit="10" d="M417.479,641.488
	c4.373-2.777,1.85-7.79,2.028-12.578C411.458,630.343,410.244,644.386,417.479,641.488
	C417.852,641.252,416.972,641.691,417.479,641.488z"/>
<path fill="none" stroke="#000000" stroke-width="2" stroke-miterlimit="10" d="M452.019,644.684
	c-0.971,8.073-6.188-0.811-6.188-4.768c0-3.739,2.445-15.958-5.223-9.991c-3.504,2.846-0.321,19.597-6.543,17.346
	c-6.361-2.124-1.51-30.884,3.703-22.874C453.438,614.205,452.019,636.532,452.019,644.684z"/>
<path fill="none" stroke="#000000" stroke-width="2" stroke-miterlimit="10" d="M476.362,641.387
	c10.859,4.94-15.973,5.954-17.954,5.832c-9.789-0.616,6.771-16.737,8.47-18.613c-2.772,0.133-9.778,1.891-11.563-0.888
	c-3.335-5.153,6.043-5.103,7.962-5.173c21.13-0.766,9.841,7.245,0.964,18.233C468.285,640.711,472.36,640.885,476.362,641.387z"/>
<path fill="none" stroke="#000000" stroke-width="2" stroke-miterlimit="10" d="M497.918,639.206
	c6.492-1.625,3.125,5.624-0.812,6.999c-10.002,3.677-19.707-2.359-17.446-13.643c3.656-18.326,37.811-2.642,6.795,7.354
	C489.363,643.237,494.923,641.248,497.918,639.206z"/>
<path fill="none" stroke="#000000" stroke-width="2" stroke-miterlimit="10" d="M487.674,630.482
	c-1.62,0.999-2.465,2.47-2.536,4.412C492.994,632.479,497.906,625.591,487.674,630.482z"/>
<path fill="none" stroke="#000000" stroke-width="2" stroke-miterlimit="10" d="M523.074,639.206
	c6.492-1.625,3.125,5.624-0.812,6.999c-10.002,3.677-19.708-2.359-17.447-13.643c3.656-18.326,37.812-2.642,6.796,7.354
	C514.52,643.237,520.079,641.248,523.074,639.206z"/>
<path fill="none" stroke="#000000" stroke-width="2" stroke-miterlimit="10" d="M512.829,630.482
	c-1.619,0.999-2.465,2.47-2.536,4.412C518.149,632.479,523.062,625.591,512.829,630.482z"/>
<path fill="none" stroke="#000000" stroke-width="2" stroke-miterlimit="10" d="M528.907,649.046
	c6.677-6.706,7.411-18.23,4.21-26.83c-1.092-2.937-4.838-6.081-5.021-9.231c-0.135-3.475,4.3-4.557,5.884-1.521
	c7.816,11.021,9.161,24.11,3.372,36.594C534.656,653.862,524.874,657.138,528.907,649.046z"/>
<path fill="none" stroke="#000000" stroke-width="2" stroke-miterlimit="10" d="M501.334,186.925
	c-15.237-6.165-31.034-4.224-46.255,0.922c-11.054,3.737-11.225,3.109-11.225,13.031c0,18.091,0,36.182,0,54.272
	c0,8.186-2.645,10.749,6.383,11.817c17.433,2.062,36,1.354,51.81-6.987C531.047,244.678,528.71,203.155,501.334,186.925
	C491.867,183.095,507.421,190.534,501.334,186.925z"/>
<path fill="none" stroke="#000000" stroke-width="2" stroke-miterlimit="10" d="M71.523,466.285
	c63.439,22.529,137.857,4.765,191.867-32.403c27.89-19.192,51.857-43.637,72.3-70.523c10.878-14.306,20.79-29.333,29.882-44.832
	c2.913-4.967,16.917-35.112,19.312-16.927c-28.228,63.618-72.979,123.125-134.754,157.271
	c-31.297,17.301-66.182,27.507-101.973,28.797c-18.76,0.676-37.544-1.216-55.8-5.565c-8.144-1.946-16.171-4.346-23.851-7.715
	C66.709,471.801,64.249,463.736,71.523,466.285C78.661,468.819,69.413,465.546,71.523,466.285z"/>
<path fill="none" stroke="#000000" stroke-width="2" stroke-miterlimit="10" d="M559.923,196.05
	c-12.679-34.767-44.801-55.016-81.412-53.588c-17.771,0.692-35.161,5.689-51.563,12.342c-10.909-3.622-21.385,7.641-24.007,17.244
	c-2.905,22.042-0.338,45.924-0.338,68.144c0,5.448,0,10.896,0,16.343c0,5.682-2.028,4.412-6.162,8.912
	c-15.746,17.14,6.5,24.459,6.5,39.388c0,1.319-0.047,2.801-0.122,4.409c8.152,1.54,18.362,6.083,31.128,15.422
	c0,0-15.572,16.297-32.396,19.769c0.766,17.776,5.352,34.064,21.803,34.967c29.951,1.645,20.501-53.744,20.501-72.779
	c33.814,4.037,68.627,1.781,94.665-22.73C562.346,261.462,571.202,226.977,559.923,196.05z"/>
<path fill="none" stroke="#000000" stroke-width="2" stroke-miterlimit="10" d="M192.287,309.927
	c-0.317,6.261-5.472,20.587-13.84,20.162c-8.141-0.409-10.234-15.709-9.948-21.367C169.596,287.104,193.346,289.098,192.287,309.927
	C191.755,320.437,192.821,299.421,192.287,309.927z"/>
<path fill="none" stroke="#000000" stroke-width="2" stroke-miterlimit="10" d="M254.439,305.049
	c0.666-13.126,14.424-12.431,13.761,0.696C267.537,318.872,253.775,318.176,254.439,305.049
	C254.739,299.139,254.14,310.959,254.439,305.049z"/>
<path fill="none" stroke="#000000" stroke-width="2" stroke-miterlimit="10" d="M340.275,295.015
	c-0.089,10.642-10.163,17.939-20.188,17.858c-10.151-0.086-1.585-9.738-1.536-15.694c0.049-5.652-8.785-20.445,1.836-20.356
	C330.413,276.907,340.364,284.373,340.275,295.015C340.191,304.971,340.358,285.061,340.275,295.015z"/>
<path fill="none" stroke="#000000" stroke-width="2" stroke-miterlimit="10" d="M101.033,281.627
	c-0.924,10.601,8.409,18.826,18.396,19.699c10.481,0.915,3.071-12.821,3.575-18.577c0.511-5.858,9.887-16.434-0.438-17.337
	C112.577,264.542,101.959,271.024,101.033,281.627C100.169,291.544,101.899,271.708,101.033,281.627z"/>
<path fill="none" stroke="#000000" stroke-width="2" stroke-miterlimit="10" d="M204.491,316.233
	c0.242-9.829,24.348-9.231,24.104,0.598S204.245,326.062,204.491,316.233C204.588,312.288,204.392,320.178,204.491,316.233z"/>
<path fill="none" stroke="#000000" stroke-width="2" stroke-miterlimit="10" d="M291.105,319.642
	c3.506-8.687,5.753-17.831,4.094-27.238c-7.59-43.078-60.876-43.327-73.691-3.775c-3.534-9.022-5.898-17.6-13.092-23.954
	c-32.523-28.713-77.125,4.493-59.818,44.442c-6.783,7.242-13.073,15.342-14.805,25.563c-1.058,6.249-0.913,12.021,0.208,17.355
	c6.561,10.303,15.204,19.349,25.406,26.615c0.239,2.944,0.618,5.733,1.04,8.137c-0.453-2.553-0.797-4.491,0.027,0.159
	c1.291,7.273,0.59,3.32,0.013,0.066c2.457,13.769,11.338,37.125,27.449,39.389c17.019,2.391,21.577-15.949,20.951-29.316
	c1.759,0.177,3.53,0.321,5.317,0.412c40.982,2.076,77.306-19.468,93.91-51.92C306.773,334.44,301.527,324.327,291.105,319.642z"/>
<path fill="none" stroke="#000000" stroke-width="2" stroke-miterlimit="10" d="M193.852,340.902
	c-0.89,8.507-44.714,3.968-43.835-4.538C150.904,327.853,194.73,332.394,193.852,340.902
	C193.518,344.099,194.183,337.702,193.852,340.902z"/>
<path fill="none" stroke="#000000" stroke-width="2" stroke-miterlimit="10" d="M234.894,342.212
	c8.121,8.351,7.998,23.984-7.512,23.082c-7.377-0.428-8.683-8.031-7.927-14.097C220.435,343.326,234.724,345.454,234.894,342.212z"
	/>
<path fill="none" stroke="#000000" stroke-width="2" stroke-miterlimit="10" d="M210.759,347.173
	c-6.882,0-14.061-1.264-19.837-5.236c0.337-0.491,0.675-0.983,1.012-1.474c15.891,10.933,41.599,2.857,57.16-4.868
	c0.265,0.533,0.53,1.066,0.795,1.598C237.966,343.111,224.133,347.173,210.759,347.173z"/>
<path fill="none" stroke="#000000" stroke-width="2" stroke-miterlimit="10" d="M284.81,328.66
	c-0.056,8.555-44.117,8.287-44.068-0.27C240.802,319.831,284.863,320.115,284.81,328.66
	C284.788,331.878,284.83,325.444,284.81,328.66z"/>
<path fill="none" stroke="#000000" stroke-width="2" stroke-miterlimit="10" d="M174.743,305.337
	c0.351-6.925,11.648-6.352,11.297,0.573C185.688,312.835,174.391,312.263,174.743,305.337z"/>
<g>
	<path fill="none" stroke="#000000" stroke-width="2" stroke-miterlimit="10" d="M324.013,269.133
		c-4.561-0.064-9.086,1.105-13.052,3.352c-21.035-50.574-83.362-72.137-132.801-51.521c-12.018,5.012-23.063,12.36-32.208,21.64
		c-4.485,4.551-8.508,9.558-11.959,14.935c-4.288,6.68-8.994,0.683-16.585,1.363c-27.354,2.45-30.792,41.862-4.279,49.018
		c8.375,2.261,6.552,0.79,7.942,9.911c0.896,5.879,2.402,11.664,4.475,17.238c4.124,11.089,10.481,21.297,18.471,30.013
		c4.645,5.068,9.823,9.574,15.386,13.524c0.238,2.96,0.62,5.765,1.043,8.18c-0.453-2.553-0.797-4.491,0.027,0.159
		c1.291,7.273,0.59,3.32,0.013,0.066c2.457,13.769,11.338,37.125,27.449,39.389c17.017,2.391,21.576-15.945,20.951-29.312
		c0.125,0.013,0.249,0.033,0.374,0.045c49.61,4.812,100.275-27.806,107.532-78.949C352.498,328.019,361.096,269.657,324.013,269.133
		z"/>
	<path fill="none" stroke="#000000" stroke-width="2" stroke-miterlimit="10" d="M324.013,269.133
		C338.066,269.331,319.256,269.065,324.013,269.133L324.013,269.133z"/>
</g>
<path fill="none" stroke="#000000" stroke-width="2" stroke-miterlimit="10" d="M160.473,386.945
	c-2.652-14.958-3.779-45.313,21.445-33.781c16.224,7.417,24.957,24.145,26.76,41.143c1.423,13.421-2.51,34.655-20.743,32.094
	C171.798,424.133,162.914,400.705,160.473,386.945C158.586,376.305,162.818,400.161,160.473,386.945z"/>
</svg>
