<?xml version="1.0" encoding="utf-8"?>
<!-- Generator: Adobe Illustrator 16.0.0, SVG Export Plug-In . SVG Version: 6.00 Build 0)  -->
<!DOCTYPE svg PUBLIC "-//W3C//DTD SVG 1.1//EN" "http://www.w3.org/Graphics/SVG/1.1/DTD/svg11.dtd">
<svg version="1.1" id="Layer_1" xmlns="http://www.w3.org/2000/svg" xmlns:xlink="http://www.w3.org/1999/xlink" x="0px" y="0px"
	 width="612px" height="612px" viewBox="0 90 612 612" enable-background="new 0 90 612 612" xml:space="preserve">
<path fill="none" stroke="#231F20" stroke-width="2" stroke-miterlimit="10" d="M108.267,596.408
	c0.81,0.512,1.407,1.161,1.791,1.951c0.384,0.788,0.544,1.577,0.48,2.367c-0.064,0.788-0.374,1.48-0.928,2.078
	c-0.555,0.598-1.386,0.917-2.495,0.96c-0.811,0.041-1.749-0.128-2.814-0.513c-1.066-0.384-2.133-0.863-3.199-1.439
	c-1.066-0.575-2.068-1.184-3.006-1.823c-0.939-0.64-1.707-1.194-2.303-1.663c-1.066,0.554-2.175,1.065-3.326,1.535
	c-1.151,0.469-2.41,0.746-3.774,0.831c-0.896,0.214-1.792,0.245-2.687,0.097c-0.895-0.15-1.706-0.311-2.431-0.48
	c-2.389-0.47-4.552-1.29-6.492-2.462c-1.94-1.173-3.55-2.824-4.829-4.958c-1.407-2.303-2.357-4.883-2.847-7.739
	c-0.491-2.856-0.575-5.725-0.256-8.604c0.32-2.879,1.045-5.649,2.175-8.315c1.129-2.665,2.654-4.979,4.573-6.94
	c2.004-2.047,4.371-3.528,7.101-4.446c2.729-0.916,5.479-1.247,8.251-0.991s5.383,1.099,7.836,2.527
	c2.452,1.429,4.36,3.485,5.725,6.172c1.108,2.176,1.855,4.521,2.239,7.036c0.383,2.517,0.425,5.054,0.127,7.612
	c-0.298,2.559-0.906,5.044-1.823,7.452c-0.917,2.41-2.122,4.553-3.614,6.429c1.023,0.683,2.079,1.29,3.166,1.823
	C105.996,595.438,107.115,595.939,108.267,596.408z"/>
<path fill="none" stroke="#231F20" stroke-width="2" stroke-miterlimit="10" d="M90.74,582.144c0.895,0.47,1.779,1.279,2.654,2.431
	c0.874,1.152,1.695,2.218,2.463,3.199c0.98-1.449,1.737-2.964,2.271-4.542c0.533-1.577,0.992-3.263,1.375-5.053
	c0-0.854,0-1.728,0-2.623s-0.054-1.791-0.16-2.688c-0.107-0.895-0.278-1.769-0.512-2.622c-0.235-0.853-0.607-1.642-1.119-2.366
	c-0.811-1.236-1.866-2.217-3.167-2.942c-1.301-0.725-2.677-1.193-4.126-1.408c-1.451-0.213-2.878-0.128-4.285,0.257
	c-1.408,0.384-2.666,1.087-3.774,2.11c-1.918,1.791-3.358,3.956-4.317,6.492c-0.96,2.537-1.418,5.085-1.375,7.644
	c0,1.493,0.181,2.975,0.543,4.446c0.362,1.471,0.928,2.804,1.695,3.997c0.768,1.195,1.748,2.197,2.942,3.007
	c1.193,0.811,2.623,1.279,4.286,1.407c1.065,0.128,2.196,0.063,3.39-0.191c-0.854-0.938-1.717-1.993-2.59-3.167
	c-0.875-1.172-1.375-2.291-1.503-3.357c-0.128-0.725-0.043-1.396,0.255-2.015s0.704-1.13,1.216-1.536
	c0.511-0.404,1.108-0.672,1.791-0.8C89.375,581.696,90.057,581.803,90.74,582.144z"/>
<path fill="none" stroke="#231F20" stroke-width="2" stroke-miterlimit="10" d="M142.424,592.507
	c0.384,0.554,0.608,1.205,0.672,1.95c0.063,0.747-0.022,1.451-0.256,2.111c-0.235,0.661-0.619,1.204-1.151,1.631
	c-0.534,0.426-1.226,0.618-2.078,0.576c-1.11-0.087-2.005-0.471-2.687-1.152c-0.682-0.681-1.322-1.449-1.918-2.303
	c-1.664,1.365-3.38,2.312-5.149,2.847c-1.77,0.532-3.508,0.649-5.213,0.351c-1.707-0.298-3.306-1.013-4.797-2.143
	c-1.494-1.129-2.751-2.654-3.774-4.573c-0.939-1.791-1.461-3.774-1.567-5.949c-0.107-2.175-0.139-4.243-0.096-6.205
	c0-0.681,0.021-1.353,0.064-2.015c0.042-0.66,0.085-1.353,0.128-2.078c0.042-0.554,0.063-1.098,0.063-1.632
	c0-0.532,0.032-1.033,0.096-1.503c0.063-0.469,0.192-0.937,0.384-1.407c0.191-0.469,0.479-0.917,0.863-1.343
	c0.512-0.554,1.13-0.885,1.855-0.992c0.725-0.105,1.417-0.031,2.079,0.225c0.661,0.256,1.236,0.649,1.727,1.184
	c0.49,0.533,0.756,1.184,0.8,1.951c0.085,2.175,0.032,4.372-0.16,6.589c-0.191,2.218-0.182,4.393,0.032,6.524
	c0.085,1.023,0.352,2.068,0.8,3.134c0.448,1.066,1.161,1.834,2.143,2.303c0.98,0.427,1.972,0.396,2.975-0.096
	c1.001-0.489,1.823-1.077,2.462-1.759c0.298-0.341,0.586-0.714,0.864-1.119c0.276-0.405,0.585-0.757,0.928-1.056
	c-0.171-1.492-0.278-2.984-0.32-4.478c-0.043-1.492-0.043-2.984,0-4.478c0-0.81,0.032-1.695,0.096-2.654
	c0.064-0.96,0.234-1.876,0.512-2.75c0.277-0.874,0.693-1.642,1.247-2.304c0.554-0.66,1.344-1.076,2.367-1.247
	c0.469-0.085,0.928-0.042,1.375,0.128c0.447,0.171,0.841,0.406,1.184,0.703c0.597,0.512,1.001,1.087,1.215,1.728
	c0.213,0.64,0.319,1.321,0.319,2.047s-0.054,1.461-0.16,2.206c-0.107,0.747-0.182,1.439-0.224,2.078
	c-0.086,1.195-0.15,2.453-0.191,3.774c-0.043,1.322,0,2.645,0.128,3.966c0.128,1.322,0.373,2.602,0.735,3.838
	C141.155,590.354,141.698,591.482,142.424,592.507z"/>
<path fill="none" stroke="#231F20" stroke-width="2" stroke-miterlimit="10" d="M146.901,559.309
	c0.169-1.577,0.713-2.74,1.631-3.486c0.917-0.746,1.887-1.108,2.911-1.087c1.023,0.021,1.972,0.416,2.847,1.184
	c0.873,0.768,1.332,1.854,1.375,3.263c0.085,1.449-0.288,2.568-1.119,3.357c-0.832,0.79-1.781,1.237-2.847,1.343
	c-1.067,0.107-2.069-0.181-3.007-0.863c-0.938-0.682-1.514-1.77-1.727-3.262L146.901,559.309z"/>
<path fill="none" stroke="#231F20" stroke-width="2" stroke-miterlimit="10" d="M155.345,595.704
	c-0.086,0.854-0.384,1.61-0.896,2.271c-0.512,0.66-1.099,1.14-1.759,1.439c-0.662,0.297-1.376,0.361-2.143,0.191
	c-0.768-0.171-1.451-0.64-2.047-1.408c-0.342-0.426-0.586-0.904-0.735-1.439c-0.15-0.532-0.246-1.087-0.288-1.663
	c-0.043-0.575-0.054-1.151-0.032-1.727c0.021-0.575,0.032-1.097,0.032-1.567c-0.043-2.516-0.054-5.011-0.032-7.483
	c0.021-2.473,0.011-4.968-0.032-7.484c0-1.023-0.063-2.057-0.191-3.103c-0.128-1.044-0.064-2.078,0.191-3.102
	c0.213-0.768,0.586-1.429,1.12-1.982c0.533-0.555,1.129-0.938,1.791-1.152c0.661-0.213,1.343-0.233,2.047-0.063
	c0.704,0.171,1.312,0.619,1.823,1.344c0.682,0.854,1.023,1.695,1.023,2.526s0,1.845,0,3.038c0,1.45,0,2.9,0,4.35
	c0,1.45,0.021,2.878,0.063,4.286c0.042,2.047,0.064,4.094,0.064,6.14c0,2.047,0,4.094,0,6.141V595.704z"/>
<path fill="none" stroke="#231F20" stroke-width="2" stroke-miterlimit="10" d="M160.909,593.21
	c-0.256-0.725-0.363-1.439-0.319-2.143c0.042-0.704,0.224-1.344,0.543-1.92c0.32-0.575,0.778-1.023,1.376-1.343
	c0.597-0.319,1.321-0.437,2.174-0.352c0.469,0.043,0.896,0.171,1.279,0.384c0.384,0.214,0.736,0.47,1.056,0.768
	c0.32,0.299,0.639,0.618,0.959,0.96c0.319,0.342,0.65,0.639,0.991,0.895c0.725,0.555,1.492,0.959,2.303,1.216
	c0.81,0.256,1.663,0.447,2.559,0.575c0.597,0,1.077-0.148,1.439-0.447c0.362-0.298,0.608-0.661,0.736-1.088
	c0.128-0.425,0.16-0.884,0.096-1.375c-0.063-0.489-0.224-0.884-0.479-1.184c-0.726-0.725-1.61-1.193-2.655-1.407
	c-1.045-0.213-2.015-0.469-2.91-0.768c-1.279-0.426-2.538-0.97-3.774-1.631c-1.237-0.661-2.239-1.567-3.007-2.719
	c-0.81-1.193-1.29-2.462-1.439-3.806c-0.15-1.343-0.042-2.655,0.32-3.935c0.361-1.279,0.969-2.451,1.823-3.519
	c0.853-1.064,1.875-1.939,3.07-2.622c0.895-0.512,1.875-0.842,2.942-0.991c1.065-0.148,2.143-0.181,3.23-0.096
	c1.088,0.086,2.164,0.288,3.23,0.607c1.065,0.32,2.047,0.672,2.942,1.056c1.023,0.471,1.792,1.131,2.303,1.982
	c0.512,0.854,0.757,1.718,0.736,2.591c-0.022,0.875-0.32,1.631-0.896,2.271c-0.576,0.641-1.418,0.96-2.526,0.96
	c-0.683,0-1.301-0.117-1.855-0.353c-0.554-0.233-1.13-0.457-1.727-0.672c-0.767-0.297-1.599-0.5-2.495-0.606
	c-0.895-0.106-1.621-0.054-2.174,0.159c-0.171,0.043-0.363,0.183-0.576,0.416c-0.214,0.235-0.374,0.522-0.48,0.864
	c-0.107,0.342-0.128,0.682-0.063,1.022c0.063,0.343,0.288,0.619,0.671,0.832c1.023,0.555,2.11,0.981,3.262,1.279
	c1.151,0.299,2.281,0.64,3.391,1.023c1.108,0.384,2.143,0.875,3.102,1.471c0.959,0.598,1.759,1.45,2.398,2.559
	c0.938,1.622,1.417,3.316,1.439,5.086c0.021,1.771-0.331,3.423-1.056,4.958c-0.726,1.535-1.791,2.846-3.198,3.934
	c-1.407,1.087-3.049,1.737-4.925,1.951c-1.323,0.128-2.623,0.054-3.901-0.224c-1.279-0.277-2.517-0.726-3.71-1.343
	c-1.194-0.619-2.303-1.354-3.327-2.207c-1.023-0.853-1.919-1.747-2.687-2.687L160.909,593.21z"/>
<path fill="none" stroke="#231F20" stroke-width="2" stroke-miterlimit="10" d="M205.429,589.5c1.066-0.682,2.079-0.98,3.039-0.896
	c0.96,0.086,1.748,0.416,2.367,0.991c0.618,0.575,0.96,1.344,1.023,2.303c0.063,0.96-0.267,1.974-0.992,3.039
	c-0.47,0.726-1.141,1.386-2.015,1.982c-0.875,0.597-1.717,1.065-2.526,1.407c-1.877,0.854-3.774,1.237-5.692,1.151
	c-1.919-0.086-3.7-0.554-5.341-1.407c-1.643-0.853-3.061-2.035-4.254-3.55c-1.194-1.514-2.005-3.272-2.431-5.277
	c-0.854-3.838-0.683-7.526,0.512-11.065c0.469-1.28,1.034-2.516,1.695-3.71c0.661-1.193,1.46-2.281,2.398-3.263
	c0.938-0.98,1.983-1.844,3.135-2.59c1.151-0.746,2.409-1.248,3.774-1.503c0.938-0.17,2.131-0.161,3.582,0.032
	c1.449,0.191,2.867,0.565,4.253,1.118c1.385,0.556,2.601,1.28,3.646,2.176s1.631,1.962,1.759,3.198c0.085,0.683,0,1.312-0.256,1.887
	s-0.619,1.056-1.088,1.439c-0.47,0.384-1.013,0.65-1.631,0.8c-0.619,0.15-1.248,0.14-1.887-0.031
	c-0.768-0.214-1.375-0.501-1.823-0.863c-0.447-0.362-1.034-0.842-1.759-1.439c-0.342-0.086-0.662-0.225-0.959-0.417
	c-0.299-0.191-0.619-0.266-0.96-0.224l-1.727,0.191c-0.298,0.171-0.576,0.32-0.832,0.448s-0.512,0.256-0.768,0.384
	c-1.45,1.449-2.517,3.06-3.198,4.829c-0.683,1.771-0.854,3.678-0.512,5.725c0.213,1.322,0.629,2.41,1.248,3.263
	c0.617,0.854,1.343,1.439,2.175,1.759s1.748,0.352,2.75,0.096c1.002-0.256,1.993-0.831,2.974-1.727L205.429,589.5z"/>
<path fill="none" stroke="#231F20" stroke-width="2" stroke-miterlimit="10" d="M243.552,594.682
	c0.341,1.236,0.277,2.261-0.192,3.07c-0.47,0.81-1.119,1.354-1.951,1.631c-0.831,0.277-1.738,0.245-2.719-0.096
	c-0.981-0.342-1.834-1.023-2.559-2.047c-1.195,0.896-2.357,1.523-3.486,1.887c-1.13,0.362-2.421,0.565-3.87,0.607
	c-2.175,0.086-4.116-0.16-5.821-0.735c-1.707-0.575-3.146-1.439-4.318-2.59c-1.173-1.151-2.037-2.591-2.59-4.318
	c-0.555-1.727-0.747-3.72-0.576-5.98c0.085-0.937,0.245-1.854,0.48-2.75c0.234-0.896,0.5-1.77,0.799-2.623
	c0.341-0.938,0.82-1.939,1.439-3.006c0.617-1.065,1.247-1.982,1.887-2.751c2.303-2.814,5.181-4.839,8.635-6.076
	c0.597-0.213,1.407-0.405,2.431-0.575c1.024-0.171,2.057-0.245,3.103-0.225c1.044,0.022,2.047,0.16,3.006,0.416
	c0.96,0.256,1.673,0.704,2.143,1.343c0.383,0.512,0.661,0.96,0.831,1.344c0.17,0.384,0.266,0.789,0.288,1.215
	c0.021,0.427,0.021,0.886,0,1.375c-0.022,0.491-0.032,1.099-0.032,1.823c0,1.194-0.011,2.356-0.032,3.486
	c-0.022,1.13-0.011,2.271,0.032,3.422c0,0.384,0,0.885,0,1.503c0,0.619,0.021,1.27,0.063,1.951c0.042,0.683,0.096,1.334,0.16,1.951
	c0.064,0.619,0.16,1.119,0.288,1.504L243.552,594.682z"/>
<path fill="none" stroke="#231F20" stroke-width="2" stroke-miterlimit="10" d="M229.992,591.803
	c0.469-0.298,1.001-0.629,1.599-0.991c0.597-0.362,1.129-0.778,1.599-1.247c-0.384-2.26-0.608-4.521-0.671-6.781
	c-0.063-2.259-0.054-4.541,0.032-6.844c-1.919,0.342-3.646,1.173-5.181,2.494c-1.535,1.322-2.602,2.878-3.198,4.67
	c-0.256,0.726-0.47,1.471-0.64,2.238c-0.171,0.768-0.235,1.514-0.191,2.238c0.042,0.982,0.298,1.802,0.767,2.463
	s1.033,1.162,1.695,1.503c0.661,0.342,1.364,0.533,2.111,0.575C228.659,592.166,229.352,592.059,229.992,591.803z"/>
<path fill="none" stroke="#231F20" stroke-width="2" stroke-miterlimit="10" d="M257.05,593.529
	c0.469,0.427,0.863,0.971,1.184,1.632c0.319,0.662,0.49,1.322,0.512,1.982c0.021,0.661-0.128,1.279-0.447,1.855
	c-0.32,0.575-0.886,1.012-1.695,1.312c-0.64,0.213-1.343,0.256-2.111,0.127c-0.768-0.127-1.525-0.383-2.271-0.767
	c-0.747-0.384-1.407-0.843-1.983-1.376c-0.576-0.533-0.992-1.119-1.247-1.759c-0.086-0.213-0.15-0.457-0.192-0.735
	c-0.042-0.276-0.064-0.522-0.064-0.735v-35.501c0-0.981,0.373-1.812,1.119-2.495c0.746-0.682,1.567-1.087,2.463-1.215
	c0.425-0.042,0.884,0.021,1.375,0.191c0.49,0.171,0.949,0.416,1.375,0.735s0.778,0.694,1.056,1.119
	c0.277,0.427,0.416,0.875,0.416,1.344c0,1.109,0,2.581,0,4.414s0.011,3.838,0.032,6.012c0.021,2.176,0.032,4.425,0.032,6.748
	c0,2.325-0.011,4.553-0.032,6.685c-0.022,2.133-0.032,4.084-0.032,5.853c0,1.771-0.022,3.188-0.063,4.254L257.05,593.529z"/>
<path fill="none" stroke="#231F20" stroke-width="2" stroke-miterlimit="10" d="M290.695,592.507
	c0.383,0.554,0.607,1.205,0.672,1.95c0.063,0.747-0.022,1.451-0.256,2.111c-0.235,0.661-0.619,1.204-1.151,1.631
	c-0.534,0.426-1.226,0.618-2.078,0.576c-1.11-0.087-2.005-0.471-2.687-1.152c-0.682-0.681-1.322-1.449-1.918-2.303
	c-1.664,1.365-3.38,2.312-5.149,2.847c-1.77,0.532-3.508,0.649-5.213,0.351c-1.706-0.298-3.306-1.013-4.797-2.143
	c-1.494-1.129-2.751-2.654-3.774-4.573c-0.939-1.791-1.461-3.774-1.567-5.949c-0.107-2.175-0.139-4.243-0.096-6.205
	c0-0.681,0.021-1.353,0.064-2.015c0.042-0.66,0.085-1.353,0.128-2.078c0.042-0.554,0.063-1.098,0.063-1.632
	c0-0.532,0.032-1.033,0.096-1.503c0.063-0.469,0.192-0.937,0.384-1.407c0.191-0.469,0.479-0.917,0.863-1.343
	c0.512-0.554,1.13-0.885,1.855-0.992c0.725-0.105,1.417-0.031,2.079,0.225c0.661,0.256,1.236,0.649,1.727,1.184
	c0.49,0.533,0.756,1.184,0.8,1.951c0.085,2.175,0.032,4.372-0.16,6.589c-0.191,2.218-0.182,4.393,0.032,6.524
	c0.085,1.023,0.352,2.068,0.8,3.134c0.448,1.066,1.161,1.834,2.143,2.303c0.98,0.427,1.972,0.396,2.974-0.096
	c1.001-0.489,1.823-1.077,2.463-1.759c0.298-0.341,0.585-0.714,0.863-1.119c0.277-0.405,0.586-0.757,0.928-1.056
	c-0.171-1.492-0.278-2.984-0.32-4.478c-0.043-1.492-0.043-2.984,0-4.478c0-0.81,0.032-1.695,0.096-2.654
	c0.064-0.96,0.234-1.876,0.512-2.75c0.277-0.874,0.693-1.642,1.248-2.304c0.554-0.66,1.343-1.076,2.366-1.247
	c0.469-0.085,0.928-0.042,1.375,0.128c0.447,0.171,0.841,0.406,1.184,0.703c0.597,0.512,1.001,1.087,1.215,1.728
	c0.213,0.64,0.319,1.321,0.319,2.047s-0.054,1.461-0.16,2.206c-0.107,0.747-0.182,1.439-0.224,2.078
	c-0.086,1.195-0.15,2.453-0.191,3.774c-0.043,1.322,0,2.645,0.128,3.966c0.128,1.322,0.373,2.602,0.736,3.838
	C289.426,590.354,289.97,591.482,290.695,592.507z"/>
<path fill="none" stroke="#231F20" stroke-width="2" stroke-miterlimit="10" d="M295.107,593.21
	c-0.256-0.725-0.363-1.439-0.319-2.143c0.042-0.704,0.224-1.344,0.543-1.92c0.32-0.575,0.778-1.023,1.376-1.343
	c0.597-0.319,1.321-0.437,2.174-0.352c0.469,0.043,0.896,0.171,1.279,0.384c0.383,0.214,0.735,0.47,1.056,0.768
	c0.32,0.299,0.639,0.618,0.959,0.96c0.319,0.342,0.65,0.639,0.991,0.895c0.725,0.555,1.492,0.959,2.303,1.216
	c0.81,0.256,1.663,0.447,2.559,0.575c0.597,0,1.076-0.148,1.439-0.447c0.362-0.298,0.607-0.661,0.735-1.088
	c0.128-0.425,0.16-0.884,0.097-1.375c-0.064-0.489-0.225-0.884-0.48-1.184c-0.726-0.725-1.609-1.193-2.654-1.407
	c-1.046-0.213-2.015-0.469-2.91-0.768c-1.279-0.426-2.538-0.97-3.774-1.631c-1.237-0.661-2.239-1.567-3.007-2.719
	c-0.81-1.193-1.29-2.462-1.439-3.806c-0.15-1.343-0.042-2.655,0.32-3.935c0.362-1.279,0.969-2.451,1.823-3.519
	c0.853-1.064,1.875-1.939,3.07-2.622c0.895-0.512,1.875-0.842,2.942-0.991c1.065-0.148,2.143-0.181,3.231-0.096
	c1.087,0.086,2.163,0.288,3.229,0.607c1.065,0.32,2.047,0.672,2.943,1.056c1.022,0.471,1.79,1.131,2.302,1.982
	c0.512,0.854,0.757,1.718,0.736,2.591c-0.022,0.875-0.32,1.631-0.896,2.271c-0.575,0.641-1.418,0.96-2.526,0.96
	c-0.684,0-1.302-0.117-1.855-0.353c-0.555-0.233-1.131-0.457-1.727-0.672c-0.768-0.297-1.6-0.5-2.495-0.606
	s-1.621-0.054-2.175,0.159c-0.171,0.043-0.363,0.183-0.576,0.416c-0.214,0.235-0.374,0.522-0.48,0.864
	c-0.107,0.342-0.128,0.682-0.063,1.022c0.063,0.343,0.288,0.619,0.671,0.832c1.023,0.555,2.111,0.981,3.262,1.279
	c1.151,0.299,2.281,0.64,3.39,1.023c1.109,0.384,2.144,0.875,3.104,1.471c0.958,0.598,1.758,1.45,2.398,2.559
	c0.938,1.622,1.416,3.316,1.439,5.086c0.021,1.771-0.331,3.423-1.056,4.958c-0.727,1.535-1.792,2.846-3.198,3.934
	c-1.408,1.087-3.05,1.737-4.927,1.951c-1.321,0.128-2.622,0.054-3.901-0.224c-1.279-0.277-2.517-0.726-3.71-1.343
	c-1.194-0.619-2.303-1.354-3.326-2.207c-1.023-0.853-1.919-1.747-2.687-2.687L295.107,593.21z"/>
<path fill="none" stroke="#231F20" stroke-width="2" stroke-miterlimit="10" d="M372.377,610.929
	c-0.171,0.895-0.479,1.651-0.928,2.271c-0.447,0.618-0.971,1.056-1.567,1.312c-0.598,0.256-1.27,0.309-2.015,0.16
	c-0.747-0.15-1.525-0.566-2.335-1.247c-0.214-0.215-0.373-0.673-0.479-1.376s-0.182-1.558-0.224-2.559
	c-0.043-1.003-0.063-2.079-0.063-3.229c0-1.152,0-2.261,0-3.327s-0.011-2.037-0.032-2.91c-0.021-0.875-0.075-1.525-0.16-1.951
	c-1.322,0.342-2.645,0.565-3.966,0.672c-1.322,0.106-2.665,0.054-4.03-0.16c-2.132-0.384-3.913-1.129-5.341-2.238
	c-1.43-1.108-2.549-2.452-3.357-4.03c-0.812-1.577-1.334-3.326-1.568-5.244c-0.234-1.92-0.202-3.88,0.096-5.885
	c0.298-2.004,0.905-3.774,1.823-5.31c0.917-1.535,2.048-2.847,3.391-3.934c1.343-1.088,2.846-1.94,4.51-2.56
	c1.663-0.617,3.411-0.991,5.244-1.119c0.854-0.085,1.802-0.053,2.847,0.096c1.045,0.15,1.993,0.438,2.847,0.863
	c0.853-0.341,1.684-0.372,2.494-0.096c0.81,0.277,1.514,0.822,2.111,1.632c0.128,0.213,0.276,0.458,0.447,0.734
	c0.169,0.278,0.256,0.544,0.256,0.8c0.041,6.397,0.053,12.772,0.032,19.126c-0.022,6.354-0.032,12.729-0.032,19.126L372.377,610.929
	L372.377,610.929z"/>
<path fill="none" stroke="#231F20" stroke-width="2" stroke-miterlimit="10" d="M354.019,587.772
	c0.256,1.151,0.821,1.962,1.696,2.431c0.873,0.471,1.844,0.727,2.91,0.768c1.065,0.043,2.143-0.063,3.229-0.319
	c1.088-0.256,1.993-0.532,2.719-0.831v-13.177c-0.512-0.17-1.014-0.298-1.503-0.384c-0.491-0.085-0.991-0.128-1.503-0.128
	c-1.877,0-3.358,0.342-4.446,1.023c-1.087,0.683-1.887,1.578-2.398,2.687c-0.513,1.109-0.8,2.357-0.863,3.742
	C353.795,584.969,353.848,586.365,354.019,587.772z"/>
<path fill="none" stroke="#231F20" stroke-width="2" stroke-miterlimit="10" d="M405.575,592.507
	c0.384,0.554,0.607,1.205,0.672,1.95c0.063,0.747-0.022,1.451-0.256,2.111c-0.235,0.661-0.619,1.204-1.152,1.631
	c-0.533,0.426-1.227,0.618-2.078,0.576c-1.108-0.087-2.005-0.471-2.687-1.152c-0.683-0.681-1.322-1.449-1.919-2.303
	c-1.664,1.365-3.381,2.312-5.149,2.847c-1.771,0.532-3.508,0.649-5.214,0.351c-1.706-0.298-3.305-1.013-4.798-2.143
	c-1.492-1.129-2.75-2.654-3.773-4.573c-0.938-1.791-1.461-3.774-1.567-5.949s-0.14-4.243-0.096-6.205
	c0-0.681,0.021-1.353,0.063-2.015c0.042-0.66,0.085-1.353,0.128-2.078c0.042-0.554,0.063-1.098,0.063-1.632
	c0-0.532,0.032-1.033,0.097-1.503c0.063-0.469,0.191-0.937,0.384-1.407c0.191-0.469,0.479-0.917,0.863-1.343
	c0.512-0.554,1.129-0.885,1.854-0.992c0.725-0.105,1.417-0.031,2.079,0.225c0.66,0.256,1.236,0.649,1.727,1.184
	c0.489,0.533,0.757,1.184,0.799,1.951c0.086,2.175,0.033,4.372-0.159,6.589c-0.191,2.218-0.182,4.393,0.032,6.524
	c0.085,1.023,0.352,2.068,0.8,3.134c0.447,1.066,1.16,1.834,2.143,2.303c0.98,0.427,1.972,0.396,2.974-0.096
	c1.002-0.489,1.823-1.077,2.463-1.759c0.298-0.341,0.586-0.714,0.863-1.119s0.586-0.757,0.928-1.056
	c-0.17-1.492-0.277-2.984-0.319-4.478c-0.042-1.492-0.042-2.984,0-4.478c0-0.81,0.032-1.695,0.096-2.654
	c0.063-0.96,0.234-1.876,0.512-2.75s0.692-1.642,1.247-2.304c0.554-0.66,1.344-1.076,2.367-1.247
	c0.469-0.085,0.928-0.042,1.375,0.128c0.448,0.171,0.842,0.406,1.184,0.703c0.597,0.512,1.002,1.087,1.215,1.728
	c0.214,0.64,0.32,1.321,0.32,2.047s-0.055,1.461-0.16,2.206c-0.107,0.747-0.183,1.439-0.224,2.078
	c-0.087,1.195-0.15,2.453-0.192,3.774c-0.042,1.322,0,2.645,0.128,3.966c0.128,1.322,0.373,2.602,0.736,3.838
	C404.306,590.354,404.85,591.482,405.575,592.507z"/>
<path fill="none" stroke="#231F20" stroke-width="2" stroke-miterlimit="10" d="M410.052,559.309c0.17-1.577,0.714-2.74,1.632-3.486
	c0.916-0.746,1.887-1.108,2.91-1.087s1.972,0.416,2.846,1.184s1.333,1.854,1.375,3.263c0.086,1.449-0.288,2.568-1.119,3.357
	c-0.831,0.79-1.78,1.237-2.846,1.343c-1.066,0.107-2.069-0.181-3.007-0.863c-0.938-0.682-1.514-1.77-1.727-3.262L410.052,559.309z"
	/>
<path fill="none" stroke="#231F20" stroke-width="2" stroke-miterlimit="10" d="M418.495,595.704
	c-0.087,0.854-0.384,1.61-0.896,2.271c-0.513,0.66-1.099,1.14-1.76,1.439c-0.661,0.297-1.375,0.361-2.143,0.191
	c-0.768-0.171-1.45-0.64-2.047-1.408c-0.343-0.426-0.587-0.904-0.736-1.439c-0.149-0.532-0.245-1.087-0.287-1.663
	c-0.043-0.575-0.055-1.151-0.032-1.727c0.021-0.575,0.032-1.097,0.032-1.567c-0.043-2.516-0.055-5.011-0.032-7.483
	c0.021-2.473,0.01-4.968-0.032-7.484c0-1.023-0.063-2.057-0.192-3.103c-0.128-1.044-0.063-2.078,0.192-3.102
	c0.213-0.768,0.586-1.429,1.119-1.982c0.533-0.555,1.13-0.938,1.791-1.152c0.661-0.213,1.344-0.233,2.047-0.063
	c0.703,0.171,1.312,0.619,1.823,1.344c0.682,0.854,1.024,1.695,1.024,2.526s0,1.845,0,3.038c0,1.45,0,2.9,0,4.35
	c0,1.45,0.021,2.878,0.063,4.286c0.041,2.047,0.063,4.094,0.063,6.14c0,2.047,0,4.094,0,6.141L418.495,595.704L418.495,595.704z"/>
<path fill="none" stroke="#231F20" stroke-width="2" stroke-miterlimit="10" d="M424.06,593.21c-0.256-0.725-0.362-1.439-0.32-2.143
	c0.043-0.704,0.225-1.344,0.544-1.92c0.32-0.575,0.778-1.023,1.376-1.343c0.597-0.319,1.321-0.437,2.175-0.352
	c0.469,0.043,0.896,0.171,1.279,0.384c0.384,0.214,0.736,0.47,1.056,0.768c0.319,0.299,0.64,0.618,0.959,0.96
	s0.65,0.639,0.992,0.895c0.725,0.555,1.491,0.959,2.303,1.216c0.81,0.256,1.663,0.447,2.559,0.575c0.597,0,1.076-0.148,1.439-0.447
	c0.362-0.298,0.607-0.661,0.735-1.088c0.128-0.425,0.16-0.884,0.097-1.375c-0.063-0.489-0.225-0.884-0.48-1.184
	c-0.726-0.725-1.609-1.193-2.654-1.407c-1.046-0.213-2.015-0.469-2.911-0.768c-1.279-0.426-2.537-0.97-3.773-1.631
	s-2.238-1.567-3.006-2.719c-0.812-1.193-1.29-2.462-1.44-3.806c-0.149-1.343-0.042-2.655,0.32-3.935
	c0.361-1.279,0.97-2.451,1.823-3.519c0.853-1.064,1.876-1.939,3.07-2.622c0.896-0.512,1.876-0.842,2.942-0.991
	c1.065-0.148,2.144-0.181,3.23-0.096c1.087,0.086,2.164,0.288,3.229,0.607c1.066,0.32,2.048,0.672,2.943,1.056
	c1.023,0.471,1.791,1.131,2.303,1.982c0.512,0.854,0.756,1.718,0.735,2.591c-0.022,0.875-0.319,1.631-0.896,2.271
	c-0.575,0.641-1.418,0.96-2.526,0.96c-0.683,0-1.302-0.117-1.854-0.353c-0.556-0.233-1.131-0.457-1.728-0.672
	c-0.768-0.297-1.599-0.5-2.494-0.606c-0.896-0.106-1.621-0.054-2.175,0.159c-0.171,0.043-0.363,0.183-0.576,0.416
	c-0.214,0.235-0.373,0.522-0.479,0.864c-0.107,0.342-0.128,0.682-0.063,1.022c0.063,0.343,0.287,0.619,0.672,0.832
	c1.023,0.555,2.111,0.981,3.262,1.279c1.151,0.299,2.281,0.64,3.391,1.023c1.108,0.384,2.143,0.875,3.102,1.471
	c0.96,0.598,1.76,1.45,2.399,2.559c0.937,1.622,1.417,3.316,1.439,5.086c0.021,1.771-0.331,3.423-1.056,4.958
	c-0.726,1.535-1.792,2.846-3.198,3.934c-1.408,1.087-3.05,1.737-4.927,1.951c-1.321,0.128-2.622,0.054-3.901-0.224
	s-2.517-0.726-3.71-1.343c-1.193-0.619-2.303-1.354-3.326-2.207c-1.023-0.853-1.919-1.747-2.687-2.687L424.06,593.21z"/>
<path fill="none" stroke="#231F20" stroke-width="2" stroke-miterlimit="10" d="M468.58,589.5c1.065-0.682,2.078-0.98,3.038-0.896
	c0.96,0.086,1.748,0.416,2.366,0.991s0.96,1.344,1.024,2.303c0.063,0.96-0.268,1.974-0.991,3.039
	c-0.471,0.726-1.142,1.386-2.015,1.982c-0.876,0.597-1.718,1.065-2.527,1.407c-1.877,0.854-3.774,1.237-5.692,1.151
	c-1.92-0.086-3.7-0.554-5.342-1.407c-1.643-0.853-3.061-2.035-4.254-3.55c-1.194-1.514-2.005-3.272-2.432-5.277
	c-0.854-3.838-0.682-7.526,0.513-11.065c0.469-1.28,1.033-2.516,1.695-3.71c0.66-1.193,1.46-2.281,2.398-3.263
	c0.938-0.98,1.982-1.844,3.135-2.59c1.151-0.746,2.408-1.248,3.773-1.503c0.938-0.17,2.132-0.161,3.583,0.032
	c1.449,0.191,2.867,0.565,4.253,1.118c1.386,0.556,2.602,1.28,3.646,2.176c1.044,0.896,1.631,1.962,1.759,3.198
	c0.085,0.683,0,1.312-0.256,1.887s-0.619,1.056-1.088,1.439c-0.47,0.384-1.013,0.65-1.631,0.8c-0.618,0.15-1.247,0.14-1.887-0.031
	c-0.768-0.214-1.375-0.501-1.823-0.863c-0.447-0.362-1.034-0.842-1.759-1.439c-0.342-0.086-0.662-0.225-0.959-0.417
	c-0.299-0.191-0.619-0.266-0.959-0.224l-1.728,0.191c-0.299,0.171-0.575,0.32-0.831,0.448c-0.257,0.128-0.512,0.256-0.768,0.384
	c-1.45,1.449-2.517,3.06-3.199,4.829c-0.682,1.771-0.854,3.678-0.511,5.725c0.213,1.322,0.628,2.41,1.247,3.263
	c0.617,0.854,1.343,1.439,2.175,1.759c0.831,0.319,1.747,0.352,2.75,0.096c1.002-0.256,1.993-0.831,2.975-1.727L468.58,589.5z"/>
<path fill="none" stroke="#231F20" stroke-width="2" stroke-miterlimit="10" d="M508.622,592.507
	c0.384,0.554,0.607,1.205,0.672,1.95c0.063,0.747-0.021,1.451-0.256,2.111c-0.234,0.661-0.618,1.204-1.151,1.631
	c-0.534,0.426-1.227,0.618-2.078,0.576c-1.109-0.087-2.005-0.471-2.688-1.152c-0.683-0.681-1.322-1.449-1.919-2.303
	c-1.663,1.365-3.38,2.312-5.149,2.847c-1.77,0.532-3.508,0.649-5.214,0.351c-1.705-0.298-3.305-1.013-4.797-2.143
	c-1.493-1.129-2.751-2.654-3.773-4.573c-0.939-1.791-1.462-3.774-1.567-5.949c-0.107-2.175-0.14-4.243-0.097-6.205
	c0-0.681,0.021-1.353,0.063-2.015c0.042-0.66,0.086-1.353,0.128-2.078c0.042-0.554,0.064-1.098,0.064-1.632
	c0-0.532,0.032-1.033,0.096-1.503c0.063-0.469,0.191-0.937,0.384-1.407c0.191-0.469,0.479-0.917,0.863-1.343
	c0.512-0.554,1.129-0.885,1.855-0.992c0.725-0.105,1.417-0.031,2.078,0.225c0.66,0.256,1.236,0.649,1.727,1.184
	c0.49,0.533,0.757,1.184,0.8,1.951c0.086,2.175,0.032,4.372-0.16,6.589c-0.191,2.218-0.182,4.393,0.032,6.524
	c0.086,1.023,0.352,2.068,0.8,3.134c0.447,1.066,1.161,1.834,2.144,2.303c0.98,0.427,1.972,0.396,2.974-0.096
	c1.002-0.489,1.823-1.077,2.463-1.759c0.297-0.341,0.585-0.714,0.863-1.119c0.276-0.405,0.586-0.757,0.928-1.056
	c-0.171-1.492-0.278-2.984-0.319-4.478c-0.043-1.492-0.043-2.984,0-4.478c0-0.81,0.031-1.695,0.096-2.654
	c0.063-0.96,0.234-1.876,0.512-2.75c0.276-0.874,0.692-1.642,1.247-2.304c0.554-0.66,1.343-1.076,2.366-1.247
	c0.47-0.085,0.928-0.042,1.376,0.128c0.447,0.171,0.842,0.406,1.184,0.703c0.597,0.512,1.001,1.087,1.215,1.728
	c0.213,0.64,0.319,1.321,0.319,2.047s-0.054,1.461-0.16,2.206c-0.106,0.747-0.182,1.439-0.224,2.078
	c-0.086,1.195-0.149,2.453-0.191,3.774c-0.043,1.322,0,2.645,0.128,3.966c0.128,1.322,0.373,2.602,0.735,3.838
	C507.353,590.354,507.896,591.482,508.622,592.507z"/>
<path fill="none" stroke="#231F20" stroke-width="2" stroke-miterlimit="10" d="M523.908,593.529
	c0.47,0.427,0.863,0.971,1.184,1.632c0.319,0.662,0.49,1.322,0.512,1.982c0.021,0.661-0.128,1.279-0.447,1.855
	c-0.319,0.575-0.885,1.012-1.695,1.312c-0.64,0.213-1.343,0.256-2.111,0.127c-0.768-0.127-1.524-0.383-2.271-0.767
	s-1.407-0.843-1.982-1.376s-0.991-1.119-1.247-1.759c-0.087-0.213-0.15-0.457-0.191-0.735c-0.043-0.276-0.064-0.522-0.064-0.735
	v-35.501c0-0.981,0.372-1.812,1.12-2.495c0.745-0.682,1.566-1.087,2.462-1.215c0.426-0.042,0.884,0.021,1.375,0.191
	c0.49,0.171,0.948,0.416,1.375,0.735c0.426,0.319,0.778,0.694,1.056,1.119c0.277,0.427,0.416,0.875,0.416,1.344
	c0,1.109,0,2.581,0,4.414s0.011,3.838,0.032,6.012c0.021,2.176,0.032,4.425,0.032,6.748c0,2.325-0.011,4.553-0.032,6.685
	c-0.021,2.133-0.032,4.084-0.032,5.853c0,1.771-0.021,3.188-0.063,4.254L523.908,593.529z"/>
<path fill="none" stroke="#231F20" stroke-width="2" stroke-miterlimit="10" d="M557.107,594.682
	c0.341,1.236,0.276,2.261-0.191,3.07c-0.471,0.81-1.119,1.354-1.951,1.631s-1.738,0.245-2.719-0.096
	c-0.981-0.342-1.834-1.023-2.559-2.047c-1.194,0.896-2.357,1.523-3.486,1.887c-1.13,0.362-2.42,0.565-3.869,0.607
	c-2.176,0.086-4.116-0.16-5.821-0.735c-1.706-0.575-3.146-1.439-4.318-2.59c-1.173-1.151-2.036-2.591-2.59-4.318
	c-0.555-1.727-0.747-3.72-0.575-5.98c0.085-0.937,0.244-1.854,0.479-2.75c0.233-0.896,0.501-1.77,0.8-2.623
	c0.341-0.938,0.82-1.939,1.439-3.006c0.617-1.065,1.247-1.982,1.887-2.751c2.303-2.814,5.182-4.839,8.636-6.076
	c0.597-0.213,1.406-0.405,2.431-0.575c1.023-0.171,2.056-0.245,3.102-0.225c1.045,0.022,2.048,0.16,3.007,0.416
	s1.672,0.704,2.143,1.343c0.384,0.512,0.661,0.96,0.831,1.344s0.267,0.789,0.288,1.215c0.021,0.427,0.021,0.886,0,1.375
	c-0.021,0.491-0.032,1.099-0.032,1.823c0,1.194-0.012,2.356-0.032,3.486c-0.021,1.13-0.011,2.271,0.032,3.422
	c0,0.384,0,0.885,0,1.503c0,0.619,0.021,1.27,0.064,1.951c0.041,0.683,0.095,1.334,0.159,1.951c0.063,0.619,0.16,1.119,0.288,1.504
	L557.107,594.682z"/>
<path fill="none" stroke="#231F20" stroke-width="2" stroke-miterlimit="10" d="M543.546,591.803c0.47-0.298,1.002-0.629,1.6-0.991
	c0.597-0.362,1.129-0.778,1.599-1.247c-0.384-2.26-0.607-4.521-0.672-6.781c-0.063-2.259-0.054-4.541,0.032-6.844
	c-1.919,0.342-3.646,1.173-5.182,2.494c-1.535,1.322-2.602,2.878-3.198,4.67c-0.256,0.726-0.47,1.471-0.64,2.238
	c-0.171,0.768-0.235,1.514-0.192,2.238c0.043,0.982,0.298,1.802,0.769,2.463c0.469,0.661,1.033,1.162,1.695,1.503
	c0.66,0.342,1.364,0.533,2.11,0.575C542.213,592.166,542.907,592.059,543.546,591.803z"/>
<path fill="none" stroke="#231F20" stroke-width="2" stroke-miterlimit="10" d="M151.865,653.098
	c0.447,0.864,0.607,1.734,0.48,2.614c-0.128,0.88-0.704,1.527-1.727,1.943c-0.959,0.352-1.879,0.256-2.759-0.288
	c-0.88-0.545-1.671-1.279-2.375-2.207c-0.704-0.928-1.312-1.902-1.823-2.926c-0.512-1.023-0.896-1.854-1.151-2.494
	c-1.631-3.773-2.511-7.7-2.639-11.778c-0.128-4.077,0.399-8.051,1.583-11.921c0.288-0.991,0.672-1.926,1.151-2.807
	c0.479-0.88,0.959-1.767,1.439-2.663c0.288-0.511,0.648-1.151,1.08-1.918c0.432-0.769,0.935-1.456,1.511-2.063
	c0.575-0.607,1.207-1.039,1.895-1.295c0.687-0.256,1.431-0.144,2.23,0.335c0.768,0.48,1.183,1.049,1.248,1.703
	c0.063,0.656-0.057,1.328-0.36,2.015c-0.304,0.689-0.689,1.353-1.151,1.992c-0.464,0.64-0.84,1.184-1.127,1.631
	c-0.416,0.736-0.76,1.359-1.032,1.871c-0.272,0.512-0.496,0.943-0.672,1.295c-0.176,0.353-0.312,0.664-0.408,0.936
	s-0.176,0.536-0.24,0.791c-0.48,1.664-0.832,3.447-1.056,5.35c-0.224,1.903-0.288,3.813-0.192,5.732
	c0.096,1.92,0.384,3.799,0.864,5.638c0.48,1.84,1.183,3.526,2.111,5.062c0.16,0.288,0.368,0.583,0.624,0.887
	c0.255,0.304,0.487,0.576,0.695,0.816c0.208,0.239,0.376,0.431,0.504,0.575c0.127,0.144,0.16,0.184,0.096,0.12L151.865,653.098z"/>
<path fill="none" stroke="#231F20" stroke-width="2" stroke-miterlimit="10" d="M167.313,643.599
	c0.799-0.511,1.56-0.735,2.279-0.672c0.72,0.064,1.311,0.312,1.774,0.744c0.463,0.432,0.72,1.007,0.768,1.727
	c0.048,0.72-0.2,1.479-0.744,2.279c-0.353,0.544-0.856,1.039-1.511,1.487c-0.656,0.447-1.288,0.8-1.895,1.056
	c-1.408,0.639-2.831,0.928-4.27,0.863c-1.439-0.063-2.774-0.416-4.005-1.056c-1.231-0.639-2.295-1.526-3.19-2.663
	c-0.896-1.135-1.503-2.454-1.823-3.958c-0.64-2.878-0.512-5.645,0.384-8.3c0.352-0.959,0.775-1.887,1.271-2.782
	c0.496-0.896,1.096-1.711,1.799-2.446c0.703-0.736,1.487-1.384,2.351-1.943c0.863-0.56,1.807-0.936,2.83-1.128
	c0.704-0.127,1.6-0.119,2.687,0.024c1.087,0.144,2.15,0.424,3.19,0.839c1.039,0.416,1.95,0.96,2.734,1.632
	c0.783,0.671,1.223,1.472,1.319,2.398c0.063,0.512,0,0.983-0.191,1.415c-0.192,0.432-0.464,0.792-0.816,1.079
	c-0.353,0.288-0.76,0.488-1.223,0.6c-0.464,0.113-0.936,0.104-1.415-0.024c-0.576-0.159-1.032-0.375-1.367-0.647
	c-0.336-0.271-0.776-0.631-1.32-1.079c-0.256-0.063-0.496-0.168-0.72-0.312c-0.224-0.144-0.464-0.199-0.72-0.167l-1.295,0.144
	c-0.224,0.128-0.432,0.24-0.624,0.336s-0.384,0.191-0.576,0.287c-1.088,1.088-1.888,2.296-2.398,3.623
	c-0.512,1.327-0.64,2.758-0.384,4.294c0.16,0.991,0.472,1.807,0.935,2.446c0.463,0.641,1.007,1.08,1.631,1.319
	c0.624,0.24,1.311,0.264,2.063,0.072c0.751-0.192,1.494-0.625,2.23-1.296L167.313,643.599z"/>
<path fill="none" stroke="#231F20" stroke-width="2" stroke-miterlimit="10" d="M174.509,638.13
	c0.224-0.927,0.536-1.839,0.936-2.734c0.399-0.896,0.887-1.751,1.463-2.566c0.576-0.815,1.224-1.56,1.943-2.231
	s1.495-1.215,2.327-1.631c1.471-0.768,2.951-1.159,4.438-1.176c1.487-0.015,2.871,0.28,4.15,0.888
	c1.279,0.607,2.366,1.512,3.262,2.711c0.895,1.199,1.487,2.631,1.775,4.294c0.16,1.087,0.247,2.119,0.264,3.095
	c0.016,0.976-0.088,1.99-0.312,3.046c-0.32,1.504-0.968,2.998-1.942,4.485c-0.976,1.488-2.144,2.735-3.502,3.743
	c-1.36,1.007-2.847,1.67-4.461,1.99c-1.616,0.319-3.239,0.063-4.87-0.768c-0.736-0.353-1.399-0.76-1.991-1.223
	c-0.592-0.465-1.127-1.016-1.607-1.656c-0.544-0.702-0.968-1.439-1.271-2.206c-0.305-0.768-0.552-1.567-0.744-2.399
	c-0.225-0.895-0.305-1.798-0.24-2.71c0.064-0.911,0.176-1.799,0.336-2.663L174.509,638.13z"/>
<path fill="none" stroke="#231F20" stroke-width="2" stroke-miterlimit="10" d="M180.267,639.137
	c-0.096,0.513-0.176,1.017-0.24,1.512c-0.064,0.497-0.064,1,0,1.512c0.096,0.736,0.296,1.408,0.6,2.015
	c0.303,0.608,0.703,1.087,1.199,1.439c0.496,0.353,1.063,0.536,1.703,0.552c0.64,0.016,1.327-0.185,2.063-0.6
	c0.927-0.544,1.727-1.383,2.398-2.519c0.672-1.135,1.087-2.318,1.247-3.55c0.16-1.231,0.032-2.398-0.384-3.503
	c-0.416-1.104-1.231-1.895-2.447-2.374c-0.8,0-1.535,0.152-2.207,0.455c-0.671,0.305-1.255,0.703-1.751,1.199
	c-0.496,0.497-0.928,1.08-1.295,1.751C180.786,637.698,180.49,638.402,180.267,639.137z"/>
<path fill="none" stroke="#231F20" stroke-width="2" stroke-miterlimit="10" d="M210.442,635.875v-0.672
	c-0.288-0.735-0.752-1.255-1.391-1.56c-0.64-0.304-1.328-0.487-2.063-0.551c-0.417,0.128-0.752,0.271-1.007,0.431
	c-0.257,0.161-0.48,0.337-0.672,0.528c-0.192,0.191-0.368,0.408-0.527,0.647c-0.16,0.24-0.353,0.488-0.576,0.744v12.569
	c0,0.991-0.295,1.767-0.887,2.326s-1.247,0.88-1.967,0.96s-1.384-0.096-1.991-0.527c-0.608-0.433-0.928-1.16-0.959-2.184
	c-0.064-2.462-0.089-5.261-0.072-8.395c0.016-3.135,0.024-6.637,0.024-10.507c0-0.672,0.2-1.231,0.6-1.679
	c0.4-0.448,0.88-0.751,1.439-0.912c0.56-0.159,1.135-0.15,1.727,0.024c0.591,0.176,1.08,0.536,1.463,1.079
	c1.791-0.895,3.574-1.175,5.35-0.839s3.382,1.175,4.821,2.519c0.64-0.64,1.327-1.215,2.063-1.728
	c0.736-0.511,1.536-0.847,2.398-1.007c0.992-0.16,1.991-0.119,2.998,0.12c1.008,0.239,1.943,0.631,2.807,1.176
	c0.864,0.544,1.623,1.215,2.279,2.015c0.655,0.8,1.143,1.663,1.463,2.59c0.16,0.641,0.24,1.216,0.24,1.727v13.05
	c0,0.384-0.048,0.752-0.144,1.103c-0.288,0.832-0.744,1.415-1.367,1.751c-0.624,0.337-1.264,0.456-1.919,0.36
	c-0.656-0.096-1.223-0.4-1.703-0.911c-0.48-0.513-0.72-1.2-0.72-2.063v-12.904c-0.288-0.769-0.704-1.327-1.247-1.68
	c-0.544-0.351-1.104-0.511-1.68-0.479c-0.576,0.032-1.127,0.24-1.655,0.624s-0.952,0.911-1.271,1.583v12.569
	c0,0.864-0.28,1.584-0.84,2.159c-0.56,0.575-1.175,0.942-1.847,1.103c-0.672,0.16-1.303,0.097-1.895-0.191
	c-0.593-0.288-0.936-0.863-1.031-1.727L210.442,635.875z"/>
<path fill="none" stroke="#231F20" stroke-width="2" stroke-miterlimit="10" d="M244.743,635.875v-0.672
	c-0.288-0.735-0.752-1.255-1.391-1.56c-0.64-0.304-1.328-0.487-2.063-0.551c-0.416,0.128-0.752,0.271-1.007,0.431
	c-0.256,0.161-0.479,0.337-0.672,0.528c-0.192,0.191-0.368,0.408-0.527,0.647c-0.161,0.24-0.353,0.488-0.576,0.744v12.569
	c0,0.991-0.295,1.767-0.887,2.326s-1.247,0.88-1.967,0.96s-1.384-0.096-1.991-0.527c-0.608-0.433-0.928-1.16-0.959-2.184
	c-0.064-2.462-0.089-5.261-0.072-8.395c0.016-3.135,0.024-6.637,0.024-10.507c0-0.672,0.2-1.231,0.6-1.679
	c0.4-0.448,0.88-0.751,1.439-0.912c0.56-0.159,1.135-0.15,1.727,0.024c0.591,0.176,1.08,0.536,1.463,1.079
	c1.791-0.895,3.574-1.175,5.35-0.839s3.382,1.175,4.821,2.519c0.64-0.64,1.327-1.215,2.063-1.728
	c0.736-0.511,1.536-0.847,2.398-1.007c0.992-0.16,1.991-0.119,2.998,0.12s1.943,0.631,2.807,1.176
	c0.864,0.544,1.623,1.215,2.279,2.015c0.655,0.8,1.143,1.663,1.463,2.59c0.16,0.641,0.24,1.216,0.24,1.727v13.05
	c0,0.384-0.048,0.752-0.144,1.103c-0.288,0.832-0.744,1.415-1.367,1.751c-0.624,0.337-1.264,0.456-1.919,0.36
	c-0.656-0.096-1.224-0.4-1.703-0.911c-0.48-0.513-0.72-1.2-0.72-2.063v-12.904c-0.288-0.769-0.704-1.327-1.247-1.68
	c-0.544-0.351-1.104-0.511-1.68-0.479c-0.576,0.032-1.127,0.24-1.655,0.624s-0.952,0.911-1.271,1.583v12.569
	c0,0.864-0.28,1.584-0.84,2.159c-0.56,0.575-1.175,0.942-1.847,1.103s-1.303,0.097-1.895-0.191
	c-0.593-0.288-0.936-0.863-1.031-1.727L244.743,635.875z"/>
<path fill="none" stroke="#231F20" stroke-width="2" stroke-miterlimit="10" d="M265.227,638.13
	c0.224-0.927,0.536-1.839,0.936-2.734c0.399-0.896,0.887-1.751,1.463-2.566c0.576-0.815,1.223-1.56,1.943-2.231
	s1.495-1.215,2.327-1.631c1.471-0.768,2.951-1.159,4.438-1.176c1.487-0.015,2.87,0.28,4.15,0.888
	c1.279,0.607,2.367,1.512,3.263,2.711c0.895,1.199,1.487,2.631,1.774,4.294c0.16,1.087,0.248,2.119,0.264,3.095
	s-0.088,1.99-0.312,3.046c-0.32,1.504-0.967,2.998-1.942,4.485c-0.976,1.488-2.143,2.735-3.502,3.743
	c-1.36,1.007-2.847,1.67-4.461,1.99c-1.616,0.319-3.239,0.063-4.87-0.768c-0.736-0.353-1.4-0.76-1.991-1.223
	c-0.592-0.465-1.127-1.016-1.607-1.656c-0.544-0.702-0.967-1.439-1.271-2.206c-0.305-0.768-0.551-1.567-0.744-2.399
	c-0.225-0.895-0.305-1.798-0.24-2.71c0.063-0.911,0.175-1.799,0.336-2.663L265.227,638.13z"/>
<path fill="none" stroke="#231F20" stroke-width="2" stroke-miterlimit="10" d="M270.984,639.137
	c-0.096,0.513-0.176,1.017-0.24,1.512c-0.064,0.497-0.064,1,0,1.512c0.096,0.736,0.295,1.408,0.6,2.015
	c0.304,0.608,0.703,1.087,1.199,1.439s1.063,0.536,1.704,0.552c0.639,0.016,1.327-0.185,2.063-0.6
	c0.927-0.544,1.727-1.383,2.398-2.519c0.672-1.135,1.087-2.318,1.247-3.55c0.16-1.231,0.032-2.398-0.384-3.503
	c-0.416-1.104-1.231-1.895-2.447-2.374c-0.8,0-1.535,0.152-2.207,0.455c-0.671,0.305-1.255,0.703-1.751,1.199
	c-0.497,0.497-0.929,1.08-1.296,1.751C271.503,637.698,271.207,638.402,270.984,639.137z"/>
<path fill="none" stroke="#231F20" stroke-width="2" stroke-miterlimit="10" d="M308.403,648.349
	c-0.096,0.8-0.393,1.454-0.888,1.967c-0.496,0.511-1.056,0.831-1.679,0.959s-1.223,0.048-1.798-0.24
	c-0.576-0.288-0.992-0.848-1.248-1.679c-0.288-0.896-0.4-1.83-0.336-2.807c0.064-0.976,0.096-1.878,0.096-2.71
	c0-1.728,0.007-3.446,0.024-5.158c0.016-1.711-0.056-3.43-0.216-5.157c-0.032-0.063-0.064-0.119-0.096-0.168
	c-0.033-0.048-0.096-0.119-0.192-0.216c-0.736-0.191-1.52-0.144-2.351,0.144c-0.832,0.288-1.535,0.655-2.111,1.104
	c-0.512,0.416-1.015,0.983-1.511,1.703c-0.497,0.72-0.744,1.415-0.744,2.087v6.62c0,0.513,0.016,1.071,0.048,1.679
	c0.031,0.608,0.007,1.199-0.072,1.774c-0.08,0.576-0.264,1.104-0.551,1.584c-0.289,0.479-0.752,0.831-1.391,1.056
	c-0.353,0.128-0.68,0.176-0.983,0.144c-0.305-0.032-0.632-0.112-0.984-0.24c-0.576-0.191-0.992-0.521-1.247-0.983
	c-0.256-0.463-0.432-0.959-0.527-1.487c-0.096-0.527-0.137-1.039-0.12-1.535c0.016-0.496,0.024-0.888,0.024-1.175
	c0-0.735-0.009-1.8-0.024-3.19c-0.017-1.392-0.024-2.855-0.024-4.39c0-1.536,0-2.999,0-4.391s0-2.454,0-3.19
	c0-0.702,0.208-1.286,0.624-1.75c0.416-0.464,0.903-0.768,1.463-0.912c0.56-0.144,1.151-0.111,1.775,0.097s1.143,0.632,1.559,1.271
	c1.279-0.831,2.687-1.391,4.222-1.679s2.981-0.24,4.341,0.144c1.359,0.384,2.495,1.104,3.406,2.158
	c0.911,1.056,1.383,2.512,1.415,4.366c0,0.064,0.016,0.257,0.048,0.575c0.032,0.32,0.048,0.768,0.048,1.344V648.349L308.403,648.349
	z"/>
<path fill="none" stroke="#231F20" stroke-width="2" stroke-miterlimit="10" d="M331.767,659.623
	c-0.545-0.672-0.832-1.367-0.864-2.087s0.128-1.336,0.48-1.848c0.352-0.512,0.854-0.864,1.511-1.056
	c0.655-0.191,1.383-0.096,2.183,0.288c0.352,0.256,0.672,0.447,0.96,0.575c0.288,0.127,0.687,0.319,1.198,0.576
	c0.48,0.223,1.023,0.391,1.632,0.503c0.607,0.111,1.183,0.136,1.728,0.072c1.086-0.064,1.925-0.248,2.518-0.552
	c0.592-0.305,1.015-0.704,1.271-1.199c0.256-0.496,0.408-1.104,0.457-1.823c0.048-0.72,0.071-1.528,0.071-2.423
	c-1.024,0.351-2.048,0.615-3.071,0.791c-1.022,0.176-2.078,0.199-3.166,0.072c-2.11-0.257-3.846-1.008-5.204-2.255
	c-1.361-1.248-2.352-2.734-2.976-4.462c-0.623-1.727-0.88-3.574-0.768-5.541s0.568-3.782,1.367-5.445
	c0.479-0.959,1.135-1.847,1.967-2.662c0.832-0.816,1.768-1.487,2.807-2.015c1.04-0.528,2.127-0.872,3.263-1.032
	c1.135-0.159,2.231-0.063,3.286,0.288c0.607,0.224,1.199,0.447,1.774,0.672c0.575,0.224,1.135,0.512,1.68,0.863
	c0.606-0.544,1.318-0.815,2.135-0.815c0.815,0,1.511,0.384,2.086,1.151c0.128,0.191,0.271,0.407,0.433,0.648
	c0.159,0.239,0.239,0.472,0.239,0.695c0.032,3.423,0.04,6.836,0.023,10.242c-0.015,3.406-0.023,6.821-0.023,10.242
	c0,1.375-0.185,2.654-0.551,3.838c-0.368,1.183-0.921,2.23-1.655,3.143c-0.736,0.911-1.647,1.655-2.735,2.23
	c-1.088,0.576-2.351,0.943-3.789,1.104c-0.736,0.063-1.456,0.097-2.158,0.097c-0.704,0-1.424-0.08-2.158-0.241
	c-1.025-0.191-2.009-0.511-2.951-0.959c-0.943-0.447-1.879-0.943-2.807-1.486L331.767,659.623z"/>
<path fill="none" stroke="#231F20" stroke-width="2" stroke-miterlimit="10" d="M337.428,644.99
	c1.406,0.672,2.701,0.888,3.886,0.648c1.183-0.24,2.383-0.775,3.598-1.607v-7.628c-0.929-0.928-1.831-1.575-2.711-1.943
	c-0.88-0.367-1.927-0.472-3.143-0.312c-0.224,0.128-0.439,0.239-0.647,0.336c-0.209,0.096-0.424,0.191-0.647,0.287
	c-0.672,0.769-1.185,1.512-1.536,2.231s-0.56,1.456-0.623,2.206c-0.064,0.753-0.009,1.52,0.167,2.304
	c0.176,0.783,0.44,1.64,0.792,2.566c0.097,0.16,0.24,0.319,0.433,0.479C337.187,644.719,337.33,644.863,337.428,644.99z"/>
<path fill="none" stroke="#231F20" stroke-width="2" stroke-miterlimit="10" d="M356.809,634.796
	c0.031-0.208,0.015-0.583-0.049-1.128c-0.512-0.288-0.911-0.655-1.199-1.104c-0.288-0.447-0.455-0.928-0.503-1.439
	s0.048-1,0.287-1.463c0.241-0.465,0.632-0.855,1.176-1.176c0.735-0.416,1.543-0.496,2.423-0.24s1.639,0.64,2.279,1.151
	c0.799-0.607,1.631-1.119,2.494-1.536c0.864-0.414,1.743-0.695,2.64-0.839c0.895-0.144,1.806-0.12,2.734,0.072
	c0.927,0.191,1.839,0.592,2.734,1.199c0.447,0.288,0.863,0.648,1.247,1.079c0.384,0.432,0.624,0.92,0.721,1.464
	c0.159,0.8,0.095,1.495-0.192,2.087c-0.288,0.592-0.688,1.023-1.199,1.295c-0.512,0.272-1.088,0.353-1.727,0.24
	c-0.641-0.112-1.248-0.456-1.823-1.031c-0.191-0.128-0.329-0.232-0.408-0.312c-0.08-0.08-0.248-0.184-0.504-0.312
	c-0.512-0.127-1.016-0.096-1.511,0.097c-0.497,0.191-0.977,0.455-1.439,0.791c-0.464,0.336-0.896,0.704-1.295,1.104
	c-0.4,0.399-0.761,0.759-1.081,1.079v12.233c0,0.479-0.095,0.943-0.287,1.391c-0.288,0.735-0.744,1.247-1.367,1.535
	c-0.624,0.288-1.247,0.368-1.871,0.24s-1.168-0.448-1.632-0.959c-0.464-0.513-0.695-1.167-0.695-1.967v-13.434
	C356.76,635.044,356.775,635.004,356.809,634.796z"/>
<path fill="none" stroke="#231F20" stroke-width="2" stroke-miterlimit="10" d="M393.412,647.484
	c0.256,0.929,0.207,1.696-0.144,2.304c-0.353,0.606-0.84,1.015-1.464,1.224c-0.624,0.207-1.304,0.184-2.039-0.072
	s-1.375-0.768-1.919-1.535c-0.896,0.672-1.768,1.143-2.614,1.415c-0.848,0.271-1.815,0.423-2.902,0.455
	c-1.631,0.063-3.087-0.119-4.365-0.552c-1.28-0.432-2.359-1.079-3.239-1.942s-1.527-1.943-1.942-3.238
	c-0.417-1.295-0.56-2.79-0.432-4.485c0.063-0.703,0.184-1.392,0.359-2.063s0.375-1.326,0.6-1.967
	c0.256-0.702,0.615-1.455,1.08-2.255c0.463-0.8,0.935-1.487,1.415-2.062c1.727-2.111,3.886-3.63,6.476-4.558
	c0.447-0.16,1.056-0.304,1.823-0.432c0.769-0.128,1.543-0.185,2.327-0.168s1.535,0.12,2.255,0.312
	c0.72,0.192,1.256,0.527,1.607,1.008c0.288,0.384,0.495,0.72,0.624,1.007c0.127,0.288,0.199,0.593,0.216,0.911
	c0.016,0.32,0.016,0.664,0,1.032c-0.017,0.368-0.023,0.824-0.023,1.366c0,0.896-0.009,1.769-0.024,2.615
	c-0.016,0.848-0.008,1.703,0.024,2.566c0,0.287,0,0.664,0,1.127c0,0.464,0.016,0.952,0.048,1.464c0.031,0.512,0.072,1,0.12,1.464
	s0.119,0.839,0.216,1.127L393.412,647.484z"/>
<path fill="none" stroke="#231F20" stroke-width="2" stroke-miterlimit="10" d="M383.242,645.326
	c0.351-0.224,0.75-0.472,1.198-0.743c0.447-0.271,0.848-0.583,1.2-0.937c-0.289-1.694-0.456-3.389-0.504-5.085
	c-0.048-1.695-0.041-3.405,0.023-5.133c-1.439,0.256-2.734,0.88-3.886,1.87c-1.151,0.992-1.951,2.159-2.398,3.503
	c-0.191,0.545-0.353,1.104-0.48,1.68c-0.128,0.575-0.176,1.135-0.144,1.679c0.032,0.736,0.224,1.351,0.576,1.847
	c0.352,0.497,0.774,0.872,1.271,1.128c0.495,0.257,1.022,0.4,1.583,0.432C382.241,645.598,382.762,645.518,383.242,645.326z"/>
<path fill="none" stroke="#231F20" stroke-width="2" stroke-miterlimit="10" d="M408.428,643.599
	c0.799-0.511,1.559-0.735,2.278-0.672c0.72,0.064,1.312,0.312,1.775,0.744c0.463,0.432,0.72,1.007,0.768,1.727
	s-0.2,1.479-0.744,2.279c-0.352,0.544-0.855,1.039-1.511,1.487c-0.655,0.447-1.288,0.8-1.896,1.056
	c-1.407,0.639-2.83,0.928-4.27,0.863s-2.775-0.416-4.006-1.056c-1.231-0.639-2.296-1.526-3.19-2.663
	c-0.896-1.135-1.504-2.454-1.823-3.958c-0.64-2.878-0.512-5.645,0.385-8.3c0.351-0.959,0.774-1.887,1.271-2.782
	s1.096-1.711,1.799-2.446c0.703-0.736,1.487-1.384,2.351-1.943c0.864-0.56,1.807-0.936,2.831-1.128
	c0.702-0.127,1.599-0.119,2.687,0.024c1.087,0.144,2.151,0.424,3.19,0.839c1.039,0.416,1.951,0.96,2.735,1.632
	c0.782,0.671,1.223,1.472,1.318,2.398c0.063,0.512,0,0.983-0.191,1.415s-0.464,0.792-0.815,1.079c-0.353,0.288-0.76,0.488-1.224,0.6
	c-0.464,0.113-0.936,0.104-1.415-0.024c-0.575-0.159-1.031-0.375-1.366-0.647c-0.337-0.271-0.776-0.631-1.32-1.079
	c-0.256-0.063-0.496-0.168-0.72-0.312c-0.224-0.144-0.464-0.199-0.72-0.167l-1.295,0.144c-0.224,0.128-0.432,0.24-0.624,0.336
	c-0.191,0.096-0.384,0.191-0.575,0.287c-1.088,1.088-1.888,2.296-2.398,3.623c-0.513,1.327-0.641,2.758-0.385,4.294
	c0.161,0.991,0.473,1.807,0.937,2.446c0.463,0.641,1.007,1.08,1.631,1.319c0.623,0.24,1.312,0.264,2.062,0.072
	c0.751-0.192,1.494-0.625,2.231-1.296L408.428,643.599z"/>
<path fill="none" stroke="#231F20" stroke-width="2" stroke-miterlimit="10" d="M422.195,650.339c-0.64,0.464-1.304,0.68-1.99,0.648
	c-0.688-0.032-1.295-0.312-1.823-0.84s-0.792-1.255-0.792-2.183V620.62c0-0.48,0.136-0.919,0.407-1.319
	c0.271-0.399,0.616-0.728,1.032-0.983c0.415-0.256,0.871-0.423,1.367-0.504c0.495-0.079,0.951-0.063,1.367,0.048
	c0.415,0.113,0.775,0.353,1.079,0.72c0.304,0.369,0.472,0.872,0.504,1.512c0.096,2.495,0.144,4.733,0.144,6.716
	c0,1.984-0.017,3.982-0.048,5.997c0.735-0.543,1.431-1.109,2.087-1.702c0.654-0.592,1.303-1.207,1.943-1.848
	c0.575-0.607,1.134-1.287,1.678-2.039c0.545-0.751,1.231-1.271,2.063-1.559c0.607-0.191,1.176-0.224,1.703-0.097
	c0.527,0.129,0.975,0.377,1.343,0.744c0.368,0.368,0.615,0.815,0.744,1.343c0.127,0.527,0.096,1.097-0.096,1.703
	c-0.161,0.448-0.521,1.008-1.08,1.679c-0.56,0.673-1.184,1.36-1.871,2.063c-0.688,0.704-1.367,1.352-2.039,1.943
	s-1.216,1.048-1.631,1.367c1.119,1.215,2.223,2.446,3.31,3.693s2.19,2.495,3.311,3.742c0.479,0.544,0.936,1.031,1.367,1.463
	s0.807,0.953,1.128,1.56c0.255,0.512,0.336,1.039,0.239,1.583c-0.096,0.544-0.312,1.016-0.647,1.415s-0.752,0.696-1.247,0.888
	c-0.497,0.192-1.032,0.208-1.607,0.048c-0.544-0.16-1.072-0.455-1.583-0.887c-0.512-0.433-1.001-0.904-1.464-1.415
	c-0.464-0.512-0.904-1.039-1.319-1.583c-0.416-0.544-0.8-1.008-1.151-1.392c-0.863-0.99-1.72-1.975-2.566-2.95
	c-0.848-0.975-1.72-1.926-2.614-2.854v8.348C423.251,649.116,422.835,649.875,422.195,650.339z"/>
<path fill="none" stroke="#231F20" stroke-width="2" stroke-miterlimit="10" d="M447.094,646.621
	c0.352,0.32,0.648,0.728,0.888,1.224c0.24,0.496,0.368,0.991,0.384,1.487s-0.096,0.96-0.336,1.391
	c-0.24,0.433-0.664,0.76-1.271,0.983c-0.479,0.16-1.007,0.192-1.583,0.096c-0.575-0.096-1.144-0.287-1.702-0.575
	c-0.561-0.287-1.056-0.632-1.488-1.031c-0.432-0.4-0.743-0.84-0.935-1.319c-0.064-0.16-0.113-0.344-0.145-0.552
	c-0.032-0.208-0.048-0.392-0.048-0.551v-26.626c0-0.735,0.28-1.359,0.84-1.871c0.559-0.512,1.176-0.816,1.848-0.911
	c0.318-0.032,0.663,0.016,1.031,0.144s0.711,0.312,1.032,0.551c0.318,0.24,0.583,0.521,0.791,0.84s0.312,0.655,0.312,1.008
	c0,0.831,0,1.936,0,3.31c0,1.376,0.008,2.879,0.023,4.51c0.016,1.632,0.024,3.318,0.024,5.062c0,1.744-0.009,3.415-0.024,5.013
	c-0.016,1.601-0.023,3.063-0.023,4.391s-0.017,2.391-0.048,3.19L447.094,646.621z"/>
<path fill="none" stroke="#231F20" stroke-width="2" stroke-miterlimit="10" d="M468.923,643.167
	c0.768-0.191,1.446-0.199,2.039-0.023c0.592,0.176,1.047,0.472,1.367,0.888c0.318,0.416,0.463,0.928,0.431,1.534
	c-0.031,0.608-0.304,1.247-0.814,1.919c-0.416,0.545-0.992,1.008-1.728,1.392c-0.736,0.384-1.423,0.688-2.062,0.911
	c-1.567,0.575-3.055,0.976-4.462,1.199s-2.727,0.224-3.958,0s-2.383-0.688-3.454-1.391c-1.072-0.703-2.071-1.695-2.998-2.975
	c-0.64-0.863-1.111-1.847-1.415-2.949c-0.305-1.104-0.473-2.231-0.504-3.382c-0.032-1.152,0.064-2.287,0.288-3.407
	c0.224-1.118,0.544-2.126,0.96-3.021c0.543-1.119,1.406-2.143,2.59-3.07s2.495-1.663,3.935-2.207
	c1.439-0.543,2.91-0.855,4.413-0.936c1.503-0.079,2.83,0.152,3.982,0.696c0.959,0.448,1.782,1.096,2.471,1.943
	c0.687,0.848,1.159,1.768,1.414,2.759c0.256,0.991,0.28,1.99,0.072,2.998c-0.208,1.007-0.728,1.927-1.559,2.758
	c-0.801,0.8-1.68,1.447-2.64,1.943c-0.959,0.496-1.951,0.929-2.974,1.295c-1.024,0.368-2.072,0.68-3.143,0.936
	c-1.072,0.257-2.104,0.545-3.095,0.864c0.672,0.767,1.439,1.255,2.303,1.463c0.864,0.208,1.768,0.248,2.711,0.119
	c0.943-0.127,1.896-0.391,2.854-0.791c0.959-0.399,1.854-0.84,2.687-1.319L468.923,643.167z"/>
<path fill="none" stroke="#231F20" stroke-width="2" stroke-miterlimit="10" d="M459.232,634.916
	c-0.736,0.416-1.28,0.935-1.632,1.559c-0.352,0.625-0.607,1.495-0.767,2.615c0.831-0.256,1.767-0.528,2.806-0.816
	c1.039-0.287,2.022-0.591,2.95-0.911c0.928-0.318,1.711-0.672,2.351-1.056s0.96-0.799,0.96-1.247c0-0.256-0.04-0.504-0.12-0.744
	s-0.248-0.407-0.504-0.503c-0.896-0.319-1.823-0.384-2.782-0.192c-0.959,0.192-1.759,0.464-2.398,0.816L459.232,634.916z"/>
<path fill="none" stroke="#231F20" stroke-width="2" stroke-miterlimit="10" d="M474.44,652.474
	c0.256-0.256,0.487-0.487,0.695-0.695s0.416-0.416,0.624-0.624c0.208-0.209,0.408-0.439,0.6-0.695
	c0.191-0.257,0.399-0.561,0.624-0.912c0.928-1.503,1.631-3.214,2.11-5.133c0.479-1.92,0.769-3.894,0.863-5.926
	c0.097-2.03,0.017-4.029-0.239-5.996c-0.257-1.968-0.688-3.767-1.295-5.397c-0.417-1.118-0.937-2.175-1.56-3.166
	c-0.624-0.991-1.256-1.968-1.896-2.927c-0.288-0.415-0.568-0.822-0.84-1.223s-0.424-0.872-0.455-1.415
	c-0.032-0.831,0.168-1.519,0.599-2.063c0.433-0.543,0.952-0.887,1.56-1.031c0.607-0.144,1.231-0.088,1.872,0.167
	c0.639,0.257,1.15,0.753,1.534,1.488c0.703,0.991,1.375,1.999,2.016,3.021c0.64,1.024,1.23,2.062,1.774,3.118
	c0.896,1.728,1.575,3.599,2.039,5.613c0.463,2.015,0.735,4.078,0.815,6.188c0.08,2.111-0.023,4.198-0.312,6.261
	c-0.289,2.062-0.72,3.99-1.295,5.781c-0.513,1.535-1.128,3.077-1.848,4.629c-0.72,1.551-1.64,2.918-2.759,4.102
	c-0.479,0.511-1.024,0.99-1.631,1.439c-0.608,0.447-1.279,0.672-2.016,0.672c-0.672,0-1.223-0.144-1.654-0.432
	c-0.433-0.288-0.736-0.656-0.911-1.104c-0.177-0.448-0.233-0.936-0.168-1.464c0.063-0.527,0.223-1.048,0.479-1.56L474.44,652.474z"
	/>
<path fill="none" stroke="#231F20" stroke-width="2" stroke-miterlimit="10" d="M148.988,270.518
	c4.734,2.483,9.41,6.763,14.032,12.848c4.617,6.086,8.96,11.724,13.018,16.907c5.183-7.661,9.182-15.665,12.003-24.007
	c2.815-8.337,5.24-17.245,7.269-26.711c0-4.507,0-9.129,0-13.863c0-4.733-0.285-9.467-0.845-14.201
	c-0.565-4.734-1.468-9.352-2.704-13.863c-1.242-4.506-3.212-8.674-5.917-12.51c-4.285-6.535-9.864-11.718-16.737-15.553
	c-6.879-3.831-14.148-6.309-21.81-7.439c-7.666-1.125-15.215-0.676-22.654,1.353c-7.438,2.029-14.09,5.748-19.949,11.158
	c-10.144,9.468-17.751,20.91-22.823,34.32c-5.072,13.414-7.497,26.881-7.27,40.405c0,7.893,0.956,15.723,2.874,23.5
	c1.913,7.776,4.903,14.824,8.96,21.132c4.058,6.313,9.24,11.613,15.554,15.892c6.308,4.285,13.863,6.763,22.654,7.438
	c5.632,0.677,11.607,0.339,17.921-1.014c-4.512-4.956-9.077-10.535-13.694-16.737c-4.623-6.197-7.269-12.114-7.945-17.751
	c-0.676-3.831-0.227-7.381,1.353-10.651c1.574-3.265,3.719-5.97,6.424-8.115c2.705-2.14,5.859-3.55,9.468-4.227
	C141.771,268.15,145.379,268.716,148.988,270.518z"/>
<path fill="none" stroke="#231F20" stroke-width="2" stroke-miterlimit="10" d="M241.633,345.918
	c-6.085-2.478-12.003-5.125-17.751-7.948c-5.748-2.815-11.327-6.027-16.737-9.636c2.32-2.917,4.492-5.97,6.549-9.131
	c-13.888,4.013-28.23,8.661-28.23,8.661c-6.773-17.543,19.758-38.303,28.224-40.841c2.63-0.789,8.531-1.363,15.717-1.77
	c3.11-9.866,5.275-19.963,6.481-30.291c1.575-13.525,1.353-26.934-0.676-40.236c-2.029-13.298-5.975-25.697-11.834-37.193
	c-7.216-14.201-17.302-25.074-30.261-32.629c-12.965-7.549-26.771-12.003-41.42-13.355c-14.655-1.353-29.195,0.396-43.618,5.241
	c-14.429,4.85-26.939,12.679-37.532,23.5C60.4,170.66,52.338,182.89,46.368,196.976c-5.976,14.09-9.805,28.74-11.497,43.956
	c-1.69,15.216-1.241,30.378,1.353,45.478c2.589,15.105,7.608,28.74,15.047,40.913c6.762,11.274,15.268,20.008,25.528,26.205
	c10.254,6.197,21.693,10.534,34.32,13.018c3.83,0.898,8.115,1.744,12.848,2.536c4.734,0.787,9.468,0.618,14.202-0.507
	c7.211-0.455,13.863-1.918,19.949-4.396c6.085-2.483,11.945-5.188,17.582-8.115c3.154,2.478,7.211,5.41,12.172,8.791
	c4.956,3.381,10.255,6.593,15.892,9.637c5.631,3.043,11.269,5.58,16.906,7.608c5.632,2.029,10.593,2.926,14.878,2.705
	c5.858-0.228,10.254-1.918,13.187-5.072c2.927-3.159,4.564-6.82,4.903-10.989c0.338-4.173-0.507-8.342-2.536-12.51
	C249.071,352.057,245.912,348.624,241.633,345.918z"/>
<path fill="none" stroke="#231F20" stroke-width="2" stroke-miterlimit="10" d="M358.417,299.33c0,3.676-2.128,6.656-4.753,6.656
	s-4.752-2.98-4.752-6.656c0-3.675,2.127-6.655,4.752-6.655S358.417,295.654,358.417,299.33"/>
<path fill="none" stroke="#231F20" stroke-width="2" stroke-miterlimit="10" d="M355.561,297.329c0,2.57-1.489,4.653-3.325,4.653
	c-1.835,0-3.323-2.083-3.323-4.653s1.488-4.653,3.323-4.653C354.071,292.676,355.561,294.759,355.561,297.329"/>
<path fill="none" stroke="#231F20" stroke-width="2" stroke-miterlimit="10" d="M545.747,437.498
	c-1.092-8.766-46.06-36.499-61.041-45.98c-8.044-6.454-17.724-13.482-26.233-19.202c-4.38-3.209-9.184-6.219-14.215-8.902
	c-1.559-0.867-2.915-1.563-3.989-2.029c-19.8-9.672-42.033-14.056-54.496-6.066c-5.071,3.251-10.222,18.8-9.674,34.566
	c-0.002,0.004-0.004,0.008-0.005,0.013c0,0,0.004,0.064,0.01,0.176c0.093,2.472,0.321,4.948,0.719,7.382
	c1.532,12.215,6.076,36.005,18.813,46.695c13.469,11.304,51.509,26.855,72.394,26.004c14.135,1.846,29.507,2.962,34.439,0.037
	c9.862-5.852-8.218-15.712-8.218-15.712s46.175,19.033,46.565,8.753c0.394-10.278-14.242-21.353-14.242-21.353
	S546.846,446.261,545.747,437.498z"/>
<path fill="none" stroke="#231F20" stroke-width="2" stroke-miterlimit="10" d="M224.976,322.851c0,0,54.993-2.487,67.574-4.084
	c12.581-1.598,34.594-12.069,40.803-13.974c0,0-0.562,11.424-2.822,14.597c-2.257,3.173-25.399,8.729-36.689,10.87
	C282.55,332.4,236.193,326.514,224.976,322.851"/>
<path fill="none" stroke="#231F20" stroke-width="2" stroke-miterlimit="10" d="M310.212,284.484
	c-2.215-1.866-25.401,0.318-35.562,0c-10.161-0.316-52.496,0-60.963,2.539c-8.466,2.539-34.998,23.298-28.224,40.842
	c0,0,44.028-14.27,52.496-14.387c8.466-0.119,55.318,2.338,68.866,0c13.547-2.339,21.45-7.099,26.531-8.686
	c5.08-1.586,3.387-7.239-9.597-9.015c-12.983-1.774-15.241-5.478-14.677-5.53C309.647,290.196,312.469,286.389,310.212,284.484"/>
<path fill="none" stroke="#231F20" stroke-width="2" stroke-miterlimit="10" d="M291.822,290.514c0,0,5.324-0.64,7.1,4.6
	C298.921,295.113,294.358,294.639,291.822,290.514"/>
<path fill="none" stroke="#231F20" stroke-width="2" stroke-miterlimit="10" d="M577.885,505.004
	c-6.282-22.072-21.279-43.487-36.685-62.466c2.872-0.643,4.916-2.099,4.547-5.04c-0.655-5.265-17.14-17.372-33.448-28.258
	c-21.926-23.377-47.013-45.618-72.094-64.287c-17.783-13.236-23.339-39.047-30.346-58.797
	c-7.345-20.702-28.839-31.971-50.191-35.105c-13.473-1.976-36.99,1.211-47.521,10.863c-5.115,4.689-8.226,13.327-10.412,21.817
	c-8.277,0.103-20.454,0.96-27.084,0.753c-10.161-0.316-52.496,0-60.963,2.539c-8.466,2.539-34.998,23.298-28.224,40.841
	c0,0,44.028-14.27,52.496-14.386c4.053-0.057,16.907,0.476,30.69,0.791c-13.936,3.229-32.116,7.159-43.672,8.581
	c0,0,0.005,0,0.006,0c-0.001,0-0.007,0-0.007,0c11.218,3.663,57.575,9.55,68.866,7.41c1.329-0.252,2.827-0.553,4.431-0.89
	c-0.132,3.295-0.601,6.51-1.699,9.581c-1.695,4.725-6.959,26.792,4.568,21.508c-0.121,2.44,0.252,6.413,1.093,10.539
	c-1.043,4.841-1.614,10.329-1.422,15.851c-0.001,0.004-0.003,0.007-0.004,0.011c0,0,0.003,0.062,0.009,0.155
	c0.085,2.266,0.295,4.535,0.659,6.765c1.401,11.157,5.549,32.86,17.175,42.617c9.16,7.688,30.771,17.527,49.084,21.727
	c4.044,2.296,8.356,4.208,12.89,5.67c6.178,1.992,12.495,3.565,18.888,4.917c2.614,1.786,5.142,3.425,6.938,4.443
	c0,0-6.655,5.358-4.765,6.78c0.221,0.166,0.499,0.271,0.795,0.344c-5.064,3.173-12.071,7.335-15.346,8.237
	c-5.439,1.501-11.254,0-13.881,0c0,0,0.188-7.572-4.503-5.475c0,0-10.503-2.777-12.003,4.35c0,0,8.815,2.252,11.63,4.689
	c0.14,0.121,0.309,0.226,0.483,0.33c-0.925,0.185-1.709,0.337-2.172,0.421c0,0-4.315-1.876-6.378,1.313c0,0-8.441-1.688-9.566,6.189
	c0,0,9.191-0.938,13.13,0c2.32,0.553,6.266-0.263,9.847-1.333c-0.908,0.749-1.713,1.343-2.155,1.512
	c-1.499,0.572-4.314-0.641-4.127,2.216c0,0-8.253,3.796-4.502,11.3c0,0,5.253-5.065,8.441-5.627c0,0,5.065-2.627,5.816-4.127
	c0.75-1.501,8.276-6.753,10.796-7.691c1.913-0.712,6.032-1.55,8.736-1.898c3.827-0.121,9.183-0.372,10.104,0.022
	c1.313,0.562,6.193-1.686,9.006,1.126c-0.001-0.001-2.208-9.014-10.943-5.072c0,0-6.503,0.382-6.69-1.118c0,0,4.12-3.75,7.502-6.446
	c0.44,0.539,1.226,0.79,2.467,0.416c3.048-0.915,12.87-6.184,16.604-10.441c1.856,0.291,3.713,0.58,5.569,0.871
	c3.825,3.398,7.08,6.127,8.891,7.291c0,0-6.753,9.379-6.536,10.188c0,0-0.215,0.98,0.982,1.099
	c-4.292,3.753-10.052,8.282-13.986,9.406c-7.005,2.002-19.51,7.002-24.011,7.002h-7.005c0,0-6.503-8.503-9.003,0
	c0,0-10.505,11.005-3.502,19.01c0,0,6.446-10.338,13.99-10.031c0.269,1.109,0.643,1.964,0.643,1.964s-7.88,5.815-7.505,11.443
	c0.376,5.626,3.001,5.626,3.001,5.626s9.566-9.379,12.38-10.316c0,0,5.253-0.938,7.879-3.845c1.626-1.8,4.938-3.317,7.638-4.535
	c-1.141,1.612-2.326,3.088-3.136,3.575c-2.063,1.24-6.002,0.49-5.064,4.618c0,0-8.63,9.003,0.938,16.694
	c0,0,5.628-11.63,9.567-12.568c0,0,5.439,1.313,6.19-4.126c0.75-5.441,3.798-9.291,8.781-10.898
	c2.073-0.435,3.951-0.969,4.984-1.608c3.242-2.002,12.747-3,15.748,0.502c0,0.001-6.503-16.737-18.509-7.119
	c0,0-5.751,1.68-7.065-0.759c0,0,6.798-6.514,12.56-11.711c0.635,0.482,1.678,0.487,3.01-0.421
	c2.065-1.411,12.815-9.265,13.911-13.138c0.211-0.744,0.377-1.627,0.476-2.614c4.249,0.933,8.47,1.964,12.64,3.169
	c8.685,2.512,35.286,16.121,31.5-3.925c4.557,8.212,9.625,16.896,16.462,23.424c11.192,10.683,12.422-6.393,10.051-14.421
	c7.335,11.432,16.335,23.188,27.807,30.703C568.128,526.286,582.652,521.747,577.885,505.004z"/>
<path fill="none" stroke="#231F20" stroke-width="2" stroke-miterlimit="10" d="M497.061,402.354
	c-7.983-8.104-24.822-20.788-38.583-30.036c-4.38-3.209-9.184-6.219-14.215-8.903c-1.559-0.868-2.915-1.563-3.989-2.029
	c-19.8-9.672-42.033-14.056-54.496-6.066c-5.071,3.251-10.222,18.8-9.674,34.566c-0.002,0.004-0.004,0.008-0.005,0.013
	c0,0,0.003,0.064,0.01,0.176c0.093,2.472,0.321,4.948,0.719,7.382c1.532,12.215,6.075,36.006,18.813,46.696
	c17.531,14.713,76.699,36.627,85.466,20.191c8.766-16.436-18.629-23.557-18.629-23.557s34.516,5.361,28.491-10.742
	c-6.027-16.105-12.256-16.654-12.256-16.654S509.551,415.033,497.061,402.354z"/>
<path fill="none" stroke="#231F20" stroke-width="2" stroke-miterlimit="10" d="M474.53,387.644
	c17.296,23.385-24.654,21.366-24.654,21.366s21.915,8.219,6.027,14.246c-15.888,6.025-37.802-12.604-37.802-12.604
	c2.19,3.836,13.148,29.039,5.479,32.873c-7.671,3.836-27.394-10.408-40.542-29.586c-13.149-19.174-5.102-53.594,2.739-58.621
	C407.144,341.623,457.238,364.259,474.53,387.644"/>
</svg>
