<?xml version="1.0" encoding="utf-8"?>
<!-- Generator: Adobe Illustrator 16.0.0, SVG Export Plug-In . SVG Version: 6.00 Build 0)  -->
<!DOCTYPE svg PUBLIC "-//W3C//DTD SVG 1.1//EN" "http://www.w3.org/Graphics/SVG/1.1/DTD/svg11.dtd">
<svg version="1.1" id="Layer_1" xmlns="http://www.w3.org/2000/svg" xmlns:xlink="http://www.w3.org/1999/xlink" x="0px" y="0px"
	 width="612px" height="612px" viewBox="0 90 612 612" enable-background="new 0 90 612 612" xml:space="preserve">
<path fill="none" stroke="#000000" stroke-width="2" d="M81.063,608.172c-0.341,2.845-3.868,5.293-6.661,3.854
	c-2.738-1.408-1.494-9.503-1.535-11.973c-0.092-5.524-0.054-11.051-0.054-16.575c0-3.777,0.224-5.062-1.623-7.833
	c-1.139-1.707-0.724-4.079,0.609-5.546c6.651-7.261,22.167-5.92,28.545,0.722c7.448,7.757,2.728,18.853-5.282,23.894
	c3.42,3.604,7.6,7.351,10.346,11.463c1.725,2.591-0.517,6.39-3.584,6.39c-2.771,0-4.981-3.657-6.559-5.342
	c-2.946-3.213-5.733-6.565-8.724-9.737c-1.981,0.396-5.478-0.69-5.478,1.82C81.063,602.262,81.063,605.217,81.063,608.172z"/>
<path fill="none" stroke="#000000" stroke-width="2" d="M93.167,575.441c-4.068-2.44-12.104-3.992-12.104,2.083
	c0,4.085,0,8.169,0,12.253C86.172,589.437,103.741,582.805,93.167,575.441C91.364,574.36,94.204,576.164,93.167,575.441z"/>
<path fill="none" stroke="#000000" stroke-width="2" d="M141.181,606.887c1.126,4.09-3.23,6.748-6.594,4.058
	c-2.045-1.636-9.227,1.775-13.296,0.999c-12.645-2.411-11.507-17.99-4.928-25.885c5.684-6.947,21.572-12.399,21.572,0.676
	C137.935,594.314,137.847,600.053,141.181,606.887z"/>
<path fill="none" stroke="#000000" stroke-width="2" d="M126.844,603.844c3.762-2.392,3.118-2.87,2.795-7.146
	c-0.241-3.196-0.21-6.425-0.09-9.626C119.57,588.849,116.843,607.84,126.844,603.844
	C127.339,603.529,126.168,604.114,126.844,603.844z"/>
<path fill="none" stroke="#000000" stroke-width="2" d="M162.347,590.521c-0.714-5.776-6.201-3.572-8.792-0.608
	c-1.289,2.73,0,9.109,0,12.112c0,3.18,0.934,8.104-2.57,9.814c-8.216,4.01-5.715-14.512-5.702-17.944
	c0.016-4.032,0.022-8.064,0.022-12.098c0.125-1.883,1.083-3.1,2.874-3.651c3.284-0.938,3.476,1.544,7.018,0.583
	c4.27-1.161,8.655,0.39,11.815,3.339c2.323-2.322,4.98-4.117,8.394-3.981c13.476,0.537,11.691,14.74,11.691,24.017
	c0,2.771,0.862,7.669-2.13,9.28c-5.999,3.229-6.12-4.466-6.12-7.905c0-4.396,0-8.793,0-13.189c0-5.01-8.25-4.688-8.25,0.047
	c0,3.465,2.578,25.683-6.458,21.284C160.301,609.755,162.413,594.213,162.347,590.521z"/>
<path fill="none" stroke="#000000" stroke-width="2" d="M192.912,582.068c0.51-1.752,1.797-3.224,3.753-3.449
	c1.752-0.131,3.071,0.568,3.956,2.098c1.006-0.576,2.065-1.028,3.178-1.354c5.888-1.563,11.524,0.948,14.6,6.158
	c7.926,13.426-3.156,26.321-17.304,25.287c0,2.928,0.278,24.905-7.405,15.386c-2.167-2.688-0.845-9.722-0.845-12.723
	C192.844,603.067,192.227,592.446,192.912,582.068z"/>
<path fill="none" stroke="#000000" stroke-width="2" d="M201.568,590.859c-0.983,1.641-0.473,4.17-0.473,6.12
	c0,4.845-0.774,7.101,5.545,5.376C218.226,599.526,210.784,580.116,201.568,590.859
	C201.433,591.086,202.109,590.229,201.568,590.859z"/>
<path fill="none" stroke="#000000" stroke-width="2" d="M233.147,611.249c-5.287,3.823-6.492-2.996-6.492-6.624
	c0-6.588,0-13.175,0-19.763c0-4.819,0-9.639,0-14.458c0-3.114,4.014-5.169,6.695-3.618c3.39,1.967,1.616,13.305,1.556,16.364
	c11.967-8.087,20.102,3.935,20.253,14.911c0.049,3.739,1.553,15.455-5.14,14.37c-4.438-0.722-3.747-7.565-3.525-10.643
	c0.26-3.608,1.171-8.476-1.429-11.521c-3.723-4.36-7.826,2.582-10.16,4.919C233.256,599.476,237.659,607.973,233.147,611.249
	C232.246,611.901,234.049,610.595,233.147,611.249z"/>
<path fill="none" stroke="#000000" stroke-width="2" d="M290.087,606.887c1.126,4.09-3.229,6.748-6.594,4.058
	c-2.045-1.636-9.227,1.775-13.296,0.999c-12.645-2.411-11.507-17.99-4.928-25.885c5.684-6.947,21.572-12.399,21.572,0.676
	C286.841,594.314,286.753,600.053,290.087,606.887z"/>
<path fill="none" stroke="#000000" stroke-width="2" d="M275.75,603.844c3.762-2.392,3.118-2.87,2.795-7.146
	c-0.241-3.196-0.21-6.425-0.09-9.626C268.477,588.849,265.749,607.84,275.75,603.844
	C276.246,603.529,275.074,604.114,275.75,603.844z"/>
<path fill="none" stroke="#000000" stroke-width="2" d="M293.94,605.332c-1.027-2.912,0.463-6.439,3.99-6.086
	c2.78,0.254,4.292,3.619,6.965,4.463c2.156,0.682,7.613-0.191,4.599-3.72c-1.946-1.943-5.446-2.009-7.896-3.067
	c-16.276-7.034,0.956-27.635,13.306-16.999c2.003,1.725,2.766,5.943-0.279,7.1c-3.483,1.322-6.708-2.673-10.271-1.302
	c-5.84,1.47,9.14,6.868,9.84,7.304c7.505,4.678,3.879,16.926-3.746,19.164C304.45,613.948,297.271,610.348,293.94,605.332z"/>
<path fill="none" stroke="#000000" stroke-width="2" d="M325.454,587.343c-7.894-1.966-2.214-8.183,3.042-8.183
	c0-3.558-1.544-10.85,2.393-12.957c7.395-3.961,5.858,10.234,5.858,12.957c1.519,0,3.925-0.5,5.342,0
	c4.529,0,4.486,6.439,0.819,7.812c-5.158,1.929-6.133-1.486-6.177,5.399c-0.027,4.383-0.254,8.862,0.185,13.23
	c0.326,3.277-1.338,7.037-5.309,5.917c-4.138-1.161-3.044-6.675-3.044-9.906C328.563,598.084,330.831,585.894,325.454,587.343z"/>
<path fill="none" stroke="#000000" stroke-width="2" d="M345.876,593.7c1.999-8.297,9.474-16.248,18.689-14.276
	c9.463,2.024,12.161,13.479,9.243,21.599C366.791,620.548,342.119,613.67,345.876,593.7z"/>
<path fill="none" stroke="#000000" stroke-width="2" d="M353.991,595.12c-2.681,14.328,14.027,10.271,12.68-2.028
	C365.564,583.002,355.887,588.885,353.991,595.12C353.855,595.842,354.307,594.084,353.991,595.12z"/>
<path fill="none" stroke="#000000" stroke-width="2" d="M377.185,605.332c-1.028-2.912,0.464-6.439,3.99-6.086
	c2.78,0.254,4.293,3.619,6.966,4.463c2.156,0.682,7.613-0.191,4.599-3.72c-1.946-1.943-5.446-2.009-7.896-3.067
	c-16.275-7.033,0.956-27.635,13.306-16.999c2.003,1.725,2.767,5.943-0.279,7.1c-3.482,1.322-6.707-2.672-10.271-1.302
	c-5.84,1.47,9.14,6.868,9.84,7.304c7.505,4.678,3.879,16.926-3.746,19.164C387.696,613.947,380.515,610.349,377.185,605.332z"/>
<path fill="none" stroke="#000000" stroke-width="2" d="M436.964,587.343c-7.893-1.966-2.213-8.183,3.043-8.183
	c0-3.558-1.544-10.85,2.392-12.957c7.396-3.961,5.859,10.234,5.859,12.957c1.519,0,3.925-0.5,5.342,0
	c4.529,0,4.486,6.439,0.819,7.812c-5.158,1.929-6.133-1.486-6.177,5.399c-0.027,4.383-0.254,8.862,0.185,13.23
	c0.326,3.277-1.338,7.037-5.309,5.917c-4.138-1.161-3.044-6.675-3.044-9.906C440.074,598.084,442.342,585.894,436.964,587.343z"/>
<path fill="none" stroke="#000000" stroke-width="2" d="M457.386,593.7c2.003-8.297,9.472-16.248,18.69-14.276
	c9.462,2.023,12.161,13.479,9.243,21.599C478.298,620.549,453.637,613.67,457.386,593.7z"/>
<path fill="none" stroke="#000000" stroke-width="2" d="M465.501,595.12c-2.681,14.328,14.029,10.271,12.681-2.028
	C477.073,582.999,467.399,588.888,465.501,595.12C465.366,595.842,465.817,594.084,465.501,595.12z"/>
<path fill="none" stroke="#000000" stroke-width="2" d="M509.051,601.409c4.295-2.747,8.686,1.426,5.749,5.749
	c-3.733,5.761-13.003,5.977-18.124,2.295c-10.605-7.622-6.424-29.238,6.763-31.712c4.405-0.797,13.436,1.454,13.998,6.897
	c1.104,8.886-8.786,0.952-10.954,1.218C494.107,584.861,498.86,612.203,509.051,601.409z"/>
<path fill="none" stroke="#000000" stroke-width="2" d="M519.194,593.7c1.996-8.299,9.476-16.247,18.69-14.276
	c9.462,2.023,12.16,13.479,9.242,21.599C540.109,620.546,515.431,613.671,519.194,593.7z"/>
<path fill="none" stroke="#000000" stroke-width="2" d="M527.31,595.12c-2.681,14.329,14.028,10.271,12.679-2.028
	C538.882,583.004,529.202,588.882,527.31,595.12C527.174,595.842,527.624,594.084,527.31,595.12z"/>
<path fill="none" stroke="#000000" stroke-width="2" d="M238.422,668.645c2.359,4.553-2.724,6.136-5.561,3.5
	c-2.598-2.414-4.129-6.178-5.269-9.463c-3.661-10.551-1.614-20.995,3.704-30.453c3.261-5.795,9.835-2.894,5.68,2.841
	c-2.16,2.982-3.625,6.025-4.336,9.63C231.058,652.716,231.591,663.1,238.422,668.645z"/>
<path fill="none" stroke="#000000" stroke-width="2" d="M242.987,648.054c-5.702-1.42-1.748-6.137,2.282-6.137
	c0-2.242-0.843-12.778,4.532-9.618c2.948,1.733,1.656,6.856,1.656,9.618c2.345-0.325,10.293,1.388,5.883,5.122
	c-3.113,2.569-5.865-1.523-5.89,3.855c-0.017,3.596-0.227,7.269,0.133,10.854c0.684,6.887-6.529,4.763-6.264-1.826
	C245.32,657.104,246.825,647.103,242.987,648.054z"/>
<path fill="none" stroke="#000000" stroke-width="2" d="M258.304,652.821c3.208-13.301,21.475-14.653,21.733,0.685
	C280.326,671.323,253.872,671.1,258.304,652.821z"/>
<path fill="none" stroke="#000000" stroke-width="2" d="M264.391,653.886c-1.461,7.81,6.432,9.688,9.028,2.296
	C276.356,647.813,266.898,645.626,264.391,653.886C264.289,654.428,264.626,653.107,264.391,653.886z"/>
<path fill="none" stroke="#000000" stroke-width="2" d="M305.827,660.986c0.922,1.333,0.705,3.481-0.583,4.514
	c-2.987,2.384-3.883-2.8-7.31-0.906c-4.934,2.726-10.412,0.692-13.003-4.166c-2.258-4.31-1.116-9.535-1.116-14.176
	c0-3.954,5.927-6.154,6.188-1.495c0.145,3.699-2.13,12.625,2.231,14.708c5.792,2.521,5.452-5.986,5.452-8.521
	c0-2.263,0.79-12.233,5.401-8.217C307.094,646.162,302.353,656.087,305.827,660.986
	C306.131,661.426,305.251,660.175,305.827,660.986z"/>
<path fill="none" stroke="#000000" stroke-width="2" d="M322.969,658.603c5.553-3.55,5.957,4.786,0.71,6.999
	c-4.983,2.264-11.018,0.019-13.313-4.963c-3.489-7.571,1.365-21.069,11.233-19.762c2.753,0.365,9.247,2.595,7.457,6.645
	c-2.123,4.768-5.481-0.897-8.015-0.584C311.299,647.117,315.86,666.205,322.969,658.603z"/>
<path fill="none" stroke="#000000" stroke-width="2" d="M353.196,662.711c1.686,6.11-5.774,2.118-7.285,2.936
	c-2.637,1.427-6.263,1.428-9.046,0.488c-9.176-3.098-6.341-15.45-0.828-20.601c4.743-4.432,14.726-6.575,14.726,2.062
	C350.763,653.436,350.659,657.509,353.196,662.711z"/>
<path fill="none" stroke="#000000" stroke-width="2" d="M342.444,660.428c4.036-2.562,1.859-8.024,2.028-12.577
	C336.85,649.206,335.097,663.374,342.444,660.428C342.815,660.192,341.938,660.631,342.444,660.428z"/>
<path fill="none" stroke="#000000" stroke-width="2" d="M376.982,663.624c-0.37,3.077-4.836,4.636-5.934,1.064
	c-1.066-3.311-0.263-7.841-0.229-11.284c0.012-1.254,0.457-4.868-0.533-5.858c-2.919-0.76-7.1,2.222-7.1,5.326
	c-0.646,2.498-0.087,6.155,0.05,8.773c0.358,6.885-6.187,5.296-6.187-0.913c0-5.342-0.052-10.684-0.052-16.026
	c0-3.199,4.169-3.77,5.731-1.369c3.142-2.043,7.703-2.858,11.031-0.749C379.079,645.959,376.982,658.288,376.982,663.624z"/>
<path fill="none" stroke="#000000" stroke-width="2" d="M380.178,667.985c6.667-6.681,7.407-18.249,4.21-26.83
	c-1.084-2.919-4.846-6.172-5.021-9.23c-0.289-7.334,6.649-0.506,8.014,1.673c5.319,8.53,6.272,18.927,3.195,28.504
	c-1.185,3.548-3.887,11.463-8.724,11.463C378.612,673.564,378.203,669.82,380.178,667.985z"/>
<path fill="none" stroke="#000000" stroke-width="2" d="M183.318,206.991c-8.98-5.387-19.143-8.47-29.586-9.129
	c-3.119-0.197-30.938,0.396-30.938,4.446c0,6.927,0,13.854,0,20.782c0,18.528,0,37.055,0,55.583
	c20.792-1.386,43.191-3.867,59.326-18.421C197.79,246.115,202.465,220.322,183.318,206.991
	C174.299,201.581,188.5,210.6,183.318,206.991z"/>
<path fill="none" stroke="#000000" stroke-width="2" d="M229.36,386.719c1.769,1.142,3.708,2.31,5.802,3.5
	c5.658-2.76,10.232-8.212,12.005-15.303c3.632-14.525-14.02-29.335-23.411-38.317c-11.078-10.595-20.446-22.148-30.97-33.244
	c21.156-13.314,37.744-32.463,43.395-57.321c5.18-22.789-0.729-45.219-16.984-62.146c-34.254-35.671-91.721-32.535-132.581-11.047
	c-9.198,4.842-16.426,12.813-16.516,23.744c-0.039,4.773,1.506,9.81,4.85,13.322c1.82,1.912,4.138,3.264,6.594,4.185
	c0,3.303,0,6.605,0,9.908c0,26.587-0.075,53.176,0.011,79.764c0.081,25.014-1.513,51.645,1.889,76.462
	c3.222,23.509,37.271,7.752,39.351-9.585c0-14.187,0-28.374,0-42.562c0-2.506,0-5.011,0-7.517c0-0.865,14.735-1.553,16.458-1.722
	c4.854-0.475,9.688-2.961,13.156,0.75c2.963,3.171,5.898,6.368,8.805,9.59c5.826,6.458,11.472,13.072,17.214,19.604
	c11.253,12.803,22.277,27.515,35.34,38.489c1.921,1.614,3.939,2.8,5.993,3.61C216.461,383.378,221.734,377.501,229.36,386.719z"/>
<path fill="none" stroke="#231F20" stroke-width="2" stroke-miterlimit="10" d="M300.961,194.264
	c-9.609,1.984-18.578,6.158-26.441,13.338c5.496,14.992,0.954,39.682-2.364,49.035c8.976-0.693,19.142,0.524,29.423,2.533
	C306.078,245.217,309.029,209.459,300.961,194.264z"/>
<path fill="none" stroke="#231F20" stroke-width="2" stroke-miterlimit="10" d="M274.52,207.603
	c-12.685,11.584-22.499,30.972-27.502,61.542c5.462-8.152,14.456-11.68,25.139-12.507
	C275.474,247.284,280.016,222.594,274.52,207.603z"/>
<path fill="none" stroke="#231F20" stroke-width="2" stroke-miterlimit="10" d="M324.014,193.204
	c-7.925-0.703-15.677-0.464-23.053,1.059c8.069,15.196,5.117,50.954,0.618,64.907c7.219,1.41,14.49,3.206,21.442,5.001
	C330.46,247.958,332.732,210.104,324.014,193.204z"/>
<path fill="none" stroke="#231F20" stroke-width="2" stroke-miterlimit="10" d="M420.261,257.771
	c-0.856,6.112-6.504,10.374-12.618,9.517c-6.113-0.857-10.373-6.508-9.517-12.62c0.856-6.113,6.507-10.374,12.619-9.517
	C416.86,246.009,421.118,251.658,420.261,257.771z"/>
<path fill="none" stroke="#231F20" stroke-width="2" stroke-miterlimit="10" d="M419.036,255.495
	c-1.009,7.196-12.139,5.635-11.13-1.56S420.045,248.299,419.036,255.495C418.604,258.568,419.467,252.422,419.036,255.495z"/>
<path fill="none" stroke="#231F20" stroke-width="2" stroke-miterlimit="10" d="M449.652,450.055
	c-6.265-26.545-36.354-41.814-45.957-67.85c-2.052-5.562-3.34-11.075-4.148-16.582c43.569-16.592,49.781-90.581,47.053-112.717
	c-2.519-20.433-33.965-41.542-60.712-24.73c-1.46,16.123-10.757,36.762-20.261,42.426c-0.3,0.179-0.634,0.331-0.985,0.469
	c14.64,8.228,18.279,17.526,17.794,29.387c-0.184-0.004-0.361-0.013-0.548-0.013c-8.684,35.76-15.885,87.651,9.792,119.034
	c10.757,13.288,19.581,28.15,36.108,35.496C434.422,457.629,453.092,464.627,449.652,450.055z"/>
<path fill="none" stroke="#231F20" stroke-width="2" stroke-miterlimit="10" d="M378.872,208.417
	c-17.485-7.048-36.621-13.596-54.859-15.213c8.719,16.899,6.446,54.754-0.991,70.968c19.52,5.045,36.5,10.068,42.605,6.431
	C380.691,261.624,395.244,215.017,378.872,208.417z"/>
<path fill="none" stroke="#231F20" stroke-width="2" stroke-miterlimit="10" d="M381.888,300.445
	c14.119,0,17.29,10.271,17.031,22.85c-0.419,20.287-2.461,39.29,4.776,58.91c9.603,26.035,39.692,41.305,45.957,67.85
	c3.439,14.572-15.23,7.574-21.864,4.921c-16.527-7.346-25.352-22.208-36.108-35.496
	C366.003,388.097,373.204,336.206,381.888,300.445"/>
<g>
	<path fill="none" stroke="#231F20" stroke-width="2" stroke-miterlimit="10" d="M427.788,454.976
		c-0.759-0.337-1.493-0.699-2.22-1.067C426.293,454.278,427.029,454.639,427.788,454.976z"/>
	<path fill="none" stroke="#231F20" stroke-width="2" stroke-miterlimit="10" d="M427.788,454.976
		c0.223,0.089,0.461,0.184,0.71,0.282C428.249,455.159,428.011,455.064,427.788,454.976z"/>
	<path fill="none" stroke="#231F20" stroke-width="2" stroke-miterlimit="10" d="M424.439,453.312
		c-0.233-0.126-0.463-0.256-0.693-0.385C423.976,453.058,424.206,453.186,424.439,453.312z"/>
	<path fill="none" stroke="#231F20" stroke-width="2" stroke-miterlimit="10" d="M417.742,459.378
		c-0.412-2.283,0.18-5.735,2.932-8.307c-4.083-2.682-7.674-5.848-10.975-9.307c-8.022,1.688-9.694,7.834-9.07,11.296
		c1.082,5.999,12.292,10.529,19.486,10.371C418.865,462.196,418.004,460.831,417.742,459.378z"/>
	<path fill="none" stroke="#231F20" stroke-width="2" stroke-miterlimit="10" d="M428.677,455.327
		c0.199,0.078,0.401,0.157,0.614,0.239C429.078,455.484,428.876,455.405,428.677,455.327z"/>
</g>
<path fill="none" stroke="#231F20" stroke-width="2" stroke-miterlimit="10" d="M447.709,460.862
	c0.002-0.002,0.003-0.004,0.005-0.006c-1.496-0.581-3.008-1.2-4.534-1.865c-5.168-0.059-11.924-2.628-15.392-4.016
	c-2.545-1.131-4.89-2.459-7.105-3.913c-2.761,2.571-3.353,6.029-2.94,8.315c1.147,6.358,13.674,11.07,20.735,10.295
	C434.159,463.35,444.065,464.789,447.709,460.862z"/>
<path fill="none" stroke="#231F20" stroke-width="2" stroke-miterlimit="10" d="M462.438,340.622
	c9.34,13.375,21.198,1.89,16.462-7.088c3.705,4.913,5.584,4.739,6.494,3.806c-9.847-15.298-20.057-24.01-23.989-23.154
	c-11.158,2.433-16.653,11.536-17.918,24.231C445.997,349.392,463.422,355.361,462.438,340.622z"/>
<path fill="none" stroke="#231F20" stroke-width="2" stroke-miterlimit="10" d="M466.26,358.673
	c10.931,15.657,24.81,2.212,19.267-8.295c7.184,9.523,8.502,2.72,8.524,2.59c-2.729-5.761-5.676-10.995-8.657-15.628
	c-0.909,0.933-2.789,1.107-6.494-3.806c4.736,8.979-7.122,20.463-16.461,7.088c0.983,14.739-16.44,8.77-18.951-2.205
	c-0.518,5.188-0.329,10.973,0.471,17.155C446.449,368.749,467.428,376.156,466.26,358.673z"/>
<path fill="none" stroke="#231F20" stroke-width="2" stroke-miterlimit="10" d="M473.207,382.91
	c11.877,17.013,26.955,2.406,20.933-9.011c6.055,8.026,8.271,5.376,8.975,3.719c-2.399-8.967-5.549-17.24-9.063-24.65
	c-0.022,0.13-1.34,6.933-8.524-2.59c5.543,10.506-8.336,23.953-19.267,8.295c1.168,17.483-19.811,10.075-22.303-3.101
	c1.204,9.31,3.793,19.506,7.429,29.882C457.95,395.654,474.286,399.074,473.207,382.91z"/>
<path fill="none" stroke="#231F20" stroke-width="2" stroke-miterlimit="10" d="M480.709,406.271
	c10.882,15.586,24.697,2.203,19.18-8.259c4.251,5.639,6.437,5.527,7.518,4.482c-0.687-8.737-2.204-17.067-4.292-24.876
	c-0.702,1.658-2.92,4.308-8.975-3.719c6.022,11.417-9.056,26.023-20.933,9.011c1.079,16.165-15.257,12.743-21.821,2.544
	c2.897,8.269,6.459,16.645,10.521,24.775C468.493,418.256,481.64,420.182,480.709,406.271z"/>
<path fill="none" stroke="#231F20" stroke-width="2" stroke-miterlimit="10" d="M487.165,428.323
	c8.007,11.466,18.172,1.621,14.112-6.077c3.91,5.187,5.447,3.762,5.985,2.65c0.711-7.701,0.71-15.188,0.144-22.402
	c-1.082,1.046-3.267,1.156-7.518-4.482c5.518,10.462-8.298,23.845-19.18,8.26c0.932,13.909-12.216,11.984-18.802,3.958
	c2.795,5.59,5.823,11.061,9.033,16.297c-0.039-0.163-0.085-0.327-0.115-0.494c0.03,0.166,0.076,0.331,0.115,0.494
	c1.359,2.218,2.751,4.389,4.171,6.511C480.206,437.312,487.771,437.415,487.165,428.323z"/>
<path fill="none" stroke="#231F20" stroke-width="2" stroke-miterlimit="10" d="M501.277,422.246
	c4.06,7.698-6.106,17.544-14.113,6.077c0.606,9.092-6.958,8.989-12.053,4.714c7.338,10.976,15.426,20.593,23.702,27.612
	c4.737-12.248,7.385-24.236,8.449-35.753C506.724,426.009,505.188,427.433,501.277,422.246z"/>
<path fill="none" stroke="#231F20" stroke-width="2" stroke-miterlimit="10" d="M548.675,480.021
	c-7.114,1.017-21.179-0.457-39.644-3.751c-2.315-7.867-4.672-16.424-6.852-25.438c-0.981,3.252-2.093,6.524-3.366,9.818
	c-2.625-2.227-5.231-4.716-7.801-7.426c-0.326,0.775-0.664,1.533-1.006,2.284c-0.211,0.463-0.429,0.914-0.645,1.368
	c-0.149,0.312-0.298,0.626-0.45,0.934c-0.197,0.401-0.398,0.797-0.601,1.189c-0.205,0.399-0.413,0.794-0.623,1.186
	c-0.163,0.304-0.325,0.608-0.49,0.907c-0.39,0.701-0.782,1.393-1.186,2.064c-0.147,0.233-0.323,0.453-0.513,0.665
	c-0.046,0.053-0.097,0.103-0.146,0.153c-0.169,0.175-0.351,0.343-0.548,0.502c-0.035,0.029-0.069,0.059-0.106,0.088
	c-0.507,0.392-1.1,0.737-1.773,1.033c-2.771,1.216-6.902,1.61-11.969,1.164c0.133,0.525,0.258,1.093,0.376,1.694
	c-8.197-1.884-16.759-3.947-25.581-6.167c0.744-0.388,1.419-0.848,1.956-1.427c0.002-0.002,0.003-0.004,0.005-0.006
	c-1.496-0.581-3.008-1.2-4.534-1.865c-4.499-0.051-10.199-2.005-13.889-3.425c-0.213-0.082-0.415-0.161-0.614-0.239
	c-0.059-0.022-0.122-0.047-0.179-0.069c-0.249-0.099-0.487-0.193-0.71-0.282c-0.759-0.337-1.493-0.699-2.22-1.067
	c-0.381-0.194-0.757-0.393-1.129-0.596c-0.233-0.126-0.463-0.256-0.693-0.385c-1.05-0.594-2.072-1.215-3.063-1.865
	c-0.003,0.003-0.005,0.006-0.009,0.009c-4.083-2.682-7.674-5.848-10.975-9.307c-6.11,1.286-8.53,5.155-9.064,8.457
	c-69.543-19.648-142.596-44.988-171.275-63.502c-11.729-14.178-17.914,7.351,4.145,15.599
	c17.32,6.479,149.309,72.035,239.694,98.095c0.084,19.396-0.684,40.013-0.152,45.56c7.966,4.511,25.185,0.814,28.088-3.759
	c0.352-0.553,0.501-2.019,0.485-4.21c2.366,1.064,21.441-5.03,21.381-15.809c-0.013-1.651-1.233-5.771-3.176-11.803
	c5.496,0.57,10.53,0.765,15.02,0.529C568.832,509.354,554.795,479.146,548.675,480.021z"/>
<path fill="none" stroke="#231F20" stroke-width="2" stroke-miterlimit="10" d="M507.406,402.494
	c-0.687-8.736-2.204-17.066-4.292-24.875c-0.69,1.63-2.849,4.211-8.677-3.333c5.828,7.543,7.985,4.962,8.677,3.332
	c-2.399-8.967-5.549-17.24-9.063-24.65v0c-2.729-5.761-5.676-10.995-8.657-15.628c-0.298,0.306-0.701,0.53-1.239,0.52
	c0.538,0.01,0.94-0.214,1.239-0.52c-9.847-15.298-20.057-24.01-23.989-23.154c21.033-91.988-38.469-117.534-80.26-106.099
	c-0.531,0.146-1.048,0.367-1.548,0.659c-0.234-0.119-0.476-0.229-0.725-0.329c-17.485-7.048-36.621-13.596-54.859-15.213
	c8.719,16.899,6.446,54.754-0.991,70.968c18.616,4.812,34.916,9.598,41.682,6.875c14.303,8.24,17.749,17.567,17.169,29.464
	c-8.677,35.758-15.854,87.605,9.808,118.969c10.757,13.288,19.581,28.15,36.108,35.496c3.468,1.388,10.224,3.957,15.392,4.016
	c20.679,9.014,38.947,10.308,42.833,4.165c1.815-3.027,3.493-6.351,5-9.933c2.569,2.71,5.176,5.199,7.801,7.426
	c4.737-12.248,7.385-24.236,8.449-35.753C507.974,417.195,507.973,409.708,507.406,402.494z M501.179,429.82
	c-0.103,0.184-0.213,0.362-0.329,0.537C500.966,430.183,501.076,430.004,501.179,429.82z M499.89,398.014
	c0.005,0.01,0.008,0.019,0.013,0.028C499.897,398.032,499.894,398.022,499.89,398.014
	C499.889,398.014,499.89,398.014,499.89,398.014z M485.527,350.379c0.015,0.027,0.023,0.055,0.038,0.083
	C485.553,350.434,485.541,350.405,485.527,350.379C485.526,350.378,485.526,350.378,485.527,350.379z M496.999,433.283
	c0.245-0.073,0.484-0.163,0.719-0.265C497.483,433.12,497.245,433.21,496.999,433.283L496.999,433.283z M498.52,432.604
	c0.189-0.114,0.374-0.238,0.553-0.37C498.894,432.366,498.709,432.49,498.52,432.604z M497.814,432.975
	c0.203-0.092,0.4-0.193,0.592-0.304C498.215,432.781,498.018,432.883,497.814,432.975z M499.159,432.171
	c0.619-0.473,1.164-1.048,1.615-1.699C500.323,431.123,499.778,431.697,499.159,432.171z M502.18,426.407
	c0.012-0.201,0.019-0.402,0.016-0.605C502.198,426.005,502.191,426.206,502.18,426.407z M501.278,429.634
	c0.088-0.168,0.171-0.34,0.247-0.515C501.449,429.294,501.366,429.465,501.278,429.634z M501.615,428.906
	c0.072-0.178,0.136-0.359,0.195-0.543C501.751,428.547,501.688,428.729,501.615,428.906z M501.877,428.16
	c0.065-0.224,0.12-0.449,0.166-0.679C501.997,427.711,501.942,427.937,501.877,428.16z M502.063,427.393
	c0.05-0.262,0.085-0.527,0.107-0.795C502.148,426.865,502.112,427.131,502.063,427.393z M501.277,422.246
	c0.14,0.265,0.259,0.531,0.365,0.8C501.536,422.777,501.417,422.511,501.277,422.246z M501.735,423.31
	c0.065,0.183,0.126,0.365,0.177,0.549C501.861,423.675,501.8,423.492,501.735,423.31z M501.987,424.165
	c0.04,0.171,0.075,0.343,0.104,0.515C502.063,424.508,502.027,424.336,501.987,424.165z M502.137,424.99
	c0.021,0.176,0.035,0.352,0.044,0.526C502.172,425.342,502.157,425.166,502.137,424.99z M501.983,423.143
	c2.714,3.29,4.142,3.105,4.862,2.366C506.124,426.249,504.697,426.434,501.983,423.143z"/>
<path fill="none" stroke="#231F20" stroke-width="2" stroke-miterlimit="10" d="M502.18,450.831
	c-0.981,3.252-2.093,6.524-3.366,9.818c-2.625-2.227-5.231-4.716-7.801-7.426c-0.326,0.775-0.664,1.533-1.006,2.284
	c-0.211,0.463-0.429,0.914-0.645,1.368c-0.149,0.312-0.298,0.626-0.45,0.934c-0.197,0.401-0.398,0.797-0.601,1.189
	c-0.205,0.399-0.413,0.794-0.623,1.186c-0.163,0.304-0.325,0.608-0.49,0.907c-0.39,0.701-0.782,1.393-1.186,2.064
	c-0.147,0.233-0.323,0.453-0.513,0.665c-0.046,0.053-0.097,0.103-0.146,0.153c-0.169,0.175-0.351,0.343-0.548,0.502
	c-0.035,0.029-0.069,0.059-0.106,0.088c-0.507,0.392-1.1,0.737-1.773,1.033c-2.771,1.216-6.902,1.61-11.969,1.164
	c4.073,16.146,1.181,69.724,2.089,79.211c7.966,4.511,25.185,0.814,28.088-3.759c0.352-0.553,0.501-2.019,0.485-4.21
	c2.366,1.064,21.441-5.03,21.381-15.809C522.961,517.022,511.101,487.716,502.18,450.831z"/>
<path fill="none" stroke="#231F20" stroke-width="2" stroke-miterlimit="10" d="M486.013,463.156
	c-1.938,3.062-7.451,4.275-15.055,3.605c4.073,16.146,1.181,69.724,2.089,79.211c7.966,4.511,25.185,0.814,28.088-3.759
	c2.547-4.011-5.45-55.812-11.123-86.717C488.772,458.218,487.437,460.781,486.013,463.156z"/>
</svg>
