<?xml version="1.0" encoding="utf-8"?>
<!-- Generator: Adobe Illustrator 16.0.0, SVG Export Plug-In . SVG Version: 6.00 Build 0)  -->
<!DOCTYPE svg PUBLIC "-//W3C//DTD SVG 1.1//EN" "http://www.w3.org/Graphics/SVG/1.1/DTD/svg11.dtd">
<svg version="1.1" id="Layer_1" xmlns="http://www.w3.org/2000/svg" xmlns:xlink="http://www.w3.org/1999/xlink" x="0px" y="0px"
	 width="612px" height="612px" viewBox="0 90 612 612" enable-background="new 0 90 612 612" xml:space="preserve">
<path fill="none" stroke="#231F20" stroke-width="2" stroke-miterlimit="10" d="M230.751,529.19
	c3.538,0.781,6.157-3.836,9.946-3.697c4.548,0.165,2.363,7.178,6.762,6.923c2.425-0.144,4.017-3.545,4.947-5.329
	c1.861-3.586,2.769-7.67,3.75-11.592c-6.654-2.008-13.707-2.955-20.48-4.329c-1.575-0.32-3.909-1.494-5.986-2.163
	c-0.074,0.748-0.153,1.5-0.233,2.248C229.004,515.364,224.149,527.736,230.751,529.19z"/>
<path fill="none" stroke="#231F20" stroke-width="2" stroke-miterlimit="10" d="M86.051,517.652
	c3.538,0.782,6.163-3.835,9.952-3.696c4.548,0.171,2.357,7.178,6.757,6.92c2.425-0.142,4.022-3.543,4.947-5.328
	c1.74-3.345,2.648-7.128,3.556-10.801c-6.528-3.762-19.784-2.849-26.197-7.803c-0.103,0.92-0.206,1.84-0.308,2.767
	C84.306,503.826,79.449,516.197,86.051,517.652z"/>
<path fill="none" stroke="#231F20" stroke-width="2" stroke-miterlimit="10" d="M122.738,508.312
	c0.041,0.182,0.083,0.363,0.125,0.545c0.793,3.543,0.273,15.188,6.162,14.525c3.158-0.353,4.027-4.932,7.215-5.891
	c3.821-1.147,3.996,5.288,7.571,3.826c1.97-0.806,2.333-4.08,2.598-5.823c0.479-3.196,0.187-6.511-0.094-9.751
	c-1.371,0.076-3.085,0.606-5.481,0.98c-4.799,0.746-9.724,1.666-14.602,1.666C124.987,508.391,123.818,508.342,122.738,508.312z"/>
<path fill="none" stroke="#231F20" stroke-width="2" stroke-miterlimit="10" d="M283.162,505.03c0.2,0.434,0.394,0.873,0.583,1.312
	c1.655,3.793,3.59,16.941,10.038,14.927c3.458-1.077,3.441-6.389,6.802-8.153c4.028-2.111,5.615,5.056,9.3,2.648
	c2.031-1.33,1.729-5.073,1.648-7.082c-0.182-4.323-1.591-8.61-2.732-12.76c-3.338,1.774-6.671,3.869-10.032,5.164
	C293.896,502.969,288.333,503.706,283.162,505.03z"/>
<path fill="none" stroke="#231F20" stroke-width="2" stroke-miterlimit="10" d="M207.631,367.9
	c-11.114-13.046-1.966-32.939,12.896-38.465c17.11-6.363,34.135,14.179,29.217,30.276c-3.717,12.164-15.442,19.398-27.944,16.316
	C215.363,374.44,210.723,371.531,207.631,367.9z"/>
<path fill="none" stroke="#231F20" stroke-width="2" stroke-miterlimit="10" d="M232.686,341.009
	c12.633-2.005,20.195,12.854,11.053,21.873c-8.132,8.018-23.07,1.81-21.429-10.003C223.135,346.949,226.377,342.012,232.686,341.009
	z"/>
<path fill="none" stroke="#231F20" stroke-width="2" stroke-miterlimit="10" d="M239.13,349.978c3.102-2.89,8.588,0.047,7.686,4.316
	c-0.723,3.417-4.501,5.572-7.089,3.118C237.572,355.369,236.72,352.226,239.13,349.978z"/>
<path fill="none" stroke="#231F20" stroke-width="2" stroke-miterlimit="10" d="M312.397,372.17
	c-13.975-10.684-9.103-32.62,4.612-41.382c15.79-10.087,37.314,6.838,35.864,24.052c-1.096,13.007-11.293,22.802-24.503,22.416
	C321.568,377.056,316.284,375.142,312.397,372.17z"/>
<path fill="none" stroke="#231F20" stroke-width="2" stroke-miterlimit="10" d="M331.714,339.769
	c12.239-4.748,23.043,8.525,15.822,19.551c-6.423,9.805-22.755,6.808-23.663-5.398C323.417,347.794,325.601,342.139,331.714,339.769
	z"/>
<path fill="none" stroke="#231F20" stroke-width="2" stroke-miterlimit="10" d="M340.119,347.372
	c2.487-3.57,8.628-1.812,8.646,2.667c0.015,3.584-3.309,6.564-6.436,4.664C339.724,353.117,338.188,350.147,340.119,347.372z"/>
<path fill="none" stroke="#231F20" stroke-width="2" stroke-miterlimit="10" d="M327.651,394.478
	c-15.27-22.191-52.517-21.2-74.623-11.92c-14.993,6.295-21.033,14.396-13.678,30.407c3.525,7.673,8.716,13.248,14.882,17.088
	c6.678,14.141,28.815,52.939,51.412,2.729C322.774,426.817,340.701,413.443,327.651,394.478z"/>
<path fill="none" stroke="#231F20" stroke-width="2" stroke-miterlimit="10" d="M252.234,403.223
	c-1.237-5.792,3.709-10.273,9.521-8.717c4.094,1.095,9.506,4.911,7.111,9.594c-2.91,5.682-14.127,6.856-16.356,0.135
	C252.397,403.893,252.305,403.556,252.234,403.223z"/>
<path fill="none" stroke="#231F20" stroke-width="2" stroke-miterlimit="10" d="M298.351,403.223
	c-1.237-5.792,3.709-10.273,9.521-8.717c4.093,1.095,9.507,4.911,7.111,9.594c-2.91,5.682-14.127,6.856-16.356,0.135
	C298.513,403.893,298.423,403.556,298.351,403.223z"/>
<path fill="none" stroke="#231F20" stroke-width="2" stroke-miterlimit="10" d="M388.408,478.679
	c-0.274-3.002-0.229-5.827,0.092-8.484c-2.709-1.253-6.059-1.021-10.325-2.411c-6.852,6.726-2.807,32.686,4.481,37.962
	c3.311-2.51,6.964-5.23,10.256-8.006C390.636,492.277,389.072,485.948,388.408,478.679z"/>
<path fill="none" stroke="#231F20" stroke-width="2" stroke-miterlimit="10" d="M409.897,474.481
	c9.178,3.39,18.286-5.752,18.513-15.048c0.259-10.702-14.101-15.778-21.937-9.745c-5.923,4.562-7.663,12.492-3.648,18.708
	C404.893,471.598,407.344,473.54,409.897,474.481z"/>
<path fill="none" stroke="#231F20" stroke-width="2" stroke-miterlimit="10" d="M419.838,455.164
	c-1.272-7.343-10.771-8.404-13.965-1.521c-2.842,6.122,3.331,13.025,9.45,9.674C418.394,461.635,420.474,458.833,419.838,455.164z"
	/>
<path fill="none" stroke="#231F20" stroke-width="2" stroke-miterlimit="10" d="M413.753,453.491c0.992-2.299-1.631-4.7-3.786-3.317
	c-1.725,1.104-2.188,3.622-0.369,4.533C411.113,455.465,412.981,455.279,413.753,453.491z"/>
<path fill="none" stroke="#231F20" stroke-width="2" stroke-miterlimit="10" d="M306.865,429.985c0,0-33.789,12.141-54.668-4.555
	C252.197,425.431,279.394,494.938,306.865,429.985z"/>
<path fill="none" stroke="#231F20" stroke-width="2" stroke-miterlimit="10" d="M345.514,317.201
	c0.016,0.012,0.031,0.024,0.046,0.036c1.198,0.932,2.373,1.886,3.523,2.861c0.023,0.02,0.047,0.038,0.07,0.058
	c1.163,0.989,2.304,1.999,3.416,3.031c1.095,1.016,2.154,2.064,3.182,3.14c0.493,0.516,0.956,1.057,1.435,1.586
	c0.51,0.565,1.032,1.119,1.524,1.698c0.629,0.737,1.224,1.501,1.824,2.261c0.305,0.386,0.622,0.761,0.919,1.152
	c0.693,0.911,1.354,1.846,2.008,2.785c0.174,0.25,0.358,0.494,0.529,0.747c0.72,1.056,1.405,2.134,2.076,3.223
	c0.087,0.141,0.179,0.278,0.265,0.419c0.716,1.177,1.399,2.373,2.06,3.583c0.03,0.055,0.062,0.109,0.093,0.165
	c0.688,1.267,1.344,2.552,1.972,3.852c0.001,0.002,0.002,0.004,0.004,0.007c0.635,1.315,1.237,2.645,1.812,3.99
	c2.579-2.076,4.809-4.446,6.42-6.745c10.134-14.443,1.808-34.146,12.564-48.618c-0.657-0.262-1.329-0.484-2.031-0.678
	c-10.408-2.894-25.318,1.449-34.021,5.456c-5.544,2.552-12.264,6.021-17.249,10.605C340.56,313.515,343.084,315.312,345.514,317.201
	z"/>
<path fill="none" stroke="#231F20" stroke-width="2" stroke-miterlimit="10" d="M372.271,351.794
	c2.579-2.076,4.81-4.447,6.421-6.745c10.133-14.443,1.807-34.146,12.563-48.618c-0.656-0.262-1.329-0.484-2.031-0.678
	c-9.865,3.726-19.572,15.389-26.825,22.112c-2.909,2.69-5.074,5.645-6.411,8.713C362.914,333.886,368.309,342.509,372.271,351.794z"
	/>
<path fill="none" stroke="#231F20" stroke-width="2" stroke-miterlimit="10" d="M187.621,328.49
	c10.451-6.5,20.22-14.235,30.168-21.12c4.208-2.912,8.644-5.386,13.249-7.454c-7.237-8.239-21.926-14.38-31.732-14.886
	c-11.783-0.604-19.15,5.371-28.821,7.875c0.182,0.32,0.365,0.65,0.542,0.988C176.193,303.476,180.249,318.145,187.621,328.49z"/>
<path fill="none" stroke="#231F20" stroke-width="2" stroke-miterlimit="10" d="M197.347,322.026c2.561-4.187,4.124-8.83,3.5-12.453
	c-1.947-11.269-16.035-13.444-24.908-14.842c-1.723-0.267-3.36-0.563-4.913-0.837c5.167,9.582,9.223,24.251,16.595,34.596
	C190.922,326.437,194.155,324.261,197.347,322.026z"/>
<path fill="none" stroke="#231F20" stroke-width="2" stroke-miterlimit="10" d="M74.364,387.004
	c0.977-2.924,2.309-5.763,3.918-8.497c-0.633-4.417-2.728-8.869-6.603-9.422c-5.475-0.865-6.339,6.916-12.679,3.457
	c-4.322-2.593-4.034-9.796-8.933-11.814c-3.169-1.44-10.373,0.577-10.661,4.899c0.289,4.322,7.204,2.017,10.661,4.898
	c2.882,2.306,3.458,8.645,7.78,10.085c4.61,1.729,8.933-5.475,12.966-3.17C74.139,379.341,71.406,386.121,74.364,387.004z"/>
<path fill="none" stroke="#231F20" stroke-width="2" stroke-miterlimit="10" d="M88.652,453.533
	c-0.176,14.545-1.917,28.464-3.588,43.411c-0.103,0.92-0.206,1.84-0.308,2.767c-0.451,4.115-5.307,16.486,1.294,17.941
	c3.538,0.782,6.163-3.835,9.952-3.696c4.548,0.171,2.357,7.178,6.757,6.92c2.425-0.142,4.022-3.543,4.947-5.328
	c1.74-3.345,2.648-7.128,3.556-10.801c0.348-1.404,0.696-2.798,1.089-4.139c1.644-5.618,3.421-11.19,5.076-16.798
	C106.617,476.233,96.546,465.649,88.652,453.533z"/>
<path fill="none" stroke="#231F20" stroke-width="2" stroke-miterlimit="10" d="M146.025,501.777
	c-0.052-1.177-0.091-2.353-0.133-3.529c-8.922-3.188-17.502-7.306-25.512-12.448c-1.513-0.972-3.012-2.017-4.499-3.104
	c2.121,8.454,4.904,17.037,6.856,25.617c0.041,0.182,0.083,0.363,0.125,0.545c0.793,3.543,0.273,15.188,6.162,14.525
	c3.158-0.353,4.027-4.932,7.215-5.891c3.821-1.147,3.996,5.288,7.571,3.826c1.97-0.806,2.333-4.08,2.598-5.823
	c0.479-3.196,0.187-6.511-0.094-9.751C146.196,504.405,146.08,503.078,146.025,501.777z"/>
<path fill="none" stroke="#231F20" stroke-width="2" stroke-miterlimit="10" d="M230.09,504.142
	c-0.119,1.625-0.247,3.247-0.401,4.861c-0.073,0.748-0.153,1.5-0.232,2.248c-0.452,4.113-5.307,16.485,1.294,17.939
	c3.538,0.781,6.157-3.836,9.946-3.697c4.548,0.165,2.363,7.178,6.762,6.923c2.425-0.144,4.017-3.545,4.947-5.329
	c1.861-3.586,2.769-7.67,3.75-11.592c0.285-1.135,0.57-2.258,0.89-3.349c1.466-4.998,3.029-9.961,4.522-14.943
	C251.2,500.192,240.634,502.529,230.09,504.142z"/>
<path fill="none" stroke="#231F20" stroke-width="2" stroke-miterlimit="10" d="M308.801,495.923
	c-0.241-0.844-0.464-1.677-0.662-2.512c-1.055-4.407-2.033-8.828-3.045-13.24c-8.946,4.529-18.376,8.569-28.098,12.049
	c2.134,4.244,4.25,8.508,6.166,12.811c0.2,0.434,0.395,0.873,0.583,1.312c1.655,3.793,3.59,16.941,10.037,14.927
	c3.458-1.077,3.441-6.389,6.803-8.153c4.028-2.111,5.614,5.056,9.301,2.648c2.03-1.33,1.729-5.073,1.648-7.082
	C311.351,504.359,309.941,500.072,308.801,495.923z"/>
<g id="Layer_2">
	<path fill="none" stroke="#000000" stroke-width="2" d="M170.883,581.552c-0.316-0.855-0.417-1.713-0.305-2.57
		c0.112-0.855,0.406-1.589,0.88-2.197c0.473-0.609,1.092-1.037,1.86-1.285c0.766-0.247,1.623-0.169,2.57,0.237
		c0.855,0.36,1.589,0.89,2.197,1.589c0.609,0.699,1.341,1.251,2.198,1.656c1.172,0.587,2.367,1.015,3.584,1.286
		c0.855,0.226,1.713,0.371,2.57,0.438c0.855,0.067,1.735,0.103,2.638,0.103c0.676-0.181,1.262-0.361,1.758-0.541
		c0.496-0.181,1.036-0.564,1.623-1.15c0.676-0.585,1.116-1.285,1.319-2.096c0.203-0.812,0.203-1.612,0-2.401
		c-0.203-0.788-0.586-1.511-1.149-2.164c-0.564-0.653-1.251-1.093-2.063-1.318c-1.578-0.541-3.156-0.957-4.733-1.251
		c-1.579-0.293-3.111-0.643-4.599-1.048c-1.487-0.406-2.897-0.981-4.226-1.725c-1.331-0.744-2.56-1.814-3.686-3.212
		c-0.632-0.767-1.038-1.442-1.217-2.029c-0.181-0.585-0.384-1.329-0.609-2.23c-0.406-2.164-0.237-3.99,0.507-5.478
		c0.744-1.488,1.679-2.841,2.806-4.058c1.441-1.577,3.076-2.783,4.902-3.618c1.826-0.833,3.741-1.374,5.748-1.623
		c2.005-0.247,4.034-0.203,6.086,0.136c2.051,0.338,4,0.913,5.85,1.725c1.082,0.45,1.769,1.15,2.062,2.097
		c0.292,0.946,0.304,1.871,0.033,2.771c-0.271,0.903-0.789,1.646-1.556,2.231c-0.767,0.587-1.668,0.79-2.705,0.609
		c-1.082-0.226-2.096-0.462-3.042-0.71c-0.947-0.247-1.894-0.462-2.84-0.643c-0.722-0.136-1.5-0.158-2.333-0.067
		c-0.835,0.091-1.623,0.236-2.367,0.439c-0.744,0.203-1.432,0.429-2.062,0.676c-0.632,0.248-1.105,0.507-1.42,0.778
		c-0.361,0.315-0.71,0.722-1.048,1.217c-0.338,0.497-0.531,1.06-0.575,1.69c-0.09,0.768,0.203,1.398,0.879,1.894
		c0.676,0.497,1.396,0.857,2.164,1.083c1.488,0.315,3.021,0.62,4.599,0.912c1.578,0.294,3.133,0.7,4.666,1.218
		c1.532,0.519,2.964,1.184,4.294,1.995c1.329,0.812,2.468,1.894,3.415,3.246c1.037,1.172,1.78,2.502,2.231,3.99
		c0.45,1.487,0.62,2.975,0.507,4.463c-0.113,1.488-0.462,2.92-1.047,4.295c-0.586,1.375-1.398,2.581-2.435,3.617
		c-0.722,0.722-1.478,1.342-2.266,1.859c-0.79,0.519-1.635,1.025-2.536,1.521c-1.804,0.947-3.743,1.42-5.816,1.42
		c-2.074,0-4.148-0.304-6.222-0.913c-2.074-0.608-4.036-1.466-5.883-2.569c-1.849-1.104-3.426-2.31-4.734-3.617L170.883,581.552z"/>
	<path fill="none" stroke="#000000" stroke-width="2" d="M236.41,581.011c0.406,0.587,0.643,1.274,0.71,2.062
		c0.067,0.789-0.023,1.533-0.271,2.231c-0.248,0.7-0.654,1.273-1.217,1.725c-0.564,0.449-1.296,0.652-2.198,0.608
		c-1.173-0.091-2.12-0.497-2.84-1.218c-0.722-0.72-1.398-1.531-2.028-2.435c-1.758,1.443-3.574,2.445-5.444,3.01
		c-1.872,0.562-3.708,0.687-5.511,0.371c-1.804-0.315-3.494-1.071-5.072-2.265c-1.579-1.194-2.908-2.807-3.99-4.835
		c-0.992-1.894-1.545-3.99-1.657-6.289c-0.113-2.3-0.147-4.485-0.102-6.56c0-0.721,0.022-1.431,0.068-2.13
		c0.044-0.698,0.089-1.432,0.135-2.198c0.045-0.586,0.068-1.16,0.068-1.724s0.034-1.093,0.102-1.59
		c0.068-0.496,0.203-0.991,0.406-1.488c0.203-0.495,0.507-0.969,0.913-1.42c0.541-0.585,1.194-0.935,1.961-1.048
		c0.766-0.112,1.498-0.034,2.198,0.236c0.698,0.271,1.307,0.688,1.826,1.252c0.518,0.564,0.8,1.251,0.845,2.062
		c0.089,2.299,0.034,4.622-0.169,6.965c-0.203,2.345-0.192,4.644,0.034,6.898c0.09,1.082,0.372,2.187,0.845,3.313
		s1.228,1.938,2.266,2.435c1.037,0.451,2.084,0.417,3.145-0.102c1.059-0.518,1.927-1.138,2.603-1.859
		c0.315-0.36,0.62-0.755,0.913-1.185c0.293-0.428,0.62-0.8,0.981-1.115c-0.18-1.577-0.293-3.155-0.338-4.733
		c-0.045-1.577-0.045-3.154,0-4.733c0-0.855,0.034-1.792,0.102-2.807c0.067-1.014,0.248-1.983,0.541-2.907s0.732-1.735,1.318-2.436
		c0.585-0.698,1.42-1.138,2.502-1.318c0.496-0.09,0.981-0.044,1.454,0.136c0.473,0.181,0.889,0.429,1.251,0.744
		c0.63,0.541,1.058,1.149,1.285,1.825c0.225,0.676,0.338,1.398,0.338,2.164c0,0.768-0.058,1.545-0.169,2.333
		c-0.114,0.789-0.192,1.521-0.237,2.197c-0.09,1.263-0.159,2.593-0.203,3.99c-0.045,1.398,0,2.796,0.135,4.193
		c0.136,1.398,0.395,2.75,0.778,4.058C235.068,578.734,235.643,579.929,236.41,581.011z"/>
	<path fill="none" stroke="#000000" stroke-width="2" d="M241.074,581.755c-0.27-0.767-0.384-1.521-0.338-2.265
		c0.044-0.744,0.237-1.421,0.575-2.029c0.337-0.608,0.822-1.082,1.454-1.42c0.63-0.338,1.396-0.462,2.299-0.371
		c0.496,0.045,0.947,0.181,1.352,0.405c0.406,0.227,0.778,0.497,1.116,0.812c0.339,0.316,0.676,0.654,1.014,1.015
		s0.687,0.676,1.048,0.946c0.767,0.587,1.577,1.015,2.435,1.285c0.855,0.271,1.758,0.473,2.705,0.608
		c0.631,0,1.138-0.158,1.521-0.473c0.382-0.315,0.643-0.699,0.778-1.15c0.136-0.449,0.169-0.935,0.102-1.454
		c-0.067-0.518-0.237-0.935-0.507-1.251c-0.767-0.766-1.702-1.262-2.806-1.487c-1.105-0.226-2.129-0.496-3.077-0.812
		c-1.353-0.45-2.682-1.025-3.989-1.725c-1.309-0.698-2.367-1.656-3.178-2.874c-0.857-1.262-1.364-2.604-1.521-4.022
		c-0.159-1.421-0.045-2.807,0.338-4.159c0.382-1.353,1.024-2.592,1.927-3.72c0.901-1.127,1.983-2.051,3.246-2.772
		c0.947-0.541,1.983-0.89,3.111-1.048c1.126-0.158,2.265-0.191,3.415-0.102c1.15,0.09,2.288,0.304,3.415,0.643
		c1.127,0.338,2.164,0.71,3.111,1.115c1.083,0.497,1.894,1.195,2.435,2.097c0.541,0.902,0.8,1.815,0.778,2.739
		c-0.023,0.925-0.338,1.724-0.947,2.4c-0.609,0.676-1.499,1.015-2.671,1.015c-0.721,0-1.375-0.124-1.96-0.372
		c-0.586-0.247-1.195-0.484-1.826-0.71c-0.812-0.315-1.691-0.529-2.638-0.643c-0.947-0.112-1.714-0.056-2.299,0.169
		c-0.181,0.046-0.384,0.192-0.608,0.439c-0.227,0.249-0.396,0.553-0.507,0.913c-0.113,0.361-0.135,0.722-0.067,1.082
		c0.067,0.362,0.304,0.653,0.71,0.88c1.082,0.586,2.231,1.037,3.449,1.353c1.217,0.316,2.411,0.676,3.584,1.082
		c1.171,0.405,2.265,0.925,3.279,1.556c1.015,0.631,1.86,1.533,2.536,2.705c0.992,1.713,1.498,3.506,1.521,5.376
		c0.022,1.871-0.35,3.617-1.116,5.24c-0.767,1.623-1.894,3.009-3.38,4.159c-1.488,1.149-3.224,1.836-5.208,2.062
		c-1.398,0.135-2.772,0.056-4.125-0.237c-1.353-0.294-2.661-0.768-3.922-1.42c-1.262-0.654-2.435-1.431-3.517-2.333
		c-1.083-0.901-2.029-1.848-2.84-2.84L241.074,581.755z"/>
	<path fill="none" stroke="#000000" stroke-width="2" d="M294.158,581.755c-0.27-0.767-0.383-1.521-0.338-2.265
		c0.045-0.744,0.237-1.421,0.575-2.029s0.823-1.082,1.454-1.42c0.63-0.338,1.396-0.462,2.299-0.371
		c0.496,0.045,0.947,0.181,1.353,0.405c0.406,0.227,0.778,0.497,1.116,0.812c0.338,0.316,0.676,0.654,1.014,1.015
		s0.687,0.676,1.048,0.946c0.766,0.587,1.577,1.015,2.435,1.285c0.855,0.271,1.758,0.473,2.705,0.608
		c0.631,0,1.138-0.158,1.521-0.473c0.383-0.315,0.643-0.699,0.777-1.15c0.136-0.449,0.169-0.935,0.102-1.454
		c-0.067-0.518-0.236-0.935-0.507-1.251c-0.767-0.766-1.702-1.262-2.807-1.487c-1.105-0.226-2.129-0.496-3.077-0.812
		c-1.353-0.45-2.683-1.025-3.99-1.725c-1.309-0.698-2.367-1.656-3.178-2.874c-0.856-1.262-1.364-2.604-1.521-4.022
		c-0.159-1.421-0.045-2.807,0.338-4.159c0.382-1.353,1.024-2.592,1.926-3.72c0.901-1.127,1.983-2.051,3.246-2.772
		c0.947-0.541,1.983-0.89,3.111-1.048c1.127-0.158,2.266-0.191,3.415-0.102c1.15,0.09,2.288,0.304,3.415,0.643
		c1.127,0.338,2.164,0.71,3.111,1.115c1.082,0.497,1.894,1.195,2.435,2.097c0.541,0.902,0.801,1.815,0.778,2.739
		c-0.023,0.925-0.339,1.724-0.947,2.4c-0.608,0.676-1.499,1.015-2.671,1.015c-0.722,0-1.376-0.124-1.961-0.372
		c-0.586-0.247-1.195-0.484-1.825-0.71c-0.812-0.315-1.691-0.529-2.638-0.643c-0.947-0.112-1.714-0.056-2.3,0.169
		c-0.18,0.046-0.384,0.192-0.608,0.439c-0.226,0.249-0.395,0.553-0.507,0.913c-0.113,0.361-0.135,0.722-0.067,1.082
		c0.067,0.362,0.304,0.653,0.71,0.88c1.082,0.586,2.231,1.037,3.449,1.353c1.217,0.316,2.41,0.676,3.584,1.082
		c1.171,0.405,2.265,0.925,3.278,1.556c1.016,0.631,1.86,1.533,2.536,2.705c0.992,1.713,1.499,3.506,1.521,5.376
		c0.022,1.871-0.349,3.617-1.115,5.24s-1.894,3.009-3.381,4.159c-1.487,1.149-3.224,1.836-5.207,2.062
		c-1.398,0.135-2.773,0.056-4.125-0.237c-1.353-0.294-2.661-0.768-3.922-1.42c-1.263-0.654-2.435-1.431-3.517-2.333
		c-1.083-0.901-2.029-1.848-2.84-2.84L294.158,581.755z"/>
	<path fill="none" stroke="#000000" stroke-width="2" d="M341.226,577.832c1.127-0.721,2.197-1.036,3.212-0.947
		c1.015,0.091,1.849,0.44,2.502,1.049s1.015,1.42,1.083,2.435c0.067,1.015-0.282,2.086-1.049,3.212
		c-0.497,0.768-1.206,1.466-2.13,2.097s-1.815,1.127-2.671,1.488c-1.984,0.901-3.99,1.308-6.019,1.217
		c-2.028-0.09-3.912-0.587-5.646-1.488c-1.736-0.901-3.235-2.152-4.497-3.753c-1.263-1.6-2.12-3.459-2.57-5.578
		c-0.902-4.058-0.722-7.957,0.541-11.699c0.496-1.353,1.093-2.66,1.793-3.923c0.698-1.262,1.543-2.41,2.536-3.448
		c0.991-1.037,2.096-1.95,3.313-2.739c1.217-0.788,2.546-1.318,3.99-1.59c0.99-0.179,2.254-0.169,3.787,0.035
		c1.532,0.202,3.031,0.598,4.497,1.184c1.465,0.586,2.749,1.353,3.854,2.299c1.104,0.946,1.725,2.074,1.86,3.381
		c0.089,0.722,0,1.387-0.271,1.995s-0.654,1.115-1.149,1.521c-0.497,0.405-1.072,0.688-1.725,0.845
		c-0.654,0.159-1.318,0.147-1.995-0.033c-0.812-0.226-1.454-0.529-1.927-0.913c-0.474-0.383-1.094-0.89-1.86-1.521
		c-0.361-0.09-0.699-0.236-1.014-0.439c-0.316-0.203-0.654-0.281-1.015-0.237l-1.825,0.203c-0.316,0.181-0.608,0.338-0.879,0.474
		c-0.271,0.135-0.542,0.27-0.812,0.405c-1.534,1.533-2.661,3.235-3.382,5.105c-0.722,1.872-0.902,3.889-0.541,6.053
		c0.226,1.397,0.665,2.548,1.318,3.449c0.653,0.902,1.421,1.521,2.3,1.859c0.879,0.339,1.849,0.372,2.908,0.102
		c1.058-0.271,2.106-0.88,3.144-1.825L341.226,577.832z"/>
	<path fill="none" stroke="#000000" stroke-width="2" d="M356.305,565.423c0.045-0.292,0.022-0.821-0.066-1.589
		c-0.723-0.405-1.285-0.924-1.691-1.556c-0.405-0.63-0.643-1.307-0.71-2.028c-0.067-0.721,0.067-1.408,0.406-2.062
		c0.338-0.652,0.889-1.206,1.656-1.657c1.036-0.585,2.175-0.698,3.415-0.338c1.239,0.361,2.31,0.902,3.212,1.623
		c1.127-0.855,2.3-1.577,3.517-2.164c1.217-0.585,2.457-0.98,3.72-1.184c1.262-0.203,2.546-0.169,3.854,0.102
		c1.307,0.271,2.592,0.835,3.854,1.69c0.631,0.406,1.217,0.913,1.758,1.521c0.542,0.608,0.88,1.297,1.015,2.062
		c0.225,1.128,0.136,2.108-0.271,2.942c-0.405,0.834-0.97,1.442-1.69,1.825c-0.722,0.383-1.533,0.497-2.435,0.338
		c-0.903-0.157-1.759-0.642-2.57-1.453c-0.27-0.181-0.463-0.327-0.574-0.44c-0.113-0.112-0.35-0.259-0.71-0.439
		c-0.722-0.18-1.432-0.136-2.13,0.136c-0.7,0.271-1.376,0.643-2.028,1.115c-0.654,0.474-1.263,0.992-1.825,1.556
		c-0.564,0.564-1.072,1.071-1.521,1.521v17.245c0,0.676-0.136,1.33-0.406,1.961c-0.405,1.036-1.048,1.759-1.927,2.164
		c-0.88,0.405-1.759,0.518-2.638,0.338c-0.879-0.181-1.646-0.632-2.3-1.353c-0.653-0.722-0.98-1.645-0.98-2.772v-18.935
		C356.238,565.773,356.26,565.717,356.305,565.423z"/>
	<path fill="none" stroke="#000000" stroke-width="2" d="M380.514,570.123c0.315-1.307,0.754-2.591,1.319-3.854
		c0.562-1.262,1.251-2.468,2.062-3.618c0.811-1.149,1.724-2.197,2.738-3.145c1.015-0.946,2.106-1.713,3.28-2.299
		c2.073-1.083,4.159-1.634,6.255-1.657c2.097-0.021,4.046,0.396,5.851,1.251c1.802,0.857,3.335,2.13,4.599,3.821
		c1.262,1.69,2.096,3.709,2.501,6.053c0.226,1.533,0.35,2.987,0.372,4.361c0.022,1.376-0.124,2.807-0.439,4.295
		c-0.451,2.119-1.364,4.227-2.739,6.322c-1.375,2.097-3.021,3.854-4.936,5.274c-1.917,1.42-4.014,2.356-6.289,2.807
		c-2.277,0.45-4.565,0.09-6.864-1.082c-1.037-0.497-1.974-1.071-2.807-1.725c-0.834-0.652-1.59-1.431-2.266-2.332
		c-0.767-0.991-1.363-2.028-1.791-3.111c-0.43-1.082-0.778-2.208-1.049-3.381c-0.316-1.262-0.429-2.536-0.339-3.82
		c0.09-1.285,0.248-2.536,0.474-3.754L380.514,570.123z"/>
	<path fill="none" stroke="#000000" stroke-width="2" d="M388.629,571.543c-0.135,0.723-0.248,1.433-0.338,2.131
		c-0.091,0.699-0.091,1.409,0,2.129c0.136,1.038,0.417,1.984,0.846,2.841c0.428,0.856,0.99,1.533,1.69,2.028
		c0.698,0.497,1.498,0.756,2.4,0.778c0.901,0.023,1.871-0.259,2.908-0.846c1.308-0.766,2.435-1.949,3.381-3.551
		c0.947-1.6,1.532-3.268,1.759-5.004c0.225-1.735,0.044-3.381-0.541-4.937c-0.587-1.555-1.736-2.671-3.449-3.348
		c-1.128,0-2.164,0.215-3.111,0.643c-0.946,0.429-1.77,0.992-2.468,1.691c-0.7,0.699-1.309,1.521-1.826,2.468
		C389.361,569.515,388.943,570.507,388.629,571.543z"/>
	<path fill="none" stroke="#000000" stroke-width="2" d="M425.011,587.097c-0.587,0.722-1.263,1.217-2.028,1.488
		c-0.768,0.271-1.556,0.271-2.367,0s-1.487-0.88-2.028-1.826c-0.227-0.361-0.406-0.744-0.541-1.149
		c-0.136-0.405-0.203-0.811-0.203-1.217v-17.785c-0.856,0-1.635-0.237-2.333-0.71c-0.699-0.474-1.217-1.059-1.555-1.759
		c-0.339-0.698-0.464-1.442-0.372-2.23c0.09-0.789,0.45-1.521,1.082-2.199c0.45-0.495,0.935-0.821,1.454-0.98
		c0.519-0.157,1.07-0.259,1.657-0.304c-0.045-1.397-0.08-2.772-0.102-4.125c-0.023-1.353,0.078-2.705,0.304-4.058
		c0.271-2.119,0.901-3.922,1.894-5.41s2.221-2.638,3.686-3.449s3.099-1.285,4.903-1.42c1.802-0.136,3.674,0.136,5.613,0.812
		c0.811,0.271,1.589,0.608,2.333,1.015c0.744,0.405,1.408,0.925,1.995,1.555c0.405,0.451,0.698,0.981,0.879,1.59
		c0.18,0.608,0.214,1.217,0.102,1.825c-0.113,0.608-0.338,1.173-0.676,1.691s-0.823,0.912-1.454,1.184
		c-0.856,0.361-1.702,0.451-2.536,0.271c-0.835-0.181-1.657-0.474-2.468-0.88c-0.497-0.18-0.97-0.36-1.421-0.541
		c-0.451-0.18-0.925-0.315-1.42-0.406c-0.496-0.089-0.946-0.021-1.353,0.203c-0.405,0.226-0.755,0.53-1.048,0.913
		c-0.293,0.384-0.52,0.812-0.676,1.285c-0.158,0.474-0.237,0.936-0.237,1.387c-0.045,1.037-0.057,2.085-0.034,3.145
		c0.023,1.06,0.034,2.107,0.034,3.145c0.676-0.044,1.397-0.089,2.164-0.135c0.766-0.045,1.521-0.068,2.266-0.068
		s1.431,0.023,2.062,0.068c0.631,0.045,1.126,0.135,1.488,0.27c0.72,0.271,1.307,0.688,1.758,1.251
		c0.45,0.564,0.744,1.173,0.879,1.826c0.136,0.653,0.078,1.318-0.169,1.994c-0.248,0.677-0.687,1.263-1.318,1.759
		c-0.586,0.451-1.262,0.768-2.027,0.946c-0.768,0.182-1.579,0.305-2.436,0.372s-1.69,0.091-2.502,0.067
		c-0.812-0.021-1.533-0.034-2.164-0.034v18.056C425.957,585.52,425.596,586.375,425.011,587.097z"/>
	<path fill="none" stroke="#000000" stroke-width="2" d="M468.155,583.31c0.359,1.309,0.292,2.391-0.203,3.247
		c-0.497,0.855-1.184,1.43-2.062,1.724c-0.88,0.294-1.838,0.259-2.874-0.102c-1.038-0.36-1.939-1.082-2.705-2.164
		c-1.262,0.947-2.491,1.612-3.686,1.995s-2.559,0.598-4.092,0.643c-2.299,0.09-4.351-0.169-6.153-0.777
		c-1.804-0.608-3.325-1.521-4.564-2.739c-1.241-1.217-2.154-2.739-2.739-4.564c-0.587-1.825-0.789-3.933-0.608-6.323
		c0.089-0.991,0.259-1.961,0.507-2.907c0.247-0.947,0.529-1.871,0.846-2.772c0.36-0.991,0.867-2.052,1.521-3.179
		c0.652-1.126,1.317-2.097,1.995-2.908c2.435-2.975,5.477-5.115,9.129-6.424c0.63-0.225,1.487-0.428,2.569-0.608
		c1.082-0.18,2.175-0.259,3.279-0.237c1.104,0.023,2.164,0.169,3.178,0.439c1.016,0.271,1.77,0.745,2.266,1.421
		c0.406,0.541,0.699,1.014,0.88,1.42c0.18,0.405,0.281,0.834,0.305,1.285c0.021,0.45,0.021,0.936,0,1.453
		c-0.023,0.52-0.035,1.161-0.035,1.928c0,1.263-0.011,2.491-0.033,3.686c-0.023,1.194-0.013,2.4,0.033,3.617c0,0.406,0,0.937,0,1.59
		s0.023,1.341,0.068,2.062c0.044,0.723,0.101,1.41,0.168,2.062c0.068,0.654,0.169,1.184,0.305,1.59L468.155,583.31z"/>
	<path fill="none" stroke="#000000" stroke-width="2" d="M453.818,580.268c0.495-0.315,1.058-0.665,1.69-1.049
		c0.631-0.383,1.193-0.822,1.69-1.318c-0.405-2.389-0.642-4.778-0.71-7.168c-0.067-2.39-0.057-4.802,0.034-7.236
		c-2.028,0.361-3.854,1.24-5.477,2.638c-1.623,1.398-2.751,3.043-3.382,4.937c-0.27,0.768-0.497,1.556-0.676,2.367
		c-0.181,0.811-0.248,1.6-0.203,2.366c0.045,1.037,0.315,1.905,0.812,2.604c0.496,0.7,1.093,1.229,1.793,1.589
		c0.698,0.362,1.441,0.564,2.231,0.608C452.409,580.65,453.142,580.537,453.818,580.268z"/>
	<path fill="none" stroke="#000000" stroke-width="2" d="M283.931,645.068c0.473,0.912,0.642,1.833,0.507,2.764
		c-0.135,0.93-0.744,1.615-1.826,2.055c-1.014,0.371-1.986,0.27-2.916-0.305c-0.931-0.575-1.768-1.353-2.511-2.333
		c-0.744-0.981-1.387-2.012-1.927-3.094c-0.541-1.083-0.947-1.961-1.216-2.638c-1.725-3.989-2.655-8.141-2.79-12.451
		c-0.135-4.312,0.422-8.512,1.673-12.604c0.304-1.048,0.71-2.037,1.217-2.968c0.507-0.93,1.015-1.868,1.521-2.814
		c0.304-0.541,0.685-1.218,1.142-2.029c0.456-0.812,0.988-1.538,1.597-2.181c0.608-0.642,1.276-1.098,2.003-1.369
		c0.727-0.27,1.513-0.152,2.359,0.355c0.812,0.507,1.25,1.107,1.318,1.8c0.067,0.694-0.06,1.404-0.38,2.131
		c-0.321,0.727-0.727,1.428-1.217,2.104c-0.491,0.677-0.887,1.252-1.191,1.725c-0.44,0.778-0.804,1.438-1.091,1.978
		c-0.288,0.542-0.523,0.998-0.71,1.369c-0.186,0.372-0.329,0.702-0.431,0.989c-0.102,0.288-0.187,0.566-0.253,0.837
		c-0.507,1.758-0.88,3.643-1.116,5.654c-0.237,2.012-0.304,4.032-0.203,6.062c0.102,2.027,0.406,4.015,0.913,5.959
		c0.507,1.944,1.25,3.728,2.231,5.351c0.168,0.304,0.388,0.616,0.659,0.938c0.27,0.321,0.515,0.608,0.735,0.862
		s0.397,0.456,0.533,0.608c0.135,0.152,0.168,0.194,0.101,0.127L283.931,645.068z"/>
	<path fill="none" stroke="#000000" stroke-width="2" d="M288.699,620.521c0.236-0.812,0.616-1.429,1.141-1.852
		c0.524-0.422,1.082-0.667,1.674-0.735c0.591-0.067,1.158,0.034,1.698,0.305c0.541,0.271,0.964,0.693,1.268,1.268
		c0.372-0.203,0.744-0.389,1.116-0.558c0.372-0.169,0.794-0.321,1.268-0.457c2.164-0.574,4.083-0.532,5.756,0.127
		c1.674,0.659,3.069,1.674,4.185,3.043c1.115,1.37,1.91,2.976,2.384,4.818c0.473,1.844,0.584,3.686,0.33,5.528
		c-0.254,1.844-0.905,3.567-1.953,5.174s-2.553,2.849-4.513,3.728c-1.286,0.574-2.629,0.938-4.032,1.091
		c-1.403,0.151-2.798,0.177-4.185,0.075c0,0.034,0.008,0.305,0.025,0.812c0.017,0.507,0.025,1.149,0.025,1.928
		c0,0.777,0,1.622,0,2.536c0,0.912-0.025,1.792-0.076,2.638c-0.051,0.844-0.119,1.597-0.203,2.257
		c-0.085,0.659-0.212,1.107-0.38,1.344c-0.44,0.642-0.982,1.048-1.623,1.217c-0.643,0.169-1.252,0.144-1.826-0.076
		c-0.575-0.22-1.074-0.592-1.496-1.115c-0.423-0.524-0.634-1.159-0.634-1.901v-30.888L288.699,620.521z"/>
	<path fill="none" stroke="#000000" stroke-width="2" d="M295.191,627.114c-0.102,0.169-0.152,0.245-0.152,0.228
		c0-0.017-0.068,0.043-0.203,0.178v8.368c0.676,0.102,1.352,0.152,2.028,0.152c0.675,0,1.387-0.102,2.13-0.305
		c1.521-0.371,2.721-1.106,3.601-2.205c0.878-1.099,1.217-2.46,1.014-4.083c-0.102-0.676-0.296-1.377-0.583-2.104
		c-0.288-0.728-0.668-1.344-1.141-1.852c-0.474-0.507-1.033-0.861-1.674-1.064c-0.643-0.203-1.369-0.135-2.181,0.203
		c-0.575,0.236-1.09,0.592-1.546,1.064C296.027,626.168,295.597,626.641,295.191,627.114z"/>
	<path fill="none" stroke="#000000" stroke-width="2" d="M313.702,611.086c0.135-1.25,0.566-2.172,1.293-2.765
		c0.728-0.591,1.496-0.878,2.308-0.861c0.812,0.018,1.563,0.329,2.258,0.938c0.692,0.608,1.056,1.471,1.09,2.587
		c0.067,1.149-0.229,2.037-0.888,2.663c-0.659,0.625-1.412,0.981-2.257,1.064c-0.846,0.085-1.641-0.144-2.384-0.685
		c-0.745-0.541-1.201-1.403-1.37-2.587L313.702,611.086z"/>
	<path fill="none" stroke="#000000" stroke-width="2" d="M320.396,639.945c-0.067,0.677-0.304,1.277-0.71,1.8
		c-0.405,0.524-0.87,0.905-1.395,1.142c-0.523,0.236-1.09,0.287-1.699,0.152c-0.608-0.136-1.149-0.507-1.622-1.116
		c-0.271-0.338-0.465-0.718-0.583-1.141c-0.119-0.422-0.195-0.862-0.229-1.318c-0.034-0.456-0.042-0.913-0.025-1.369
		s0.025-0.871,0.025-1.243c-0.034-1.994-0.042-3.972-0.025-5.934c0.017-1.96,0.008-3.938-0.025-5.934
		c0-0.812-0.051-1.631-0.151-2.46c-0.102-0.829-0.051-1.648,0.151-2.46c0.169-0.608,0.465-1.133,0.888-1.572
		c0.422-0.439,0.896-0.743,1.42-0.913c0.523-0.169,1.065-0.185,1.623-0.051c0.558,0.136,1.039,0.491,1.445,1.065
		c0.54,0.676,0.811,1.344,0.811,2.003s0,1.463,0,2.409c0,1.15,0,2.3,0,3.449c0,1.15,0.017,2.282,0.051,3.398
		c0.034,1.623,0.051,3.246,0.051,4.869c0,1.622,0,3.245,0,4.868V639.945L320.396,639.945z"/>
	<path fill="none" stroke="#000000" stroke-width="2" d="M327.498,651.965c-0.575-0.709-0.881-1.444-0.913-2.205
		c-0.034-0.761,0.135-1.412,0.507-1.953s0.904-0.912,1.598-1.115c0.692-0.203,1.462-0.102,2.308,0.305
		c0.371,0.27,0.71,0.473,1.014,0.608c0.306,0.135,0.728,0.338,1.269,0.608c0.507,0.236,1.082,0.414,1.724,0.532
		c0.643,0.118,1.251,0.144,1.826,0.076c1.149-0.067,2.036-0.263,2.663-0.583c0.625-0.322,1.073-0.744,1.344-1.268
		c0.271-0.525,0.432-1.167,0.482-1.928c0.051-0.76,0.075-1.615,0.075-2.562c-1.082,0.372-2.164,0.651-3.246,0.837
		s-2.198,0.211-3.348,0.076c-2.231-0.271-4.066-1.065-5.503-2.384c-1.438-1.318-2.485-2.892-3.145-4.717s-0.931-3.778-0.812-5.858
		c0.118-2.079,0.6-3.997,1.445-5.756c0.507-1.015,1.2-1.953,2.079-2.814c0.88-0.863,1.868-1.572,2.967-2.131
		c1.099-0.558,2.249-0.921,3.449-1.09s2.359-0.067,3.475,0.304c0.643,0.237,1.269,0.474,1.877,0.71
		c0.608,0.237,1.2,0.542,1.774,0.913c0.642-0.574,1.395-0.862,2.257-0.862s1.598,0.406,2.206,1.218
		c0.135,0.202,0.287,0.431,0.456,0.684c0.169,0.254,0.254,0.5,0.254,0.736c0.033,3.618,0.041,7.228,0.025,10.828
		c-0.018,3.601-0.025,7.21-0.025,10.828c0,1.453-0.195,2.806-0.583,4.058c-0.39,1.25-0.973,2.358-1.75,3.321
		c-0.778,0.964-1.742,1.75-2.892,2.358c-1.149,0.609-2.485,0.997-4.007,1.167c-0.777,0.067-1.539,0.102-2.281,0.102
		c-0.745,0-1.505-0.085-2.282-0.253c-1.084-0.203-2.123-0.542-3.12-1.016c-0.998-0.473-1.986-0.997-2.967-1.571L327.498,651.965z"/>
	<path fill="none" stroke="#000000" stroke-width="2" d="M333.481,636.496c1.488,0.71,2.857,0.938,4.108,0.686
		c1.251-0.254,2.519-0.82,3.805-1.699v-8.064c-0.981-0.98-1.936-1.665-2.866-2.054c-0.93-0.389-2.037-0.498-3.322-0.33
		c-0.237,0.136-0.465,0.254-0.685,0.355s-0.448,0.203-0.684,0.305c-0.711,0.811-1.252,1.597-1.623,2.358
		c-0.372,0.761-0.593,1.539-0.659,2.333c-0.068,0.795-0.01,1.606,0.177,2.435c0.186,0.829,0.465,1.733,0.837,2.714
		c0.102,0.17,0.253,0.339,0.457,0.508C333.229,636.209,333.381,636.361,333.481,636.496z"/>
	<path fill="none" stroke="#000000" stroke-width="2" d="M353.77,644.408c0.27-0.271,0.515-0.516,0.734-0.735
		s0.439-0.44,0.659-0.659c0.22-0.221,0.432-0.465,0.634-0.735c0.203-0.271,0.423-0.592,0.659-0.964
		c0.981-1.589,1.725-3.398,2.231-5.427c0.508-2.028,0.812-4.116,0.913-6.264c0.102-2.146,0.017-4.26-0.253-6.339
		c-0.271-2.08-0.728-3.981-1.37-5.706c-0.439-1.184-0.988-2.299-1.647-3.348c-0.659-1.047-1.328-2.078-2.004-3.094
		c-0.304-0.438-0.6-0.87-0.887-1.293c-0.288-0.422-0.448-0.921-0.481-1.496c-0.035-0.88,0.177-1.605,0.634-2.181
		c0.456-0.574,1.005-0.938,1.648-1.091c0.642-0.151,1.301-0.092,1.977,0.178c0.676,0.271,1.218,0.795,1.623,1.572
		c0.744,1.049,1.454,2.113,2.13,3.195c0.676,1.083,1.301,2.181,1.877,3.297c0.945,1.825,1.665,3.805,2.155,5.934
		c0.489,2.13,0.777,4.312,0.861,6.543c0.085,2.231-0.025,4.438-0.329,6.618c-0.305,2.181-0.761,4.219-1.37,6.111
		c-0.541,1.623-1.191,3.254-1.952,4.895c-0.761,1.64-1.732,3.085-2.916,4.337c-0.507,0.54-1.083,1.048-1.725,1.521
		c-0.643,0.474-1.353,0.711-2.13,0.711c-0.71,0-1.293-0.152-1.749-0.457c-0.456-0.304-0.778-0.693-0.964-1.166
		c-0.187-0.474-0.245-0.989-0.178-1.547s0.236-1.108,0.508-1.648L353.77,644.408z"/>
	<path fill="none" stroke="#000000" stroke-width="2" d="M395.9,362.104c-1.579-4.279-2.086-8.564-1.521-12.849
		c0.561-4.279,2.028-7.946,4.396-10.988c2.367-3.043,5.463-5.183,9.298-6.424c3.83-1.237,8.115-0.846,12.849,1.184
		c4.279,1.807,7.945,4.454,10.988,7.946c3.044,3.498,6.705,6.255,10.989,8.283c5.858,2.933,11.834,5.072,17.921,6.425
		c4.279,1.13,8.563,1.859,12.848,2.198c4.279,0.338,8.676,0.507,13.188,0.507c3.381-0.898,6.309-1.802,8.791-2.705
		c2.479-0.898,5.184-2.816,8.115-5.749c3.381-2.927,5.578-6.424,6.593-10.481c1.014-4.058,1.014-8.057,0-12.003
		c-1.015-3.941-2.932-7.55-5.748-10.82c-2.821-3.265-6.256-5.462-10.313-6.593c-7.893-2.705-15.78-4.787-23.669-6.255
		c-7.892-1.464-15.553-3.212-22.991-5.241c-7.439-2.029-14.486-4.903-21.133-8.623c-6.651-3.719-12.796-9.071-18.427-16.061
		c-3.16-3.831-5.189-7.211-6.087-10.143c-0.903-2.927-1.918-6.646-3.043-11.158c-2.028-10.819-1.184-19.949,2.536-27.388
		c3.719-7.438,8.396-14.201,14.032-20.287c7.211-7.888,15.385-13.916,24.514-18.089c9.13-4.168,18.708-6.874,28.74-8.115
		c10.027-1.236,20.172-1.014,30.432,0.676c10.255,1.691,20.003,4.564,29.248,8.622c5.409,2.256,8.843,5.749,10.312,10.481
		c1.463,4.733,1.521,9.356,0.169,13.863c-1.353,4.511-3.946,8.231-7.776,11.158c-3.837,2.932-8.343,3.947-13.525,3.043
		c-5.41-1.125-10.482-2.309-15.216-3.55c-4.733-1.236-9.467-2.308-14.201-3.212c-3.608-0.676-7.496-0.788-11.665-0.338
		c-4.173,0.454-8.115,1.184-11.834,2.198c-3.72,1.014-7.159,2.145-10.313,3.381c-3.159,1.241-5.526,2.536-7.101,3.889
		c-1.808,1.58-3.55,3.608-5.24,6.086c-1.691,2.483-2.652,5.298-2.874,8.453c-0.454,3.835,1.014,6.99,4.396,9.468
		c3.381,2.483,6.984,4.285,10.82,5.41c7.438,1.58,15.099,3.101,22.992,4.564c7.888,1.469,15.664,3.498,23.33,6.086
		c7.661,2.594,14.819,5.917,21.471,9.975c6.646,4.058,12.341,9.468,17.074,16.23c5.184,5.864,8.903,12.511,11.158,19.95
		c2.251,7.439,3.096,14.877,2.537,22.316c-0.565,7.439-2.314,14.598-5.241,21.471c-2.933,6.879-6.989,12.907-12.173,18.09
		c-3.607,3.608-7.385,6.709-11.327,9.298c-3.946,2.588-8.173,5.125-12.68,7.608c-9.019,4.733-18.713,7.101-29.078,7.101
		c-10.371,0-20.742-1.521-31.107-4.564c-10.371-3.043-20.177-7.328-29.416-12.849c-9.245-5.521-17.133-11.549-23.669-18.09
		L395.9,362.104z"/>
</g>
<path fill="none" stroke="#231F20" stroke-width="2" stroke-miterlimit="10" d="M363.896,435.734
	c-11.481,14.345-27.346,25.913-42.489,35.303c-37.452,23.223-87.514,37.328-131.638,35.532c-24.368-0.992-48.76-7.523-69.389-20.77
	c-28.415-18.247-52.783-57.716-47.543-92.512c3.322-22.062,27.522-40.77,47.997-45.924c17.076-4.3,36.204-3.871,52.681-11.257
	c16.092-7.215,29.995-18.855,44.274-28.736c39.929-27.628,100.139-16.32,134.78,15.815c17.978,16.68,26.982,41.66,27.935,65.804
	C381.222,407.197,374.388,422.626,363.896,435.734z"/>
<path fill="none" stroke="#231F20" stroke-width="2" stroke-miterlimit="10" d="M405.689,515.339
	c-1.515,5.142-1.668,10.105,3.028,12.561c5.907,3.09,8.875-0.405,11.306-4.682C414.834,521.481,409.975,518.887,405.689,515.339z"/>
<path fill="none" stroke="#231F20" stroke-width="2" stroke-miterlimit="10" d="M453.463,523.946
	c3.533,5.018,7.865,9.166,13.185,6.476c6.181-3.125,4.733-7.804,2.522-12.44C464.236,520.577,458.924,522.592,453.463,523.946z"/>
<path fill="none" stroke="#231F20" stroke-width="2" stroke-miterlimit="10" d="M518.004,459.807
	c-4.066-1.493-4.772,5.761-8.811,7.748c-3.278,1.695-9.305-0.356-12.378,3.005c-3.455,3.51,1.368,10.389-2.378,13.135
	c-1.743,1.277-4.122,0.158-6.226-0.639c0.127,2.222,0.138,4.313,0.037,6.282c4.659,1.91,11.024,2.44,13.471-1.455
	c3.018-4.648-3.738-8.604,1.998-12.988c4.127-2.894,10.591,0.3,14.425-3.355C520.748,469.23,521.836,461.828,518.004,459.807z"/>
<path fill="none" stroke="#231F20" stroke-width="2" stroke-miterlimit="10" d="M448.64,436.1
	c2.477-9.356,2.301-21.146,1.438-27.115c-3.617,4.596-6.735,9.902-9.451,15.419c-1.926,3.9-2.3,7.531-2.951,11.166
	C441.51,435.443,445.215,435.628,448.64,436.1z"/>
<path fill="none" stroke="#231F20" stroke-width="2" stroke-miterlimit="10" d="M457.46,438.186
	c1.268,0.458,2.496,0.979,3.706,1.529c-3.385-9.396-0.336-27.114-10.626-31.321c-0.155,0.194-0.311,0.385-0.463,0.591
	c-3.617,4.596-6.735,9.902-9.451,15.419c-1.926,3.9-2.3,7.531-2.951,11.166C445.133,435.323,452.109,436.251,457.46,438.186z"/>
<path fill="none" stroke="#231F20" stroke-width="2" stroke-miterlimit="10" d="M474.933,514.57
	c-30.483,20.241-81.738,16.466-86.524-35.892c-3.586-39.22,46.785-48.543,69.052-40.493c16.034,5.798,27.632,18.941,30.276,39.59
	C490.274,497.575,484.559,508.18,474.933,514.57z"/>
</svg>
