<?xml version="1.0" encoding="utf-8"?>
<!-- Generator: Adobe Illustrator 16.0.0, SVG Export Plug-In . SVG Version: 6.00 Build 0)  -->
<!DOCTYPE svg PUBLIC "-//W3C//DTD SVG 1.1//EN" "http://www.w3.org/Graphics/SVG/1.1/DTD/svg11.dtd">
<svg version="1.1" id="Layer_1" xmlns="http://www.w3.org/2000/svg" xmlns:xlink="http://www.w3.org/1999/xlink" x="0px" y="0px"
	 width="612px" height="612px" viewBox="0 90 612 612" enable-background="new 0 90 612 612" xml:space="preserve">
<path fill="none" stroke="#000000" stroke-width="2" d="M103.313,566.339c2.268,0.957,4.46,5.07,1.655,6.745
	c-2.954,1.765-7.839,0.848-11.13,0.848c0,5.144,3.137,33.997-3.796,33.38c-7.359-0.658-3.859-27.731-3.859-33.38
	c-3.229,0-6.582,0.429-9.741-0.478c-3.733-1.073-3.626-5.985,0.204-7.052C85.413,565.882,94.587,565.795,103.313,566.339z"/>
<path fill="none" stroke="#000000" stroke-width="2" d="M124.773,596.52c4.799-1.2,6.508,3.795,2.98,6.637
	c-3.694,2.974-10.366,4.43-14.996,3.592c-10.125-1.846-13.188-14.066-9.318-22.401c4.11-8.46,21.632-12.527,24.597-1.066
	c2.563,9.944-10.932,12.02-17.443,14.118C114.35,601.69,120.765,598.768,124.773,596.52z"/>
<path fill="none" stroke="#000000" stroke-width="2" d="M112.098,585.728c-2.09,1.181-2.813,3.188-3.137,5.459
	c2.067-0.635,11.859-2.148,11.859-5.271C120.82,581.95,113.897,584.599,112.098,585.728z"/>
<path fill="none" stroke="#000000" stroke-width="2" d="M136.256,585.571c0.419-2.768-3.63-3.396-1.914-6.714
	c1.301-2.514,4.202-2.29,6.313-1.223c4.004,2.023,9.312-4.584,15.24-0.566c2.501,1.61,4.191,5.925,0.752,7.75
	c-2.463,1.309-3.912-0.889-5.835-1.852c-5.393-1.342-6.964,4.514-6.964,8.164c0,3.691,0,7.383,0,11.074
	c0,5.469-7.655,6.794-7.655,1.092C134.741,599.089,135.571,589.998,136.256,585.571
	C136.297,585.299,136.213,585.844,136.256,585.571z"/>
<path fill="none" stroke="#000000" stroke-width="2" d="M164.113,585.571c0.42-2.768-3.63-3.396-1.914-6.714
	c1.301-2.514,4.202-2.29,6.313-1.223c4.004,2.023,9.312-4.584,15.24-0.566c2.501,1.61,4.191,5.925,0.753,7.75
	c-2.463,1.309-3.912-0.889-5.835-1.852c-5.393-1.342-6.965,4.514-6.965,8.164c0,3.691,0,7.383,0,11.074
	c0,5.469-7.655,6.794-7.655,1.092C162.599,599.089,163.429,589.998,164.113,585.571
	C164.155,585.299,164.071,585.844,164.113,585.571z"/>
<path fill="none" stroke="#000000" stroke-width="2" d="M211.988,602.168c1.346,4.883-4.776,6.043-7.279,2.51
	c-3.623,2.717-8.674,3.16-12.925,1.725c-10.185-3.437-8.45-16.809-2.824-23.561c5.231-6.394,20.016-11.438,20.016,0.627
	C208.977,590.624,208.876,595.787,211.988,602.168z"/>
<path fill="none" stroke="#000000" stroke-width="2" d="M198.687,599.344c4.993-3.173,2.3-9.928,2.51-15.562
	C191.94,585.431,189.596,602.979,198.687,599.344C199.146,599.051,198.059,599.595,198.687,599.344z"/>
<path fill="none" stroke="#000000" stroke-width="2" d="M216.944,579.139c0.473-1.626,1.667-2.991,3.482-3.199
	c1.626-0.122,2.85,0.525,3.671,1.945c0.934-0.534,1.917-0.953,2.949-1.256c5.464-1.45,10.692,0.88,13.546,5.714
	c7.354,12.457-2.928,24.425-16.056,23.464c0,4.196,0.249,8.4-0.282,12.581c-0.614,4.761-7.373,3.913-7.373-0.757
	c0-3.607,0-7.215,0-10.822C216.882,597.627,216.417,588.302,216.944,579.139z"/>
<path fill="none" stroke="#000000" stroke-width="2" d="M224.976,587.297c-0.743,1.24-1.441,9.882-0.439,10.854
	C241.333,600.672,234.135,576.609,224.976,587.297C224.85,587.507,225.478,586.711,224.976,587.297z"/>
<path fill="none" stroke="#000000" stroke-width="2" d="M270.968,596.52c4.799-1.2,6.508,3.795,2.98,6.637
	c-3.694,2.974-10.367,4.43-14.996,3.592c-10.125-1.846-13.188-14.066-9.318-22.401c4.109-8.46,21.632-12.527,24.596-1.066
	c2.564,9.944-10.932,12.02-17.443,14.118C260.545,601.69,266.96,598.768,270.968,596.52z"/>
<path fill="none" stroke="#000000" stroke-width="2" d="M258.293,585.728c-2.09,1.181-2.813,3.188-3.137,5.459
	c2.067-0.635,11.859-2.148,11.859-5.271C267.015,581.95,260.092,584.599,258.293,585.728z"/>
<path fill="none" stroke="#000000" stroke-width="2" d="M304.474,603.297c-0.351,2.922-4.474,5.654-6.682,2.682
	c-1.765-2.375-0.973-5.867-0.973-8.58c0-4.879,2.571-19.38-6.463-12.361c-3.885,3.159-2.949,7.81-2.949,12.263
	c0,2.569,0.638,5.625-0.752,7.942c-2.017,3.361-6.184,0.94-6.714-1.977c-1.342-7.382-0.188-15.888-0.188-23.372
	c0-4.042,5.22-4.569,7.09-1.694c3.887-2.527,9.529-3.535,13.647-0.926C307.109,581.468,304.474,596.626,304.474,603.297z"/>
<path fill="none" stroke="#000000" stroke-width="2" d="M333.211,596.52c4.802-1.201,6.507,3.796,2.98,6.637
	c-3.694,2.974-10.367,4.43-14.997,3.592c-10.125-1.845-13.188-14.066-9.317-22.401c4.106-8.458,21.637-12.529,24.596-1.066
	c2.566,9.944-10.933,12.02-17.443,14.118C322.788,601.69,329.203,598.767,333.211,596.52z"/>
<path fill="none" stroke="#000000" stroke-width="2" d="M320.536,585.728c-2.089,1.181-2.813,3.188-3.138,5.459
	c2.067-0.634,11.859-2.148,11.859-5.271C329.258,581.949,322.334,584.6,320.536,585.728z"/>
<path fill="none" stroke="#000000" stroke-width="2" d="M382.215,597.085c5.436-3.479,8.27,3.922,3.356,7.278
	c-6.189,4.221-14.746,2.829-18.521-3.917c-4.697-8.394,0.006-25.542,11.524-25.439c3.826,0.034,10.931,1.788,11.42,6.518
	c1.031,8.243-8.159,0.882-10.164,1.13C368.208,581.558,372.743,607.113,382.215,597.085z"/>
<path fill="none" stroke="#000000" stroke-width="2" d="M419.611,602.168c1.345,4.882-4.777,6.044-7.279,2.51
	c-3.623,2.716-8.674,3.161-12.926,1.725c-10.186-3.438-8.451-16.808-2.823-23.561c5.231-6.395,20.016-11.438,20.016,0.627
	C416.599,590.624,416.498,595.787,419.611,602.168z"/>
<path fill="none" stroke="#000000" stroke-width="2" d="M406.308,599.344c4.994-3.172,2.3-9.929,2.511-15.562
	C399.56,585.431,397.224,602.98,406.308,599.344C406.769,599.051,405.682,599.595,406.308,599.344z"/>
<path fill="none" stroke="#000000" stroke-width="2" d="M424.944,585.571c0.42-2.768-3.631-3.395-1.914-6.714
	c1.301-2.514,4.202-2.29,6.313-1.223c4.004,2.023,9.312-4.585,15.239-0.566c2.501,1.61,4.19,5.924,0.753,7.75
	c-2.464,1.308-3.912-0.888-5.836-1.852c-5.393-1.343-6.965,4.515-6.965,8.164c0,3.691,0,7.383,0,11.074
	c0,5.469-7.654,6.794-7.654,1.092C423.432,599.094,424.256,589.993,424.944,585.571
	C424.985,585.299,424.901,585.844,424.944,585.571z"/>
<path fill="none" stroke="#000000" stroke-width="2" d="M447.407,589.932c1.849-7.689,8.756-15.083,17.341-13.247
	c8.159,1.746,10.679,10.798,9.138,18.078c-1.517,7.13-9.245,15.387-17.196,13.197C448.648,605.748,445.842,597.348,447.407,589.932z
	"/>
<path fill="none" stroke="#000000" stroke-width="2" d="M454.936,591.249c-1.812,9.663,7.957,11.983,11.169,2.84
	C469.741,583.737,458.042,581.031,454.936,591.249C454.811,591.919,455.229,590.288,454.936,591.249z"/>
<path fill="none" stroke="#000000" stroke-width="2" d="M486.685,601.038c5.286,4.805-2.215,8.811-6.683,4.674
	c-1.746-1.618-1.475-3.499-1.475-5.594c0-7.955,0-15.91,0-23.865c0-2.854-1.091-16.732,6.212-11.263
	c3.664,2.752,1.507,15.244,1.507,19.264C486.246,588.419,484.552,597.744,486.685,601.038z"/>
<path fill="none" stroke="#000000" stroke-width="2" d="M493.399,567.469c0.595-5.516,8.417-5.958,8.597-0.125
	C502.34,573.23,493.664,573.355,493.399,567.469z"/>
<path fill="none" stroke="#000000" stroke-width="2" d="M501.682,603.171c-0.331,3.29-4.396,5.432-6.714,2.447
	c-1.391-1.737-1.004-4.229-1.004-6.274c-0.106-6.226-1.561-14.781-0.063-20.769c0.779-2.809,4.633-4.679,6.651-1.82
	c1.584,1.983,1.004,5.271,1.004,7.593C501.557,590.623,501.682,596.896,501.682,603.171z"/>
<path fill="none" stroke="#000000" stroke-width="2" d="M533.682,603.297c-0.35,2.922-4.475,5.655-6.683,2.682
	c-1.764-2.375-0.972-5.866-0.972-8.58c0-4.879,2.57-19.38-6.464-12.361c-3.886,3.161-2.948,7.809-2.948,12.263
	c0,2.569,0.637,5.624-0.753,7.942c-2.017,3.361-6.184,0.94-6.715-1.977c-1.342-7.382-0.188-15.888-0.188-23.372
	c0-4.042,5.22-4.569,7.091-1.694c3.887-2.527,9.529-3.535,13.647-0.926C536.317,581.469,533.682,596.626,533.682,603.297z"/>
<path fill="none" stroke="#000000" stroke-width="2" d="M566.185,602.168c1.345,4.882-4.777,6.044-7.279,2.51
	c-3.623,2.716-8.674,3.161-12.926,1.725c-10.186-3.438-8.451-16.808-2.823-23.561c5.231-6.395,20.016-11.438,20.016,0.627
	C563.172,590.624,563.072,595.787,566.185,602.168z"/>
<path fill="none" stroke="#000000" stroke-width="2" d="M552.882,599.344c4.993-3.172,2.3-9.929,2.51-15.562
	C546.133,585.431,543.797,602.98,552.882,599.344C553.342,599.051,552.255,599.595,552.882,599.344z"/>
<path fill="none" stroke="#000000" stroke-width="2" d="M215.674,659.471c2.124,4.097-2.441,5.772-5.159,3.247
	c-3.211-2.983-4.941-8.082-5.865-12.206c-1.607-7.174-1.009-24.856,7.752-28.124c5.883-2.189,1.67,6.213,0.824,7.529
	c-1.865,3.303-2.89,6.21-3.341,10.048C209.088,646.743,210.052,654.906,215.674,659.471z"/>
<path fill="none" stroke="#000000" stroke-width="2" d="M229.416,657.259c-5.58,0.19-8.707-0.152-8.707-5.321
	c0-3.983,0-7.967,0-11.949c0-3.983,0-7.966,0-11.949c0-3.31,4.835-4.025,5.647-0.663c0.693,3.13,0.473,6.377,0.33,9.554
	C242.036,628.385,246.78,656.727,229.416,657.259C228.505,657.289,230.45,657.227,229.416,657.259z"/>
<path fill="none" stroke="#000000" stroke-width="2" d="M226.45,645.211c0,1.007-0.626,4.987,0,5.647
	c2.077,2.087,6.179,0.01,7.718-1.646C237.012,641.631,231.097,638.425,226.45,645.211z"/>
<path fill="none" stroke="#000000" stroke-width="2" d="M243.674,644.788c3.521-14.604,23.127-11.817,19.859,3.623
	C260.444,662.921,240.026,659.844,243.674,644.788z"/>
<path fill="none" stroke="#000000" stroke-width="2" d="M249.321,645.776c-1.358,7.247,5.968,8.987,8.376,2.129
	C260.424,640.143,251.648,638.112,249.321,645.776C249.227,646.278,249.54,645.055,249.321,645.776z"/>
<path fill="none" stroke="#000000" stroke-width="2" d="M281.792,634.529c3.624-2.355,6.341,2.072,3.293,4.8
	c-1.974,1.767-3.769,3.739-5.553,5.694c1.456,1.691,2.861,3.433,4.153,5.253c1.407,1.982,4.856,6.125,0.93,7.759
	c-3.562,1.484-7.059-6.407-8.848-8.588c-1.823,2.22-5.275,10.064-9.106,8.095c-3.425-1.763,0.527-6.413,1.788-8.095
	c2.133-2.843,4.355-3.441,1.788-6.212c-1.72-1.846-7.322-5.707-4-8.494c3.135-2.635,7.934,4.086,9.53,5.905
	C277.656,638.499,279.693,636.465,281.792,634.529z"/>
<path fill="none" stroke="#000000" stroke-width="2" d="M311.345,640.364c-5.29-1.319-1.622-5.694,2.117-5.694
	c0-2.373-1.224-9.507,2.942-9.295c4.307,0.22,2.799,6.866,2.799,9.295c2.48-0.345,6.725-0.215,6.188,3.435
	c-0.396,2.688-4.412,2.307-6.188,2.307c0,3.451-0.062,6.901,0,10.353c0,1.773,0.75,4.51-0.847,5.906
	c-1.486,1.3-4.227,0.605-4.636-1.389C313.062,652.106,315.431,639.352,311.345,640.364z"/>
<path fill="none" stroke="#000000" stroke-width="2" d="M348.521,652.364c2.791,4.03-2.898,5.732-5.459,2.071
	c-3.882,3.185-9.313,3.382-12.671-0.688c-3.175-3.848-2.622-9.198-2.341-13.854c0.188-2.514,1.771-7.748,5.2-4.023
	c2.516,2.741-0.426,9.802,1.082,13.389c1.137,2.708,3.981,2.03,5.577,0.329c2.093-2.402,0.993-5.104,1.082-8.188
	c0-2.704,3.928-10.562,5.882-4.705C348.57,641.787,344.949,647.323,348.521,652.364
	C348.804,652.771,347.987,651.611,348.521,652.364z"/>
<path fill="none" stroke="#000000" stroke-width="2" d="M353.649,641.518c0.187-1.225-4.362-8.302,2.095-6.424
	c3.796,1.105,3.369-0.574,7.271-1.2c2.456-0.395,6.774,0.791,7.294,3.741c1.193,5.977-10.964-1.387-10.964,7.132
	c0,2.921,0,5.842,0,8.763c0,3.979-5.742,6.162-5.742,1.282C352.376,652.056,353.181,644.544,353.649,641.518
	C353.681,641.313,353.618,641.722,353.649,641.518z"/>
<path fill="none" stroke="#000000" stroke-width="2" d="M375.484,640.364c-5.29-1.319-1.622-5.694,2.118-5.694
	c0-2.372-1.224-9.507,2.94-9.295c4.308,0.22,2.801,6.865,2.801,9.295c2.481-0.345,6.72-0.215,6.188,3.435
	c-0.397,2.688-4.41,2.307-6.188,2.307c0,3.45-0.064,6.901,0,10.353c0,1.773,0.75,4.51-0.848,5.906
	c-1.486,1.3-4.227,0.605-4.635-1.389C377.206,652.105,379.568,639.353,375.484,640.364z"/>
<path fill="none" stroke="#000000" stroke-width="2" d="M399.344,653.117c4.964,4.517-6.118,7.484-6.118-0.088
	c0-6.372,0-12.744,0-19.115c0-1.881,0-3.762,0-5.642c0-3.608,5.741-3.683,5.741-0.38
	C398.967,635.448,397.166,646.265,399.344,653.117z"/>
<path fill="none" stroke="#000000" stroke-width="2" d="M420.756,649.729c4.441-1.11,4.524,3.901,1.271,5.6
	c-3.009,1.568-6.875,2.689-10.282,2.07c-7.082-1.286-9.473-9.281-7.53-15.399c1.848-5.821,11.297-10.089,16.488-6.006
	c9.756,7.674-5.579,12.783-10.583,14.395C412.897,653.561,417.873,651.499,420.756,649.729z"/>
<path fill="none" stroke="#000000" stroke-width="2" d="M411.25,641.635c-1.637,0.924-2.11,2.394-2.354,4.094
	c1.685-0.52,9.764-1.691,8.777-4.683C416.978,638.976,412.413,640.854,411.25,641.635z"/>
<path fill="none" stroke="#000000" stroke-width="2" d="M426.168,658.858c5.691-5.691,6.488-14.797,4.671-22.371
	c-0.885-3.684-2.887-6.616-4.977-9.7c-2.952-4.333,3.573-5.004,6.023-1.329c5.561,8.34,7.024,18.315,3.93,27.941
	c-1.098,3.292-3.606,10.635-8.094,10.635C424.604,664.035,424.48,660.616,426.168,658.858z"/>
<path fill="none" stroke="#1D1D1B" stroke-width="2" stroke-miterlimit="10" d="M357.055,490.658
	c4.397-1.521,8.664-3.411,12.739-5.655c-0.692-3.318-2.074-6.496-4.054-9.255c-0.574-0.797-1.291-1.62-2.266-1.763
	c-0.644-0.095-1.289,0.132-1.872,0.416c-3.688,1.802-5.699,6.095-5.697,10.2C355.908,486.677,356.345,488.705,357.055,490.658z"/>
<path fill="none" stroke="#1D1D1B" stroke-width="2" stroke-miterlimit="10" d="M333.646,495.215
	c4.584-0.231,9.148-0.838,13.635-1.813c-0.482-4.07-2.001-8.018-4.395-11.347c-0.574-0.799-1.293-1.623-2.269-1.764
	c-0.64-0.095-1.286,0.13-1.873,0.416c-3.687,1.801-5.695,6.094-5.692,10.199C333.053,492.368,333.271,493.81,333.646,495.215z"/>
<path fill="none" stroke="#000000" stroke-width="2" d="M535.18,162.791c-4.292-1.917-10.729-0.643-15.337-0.567
	c-5.415,0.089-10.828,0.202-16.244,0.223c-12.383,0.049-24.769-0.045-37.151-0.192c-22.8-0.269-45.525-0.649-68.312,0.507
	c-10.969,0.557-19.229,5.745-22.381,16.935c-2.866,10.2,2.781,17.359,12.041,20.608c17.509,6.144,36.943,3.399,55.077,3.399
	c0,34.188-0.056,68.377,0.027,102.565c0.021,8.757,0.056,17.514,0.103,26.27c12.751-4.229,26.523-5.17,39.202-1.204
	c0.765,0.239,1.526,0.493,2.288,0.753c0.058-9.049,0.091-18.099,0.076-27.148c-0.054-33.746-0.445-67.49-0.445-101.236
	c17.949,0,40.99,3.844,57.949-3.531C559.626,192.538,548.455,168.396,535.18,162.791z"/>
<path fill="none" stroke="#1D1D1B" stroke-width="2" stroke-miterlimit="10" d="M419.231,421.768
	c-5.802-1.894-10.984-5.278-14.105-10.09c-12.406-19.107,5.421-50.6,28.997-44.433c13.561,3.547,21.778,14.922,22.829,28.663
	c0.904,11.826-7.61,24.173-19.283,26.856C431.923,424.085,425.246,423.728,419.231,421.768z"/>
<path fill="none" stroke="#1D1D1B" stroke-width="2" stroke-miterlimit="10" d="M439.403,384.946
	c3.484,4.114,4.753,9.998,3.277,15.183c-1.478,5.185-5.657,9.515-10.785,11.176c-9.556,3.097-24.142,0.325-27.048-10.787
	c-2.199-8.406,2.776-18.993,10.691-22.294C423.903,374.734,433.742,378.258,439.403,384.946z"/>
<path fill="none" stroke="#1D1D1B" stroke-width="2" stroke-miterlimit="10" d="M424.341,393.3
	c-1.848,2.263-5.105,3.243-7.911,2.425c-2.804-0.819-5.012-3.362-5.478-6.249c-0.469-2.882,0.802-5.968,3.128-7.735
	C420.786,376.654,429.374,387.128,424.341,393.3z"/>
<path fill="none" stroke="#1D1D1B" stroke-width="2" stroke-miterlimit="10" d="M489.077,404.438
	c-4.97-1.62-9.408-4.521-12.084-8.643c-10.623-16.364,4.643-43.337,24.838-38.055c11.615,3.038,18.652,12.78,19.553,24.55
	c0.773,10.128-6.518,20.704-16.517,23.002C499.946,406.422,494.227,406.115,489.077,404.438z"/>
<path fill="none" stroke="#1D1D1B" stroke-width="2" stroke-miterlimit="10" d="M506.354,372.9
	c2.983,3.523,4.069,8.564,2.807,13.004c-1.265,4.44-4.845,8.149-9.238,9.572c-8.185,2.651-20.675,0.278-23.166-9.24
	c-1.883-7.199,2.38-16.267,9.158-19.094C493.078,364.155,501.505,367.174,506.354,372.9z"/>
<path fill="none" stroke="#1D1D1B" stroke-width="2" stroke-miterlimit="10" d="M493.453,380.055
	c-1.583,1.938-4.373,2.779-6.776,2.077c-2.401-0.701-4.294-2.88-4.69-5.351c-0.401-2.47,0.685-5.112,2.679-6.625
	C490.406,365.798,497.764,374.771,493.453,380.055z"/>
<path fill="none" stroke="#1D1D1B" stroke-width="2" stroke-miterlimit="10" d="M530.552,426.459
	c-1.862,1.309-4.094,2.059-6.12,3.104c-2.061,1.062-4.049,2.257-5.939,3.598c-3.935,2.792-7.295,6.227-10.346,9.944
	c-3.019,3.682-5.837,7.561-9.322,10.825c-2.972,2.784-6.351,5.164-9.983,7.002c-14.792,7.487-33.484,7.116-46.954-3.069
	c-7.724-5.839-14.318-14.098-23.993-16.694c-0.973-0.261-0.558-1.686,0.412-1.493c8.386,1.651,15.076,7.063,22.015,11.659
	c3.356,2.225,6.85,4.415,10.626,5.856c3.603,1.378,7.315,2.291,11.135,2.805c7.722,1.035,15.817-0.006,23.047-2.884
	c3.527-1.405,6.952-3.37,9.931-5.727c3.684-2.917,6.717-6.542,9.864-10.005c3.484-3.833,7.227-7.306,11.63-10.063
	c2.18-1.365,4.464-2.542,6.825-3.557c2.184-0.935,4.621-1.931,7.019-1.88C530.718,425.889,530.797,426.287,530.552,426.459
	L530.552,426.459z"/>
<path fill="none" stroke="#1D1D1B" stroke-width="2" stroke-miterlimit="10" d="M464.304,429.901
	c0.752,0.218,1.338,0.694,1.671,1.408c0.391,0.831,0.323,1.556,0.2,2.437c-0.12,0.887-1.308,1.206-1.985,0.808
	c-0.752-0.44-0.462-3.123-0.654-3.335C463.029,430.654,463.513,429.67,464.304,429.901L464.304,429.901z"/>
<path fill="none" stroke="#1D1D1B" stroke-width="2" stroke-miterlimit="10" d="M489.629,429.429
	c0.12,0.868-0.114,1.658-0.933,2.096c-0.65,0.346-1.458,0.333-2.106-0.017c-0.671-0.358-1.055-1.017-1.092-1.771
	c-0.019-0.386,0.064-0.765,0.206-1.118C485.954,427.991,489.524,428.67,489.629,429.429z"/>
<path fill="none" stroke="#1D1D1B" stroke-width="2" stroke-miterlimit="10" d="M219.616,459.154
	c-1.23,5.346-3.069,10.595-5.258,15.579c-5.921,13.479-14.278,25.769-20.442,39.139c-2.211,4.798-4.053,10.729-1.061,15.084
	c1.457,2.124,3.812,3.421,6.124,4.556c5.372,2.645,10.976,4.801,16.726,6.454c5.459,1.572,11.048,2.696,16.693,3.355
	c4.165,0.491,8.356,0.73,12.544,0.717c5.76-0.016,11.517-0.515,17.189-1.502c1.457-0.25,2.911-0.534,4.357-0.854
	c1.601-0.353,3.28-0.788,4.437-1.948c1.616-1.617,1.77-4.144,1.823-6.428c0.565-23.794,0.876-48.568-3.926-71.67
	C252.39,461.827,235.947,460.994,219.616,459.154z"/>
<path fill="none" stroke="#1D1D1B" stroke-width="2" stroke-miterlimit="10" d="M244.942,544.038
	c5.76-0.016,11.517-0.514,17.189-1.501c0.522-4.166,0.184-8.44-1.028-12.463c-0.352-1.166-0.859-2.42-1.944-2.976
	c-0.715-0.37-1.562-0.365-2.358-0.269c-5.042,0.629-9.122,4.848-10.769,9.655C245.2,538.916,244.898,541.466,244.942,544.038z"/>
<path fill="none" stroke="#1D1D1B" stroke-width="2" stroke-miterlimit="10" d="M215.705,539.966
	c5.459,1.572,11.048,2.696,16.693,3.355c1.07-4.96,0.877-10.191-0.586-15.052c-0.351-1.164-0.862-2.418-1.947-2.974
	c-0.713-0.37-1.56-0.368-2.359-0.269c-5.042,0.627-9.119,4.848-10.765,9.655C216.152,536.394,215.829,538.17,215.705,539.966z"/>
<path fill="none" stroke="#1D1D1B" stroke-width="2" stroke-miterlimit="10" d="M107.238,506.295
	c3.374,0.739,6.802,1.223,10.249,1.442h0.002l0.835-0.162c1.479-4.231,1.577-8.935,0.286-13.224
	c-0.25-0.832-0.613-1.723-1.382-2.119c-0.511-0.261-1.111-0.257-1.68-0.189c-3.587,0.448-6.489,3.451-7.662,6.87
	C107.079,501.275,106.97,503.798,107.238,506.295z"/>
<path fill="none" stroke="#1D1D1B" stroke-width="2" stroke-miterlimit="10" d="M87.062,497.582
	c1.653,1.674,3.804,2.854,5.946,3.866c1.703,0.805,3.443,1.538,5.21,2.192c0.721-3.487,0.576-7.159-0.451-10.574
	c-0.25-0.83-0.613-1.72-1.386-2.117c-0.508-0.26-1.11-0.257-1.676-0.188C91.136,491.205,88.243,494.185,87.062,497.582z"/>
<path fill="none" stroke="#1D1D1B" stroke-width="2" stroke-miterlimit="10" d="M482.205,331.335
	c18.764,5.872,36.859,18.106,43.605,36.573c4.332,11.861,3.73,25.468,10.192,36.315c2.002,3.361,4.652,6.389,5.944,10.082
	c2.214,6.334,0.013,13.36-3.06,19.326c-8.358,16.228-23.128,28.662-39.819,36.047c-16.693,7.386-35.222,9.978-53.471,9.575
	c-21.05-0.466-44.179-6.227-55.883-23.729c-6.794-10.159-8.682-22.88-8.39-35.1c0.35-14.821,9.219-28.26,14.338-41.713
	c4.579-12.033,9.761-21.792,19.68-30.436C432.91,332.97,459.339,324.181,482.205,331.335z"/>
<path fill="none" stroke="#1D1D1B" stroke-width="2" stroke-miterlimit="10" d="M242.357,312.274
	c-6.564,3.165-14.277,2.202-21.491,1.168c-18.067-2.589-36.135-5.179-54.202-7.77c-1.996-0.286-4.09-0.612-5.684-1.848
	c-1.658-1.286-2.499-3.347-3.119-5.352c-3.31-10.694-3.115-23.744-11.909-30.671c4.335-9.27,13.196-15.8,22.737-19.502
	c9.54-3.703,19.832-4.916,29.997-6.098c20.459-2.379,56.757-8.958,69.316,13.329C278.044,273.354,258.731,304.378,242.357,312.274z"
	/>
<path fill="none" stroke="#1D1D1B" stroke-width="2" stroke-miterlimit="10" d="M148.927,316.094
	c-0.352,3.543-1.359,6.984-2.362,10.401c-6.195,21.118-12.389,42.237-18.583,63.355c-1.183,4.035-2.681,8.475-6.376,10.484
	c-4.685,2.547-10.599-0.148-14.394-3.894c-8.432-8.322-10.924-20.92-11.433-32.756c-1.035-24.022,4.5-48.295,15.85-69.493
	c5.896-11.013,12.95-23.387,24.356-11.345C143.864,291.165,150.074,304.522,148.927,316.094z"/>
<path fill="none" stroke="#1D1D1B" stroke-width="2" stroke-miterlimit="10" d="M184.89,320.981
	c-5.525-0.365-11.22-0.692-16.461,1.093c-9.683,3.298-15.683,13.062-18.858,22.785c-3.06,9.37-4.246,19.231-5.415,29.018
	c-0.958,8.017-1.917,16.035-2.875,24.054c-0.447,3.744-0.883,7.631,0.283,11.218c0.972,2.988,2.988,5.526,5.204,7.755
	c15.57,15.646,39.939,17.268,62.002,17.939c10.859,0.331,23.209,0.061,30.479-8.015c3.583-3.979,5.291-9.271,6.599-14.463
	c4.993-19.824,8.758-50.87-0.529-70.271C236.013,322.656,203.066,322.178,184.89,320.981z"/>
<path fill="none" stroke="#1D1D1B" stroke-width="2" stroke-miterlimit="10" d="M133.276,439.532
	c-8.961-3.256-17.663-7.216-25.252-12.929c-1.666-1.254-3.254-2.661-4.727-4.184c-14.892,17.957-22.597,41.963-20.012,65.204
	c0.337,3.022,0.88,6.148,2.647,8.624c0.343,0.477,0.722,0.922,1.13,1.334c1.653,1.674,3.804,2.854,5.946,3.867
	c1.703,0.805,3.443,1.537,5.21,2.191c2.938,1.098,5.955,1.98,9.02,2.654c3.374,0.739,6.802,1.223,10.249,1.442h0.002
	c5.529,0.353,11.092,0.034,16.537-0.983c2.128-0.396,4.441-1.036,5.628-2.846c0.785-1.194,0.92-2.693,0.944-4.123
	c0.246-14.272-8.241-27.327-9.702-41.527C130.246,451.938,131.127,445.509,133.276,439.532z"/>
<path fill="none" stroke="#1D1D1B" stroke-width="2" stroke-miterlimit="10" d="M92.849,379.778
	c2.564-0.618,4.089-0.351,5.332,0.388c-1.02-3.642-1.651-7.442-2.028-11.24c-4.071-1.896-8.217-3.654-12.158-5.804
	c-6.492-3.542-12.654-8.476-15.404-15.34c-3.796,10.102-0.157,21.792,6.531,30.262c2.672,3.386,5.772,6.356,9.109,9.073
	C84.799,383.805,87.311,381.113,92.849,379.778z"/>
<path fill="none" stroke="#1D1D1B" stroke-width="2" stroke-miterlimit="10" d="M364.618,443.979
	c3.611,0.69,7.217,1.406,10.82,2.081c3.422,0.641,6.731,1.016,9.997,1.251c-3.332-8.396-4.328-17.778-4.11-26.885
	c0.097-4.097,0.858-8.086,1.998-12.001c-4.721,2.283-9.773,3.927-14.844,5.323c-4.756,1.31-9.634,2.438-14.534,2.831
	c-0.009-0.415-0.019-0.827-0.03-1.235c-0.001-0.055-0.004-0.109-0.005-0.164c-0.011-0.372-0.023-0.742-0.037-1.108
	c-0.002-0.037-0.004-0.072-0.005-0.108c-0.044-1.093-0.108-2.162-0.203-3.214c-0.011-0.117-0.019-0.235-0.03-0.353
	c-0.023-0.238-0.051-0.475-0.078-0.712c-0.02-0.176-0.038-0.353-0.061-0.528c-0.027-0.218-0.06-0.436-0.09-0.653
	c-0.027-0.19-0.055-0.382-0.085-0.572c-0.033-0.21-0.071-0.419-0.108-0.629c-0.035-0.195-0.07-0.392-0.108-0.587
	c-0.04-0.204-0.084-0.407-0.128-0.611c-0.044-0.2-0.089-0.4-0.137-0.6s-0.099-0.397-0.15-0.596c-0.054-0.204-0.11-0.409-0.168-0.613
	c-0.056-0.193-0.112-0.387-0.173-0.58c-0.064-0.209-0.134-0.419-0.205-0.628c-0.063-0.188-0.127-0.377-0.195-0.565
	c-0.078-0.217-0.163-0.434-0.248-0.65c-0.071-0.182-0.141-0.363-0.217-0.545c-0.097-0.23-0.201-0.461-0.305-0.691
	c-0.076-0.168-0.148-0.337-0.229-0.506c-0.124-0.261-0.26-0.522-0.395-0.784c-0.072-0.14-0.14-0.279-0.215-0.42
	c-0.217-0.403-0.445-0.807-0.689-1.213c-0.296-0.492-0.607-0.973-0.931-1.445c-0.002-0.002-0.003-0.005-0.005-0.008
	c-0.006-0.008-0.013-0.016-0.018-0.024c-0.022-0.033-0.048-0.064-0.071-0.098c-0.273-0.396-0.553-0.788-0.845-1.17
	c0.003-0.062,0.008-0.125,0.011-0.188c0.008-0.006,0.015-0.014,0.021-0.021c1.563-1.341,2.628-3.159,3.454-5.059
	c0.119-0.273,0.233-0.547,0.343-0.822c7.23-18.115-0.796-38.379-8.728-56.199c-4.543-10.208-9.718-26.586-18.551-37.611
	c-4.214-5.26-9.261-9.301-15.469-10.872c-0.6-0.151-1.196-0.275-1.792-0.383c-11.068-11.137-24.16-20.293-38.385-26.917
	c-0.214-0.46-0.433-0.919-0.684-1.364c-12.559-22.287-48.857-15.708-69.316-13.329c-10.165,1.182-20.458,2.395-29.997,6.098
	c-9.541,3.702-18.402,10.232-22.737,19.502c0.274,0.216,0.515,0.455,0.772,0.683c-4.784,3.621-9.28,7.607-13.423,11.919
	c-9.854-7.59-16.254,3.665-21.673,13.787c-11.349,21.198-16.885,45.471-15.85,69.493c0.236,5.5,0.912,11.159,2.402,16.482
	c-1.242-0.739-2.768-1.006-5.332-0.388c-16.183,3.9-6.542,19.382,1.972,28.073c1.774,7.262,6.967,14.059,13.203,18.752
	c9.948,7.487,21.805,11.969,33.653,15.793c41.646,13.444,85.515,19.969,129.271,19.227c9.802-0.165,19.855-0.751,28.832-4.695
	c1.289-0.566,2.562-1.259,3.809-2.053c0.271,0.11,0.544,0.212,0.816,0.316c0.129,0.049,0.256,0.101,0.385,0.148
	c0.384,0.144,0.77,0.277,1.158,0.408c0.07,0.023,0.141,0.051,0.211,0.074c0.037,0.013,0.075,0.024,0.112,0.036
	c0.401,0.132,0.805,0.253,1.208,0.37c0.055,0.016,0.109,0.034,0.164,0.05c0.027,0.008,0.054,0.016,0.081,0.023
	c2.055,0.58,4.142,0.975,6.229,1.14c-1.321,7.842-2.991,15.64-3.796,23.55c-0.432,4.246-0.283,9.261,3.144,11.804
	c1.67,1.239,3.812,1.614,5.876,1.874c4.798,0.613,9.645,0.789,14.472,0.546c4.583-0.231,9.148-0.838,13.635-1.813
	c3.31-0.718,6.575-1.634,9.773-2.743c4.397-1.521,8.664-3.411,12.738-5.655c1.049-0.572,2.085-1.172,3.104-1.794
	c1.133-0.69,2.301-1.464,2.88-2.652c0.811-1.657,0.267-3.63-0.291-5.389C372.197,464.787,368.752,454.193,364.618,443.979z"/>
<path fill="none" stroke="#1D1D1B" stroke-width="2" stroke-miterlimit="10" d="M381.325,420.426
	c0.097-4.097,0.858-8.086,1.998-12.001c-4.721,2.283-9.773,3.927-14.844,5.323c-7.396,2.037-15.087,3.644-22.7,2.712
	c-2.636-0.323-5.221-0.947-7.801-1.595c-3.076-3.911-7.919-6.871-13.819-7.618c-10.069-1.274-14.971,6.143-15.438,14.357
	c-0.62,10.938,6.629,23.284,20.014,18.435c1.597,0.193,3.109,0.283,4.443,0.272c14.293-0.11,28.292,3.132,42.261,5.748
	c3.422,0.641,6.731,1.016,9.997,1.251C382.104,438.915,381.107,429.532,381.325,420.426z"/>
<path fill="none" stroke="#1D1D1B" stroke-width="2" stroke-miterlimit="10" d="M364.618,443.979
	c3.611,0.69,7.217,1.406,10.82,2.081c3.422,0.641,6.731,1.016,9.997,1.251c-3.332-8.396-4.328-17.778-4.11-26.885
	c0.097-4.097,0.858-8.086,1.998-12.001c-4.721,2.283-9.773,3.927-14.844,5.323c-4.756,1.31-9.634,2.438-14.534,2.831
	c-0.146-6.844-0.557-12.655-4.295-18.867c-0.597-0.991-1.252-1.94-1.955-2.852c0.013-0.01,0.026-0.018,0.038-0.028
	c1.836-1.537,2.989-3.732,3.877-5.955c7.23-18.115-0.796-38.379-8.728-56.199c-4.543-10.208-9.718-26.586-18.551-37.611
	c-4.214-5.26-9.261-9.301-15.469-10.872c-20.804-5.262-39.668,16.29-44.038,34.107c-2.507,10.224-2.568,20.865-2.615,31.391
	c-0.057,12.644-0.113,25.286-0.169,37.93c-0.024,5.171-0.02,10.497,1.909,15.298c1.928,4.8,6.271,9.008,11.442,9.161
	c2.367,0.071,4.6-0.68,6.768-1.685c-0.686,7.925,0.562,16.309,1.938,24.219c0.385,2.216,0.783,4.465,1.773,6.485
	c1.184,2.419,3.147,4.365,5.203,6.105c6.277,5.32,14.577,9.578,22.879,10.233c-1.321,7.842-2.991,15.641-3.796,23.551
	c-0.432,4.246-0.283,9.261,3.144,11.804c1.67,1.239,3.812,1.614,5.876,1.874c4.798,0.613,9.645,0.789,14.472,0.546
	c4.583-0.231,9.148-0.838,13.635-1.813c3.31-0.718,6.575-1.634,9.773-2.743c4.397-1.521,8.664-3.411,12.738-5.655
	c1.049-0.572,2.085-1.172,3.104-1.794c1.133-0.69,2.301-1.464,2.88-2.652c0.811-1.657,0.267-3.63-0.291-5.389
	C372.197,464.787,368.752,454.193,364.618,443.979z"/>
<path fill="none" stroke="#1D1D1B" stroke-width="2" stroke-miterlimit="10" d="M385.436,447.311
	c-3.332-8.396-4.328-17.778-4.11-26.885c0.097-4.097,0.858-8.086,1.998-12.001c-4.721,2.283-9.773,3.927-14.844,5.323
	c-4.756,1.31-9.634,2.438-14.534,2.831c-0.146-6.844-0.557-12.655-4.295-18.867c-4.517-7.506-12.239-12.738-20.572-15.445
	c-15.15-4.919-34.076-0.626-42.317,13.006c-6.958,11.507-4.969,26.095-2.664,39.343c0.385,2.216,0.783,4.465,1.773,6.485
	c1.184,2.419,3.147,4.365,5.203,6.105c9.635,8.166,24.034,13.837,35.894,7.804c5.638-2.867,13.152-8.104,18.755-14.022
	c9.982,1.071,19.857,3.225,29.717,5.071C378.86,446.7,382.17,447.075,385.436,447.311z"/>
<path fill="none" stroke="#1D1D1B" stroke-width="2" stroke-miterlimit="10" d="M381.325,420.426
	c0.097-4.097,0.858-8.086,1.998-12.001c-4.721,2.283-9.773,3.927-14.844,5.323c-7.396,2.037-15.087,3.644-22.7,2.712
	c-6.01-0.736-11.756-3.029-17.781-3.63c-6.023-0.6-12.891,1-16.094,6.135c-9.805,15.721,10.983,21.426,21.273,21.347
	c14.293-0.11,28.292,3.132,42.261,5.748c3.422,0.641,6.731,1.016,9.997,1.251C382.104,438.915,381.107,429.532,381.325,420.426z"/>
</svg>
