<?xml version="1.0" encoding="utf-8"?>
<!-- Generator: Adobe Illustrator 16.0.0, SVG Export Plug-In . SVG Version: 6.00 Build 0)  -->
<!DOCTYPE svg PUBLIC "-//W3C//DTD SVG 1.1//EN" "http://www.w3.org/Graphics/SVG/1.1/DTD/svg11.dtd">
<svg version="1.1" id="Layer_1" xmlns="http://www.w3.org/2000/svg" xmlns:xlink="http://www.w3.org/1999/xlink" x="0px" y="0px"
	 width="612px" height="612px" viewBox="0 90 612 612" enable-background="new 0 90 612 612" xml:space="preserve">
<path fill="none" stroke="#231F20" stroke-width="2" d="M155.439,569.004c3.155-10.51,8.086,2.138,8.014,6.154
	c-0.17,8.889,0.323,21.204-4.903,28.774c-5.505,7.972-20.868,8.333-25.833-0.439c-5.048-8.918-3.923-20.818-3.449-30.702
	c0-5.879,8.25-10.203,8.25-3.381c0,7.691-0.607,15.396,0.338,23.061c1.446,13.033,15.024,11.013,16.466-0.88
	C155.224,584.109,155.08,576.52,155.439,569.004z"/>
<path fill="none" stroke="#231F20" stroke-width="2" d="M171.263,586.89c0.47-3.106-5.574-5.853-0.406-8.893
	c3.853-2.175,5.546,1.338,10.144-0.879c3.749-1.802,7.915-1.772,11.429,0.608c5.633,3.624,0.906,12.336-4.193,7.235
	c-3.458-2.298-6.366,1.023-8.792,3.448c-1.848,3.357,4.063,23.556-4.971,21.708C168.705,608.935,170.63,590.99,171.263,586.89
	C171.308,586.598,171.218,587.184,171.263,586.89z"/>
<path fill="none" stroke="#231F20" stroke-width="2" d="M196.892,603.222c-4.973-14.091,17.186,4.555,16.061-4.092
	c-0.735-5.631-14.101-3.319-15.08-12.173c-1.25-11.196,10.616-13.449,18.562-10.042c6.977,3.201,1.749,9.296-4.193,7.169
	c-5.316-2.062-9.131,2.336-1.961,4.192C233.367,594.271,211.616,623.452,196.892,603.222z"/>
<path fill="none" stroke="#231F20" stroke-width="2" d="M255.386,602.478c4.008,5.796-4.167,8.236-7.844,2.976
	c-7.702,6.322-18.619,2.993-21.175-6.712c-1.361-5.166-0.33-10.664-0.33-15.908c0-5.272,7.902-8.208,8.25-1.996
	c0.189,4.858-2.813,16.847,2.976,19.611c9.423,4.102,7.199-13.45,7.405-16.535c0.27-4.054,6.16-10.509,8.351-3.956
	C255.456,587.278,250.25,595.234,255.386,602.478C255.792,603.064,254.619,601.396,255.386,602.478z"/>
<path fill="none" stroke="#231F20" stroke-width="2" d="M260.05,603.222c-4.973-14.091,17.186,4.555,16.061-4.092
	c-0.735-5.631-14.101-3.319-15.081-12.173c-1.25-11.196,10.616-13.449,18.562-10.042c6.977,3.201,1.75,9.296-4.193,7.169
	c-5.315-2.062-9.131,2.336-1.961,4.192C296.526,594.271,274.774,623.452,260.05,603.222z"/>
<path fill="none" stroke="#231F20" stroke-width="2" d="M344.174,604.776c1.529,5.55-5.197,6.445-7.844,2.705
	c-5.103,3.825-13.795,3.736-18.495-0.88c-8.257-8.1-1.056-22.752,7.202-27.492C346.708,566.669,337.671,595.078,344.174,604.776z"/>
<path fill="none" stroke="#231F20" stroke-width="2" d="M329.838,601.733c5.381-3.42,2.479-10.699,2.705-16.771
	C322.392,586.769,320.024,605.654,329.838,601.733C330.334,601.418,329.162,602.004,329.838,601.733z"/>
<path fill="none" stroke="#231F20" stroke-width="2" d="M349.923,586.89c0.471-3.106-5.573-5.853-0.406-8.893
	c3.853-2.175,5.546,1.338,10.145-0.879c3.749-1.802,7.915-1.772,11.429,0.608c5.634,3.624,0.905,12.336-4.193,7.235
	c-3.458-2.298-6.365,1.023-8.791,3.448c-1.849,3.357,4.063,23.556-4.971,21.708C347.364,608.935,349.288,590.99,349.923,586.89
	C349.967,586.598,349.876,587.184,349.923,586.89z"/>
<path fill="none" stroke="#231F20" stroke-width="2" d="M393.742,599.299c6.215-3.972,8.715,4.363,3.618,7.845
	c-6.082,4.148-14.245,3.283-18.833-2.536c-10.614-13.451,6.254-38.729,21.741-25.462c11.159,9.568-9.531,4.647-10.009,4.701
	C379.221,585.07,383.625,609.126,393.742,599.299z"/>
<path fill="none" stroke="#231F20" stroke-width="2" d="M409.837,585.232c-7.603-1.893-2.331-8.182,3.043-8.182
	c0-15.078,8.25-16.139,8.25,0c3.323-0.803,13.449,2.087,7.844,6.829c-4.623,3.818-7.817-2.302-7.854,5.14
	c-0.021,4.794-0.301,9.692,0.179,14.471c0.739,7.447-7.981,7.925-8.352,0.744C412.701,598.877,415.843,585.403,409.837,585.232z"/>
<path fill="none" stroke="#231F20" stroke-width="2" d="M430.26,591.59c5.636-23.389,37.14-13.843,27.514,8.377
	C449.996,617.924,425.487,611.209,430.26,591.59z"/>
<path fill="none" stroke="#231F20" stroke-width="2" d="M438.374,593.01c-1.413,7.556,5.509,14.608,10.888,5.512
	C456.312,586.606,442.221,580.354,438.374,593.01C438.239,593.731,438.688,591.974,438.374,593.01z"/>
<path fill="none" stroke="#231F20" stroke-width="2" d="M461.568,603.222c-4.974-14.091,17.186,4.555,16.061-4.092
	c-0.734-5.631-14.1-3.319-15.08-12.173c-1.251-11.196,10.615-13.449,18.562-10.042c6.976,3.201,1.749,9.296-4.193,7.169
	c-5.316-2.062-9.131,2.336-1.961,4.192C498.044,594.271,476.292,623.452,461.568,603.222z"/>
<path fill="none" stroke="#231F20" stroke-width="2" d="M181.06,666.534c2.86,5.519-4.15,5.604-6.746,2.181
	c-2.974-3.923-4.773-9.117-5.534-13.925c-0.423-2.676,1.972-33.352,11.113-27.866c2.772,1.731-4.653,15.019-5.071,18.588
	C173.959,652.831,175.033,661.605,181.06,666.534z"/>
<path fill="none" stroke="#231F20" stroke-width="2" d="M195.869,664.15c-12.968,0.442-9.383-8.191-9.383-18.613
	c0-3.026-1.786-12.47,0.812-14.987c6.342-6.143,5.719,9.722,5.63,11.691C209.453,633.085,214.363,663.585,195.869,664.15
	C194.888,664.184,196.985,664.116,195.869,664.15z"/>
<path fill="none" stroke="#231F20" stroke-width="2" d="M192.673,651.167c-3.109,9.921,9.154,7.892,9.054,0.48
	C201.615,643.991,195.417,646.623,192.673,651.167z"/>
<path fill="none" stroke="#231F20" stroke-width="2" d="M213.519,647.186c0.352-2.329-4.181-4.39-0.305-6.668
	c1.186-0.67,11.344-1.874,13.289-1.471c2.637,0.546,8.072,5.105,3.5,7.532c-3.174,1.687-4.252-3.155-7.836-0.559
	c-5.555,4.019,1.352,15.746-4.26,18.335C211.506,667.307,213.101,649.892,213.519,647.186
	C213.552,646.966,213.484,647.406,213.519,647.186z"/>
<path fill="none" stroke="#231F20" stroke-width="2" d="M231.675,650.71c3.686-15.284,24.926-12.746,21.404,3.905
	C249.651,670.711,227.862,666.387,231.675,650.71z"/>
<path fill="none" stroke="#231F20" stroke-width="2" d="M237.761,651.775c-1.06,5.668,4.131,10.956,8.166,4.134
	C250.998,647.342,240.654,642.248,237.761,651.775C237.66,652.316,237.998,650.998,237.761,651.775z"/>
<path fill="none" stroke="#231F20" stroke-width="2" d="M283.103,640.922c3.437-4.58,6.35,0.79,5.098,4.412
	c-1.39,4.014-2.603,8.069-4.032,12.071c-4.458,13.354-9.598,1.53-12.375-5.427c-4.015,9.787-8.166,18.123-12.375,2.917
	c-0.916-3.303-5.077-11.284-2.612-14.455c5.079-6.523,7.562,10.382,8.089,12.097c6.371-14.379,7.772-13.961,14.151,0.913
	C280.466,649.572,281.826,644.817,283.103,640.922z"/>
<path fill="none" stroke="#231F20" stroke-width="2" d="M312.417,661.514c-0.968,8.071-6.187-0.809-6.187-4.768
	c0-3.739,2.444-15.956-5.225-9.991c-3.503,2.846-0.32,19.597-6.542,17.347c-6.361-2.124-1.51-30.884,3.703-22.874
	C313.838,631.035,312.417,653.362,312.417,661.514z"/>
<path fill="none" stroke="#231F20" stroke-width="2" d="M346.095,664.15c-12.969,0.442-9.384-8.191-9.384-18.613
	c0-3.026-1.785-12.47,0.812-14.987c6.342-6.143,5.719,9.722,5.63,11.691C359.678,633.085,364.588,663.585,346.095,664.15
	C345.113,664.184,347.21,664.116,346.095,664.15z"/>
<path fill="none" stroke="#231F20" stroke-width="2" d="M342.898,651.167c-3.108,9.921,9.154,7.892,9.054,0.48
	C351.839,643.991,345.641,646.623,342.898,651.167z"/>
<path fill="none" stroke="#231F20" stroke-width="2" d="M380.633,656.036c6.491-1.626,3.124,5.623-0.812,6.999
	c-10.004,3.677-19.705-2.359-17.447-13.643c3.661-18.327,37.808-2.641,6.797,7.354C372.078,660.067,377.638,658.078,380.633,656.036
	z"/>
<path fill="none" stroke="#231F20" stroke-width="2" d="M370.388,647.312c-1.62,1-2.466,2.47-2.536,4.412
	C375.709,649.309,380.62,642.421,370.388,647.312z"/>
<path fill="none" stroke="#231F20" stroke-width="2" d="M409.542,660.601c1.483,5.382-16.652,4.418-19.754,1.369
	c-7.184-7.047,0.604-19.164,7.987-21.809C411.775,635.158,404.954,653.724,409.542,660.601z"/>
<path fill="none" stroke="#231F20" stroke-width="2" d="M398.79,658.318c4.373-2.777,1.85-7.789,2.027-12.578
	C392.767,647.173,391.557,661.217,398.79,658.318C399.162,658.082,398.283,658.521,398.79,658.318z"/>
<path fill="none" stroke="#231F20" stroke-width="2" d="M413.853,647.186c0.353-2.329-4.181-4.39-0.305-6.668
	c1.186-0.67,11.344-1.874,13.288-1.471c2.638,0.546,8.072,5.105,3.5,7.532c-3.175,1.687-4.252-3.155-7.836-0.559
	c-5.555,4.019,1.352,15.746-4.261,18.335C411.84,667.307,413.435,649.892,413.853,647.186
	C413.886,646.966,413.818,647.406,413.853,647.186z"/>
<path fill="none" stroke="#231F20" stroke-width="2" d="M432.517,665.875c6.68-6.699,7.411-18.233,4.21-26.83
	c-1.09-2.935-4.84-6.081-5.021-9.23c-0.134-3.475,4.3-4.557,5.884-1.521c7.815,11.023,9.162,24.108,3.373,36.593
	C438.268,670.693,428.485,673.968,432.517,665.875z"/>
<path fill="none" stroke="#231F20" stroke-width="2" d="M205.033,309.975c1.791-4.286,5.873-8.386,1.982-11.264
	c-4.56-3.373-8.531-8.521-8.987-14.356c-1.074-13.739,14.48-22.717,26.672-19.803c1.824-19.122,2-38.255,2.757-54.545
	c0.5-10.742,0.654-21.486,0.995-32.233c0.278-8.763,2.734-19.427-3.174-26.864c-10.822-16.234-32.167-8.63-37.193,8.115
	c-1.611,35.443-1.394,71.074-4.866,106.415c-2.119,21.562-5.932,46.139-28.779,54.53c-19.722,7.244-42.882,1.276-49.956-19.947
	c-14.319-42.96-6.002-94.492-6.002-138.969c0-18.612-27.709-24.25-36.729-9.128c-8.497,14.246-5.198,38.676-5.198,54.774
	c0,42.885-5.659,97.342,23.605,133.096c27.84,34.015,92.536,31.161,120.053-1.638c0.494-0.589,0.959-1.203,1.434-1.808
	C194.525,338.251,203.883,312.729,205.033,309.975z"/>
<path fill="none" stroke="#231F20" stroke-width="2" d="M230.718,280.57c-6.52,4.318-12.788,9.601-17.353,15.994
	C196.045,283.077,219.46,258.981,230.718,280.57"/>
<path fill="none" stroke="#231F20" stroke-width="2" d="M291.753,276.055c9.082,4.697,20.074,11.14,24.93,20.509
	C329.793,275.647,305.675,251.242,291.753,276.055"/>
<path fill="none" stroke="#231F20" stroke-width="2" d="M154.232,431.271c6.439-13.653,31.132-0.622,26.54,12.866
	C174.338,463.037,144.181,452.581,154.232,431.271"/>
<path fill="none" stroke="#231F20" stroke-width="2" d="M153.227,405.134c2.097-3.88,15.28,3.617,11.663,9.651
	C161.269,420.816,150.788,409.645,153.227,405.134"/>
<path fill="none" stroke="#231F20" stroke-width="2" d="M170.116,397.29c2.959-2.181,6.584,10.933,2.762,13.008
	C169.06,412.369,166.296,400.105,170.116,397.29"/>
<path fill="none" stroke="#231F20" stroke-width="2" d="M138.55,419.205c0.366-3.983,16.687,0,15.281,5.228
	C152.423,429.66,138.211,422.894,138.55,419.205"/>
<path fill="none" stroke="#231F20" stroke-width="2" d="M134.529,433.078c1.006-3.216,12.947-1.608,11.701,4.021
	C144.984,442.729,133.524,436.295,134.529,433.078"/>
<path fill="none" stroke="#231F20" stroke-width="2" d="M214.005,368.073c5.762,7.761,18.134,17.272,28.482,13.99
	c8.345-2.645,11.74-14.582,13.342-22.167c-9.028,12.15-23.43,13.125-34.344,2.459C220.618,366.113,217.947,367.762,214.005,368.073"
	/>
<path fill="none" stroke="#231F20" stroke-width="2" d="M204.901,342.805c4.007-7.308,40.467-11.097,37.021,0.723
	c-2.106,7.223-13.784,18.305-21.854,17.455C214.163,360.358,200.991,349.936,204.901,342.805"/>
<path fill="none" stroke="#231F20" stroke-width="2" d="M282.921,331.603c1.11,8.005,27.329,9.833,27.329-2.923
	C310.25,315.918,280.52,314.311,282.921,331.603"/>
<path fill="none" stroke="#231F20" stroke-width="2" d="M205.136,330.661c3.896,9.057,20.458,0.018,12.341-5.509
	C213.727,322.598,202.139,323.881,205.136,330.661"/>
<path fill="none" stroke="#231F20" stroke-width="2" d="M274.246,321.516c0,10.274-12.705,10.275-12.705,0
	C261.541,311.242,274.246,311.244,274.246,321.516"/>
<path fill="none" stroke="#231F20" stroke-width="2" d="M233.773,320.321c0,10.272-12.706,10.273-12.706,0
	C221.068,310.048,233.773,310.047,233.773,320.321"/>
<path fill="none" stroke="#231F20" stroke-width="2" d="M273.27,319.154c0,7.124-8.809,7.124-8.809,0S273.27,312.031,273.27,319.154
	"/>
<path fill="none" stroke="#231F20" stroke-width="2" d="M232.645,317.958c0,7.123-8.81,7.123-8.81,0
	S232.645,310.834,232.645,317.958"/>
<path fill="none" stroke="#231F20" stroke-width="2" d="M236.729,405.061c-14.47,13.143-34.188,23.652-51.901,11.64
	c-5.252-3.562-7.31-16.224-11.89-21.437c-6.788-7.729-6.557,9.614-6.17,13.086c-2.596-2.497-14.855-12.948-17.937-6.523
	c-2.266,4.728,4.696,12.793,7.413,16.172c-4.565-1.214-17.128-5.459-20.91-1.207c-3.304,3.716,11.257,12.222,13.673,13.671
	c-4.19-1.469-14.599-5.027-17.694,0c-3.162,5.138,9.072,11.887,12.322,13.763c9.481,5.476,17.84,20.468,25.894,28.155
	c13.13,12.532,33.188,29.833,53.076,25.626c3.229-0.684,6.824-2.534,8.049-5.822c-0.934,2.506,17.169,0.566,19.615-1.437
	c10.071-8.246,24.357-10.244,35.76-17.276c4.57-2.818,10.708-6.877,15.97-11.734C276.542,447.812,254.547,428.131,236.729,405.061z"
	/>
<path fill="none" stroke="#231F20" stroke-width="2" d="M199.398,346.826c-2.354,45.089,58.628,54.328,78.931,18.34
	C302.901,321.611,200.674,322.181,199.398,346.826"/>
<path fill="none" stroke="#231F20" stroke-width="2" d="M487.138,485.752c-1.535-4.349-3.255-8.634-5.104-12.857
	c-3.772-8.615-4.081-5.186-11.333-2.292c-12.387,4.94-25.203,8.621-38.225,11.042c0.94,4.588,0.858,8.253-1.047,9.881
	c-8.42,7.19-15.872,22.762,2.768,17.25c-10.427,13.059,18.124,3.364,21.961,1.546c-3.358,2.633-6.611,10.054,0.691,9.134
	c8.435-1.06,17.055-8.249,22.822-14.015C485.347,499.766,486.449,493.1,487.138,485.752z"/>
<g>
	<path fill="none" stroke="#231F20" stroke-width="2" d="M548.889,350.924C554.365,379.455,548.212,345.402,548.889,350.924
		L548.889,350.924z"/>
	<path fill="none" stroke="#231F20" stroke-width="2" d="M548.889,350.924c-2.422-19.748-6.729-41.538-17.075-58.783
		c1.737,0.283,9.771-0.49,7.15-3.841c-4.697-6.008-15.863-9.161-22.831-11.036c0.832-1.768,7.461-17.835,3.544-16.631
		c-7.788,2.395-6.728,10.011-15.006,7.58c-27.782-8.161-58.021-15.275-87.107-12.967c-27.533,2.184-54.509,9.299-81.138,16.284
		c-5.031,1.319-5.981,3.208-8.308-1.86c-2.967-6.462-8.146-11.688-15.012-13.877c-7.487-2.388-15.501-1.23-21.347,4.194
		c-4.342,4.029-5.485,10.207-12.071,11.245c7.593-17.611-8.634-5.602-14.877,0c-4.368-8.38-17.27-8.928-9.65,0
		c-4.845,0.041-9.778,0.366-14.521,1.396c-5.642,1.227-4.919-1.66-9.543-5.121c-12.141-9.086-34.345,0.521-33.069,16.847
		c0.456,5.835,4.427,10.983,8.987,14.356c3.891,2.878-0.191,6.978-1.982,11.264c-1.272,3.046-12.583,33.938-0.541,24.791
		c-0.029,1.243-0.006,2.479,0.042,3.71c-3.083,2.348-4.97,5.143-5.136,8.35c-0.962,18.441,8.671,30.881,21.781,36.687
		c4.858,7.53,10.254,14.684,15.445,21.415c22.97,29.784,52.894,53.937,88.239,67.366c3.619,1.375,7.275,2.625,10.956,3.776
		c-0.326,5.092-0.766,10.179-1.368,15.254c-1.557,13.132-1.543,17.839-13.352,23.047c-19.711,8.693-5.357,14.561,8.814,9.786
		c-15.665,21.6,5.303,20.532,21.353,13.269c-1.671,24.781,30.011,4.951,39.023-2.125c11.985-9.412,20.799-20.438,24.704-35.288
		c1.418-5.39,2.688-10.83,3.847-16.305c17.703-2.068,35.171-6.447,51.861-13.104c7.252-2.894,7.561-6.323,11.333,2.292
		c2.378,5.432,4.551,10.962,6.379,16.604c1.621,5.003,6.769,16.85,1.736,20.794c-10.407,8.155-19.652,23.26,1.954,17.888
		c-13.047,14.799,19.706,2.312,24.025,0c-5.533,9.748,6.142,9.544,11.899,5.803c6.707-4.356,15.598-11.563,17.413-19.826
		c3.402-15.486,3.545-32.064,4.326-47.828C551.611,429.18,555.955,387.74,548.889,350.924z"/>
</g>
<path fill="none" stroke="#231F20" stroke-width="2" d="M331.343,385.49c4.42,35.014,7.28,70.658,3.107,105.833
	c-1.557,13.132-1.543,17.839-13.352,23.047c-19.711,8.693-5.357,14.561,8.814,9.786c-15.665,21.6,5.303,20.532,21.353,13.269
	c-1.671,24.781,30.011,4.951,39.023-2.125c11.985-9.412,20.799-20.438,24.704-35.288c7.876-29.94,11.332-61.381,15.084-92.067"/>
</svg>
