<?xml version="1.0" encoding="utf-8"?>
<!-- Generator: Adobe Illustrator 16.0.0, SVG Export Plug-In . SVG Version: 6.00 Build 0)  -->
<!DOCTYPE svg PUBLIC "-//W3C//DTD SVG 1.1//EN" "http://www.w3.org/Graphics/SVG/1.1/DTD/svg11.dtd">
<svg version="1.1" id="Layer_1" xmlns="http://www.w3.org/2000/svg" xmlns:xlink="http://www.w3.org/1999/xlink" x="0px" y="0px"
	 width="612px" height="612px" viewBox="0 90 612 612" enable-background="new 0 90 612 612" xml:space="preserve">
<path fill="none" stroke="#231F20" stroke-width="2" stroke-miterlimit="10" d="M127.708,233.32
	c0.314-0.001,0.633-0.018,0.949-0.024c9.275-4.845,19.071-10.999,29.101-11.305c7.315-0.222,16.149,0.75,25.381,2.856
	c1.539-10.451,0.562-21.665-1.631-31.299c-3.053-13.41-14.89-24.985-16.63-38.432c-30.434,13.499-40.251,47.465-38.339,78.205
	H127.708z"/>
<path fill="none" stroke="#231F20" stroke-width="2" stroke-miterlimit="10" d="M184.243,307.016
	c-2.338,18.054,17.329,30.465,33.763,26.778c18.92-4.246,22.178-32.397,8.475-43.88c-10.354-8.677-24.985-8.326-34.329,1.66
	C187.339,296.716,184.895,301.993,184.243,307.016z"/>
<path fill="none" stroke="#231F20" stroke-width="2" stroke-miterlimit="10" d="M222.127,316.445
	c12.41-5.53,10.534-23.142-2.83-25.875c-11.886-2.429-21.589,11.752-13.283,21.317C210.183,316.689,215.928,319.208,222.127,316.445
	z"/>
<path fill="none" stroke="#231F20" stroke-width="2" stroke-miterlimit="10" d="M222.669,304.727
	c4.436,0.776,7.621-5.016,4.343-8.294c-2.624-2.625-7.234-2.354-8.119,1.329C218.16,300.83,219.223,304.124,222.669,304.727z"/>
<path fill="none" stroke="#231F20" stroke-width="2" stroke-miterlimit="10" d="M118.399,269.856
	c5.875,14.704,26.073,15.797,36.992,6.03c12.571-11.242,3.117-34.005-12.158-36.92c-11.542-2.203-22.505,4.264-25.371,15.809
	C116.387,260.721,116.765,265.765,118.399,269.856z"/>
<path fill="none" stroke="#231F20" stroke-width="2" stroke-miterlimit="10" d="M151.17,260.963
	c7.082-9.459-1.805-22.042-13.114-18.455c-10.057,3.191-11.417,18.075-1.056,21.821C142.201,266.211,147.634,265.688,151.17,260.963
	z"/>
<path fill="none" stroke="#231F20" stroke-width="2" stroke-miterlimit="10" d="M146.617,251.833c3.697-1.29,3.661-7.039-0.216-8.14
	c-3.105-0.882-6.493,1.278-5.602,4.45C141.539,250.785,143.742,252.835,146.617,251.833z"/>
<path fill="none" stroke="#231F20" stroke-width="2" stroke-miterlimit="10" d="M359.438,402.036
	c2.549-17.529,2.104-40.745-7.294-49.12c-8.85,6.37-18.418,17.125-29.587,17.393c3.729-8.094,9.06-16.365,6.487-25.769
	c-8.755,1.794-16.722,8.714-25.821,9.995c5.494-6.055,10.496-14.214,11.87-22.187c-12.333-0.339-23.256,4.396-35.671,2.327
	c1.432-0.789,2.888-1.531,4.366-2.238c29.054-13.929,62.973-28.506,73.611-58.52c-0.287,5.71,1.916,7.119,3.519,11.83
	c1.175-1.245,2.25-2.782,3.541-3.904C374.009,321.068,384.56,367.581,359.438,402.036z"/>
<path fill="none" stroke="#000000" stroke-width="2" d="M154.08,562.15c2.561-4.267,8.841-1.362,7.388,3.39
	c-1.881,6.146-6.318,12.311-8.876,18.317c-2.624,6.047-4.057,13.988-7.777,19.408c-4.884,7.089-8.812-5.514-10.008-8.452
	c-1.934-4.909-3.784-9.853-5.681-14.776c-1.635-4.242-6.501-12.292-5.74-16.973c0.4-2.464,3.631-3.467,5.707-2.842
	c2.706,0.821,3.468,5.213,4.343,7.427c2.881,7.299,5.417,14.731,8.134,22.092C145.315,580.378,148.862,570.849,154.08,562.15z"/>
<path fill="none" stroke="#000000" stroke-width="2" d="M192.692,597.248c1.688,2.439,0.454,6.795-2.976,6.626
	c-3.892-0.301-3.175-4.577-6.646-2.354c-6.667,4.268-14.585,1.838-18.24-5.016c-2.998-5.723-1.488-12.742-1.488-18.901
	c0-2.199,0.702-5.15,3.381-5.546c5.146-0.754,5.007,4.793,4.854,8.18c-0.163,3.616-1.975,15.505,4.554,15.295
	c7.527-0.242,5.605-9.364,5.74-14.041c0-2.858,0.034-7.425,3.026-9.002c3.159-1.664,5.765,1.323,5.765,4.403
	C190.664,583.626,188.419,591.222,192.692,597.248C193.098,597.834,191.926,596.166,192.692,597.248z"/>
<path fill="none" stroke="#000000" stroke-width="2" d="M208.853,598.33c6.495,5.915-5.484,10.774-8.521,3.178
	c-0.681-1.685-0.271-4.167-0.271-5.904c0-8.777,0-17.554,0-26.33c0-2.25,0-4.5,0-6.75c0-4.9,8.25-5.29,8.25-0.44
	c0,6.053,0.067,12.105,0.067,18.158C208.379,584.966,206.515,594.724,208.853,598.33z"/>
<path fill="none" stroke="#000000" stroke-width="2" d="M219.131,574.729c0.511-1.752,1.797-3.224,3.753-3.449
	c1.752-0.131,3.071,0.568,3.956,2.097c1.006-0.575,2.065-1.026,3.178-1.353c5.889-1.563,11.524,0.947,14.599,6.158
	c7.925,13.426-3.155,26.322-17.304,25.287c0,2.925,0.274,24.909-7.405,15.385c-2.167-2.688-0.845-9.721-0.845-12.722
	C219.064,595.728,218.446,585.106,219.131,574.729z M227.788,583.52c-0.981,1.643-0.473,4.169-0.473,6.12
	c0,4.848-0.775,7.097,5.545,5.376C244.446,592.186,237.003,572.776,227.788,583.52C227.652,583.746,228.328,582.889,227.788,583.52z
	"/>
<path fill="none" stroke="#000000" stroke-width="2" d="M277.354,593.461c5.333-1.335,6.84,4.229,3.212,7.15
	c-3.411,2.747-9.202,4.108-13.466,4.108c-11.657,0-16.638-12.533-13.516-22.366c2.879-9.068,18.537-15.367,25.292-7.051
	c9.585,11.82-9.158,16.638-16.805,19.104C266.121,599.034,273.036,595.881,277.354,593.461z M263.695,581.829
	c-2.251,1.272-3.032,3.437-3.381,5.884c2.228-0.686,12.781-2.315,12.781-5.681C273.095,577.758,265.634,580.612,263.695,581.829z"/>
<path fill="none" stroke="#000000" stroke-width="2" d="M286.281,597.991c-1.028-2.912,0.463-6.437,3.99-6.086
	c2.778,0.255,4.295,3.62,6.965,4.464c2.152,0.681,7.619-0.194,4.599-3.72c-1.946-1.943-5.446-2.01-7.896-3.067
	c-16.275-7.031,0.953-27.634,13.306-17c2.003,1.726,2.766,5.944-0.279,7.102c-3.483,1.322-6.708-2.674-10.271-1.303
	c-5.839,1.489,9.131,6.863,9.84,7.305c7.509,4.673,3.876,16.927-3.746,19.162C296.792,606.607,289.61,603.009,286.281,597.991z"/>
<path fill="none" stroke="#000000" stroke-width="2" d="M358.841,573.309c1.941-2.588,6.265-3.12,7.388,0.592
	c0.865,2.863-1.02,6.465-1.907,9.143c-1.794,5.414-3.603,10.928-5.785,16.2c-1.696,4.085-7.104,9.536-9.467,2.197
	c-2.776-8.568-8.343-16.638-10.584-25.225c-2.041-7.14,7.193-4.511,9.197-0.066c2,4.45,3.843,9.004,5.68,13.524
	C355.287,584.268,356.8,578.631,358.841,573.309z"/>
<path fill="none" stroke="#000000" stroke-width="2" d="M399.956,597.248c1.687,2.439,0.455,6.795-2.976,6.626
	c-3.893-0.301-3.175-4.577-6.646-2.354c-6.666,4.267-14.585,1.838-18.239-5.016c-2.998-5.723-1.487-12.742-1.487-18.901
	c0-2.199,0.701-5.15,3.38-5.546c5.146-0.754,5.007,4.794,4.854,8.18c-0.163,3.616-1.976,15.505,4.554,15.295
	c7.527-0.242,5.605-9.365,5.74-14.041c0-2.859,0.032-7.425,3.025-9.002c3.159-1.664,5.766,1.323,5.766,4.403
	C397.928,583.626,395.682,591.222,399.956,597.248C400.361,597.834,399.189,596.166,399.956,597.248z"/>
<path fill="none" stroke="#000000" stroke-width="2" d="M416.117,598.33c6.492,5.92-5.483,10.771-8.521,3.178
	c-0.681-1.685-0.27-4.168-0.27-5.904c0-8.777,0-17.554,0-26.33c0-2.25,0-4.5,0-6.75c0-4.9,8.249-5.29,8.249-0.44
	c0,6.053,0.067,12.105,0.067,18.158C415.643,584.965,413.778,594.726,416.117,598.33z"/>
<path fill="none" stroke="#000000" stroke-width="2" d="M426.396,574.729c0.51-1.752,1.798-3.225,3.753-3.449
	c1.752-0.131,3.071,0.568,3.956,2.097c1.007-0.575,2.065-1.026,3.178-1.353c5.889-1.563,11.524,0.947,14.6,6.158
	c7.924,13.427-3.154,26.322-17.305,25.287c0,2.927,0.277,24.907-7.405,15.385c-2.166-2.688-0.845-9.721-0.845-12.722
	C426.327,595.729,425.705,585.104,426.396,574.729z M435.051,583.52c-0.98,1.645-0.474,4.168-0.474,6.12
	c0,4.848-0.774,7.097,5.546,5.376C451.704,592.188,444.274,572.778,435.051,583.52C434.915,583.746,435.592,582.889,435.051,583.52z
	"/>
<path fill="none" stroke="#000000" stroke-width="2" d="M484.619,593.461c5.331-1.335,6.839,4.229,3.211,7.15
	c-3.41,2.747-9.201,4.108-13.466,4.108c-11.658,0-16.638-12.533-13.517-22.366c2.878-9.067,18.538-15.369,25.291-7.051
	c9.59,11.819-9.16,16.638-16.803,19.104C473.386,599.035,480.3,595.88,484.619,593.461z M470.958,581.829
	c-2.251,1.273-3.032,3.437-3.38,5.884c2.228-0.686,12.78-2.315,12.78-5.681C480.357,577.758,472.897,580.612,470.958,581.829z"/>
<path fill="none" stroke="#000000" stroke-width="2" d="M493.544,597.991c-1.026-2.913,0.463-6.437,3.99-6.086
	c2.779,0.256,4.296,3.619,6.966,4.464c2.153,0.681,7.616-0.193,4.599-3.72c-1.947-1.943-5.446-2.009-7.896-3.067
	c-16.274-7.033,0.953-27.633,13.306-17c2.003,1.726,2.766,5.944-0.279,7.102c-3.483,1.322-6.708-2.674-10.271-1.303
	c-5.838,1.488,9.132,6.863,9.84,7.305c7.51,4.671,3.874,16.927-3.746,19.162C504.057,606.607,496.872,603.01,493.544,597.991z"/>
<path fill="none" stroke="#000000" stroke-width="2" d="M239.477,661.305c2.358,4.552-2.723,6.135-5.561,3.499
	c-2.598-2.413-4.129-6.178-5.269-9.462c-3.661-10.552-1.614-20.995,3.703-30.452c3.261-5.796,9.835-2.895,5.681,2.84
	c-2.161,2.981-3.625,6.026-4.336,9.631C232.113,645.374,232.645,655.762,239.477,661.305z"/>
<path fill="none" stroke="#000000" stroke-width="2" d="M243.483,641.956c0.2-1.324-4.7-8.942,2.257-6.923
	c4.718,1.378,10.315-4.008,14.937,1.191c1.298,1.462,1.133,4.146-0.71,5.123c-1.993,1.057-3.161-0.719-4.717-1.496
	c-3.108-0.775-5.63,2.676-5.63,5.266c0,3.318,0,6.637,0,9.955c0,4.269-6.187,6.339-6.187,1.211
	C242.243,652.924,242.934,645.504,243.483,641.956C243.517,641.735,243.449,642.176,243.483,641.956z"/>
<path fill="none" stroke="#000000" stroke-width="2" d="M280.457,650.807c4.785-1.199,4.877,4.206,1.369,6.034
	c-3.76,1.964-8.859,3.343-12.972,1.687c-6.821-2.746-8.512-11.381-5.642-17.561c3.117-6.421,15.49-9.813,19.305-2.377
	c4.515,8.803-8.055,11.164-13.523,12.926C271.948,654.893,277.322,652.731,280.457,650.807z M270.211,642.083
	c-1.764,0.997-2.274,2.579-2.536,4.411c1.587-0.487,9.586-1.851,9.586-4.26C277.262,639.039,271.69,641.089,270.211,642.083z"/>
<path fill="none" stroke="#000000" stroke-width="2" d="M311.546,653.544c1.337,2.282,0.245,5.14-2.663,4.845
	c-0.803-0.432-1.605-0.862-2.409-1.294c-1.632,1.076-3.407,1.804-5.326,2.181c-4.349,0.966-8.734-1.361-10.752-5.25
	c-5.291-10.164,4.396-20.343,14.657-18.638c-0.128-2.81,0.509-17.351,5.985-9.104c1.601,2.392,0.188,10.683,0.177,13.617
	C311.205,642.89,309.791,651.222,311.546,653.544C312.121,654.526,311.444,653.41,311.546,653.544z M304.496,650.756
	c1.219-1.831,0.675-4.701,0.646-6.968c-0.058-4.687-7.577-2.346-9.065,0.881C294.107,650.906,298.933,656.957,304.496,650.756
	C304.563,650.654,303.617,651.736,304.496,650.756z"/>
<path fill="none" stroke="#000000" stroke-width="2" d="M345.172,658.211c-5.741,7.051-5.376-8.957-5.376-10.351
	c0-3.485,0.668-3.91-1.749-5.55c-1.576-1.066-1.986-3.191-0.635-4.641c2.405-2.643,2.352,1.67,2.257-4.058
	c-0.075-4.431,1.507-9.062,6.156-10.41c2.943-0.853,8.985-0.211,10.049,3.386c1.329,4.493-4.028,3.586-6.34,2.663
	c-4.406-1.76-3.551,5.001-3.551,7.253c9.535-0.617,9.637,6.238,0,6.238C345.983,646.579,347.755,655.026,345.172,658.211
	C344.731,658.751,345.611,657.669,345.172,658.211z"/>
<path fill="none" stroke="#000000" stroke-width="2" d="M354.605,645.48c3.211-13.301,21.466-14.652,21.732,0.685
	C376.627,663.983,350.172,663.76,354.605,645.48z M360.691,646.546c-1.467,7.812,6.432,9.685,9.027,2.295
	C372.657,640.474,363.193,638.283,360.691,646.546C360.59,647.086,360.927,645.769,360.691,646.546z"/>
<path fill="none" stroke="#000000" stroke-width="2" d="M395.688,634.424c3.905-2.537,6.833,2.232,3.551,5.174
	c-2.129,1.902-4.062,4.03-5.984,6.137c1.567,1.822,3.083,3.699,4.475,5.661c1.517,2.137,5.235,6.601,1.002,8.361
	c-3.839,1.599-7.606-6.904-9.535-9.256c-1.965,2.392-5.685,10.849-9.813,8.724c-3.691-1.898,0.569-6.911,1.927-8.724
	c2.304-3.069,4.686-3.703,1.928-6.694c-1.856-1.987-7.891-6.151-4.312-9.154c3.379-2.839,8.55,4.402,10.27,6.365
	C391.229,638.703,393.426,636.511,395.688,634.424z"/>
<path fill="none" stroke="#000000" stroke-width="2" d="M403.7,660.646c6.134-6.134,6.993-15.948,5.034-24.11
	c-0.953-3.969-3.11-7.131-5.363-10.454c-3.18-4.675,3.853-5.392,6.491-1.433c5.995,8.994,7.584,19.697,4.235,30.113
	c-1.184,3.548-3.887,11.462-8.724,11.462C402.134,666.225,401.727,662.48,403.7,660.646z"/>
<path fill="none" stroke="#000000" stroke-width="2" d="M511.979,170.392c5.647-9.408,17.839-13.583,27.895-8.466
	c10.583,5.387,12.353,17.501,8.209,27.777c-4.478,11.104-12.183,21.46-17.53,32.256c-6.335,12.791-12.319,25.751-18.111,38.797
	c-10.922,24.602-20.891,49.525-30.332,74.727c-4.129,11.023-7.688,22.584-12.478,33.326c-4.674,10.483-13.752,18.928-25.997,14.948
	c-11.876-3.859-14.666-15.174-18.63-25.669c-5.04-13.34-10.364-26.57-15.356-39.927c-9.599-25.683-19.837-51.125-29.453-76.804
	c-4.285-11.442-8.454-22.919-12.965-34.276c-3.608-9.085-10.337-22.159-8.717-32.122c1.615-9.936,13.602-15.82,22.765-15.256
	c13.814,0.85,16.999,12.285,21.518,23.346c16.854,41.261,31.199,83.495,46.63,125.297c3.911-9.776,7.165-19.54,10.672-29.436
	c4.508-12.729,11.197-24.623,16.517-37.025C486.846,218.039,496.985,191.725,511.979,170.392z"/>
<path fill="none" stroke="#231F20" stroke-width="2" stroke-miterlimit="10" d="M229.965,246.656
	c10.993,9.288,18.144,21.077,17.273,35.166c-0.463,7.488-1.359,14.918-2.997,22.154c9.954-1.861,24.864-16.096,28.13-20.648
	c8.604-11.994,17.274-24.932,23.492-38.021C280.752,235.478,246.244,233.119,229.965,246.656z"/>
<path fill="none" stroke="#231F20" stroke-width="2" stroke-miterlimit="10" d="M157.758,221.99
	c-11.974,0.366-23.618,9.074-34.436,13.927c-6.556,2.942-21.234,6.481-25.971,11.667c-4.729,5.176-4.243,17.004-3.545,24.311
	c1.487,15.54,4.335,31.06,3.508,48.188c-0.431,8.908-1.125,17-3.248,25.457c-0.772,3.08-2.04,6.199-3.206,9.349
	c-9.399,1.918-16.764,12.918-7.627,19.909c8.429,6.445,18.139-0.084,20.877-7.42c14.67-6.455,31.986-7.133,48.117-8.069
	c23.216-1.348,48.237-1.999,69.901,3.623c6.577-11.52,7.819-24.966,14.292-37.271c7.154-13.604,9.874-28.602,10.815-43.837
	C249.673,242.442,189.457,221.027,157.758,221.99z"/>
<path fill="none" stroke="#231F20" stroke-width="2" stroke-miterlimit="10" d="M129.912,425.252
	c-3.447,4.176-9.593,11.477-15.569,8.409c-4.712-2.419-3.349-11.961-7.833-15.358c-1.115,1.376-3.083,2.395-3.861,3.24
	c-3.316-6.612-0.886-18.583-5.788-23.411c-1.31,0.962-3.078,1.415-4.33,2.269c-0.389,6.46-1.381,13.333-0.629,18.598
	c1.825,12.789,6.054,24.806,7.301,37.699c1.764,18.238,6.421,38.66-6.138,53.479c-3.905,4.606-15.036,8.963-10.024,16.395
	c3.268,4.847,21.337,4.517,26.683,3.771c18.602-2.593,17.198-26.587,18.699-42.088c1.547-15.975,5.61-31.096,11.463-45.699
	C135.022,437.998,134.303,430.02,129.912,425.252z"/>
<path fill="none" stroke="#231F20" stroke-width="2" stroke-miterlimit="10" d="M364.459,281.843
	c-1.291,1.123-2.366,2.659-3.542,3.904c-1.602-4.711-3.805-6.12-3.519-11.83c-10.638,30.013-44.556,44.59-73.61,58.52
	c-1.478,0.707-2.934,1.449-4.365,2.238c-26.263,14.253-45.223,40.092-55.361,69.214c-0.05,3.526-0.061,6.97,0.056,10.271
	c12.688-3.139,26.822,6.569,34.578,17.433c4.5,6.303,6.68,11.461,7.314,16.068c2.235-0.642,4.603-1.219,7.129-1.724
	c23.369-4.663,46.326-10.403,66.766-24.893c8.124-5.759,14.536-12.14,19.533-19.008C384.56,367.581,374.009,321.068,364.459,281.843
	z"/>
<path fill="none" stroke="#231F20" stroke-width="2" stroke-miterlimit="10" d="M218.063,361.957
	c-20.692-4.563-44.057-3.913-65.833-2.648c-16.131,0.936-33.447,1.614-48.117,8.069c1.966-5.267,0.346-10.949-7.953-12.547
	c-1.773-0.341-3.566-0.294-5.292,0.057c1.164-3.149,2.428-6.269,3.2-9.348c0.501-1.997,0.917-3.973,1.274-5.945
	c-6.982,4.453-12.127,10.507-13.524,18.732c0.655-0.03,1.32-0.026,1.991-0.007c-4.839,4.033-6.897,10.551-1.697,15.509
	c-0.947,3.896-0.81,7.896,0.956,11.386c1.624-0.956,6.104-1.04,7.775-2.013c-0.305,5.923-3.023,12.533,1.67,17.208
	c1.253-0.86,3.032-1.312,4.348-2.278c4.902,4.828,2.472,16.799,5.788,23.411c0.778-0.846,2.746-1.864,3.861-3.24
	c4.483,3.397,3.121,12.939,7.833,15.358c5.977,3.067,12.123-4.233,15.569-8.409c4.463,4.846,5.123,13.016,10.205,17.531
	c4.183-3.442,6.419-8.037,10.864-11.389c0.021,2.445,1.474,6.035,1.062,8.845c8.273-9.526,21.165-24.487,32.582-29.859
	c-0.815,4.394-1.827,7.877-2.249,12.265c5.185-1.713,8.936-7.888,13.558-11.355c6.233,15.415,18.673-15.873,19.906-21.223
	C217.528,382.732,219.205,371.575,218.063,361.957z"/>
<path fill="none" stroke="#231F20" stroke-width="2" stroke-miterlimit="10" d="M252.954,482.75
	c8.164-20.601,21.931-28.479,5.741-51.158c-10.1-14.146-31.017-26.358-45.469-10.756c-21.687,23.412,16.242,52.134,4.25,73.907
	c-2.325,4.222-10.516,6.596-16.777,10.086c-7.83-14.161-4.016-31.999-2.456-48.132c1.248-12.894,5.477-24.91,7.302-37.699
	c0.324-2.27,0.318-4.843,0.182-7.549c-3.501,4.566-7.188,6.28-9.792-0.16c-4.622,3.468-8.373,9.643-13.558,11.355
	c0.422-4.388,1.434-7.871,2.249-12.265c-10.09,4.748-21.327,16.979-29.515,26.336c7.167,16.409,12.159,33.426,13.913,51.539
	c1.5,15.501,0.096,39.495,18.7,42.088c5.345,0.745,23.414,1.075,26.682-3.771c0.429-0.636,0.732-1.248,0.939-1.841
	c5.429,0.219,10.432,0.073,13.053,0.208c10.519,0.54,30.478,1.184,32.277-13.659C262.016,500.217,246.823,498.22,252.954,482.75z"/>
<path fill="none" stroke="#231F20" stroke-width="2" stroke-miterlimit="10" d="M252.954,482.75
	c8.164-20.601,21.931-28.479,5.741-51.158c-7.756-10.863-21.89-20.571-34.578-17.433c-0.556-15.745,1.716-34.625-2.062-51.246
	c-1.318-0.341-2.65-0.657-3.992-0.954c0,0,0-0.001,0-0.002c-0.024-0.005-0.048-0.01-0.073-0.015
	c-0.185-0.041-0.374-0.074-0.56-0.114c-1.155-0.248-2.315-0.485-3.486-0.703c-0.445-0.082-0.895-0.152-1.342-0.23
	c-0.92-0.161-1.84-0.322-2.769-0.464c-0.525-0.081-1.055-0.15-1.583-0.225c-0.857-0.123-1.714-0.246-2.578-0.354
	c-0.571-0.072-1.146-0.133-1.719-0.199c-0.829-0.095-1.657-0.189-2.49-0.272c-0.595-0.059-1.193-0.11-1.791-0.164
	c-0.82-0.073-1.641-0.145-2.464-0.207c-0.608-0.046-1.218-0.086-1.828-0.126c-0.819-0.054-1.638-0.106-2.46-0.151
	c-0.617-0.034-1.235-0.063-1.853-0.091c-0.819-0.037-1.639-0.072-2.461-0.1c-0.623-0.022-1.245-0.041-1.869-0.058
	c-0.823-0.022-1.646-0.041-2.471-0.056c-0.622-0.011-1.244-0.021-1.866-0.027c-0.832-0.009-1.664-0.013-2.496-0.015
	c-0.613-0.001-1.226-0.002-1.84,0c-0.849,0.003-1.697,0.012-2.546,0.022c-0.597,0.007-1.194,0.014-1.792,0.024
	c-0.865,0.015-1.729,0.035-2.594,0.056c-0.581,0.014-1.161,0.027-1.741,0.043c-0.9,0.026-1.799,0.057-2.697,0.088
	c-0.537,0.019-1.074,0.036-1.61,0.056c-0.974,0.037-1.944,0.08-2.914,0.122c-0.458,0.02-0.917,0.038-1.374,0.06
	c-1.117,0.052-2.229,0.108-3.339,0.165c-0.308,0.016-0.618,0.03-0.926,0.047c-1.44,0.076-2.875,0.156-4.303,0.239
	c-16.131,0.936-33.447,1.614-48.117,8.069c1.966-5.267,0.346-10.949-7.953-12.547c-1.773-0.341-3.566-0.294-5.292,0.057
	c1.164-3.149,2.428-6.269,3.2-9.348c0.501-1.997,0.917-3.973,1.274-5.945c-6.982,4.453-12.127,10.507-13.524,18.732
	c0.655-0.03,1.32-0.026,1.991-0.007c-4.839,4.033-6.897,10.551-1.697,15.509c-0.947,3.896-0.81,7.896,0.956,11.386
	c1.624-0.956,6.104-1.04,7.775-2.013c-0.305,5.923-3.023,12.533,1.67,17.208c1.253-0.86,3.032-1.312,4.348-2.278
	c-1.31,0.962-3.078,1.415-4.33,2.269c-0.049,0.809-0.107,1.623-0.169,2.44c-1.338,0.95-2.641,2.08-3.893,3.432
	c-21.688,23.413,16.24,52.134,4.249,73.908c-4.119,7.479-26.655,9.158-24.238,21.523c1.376,7.046,14.314,8.302,24.525,8.54
	c-3.956,4.582-14.951,8.932-9.964,16.327c3.268,4.847,21.337,4.517,26.683,3.771c11.471-1.599,15.331-11.337,16.959-22.201
	c0.047-0.02,0.092-0.041,0.139-0.061c2.679,2.312,5.907,4.303,9.788,5.896c11.609,4.706,23.893,4.526,36.329,3.343
	c2.41,6.741,6.712,11.897,14.784,13.022c5.345,0.745,23.414,1.075,26.682-3.771c0.429-0.636,0.732-1.248,0.939-1.841
	c5.429,0.219,10.431,0.073,13.053,0.208c10.519,0.54,30.478,1.184,32.277-13.659C262.016,500.217,246.823,498.22,252.954,482.75z
	 M116.499,434.338c0.352,0.045,0.703,0.06,1.053,0.047C117.202,434.396,116.851,434.383,116.499,434.338z M117.562,434.385
	c0.354-0.014,0.707-0.056,1.058-0.122C118.269,434.329,117.916,434.371,117.562,434.385z M97.594,398.995
	c0.444,0.599,0.806,1.276,1.113,2.008c-0.159-0.378-0.334-0.74-0.528-1.085C97.999,399.597,97.804,399.287,97.594,398.995z
	 M101.686,418.953c0.088,0.32,0.19,0.628,0.294,0.935C101.875,419.581,101.774,419.273,101.686,418.953z M98.712,401.016
	c1.662,3.959,1.587,9.622,2.299,14.578C100.295,410.642,100.375,404.973,98.712,401.016z M101.06,415.921
	c0.058,0.38,0.123,0.752,0.192,1.121C101.183,416.673,101.118,416.3,101.06,415.921z M101.34,417.498
	c0.067,0.331,0.145,0.653,0.225,0.974C101.485,418.152,101.408,417.829,101.34,417.498z M102.117,420.303
	c0.16,0.43,0.334,0.846,0.532,1.24C102.451,421.148,102.276,420.732,102.117,420.303z M115.39,434.092
	c-0.349-0.111-0.698-0.252-1.047-0.431C114.691,433.84,115.041,433.98,115.39,434.092z M116.468,434.333
	c-0.347-0.047-0.694-0.12-1.041-0.229C115.774,434.212,116.121,434.287,116.468,434.333z"/>
<path fill="none" stroke="#231F20" stroke-width="2" stroke-miterlimit="10" d="M204.382,510.177
	c-12.559-14.819-7.903-35.241-6.139-53.479c1.248-12.894,5.477-24.91,7.302-37.699c0.324-2.27,0.318-4.843,0.182-7.549
	c-3.501,4.566-7.188,6.28-9.792-0.16c-4.622,3.468-8.373,9.643-13.558,11.355c0.422-4.388,1.434-7.871,2.249-12.265
	c-10.09,4.748-21.327,16.979-29.515,26.336c7.167,16.409,12.159,33.426,13.913,51.539c1.5,15.501,0.096,39.495,18.7,42.088
	c5.345,0.745,23.414,1.075,26.682-3.771C219.417,519.14,208.287,514.783,204.382,510.177z"/>
</svg>
