<?xml version="1.0" encoding="utf-8"?>
<!-- Generator: Adobe Illustrator 16.0.0, SVG Export Plug-In . SVG Version: 6.00 Build 0)  -->
<!DOCTYPE svg PUBLIC "-//W3C//DTD SVG 1.1//EN" "http://www.w3.org/Graphics/SVG/1.1/DTD/svg11.dtd">
<svg version="1.1" id="Layer_1" xmlns="http://www.w3.org/2000/svg" xmlns:xlink="http://www.w3.org/1999/xlink" x="0px" y="0px"
	 width="612px" height="612px" viewBox="0 90 612 612" enable-background="new 0 90 612 612" xml:space="preserve">
<path fill="none" stroke="#000000" stroke-width="2" d="M118.239,573.445c0.36-1.353,1.015-2.299,1.961-2.84
	s1.916-0.721,2.907-0.541c0.992,0.181,1.826,0.688,2.502,1.521c0.676,0.835,0.924,1.927,0.744,3.279
	c-0.271,1.714-0.62,3.427-1.048,5.14c-0.429,1.714-0.891,3.403-1.386,5.071c-0.676,2.164-1.432,4.283-2.266,6.356
	c-0.834,2.075-1.612,4.193-2.333,6.357c-0.721,2.028-1.453,4.046-2.197,6.053c-0.745,2.006-1.521,4.023-2.333,6.053
	c-0.271,0.676-0.553,1.386-0.845,2.13c-0.293,0.744-0.666,1.387-1.116,1.927c-0.676,0.901-1.601,1.442-2.773,1.622
	c-1.173,0.181-2.209-0.113-3.111-0.879c-0.722-0.632-1.241-1.409-1.556-2.333c-0.316-0.924-0.654-1.814-1.015-2.672
	c-0.406-1.082-0.869-2.275-1.386-3.583c-0.519-1.307-0.958-2.479-1.319-3.517c-0.767-2.028-1.5-4.067-2.198-6.12
	c-0.7-2.051-1.432-4.092-2.198-6.12c-0.632,1.894-1.297,3.731-1.995,5.512c-0.7,1.781-1.364,3.596-1.995,5.444
	c-0.497,1.217-0.97,2.435-1.42,3.651c-0.451,1.218-0.925,2.412-1.42,3.584c-0.315,0.812-0.575,1.432-0.778,1.86
	c-0.203,0.428-0.53,1.093-0.98,1.994c-0.315,0.721-0.789,1.363-1.419,1.927c-0.632,0.563-1.297,0.947-1.995,1.15
	c-0.7,0.202-1.41,0.191-2.13-0.034c-0.722-0.226-1.353-0.767-1.894-1.622c-0.767-1.173-1.296-2.547-1.589-4.126
	c-0.294-1.577-0.643-3.02-1.048-4.327c-0.271-0.812-0.531-1.623-0.778-2.435c-0.249-0.812-0.507-1.6-0.778-2.367
	c-0.271-0.812-0.553-1.623-0.845-2.435c-0.293-0.812-0.575-1.6-0.845-2.367c-0.902-2.613-1.837-5.195-2.806-7.743
	c-0.97-2.546-1.951-5.105-2.942-7.675c-0.181-0.541-0.429-1.092-0.744-1.656c-0.316-0.563-0.609-1.15-0.879-1.759
	s-0.485-1.217-0.643-1.825c-0.159-0.609-0.215-1.206-0.169-1.793c0.09-0.766,0.372-1.42,0.845-1.961
	c0.473-0.541,1.025-0.935,1.656-1.184c0.631-0.247,1.308-0.338,2.029-0.271s1.375,0.35,1.961,0.846
	c1.217,1.038,2.13,2.412,2.739,4.125c0.609,1.714,1.184,3.292,1.725,4.733c0.63,1.578,1.217,3.168,1.758,4.768
	c0.541,1.601,1.127,3.19,1.758,4.768c0.631,1.714,1.239,3.404,1.826,5.071c0.586,1.669,1.149,3.359,1.691,5.072
	c0.179-0.405,0.338-0.822,0.473-1.251c0.135-0.428,0.292-0.867,0.473-1.318c0.901-2.254,1.747-4.485,2.536-6.695
	c0.788-2.208,1.521-4.463,2.198-6.762c0.225-0.631,0.416-1.273,0.575-1.928c0.157-0.652,0.327-1.295,0.507-1.927
	c0.315-1.082,0.518-1.927,0.609-2.536c0.09-0.608,0.36-1.273,0.812-1.995c0.406-0.631,0.947-1.092,1.623-1.387
	c0.676-0.293,1.375-0.428,2.096-0.405c0.721,0.023,1.386,0.215,1.995,0.574c0.609,0.362,1.071,0.903,1.386,1.623
	c0.135,0.271,0.315,0.688,0.541,1.251c0.226,0.564,0.451,1.173,0.676,1.826s0.451,1.262,0.676,1.825
	c0.226,0.564,0.383,0.98,0.473,1.251c0.541,1.443,1.059,2.863,1.556,4.26c0.496,1.398,0.992,2.818,1.488,4.261
	c0.631,1.849,1.273,3.663,1.927,5.444c0.653,1.781,1.319,3.551,1.995,5.309c0.406-1.172,0.788-2.367,1.149-3.584
	c0.36-1.217,0.766-2.411,1.217-3.584c1.217-3.246,2.377-6.492,3.482-9.738c1.104-3.245,1.95-6.559,2.536-9.94L118.239,573.445z"/>
<path fill="none" stroke="#000000" stroke-width="2" d="M157.123,609.692c0.36,1.309,0.293,2.391-0.203,3.247
	c-0.497,0.855-1.184,1.43-2.062,1.724c-0.879,0.293-1.837,0.259-2.874-0.102c-1.038-0.361-1.939-1.082-2.705-2.164
	c-1.263,0.947-2.491,1.612-3.686,1.995c-1.195,0.383-2.559,0.598-4.091,0.643c-2.299,0.09-4.352-0.169-6.154-0.777
	c-1.804-0.608-3.325-1.521-4.564-2.739c-1.24-1.217-2.153-2.739-2.739-4.564c-0.586-1.826-0.79-3.933-0.609-6.323
	c0.09-0.991,0.259-1.961,0.507-2.907c0.248-0.947,0.529-1.871,0.845-2.772c0.36-0.991,0.867-2.052,1.521-3.179
	c0.653-1.126,1.319-2.097,1.995-2.908c2.435-2.975,5.478-5.115,9.129-6.424c0.631-0.225,1.488-0.428,2.57-0.608
	c1.082-0.18,2.174-0.259,3.279-0.237c1.104,0.023,2.164,0.169,3.178,0.439s1.769,0.744,2.266,1.421
	c0.406,0.541,0.698,1.014,0.879,1.42c0.18,0.405,0.281,0.834,0.304,1.285c0.022,0.45,0.022,0.936,0,1.453
	c-0.023,0.52-0.034,1.161-0.034,1.928c0,1.262-0.011,2.491-0.034,3.686c-0.023,1.194-0.011,2.399,0.034,3.617
	c0,0.405,0,0.937,0,1.589c0,0.654,0.022,1.342,0.067,2.062c0.045,0.723,0.102,1.41,0.169,2.062c0.067,0.654,0.169,1.184,0.304,1.59
	L157.123,609.692z"/>
<path fill="none" stroke="#000000" stroke-width="2" d="M142.787,606.649c0.496-0.314,1.059-0.664,1.69-1.048
	c0.631-0.383,1.194-0.822,1.691-1.318c-0.406-2.39-0.643-4.778-0.71-7.168c-0.068-2.39-0.057-4.802,0.034-7.236
	c-2.029,0.361-3.854,1.24-5.478,2.638c-1.623,1.398-2.75,3.043-3.381,4.936c-0.271,0.768-0.497,1.557-0.676,2.368
	c-0.181,0.811-0.249,1.6-0.203,2.366c0.044,1.037,0.315,1.905,0.812,2.604c0.496,0.7,1.092,1.229,1.792,1.589
	c0.699,0.362,1.442,0.564,2.231,0.608C141.377,607.033,142.111,606.92,142.787,606.649z"/>
<path fill="none" stroke="#000000" stroke-width="2" d="M171.392,608.476c0.496,0.451,0.913,1.026,1.251,1.725
	c0.339,0.699,0.518,1.397,0.541,2.097c0.023,0.698-0.135,1.353-0.473,1.961c-0.337,0.608-0.936,1.07-1.792,1.387
	c-0.676,0.225-1.42,0.27-2.231,0.135s-1.613-0.405-2.401-0.812c-0.79-0.405-1.488-0.89-2.096-1.454
	c-0.609-0.564-1.048-1.184-1.319-1.859c-0.091-0.225-0.159-0.483-0.203-0.777c-0.045-0.293-0.067-0.552-0.067-0.778v-37.53
	c0-1.037,0.394-1.916,1.184-2.638c0.788-0.722,1.657-1.15,2.604-1.285c0.45-0.044,0.935,0.023,1.454,0.202
	c0.518,0.182,1.002,0.44,1.453,0.778s0.822,0.732,1.116,1.184s0.439,0.925,0.439,1.42c0,1.172,0,2.728,0,4.665
	c0,1.939,0.011,4.058,0.034,6.357c0.022,2.299,0.034,4.678,0.034,7.134c0,2.459-0.012,4.812-0.034,7.067
	c-0.023,2.255-0.034,4.317-0.034,6.188c0,1.871-0.023,3.37-0.067,4.497L171.392,608.476z"/>
<path fill="none" stroke="#000000" stroke-width="2" d="M190.192,608.476c0.496,0.451,0.913,1.026,1.251,1.725
	c0.338,0.699,0.518,1.397,0.541,2.097c0.022,0.698-0.135,1.353-0.473,1.961s-0.936,1.07-1.792,1.387
	c-0.676,0.225-1.42,0.27-2.231,0.135s-1.612-0.405-2.401-0.812c-0.79-0.405-1.488-0.89-2.096-1.454
	c-0.609-0.564-1.048-1.184-1.319-1.859c-0.09-0.225-0.158-0.483-0.203-0.777c-0.045-0.293-0.067-0.552-0.067-0.778v-37.53
	c0-1.037,0.395-1.916,1.184-2.638c0.789-0.722,1.657-1.15,2.604-1.285c0.45-0.044,0.935,0.023,1.454,0.202
	c0.518,0.182,1.002,0.44,1.454,0.778c0.45,0.338,0.822,0.732,1.116,1.184c0.293,0.451,0.439,0.925,0.439,1.42
	c0,1.172,0,2.728,0,4.665c0,1.939,0.011,4.058,0.034,6.357c0.022,2.299,0.034,4.678,0.034,7.134c0,2.459-0.012,4.812-0.034,7.067
	c-0.023,2.255-0.034,4.317-0.034,6.188c0,1.871-0.023,3.37-0.067,4.497L190.192,608.476z"/>
<path fill="none" stroke="#000000" stroke-width="2" d="M225.29,609.692c0.36,1.309,0.293,2.391-0.203,3.247
	c-0.497,0.855-1.184,1.43-2.062,1.724c-0.879,0.293-1.837,0.259-2.874-0.102c-1.038-0.361-1.939-1.082-2.705-2.164
	c-1.263,0.947-2.492,1.612-3.686,1.995c-1.195,0.383-2.559,0.598-4.091,0.643c-2.299,0.09-4.351-0.169-6.153-0.777
	c-1.804-0.608-3.325-1.521-4.564-2.739c-1.241-1.217-2.154-2.739-2.739-4.564c-0.586-1.826-0.79-3.933-0.609-6.323
	c0.09-0.991,0.259-1.961,0.507-2.907c0.247-0.947,0.529-1.871,0.845-2.772c0.36-0.991,0.867-2.052,1.521-3.179
	c0.653-1.126,1.319-2.097,1.995-2.908c2.435-2.975,5.478-5.115,9.129-6.424c0.631-0.225,1.488-0.428,2.57-0.608
	c1.082-0.18,2.175-0.259,3.28-0.237c1.104,0.023,2.164,0.169,3.178,0.439s1.769,0.744,2.266,1.421
	c0.406,0.541,0.698,1.014,0.879,1.42c0.179,0.405,0.281,0.834,0.304,1.285c0.022,0.45,0.022,0.936,0,1.453
	c-0.023,0.52-0.034,1.161-0.034,1.928c0,1.262-0.012,2.491-0.034,3.686c-0.023,1.194-0.012,2.399,0.034,3.617
	c0,0.405,0,0.937,0,1.589c0,0.654,0.022,1.342,0.067,2.062c0.044,0.723,0.102,1.41,0.169,2.062c0.067,0.654,0.169,1.184,0.304,1.59
	L225.29,609.692z"/>
<path fill="none" stroke="#000000" stroke-width="2" d="M210.953,606.649c0.496-0.314,1.059-0.664,1.69-1.048
	c0.631-0.383,1.194-0.822,1.691-1.318c-0.406-2.39-0.643-4.778-0.71-7.168c-0.068-2.39-0.057-4.802,0.034-7.236
	c-2.029,0.361-3.854,1.24-5.477,2.638c-1.623,1.398-2.75,3.043-3.381,4.936c-0.271,0.768-0.497,1.557-0.676,2.368
	c-0.181,0.811-0.249,1.6-0.203,2.366c0.044,1.037,0.315,1.905,0.812,2.604c0.496,0.7,1.092,1.229,1.792,1.589
	c0.699,0.362,1.443,0.564,2.231,0.608C209.544,607.033,210.277,606.92,210.953,606.649z"/>
<path fill="none" stroke="#000000" stroke-width="2" d="M244.021,614.427c-1.309,0.044-2.56-0.046-3.753-0.271
	c-1.195-0.227-2.378-0.608-3.55-1.149c-0.586,0.315-1.161,0.473-1.725,0.473c-0.564,0-1.082-0.091-1.556-0.271
	c-0.473-0.181-0.879-0.396-1.217-0.643c-0.338-0.246-0.575-0.439-0.71-0.574c-0.497-0.721-0.79-1.532-0.879-2.435
	c-0.091-0.901,0.203-1.759,0.879-2.57v-34.758c0-1.037,0.36-1.904,1.082-2.604c0.721-0.699,1.556-1.139,2.502-1.319
	c0.947-0.18,1.86-0.021,2.739,0.474c0.879,0.496,1.476,1.397,1.792,2.704c0.18,0.812,0.327,1.613,0.439,2.401
	c0.112,0.789,0.18,1.702,0.203,2.738c0.022,1.038,0.022,2.231,0,3.584c-0.023,1.353-0.079,3.021-0.169,5.005
	c0.406-0.225,0.822-0.439,1.251-0.643c0.428-0.203,0.867-0.416,1.319-0.643c1.262-0.585,2.614-0.946,4.058-1.082
	c1.441-0.136,2.851-0.056,4.226,0.236c1.375,0.294,2.66,0.835,3.854,1.623c1.194,0.789,2.174,1.815,2.942,3.077
	c1.082,1.803,1.814,3.911,2.198,6.322c0.382,2.412,0.382,4.802,0,7.168c-0.383,2.367-1.173,4.565-2.367,6.594
	c-1.195,2.028-2.874,3.539-5.038,4.53c-1.352,0.631-2.738,1.115-4.158,1.454S245.508,614.381,244.021,614.427z"/>
<path fill="none" stroke="#000000" stroke-width="2" d="M239.76,597.115v8.115c0.09,0.09,0.179,0.158,0.271,0.202
	c0.09,0.045,0.179,0.113,0.271,0.202c4.058,1.353,7.574,0.43,10.549-2.772c0.677-1.802,1.003-3.505,0.98-5.104
	c-0.023-1.601-0.327-3.325-0.913-5.174c-0.226-0.541-0.598-0.89-1.116-1.048c-0.519-0.158-0.98-0.35-1.386-0.575
	c-0.722-0.135-1.5,0-2.333,0.406c-0.835,0.405-1.635,0.913-2.401,1.521c-0.767,0.608-1.466,1.273-2.096,1.995
	c-0.632,0.722-1.127,1.33-1.488,1.825L239.76,597.115z"/>
<path fill="none" stroke="#000000" stroke-width="2" d="M265.863,572.296c0.179-1.667,0.754-2.896,1.725-3.685
	c0.969-0.789,1.995-1.172,3.077-1.149c1.082,0.022,2.085,0.439,3.009,1.251c0.924,0.812,1.408,1.961,1.454,3.449
	c0.09,1.533-0.304,2.716-1.184,3.55c-0.879,0.835-1.883,1.309-3.009,1.42c-1.127,0.113-2.187-0.191-3.178-0.912
	c-0.992-0.722-1.601-1.871-1.825-3.449L265.863,572.296z"/>
<path fill="none" stroke="#000000" stroke-width="2" d="M274.789,610.774c-0.09,0.903-0.406,1.702-0.947,2.401
	c-0.541,0.698-1.161,1.205-1.86,1.521c-0.7,0.315-1.454,0.383-2.266,0.203c-0.812-0.181-1.533-0.676-2.164-1.487
	c-0.362-0.451-0.621-0.958-0.778-1.521c-0.158-0.564-0.259-1.15-0.304-1.759c-0.045-0.608-0.057-1.217-0.034-1.825
	c0.022-0.608,0.034-1.16,0.034-1.657c-0.045-2.659-0.057-5.297-0.034-7.912c0.022-2.614,0.011-5.251-0.034-7.912
	c0-1.083-0.068-2.175-0.203-3.279s-0.067-2.198,0.203-3.28c0.226-0.811,0.62-1.51,1.184-2.096c0.563-0.586,1.194-0.991,1.894-1.218
	c0.699-0.225,1.42-0.247,2.164-0.067c0.744,0.181,1.386,0.654,1.927,1.42c0.721,0.903,1.082,1.792,1.082,2.671s0,1.951,0,3.213
	c0,1.533,0,3.066,0,4.599c0,1.533,0.022,3.043,0.067,4.53c0.044,2.164,0.068,4.328,0.068,6.491c0,2.164,0,4.328,0,6.492V610.774z"/>
<path fill="none" stroke="#000000" stroke-width="2" d="M310.359,609.692c0.36,1.309,0.293,2.391-0.203,3.247
	s-1.184,1.43-2.062,1.724c-0.881,0.293-1.838,0.259-2.875-0.102c-1.038-0.361-1.939-1.082-2.705-2.164
	c-1.262,0.947-2.491,1.612-3.686,1.995c-1.195,0.383-2.559,0.598-4.091,0.643c-2.299,0.09-4.352-0.169-6.154-0.777
	c-1.804-0.608-3.325-1.521-4.564-2.739c-1.24-1.217-2.153-2.739-2.739-4.564c-0.586-1.826-0.79-3.933-0.609-6.323
	c0.09-0.991,0.259-1.961,0.507-2.907c0.248-0.947,0.529-1.871,0.845-2.772c0.36-0.991,0.867-2.052,1.521-3.179
	c0.653-1.126,1.319-2.097,1.995-2.908c2.435-2.975,5.478-5.115,9.129-6.424c0.631-0.225,1.488-0.428,2.57-0.608
	c1.082-0.18,2.174-0.259,3.279-0.237c1.104,0.023,2.164,0.169,3.178,0.439s1.769,0.744,2.266,1.421
	c0.406,0.541,0.699,1.014,0.879,1.42c0.18,0.405,0.28,0.834,0.305,1.285c0.021,0.45,0.021,0.936,0,1.453
	c-0.024,0.52-0.034,1.161-0.034,1.928c0,1.262-0.012,2.491-0.035,3.686c-0.022,1.194-0.011,2.399,0.035,3.617
	c0,0.405,0,0.937,0,1.589c0,0.654,0.021,1.342,0.066,2.062c0.045,0.723,0.103,1.41,0.169,2.062c0.067,0.654,0.169,1.184,0.305,1.59
	L310.359,609.692z"/>
<path fill="none" stroke="#000000" stroke-width="2" d="M296.023,606.649c0.496-0.314,1.059-0.664,1.69-1.048
	c0.631-0.383,1.194-0.822,1.691-1.318c-0.406-2.39-0.643-4.778-0.71-7.168c-0.068-2.39-0.057-4.802,0.034-7.236
	c-2.029,0.361-3.854,1.24-5.477,2.638c-1.623,1.398-2.75,3.043-3.381,4.936c-0.271,0.768-0.497,1.557-0.676,2.368
	c-0.181,0.811-0.249,1.6-0.203,2.366c0.044,1.037,0.315,1.905,0.812,2.604c0.496,0.7,1.092,1.229,1.792,1.589
	c0.699,0.362,1.442,0.564,2.231,0.608C294.614,607.033,295.347,606.92,296.023,606.649z"/>
<path fill="none" stroke="#000000" stroke-width="2" d="M354.382,614.427c-1.31,0.044-2.56-0.046-3.754-0.271
	c-1.195-0.227-2.379-0.608-3.55-1.149c-0.587,0.315-1.162,0.473-1.725,0.473c-0.564,0-1.082-0.091-1.556-0.271
	c-0.473-0.181-0.88-0.396-1.217-0.643c-0.339-0.246-0.575-0.439-0.71-0.574c-0.497-0.721-0.789-1.532-0.88-2.435
	c-0.09-0.901,0.204-1.759,0.88-2.57v-34.758c0-1.037,0.36-1.904,1.082-2.604c0.721-0.699,1.556-1.139,2.503-1.319
	c0.946-0.18,1.859-0.021,2.738,0.474c0.88,0.496,1.477,1.397,1.792,2.704c0.181,0.812,0.327,1.613,0.439,2.401
	c0.113,0.789,0.181,1.702,0.204,2.738c0.021,1.038,0.021,2.231,0,3.584c-0.023,1.353-0.08,3.021-0.169,5.005
	c0.405-0.225,0.821-0.439,1.25-0.643s0.868-0.416,1.318-0.643c1.263-0.585,2.614-0.946,4.059-1.082
	c1.441-0.136,2.851-0.056,4.226,0.236c1.375,0.294,2.66,0.835,3.854,1.623c1.194,0.789,2.175,1.815,2.942,3.077
	c1.082,1.803,1.814,3.911,2.198,6.322c0.382,2.412,0.382,4.802,0,7.168c-0.384,2.367-1.173,4.565-2.367,6.594
	c-1.195,2.028-2.874,3.539-5.038,4.53c-1.352,0.631-2.738,1.115-4.158,1.454S355.868,614.381,354.382,614.427z"/>
<path fill="none" stroke="#000000" stroke-width="2" d="M350.121,597.115v8.115c0.09,0.09,0.18,0.158,0.271,0.202
	c0.089,0.045,0.179,0.113,0.27,0.202c4.058,1.353,7.574,0.43,10.55-2.772c0.676-1.802,1.003-3.505,0.98-5.104
	c-0.022-1.601-0.327-3.325-0.913-5.174c-0.226-0.541-0.598-0.89-1.115-1.048c-0.519-0.158-0.981-0.35-1.387-0.575
	c-0.722-0.135-1.499,0-2.333,0.406c-0.834,0.405-1.634,0.913-2.4,1.521c-0.768,0.608-1.466,1.273-2.097,1.995
	c-0.632,0.722-1.127,1.33-1.487,1.825L350.121,597.115z"/>
<path fill="none" stroke="#000000" stroke-width="2" d="M376.224,572.296c0.179-1.667,0.754-2.896,1.725-3.685
	c0.968-0.789,1.995-1.172,3.076-1.149c1.082,0.022,2.085,0.439,3.009,1.251s1.409,1.961,1.454,3.449
	c0.09,1.533-0.305,2.716-1.184,3.55c-0.88,0.835-1.883,1.309-3.01,1.42c-1.127,0.113-2.187-0.191-3.178-0.912
	c-0.992-0.722-1.601-1.871-1.825-3.449L376.224,572.296z"/>
<path fill="none" stroke="#000000" stroke-width="2" d="M385.15,610.774c-0.091,0.903-0.406,1.702-0.947,2.401
	c-0.542,0.698-1.161,1.205-1.859,1.521c-0.7,0.315-1.454,0.383-2.266,0.203c-0.812-0.181-1.533-0.676-2.164-1.487
	c-0.361-0.451-0.62-0.958-0.777-1.521c-0.159-0.564-0.261-1.15-0.305-1.759c-0.046-0.608-0.058-1.217-0.034-1.825
	c0.022-0.608,0.034-1.16,0.034-1.657c-0.046-2.659-0.058-5.297-0.034-7.912c0.022-2.614,0.011-5.251-0.033-7.912
	c0-1.083-0.068-2.175-0.203-3.279c-0.136-1.104-0.067-2.198,0.203-3.28c0.225-0.811,0.619-1.51,1.184-2.096
	c0.562-0.586,1.193-0.991,1.894-1.218c0.698-0.225,1.42-0.247,2.163-0.067c0.744,0.181,1.387,0.654,1.927,1.42
	c0.722,0.903,1.083,1.792,1.083,2.671s0,1.951,0,3.213c0,1.533,0,3.066,0,4.599c0,1.533,0.021,3.043,0.066,4.53
	c0.045,2.164,0.068,4.328,0.068,6.491c0,2.164,0,4.328,0,6.492L385.15,610.774L385.15,610.774z"/>
<path fill="none" stroke="#000000" stroke-width="2" d="M409.562,604.215c1.127-0.72,2.198-1.036,3.213-0.946
	c1.014,0.091,1.848,0.44,2.502,1.048c0.652,0.608,1.015,1.42,1.082,2.435s-0.282,2.086-1.048,3.213
	c-0.497,0.768-1.207,1.466-2.131,2.097s-1.814,1.126-2.671,1.488c-1.983,0.901-3.989,1.307-6.019,1.217
	c-2.028-0.091-3.911-0.587-5.646-1.488c-1.736-0.901-3.235-2.152-4.498-3.753c-1.262-1.6-2.119-3.46-2.568-5.579
	c-0.903-4.058-0.722-7.956,0.541-11.699c0.496-1.353,1.092-2.659,1.792-3.922c0.698-1.262,1.544-2.411,2.536-3.449
	c0.991-1.036,2.097-1.949,3.313-2.739c1.217-0.788,2.546-1.317,3.99-1.589c0.991-0.18,2.254-0.169,3.787,0.034
	c1.532,0.202,3.031,0.598,4.497,1.184c1.465,0.586,2.75,1.353,3.854,2.3c1.105,0.946,1.725,2.073,1.86,3.38
	c0.089,0.723,0,1.387-0.271,1.995c-0.271,0.609-0.654,1.116-1.149,1.521c-0.497,0.406-1.071,0.688-1.725,0.846
	c-0.653,0.159-1.318,0.146-1.995-0.034c-0.812-0.225-1.453-0.529-1.927-0.913c-0.473-0.382-1.094-0.889-1.859-1.521
	c-0.361-0.09-0.7-0.237-1.015-0.44c-0.316-0.202-0.654-0.28-1.014-0.236l-1.826,0.202c-0.316,0.182-0.608,0.339-0.879,0.474
	c-0.271,0.136-0.542,0.271-0.812,0.405c-1.534,1.534-2.661,3.235-3.382,5.106c-0.722,1.871-0.902,3.889-0.541,6.053
	c0.226,1.397,0.665,2.547,1.319,3.449c0.652,0.901,1.42,1.521,2.299,1.859c0.88,0.338,1.848,0.371,2.908,0.102
	c1.059-0.271,2.106-0.88,3.145-1.826L409.562,604.215z"/>
<path fill="none" stroke="#000000" stroke-width="2" d="M419.706,596.506c0.315-1.308,0.755-2.591,1.318-3.854
	c0.563-1.262,1.252-2.468,2.062-3.618c0.812-1.149,1.725-2.197,2.739-3.145c1.015-0.946,2.106-1.713,3.28-2.299
	c2.072-1.083,4.158-1.634,6.255-1.657c2.097-0.021,4.046,0.396,5.85,1.251c1.803,0.857,3.336,2.13,4.599,3.821
	c1.263,1.69,2.097,3.708,2.502,6.053c0.226,1.533,0.349,2.987,0.373,4.361c0.021,1.376-0.126,2.807-0.44,4.295
	c-0.452,2.119-1.364,4.226-2.738,6.322c-1.376,2.097-3.022,3.854-4.937,5.274c-1.918,1.42-4.014,2.355-6.289,2.807
	c-2.277,0.45-4.565,0.09-6.865-1.082c-1.037-0.497-1.973-1.071-2.806-1.725c-0.835-0.652-1.59-1.431-2.266-2.333
	c-0.767-0.99-1.364-2.028-1.792-3.11c-0.429-1.082-0.778-2.208-1.049-3.381c-0.315-1.262-0.429-2.536-0.338-3.82
	c0.09-1.285,0.247-2.536,0.473-3.754L419.706,596.506z"/>
<path fill="none" stroke="#000000" stroke-width="2" d="M427.821,597.926c-0.135,0.722-0.248,1.432-0.338,2.13
	c-0.091,0.7-0.091,1.41,0,2.13c0.135,1.038,0.416,1.984,0.845,2.841c0.428,0.856,0.991,1.533,1.691,2.028
	c0.699,0.497,1.498,0.756,2.4,0.778c0.901,0.023,1.87-0.259,2.908-0.846c1.307-0.766,2.435-1.949,3.381-3.551
	c0.947-1.6,1.532-3.268,1.759-5.004c0.225-1.735,0.044-3.381-0.542-4.937c-0.586-1.555-1.735-2.671-3.449-3.348
	c-1.127,0-2.163,0.215-3.11,0.643c-0.946,0.429-1.771,0.992-2.468,1.691c-0.7,0.699-1.309,1.521-1.826,2.468
	C428.554,595.897,428.136,596.89,427.821,597.926z"/>
<path fill="none" stroke="#000000" stroke-width="2" d="M462.039,608.476c0.496,0.451,0.913,1.026,1.251,1.725
	c0.339,0.699,0.518,1.397,0.541,2.097c0.022,0.698-0.135,1.353-0.473,1.961s-0.937,1.07-1.792,1.387
	c-0.677,0.225-1.42,0.27-2.231,0.135s-1.613-0.405-2.401-0.812c-0.789-0.405-1.487-0.89-2.097-1.454
	c-0.608-0.564-1.048-1.184-1.318-1.859c-0.09-0.225-0.158-0.483-0.202-0.777c-0.045-0.293-0.068-0.552-0.068-0.778v-37.53
	c0-1.037,0.396-1.916,1.185-2.638c0.788-0.722,1.656-1.15,2.604-1.285c0.45-0.044,0.935,0.023,1.453,0.202
	c0.519,0.182,1.003,0.44,1.454,0.778c0.45,0.338,0.823,0.732,1.116,1.184s0.439,0.925,0.439,1.42c0,1.172,0,2.728,0,4.665
	c0,1.939,0.011,4.058,0.034,6.357c0.021,2.299,0.034,4.678,0.034,7.134c0,2.459-0.013,4.812-0.034,7.067
	c-0.023,2.255-0.034,4.317-0.034,6.188c0,1.871-0.022,3.37-0.067,4.497L462.039,608.476z"/>
<path fill="none" stroke="#000000" stroke-width="2" d="M468.26,596.506c0.315-1.308,0.754-2.591,1.319-3.854
	c0.562-1.262,1.251-2.468,2.062-3.618c0.811-1.149,1.724-2.197,2.738-3.145c1.015-0.946,2.106-1.713,3.28-2.299
	c2.073-1.083,4.159-1.634,6.255-1.657c2.097-0.021,4.046,0.396,5.851,1.251c1.802,0.857,3.335,2.13,4.599,3.821
	c1.262,1.69,2.096,3.708,2.501,6.053c0.226,1.533,0.35,2.987,0.372,4.361c0.022,1.376-0.124,2.807-0.439,4.295
	c-0.451,2.119-1.364,4.226-2.739,6.322s-3.021,3.854-4.936,5.274c-1.917,1.42-4.014,2.355-6.289,2.807
	c-2.277,0.45-4.565,0.09-6.864-1.082c-1.037-0.497-1.974-1.071-2.807-1.725c-0.834-0.652-1.59-1.431-2.266-2.333
	c-0.767-0.99-1.363-2.028-1.791-3.11c-0.43-1.082-0.778-2.208-1.049-3.381c-0.316-1.262-0.429-2.536-0.339-3.82
	c0.09-1.285,0.248-2.536,0.474-3.754L468.26,596.506z"/>
<path fill="none" stroke="#000000" stroke-width="2" d="M476.375,597.926c-0.135,0.722-0.248,1.432-0.338,2.13
	c-0.091,0.7-0.091,1.41,0,2.13c0.136,1.038,0.417,1.984,0.846,2.841c0.428,0.856,0.99,1.533,1.69,2.028
	c0.698,0.497,1.498,0.756,2.4,0.778c0.901,0.023,1.871-0.259,2.908-0.846c1.308-0.766,2.435-1.949,3.381-3.551
	c0.947-1.6,1.532-3.268,1.759-5.004c0.225-1.735,0.044-3.381-0.541-4.937c-0.587-1.555-1.736-2.671-3.449-3.348
	c-1.128,0-2.164,0.215-3.111,0.643c-0.946,0.429-1.77,0.992-2.468,1.691c-0.7,0.699-1.309,1.521-1.826,2.468
	C477.107,595.897,476.689,596.89,476.375,597.926z"/>
<path fill="none" stroke="#000000" stroke-width="2" d="M503.424,591.806c0.044-0.293,0.022-0.822-0.067-1.589
	c-0.722-0.405-1.285-0.924-1.69-1.556c-0.406-0.63-0.643-1.307-0.71-2.028c-0.067-0.721,0.067-1.408,0.405-2.062
	c0.339-0.652,0.89-1.206,1.657-1.657c1.036-0.585,2.174-0.698,3.415-0.338c1.239,0.361,2.31,0.902,3.212,1.623
	c1.126-0.855,2.299-1.577,3.516-2.164c1.218-0.585,2.457-0.98,3.72-1.184s2.546-0.169,3.854,0.102
	c1.308,0.271,2.592,0.835,3.855,1.69c0.63,0.406,1.217,0.913,1.758,1.521s0.879,1.297,1.015,2.062
	c0.225,1.127,0.135,2.107-0.271,2.942c-0.406,0.834-0.971,1.442-1.691,1.825c-0.722,0.383-1.533,0.497-2.435,0.338
	c-0.902-0.157-1.758-0.642-2.569-1.453c-0.271-0.181-0.463-0.327-0.574-0.44c-0.114-0.112-0.351-0.259-0.711-0.439
	c-0.722-0.18-1.432-0.136-2.13,0.136c-0.699,0.271-1.375,0.643-2.027,1.115c-0.654,0.473-1.263,0.992-1.826,1.555
	c-0.564,0.565-1.071,1.072-1.521,1.521v17.245c0,0.676-0.135,1.33-0.405,1.961c-0.406,1.036-1.049,1.759-1.928,2.163
	c-0.879,0.406-1.758,0.519-2.638,0.339c-0.879-0.181-1.646-0.632-2.299-1.353c-0.654-0.722-0.98-1.646-0.98-2.772v-18.935
	C503.356,592.156,503.379,592.1,503.424,591.806z"/>
<path fill="none" stroke="#000000" stroke-width="2" d="M150.894,670.667c0.467,0.9,0.633,1.81,0.5,2.728
	c-0.133,0.917-0.734,1.593-1.801,2.027c-1,0.366-1.96,0.267-2.877-0.301c-0.918-0.567-1.744-1.335-2.477-2.302
	c-0.734-0.969-1.369-1.985-1.902-3.053c-0.534-1.068-0.934-1.936-1.201-2.603c-1.701-3.937-2.619-8.031-2.752-12.285
	c-0.134-4.253,0.417-8.398,1.651-12.436c0.301-1.032,0.701-2.009,1.201-2.927c0.5-0.917,1-1.843,1.501-2.777
	c0.301-0.533,0.676-1.2,1.126-2.002c0.451-0.801,0.976-1.517,1.577-2.152c0.601-0.633,1.259-1.084,1.976-1.351
	s1.493-0.15,2.327,0.351c0.801,0.5,1.233,1.093,1.301,1.775c0.067,0.685-0.059,1.385-0.375,2.103
	c-0.318,0.718-0.718,1.41-1.201,2.077c-0.484,0.667-0.876,1.234-1.176,1.701c-0.434,0.768-0.792,1.418-1.076,1.951
	c-0.284,0.534-0.518,0.984-0.701,1.352c-0.184,0.367-0.325,0.692-0.425,0.976c-0.1,0.283-0.184,0.559-0.25,0.826
	c-0.5,1.734-0.868,3.595-1.101,5.579c-0.234,1.985-0.3,3.979-0.2,5.979c0.101,2.002,0.4,3.963,0.901,5.88
	c0.5,1.919,1.234,3.678,2.202,5.28c0.167,0.3,0.383,0.607,0.65,0.926c0.267,0.316,0.509,0.6,0.726,0.851
	c0.216,0.25,0.392,0.45,0.525,0.601c0.133,0.149,0.167,0.19,0.101,0.124L150.894,670.667z"/>
<path fill="none" stroke="#000000" stroke-width="2" d="M165.506,668.314c-0.968,0.033-1.894-0.033-2.777-0.199
	c-0.884-0.168-1.76-0.451-2.627-0.852c-0.434,0.233-0.859,0.351-1.276,0.351c-0.418,0-0.801-0.067-1.151-0.2
	c-0.35-0.134-0.65-0.293-0.901-0.476c-0.25-0.183-0.425-0.325-0.525-0.425c-0.367-0.533-0.584-1.134-0.651-1.802
	c-0.067-0.667,0.151-1.301,0.651-1.9V637.09c0-0.768,0.267-1.409,0.801-1.927c0.533-0.517,1.151-0.842,1.852-0.976
	s1.376-0.017,2.027,0.35c0.65,0.368,1.092,1.034,1.326,2.002c0.133,0.601,0.242,1.193,0.325,1.777
	c0.083,0.583,0.133,1.259,0.15,2.026c0.017,0.768,0.017,1.651,0,2.652c-0.017,1.001-0.059,2.235-0.125,3.703
	c0.3-0.166,0.608-0.325,0.926-0.476c0.317-0.149,0.642-0.308,0.976-0.475c0.934-0.434,1.935-0.701,3.002-0.801
	c1.067-0.101,2.11-0.041,3.127,0.175c1.018,0.217,1.968,0.618,2.853,1.2c0.883,0.585,1.609,1.344,2.177,2.277
	c0.801,1.335,1.343,2.895,1.627,4.68c0.283,1.785,0.283,3.554,0,5.305c-0.284,1.751-0.868,3.378-1.751,4.879
	c-0.884,1.501-2.127,2.619-3.729,3.354c-1.001,0.467-2.027,0.826-3.078,1.076C167.683,668.14,166.607,668.281,165.506,668.314z"/>
<path fill="none" stroke="#000000" stroke-width="2" d="M162.354,655.504v6.005c0.066,0.066,0.133,0.117,0.2,0.15
	s0.133,0.083,0.2,0.149c3.002,1.001,5.605,0.317,7.807-2.052c0.501-1.334,0.742-2.593,0.726-3.778
	c-0.017-1.184-0.242-2.46-0.676-3.828c-0.167-0.4-0.442-0.659-0.826-0.776c-0.384-0.116-0.726-0.258-1.025-0.425
	c-0.534-0.101-1.11,0-1.727,0.3c-0.618,0.3-1.21,0.676-1.777,1.126c-0.567,0.45-1.084,0.943-1.551,1.477
	c-0.468,0.533-0.834,0.984-1.101,1.352L162.354,655.504z"/>
<path fill="none" stroke="#000000" stroke-width="2" d="M188.926,663.911c0.366,0.334,0.675,0.759,0.926,1.276
	s0.383,1.034,0.4,1.551c0.017,0.518-0.101,1.001-0.351,1.452c-0.25,0.449-0.693,0.792-1.327,1.025c-0.5,0.166-1.051,0.2-1.651,0.101
	c-0.601-0.101-1.193-0.301-1.776-0.601c-0.584-0.301-1.101-0.659-1.551-1.076c-0.45-0.418-0.775-0.876-0.976-1.376
	c-0.067-0.167-0.117-0.358-0.15-0.575c-0.034-0.217-0.05-0.408-0.05-0.575V637.34c0-0.768,0.292-1.418,0.876-1.952
	c0.583-0.532,1.226-0.851,1.926-0.95c0.333-0.033,0.692,0.017,1.076,0.15c0.383,0.133,0.742,0.324,1.076,0.575
	c0.333,0.249,0.608,0.543,0.826,0.876c0.217,0.334,0.325,0.684,0.325,1.051c0,0.867,0,2.019,0,3.453s0.008,3.002,0.025,4.704
	c0.017,1.701,0.025,3.461,0.025,5.279c0,1.819-0.008,3.562-0.025,5.229c-0.017,1.669-0.025,3.195-0.025,4.578
	c0,1.386-0.017,2.494-0.05,3.328L188.926,663.911z"/>
<path fill="none" stroke="#000000" stroke-width="2" d="M214.897,664.812c0.267,0.969,0.217,1.769-0.15,2.402
	c-0.368,0.634-0.875,1.059-1.526,1.276c-0.65,0.217-1.36,0.191-2.126-0.075c-0.768-0.268-1.435-0.801-2.002-1.602
	c-0.935,0.701-1.844,1.192-2.728,1.477c-0.884,0.283-1.894,0.441-3.028,0.476c-1.701,0.065-3.22-0.126-4.554-0.575
	c-1.335-0.451-2.461-1.127-3.378-2.027c-0.918-0.901-1.593-2.027-2.027-3.378c-0.434-1.352-0.584-2.911-0.45-4.68
	c0.066-0.733,0.191-1.451,0.375-2.151c0.183-0.702,0.392-1.385,0.625-2.053c0.267-0.733,0.642-1.518,1.126-2.353
	c0.483-0.833,0.976-1.551,1.476-2.151c1.802-2.202,4.053-3.786,6.756-4.754c0.467-0.167,1.101-0.317,1.902-0.45
	c0.8-0.133,1.609-0.192,2.427-0.176c0.817,0.018,1.601,0.125,2.352,0.325s1.309,0.55,1.676,1.051c0.301,0.4,0.517,0.751,0.651,1.052
	c0.133,0.3,0.208,0.617,0.225,0.951c0.017,0.333,0.017,0.692,0,1.075c-0.017,0.384-0.025,0.859-0.025,1.427
	c0,0.934-0.008,1.844-0.025,2.728c-0.017,0.884-0.008,1.775,0.025,2.677c0,0.3,0,0.692,0,1.176c0,0.484,0.017,0.993,0.05,1.526
	c0.033,0.534,0.075,1.043,0.125,1.526c0.05,0.483,0.125,0.876,0.225,1.176L214.897,664.812z"/>
<path fill="none" stroke="#000000" stroke-width="2" d="M204.289,662.561c0.367-0.233,0.783-0.492,1.251-0.776
	c0.467-0.282,0.884-0.608,1.251-0.976c-0.3-1.769-0.476-3.536-0.526-5.305c-0.05-1.768-0.042-3.554,0.025-5.354
	c-1.501,0.268-2.853,0.918-4.053,1.951c-1.201,1.034-2.036,2.252-2.502,3.653c-0.2,0.567-0.368,1.15-0.5,1.751
	c-0.134,0.601-0.184,1.185-0.15,1.752c0.033,0.768,0.233,1.41,0.601,1.926c0.367,0.518,0.809,0.909,1.326,1.177
	c0.517,0.268,1.067,0.418,1.651,0.45C203.246,662.844,203.788,662.761,204.289,662.561z"/>
<path fill="none" stroke="#000000" stroke-width="2" d="M230.561,660.759c0.833-0.534,1.626-0.768,2.377-0.701
	c0.751,0.067,1.367,0.325,1.852,0.775c0.483,0.45,0.751,1.052,0.8,1.802c0.05,0.751-0.208,1.543-0.775,2.377
	c-0.368,0.568-0.893,1.084-1.577,1.551c-0.684,0.467-1.343,0.834-1.977,1.102c-1.468,0.667-2.952,0.967-4.454,0.901
	c-1.501-0.067-2.895-0.435-4.179-1.102c-1.285-0.667-2.394-1.593-3.328-2.777c-0.935-1.184-1.568-2.561-1.901-4.128
	c-0.667-3.003-0.534-5.889,0.4-8.657c0.366-1.001,0.808-1.969,1.326-2.902c0.517-0.934,1.143-1.784,1.876-2.552
	c0.733-0.768,1.551-1.442,2.452-2.027c0.901-0.583,1.884-0.977,2.952-1.176c0.734-0.133,1.668-0.125,2.802,0.024
	c1.134,0.15,2.244,0.442,3.328,0.876c1.084,0.434,2.035,1.001,2.853,1.701c0.817,0.701,1.276,1.535,1.376,2.503
	c0.066,0.533,0,1.025-0.2,1.476s-0.484,0.826-0.851,1.127c-0.368,0.3-0.792,0.508-1.276,0.624c-0.484,0.117-0.977,0.109-1.477-0.024
	c-0.6-0.166-1.076-0.393-1.426-0.676c-0.35-0.283-0.809-0.659-1.376-1.126c-0.268-0.066-0.518-0.176-0.751-0.325
	c-0.234-0.15-0.484-0.208-0.751-0.175l-1.351,0.149c-0.234,0.134-0.451,0.25-0.651,0.351c-0.2,0.1-0.4,0.2-0.6,0.3
	c-1.135,1.135-1.969,2.394-2.502,3.778c-0.534,1.385-0.667,2.878-0.4,4.479c0.167,1.034,0.492,1.885,0.976,2.552
	c0.484,0.668,1.051,1.126,1.702,1.377c0.65,0.249,1.367,0.274,2.152,0.074c0.783-0.2,1.559-0.649,2.327-1.351L230.561,660.759z"/>
<path fill="none" stroke="#000000" stroke-width="2" d="M244.922,667.79c-0.667,0.482-1.36,0.708-2.077,0.676
	c-0.718-0.034-1.351-0.325-1.901-0.876s-0.826-1.31-0.826-2.277v-28.523c0-0.5,0.142-0.959,0.425-1.377
	c0.283-0.416,0.642-0.758,1.076-1.025c0.433-0.267,0.908-0.441,1.426-0.525c0.517-0.083,0.993-0.066,1.427,0.05
	c0.433,0.118,0.808,0.368,1.126,0.751c0.316,0.385,0.492,0.909,0.525,1.576c0.101,2.603,0.15,4.938,0.15,7.006
	c0,2.069-0.017,4.154-0.05,6.256c0.767-0.567,1.493-1.159,2.177-1.776c0.683-0.617,1.358-1.259,2.027-1.927
	c0.6-0.633,1.184-1.342,1.751-2.127c0.567-0.783,1.284-1.326,2.152-1.626c0.633-0.2,1.226-0.233,1.776-0.101
	c0.55,0.135,1.018,0.394,1.401,0.776c0.383,0.384,0.642,0.851,0.776,1.401c0.133,0.55,0.1,1.143-0.101,1.776
	c-0.167,0.468-0.542,1.051-1.126,1.751c-0.584,0.701-1.234,1.418-1.952,2.152c-0.718,0.733-1.426,1.41-2.126,2.027
	c-0.701,0.617-1.268,1.093-1.702,1.426c1.167,1.268,2.318,2.552,3.453,3.853c1.134,1.302,2.285,2.603,3.453,3.903
	c0.5,0.568,0.976,1.077,1.427,1.526c0.45,0.451,0.842,0.993,1.176,1.626c0.267,0.535,0.35,1.085,0.25,1.651
	c-0.1,0.568-0.325,1.06-0.676,1.478c-0.351,0.416-0.784,0.726-1.301,0.926c-0.518,0.199-1.076,0.217-1.676,0.049
	c-0.568-0.167-1.118-0.475-1.651-0.926c-0.534-0.449-1.043-0.941-1.526-1.476c-0.484-0.533-0.943-1.084-1.376-1.651
	c-0.434-0.566-0.834-1.051-1.201-1.451c-0.901-1.033-1.793-2.06-2.677-3.078c-0.884-1.017-1.794-2.009-2.728-2.977v8.708
	C246.023,666.514,245.589,667.306,244.922,667.79z"/>
<path fill="none" stroke="#000000" stroke-width="2" d="M308.975,645.396c0.5-0.667,1.076-1.126,1.727-1.376s1.259-0.3,1.826-0.149
	c0.566,0.149,1.051,0.492,1.451,1.025c0.399,0.534,0.617,1.251,0.65,2.152c0.032,0.5-0.176,1.401-0.626,2.702
	c-0.449,1.301-0.992,3.002-1.625,5.104c-0.034,0.134-0.093,0.3-0.176,0.5c-0.084,0.2-0.199,0.534-0.351,1.001
	c-0.149,0.468-0.367,1.118-0.649,1.951c-0.284,0.834-0.676,1.951-1.177,3.354c-0.233,0.701-0.524,1.535-0.875,2.502
	c-0.352,0.968-0.794,1.826-1.326,2.577c-0.535,0.751-1.168,1.268-1.902,1.551c-0.734,0.284-1.619,0.075-2.652-0.625
	c-0.333-0.233-0.701-0.708-1.101-1.426s-0.785-1.492-1.151-2.327c-0.367-0.833-0.692-1.627-0.975-2.377
	c-0.284-0.751-0.476-1.242-0.576-1.477c-0.233-0.533-0.5-1.126-0.8-1.776c-0.3-0.649-0.584-1.309-0.851-1.976l-0.301,0.751
	c-0.434,1.101-0.868,2.201-1.301,3.302c-0.434,1.102-0.868,2.186-1.301,3.252c-0.234,0.568-0.451,1.186-0.65,1.852
	c-0.2,0.668-0.484,1.252-0.851,1.752c-0.3,0.433-0.675,0.741-1.126,0.926c-0.45,0.183-0.909,0.258-1.376,0.226
	c-0.467-0.035-0.909-0.159-1.326-0.376c-0.418-0.217-0.776-0.524-1.076-0.926c-0.468-0.667-0.834-1.435-1.101-2.302
	c-0.268-0.867-0.534-1.668-0.8-2.402c-0.368-1.033-0.701-2.093-1.001-3.178c-0.3-1.084-0.618-2.127-0.95-3.127
	c-0.167-0.533-0.384-1.234-0.651-2.103c-0.267-0.867-0.525-1.759-0.776-2.677c-0.25-0.917-0.45-1.81-0.6-2.678
	c-0.15-0.867-0.209-1.584-0.175-2.151c0.033-0.567,0.225-1.076,0.575-1.526s0.776-0.783,1.276-1.001
	c0.501-0.217,1.026-0.292,1.577-0.225c0.551,0.066,1.042,0.317,1.477,0.75c0.633,0.668,1.017,1.376,1.15,2.127
	c0.133,0.751,0.283,1.561,0.45,2.428c0.267,1.334,0.576,2.652,0.926,3.953s0.726,2.603,1.126,3.903
	c0.133-0.301,0.283-0.667,0.45-1.101c0.167-0.434,0.434-1.084,0.801-1.952c0.3-0.733,0.592-1.451,0.876-2.151
	c0.283-0.701,0.558-1.401,0.825-2.103c0.2-0.5,0.4-0.992,0.601-1.477c0.2-0.482,0.4-0.958,0.601-1.426
	c0.233-0.5,0.575-0.908,1.025-1.227c0.451-0.316,0.942-0.517,1.476-0.6s1.051-0.033,1.552,0.15c0.5,0.184,0.901,0.524,1.201,1.025
	c0.433,0.668,0.767,1.41,1,2.228c0.233,0.817,0.483,1.593,0.751,2.327c0.467,1.2,0.926,2.41,1.376,3.628
	c0.45,1.218,0.926,2.41,1.426,3.578c0.733-2.002,1.384-4.012,1.952-6.03s1.185-4.028,1.852-6.03L308.975,645.396z"/>
<path fill="none" stroke="#000000" stroke-width="2" d="M338.65,664.812c0.267,0.969,0.217,1.769-0.15,2.402
	s-0.876,1.059-1.526,1.276c-0.65,0.217-1.359,0.191-2.127-0.075c-0.768-0.268-1.435-0.801-2.002-1.602
	c-0.934,0.701-1.844,1.192-2.727,1.477c-0.885,0.283-1.895,0.441-3.028,0.476c-1.701,0.065-3.22-0.126-4.554-0.575
	c-1.335-0.451-2.461-1.127-3.378-2.027c-0.918-0.901-1.594-2.027-2.026-3.378c-0.434-1.352-0.585-2.911-0.45-4.68
	c0.065-0.733,0.19-1.451,0.375-2.151c0.183-0.702,0.392-1.385,0.625-2.053c0.267-0.733,0.642-1.518,1.126-2.353
	c0.483-0.833,0.976-1.551,1.476-2.151c1.802-2.202,4.054-3.786,6.756-4.754c0.467-0.167,1.102-0.317,1.901-0.45
	c0.802-0.133,1.609-0.192,2.428-0.176c0.816,0.018,1.601,0.125,2.352,0.325s1.31,0.55,1.677,1.051c0.3,0.4,0.517,0.751,0.65,1.052
	c0.133,0.3,0.208,0.617,0.225,0.951c0.017,0.333,0.017,0.692,0,1.075c-0.017,0.384-0.025,0.859-0.025,1.427
	c0,0.934-0.009,1.844-0.025,2.728c-0.016,0.884-0.008,1.775,0.025,2.677c0,0.3,0,0.692,0,1.176c0,0.484,0.017,0.993,0.051,1.526
	c0.032,0.534,0.075,1.043,0.125,1.526s0.125,0.876,0.225,1.176L338.65,664.812z"/>
<path fill="none" stroke="#000000" stroke-width="2" d="M328.041,662.561c0.367-0.233,0.783-0.492,1.251-0.776
	c0.467-0.282,0.883-0.608,1.252-0.976c-0.301-1.769-0.476-3.536-0.526-5.305c-0.05-1.768-0.041-3.554,0.025-5.354
	c-1.501,0.268-2.852,0.918-4.054,1.951c-1.201,1.034-2.035,2.252-2.501,3.653c-0.201,0.567-0.369,1.15-0.501,1.751
	c-0.134,0.601-0.185,1.185-0.15,1.752c0.033,0.768,0.233,1.41,0.601,1.926c0.367,0.518,0.808,0.909,1.326,1.177
	c0.517,0.268,1.067,0.418,1.651,0.45C326.998,662.844,327.541,662.761,328.041,662.561z"/>
<path fill="none" stroke="#000000" stroke-width="2" d="M349.209,663.911c0.366,0.334,0.676,0.759,0.926,1.276
	s0.384,1.034,0.4,1.551c0.017,0.518-0.101,1.001-0.35,1.452c-0.251,0.449-0.693,0.792-1.326,1.025c-0.5,0.166-1.052,0.2-1.651,0.101
	c-0.601-0.101-1.193-0.301-1.776-0.601c-0.584-0.301-1.101-0.659-1.551-1.076c-0.451-0.418-0.776-0.876-0.977-1.376
	c-0.067-0.167-0.117-0.358-0.15-0.575s-0.05-0.408-0.05-0.575V637.34c0-0.768,0.292-1.418,0.876-1.952
	c0.584-0.532,1.226-0.851,1.927-0.95c0.333-0.033,0.691,0.017,1.075,0.15c0.384,0.133,0.742,0.324,1.077,0.575
	c0.332,0.249,0.607,0.543,0.825,0.876c0.217,0.334,0.325,0.684,0.325,1.051c0,0.867,0,2.019,0,3.453s0.008,3.002,0.025,4.704
	c0.016,1.701,0.024,3.461,0.024,5.279c0,1.819-0.009,3.562-0.024,5.229c-0.018,1.669-0.025,3.195-0.025,4.578
	c0,1.386-0.018,2.494-0.05,3.328L349.209,663.911z"/>
<path fill="none" stroke="#000000" stroke-width="2" d="M363.12,663.911c0.367,0.334,0.676,0.759,0.927,1.276
	c0.25,0.518,0.383,1.034,0.4,1.551c0.016,0.518-0.101,1.001-0.351,1.452c-0.25,0.449-0.693,0.792-1.326,1.025
	c-0.5,0.166-1.051,0.2-1.651,0.101c-0.601-0.101-1.192-0.301-1.776-0.601c-0.583-0.301-1.101-0.659-1.551-1.076
	c-0.45-0.418-0.775-0.876-0.977-1.376c-0.066-0.167-0.116-0.358-0.149-0.575c-0.034-0.217-0.05-0.408-0.05-0.575V637.34
	c0-0.768,0.292-1.418,0.876-1.952c0.583-0.532,1.226-0.851,1.926-0.95c0.333-0.033,0.692,0.017,1.076,0.15
	c0.384,0.133,0.742,0.324,1.076,0.575c0.333,0.249,0.607,0.543,0.825,0.876c0.217,0.334,0.325,0.684,0.325,1.051
	c0,0.867,0,2.019,0,3.453s0.009,3.002,0.025,4.704s0.025,3.461,0.025,5.279c0,1.819-0.009,3.562-0.025,5.229
	c-0.017,1.669-0.025,3.195-0.025,4.578c0,1.386-0.017,2.494-0.05,3.328L363.12,663.911z"/>
<path fill="none" stroke="#000000" stroke-width="2" d="M389.093,664.812c0.267,0.969,0.216,1.769-0.15,2.402
	c-0.368,0.634-0.876,1.059-1.526,1.276c-0.649,0.217-1.359,0.191-2.127-0.075c-0.768-0.268-1.435-0.801-2.001-1.602
	c-0.935,0.701-1.844,1.192-2.728,1.477c-0.884,0.283-1.895,0.441-3.027,0.476c-1.701,0.065-3.22-0.126-4.554-0.575
	c-1.335-0.451-2.461-1.127-3.378-2.027c-0.918-0.901-1.594-2.027-2.027-3.378c-0.434-1.352-0.584-2.911-0.449-4.68
	c0.065-0.733,0.19-1.451,0.375-2.151c0.183-0.702,0.392-1.385,0.625-2.053c0.267-0.733,0.642-1.518,1.126-2.353
	c0.482-0.833,0.976-1.551,1.476-2.151c1.802-2.202,4.054-3.786,6.756-4.754c0.467-0.167,1.102-0.317,1.902-0.45
	c0.8-0.133,1.608-0.192,2.426-0.176c0.818,0.018,1.602,0.125,2.353,0.325s1.31,0.55,1.676,1.051c0.301,0.4,0.518,0.751,0.65,1.052
	c0.134,0.3,0.208,0.617,0.226,0.951c0.017,0.333,0.017,0.692,0,1.075c-0.018,0.384-0.025,0.859-0.025,1.427
	c0,0.934-0.008,1.844-0.024,2.728s-0.009,1.775,0.024,2.677c0,0.3,0,0.692,0,1.176c0,0.484,0.017,0.993,0.051,1.526
	c0.032,0.534,0.075,1.043,0.124,1.526c0.051,0.483,0.125,0.876,0.226,1.176L389.093,664.812z"/>
<path fill="none" stroke="#000000" stroke-width="2" d="M378.484,662.561c0.367-0.233,0.783-0.492,1.251-0.776
	c0.467-0.282,0.884-0.608,1.251-0.976c-0.301-1.769-0.475-3.536-0.525-5.305c-0.05-1.768-0.042-3.554,0.025-5.354
	c-1.501,0.268-2.853,0.918-4.053,1.951c-1.202,1.034-2.036,2.252-2.503,3.653c-0.2,0.567-0.368,1.15-0.5,1.751
	c-0.134,0.601-0.185,1.185-0.15,1.752c0.033,0.768,0.233,1.41,0.601,1.926c0.366,0.518,0.809,0.909,1.326,1.177
	c0.517,0.268,1.067,0.418,1.651,0.45C377.44,662.844,377.983,662.761,378.484,662.561z"/>
<path fill="none" stroke="#000000" stroke-width="2" d="M402.954,668.314c-0.968,0.033-1.895-0.033-2.777-0.199
	c-0.885-0.168-1.76-0.451-2.628-0.852c-0.434,0.233-0.859,0.351-1.275,0.351c-0.418,0-0.801-0.067-1.151-0.2
	c-0.35-0.134-0.65-0.293-0.901-0.476c-0.249-0.183-0.425-0.325-0.524-0.425c-0.368-0.533-0.584-1.134-0.651-1.802
	c-0.066-0.667,0.151-1.301,0.651-1.9V637.09c0-0.768,0.267-1.409,0.801-1.927c0.533-0.517,1.15-0.842,1.852-0.976
	c0.7-0.134,1.376-0.017,2.026,0.35c0.65,0.368,1.093,1.034,1.326,2.002c0.134,0.601,0.242,1.193,0.325,1.777
	c0.083,0.583,0.134,1.259,0.15,2.026s0.017,1.651,0,2.652s-0.06,2.235-0.125,3.703c0.301-0.166,0.608-0.325,0.926-0.476
	c0.317-0.149,0.642-0.308,0.976-0.475c0.934-0.434,1.936-0.701,3.002-0.801c1.067-0.101,2.11-0.041,3.129,0.175
	c1.017,0.217,1.967,0.618,2.852,1.2c0.883,0.585,1.609,1.344,2.177,2.277c0.801,1.335,1.343,2.895,1.627,4.68
	c0.283,1.785,0.283,3.554,0,5.305c-0.284,1.751-0.868,3.378-1.751,4.879c-0.885,1.501-2.128,2.619-3.729,3.354
	c-1.002,0.467-2.027,0.826-3.078,1.076C405.131,668.14,404.056,668.281,402.954,668.314z"/>
<path fill="none" stroke="#000000" stroke-width="2" d="M399.801,655.504v6.005c0.067,0.066,0.133,0.117,0.2,0.15
	c0.066,0.033,0.134,0.083,0.2,0.149c3.003,1.001,5.605,0.317,7.807-2.052c0.501-1.334,0.743-2.593,0.727-3.778
	c-0.017-1.184-0.243-2.46-0.676-3.828c-0.167-0.4-0.442-0.659-0.826-0.776c-0.384-0.116-0.727-0.258-1.026-0.425
	c-0.534-0.101-1.108,0-1.726,0.3c-0.618,0.3-1.21,0.676-1.777,1.126s-1.084,0.943-1.551,1.477c-0.468,0.533-0.834,0.984-1.101,1.352
	L399.801,655.504z"/>
<path fill="none" stroke="#000000" stroke-width="2" d="M434.13,644.945c0.399-0.667,0.9-1.126,1.501-1.377
	c0.601-0.249,1.192-0.308,1.776-0.175c0.583,0.134,1.101,0.434,1.551,0.901s0.726,1.084,0.826,1.851
	c0.065,0.568-0.041,1.369-0.325,2.402c-0.284,1.034-0.634,2.103-1.051,3.202c-0.418,1.102-0.844,2.153-1.276,3.153
	c-0.434,1.001-0.784,1.785-1.052,2.353c-1.134,2.501-2.368,4.954-3.703,7.355c-1.334,2.402-2.701,4.787-4.104,7.156
	c-0.199,0.367-0.434,0.817-0.7,1.351c-0.268,0.533-0.543,1.084-0.826,1.651s-0.575,1.102-0.875,1.602
	c-0.301,0.5-0.585,0.867-0.852,1.102c-0.6,0.566-1.218,0.9-1.852,1c-0.634,0.101-1.21,0.017-1.726-0.25
	c-0.518-0.268-0.935-0.684-1.252-1.251s-0.442-1.251-0.375-2.052c0.033-0.3,0.167-0.693,0.4-1.176
	c0.233-0.484,0.501-0.984,0.801-1.502s0.601-1.009,0.901-1.476c0.301-0.468,0.533-0.852,0.7-1.151
	c0.668-1.101,1.31-2.202,1.927-3.302c0.617-1.102,1.242-2.202,1.876-3.303c-2.202-1.835-4.112-3.879-5.729-6.131
	c-1.619-2.252-2.862-4.729-3.729-7.431c-0.167-0.468-0.334-0.934-0.501-1.402c-0.167-0.467-0.217-0.95-0.149-1.45
	c0.065-0.567,0.225-1.076,0.475-1.526s0.576-0.817,0.977-1.102c0.399-0.282,0.858-0.441,1.376-0.475
	c0.517-0.033,1.042,0.084,1.576,0.35c0.433,0.234,0.775,0.559,1.026,0.977c0.249,0.417,0.457,0.868,0.625,1.351
	c0.166,0.484,0.308,0.976,0.425,1.476c0.116,0.501,0.259,0.951,0.426,1.352c1.334,3.303,3.353,6.123,6.056,8.457
	c0.967-2.002,1.833-4.012,2.602-6.03c0.767-2.019,1.451-4.078,2.052-6.181L434.13,644.945z"/>
<path fill="none" stroke="#000000" stroke-width="2" d="M443.587,670.017c0.268-0.269,0.509-0.51,0.727-0.727
	c0.217-0.217,0.433-0.434,0.649-0.65s0.426-0.459,0.626-0.726c0.2-0.268,0.417-0.584,0.65-0.951c0.967-1.567,1.7-3.354,2.202-5.354
	c0.5-2.002,0.8-4.061,0.9-6.181c0.1-2.118,0.016-4.203-0.25-6.255c-0.268-2.052-0.718-3.929-1.352-5.63
	c-0.434-1.167-0.976-2.268-1.626-3.303c-0.649-1.032-1.31-2.052-1.977-3.052c-0.3-0.434-0.593-0.858-0.875-1.276
	c-0.284-0.417-0.443-0.908-0.476-1.476c-0.034-0.867,0.175-1.585,0.625-2.152s0.992-0.926,1.626-1.076
	c0.634-0.149,1.284-0.091,1.951,0.175c0.667,0.268,1.201,0.784,1.602,1.552c0.733,1.034,1.435,2.085,2.103,3.152
	c0.667,1.068,1.284,2.151,1.852,3.252c0.933,1.802,1.643,3.754,2.126,5.855s0.768,4.253,0.852,6.455
	c0.083,2.202-0.025,4.378-0.325,6.531c-0.3,2.151-0.751,4.162-1.351,6.029c-0.534,1.602-1.177,3.211-1.927,4.829
	c-0.751,1.618-1.71,3.045-2.878,4.279c-0.5,0.533-1.067,1.033-1.7,1.501c-0.635,0.467-1.336,0.7-2.103,0.7
	c-0.701,0-1.276-0.149-1.727-0.449c-0.45-0.301-0.769-0.685-0.951-1.151c-0.184-0.468-0.242-0.976-0.175-1.526
	c0.066-0.55,0.233-1.093,0.5-1.626L443.587,670.017z"/>
<path fill="none" stroke="#231F20" stroke-width="2" stroke-miterlimit="10" d="M437.775,231.423
	c1.771,13.672-13.123,23.071-25.568,20.278c-14.328-3.214-16.796-24.534-6.419-33.229c7.842-6.571,18.922-6.306,25.999,1.256
	C435.431,223.622,437.283,227.618,437.775,231.423z"/>
<path fill="none" stroke="#231F20" stroke-width="2" stroke-miterlimit="10" d="M409.085,238.563
	c-9.396-4.188-7.978-17.526,2.143-19.595c9.001-1.84,16.35,8.899,10.061,16.144C418.131,238.749,413.778,240.655,409.085,238.563z"
	/>
<path fill="none" stroke="#231F20" stroke-width="2" stroke-miterlimit="10" d="M408.675,229.689
	c-3.357,0.587-5.771-3.799-3.288-6.281c1.985-1.987,5.479-1.783,6.147,1.006C412.091,226.737,411.287,229.232,408.675,229.689z"/>
<path fill="none" stroke="#231F20" stroke-width="2" stroke-miterlimit="10" d="M465.759,210.679
	c-7.944-3.541-6.743-14.815,1.812-16.564c7.608-1.556,13.82,7.522,8.504,13.647C473.405,210.835,469.727,212.447,465.759,210.679z"
	/>
<path fill="none" stroke="#231F20" stroke-width="2" stroke-miterlimit="10" d="M465.411,203.177
	c-2.838,0.497-4.878-3.211-2.779-5.309c1.679-1.681,4.631-1.507,5.195,0.851C468.3,200.682,467.618,202.791,465.411,203.177z"/>
<path fill="none" stroke="#231F20" stroke-width="2" stroke-miterlimit="10" d="M413.718,198.46
	c5.196-3.366,11.109-5.835,17.404-7.328c3.304-0.783,6.768-1.046,10.293-0.879c1.378-3.896,1.65-8.332,1.182-12.205
	c-1.158-9.562-8.095-16.614-15.99-21.656c-5.577-3.56-12.606-3.849-17.948-6.872c-2.908,10.946-6.955,23.038-3.143,34.937
	C406.879,188.711,409.867,194.321,413.718,198.46z"/>
<path fill="none" stroke="#000000" stroke-width="2" d="M340.762,195.475c5.857-0.713,11.501-3.98,17.623-5.363
	c0.76-3.816,1.453-7.633,2.057-11.451c0.897-6.762-0.339-12.225-3.72-16.399c-3.381-4.168-7.555-6.704-12.51-7.607
	c-4.962-0.898-9.807,0-14.54,2.705s-8.004,7.438-9.805,14.201l-0.34,2.028c-2.933,16.906-7.159,33.473-12.68,49.704
	c-5.526,16.229-11.327,32.459-17.413,48.689c-2.256,5.864-4.285,11.834-6.086,17.92c-1.807,6.086-3.719,12.062-5.748,17.921
	c-3.381-8.792-6.709-17.635-9.974-26.542c-3.271-8.902-6.482-17.973-9.637-27.219c-2.483-7.212-4.961-14.312-7.439-21.302
	c-2.483-6.984-5.072-14.085-7.777-21.302c-0.454-1.353-1.242-3.434-2.366-6.255c-1.131-2.816-2.257-5.859-3.381-9.129
	c-1.131-3.265-2.256-6.308-3.381-9.129c-1.131-2.815-2.029-4.902-2.705-6.255c-1.58-3.603-3.888-6.308-6.932-8.115
	c-3.043-1.802-6.371-2.758-9.974-2.874c-3.608-0.111-7.101,0.565-10.482,2.029c-3.381,1.469-6.086,3.777-8.115,6.932
	c-2.256,3.608-3.608,6.931-4.058,9.974c-0.454,3.043-1.469,7.27-3.042,12.68c-0.904,3.159-1.75,6.371-2.536,9.636
	c-0.792,3.271-1.749,6.482-2.874,9.637c-3.381,11.497-7.048,22.771-10.989,33.812c-3.946,11.046-8.173,22.205-12.679,33.474
	c-0.904,2.256-1.691,4.454-2.367,6.593c-0.676,2.145-1.469,4.227-2.367,6.255c-2.705-8.564-5.526-17.018-8.453-25.36
	c-2.932-8.337-5.975-16.79-9.129-25.359c-3.159-7.887-6.086-15.833-8.792-23.837c-2.705-7.999-5.637-15.944-8.791-23.837
	c-2.705-7.211-5.579-15.099-8.622-23.668c-3.043-8.564-7.608-15.438-13.694-20.625c-2.932-2.478-6.203-3.889-9.805-4.227
	c-3.608-0.338-6.99,0.116-10.144,1.352c-3.159,1.242-5.917,3.212-8.284,5.917c-2.367,2.704-3.777,5.975-4.227,9.806
	c-0.227,2.932,0.053,5.917,0.845,8.96c0.788,3.043,1.86,6.086,3.212,9.129c1.353,3.042,2.816,5.975,4.396,8.791
	c1.575,2.821,2.816,5.579,3.72,8.284c4.956,12.849,9.858,25.645,14.708,38.376c4.844,12.738,9.52,25.645,14.032,38.715
	c1.353,3.835,2.758,7.777,4.227,11.834c1.463,4.058,2.874,8.115,4.227,12.173c1.353,3.835,2.646,7.777,3.889,11.834
	c1.237,4.057,2.536,8.115,3.888,12.172c2.028,6.541,3.772,13.752,5.241,21.64c1.463,7.894,4.11,14.767,7.946,20.626
	c2.705,4.28,5.859,6.984,9.467,8.115c3.603,1.125,7.153,1.183,10.651,0.169c3.492-1.015,6.815-2.932,9.974-5.748
	c3.154-2.821,5.521-6.034,7.101-9.637c2.251-4.506,3.888-7.829,4.903-9.975c1.015-2.139,2.309-5.24,3.889-9.298
	c2.478-5.859,4.845-11.834,7.101-17.92c2.25-6.086,4.617-12.172,7.101-18.259c3.154-9.24,6.477-18.311,9.975-27.218
	c3.492-8.902,6.814-18.089,9.975-27.557c3.83,10.143,7.491,20.345,10.989,30.6c3.492,10.26,7.153,20.457,10.989,30.6
	c1.801,5.188,3.999,11.047,6.593,17.583c2.589,6.541,4.903,12.51,6.932,17.92c1.802,4.285,3.493,8.738,5.072,13.355
	c1.574,4.618,4.168,8.506,7.777,11.666c4.507,3.83,9.689,5.294,15.554,4.396c5.859-0.903,10.482-3.608,13.863-8.115
	c2.251-2.705,4.111-5.917,5.579-9.637c1.463-3.719,2.874-7.269,4.226-10.65c4.058-10.144,7.947-20.229,11.667-30.262
	c3.718-10.027,7.38-20.118,10.988-30.262c3.604-10.82,7.492-21.413,11.665-31.784c4.169-10.365,7.947-20.963,11.327-31.783
	c1.074-3.616,2.111-7.257,3.123-10.917C346.72,211.527,343.793,203.136,340.762,195.475z"/>
<path fill="none" stroke="#231F20" stroke-width="2" stroke-miterlimit="10" d="M392.298,219.88
	c-2.161-4.697-5.215-6.703-10.029-8.703c-7.132-2.963-17.66-4.252-25.015-1.305c2.635,6.616,6.829,12.323,12.827,16.545
	c4.313,3.037,9.981,6.058,15.394,6.552C394.191,233.765,395.457,226.744,392.298,219.88z"/>
<path fill="none" stroke="#231F20" stroke-width="2" stroke-miterlimit="10" d="M537.892,250.114
	c-4.817,2.825-14.767,4.982-19.013,0.017c-6.054-7.076,6.036-16.796,12.617-16.592C540.748,233.828,547.65,244.394,537.892,250.114z
	"/>
<path fill="none" stroke="#231F20" stroke-width="2" stroke-miterlimit="10" d="M393.945,228.582
	c0.883-5.911,2.874-11.218,5.72-15.883c-1.132-5.246-4.252-10.297-7.766-14.016c-7.645-8.093-18.935-9.884-29.735-9.147
	c-7.629,0.522-14.36,5.082-21.402,5.939c4.816,12.173,9.359,26.191,21.074,34.632c6.66,4.799,19.499,9.971,27.844,7.029
	c1.381-0.487,2.607-1.304,3.699-2.339C393.442,232.769,393.63,230.696,393.945,228.582z"/>
<path fill="none" stroke="#231F20" stroke-width="2" stroke-miterlimit="10" d="M531.496,233.539
	c-2.338-0.072-5.37,1.111-8.038,2.981c-5.521-2.508-11.782-4.363-16.231-6.812c-7.725-4.251-13.806-9.277-19.787-15.014
	c2.011-2.793,3.068-6.223,2.572-10.053c-0.417-3.215-1.982-6.594-5.062-9.886c-5.982-6.392-15.349-6.617-21.978-1.063
	c-0.578,0.484-1.105,1.018-1.59,1.587c-9.856-4.365-20.721-6.409-30.26-4.148c-18.789,4.454-34.207,17.573-37.177,37.45
	c-3.365,22.534,7.838,40.351,28.137,50.998c25.441,13.344,67.986,18.769,92.679,0.824c7.691-5.589,21.535-18.06,21.271-29.351
	c0.675-0.298,1.305-0.613,1.86-0.938C547.65,244.394,540.748,233.828,531.496,233.539z"/>
<path fill="none" stroke="#231F20" stroke-width="2" stroke-miterlimit="10" d="M490.012,204.642
	c1.496,11.558-11.094,19.503-21.614,17.142c-12.111-2.717-14.198-20.739-5.426-28.091c6.629-5.554,15.995-5.329,21.978,1.063
	C488.029,198.048,489.595,201.427,490.012,204.642z"/>
<path fill="none" stroke="#231F20" stroke-width="2" stroke-miterlimit="10" d="M515.787,380.188
	c-0.079-0.699-0.17-1.396-0.269-2.093c-0.018-0.122-0.036-0.243-0.054-0.365c-0.085-0.58-0.176-1.16-0.273-1.739
	c-0.025-0.152-0.052-0.304-0.078-0.456c-0.1-0.568-0.205-1.135-0.315-1.702c-0.026-0.136-0.053-0.271-0.08-0.407
	c-0.13-0.649-0.268-1.297-0.413-1.945c-0.009-0.042-0.018-0.083-0.026-0.124c-0.324-1.431-0.685-2.858-1.078-4.281
	c-0.023-0.083-0.047-0.165-0.07-0.247c-0.17-0.606-0.345-1.212-0.526-1.817c-0.044-0.144-0.088-0.288-0.132-0.432
	c-0.169-0.554-0.343-1.108-0.522-1.661c-0.049-0.15-0.097-0.3-0.146-0.45c-0.192-0.584-0.39-1.167-0.592-1.75
	c-0.035-0.101-0.069-0.202-0.104-0.302c-0.493-1.407-1.016-2.811-1.567-4.209c-0.011-0.026-0.021-0.053-0.031-0.079
	c-0.257-0.649-0.52-1.297-0.788-1.945c-0.055-0.134-0.112-0.268-0.168-0.402c-0.229-0.547-0.461-1.094-0.698-1.64
	c-0.067-0.157-0.136-0.314-0.205-0.471c-0.236-0.541-0.478-1.08-0.722-1.62c-0.063-0.141-0.127-0.281-0.19-0.421
	c-0.287-0.628-0.578-1.255-0.875-1.881c-0.019-0.039-0.036-0.079-0.055-0.118c-0.652-1.375-1.327-2.744-2.022-4.109
	c-0.062-0.12-0.123-0.239-0.185-0.359c-0.278-0.543-0.56-1.086-0.844-1.628c-0.089-0.169-0.178-0.338-0.268-0.507
	c-0.266-0.502-0.533-1.003-0.804-1.504c-0.093-0.172-0.186-0.344-0.279-0.515c-0.289-0.533-0.582-1.065-0.877-1.596
	c-0.07-0.125-0.139-0.25-0.209-0.375c-0.744-1.334-1.505-2.664-2.28-3.988c-0.065-0.111-0.131-0.222-0.196-0.333
	c-0.314-0.536-0.632-1.071-0.951-1.606c-0.108-0.181-0.217-0.362-0.325-0.543c-0.283-0.47-0.566-0.94-0.853-1.409
	c-0.119-0.196-0.238-0.391-0.357-0.586c-0.286-0.468-0.574-0.935-0.863-1.4c-0.112-0.181-0.224-0.362-0.336-0.542
	c-0.34-0.545-0.682-1.09-1.024-1.634c-0.058-0.091-0.114-0.182-0.172-0.272c-0.412-0.652-0.826-1.303-1.243-1.952
	c-0.052-0.08-0.104-0.16-0.155-0.24c-0.354-0.551-0.709-1.102-1.066-1.65c-0.124-0.192-0.249-0.383-0.374-0.574
	c-0.29-0.444-0.58-0.888-0.872-1.331c-0.138-0.21-0.276-0.419-0.414-0.629c-0.28-0.425-0.562-0.85-0.844-1.273
	c-0.143-0.215-0.285-0.43-0.429-0.645c-0.291-0.436-0.582-0.871-0.873-1.306c-0.127-0.189-0.254-0.378-0.381-0.567
	c-0.414-0.616-0.829-1.231-1.245-1.845c-1.494-2.206-2.995-4.389-4.492-6.561c-0.001-0.002-0.003-0.004-0.005-0.006
	c-0.248-0.36-0.493-0.717-0.741-1.077c-0.036-0.052-0.072-0.104-0.108-0.157c-2.127-3.079-4.238-6.123-6.302-9.126
	c-0.09-0.131-0.182-0.263-0.271-0.394c-0.697-1.016-1.494-2.229-2.375-3.598c-17.577-0.477-35.448-5.266-48.688-12.21
	c-1.066-0.56-2.101-1.145-3.114-1.745c-0.208-0.123-0.412-0.249-0.618-0.373c-0.876-0.531-1.735-1.075-2.573-1.634
	c-10.405-6.95-17.667-16.138-20.752-27.124c4.057,29.699,25.673,73.78,19.034,88.045c-8.238,17.698-28.089,30.258-45.692,35.645
	c-6.595,2.021-13.023,4.299-18.921,7.278c0,0-0.796,0.192-1.228,0.636c-8.292,4.386-15.455,10.258-20.428,18.915
	c-0.001,0.002-0.002,0.004-0.003,0.006c-0.337,0.514-0.66,1.057-0.976,1.621c-0.101,0.182-0.191,0.369-0.288,0.553
	c-0.701,1.012-1.364,2.051-1.953,3.145c-5.733,10.64-9.758,22.348-17.978,31.781c-24.493,28.107-69.123,39.474-102.203,19.482
	c-1.644,11.316,11.557,22.736,19.919,28.491c24.125,16.603,45.602,10.314,70.873,2.682c10.653-3.218,24.73-9.635,35.308-18.561
	c0.003,0.006,0.006,0.011,0.008,0.017c0.748,1.562,1.527,3.075,2.333,4.563c0.015,0.028,0.03,0.056,0.046,0.083
	c0.389,0.717,0.783,1.43,1.185,2.139c0.017,0.03,0.034,0.061,0.051,0.091c1.707,3.016,3.523,5.999,5.431,9.179
	c0.437,0.729,0.877,1.465,1.322,2.217c2.789,4.705,5.266,9.422,2.962,14.738c-2.065,4.767-7.26,6.541-7.146,12.406
	c0.101,5.158,5.141,9.603,8.806,12.751c9.046,7.771,20.819,12.523,32.159,15.812c9.362,2.714,19.645,4.438,29.372,2.891
	c5.595-0.891,16.948-4.218,16.218-11.472c-1.111-11.029-20.504-6.193-27.243-8.776c-8.787-3.367-24.398-14.738-26.413-23.767
	c0.174-0.063,0.352-0.128,0.525-0.188c0.997-0.358,2.003-0.703,3.016-1.039c0.317-0.104,0.639-0.204,0.958-0.308
	c0.707-0.229,1.414-0.458,2.126-0.679c0.312-0.097,0.627-0.19,0.94-0.286c0.751-0.229,1.502-0.458,2.256-0.681
	c0.151-0.045,0.303-0.089,0.454-0.133c3.625-1.067,7.258-2.084,10.8-3.159c0.075-0.023,0.15-0.046,0.226-0.068
	c0.848-0.259,1.688-0.522,2.522-0.79c0.161-0.052,0.323-0.104,0.484-0.156c0.783-0.253,1.558-0.514,2.326-0.779
	c0.196-0.067,0.392-0.136,0.586-0.204c0.741-0.26,1.473-0.528,2.197-0.802c0.208-0.079,0.414-0.159,0.621-0.239
	c0.708-0.274,1.407-0.557,2.097-0.847c0.207-0.088,0.411-0.178,0.617-0.268c0.681-0.295,1.353-0.598,2.012-0.912
	c0.197-0.094,0.39-0.192,0.585-0.288c0.655-0.323,1.304-0.652,1.935-0.998c0.179-0.098,0.351-0.201,0.526-0.3
	c0.635-0.358,1.262-0.724,1.868-1.108c0.148-0.095,0.289-0.195,0.436-0.291c0.62-0.405,1.231-0.818,1.818-1.255
	c0.1-0.074,0.191-0.155,0.29-0.23c0.619-0.473,1.228-0.956,1.806-1.469l0,0c-0.071,1.874-0.218,3.906-0.239,6.176
	c-0.103,10.594,7.955,13.056,17.387,15.471c10.284,2.633,21.271,3.03,31.797,1.918c11.398-1.202,26.51-6.862,35.253-14.27
	c3.882-3.286,7.634-7.564,3.932-12.478c-6.02-7.986-20.992,3.67-28.993,3.814c-8.042,0.145-22.889-3.269-30.313-9.018
	c10.359-3.906,20.312-9.239,29.438-15.677c0.066-0.047,0.134-0.093,0.2-0.14c1.258-0.892,2.502-1.8,3.727-2.731
	c0.094-0.071,0.186-0.145,0.278-0.216c1.04-0.795,2.065-1.606,3.079-2.43c0.277-0.224,0.554-0.447,0.828-0.674
	c0.197-0.162,0.398-0.32,0.594-0.483c2.723-0.943,5.151-1.99,7.023-2.998c18.549-9.991,34.108-31.503,38.206-52.094
	C529.7,378.41,524.307,377.228,515.787,380.188z"/>
<path fill="none" stroke="#231F20" stroke-width="2" stroke-miterlimit="10" d="M487.598,450.083
	c18.549-9.991,34.108-31.503,38.206-52.094c7.379-37.078-18.555-8.188-35.948-10.108c-13.37-1.476-28.597-7.91-34.663,9.853
	c-2.542,7.439,0.761,15.496-0.021,23.077c-0.746,7.228-6.884,14.097-7.313,21.145C446.552,463.386,476.581,456.016,487.598,450.083z
	"/>
<path fill="none" stroke="#231F20" stroke-width="2" stroke-miterlimit="10" d="M550.582,341.388
	c-5.151-5.141-9.422-8.864-16.535-4.785c-6.946,3.983-8.88,7.574-17.388,6.737c-7.859-0.773-12.492-4.458-17.931-10.075
	c-0.433-0.447-0.89-0.897-1.356-1.348c6.575,11.101,12.205,22.549,15.566,34.251c5.936-2.119,12.271-5.632,16.627-9.935
	c1.842-1.818,4.472-6.5,7.665-6.087c3.033,0.393,4.054,5.314,5.574,7.367c3.861,5.216,12.442,6.478,16.015-0.354
	C561.645,351.753,554.317,345.117,550.582,341.388z"/>
<path fill="none" stroke="#231F20" stroke-width="2" stroke-miterlimit="10" d="M515.787,380.188
	c-2.684-23.588-16.39-46.329-30.722-67.479c-1.494-2.206-2.995-4.389-4.492-6.561c-0.287-0.416-0.569-0.826-0.854-1.24
	c-2.22-3.213-4.425-6.39-6.573-9.52c-0.697-1.016-1.494-2.229-2.375-3.599c-17.577-0.477-35.448-5.266-48.688-12.21
	c-2.307-1.21-4.489-2.517-6.553-3.909c5.524,6.762,12.027,12.728,19.396,17.969c5.101,7.819,8.583,17.133,10.98,25.589
	c2.505,8.844,4.306,18.541,5.122,28.217c-1.442-1.223-2.863-2.602-4.343-4.131c-5.2-5.372-12.976-11.308-21.002-8.881
	c-6.098,1.844-10.417,10.08-9.407,16.216c0.952,5.772,5.362,10.179,9.849,14.264c6.203,5.646,14.952,11.407,23.762,12.584
	c-3.048,16.846-10.831,36.499-24.097,46.265c-2.276,1.678-4.405,2.58-7.034,3.112c-7.007-8.122-19.135-18.897-29.091-22.284
	c-0.731-0.43-1.463-0.837-2.198-1.206c-17.078-8.667-46.894-23.771-59.677-4.162c-0.338,0.516-0.662,1.06-0.979,1.626
	c-8.562,15.506-5.961,39.438-0.968,55.688c3.777,12.278,8.998,20.009,15.021,30.173c2.789,4.705,5.266,9.422,2.962,14.738
	c-2.065,4.767-7.26,6.541-7.146,12.406c0.101,5.158,5.141,9.603,8.806,12.751c9.046,7.771,20.819,12.523,32.159,15.812
	c9.362,2.714,19.645,4.438,29.372,2.891c5.595-0.891,16.948-4.218,16.218-11.472c-1.111-11.029-20.504-6.193-27.243-8.776
	c-8.787-3.367-24.398-14.738-26.413-23.767c0.174-0.063,0.352-0.128,0.525-0.188c16.329-5.876,35.093-8.251,45.29-18.997
	c5.83-0.672,11.653-1.853,17.393-3.485c0.002,0,0.004,0.001,0.006,0.001c0.735-0.21,1.471-0.424,2.202-0.649
	c16.479-5.022,32.216-13.741,45.578-24.895c2.723-0.943,5.151-1.99,7.023-2.998c18.549-9.991,34.108-31.503,38.206-52.094
	C529.7,378.41,524.307,377.228,515.787,380.188z"/>
<path fill="none" stroke="#231F20" stroke-width="2" stroke-miterlimit="10" d="M446.686,343.316
	c5.438,5.618,10.07,9.303,17.931,10.075c8.507,0.838,10.44-2.754,17.387-6.737c7.112-4.078,11.384-0.355,16.535,4.787
	c3.735,3.728,11.062,10.364,8.236,15.771c-3.571,6.833-12.152,5.57-16.015,0.354c-1.521-2.053-2.541-6.974-5.573-7.367
	c-3.193-0.413-5.823,4.269-7.665,6.087c-4.765,4.705-11.9,8.487-18.285,10.509c-11.585,3.668-24.693-4.219-33.111-11.88
	c-4.486-4.084-8.896-8.492-9.849-14.264c-1.01-6.137,3.31-14.372,9.407-16.216C433.71,332.008,441.485,337.944,446.686,343.316z"/>
</svg>
