<?xml version="1.0" encoding="utf-8"?>
<!-- Generator: Adobe Illustrator 16.0.0, SVG Export Plug-In . SVG Version: 6.00 Build 0)  -->
<!DOCTYPE svg PUBLIC "-//W3C//DTD SVG 1.1//EN" "http://www.w3.org/Graphics/SVG/1.1/DTD/svg11.dtd">
<svg version="1.1" id="Layer_1" xmlns="http://www.w3.org/2000/svg" xmlns:xlink="http://www.w3.org/1999/xlink" x="0px" y="0px"
	 width="612px" height="612px" viewBox="0 90 612 612" enable-background="new 0 90 612 612" xml:space="preserve">
<path fill="none" stroke="#1D1C1A" stroke-width="2" stroke-miterlimit="10" d="M79.915,568.885
	c0.812-0.812,1.691-1.239,2.638-1.285c0.947-0.044,1.802,0.159,2.57,0.608c0.766,0.45,1.341,1.115,1.725,1.995
	c0.382,0.88,0.372,1.86-0.034,2.942c-0.316,0.767-0.71,1.487-1.184,2.164c-0.473,0.676-0.937,1.33-1.386,1.961
	c-1.488,2.255-3.033,4.419-4.632,6.49c-1.601,2.075-3.236,4.125-4.903,6.155c0.406,0.45,0.957,1.105,1.657,1.961
	c0.699,0.855,1.464,1.815,2.299,2.873c0.833,1.06,1.679,2.188,2.536,3.382c0.855,1.194,1.667,2.344,2.435,3.448
	c0.766,1.105,1.431,2.142,1.995,3.11c0.563,0.971,0.957,1.771,1.184,2.401c0.36,1.037,0.372,1.995,0.034,2.874
	c-0.338,0.879-0.857,1.577-1.556,2.096c-0.7,0.519-1.511,0.778-2.435,0.778c-0.925,0-1.815-0.384-2.671-1.15
	c-0.722-0.631-1.353-1.51-1.894-2.638c-0.541-1.127-1.082-2.097-1.623-2.907c-1.127-1.713-2.299-3.37-3.517-4.971
	c-1.217-1.6-2.479-3.188-3.787-4.768c-1.262,1.579-2.559,3.123-3.889,4.632c-1.33,1.512-2.648,3.01-3.956,4.497
	c-0.361,0.406-0.801,0.947-1.319,1.623c-0.519,0.676-1.071,1.364-1.657,2.062c-0.586,0.699-1.173,1.341-1.758,1.927
	c-0.586,0.585-1.127,0.969-1.623,1.149c-0.857,0.36-1.691,0.44-2.502,0.237c-0.812-0.202-1.488-0.574-2.029-1.116
	c-0.541-0.541-0.913-1.216-1.116-2.027s-0.125-1.646,0.237-2.503c0.36-0.901,0.89-1.679,1.589-2.333
	c0.698-0.652,1.363-1.341,1.995-2.062c1.802-2.118,3.606-4.227,5.41-6.323c1.802-2.096,3.606-4.227,5.41-6.39
	c-1.579-2.028-3.19-4.023-4.835-5.984c-1.646-1.961-3.393-3.843-5.241-5.647c-0.18-0.18-0.462-0.417-0.845-0.71
	s-0.778-0.63-1.184-1.014c-0.406-0.382-0.789-0.766-1.149-1.149c-0.361-0.383-0.654-0.754-0.88-1.116
	c-0.451-0.855-0.608-1.734-0.473-2.638c0.135-0.901,0.484-1.679,1.048-2.333c0.563-0.653,1.273-1.07,2.129-1.252
	c0.856-0.179,1.758,0,2.705,0.542c0.766,0.497,1.465,1.048,2.096,1.656c0.631,0.608,1.262,1.229,1.894,1.859
	c1.802,1.759,3.517,3.574,5.139,5.444c1.623,1.872,3.223,3.799,4.802,5.782c0.63-0.767,1.261-1.521,1.894-2.266
	c0.631-0.744,1.239-1.497,1.825-2.266c1.217-1.622,2.39-3.233,3.517-4.834C77.728,572.256,78.833,570.599,79.915,568.885z"/>
<path fill="none" stroke="#1D1C1A" stroke-width="2" stroke-miterlimit="10" d="M114.809,601.75c1.082-0.271,2.04-0.281,2.874-0.035
	c0.833,0.249,1.476,0.666,1.927,1.252c0.451,0.586,0.653,1.309,0.609,2.163c-0.045,0.857-0.429,1.759-1.149,2.705
	c-0.586,0.768-1.397,1.421-2.435,1.962s-2.006,0.97-2.907,1.285c-2.209,0.811-4.306,1.374-6.289,1.69
	c-1.985,0.315-3.844,0.315-5.579,0c-1.736-0.316-3.359-0.97-4.869-1.961c-1.511-0.99-2.92-2.389-4.227-4.193
	c-0.902-1.216-1.567-2.604-1.995-4.159c-0.429-1.555-0.666-3.145-0.709-4.768c-0.045-1.622,0.089-3.223,0.406-4.801
	c0.314-1.577,0.765-2.997,1.352-4.261c0.766-1.577,1.984-3.021,3.652-4.327c1.667-1.308,3.517-2.344,5.545-3.111
	c2.029-0.766,4.103-1.206,6.222-1.318c2.118-0.112,3.99,0.215,5.613,0.981c1.353,0.632,2.513,1.545,3.483,2.739
	c0.969,1.194,1.633,2.491,1.995,3.889c0.36,1.398,0.394,2.807,0.102,4.226c-0.294,1.42-1.026,2.717-2.198,3.889
	c-1.127,1.128-2.367,2.041-3.719,2.74s-2.75,1.309-4.193,1.825c-1.443,0.52-2.919,0.958-4.429,1.318
	c-1.511,0.361-2.965,0.768-4.362,1.217c0.947,1.082,2.029,1.771,3.246,2.062c1.217,0.293,2.49,0.349,3.82,0.168
	c1.33-0.18,2.671-0.551,4.024-1.115c1.353-0.562,2.614-1.184,3.787-1.859L114.809,601.75z M101.148,590.119
	c-1.038,0.587-1.804,1.318-2.299,2.199c-0.497,0.879-0.857,2.106-1.082,3.685c1.172-0.36,2.49-0.744,3.956-1.149
	c1.464-0.406,2.851-0.834,4.159-1.285c1.307-0.45,2.411-0.947,3.313-1.488c0.902-0.542,1.353-1.127,1.353-1.759
	c0-0.36-0.057-0.709-0.169-1.048c-0.113-0.339-0.35-0.574-0.71-0.709c-1.262-0.45-2.57-0.542-3.922-0.271
	c-1.353,0.271-2.479,0.654-3.381,1.15L101.148,590.119z"/>
<path fill="none" stroke="#1D1C1A" stroke-width="2" stroke-miterlimit="10" d="M150.92,609.054
	c-0.135,1.128-0.553,2.052-1.251,2.772c-0.7,0.721-1.488,1.172-2.367,1.353c-0.879,0.18-1.725,0.066-2.536-0.339
	c-0.812-0.404-1.398-1.194-1.758-2.366c-0.406-1.262-0.564-2.58-0.474-3.956c0.09-1.374,0.135-2.647,0.135-3.82
	c0-2.436,0.01-4.858,0.034-7.27c0.022-2.411-0.079-4.836-0.304-7.271c-0.045-0.089-0.09-0.169-0.135-0.237
	c-0.045-0.066-0.135-0.168-0.271-0.304c-1.037-0.271-2.142-0.203-3.314,0.202c-1.172,0.406-2.164,0.926-2.976,1.556
	c-0.722,0.587-1.432,1.387-2.13,2.401c-0.699,1.014-1.048,1.995-1.048,2.941v9.333c0,0.722,0.023,1.511,0.068,2.366
	c0.044,0.856,0.011,1.691-0.102,2.503c-0.113,0.812-0.371,1.555-0.778,2.23c-0.406,0.676-1.06,1.172-1.961,1.489
	c-0.497,0.18-0.958,0.246-1.386,0.202c-0.429-0.045-0.891-0.159-1.386-0.339c-0.812-0.27-1.397-0.732-1.758-1.387
	c-0.361-0.652-0.609-1.353-0.743-2.096c-0.135-0.744-0.192-1.466-0.169-2.164c0.022-0.699,0.034-1.251,0.034-1.656
	c0-1.037-0.012-2.536-0.034-4.498c-0.023-1.961-0.034-4.023-0.034-6.188s0-4.227,0-6.188c0-1.96,0-3.458,0-4.497
	c0-0.991,0.292-1.814,0.879-2.468c0.585-0.652,1.273-1.082,2.062-1.285c0.788-0.203,1.623-0.158,2.502,0.136
	c0.879,0.293,1.611,0.89,2.197,1.792c1.803-1.171,3.787-1.961,5.951-2.366c2.164-0.406,4.203-0.339,6.12,0.203
	c1.916,0.541,3.517,1.555,4.801,3.043c1.285,1.488,1.95,3.539,1.995,6.154c0,0.09,0.022,0.361,0.067,0.812
	c0.044,0.451,0.067,1.082,0.067,1.894L150.92,609.054L150.92,609.054z"/>
<path fill="none" stroke="#1D1C1A" stroke-width="2" stroke-miterlimit="10" d="M156.802,594.649
	c0.315-1.307,0.755-2.59,1.319-3.854c0.563-1.262,1.251-2.468,2.062-3.618c0.812-1.148,1.725-2.197,2.739-3.144
	c1.015-0.947,2.107-1.714,3.28-2.3c2.073-1.083,4.159-1.634,6.255-1.656s4.046,0.395,5.849,1.251
	c1.803,0.855,3.336,2.129,4.599,3.82c1.262,1.691,2.096,3.709,2.502,6.053c0.225,1.533,0.348,2.987,0.372,4.361
	c0.022,1.376-0.125,2.807-0.439,4.295c-0.451,2.12-1.364,4.227-2.739,6.322c-1.375,2.098-3.021,3.855-4.937,5.275
	c-1.917,1.42-4.013,2.355-6.289,2.807c-2.277,0.449-4.564,0.089-6.864-1.083c-1.038-0.497-1.973-1.071-2.806-1.724
	c-0.835-0.652-1.589-1.432-2.266-2.333c-0.767-0.991-1.364-2.028-1.792-3.111c-0.429-1.082-0.778-2.208-1.048-3.381
	c-0.316-1.262-0.429-2.536-0.338-3.82c0.09-1.285,0.248-2.536,0.473-3.754L156.802,594.649z M164.917,596.069
	c-0.135,0.723-0.249,1.433-0.338,2.13c-0.09,0.7-0.09,1.41,0,2.13c0.135,1.037,0.416,1.984,0.845,2.84
	c0.428,0.857,0.991,1.533,1.691,2.029c0.698,0.497,1.498,0.755,2.4,0.777c0.901,0.023,1.87-0.259,2.908-0.846
	c1.307-0.766,2.435-1.949,3.381-3.55c0.947-1.6,1.532-3.269,1.758-5.005c0.226-1.734,0.044-3.38-0.541-4.936
	c-0.586-1.556-1.736-2.671-3.45-3.348c-1.127,0-2.164,0.215-3.11,0.643c-0.947,0.429-1.77,0.991-2.468,1.69
	c-0.7,0.7-1.309,1.521-1.826,2.469C165.649,594.041,165.232,595.033,164.917,596.069z"/>
<path fill="none" stroke="#1D1C1A" stroke-width="2" stroke-miterlimit="10" d="M191.56,583.019
	c0.316-1.083,0.822-1.904,1.521-2.468c0.698-0.564,1.441-0.891,2.231-0.981c0.788-0.089,1.543,0.045,2.266,0.406
	c0.721,0.361,1.286,0.924,1.691,1.69c0.497-0.271,0.992-0.519,1.488-0.744c0.496-0.226,1.059-0.428,1.691-0.608
	c2.884-0.767,5.444-0.71,7.675,0.169c2.231,0.879,4.092,2.231,5.579,4.058c1.487,1.825,2.546,3.967,3.178,6.424
	c0.63,2.458,0.778,4.913,0.44,7.371c-0.338,2.458-1.208,4.756-2.604,6.898c-1.398,2.142-3.404,3.798-6.019,4.971
	c-1.715,0.765-3.506,1.251-5.376,1.453c-1.872,0.203-3.732,0.236-5.579,0.102c0,0.044,0.01,0.405,0.033,1.083
	c0.022,0.675,0.035,1.532,0.035,2.568c0,1.037,0,2.164,0,3.382c0,1.217-0.035,2.389-0.102,3.516c-0.068,1.127-0.159,2.13-0.271,3.01
	c-0.113,0.879-0.282,1.476-0.507,1.792c-0.586,0.855-1.308,1.396-2.164,1.623c-0.856,0.225-1.668,0.191-2.435-0.102
	c-0.767-0.294-1.432-0.789-1.995-1.488c-0.565-0.7-0.846-1.544-0.846-2.537v-41.183L191.56,583.019z M200.216,591.81
	c-0.136,0.226-0.203,0.327-0.203,0.304c0-0.021-0.091,0.058-0.271,0.237v11.158c0.901,0.135,1.802,0.202,2.705,0.202
	c0.902,0,1.849-0.136,2.841-0.406c2.028-0.496,3.628-1.475,4.802-2.942c1.171-1.464,1.622-3.278,1.353-5.443
	c-0.136-0.902-0.396-1.837-0.778-2.807c-0.384-0.969-0.891-1.793-1.521-2.468c-0.632-0.676-1.375-1.149-2.231-1.42
	c-0.856-0.27-1.825-0.18-2.907,0.271c-0.767,0.315-1.454,0.788-2.062,1.42C201.332,590.548,200.757,591.179,200.216,591.81z"/>
<path fill="none" stroke="#1D1C1A" stroke-width="2" stroke-miterlimit="10" d="M253.841,605.537
	c0.405,0.587,0.643,1.274,0.709,2.062c0.067,0.789-0.023,1.533-0.27,2.231c-0.248,0.7-0.653,1.273-1.216,1.725
	c-0.564,0.45-1.296,0.652-2.198,0.608c-1.173-0.091-2.12-0.497-2.841-1.218c-0.721-0.72-1.397-1.531-2.027-2.435
	c-1.758,1.442-3.574,2.445-5.444,3.01c-1.872,0.562-3.709,0.687-5.512,0.371c-1.803-0.316-3.495-1.071-5.072-2.266
	c-1.578-1.193-2.908-2.807-3.99-4.834c-0.993-1.894-1.544-3.991-1.657-6.289c-0.113-2.299-0.146-4.485-0.101-6.56
	c0-0.721,0.022-1.431,0.067-2.13c0.043-0.698,0.089-1.431,0.135-2.198c0.044-0.585,0.067-1.16,0.067-1.723
	c0-0.563,0.034-1.094,0.102-1.591c0.067-0.496,0.202-0.991,0.405-1.488c0.203-0.495,0.507-0.969,0.913-1.42
	c0.542-0.585,1.194-0.934,1.961-1.048c0.766-0.112,1.498-0.034,2.198,0.237c0.699,0.27,1.308,0.688,1.825,1.252
	c0.518,0.563,0.8,1.251,0.845,2.062c0.09,2.3,0.034,4.622-0.167,6.966c-0.203,2.345-0.192,4.644,0.034,6.897
	c0.089,1.084,0.371,2.188,0.846,3.314c0.473,1.127,1.228,1.938,2.265,2.435c1.035,0.451,2.083,0.418,3.145-0.102
	c1.059-0.518,1.927-1.138,2.604-1.858c0.315-0.361,0.62-0.755,0.912-1.186c0.293-0.428,0.62-0.8,0.981-1.115
	c-0.181-1.577-0.293-3.154-0.339-4.732c-0.045-1.578-0.045-3.155,0-4.733c0-0.855,0.035-1.793,0.102-2.807
	c0.067-1.015,0.248-1.983,0.541-2.908c0.294-0.924,0.732-1.734,1.318-2.435c0.586-0.699,1.42-1.138,2.502-1.318
	c0.497-0.09,0.982-0.045,1.454,0.136c0.473,0.18,0.889,0.429,1.251,0.744c0.63,0.541,1.058,1.148,1.286,1.825
	c0.225,0.676,0.338,1.397,0.338,2.163c0,0.768-0.058,1.544-0.169,2.333c-0.114,0.79-0.192,1.521-0.237,2.198
	c-0.09,1.263-0.159,2.593-0.203,3.99c-0.045,1.398,0,2.796,0.135,4.193c0.136,1.398,0.395,2.75,0.778,4.058
	C252.5,603.261,253.074,604.455,253.841,605.537z"/>
<path fill="none" stroke="#1D1C1A" stroke-width="2" stroke-miterlimit="10" d="M258.506,606.281
	c-0.27-0.766-0.384-1.521-0.338-2.265c0.044-0.744,0.237-1.42,0.575-2.028c0.337-0.608,0.822-1.083,1.454-1.42
	c0.63-0.339,1.396-0.462,2.299-0.371c0.496,0.045,0.947,0.181,1.353,0.405c0.406,0.226,0.778,0.497,1.116,0.811
	c0.338,0.317,0.676,0.654,1.014,1.015c0.339,0.361,0.687,0.676,1.049,0.947c0.766,0.586,1.577,1.014,2.435,1.285
	c0.855,0.27,1.758,0.473,2.705,0.609c0.631,0,1.138-0.159,1.521-0.474c0.382-0.315,0.643-0.699,0.778-1.149
	c0.136-0.45,0.169-0.935,0.102-1.455c-0.067-0.518-0.237-0.934-0.507-1.25c-0.767-0.767-1.701-1.263-2.806-1.489
	c-1.106-0.225-2.129-0.495-3.076-0.811c-1.353-0.45-2.683-1.025-3.99-1.724c-1.309-0.699-2.368-1.657-3.178-2.874
	c-0.857-1.262-1.364-2.604-1.521-4.022c-0.158-1.421-0.045-2.807,0.338-4.16c0.383-1.353,1.024-2.591,1.927-3.719
	c0.901-1.127,1.983-2.052,3.246-2.772c0.947-0.541,1.983-0.89,3.111-1.048c1.126-0.158,2.266-0.191,3.415-0.102
	c1.15,0.09,2.288,0.304,3.415,0.643c1.127,0.338,2.164,0.71,3.111,1.115c1.083,0.497,1.894,1.195,2.435,2.097
	c0.542,0.902,0.801,1.815,0.778,2.739c-0.023,0.925-0.338,1.724-0.946,2.4c-0.609,0.676-1.5,1.015-2.671,1.015
	c-0.722,0-1.376-0.124-1.961-0.371c-0.586-0.247-1.195-0.484-1.825-0.71c-0.812-0.316-1.691-0.529-2.638-0.643
	s-1.714-0.057-2.299,0.168c-0.181,0.046-0.384,0.192-0.608,0.439c-0.227,0.249-0.396,0.553-0.507,0.913
	c-0.113,0.361-0.135,0.723-0.067,1.083c0.067,0.361,0.304,0.652,0.709,0.879c1.083,0.587,2.231,1.038,3.45,1.353
	c1.216,0.317,2.41,0.677,3.583,1.083c1.171,0.405,2.265,0.925,3.279,1.556c1.015,0.631,1.86,1.533,2.536,2.705
	c0.992,1.714,1.499,3.506,1.521,5.376c0.022,1.871-0.349,3.617-1.116,5.239c-0.767,1.623-1.894,3.01-3.38,4.159
	c-1.488,1.149-3.225,1.837-5.208,2.062c-1.397,0.136-2.772,0.057-4.125-0.236c-1.353-0.294-2.661-0.768-3.921-1.42
	c-1.263-0.654-2.436-1.431-3.517-2.333c-1.083-0.902-2.029-1.849-2.841-2.841L258.506,606.281z"/>
<path fill="none" stroke="#1D1C1A" stroke-width="2" stroke-miterlimit="10" d="M318.285,588.293
	c-0.904-0.225-1.681-0.608-2.333-1.149c-0.653-0.541-1.105-1.172-1.353-1.894c-0.248-0.722-0.248-1.466,0-2.231
	c0.247-0.767,0.801-1.465,1.656-2.097c0.721-0.541,1.532-0.812,2.436-0.812c0.901,0,1.779,0,2.638,0
	c0-0.315-0.023-1.003-0.068-2.062c-0.045-1.058-0.057-2.22-0.033-3.481c0.021-1.262,0.102-2.469,0.236-3.617
	c0.136-1.15,0.383-1.951,0.745-2.401c0.901-1.262,2.017-1.86,3.347-1.793s2.423,0.71,3.279,1.927
	c0.18,0.227,0.349,0.497,0.507,0.812c0.158,0.316,0.238,0.608,0.238,0.88c0.043,1.622,0.056,3.246,0.033,4.869
	c-0.023,1.622-0.033,3.246-0.033,4.868h5.342c0.811,0,1.51,0.271,2.096,0.812s1.004,1.173,1.251,1.894
	c0.247,0.722,0.316,1.467,0.203,2.231c-0.113,0.768-0.462,1.397-1.048,1.894c-1.037,0.856-2.243,1.309-3.618,1.353
	c-1.375,0.045-2.784,0.067-4.226,0.067c0,2.48-0.013,4.959-0.035,7.438c-0.022,2.48-0.011,4.959,0.035,7.438
	c0,1.083,0.057,2.188,0.168,3.314c0.113,1.127,0.035,2.208-0.236,3.246c-0.227,0.812-0.609,1.453-1.15,1.927
	c-0.541,0.473-1.149,0.766-1.825,0.879s-1.376,0.068-2.097-0.135c-0.722-0.203-1.397-0.575-2.028-1.116
	c-0.316-0.315-0.552-0.854-0.709-1.622c-0.159-0.767-0.261-1.577-0.305-2.435c-0.045-0.991-0.045-2.051,0-3.179
	c0-0.901,0-2.072,0-3.516c0-1.441-0.013-2.942-0.034-4.497c-0.023-1.556-0.034-3.031-0.034-4.43c0-1.396,0-2.502,0-3.313
	L318.285,588.293z"/>
<path fill="none" stroke="#1D1C1A" stroke-width="2" stroke-miterlimit="10" d="M344.455,589.949
	c0.044-0.293,0.021-0.821-0.067-1.589c-0.722-0.405-1.285-0.925-1.691-1.556c-0.405-0.63-0.643-1.308-0.709-2.027
	c-0.067-0.722,0.066-1.409,0.405-2.062s0.89-1.207,1.656-1.657c1.036-0.586,2.175-0.699,3.415-0.338
	c1.239,0.36,2.311,0.901,3.213,1.622c1.126-0.855,2.299-1.577,3.516-2.164c1.218-0.585,2.457-0.981,3.72-1.185
	c1.262-0.202,2.546-0.168,3.854,0.102c1.308,0.271,2.592,0.835,3.855,1.692c0.63,0.404,1.216,0.911,1.757,1.521
	c0.542,0.608,0.881,1.296,1.016,2.062c0.225,1.127,0.135,2.107-0.271,2.941c-0.406,0.834-0.971,1.443-1.691,1.826
	c-0.722,0.383-1.533,0.497-2.436,0.338c-0.902-0.157-1.757-0.643-2.568-1.454c-0.271-0.18-0.463-0.326-0.574-0.439
	c-0.114-0.112-0.351-0.259-0.711-0.439c-0.722-0.181-1.432-0.137-2.129,0.135c-0.7,0.271-1.376,0.643-2.028,1.116
	c-0.653,0.472-1.262,0.991-1.825,1.555c-0.564,0.564-1.071,1.071-1.521,1.521v17.244c0,0.676-0.135,1.331-0.405,1.962
	c-0.406,1.035-1.049,1.758-1.927,2.162c-0.88,0.406-1.759,0.52-2.639,0.34c-0.879-0.181-1.645-0.632-2.299-1.353
	c-0.653-0.723-0.98-1.646-0.98-2.772v-18.935C344.388,590.3,344.41,590.244,344.455,589.949z"/>
<path fill="none" stroke="#1D1C1A" stroke-width="2" stroke-miterlimit="10" d="M368.664,594.649
	c0.315-1.307,0.754-2.59,1.318-3.854c0.563-1.262,1.251-2.468,2.062-3.618c0.812-1.148,1.725-2.197,2.739-3.144
	c1.015-0.947,2.106-1.714,3.279-2.3c2.073-1.083,4.159-1.634,6.256-1.656s4.046,0.395,5.851,1.251
	c1.802,0.855,3.335,2.129,4.599,3.82c1.262,1.691,2.096,3.709,2.501,6.053c0.226,1.533,0.35,2.987,0.373,4.361
	c0.021,1.376-0.125,2.807-0.44,4.295c-0.451,2.12-1.364,4.227-2.739,6.322c-1.376,2.098-3.021,3.855-4.936,5.275
	c-1.918,1.42-4.015,2.355-6.289,2.807c-2.277,0.449-4.565,0.089-6.864-1.083c-1.037-0.497-1.974-1.071-2.807-1.724
	c-0.834-0.652-1.59-1.432-2.265-2.333c-0.768-0.991-1.364-2.028-1.792-3.111c-0.43-1.082-0.778-2.208-1.049-3.381
	c-0.317-1.262-0.429-2.536-0.339-3.82c0.089-1.285,0.247-2.536,0.473-3.754L368.664,594.649z M376.778,596.069
	c-0.136,0.723-0.248,1.433-0.339,2.13c-0.09,0.7-0.09,1.41,0,2.13c0.137,1.037,0.417,1.984,0.847,2.84
	c0.427,0.857,0.99,1.533,1.69,2.029c0.698,0.497,1.498,0.755,2.4,0.777c0.901,0.023,1.871-0.259,2.908-0.846
	c1.308-0.766,2.436-1.949,3.381-3.55c0.946-1.6,1.532-3.269,1.758-5.005c0.225-1.734,0.044-3.38-0.541-4.936
	c-0.587-1.556-1.736-2.671-3.449-3.348c-1.128,0-2.164,0.215-3.111,0.643c-0.946,0.429-1.77,0.991-2.468,1.69
	c-0.7,0.7-1.308,1.521-1.825,2.469C377.511,594.041,377.094,595.033,376.778,596.069z"/>
<path fill="none" stroke="#1D1C1A" stroke-width="2" stroke-miterlimit="10" d="M403.422,583.019
	c0.315-1.083,0.822-1.904,1.521-2.468c0.698-0.564,1.441-0.891,2.231-0.981c0.788-0.089,1.543,0.045,2.265,0.406
	c0.721,0.361,1.285,0.924,1.691,1.69c0.495-0.271,0.99-0.519,1.487-0.744c0.496-0.226,1.059-0.428,1.691-0.608
	c2.885-0.767,5.444-0.71,7.675,0.169c2.231,0.879,4.093,2.231,5.579,4.058c1.487,1.825,2.547,3.967,3.178,6.424
	c0.631,2.458,0.778,4.913,0.44,7.371c-0.339,2.458-1.207,4.756-2.604,6.898c-1.397,2.142-3.403,3.798-6.018,4.971
	c-1.715,0.765-3.507,1.251-5.376,1.453c-1.872,0.203-3.731,0.236-5.579,0.102c0,0.044,0.012,0.405,0.034,1.083
	c0.022,0.675,0.034,1.532,0.034,2.568c0,1.037,0,2.164,0,3.382c0,1.217-0.034,2.389-0.102,3.516s-0.158,2.13-0.27,3.01
	c-0.113,0.879-0.282,1.476-0.507,1.792c-0.587,0.855-1.31,1.396-2.164,1.623c-0.856,0.225-1.669,0.191-2.436-0.102
	c-0.768-0.294-1.432-0.789-1.995-1.488c-0.564-0.7-0.845-1.544-0.845-2.537v-41.183L403.422,583.019z M412.077,591.81
	c-0.135,0.226-0.202,0.327-0.202,0.304c0-0.021-0.091,0.058-0.271,0.237v11.158c0.901,0.135,1.802,0.202,2.705,0.202
	c0.901,0,1.849-0.136,2.841-0.406c2.028-0.496,3.628-1.475,4.802-2.942c1.171-1.464,1.622-3.278,1.353-5.443
	c-0.136-0.902-0.396-1.837-0.778-2.807c-0.384-0.969-0.891-1.793-1.521-2.468c-0.632-0.676-1.375-1.149-2.231-1.42
	c-0.855-0.27-1.824-0.18-2.908,0.271c-0.767,0.315-1.453,0.788-2.062,1.42C413.193,590.548,412.618,591.179,412.077,591.81z"/>
<path fill="none" stroke="#1D1C1A" stroke-width="2" stroke-miterlimit="10" d="M436.76,570.44c0.18-1.669,0.753-2.896,1.723-3.686
	c0.97-0.788,1.996-1.172,3.077-1.149c1.083,0.023,2.085,0.44,3.01,1.251c0.923,0.812,1.408,1.961,1.454,3.45
	c0.089,1.532-0.305,2.716-1.185,3.55c-0.88,0.835-1.883,1.309-3.009,1.419c-1.128,0.114-2.188-0.19-3.179-0.912
	c-0.992-0.721-1.601-1.871-1.825-3.449L436.76,570.44z M445.686,608.918c-0.09,0.903-0.405,1.702-0.946,2.401
	c-0.541,0.698-1.161,1.206-1.86,1.521c-0.7,0.315-1.454,0.383-2.265,0.203c-0.812-0.181-1.533-0.676-2.164-1.488
	c-0.361-0.451-0.62-0.957-0.777-1.521c-0.16-0.563-0.261-1.149-0.305-1.758c-0.046-0.607-0.058-1.217-0.035-1.825
	s0.035-1.16,0.035-1.656c-0.046-2.66-0.058-5.297-0.035-7.913c0.022-2.613,0.012-5.251-0.034-7.912c0-1.083-0.067-2.176-0.202-3.279
	c-0.136-1.104-0.067-2.198,0.202-3.28c0.226-0.811,0.619-1.51,1.184-2.096c0.563-0.586,1.194-0.991,1.895-1.217
	c0.699-0.226,1.42-0.247,2.163-0.067c0.745,0.181,1.388,0.653,1.928,1.42c0.721,0.903,1.082,1.791,1.082,2.67s0,1.951,0,3.213
	c0,1.533,0,3.066,0,4.599c0,1.533,0.022,3.044,0.067,4.53c0.044,2.164,0.067,4.328,0.067,6.492c0,2.163,0,4.327,0,6.491
	L445.686,608.918L445.686,608.918z"/>
<path fill="none" stroke="#1D1C1A" stroke-width="2" stroke-miterlimit="10" d="M470.1,602.359c1.126-0.721,2.197-1.036,3.212-0.947
	c1.015,0.091,1.849,0.44,2.502,1.049s1.014,1.42,1.083,2.435c0.067,1.015-0.282,2.086-1.048,3.213
	c-0.497,0.768-1.208,1.466-2.13,2.097c-0.925,0.63-1.816,1.126-2.672,1.488c-1.983,0.901-3.99,1.308-6.018,1.217
	c-2.028-0.091-3.912-0.587-5.647-1.488c-1.736-0.901-3.235-2.152-4.497-3.753c-1.263-1.6-2.12-3.46-2.569-5.579
	c-0.903-4.058-0.723-7.957,0.541-11.699c0.495-1.353,1.092-2.659,1.792-3.922c0.699-1.263,1.544-2.41,2.537-3.449
	c0.991-1.036,2.096-1.949,3.313-2.739c1.217-0.788,2.546-1.318,3.99-1.59c0.99-0.18,2.255-0.168,3.787,0.035
	c1.532,0.202,3.031,0.598,4.497,1.184s2.749,1.353,3.854,2.299c1.105,0.947,1.725,2.075,1.86,3.381c0.089,0.723,0,1.387-0.271,1.995
	c-0.271,0.609-0.653,1.116-1.149,1.521c-0.496,0.406-1.072,0.688-1.725,0.846c-0.653,0.158-1.318,0.146-1.995-0.034
	c-0.811-0.226-1.453-0.529-1.926-0.913c-0.474-0.383-1.094-0.89-1.86-1.521c-0.361-0.09-0.699-0.237-1.014-0.44
	c-0.316-0.202-0.654-0.28-1.015-0.236l-1.825,0.202c-0.316,0.182-0.608,0.339-0.879,0.474s-0.542,0.27-0.812,0.404
	c-1.534,1.534-2.661,3.236-3.382,5.106c-0.721,1.872-0.902,3.889-0.541,6.053c0.226,1.398,0.665,2.548,1.318,3.449
	c0.652,0.902,1.42,1.521,2.301,1.859c0.878,0.339,1.848,0.372,2.907,0.102c1.058-0.271,2.105-0.88,3.145-1.825L470.1,602.359z"/>
<path fill="none" stroke="#1D1C1A" stroke-width="2" stroke-miterlimit="10" d="M510.402,607.836c0.36,1.31,0.293,2.391-0.203,3.248
	c-0.497,0.854-1.185,1.43-2.062,1.723c-0.88,0.294-1.837,0.26-2.874-0.102c-1.036-0.36-1.938-1.082-2.705-2.164
	c-1.262,0.948-2.49,1.613-3.685,1.996c-1.195,0.383-2.56,0.598-4.093,0.643c-2.299,0.09-4.35-0.169-6.153-0.777
	s-3.325-1.521-4.564-2.74c-1.241-1.216-2.154-2.738-2.74-4.563c-0.586-1.826-0.788-3.933-0.607-6.323
	c0.089-0.991,0.259-1.961,0.507-2.908c0.246-0.946,0.528-1.87,0.845-2.772c0.361-0.99,0.868-2.051,1.521-3.177
	c0.652-1.128,1.318-2.098,1.995-2.908c2.435-2.976,5.478-5.116,9.13-6.425c0.63-0.225,1.487-0.428,2.569-0.608
	c1.082-0.18,2.175-0.259,3.278-0.237c1.105,0.023,2.164,0.169,3.179,0.44c1.014,0.27,1.769,0.744,2.265,1.42
	c0.406,0.541,0.699,1.014,0.88,1.42c0.18,0.405,0.281,0.834,0.305,1.285c0.021,0.45,0.021,0.936,0,1.453
	c-0.023,0.52-0.034,1.161-0.034,1.928c0,1.262-0.013,2.491-0.034,3.685c-0.023,1.194-0.013,2.4,0.034,3.617c0,0.406,0,0.937,0,1.59
	c0,0.654,0.021,1.341,0.067,2.062c0.044,0.723,0.101,1.41,0.168,2.062c0.067,0.653,0.168,1.184,0.305,1.59L510.402,607.836z
	 M496.065,604.794c0.496-0.315,1.059-0.665,1.691-1.049c0.63-0.383,1.193-0.822,1.69-1.318c-0.405-2.389-0.643-4.778-0.71-7.168
	c-0.066-2.39-0.057-4.802,0.035-7.235c-2.029,0.361-3.855,1.239-5.478,2.638c-1.623,1.397-2.751,3.043-3.382,4.936
	c-0.269,0.768-0.497,1.556-0.676,2.367c-0.18,0.811-0.248,1.601-0.203,2.366c0.045,1.037,0.315,1.905,0.812,2.604
	c0.496,0.701,1.092,1.229,1.793,1.59c0.698,0.362,1.441,0.564,2.231,0.608C494.657,605.177,495.39,605.063,496.065,604.794z"/>
<path fill="none" stroke="#1D1C1A" stroke-width="2" stroke-miterlimit="10" d="M524.672,606.619
	c0.496,0.45,0.912,1.025,1.252,1.724c0.338,0.7,0.518,1.397,0.541,2.097c0.021,0.699-0.137,1.353-0.474,1.961
	s-0.936,1.07-1.792,1.387c-0.676,0.225-1.42,0.27-2.231,0.136c-0.811-0.135-1.612-0.406-2.4-0.812
	c-0.79-0.406-1.488-0.891-2.097-1.454c-0.608-0.564-1.048-1.184-1.318-1.859c-0.09-0.226-0.158-0.484-0.203-0.777
	c-0.044-0.294-0.066-0.552-0.066-0.778v-37.531c0-1.036,0.395-1.916,1.184-2.638c0.788-0.721,1.657-1.149,2.604-1.285
	c0.45-0.044,0.935,0.023,1.453,0.203c0.519,0.181,1.004,0.439,1.455,0.777c0.449,0.338,0.822,0.733,1.115,1.184
	c0.293,0.451,0.439,0.926,0.439,1.42c0,1.173,0,2.729,0,4.666c0,1.938,0.012,4.058,0.035,6.357c0.021,2.3,0.034,4.679,0.034,7.134
	c0,2.459-0.013,4.812-0.034,7.066c-0.024,2.256-0.035,4.318-0.035,6.188c0,1.871-0.022,3.37-0.066,4.497L524.672,606.619z"/>
<path fill="none" stroke="#1D1C1A" stroke-width="2" stroke-miterlimit="10" d="M531.907,570.44
	c0.181-1.669,0.754-2.896,1.725-3.686c0.969-0.788,1.995-1.172,3.076-1.149c1.083,0.023,2.085,0.44,3.01,1.251
	c0.924,0.812,1.409,1.961,1.454,3.45c0.089,1.532-0.306,2.716-1.185,3.55c-0.88,0.835-1.883,1.309-3.01,1.419
	c-1.127,0.114-2.187-0.19-3.178-0.912c-0.992-0.721-1.6-1.871-1.825-3.449L531.907,570.44z M540.834,608.918
	c-0.09,0.903-0.405,1.702-0.946,2.401c-0.541,0.698-1.161,1.206-1.86,1.521c-0.699,0.315-1.454,0.383-2.265,0.203
	c-0.812-0.181-1.534-0.676-2.164-1.488c-0.362-0.451-0.621-0.957-0.778-1.521c-0.159-0.563-0.26-1.149-0.304-1.758
	c-0.046-0.607-0.058-1.217-0.034-1.825c0.021-0.608,0.034-1.16,0.034-1.656c-0.046-2.66-0.058-5.297-0.034-7.913
	c0.021-2.613,0.011-5.251-0.035-7.912c0-1.083-0.066-2.176-0.202-3.279c-0.136-1.104-0.067-2.198,0.202-3.28
	c0.226-0.811,0.62-1.51,1.185-2.096c0.563-0.586,1.193-0.991,1.894-1.217c0.698-0.226,1.42-0.247,2.164-0.067
	c0.744,0.181,1.387,0.653,1.926,1.42c0.722,0.903,1.084,1.791,1.084,2.67s0,1.951,0,3.213c0,1.533,0,3.066,0,4.599
	c0,1.533,0.021,3.044,0.066,4.53c0.044,2.164,0.067,4.328,0.067,6.492c0,2.163,0,4.327,0,6.491L540.834,608.918L540.834,608.918z"/>
<path fill="none" stroke="#1D1C1A" stroke-width="2" stroke-miterlimit="10" d="M546.717,606.281
	c-0.27-0.766-0.384-1.521-0.339-2.265c0.044-0.744,0.237-1.42,0.574-2.028s0.823-1.083,1.454-1.42
	c0.631-0.339,1.396-0.462,2.3-0.371c0.496,0.045,0.947,0.181,1.353,0.405c0.405,0.226,0.777,0.497,1.115,0.811
	c0.339,0.317,0.676,0.654,1.015,1.015c0.338,0.361,0.687,0.676,1.048,0.947c0.767,0.586,1.577,1.014,2.436,1.285
	c0.854,0.27,1.758,0.473,2.705,0.609c0.63,0,1.137-0.159,1.521-0.474c0.383-0.315,0.643-0.699,0.777-1.149
	c0.137-0.45,0.169-0.935,0.103-1.455c-0.067-0.518-0.238-0.934-0.508-1.25c-0.767-0.767-1.702-1.263-2.806-1.489
	c-1.106-0.225-2.13-0.495-3.077-0.811c-1.353-0.45-2.683-1.025-3.99-1.724c-1.309-0.699-2.367-1.657-3.178-2.874
	c-0.856-1.262-1.364-2.604-1.521-4.022c-0.158-1.421-0.045-2.807,0.339-4.16c0.383-1.353,1.024-2.591,1.926-3.719
	c0.901-1.127,1.983-2.052,3.246-2.772c0.948-0.541,1.983-0.89,3.111-1.048c1.127-0.158,2.266-0.191,3.415-0.102
	c1.15,0.09,2.287,0.304,3.415,0.643c1.127,0.338,2.163,0.71,3.11,1.115c1.083,0.497,1.895,1.195,2.436,2.097
	c0.541,0.902,0.8,1.815,0.777,2.739c-0.022,0.925-0.338,1.724-0.946,2.4c-0.608,0.676-1.499,1.015-2.672,1.015
	c-0.722,0-1.375-0.124-1.96-0.371c-0.587-0.247-1.195-0.484-1.826-0.71c-0.812-0.316-1.69-0.529-2.638-0.643
	c-0.946-0.113-1.714-0.057-2.3,0.168c-0.181,0.046-0.384,0.192-0.607,0.439c-0.227,0.249-0.396,0.553-0.508,0.913
	c-0.113,0.361-0.135,0.723-0.066,1.083c0.066,0.361,0.304,0.652,0.709,0.879c1.082,0.587,2.231,1.038,3.449,1.353
	c1.217,0.317,2.411,0.677,3.584,1.083c1.172,0.405,2.265,0.925,3.279,1.556s1.859,1.533,2.536,2.705
	c0.991,1.714,1.498,3.506,1.521,5.376c0.022,1.871-0.349,3.617-1.114,5.239c-0.768,1.623-1.894,3.01-3.381,4.159
	c-1.488,1.149-3.224,1.837-5.208,2.062c-1.397,0.136-2.771,0.057-4.125-0.236c-1.352-0.294-2.66-0.768-3.921-1.42
	c-1.263-0.654-2.436-1.431-3.517-2.333c-1.083-0.902-2.028-1.849-2.841-2.841L546.717,606.281z"/>
<path fill="none" stroke="#1D1C1A" stroke-width="2" stroke-miterlimit="10" d="M235.365,345.26
	c-2.821-4.845-6.144-10.028-9.974-15.554c-3.836-5.521-7.894-11.269-12.173-17.244c-2.86-3.985-5.691-7.808-8.5-11.495
	c-14.343-7.799-28.68-15.609-43.008-23.436c-3.652-1.995-0.37-7.571,3.273-5.535c10.116,5.651,20.224,11.314,30.333,16.977
	c-2.196-2.751-4.296-5.36-6.274-7.787c-3.498-4.279-6.255-7.549-8.284-9.805c8.337-10.144,16.51-20.398,24.514-30.769
	c7.999-10.365,15.723-21.186,23.161-32.46c2.251-3.154,4.565-6.424,6.932-9.805s4.337-6.985,5.917-10.82
	c2.029-5.41,2.081-10.312,0.169-14.708c-1.918-4.396-4.792-7.719-8.622-9.975c-3.835-2.25-8.116-3.265-12.849-3.043
	c-4.734,0.227-9.129,2.367-13.187,6.424c-5.409,8.569-10.936,16.854-16.57,24.852c-5.637,8.004-11.497,16.061-17.583,24.175
	c-2.932,3.835-5.975,7.608-9.129,11.327c-3.159,3.719-6.313,7.497-9.467,11.327c-7.894-9.917-15.892-19.553-24.007-28.909
	c-8.115-9.351-16.684-18.427-25.697-27.219c-3.159-3.153-6.313-6.255-9.467-9.298c-3.159-3.043-6.651-5.801-10.482-8.284
	c-4.734-2.705-9.246-3.603-13.524-2.705c-4.285,0.903-7.835,2.99-10.651,6.255c-2.821,3.271-4.564,7.159-5.24,11.665
	c-0.676,4.512,0.11,8.907,2.366,13.187c1.125,1.807,2.589,3.667,4.396,5.579c1.802,1.918,3.72,3.835,5.749,5.748
	c2.028,1.918,3.999,3.609,5.917,5.072c1.913,1.469,3.323,2.652,4.227,3.55c9.24,9.018,17.973,18.427,26.205,28.233
	c8.226,9.806,16.283,19.78,24.176,29.924c-9.019,10.82-18.037,21.471-27.05,31.953c-9.019,10.481-18.037,21.021-27.05,31.615
	c-3.159,3.609-6.482,7.048-9.975,10.313c-3.497,3.271-6.144,7.16-7.945,11.666c-1.808,4.285-2.198,8.453-1.184,12.511
	c1.015,4.057,2.874,7.438,5.579,10.143s6.086,4.565,10.144,5.578c4.058,1.014,8.226,0.618,12.511-1.184
	c2.478-0.903,5.183-2.822,8.115-5.749c2.927-2.927,5.859-6.139,8.792-9.636c2.927-3.492,5.69-6.932,8.284-10.313
	c2.589-3.381,4.786-6.086,6.594-8.115c6.535-7.438,13.128-14.93,19.78-22.485c6.646-7.55,13.128-15.268,19.442-23.161
	c6.535,7.893,12.848,15.839,18.935,23.837c6.086,8.005,11.945,16.289,17.582,24.852c2.705,4.058,5.41,8.908,8.115,14.54
	c2.705,5.638,5.86,10.028,9.468,13.187c4.278,3.831,8.732,5.749,13.355,5.749c4.618,0,8.675-1.3,12.173-3.889
	c3.492-2.593,6.086-6.085,7.777-10.482c1.691-4.395,1.633-9.182-0.169-14.369C240.151,354.109,238.181,350.11,235.365,345.26z"/>
<path fill="none" stroke="#1D1C1A" stroke-width="2" stroke-miterlimit="10" d="M291.46,423.657
	c-3.612-3.167-7.747-5.771-12.525-7.553c-5.297-1.976-11.495-2.836-16.448-0.123c-4.592,2.513-7.164,7.601-8.36,12.653
	c-3.212,13.559,1.801,28.089,10.546,39.004c8.746,10.919,20.853,18.704,33.281,25.263c-12.569,1.39-24.519,7.675-32.708,17.201
	c6.5-0.021,12.995-1.106,19.142-3.197c-3.785,1.779-7.3,4.114-10.394,6.905c-0.792,0.716-1.616,1.823-1.057,2.726
	c0.585,0.946,2.031,0.65,3.072,0.236c4.335-1.722,8.671-3.446,13.008-5.171c-3.596,2.092-6.077,5.95-6.467,10.055
	c7.354-0.733,13.842-4.882,20.006-8.912c6.182-4.043,12.365-8.085,18.549-12.128C308.416,476.138,298.466,450.277,291.46,423.657z"
	/>
<path fill="none" stroke="#1D1C1A" stroke-width="2" stroke-miterlimit="10" d="M337.054,456.734
	c2.989,14.662,8.168,28.79,13.326,42.849c1.922,5.238,3.844,10.477,5.762,15.712c6.812-1.339,12.734-2.507,14.099-2.665
	c13.37-1.543,26.842-2.195,40.303-1.958c12.614,0.225,25.218,1.226,37.705,3.014c3.764-3.699,6.923-8.019,9.771-12.467
	c10.934-17.093,17.839-37.056,17.405-57.273c-0.431-20.215-8.68-40.592-24.058-53.928c-7.213-6.251-15.771-10.851-24.694-14.34
	c-8.848-3.458-18.205-5.881-27.718-6.103c-19.422-0.45-38.075,7.8-50.229,22.856C333.607,411.159,332.403,433.906,337.054,456.734z"
	/>
<path fill="none" stroke="#1D1C1A" stroke-width="2" stroke-miterlimit="10" d="M455.335,279.366
	c1.524,5.982-4.869,12.176-11.773,8.733c-0.978-0.486-1.876-1.171-2.461-2.084c-4.673-7.3,4.049-17.602,11.541-10.897
	C454.098,276.422,454.958,277.888,455.335,279.366z"/>
<path fill="none" stroke="#1D1C1A" stroke-width="2" stroke-miterlimit="10" d="M361.892,279.965
	c1.667,6.539-5.321,13.31-12.871,9.546c-1.067-0.532-2.051-1.281-2.69-2.28c-5.107-7.979,4.428-19.24,12.614-11.911
	C360.539,276.746,361.48,278.348,361.892,279.965z"/>
<path fill="none" stroke="#1D1C1A" stroke-width="2" stroke-miterlimit="10" d="M291.728,327.348c0,1.282,1.071,2.353,2.354,2.353
	c1.282,0,2.353-1.071,2.353-2.353c0-1.283-1.071-2.353-2.353-2.353C292.798,324.995,291.728,326.065,291.728,327.348z"/>
<path fill="none" stroke="#1D1C1A" stroke-width="2" stroke-miterlimit="10" d="M301.606,329.544c0,1.197,1,2.197,2.196,2.197
	c1.197,0,2.197-1,2.197-2.197c0-1.197-1-2.196-2.197-2.196C302.606,327.348,301.606,328.347,301.606,329.544z"/>
<path fill="none" stroke="#1D1C1A" stroke-width="2" stroke-miterlimit="10" d="M269.054,439.296
	c11.594-1.077,9.935-18.976-1.659-17.901C255.799,422.471,257.458,440.373,269.054,439.296
	C274.022,438.835,264.085,439.758,269.054,439.296z"/>
<path fill="none" stroke="#1D1C1A" stroke-width="2" stroke-miterlimit="10" d="M265.451,455.197
	c4.71-0.438,3.801-10.265-0.912-9.826C259.828,445.807,260.74,455.63,265.451,455.197
	C267.38,455.018,263.52,455.374,265.451,455.197z"/>
<path fill="none" stroke="#1D1C1A" stroke-width="2" stroke-miterlimit="10" d="M273.789,449.733
	c3.921-0.36,3.108-9.111-0.812-8.748C269.057,441.354,269.869,450.097,273.789,449.733
	C275.382,449.587,272.197,449.881,273.789,449.733z"/>
<path fill="none" stroke="#1D1C1A" stroke-width="2" stroke-miterlimit="10" d="M504.062,363.05
	c-24.396-2.051-20.342-37.833,3.651-35.821C532.112,329.279,528.058,365.068,504.062,363.05
	C493.637,362.174,514.49,363.927,504.062,363.05z"/>
<path fill="none" stroke="#1D1C1A" stroke-width="2" stroke-miterlimit="10" d="M511.48,394.821
	c-9.875-0.831-7.754-20.486,2.004-19.663C523.361,375.986,521.234,395.632,511.48,394.821
	C507.428,394.48,515.533,395.158,511.48,394.821z"/>
<path fill="none" stroke="#1D1C1A" stroke-width="2" stroke-miterlimit="10" d="M494.024,383.971
	c-8.212-0.682-6.339-18.186,1.784-17.505C504.02,367.167,502.147,384.654,494.024,383.971
	C490.681,383.693,497.364,384.252,494.024,383.971z"/>
<path fill="none" stroke="#1D1C1A" stroke-width="2" stroke-miterlimit="10" d="M549.299,449.115
	c11.223-1.043,8.964-25.397-2.259-24.358C535.817,425.798,538.075,450.158,549.299,449.115
	C553.882,448.689,544.715,449.541,549.299,449.115z"/>
<path fill="none" stroke="#1D1C1A" stroke-width="2" stroke-miterlimit="10" d="M540.287,464.2c4.544-0.422,3.304-13.794-1.24-13.37
	C534.503,451.251,535.742,464.617,540.287,464.2C542.068,464.035,538.506,464.363,540.287,464.2z"/>
<path fill="none" stroke="#1D1C1A" stroke-width="2" stroke-miterlimit="10" d="M551.29,462.461
	c3.774-0.346,2.991-8.797-0.782-8.446C546.732,454.37,547.518,462.811,551.29,462.461
	C552.76,462.325,549.822,462.597,551.29,462.461z"/>
<path fill="none" stroke="#000000" stroke-width="2" d="M82.479,670.463c0.467,0.901,0.634,1.81,0.5,2.728
	c-0.134,0.917-0.734,1.594-1.801,2.027c-1,0.366-1.96,0.267-2.878-0.301c-0.918-0.567-1.743-1.335-2.477-2.302
	c-0.734-0.968-1.369-1.985-1.901-3.053c-0.534-1.067-0.935-1.935-1.201-2.602c-1.702-3.937-2.62-8.032-2.752-12.286
	c-0.134-4.253,0.417-8.398,1.651-12.435c0.3-1.033,0.701-2.01,1.201-2.928c0.5-0.916,1-1.843,1.501-2.777
	c0.301-0.532,0.676-1.2,1.126-2.002c0.45-0.801,0.976-1.517,1.576-2.152c0.601-0.633,1.259-1.083,1.977-1.351
	c0.717-0.267,1.493-0.149,2.327,0.351c0.801,0.5,1.234,1.093,1.301,1.775c0.066,0.685-0.059,1.386-0.375,2.103
	c-0.317,0.718-0.718,1.41-1.201,2.077c-0.484,0.668-0.875,1.235-1.176,1.701c-0.434,0.768-0.792,1.418-1.076,1.951
	c-0.283,0.534-0.518,0.984-0.701,1.352c-0.184,0.368-0.325,0.692-0.425,0.977c-0.101,0.283-0.184,0.559-0.25,0.825
	c-0.5,1.735-0.868,3.596-1.101,5.579c-0.234,1.985-0.3,3.979-0.2,5.98c0.101,2.001,0.4,3.962,0.901,5.879
	c0.5,1.92,1.234,3.679,2.202,5.28c0.167,0.3,0.383,0.608,0.65,0.926s0.509,0.601,0.726,0.851c0.217,0.25,0.392,0.45,0.525,0.601
	c0.133,0.149,0.167,0.19,0.101,0.125L82.479,670.463z"/>
<path fill="none" stroke="#000000" stroke-width="2" d="M110.753,645.191c0.5-0.666,1.076-1.125,1.727-1.375
	c0.651-0.251,1.259-0.301,1.826-0.15c0.567,0.15,1.051,0.492,1.452,1.025c0.4,0.534,0.617,1.251,0.651,2.152
	c0.033,0.5-0.175,1.401-0.625,2.702c-0.451,1.302-0.994,3.003-1.626,5.104c-0.033,0.134-0.092,0.301-0.175,0.5
	c-0.084,0.2-0.2,0.534-0.35,1.001c-0.15,0.468-0.368,1.118-0.65,1.952c-0.284,0.834-0.676,1.951-1.176,3.353
	c-0.234,0.701-0.525,1.535-0.876,2.502c-0.351,0.969-0.793,1.827-1.326,2.577c-0.534,0.751-1.168,1.268-1.901,1.552
	c-0.734,0.283-1.619,0.075-2.652-0.626c-0.333-0.233-0.701-0.708-1.101-1.426c-0.4-0.717-0.785-1.492-1.151-2.327
	c-0.367-0.833-0.693-1.626-0.976-2.377c-0.284-0.751-0.476-1.242-0.575-1.477c-0.234-0.533-0.501-1.125-0.801-1.775
	c-0.3-0.65-0.584-1.31-0.851-1.977l-0.301,0.751c-0.434,1.101-0.868,2.202-1.301,3.303c-0.434,1.101-0.868,2.185-1.301,3.252
	c-0.234,0.567-0.45,1.185-0.65,1.852c-0.2,0.668-0.484,1.251-0.851,1.751c-0.3,0.434-0.676,0.742-1.126,0.926
	c-0.45,0.184-0.909,0.259-1.376,0.226c-0.468-0.034-0.91-0.159-1.327-0.375c-0.418-0.218-0.776-0.525-1.076-0.926
	c-0.468-0.668-0.834-1.435-1.101-2.303c-0.267-0.867-0.534-1.668-0.8-2.402c-0.368-1.033-0.701-2.093-1.001-3.178
	c-0.3-1.083-0.617-2.126-0.95-3.127c-0.167-0.533-0.384-1.233-0.651-2.103c-0.267-0.867-0.525-1.759-0.776-2.677
	c-0.25-0.917-0.45-1.81-0.6-2.678c-0.15-0.867-0.209-1.583-0.175-2.151c0.033-0.567,0.225-1.076,0.575-1.526
	s0.776-0.783,1.276-1.001c0.5-0.217,1.025-0.292,1.576-0.225s1.042,0.317,1.477,0.751c0.633,0.668,1.017,1.376,1.15,2.127
	c0.133,0.75,0.283,1.56,0.451,2.427c0.267,1.335,0.575,2.652,0.926,3.953c0.351,1.302,0.726,2.603,1.126,3.903
	c0.133-0.3,0.283-0.667,0.451-1.101c0.167-0.434,0.433-1.084,0.801-1.952c0.3-0.732,0.592-1.45,0.876-2.151
	c0.283-0.701,0.558-1.401,0.826-2.103c0.2-0.5,0.4-0.992,0.6-1.476s0.4-0.959,0.601-1.426c0.233-0.501,0.575-0.908,1.025-1.227
	c0.451-0.317,0.943-0.517,1.477-0.601c0.534-0.083,1.051-0.032,1.551,0.15c0.5,0.184,0.901,0.525,1.201,1.025
	c0.433,0.669,0.767,1.41,1,2.228c0.233,0.818,0.483,1.594,0.751,2.327c0.467,1.201,0.926,2.41,1.376,3.628s0.926,2.411,1.427,3.578
	c0.733-2.001,1.384-4.011,1.952-6.03c0.566-2.018,1.184-4.028,1.851-6.03L110.753,645.191z"/>
<path fill="none" stroke="#000000" stroke-width="2" d="M136.725,660.104c0.8-0.2,1.509-0.208,2.126-0.025
	c0.617,0.185,1.093,0.493,1.427,0.926c0.333,0.435,0.483,0.969,0.451,1.602c-0.034,0.635-0.318,1.302-0.851,2.002
	c-0.434,0.568-1.034,1.051-1.801,1.451c-0.768,0.4-1.485,0.718-2.152,0.951c-1.635,0.601-3.187,1.018-4.654,1.251
	c-1.468,0.233-2.845,0.233-4.128,0c-1.285-0.233-2.486-0.718-3.603-1.451c-1.118-0.733-2.16-1.768-3.127-3.103
	c-0.667-0.9-1.16-1.926-1.476-3.077c-0.317-1.151-0.493-2.327-0.525-3.528c-0.034-1.201,0.066-2.385,0.3-3.554
	c0.233-1.167,0.567-2.218,1-3.152c0.567-1.167,1.468-2.234,2.703-3.201c1.234-0.968,2.603-1.735,4.104-2.303
	c1.501-0.566,3.036-0.893,4.604-0.977c1.568-0.082,2.953,0.159,4.154,0.727c1,0.468,1.859,1.143,2.577,2.026
	c0.716,0.884,1.208,1.844,1.476,2.877c0.267,1.034,0.292,2.077,0.075,3.128c-0.217,1.051-0.759,2.01-1.626,2.877
	c-0.834,0.834-1.751,1.51-2.753,2.027c-1,0.518-2.036,0.968-3.102,1.351c-1.068,0.384-2.161,0.709-3.278,0.976
	c-1.118,0.269-2.194,0.568-3.228,0.901c0.701,0.801,1.501,1.311,2.402,1.526c0.901,0.217,1.843,0.259,2.827,0.125
	c0.984-0.133,1.977-0.408,2.978-0.826c1-0.416,1.935-0.875,2.802-1.376L136.725,660.104z"/>
<path fill="none" stroke="#000000" stroke-width="2" d="M126.617,651.497c-0.768,0.434-1.335,0.976-1.701,1.626
	c-0.367,0.65-0.634,1.561-0.801,2.728c0.867-0.268,1.843-0.551,2.927-0.851c1.084-0.301,2.109-0.618,3.078-0.951
	c0.968-0.334,1.785-0.701,2.453-1.102c0.667-0.4,1-0.833,1-1.301c0-0.267-0.042-0.525-0.125-0.776
	c-0.084-0.25-0.259-0.425-0.525-0.524c-0.934-0.334-1.901-0.4-2.902-0.2s-1.835,0.483-2.502,0.851L126.617,651.497z"/>
<path fill="none" stroke="#000000" stroke-width="2" d="M143.33,663.457c-0.2-0.566-0.284-1.126-0.25-1.677
	c0.033-0.55,0.175-1.051,0.425-1.501c0.25-0.45,0.608-0.801,1.076-1.051s1.034-0.342,1.702-0.275c0.366,0.034,0.701,0.134,1,0.301
	c0.3,0.167,0.575,0.367,0.826,0.6c0.25,0.234,0.5,0.484,0.751,0.751c0.25,0.268,0.508,0.5,0.776,0.701
	c0.567,0.434,1.167,0.751,1.801,0.951c0.633,0.199,1.301,0.35,2.001,0.45c0.468,0,0.843-0.117,1.126-0.351
	c0.283-0.233,0.476-0.518,0.576-0.851c0.099-0.334,0.124-0.692,0.074-1.076c-0.049-0.384-0.174-0.692-0.375-0.927
	c-0.566-0.566-1.259-0.933-2.076-1.101c-0.818-0.166-1.577-0.366-2.277-0.6c-1.001-0.334-1.985-0.759-2.953-1.276
	c-0.968-0.517-1.752-1.227-2.352-2.127c-0.634-0.934-1.009-1.927-1.126-2.978c-0.118-1.051-0.034-2.077,0.25-3.078
	c0.283-1,0.758-1.918,1.427-2.752c0.667-0.833,1.467-1.517,2.402-2.052c0.701-0.399,1.468-0.658,2.302-0.775
	c0.833-0.116,1.677-0.142,2.526-0.075c0.852,0.066,1.694,0.225,2.528,0.475c0.833,0.25,1.601,0.525,2.301,0.826
	c0.801,0.368,1.402,0.885,1.802,1.552s0.592,1.343,0.575,2.026c-0.017,0.685-0.25,1.276-0.701,1.776
	c-0.451,0.5-1.109,0.751-1.977,0.751c-0.534,0-1.017-0.092-1.451-0.275c-0.434-0.184-0.885-0.358-1.351-0.525
	c-0.601-0.233-1.251-0.392-1.952-0.475c-0.701-0.083-1.268-0.041-1.701,0.125c-0.134,0.034-0.284,0.142-0.451,0.324
	c-0.167,0.185-0.292,0.41-0.375,0.676c-0.084,0.268-0.1,0.534-0.05,0.802c0.05,0.268,0.226,0.483,0.525,0.649
	c0.801,0.435,1.651,0.769,2.553,1.002c0.9,0.233,1.783,0.5,2.652,0.8c0.866,0.301,1.675,0.685,2.426,1.151
	c0.751,0.468,1.376,1.135,1.876,2.002c0.734,1.268,1.109,2.594,1.126,3.979c0.017,1.385-0.259,2.677-0.826,3.878
	c-0.568,1.202-1.401,2.228-2.502,3.077c-1.101,0.852-2.385,1.359-3.854,1.526c-1.034,0.101-2.051,0.042-3.052-0.175
	c-1-0.217-1.969-0.568-2.902-1.051c-0.934-0.484-1.801-1.059-2.603-1.727c-0.8-0.667-1.501-1.367-2.102-2.103L143.33,663.457z"/>
<path fill="none" stroke="#000000" stroke-width="2" d="M166.65,650.146c-0.668-0.166-1.244-0.45-1.727-0.851
	c-0.484-0.4-0.818-0.867-1.001-1.401c-0.184-0.533-0.184-1.084,0-1.651c0.183-0.567,0.592-1.084,1.227-1.551
	c0.533-0.4,1.134-0.601,1.801-0.601c0.667,0,1.317,0,1.952,0c0-0.232-0.017-0.742-0.05-1.525c-0.034-0.784-0.042-1.644-0.025-2.577
	c0.016-0.935,0.075-1.827,0.175-2.678c0.1-0.851,0.283-1.442,0.55-1.776c0.667-0.934,1.492-1.376,2.477-1.326
	c0.983,0.05,1.793,0.525,2.427,1.426c0.133,0.167,0.258,0.368,0.375,0.601c0.116,0.234,0.175,0.45,0.175,0.65
	c0.033,1.201,0.041,2.401,0.024,3.604c-0.017,1.2-0.024,2.401-0.024,3.603h3.953c0.601,0,1.118,0.2,1.552,0.601
	c0.433,0.4,0.742,0.867,0.926,1.401c0.183,0.533,0.233,1.084,0.15,1.651s-0.343,1.034-0.776,1.4
	c-0.768,0.634-1.66,0.969-2.677,1.001c-1.019,0.034-2.061,0.051-3.127,0.051c0,1.835-0.009,3.67-0.025,5.504
	c-0.018,1.835-0.009,3.671,0.025,5.505c0,0.801,0.041,1.618,0.125,2.452c0.083,0.834,0.025,1.635-0.175,2.402
	c-0.167,0.6-0.45,1.075-0.851,1.426c-0.4,0.35-0.851,0.567-1.351,0.65c-0.501,0.083-1.019,0.05-1.552-0.101
	c-0.534-0.149-1.034-0.425-1.501-0.825c-0.234-0.234-0.409-0.634-0.525-1.201c-0.117-0.567-0.192-1.168-0.225-1.802
	c-0.034-0.733-0.034-1.517,0-2.352c0-0.667,0-1.534,0-2.603c0-1.067-0.009-2.178-0.025-3.328c-0.017-1.151-0.025-2.243-0.025-3.277
	c0-1.033,0-1.852,0-2.452L166.65,650.146z"/>
<path fill="none" stroke="#000000" stroke-width="2" d="M200.429,660.104c0.801-0.2,1.509-0.208,2.127-0.025
	c0.617,0.185,1.092,0.493,1.426,0.926c0.333,0.435,0.483,0.969,0.45,1.602c-0.033,0.635-0.317,1.302-0.851,2.002
	c-0.435,0.568-1.034,1.051-1.802,1.451c-0.767,0.4-1.484,0.718-2.152,0.951c-1.635,0.601-3.186,1.018-4.653,1.251
	c-1.468,0.233-2.845,0.233-4.129,0s-2.486-0.718-3.603-1.451c-1.118-0.733-2.161-1.768-3.128-3.103
	c-0.668-0.9-1.16-1.926-1.476-3.077c-0.318-1.151-0.493-2.327-0.525-3.528c-0.034-1.201,0.066-2.385,0.301-3.554
	c0.232-1.167,0.566-2.218,1-3.152c0.567-1.167,1.468-2.234,2.703-3.201c1.234-0.968,2.602-1.735,4.104-2.303
	c1.5-0.566,3.035-0.893,4.604-0.977c1.568-0.082,2.952,0.159,4.153,0.727c1.001,0.468,1.859,1.143,2.577,2.026
	c0.717,0.884,1.209,1.844,1.477,2.877c0.267,1.034,0.292,2.077,0.075,3.128s-0.759,2.01-1.626,2.877
	c-0.834,0.834-1.751,1.51-2.752,2.027c-1.001,0.518-2.036,0.968-3.103,1.351c-1.068,0.384-2.16,0.709-3.277,0.976
	c-1.118,0.269-2.194,0.568-3.228,0.901c0.701,0.801,1.501,1.311,2.403,1.526c0.901,0.217,1.843,0.259,2.827,0.125
	c0.983-0.133,1.977-0.408,2.978-0.826c1.001-0.416,1.935-0.875,2.802-1.376L200.429,660.104z"/>
<path fill="none" stroke="#000000" stroke-width="2" d="M190.32,651.497c-0.768,0.434-1.335,0.976-1.702,1.626
	c-0.368,0.65-0.634,1.561-0.801,2.728c0.867-0.268,1.843-0.551,2.928-0.851c1.084-0.301,2.109-0.618,3.077-0.951
	c0.967-0.334,1.785-0.701,2.452-1.102c0.667-0.4,1.001-0.833,1.001-1.301c0-0.267-0.042-0.525-0.125-0.776
	c-0.084-0.25-0.259-0.425-0.525-0.524c-0.934-0.334-1.901-0.4-2.902-0.2c-1.001,0.2-1.835,0.483-2.502,0.851L190.32,651.497z"/>
<path fill="none" stroke="#000000" stroke-width="2" d="M209.585,651.372c0.033-0.217,0.017-0.608-0.049-1.176
	c-0.535-0.301-0.951-0.684-1.252-1.151c-0.3-0.467-0.475-0.968-0.525-1.501s0.05-1.043,0.3-1.526s0.658-0.893,1.226-1.227
	c0.767-0.433,1.609-0.517,2.527-0.25c0.917,0.268,1.709,0.668,2.378,1.201c0.833-0.633,1.701-1.167,2.602-1.602
	c0.901-0.433,1.818-0.726,2.752-0.876c0.934-0.149,1.884-0.124,2.852,0.075c0.968,0.2,1.918,0.618,2.853,1.252
	c0.467,0.3,0.901,0.675,1.301,1.126c0.4,0.449,0.65,0.959,0.751,1.525c0.167,0.834,0.1,1.56-0.2,2.178
	c-0.3,0.617-0.718,1.067-1.251,1.351c-0.534,0.284-1.135,0.367-1.802,0.25c-0.668-0.116-1.301-0.475-1.901-1.076
	c-0.2-0.133-0.343-0.241-0.425-0.324c-0.084-0.084-0.259-0.192-0.525-0.326c-0.534-0.133-1.059-0.1-1.576,0.101
	c-0.518,0.2-1.018,0.475-1.501,0.825s-0.934,0.734-1.351,1.151c-0.418,0.418-0.793,0.793-1.126,1.126v12.761
	c0,0.501-0.101,0.984-0.301,1.452c-0.3,0.767-0.776,1.301-1.426,1.601s-1.301,0.384-1.951,0.251
	c-0.65-0.135-1.218-0.469-1.701-1.002c-0.484-0.534-0.726-1.217-0.726-2.052v-14.012
	C209.536,651.631,209.552,651.59,209.585,651.372z"/>
<path fill="none" stroke="#000000" stroke-width="2" d="M249.968,665.509c-0.1,0.834-0.409,1.518-0.926,2.052
	c-0.518,0.533-1.101,0.867-1.751,1.002c-0.65,0.133-1.276,0.049-1.876-0.251s-1.034-0.884-1.301-1.751
	c-0.3-0.934-0.418-1.909-0.35-2.928c0.066-1.017,0.1-1.959,0.1-2.827c0-1.801,0.008-3.595,0.025-5.38
	c0.017-1.783-0.059-3.577-0.225-5.379c-0.034-0.066-0.067-0.125-0.1-0.175c-0.034-0.05-0.101-0.125-0.2-0.226
	c-0.768-0.199-1.585-0.15-2.453,0.15c-0.868,0.3-1.601,0.684-2.202,1.15c-0.534,0.435-1.06,1.026-1.577,1.777
	c-0.518,0.751-0.775,1.476-0.775,2.177v6.905c0,0.534,0.016,1.118,0.05,1.752c0.033,0.634,0.008,1.251-0.075,1.852
	c-0.084,0.6-0.275,1.15-0.576,1.65s-0.784,0.867-1.451,1.102c-0.368,0.133-0.709,0.183-1.026,0.149
	c-0.318-0.033-0.659-0.116-1.026-0.25c-0.6-0.2-1.034-0.543-1.301-1.025c-0.268-0.483-0.451-1.001-0.55-1.552
	c-0.101-0.55-0.142-1.084-0.125-1.601c0.017-0.518,0.025-0.927,0.025-1.227c0-0.767-0.008-1.877-0.025-3.328
	c-0.017-1.452-0.024-2.978-0.024-4.578c0-1.602,0-3.128,0-4.579s0-2.561,0-3.328c0-0.733,0.216-1.343,0.65-1.826
	c0.433-0.483,0.942-0.801,1.526-0.951c0.583-0.15,1.201-0.116,1.851,0.101c0.65,0.217,1.192,0.659,1.626,1.326
	c1.334-0.867,2.803-1.451,4.403-1.752c1.602-0.3,3.111-0.25,4.529,0.15c1.417,0.399,2.603,1.15,3.553,2.252
	c0.951,1.101,1.443,2.619,1.477,4.554c0,0.066,0.016,0.268,0.05,0.601c0.033,0.333,0.05,0.8,0.05,1.4L249.968,665.509
	L249.968,665.509z"/>
<path fill="none" stroke="#000000" stroke-width="2" d="M286.449,660.555c0.833-0.533,1.626-0.768,2.377-0.701
	c0.751,0.067,1.367,0.325,1.851,0.775c0.483,0.451,0.751,1.052,0.801,1.802c0.049,0.751-0.209,1.543-0.776,2.378
	c-0.368,0.567-0.893,1.083-1.577,1.551c-0.684,0.467-1.343,0.833-1.976,1.101c-1.468,0.667-2.953,0.968-4.454,0.901
	c-1.501-0.067-2.894-0.434-4.178-1.101c-1.285-0.667-2.394-1.594-3.328-2.777c-0.934-1.185-1.568-2.561-1.901-4.129
	c-0.668-3.002-0.534-5.888,0.4-8.657c0.367-1.001,0.808-1.968,1.326-2.902c0.517-0.934,1.143-1.784,1.876-2.552
	c0.733-0.768,1.551-1.442,2.452-2.027c0.901-0.583,1.884-0.976,2.952-1.176c0.733-0.133,1.668-0.125,2.802,0.025
	c1.134,0.149,2.244,0.442,3.328,0.875c1.084,0.435,2.035,1.002,2.853,1.702c0.817,0.7,1.276,1.534,1.376,2.502
	c0.066,0.534,0,1.025-0.2,1.477c-0.2,0.449-0.483,0.825-0.851,1.126c-0.368,0.3-0.793,0.509-1.276,0.625
	c-0.484,0.116-0.977,0.108-1.477-0.025c-0.6-0.166-1.076-0.392-1.426-0.676c-0.351-0.283-0.81-0.658-1.376-1.126
	c-0.268-0.066-0.518-0.175-0.751-0.325c-0.233-0.149-0.484-0.208-0.751-0.175l-1.351,0.149c-0.234,0.135-0.45,0.251-0.65,0.351
	s-0.4,0.2-0.601,0.3c-1.134,1.135-1.969,2.395-2.501,3.778c-0.535,1.385-0.668,2.878-0.4,4.479c0.166,1.034,0.492,1.885,0.976,2.553
	c0.483,0.667,1.051,1.126,1.701,1.376c0.65,0.25,1.367,0.274,2.152,0.074c0.783-0.2,1.559-0.649,2.327-1.351L286.449,660.555z"/>
<path fill="none" stroke="#000000" stroke-width="2" d="M303.663,663.708c0.367,0.333,0.676,0.759,0.926,1.275
	c0.25,0.519,0.383,1.034,0.4,1.551c0.016,0.518-0.1,1.002-0.35,1.452s-0.692,0.792-1.326,1.025c-0.5,0.167-1.051,0.2-1.651,0.101
	c-0.601-0.101-1.193-0.301-1.777-0.601c-0.584-0.3-1.101-0.659-1.551-1.075c-0.45-0.418-0.776-0.877-0.976-1.377
	c-0.067-0.166-0.117-0.358-0.15-0.575c-0.034-0.217-0.05-0.408-0.05-0.575v-27.773c0-0.768,0.292-1.417,0.876-1.951
	c0.583-0.533,1.227-0.851,1.926-0.95c0.333-0.033,0.692,0.016,1.076,0.149c0.383,0.134,0.742,0.325,1.076,0.575
	s0.608,0.543,0.826,0.876c0.217,0.334,0.325,0.685,0.325,1.051c0,0.868,0,2.019,0,3.453s0.008,3.002,0.025,4.704
	c0.016,1.701,0.025,3.462,0.025,5.279c0,1.819-0.009,3.562-0.025,5.23c-0.017,1.668-0.025,3.194-0.025,4.578
	c0,1.385-0.017,2.494-0.05,3.328L303.663,663.708z"/>
<path fill="none" stroke="#000000" stroke-width="2" d="M329.635,664.608c0.267,0.968,0.217,1.769-0.15,2.401
	c-0.368,0.634-0.876,1.059-1.525,1.276c-0.651,0.217-1.36,0.191-2.128-0.075c-0.768-0.268-1.435-0.801-2.002-1.602
	c-0.935,0.701-1.844,1.192-2.727,1.477c-0.885,0.283-1.895,0.441-3.027,0.476c-1.702,0.066-3.221-0.126-4.555-0.575
	c-1.334-0.45-2.46-1.126-3.377-2.027c-0.918-0.901-1.594-2.026-2.027-3.378c-0.435-1.352-0.584-2.911-0.45-4.68
	c0.066-0.733,0.19-1.451,0.375-2.151c0.183-0.701,0.392-1.385,0.625-2.052c0.268-0.734,0.643-1.519,1.126-2.353
	c0.483-0.833,0.977-1.551,1.477-2.152c1.802-2.202,4.054-3.786,6.756-4.754c0.467-0.166,1.101-0.317,1.901-0.45
	s1.608-0.191,2.427-0.175c0.817,0.017,1.602,0.124,2.353,0.324c0.75,0.2,1.309,0.551,1.676,1.051c0.3,0.4,0.518,0.751,0.65,1.052
	c0.133,0.3,0.208,0.617,0.225,0.951c0.017,0.333,0.017,0.692,0,1.076s-0.024,0.858-0.024,1.426c0,0.935-0.009,1.844-0.025,2.728
	s-0.009,1.776,0.025,2.677c0,0.3,0,0.692,0,1.177c0,0.483,0.016,0.992,0.05,1.525c0.033,0.534,0.075,1.043,0.125,1.526
	c0.05,0.484,0.125,0.876,0.225,1.176L329.635,664.608z"/>
<path fill="none" stroke="#000000" stroke-width="2" d="M319.025,662.356c0.367-0.233,0.784-0.492,1.251-0.776
	c0.468-0.282,0.884-0.608,1.251-0.976c-0.3-1.769-0.475-3.536-0.524-5.305c-0.051-1.768-0.043-3.553,0.024-5.354
	c-1.501,0.268-2.853,0.918-4.053,1.951c-1.201,1.034-2.036,2.252-2.503,3.654c-0.2,0.567-0.367,1.15-0.5,1.751
	c-0.134,0.6-0.184,1.185-0.149,1.751c0.033,0.769,0.232,1.41,0.601,1.926c0.366,0.518,0.808,0.91,1.325,1.177
	c0.517,0.268,1.067,0.418,1.651,0.45C317.982,662.641,318.525,662.557,319.025,662.356z"/>
<path fill="none" stroke="#000000" stroke-width="2" d="M358.908,645.191c0.5-0.666,1.076-1.125,1.727-1.375
	c0.649-0.251,1.259-0.301,1.826-0.15s1.051,0.492,1.451,1.025c0.399,0.534,0.617,1.251,0.65,2.152
	c0.033,0.5-0.176,1.401-0.626,2.702c-0.449,1.302-0.992,3.003-1.626,5.104c-0.033,0.134-0.092,0.301-0.175,0.5
	c-0.084,0.2-0.2,0.534-0.351,1.001c-0.149,0.468-0.367,1.118-0.65,1.952s-0.676,1.951-1.176,3.353
	c-0.234,0.701-0.525,1.535-0.876,2.502c-0.351,0.969-0.793,1.827-1.326,2.577c-0.534,0.751-1.168,1.268-1.901,1.552
	c-0.734,0.283-1.618,0.075-2.652-0.626c-0.334-0.233-0.7-0.708-1.101-1.426c-0.4-0.717-0.784-1.492-1.151-2.327
	c-0.367-0.833-0.692-1.626-0.976-2.377c-0.284-0.751-0.476-1.242-0.575-1.477c-0.234-0.533-0.5-1.125-0.801-1.775
	s-0.584-1.31-0.852-1.977l-0.3,0.751c-0.434,1.101-0.868,2.202-1.301,3.303c-0.435,1.101-0.868,2.185-1.302,3.252
	c-0.233,0.567-0.45,1.185-0.649,1.852c-0.2,0.668-0.484,1.251-0.852,1.751c-0.3,0.434-0.676,0.742-1.126,0.926
	s-0.909,0.259-1.376,0.226c-0.468-0.034-0.909-0.159-1.326-0.375c-0.418-0.218-0.775-0.525-1.076-0.926
	c-0.468-0.668-0.834-1.435-1.102-2.303c-0.267-0.867-0.533-1.668-0.8-2.402c-0.368-1.033-0.701-2.093-1.002-3.178
	c-0.3-1.083-0.617-2.126-0.95-3.127c-0.167-0.533-0.384-1.233-0.65-2.103c-0.268-0.867-0.525-1.759-0.776-2.677
	c-0.25-0.917-0.45-1.81-0.6-2.678c-0.15-0.867-0.209-1.583-0.176-2.151c0.033-0.567,0.226-1.076,0.575-1.526
	c0.351-0.45,0.776-0.783,1.276-1.001c0.501-0.217,1.026-0.292,1.576-0.225c0.551,0.067,1.043,0.317,1.477,0.751
	c0.633,0.668,1.018,1.376,1.151,2.127c0.133,0.75,0.282,1.56,0.449,2.427c0.268,1.335,0.575,2.652,0.927,3.953
	c0.351,1.302,0.726,2.603,1.126,3.903c0.133-0.3,0.283-0.667,0.45-1.101c0.166-0.434,0.433-1.084,0.801-1.952
	c0.3-0.732,0.592-1.45,0.876-2.151c0.283-0.701,0.559-1.401,0.825-2.103c0.2-0.5,0.4-0.992,0.601-1.476s0.4-0.959,0.601-1.426
	c0.233-0.501,0.575-0.908,1.025-1.227c0.451-0.317,0.943-0.517,1.477-0.601c0.533-0.083,1.052-0.032,1.552,0.15
	c0.5,0.184,0.9,0.525,1.2,1.025c0.434,0.669,0.768,1.41,1.001,2.228c0.233,0.818,0.483,1.594,0.751,2.327
	c0.468,1.201,0.927,2.41,1.377,3.628c0.449,1.218,0.926,2.411,1.426,3.578c0.733-2.001,1.385-4.011,1.951-6.03
	c0.567-2.018,1.185-4.028,1.852-6.03L358.908,645.191z"/>
<path fill="none" stroke="#000000" stroke-width="2" d="M384.881,660.104c0.801-0.2,1.509-0.208,2.127-0.025
	c0.616,0.185,1.092,0.493,1.426,0.926c0.333,0.435,0.483,0.969,0.45,1.602c-0.033,0.635-0.317,1.302-0.851,2.002
	c-0.435,0.568-1.034,1.051-1.802,1.451s-1.484,0.718-2.151,0.951c-1.636,0.601-3.187,1.018-4.654,1.251s-2.845,0.233-4.128,0
	c-1.285-0.233-2.486-0.718-3.604-1.451c-1.118-0.733-2.16-1.768-3.128-3.103c-0.668-0.9-1.159-1.926-1.476-3.077
	c-0.318-1.151-0.493-2.327-0.525-3.528c-0.034-1.201,0.066-2.385,0.301-3.554c0.232-1.167,0.566-2.218,1-3.152
	c0.567-1.167,1.468-2.234,2.703-3.201c1.233-0.968,2.602-1.735,4.104-2.303c1.5-0.566,3.034-0.893,4.604-0.977
	c1.567-0.082,2.952,0.159,4.152,0.727c1.002,0.468,1.859,1.143,2.577,2.026s1.21,1.844,1.478,2.877
	c0.267,1.034,0.292,2.077,0.074,3.128c-0.217,1.051-0.759,2.01-1.626,2.877c-0.834,0.834-1.752,1.51-2.752,2.027
	c-1.002,0.518-2.036,0.968-3.104,1.351c-1.067,0.384-2.159,0.709-3.277,0.976c-1.117,0.269-2.193,0.568-3.228,0.901
	c0.702,0.801,1.502,1.311,2.403,1.526c0.9,0.217,1.843,0.259,2.826,0.125c0.984-0.133,1.978-0.408,2.978-0.826
	c1.002-0.416,1.935-0.875,2.803-1.376L384.881,660.104z"/>
<path fill="none" stroke="#000000" stroke-width="2" d="M374.771,651.497c-0.768,0.434-1.335,0.976-1.701,1.626
	c-0.368,0.65-0.634,1.561-0.801,2.728c0.867-0.268,1.843-0.551,2.928-0.851c1.084-0.301,2.108-0.618,3.077-0.951
	c0.967-0.334,1.784-0.701,2.452-1.102c0.667-0.4,1.001-0.833,1.001-1.301c0-0.267-0.042-0.525-0.125-0.776
	c-0.084-0.25-0.259-0.425-0.525-0.524c-0.934-0.334-1.901-0.4-2.902-0.2s-1.835,0.483-2.502,0.851L374.771,651.497z"/>
<path fill="none" stroke="#000000" stroke-width="2" d="M415.556,662.807c0.567,0.968,0.759,1.835,0.575,2.603
	s-0.559,1.343-1.126,1.726s-1.26,0.533-2.077,0.45c-0.818-0.083-1.609-0.509-2.377-1.275c-0.801,0.566-1.635,1.008-2.502,1.326
	c-0.868,0.316-1.785,0.592-2.752,0.825c-1.502,0.333-2.945,0.309-4.329-0.074c-1.385-0.385-2.61-1.01-3.678-1.877
	c-1.068-0.867-1.936-1.942-2.603-3.228c-0.668-1.284-1.034-2.678-1.102-4.178c-0.1-1.669,0.025-3.27,0.376-4.805
	c0.35-1.534,0.908-2.936,1.676-4.203c0.767-1.268,1.776-2.353,3.027-3.253c1.251-0.901,2.728-1.534,4.429-1.901
	c1.001-0.2,2.01-0.3,3.027-0.3c1.017,0,2.026,0.083,3.027,0.25c-0.034-0.733-0.059-1.576-0.075-2.527s-0.024-1.876-0.024-2.777
	c0-0.9,0.033-1.709,0.1-2.427s0.149-1.227,0.25-1.526c0.233-0.601,0.592-1.059,1.076-1.377c0.482-0.316,0.992-0.482,1.526-0.5
	c0.533-0.016,1.058,0.117,1.576,0.4c0.517,0.284,0.926,0.71,1.227,1.276c0.065,0.167,0.149,0.325,0.249,0.475
	c0.101,0.15,0.15,0.31,0.15,0.476c0.033,4.371,0.041,8.691,0.025,12.961c-0.017,4.271-0.025,8.591-0.025,12.961
	C415.338,662.507,415.455,662.674,415.556,662.807z"/>
<path fill="none" stroke="#000000" stroke-width="2" d="M408.6,660.054c0.065-0.1,0.191-0.2,0.375-0.3
	c0.183-0.1,0.275-0.232,0.275-0.4c0-1.4,0-2.776,0-4.128c0-1.351-0.018-2.728-0.05-4.128c-0.802-0.167-1.636-0.267-2.503-0.301
	c-0.868-0.033-1.71,0.051-2.527,0.25c-0.817,0.2-1.568,0.534-2.252,1.002c-0.684,0.467-1.226,1.135-1.626,2.002
	c-0.2,0.634-0.384,1.268-0.55,1.901c-0.167,0.634-0.259,1.251-0.275,1.851c-0.018,0.601,0.058,1.193,0.225,1.776
	c0.167,0.584,0.451,1.144,0.851,1.677c0.134,0.134,0.292,0.268,0.476,0.399c0.184,0.134,0.543,0.368,1.076,0.701
	c1.234,0.1,2.41-0.016,3.528-0.35C406.739,661.673,407.732,661.022,408.6,660.054z"/>
<path fill="none" stroke="#000000" stroke-width="2" d="M448.732,667.41c-0.434,0.533-0.934,0.901-1.501,1.102s-1.15,0.2-1.751,0
	s-1.102-0.65-1.501-1.352c-0.168-0.268-0.3-0.551-0.4-0.851c-0.1-0.301-0.15-0.601-0.15-0.901v-13.161
	c-0.634,0-1.21-0.175-1.727-0.525c-0.518-0.35-0.9-0.783-1.151-1.301c-0.249-0.517-0.342-1.067-0.274-1.651
	c0.066-0.583,0.333-1.126,0.802-1.626c0.332-0.367,0.691-0.608,1.075-0.726c0.384-0.116,0.792-0.191,1.226-0.226
	c-0.033-1.033-0.059-2.052-0.074-3.052c-0.018-1.002,0.058-2.002,0.225-3.003c0.2-1.567,0.667-2.902,1.401-4.004
	c0.733-1.101,1.644-1.95,2.728-2.552c1.083-0.601,2.293-0.951,3.628-1.051c1.334-0.101,2.719,0.1,4.153,0.6
	c0.601,0.2,1.176,0.451,1.727,0.751c0.55,0.301,1.042,0.685,1.476,1.151c0.3,0.334,0.518,0.726,0.65,1.176
	c0.134,0.45,0.158,0.901,0.075,1.352c-0.084,0.45-0.25,0.868-0.5,1.251c-0.25,0.384-0.609,0.676-1.076,0.876
	c-0.634,0.268-1.26,0.334-1.876,0.2c-0.618-0.133-1.227-0.351-1.827-0.65c-0.367-0.133-0.718-0.267-1.051-0.399
	c-0.333-0.134-0.684-0.233-1.051-0.301c-0.367-0.066-0.7-0.016-1.001,0.15c-0.3,0.166-0.559,0.393-0.776,0.676
	c-0.217,0.284-0.384,0.601-0.5,0.951c-0.116,0.35-0.175,0.692-0.175,1.025c-0.033,0.769-0.042,1.544-0.025,2.327
	c0.017,0.784,0.025,1.561,0.025,2.327c0.5-0.033,1.034-0.066,1.601-0.1c0.567-0.033,1.127-0.051,1.677-0.051
	s1.059,0.018,1.526,0.051c0.467,0.033,0.834,0.1,1.101,0.2c0.533,0.2,0.968,0.509,1.302,0.926c0.333,0.417,0.55,0.868,0.65,1.351
	c0.1,0.484,0.058,0.977-0.126,1.477s-0.508,0.935-0.976,1.301c-0.434,0.334-0.934,0.568-1.501,0.701
	c-0.567,0.134-1.168,0.225-1.802,0.275c-0.634,0.05-1.251,0.066-1.852,0.05c-0.6-0.017-1.134-0.025-1.601-0.025v13.361
	C449.434,666.242,449.166,666.876,448.732,667.41z"/>
<path fill="none" stroke="#000000" stroke-width="2" d="M461.692,651.372c0.033-0.217,0.017-0.608-0.05-1.176
	c-0.534-0.301-0.951-0.684-1.252-1.151c-0.3-0.467-0.475-0.968-0.524-1.501c-0.051-0.533,0.05-1.043,0.3-1.526
	s0.658-0.893,1.227-1.227c0.767-0.433,1.608-0.517,2.526-0.25c0.918,0.268,1.71,0.668,2.378,1.201
	c0.833-0.633,1.701-1.167,2.602-1.602c0.901-0.433,1.818-0.726,2.753-0.876c0.934-0.149,1.884-0.124,2.852,0.075
	c0.968,0.2,1.919,0.618,2.853,1.252c0.467,0.3,0.901,0.675,1.302,1.126c0.399,0.449,0.649,0.959,0.751,1.525
	c0.166,0.834,0.1,1.56-0.2,2.178c-0.301,0.617-0.718,1.067-1.251,1.351c-0.534,0.284-1.135,0.367-1.802,0.25
	c-0.668-0.116-1.302-0.475-1.901-1.076c-0.2-0.133-0.343-0.241-0.425-0.324c-0.084-0.084-0.259-0.192-0.525-0.326
	c-0.534-0.133-1.06-0.1-1.576,0.101c-0.519,0.2-1.019,0.475-1.502,0.825s-0.934,0.734-1.351,1.151
	c-0.418,0.418-0.793,0.793-1.126,1.126v12.761c0,0.501-0.101,0.984-0.301,1.452c-0.3,0.767-0.775,1.301-1.426,1.601
	c-0.649,0.3-1.301,0.384-1.951,0.251c-0.65-0.135-1.218-0.469-1.701-1.002c-0.484-0.534-0.726-1.217-0.726-2.052v-14.012
	C461.643,651.631,461.659,651.59,461.692,651.372z"/>
<path fill="none" stroke="#000000" stroke-width="2" d="M479.607,654.85c0.233-0.967,0.559-1.918,0.976-2.852
	c0.418-0.934,0.927-1.826,1.526-2.678c0.601-0.851,1.276-1.626,2.027-2.327c0.751-0.7,1.56-1.268,2.427-1.701
	c1.534-0.801,3.077-1.209,4.629-1.226s2.994,0.292,4.329,0.926c1.334,0.634,2.468,1.576,3.402,2.827
	c0.934,1.251,1.552,2.744,1.852,4.479c0.166,1.135,0.258,2.21,0.275,3.228c0.016,1.018-0.092,2.077-0.325,3.178
	c-0.334,1.567-1.009,3.127-2.027,4.679c-1.018,1.551-2.235,2.853-3.653,3.903s-2.97,1.743-4.653,2.077
	c-1.686,0.333-3.378,0.065-5.079-0.801c-0.769-0.368-1.46-0.793-2.077-1.276c-0.618-0.483-1.177-1.059-1.677-1.727
	c-0.567-0.732-1.009-1.501-1.326-2.302c-0.317-0.802-0.575-1.634-0.775-2.502c-0.234-0.934-0.318-1.876-0.25-2.827
	c0.066-0.951,0.183-1.877,0.35-2.777L479.607,654.85z"/>
<path fill="none" stroke="#000000" stroke-width="2" d="M485.612,655.901c-0.1,0.533-0.184,1.06-0.25,1.575
	c-0.067,0.519-0.067,1.044,0,1.577c0.1,0.768,0.308,1.468,0.625,2.102s0.733,1.135,1.251,1.501c0.518,0.368,1.109,0.56,1.776,0.575
	c0.667,0.018,1.384-0.19,2.152-0.625c0.968-0.567,1.801-1.442,2.502-2.627s1.134-2.419,1.302-3.703
	c0.165-1.284,0.032-2.503-0.4-3.653c-0.435-1.151-1.285-1.977-2.553-2.478c-0.834,0-1.602,0.159-2.302,0.476
	c-0.701,0.317-1.31,0.734-1.826,1.251c-0.518,0.518-0.969,1.126-1.352,1.826C486.154,654.399,485.846,655.134,485.612,655.901z"/>
<path fill="none" stroke="#000000" stroke-width="2" d="M505.678,677.27c-0.567-0.702-0.868-1.427-0.9-2.178
	c-0.034-0.751,0.133-1.394,0.5-1.926c0.367-0.534,0.892-0.901,1.576-1.102c0.683-0.2,1.442-0.101,2.276,0.3
	c0.367,0.267,0.701,0.467,1.001,0.601c0.301,0.133,0.718,0.333,1.251,0.601c0.501,0.232,1.067,0.408,1.702,0.525
	c0.633,0.116,1.234,0.141,1.801,0.074c1.134-0.066,2.01-0.259,2.627-0.575c0.618-0.317,1.06-0.733,1.326-1.251
	c0.268-0.518,0.426-1.151,0.476-1.901c0.05-0.751,0.075-1.594,0.075-2.527c-1.068,0.367-2.136,0.643-3.203,0.826
	s-2.169,0.208-3.302,0.075c-2.202-0.268-4.013-1.051-5.43-2.353c-1.418-1.301-2.452-2.853-3.103-4.653
	c-0.649-1.801-0.918-3.729-0.801-5.779c0.116-2.053,0.592-3.944,1.427-5.68c0.5-1.001,1.184-1.927,2.052-2.777
	c0.867-0.852,1.843-1.552,2.927-2.103c1.084-0.55,2.219-0.908,3.403-1.075c1.184-0.167,2.327-0.066,3.428,0.3
	c0.634,0.233,1.251,0.468,1.852,0.7c0.601,0.234,1.185,0.534,1.752,0.901c0.633-0.567,1.376-0.851,2.227-0.851
	s1.576,0.399,2.177,1.201c0.133,0.2,0.284,0.425,0.451,0.676c0.165,0.25,0.249,0.492,0.249,0.726
	c0.033,3.57,0.042,7.131,0.025,10.685c-0.018,3.553-0.025,7.114-0.025,10.684c0,1.434-0.191,2.769-0.575,4.003
	s-0.959,2.327-1.726,3.277c-0.768,0.951-1.719,1.727-2.853,2.327c-1.135,0.601-2.452,0.983-3.953,1.151
	c-0.768,0.066-1.519,0.1-2.253,0.1s-1.484-0.084-2.251-0.25c-1.068-0.199-2.095-0.534-3.078-1.001
	c-0.983-0.468-1.96-0.984-2.927-1.551L505.678,677.27z"/>
<path fill="none" stroke="#000000" stroke-width="2" d="M511.583,662.006c1.468,0.701,2.819,0.926,4.054,0.676
	s2.484-0.809,3.753-1.677v-7.956c-0.968-0.967-1.91-1.644-2.827-2.027c-0.918-0.383-2.01-0.492-3.277-0.325
	c-0.234,0.135-0.459,0.25-0.676,0.351c-0.217,0.1-0.443,0.2-0.676,0.3c-0.7,0.801-1.234,1.576-1.601,2.327
	c-0.368,0.751-0.584,1.518-0.651,2.302c-0.066,0.785-0.008,1.585,0.176,2.402c0.184,0.818,0.458,1.71,0.826,2.678
	c0.101,0.167,0.25,0.334,0.45,0.5C511.333,661.723,511.483,661.873,511.583,662.006z"/>
<path fill="none" stroke="#000000" stroke-width="2" d="M531.599,669.812c0.268-0.268,0.509-0.509,0.727-0.726
	c0.217-0.218,0.433-0.435,0.649-0.65c0.217-0.217,0.426-0.459,0.626-0.727s0.417-0.583,0.65-0.951
	c0.967-1.567,1.7-3.353,2.202-5.354c0.5-2.002,0.8-4.062,0.9-6.181c0.1-2.118,0.016-4.203-0.25-6.256
	c-0.268-2.052-0.718-3.928-1.352-5.63c-0.434-1.167-0.976-2.268-1.626-3.302c-0.649-1.033-1.31-2.053-1.977-3.053
	c-0.3-0.433-0.593-0.858-0.875-1.275c-0.284-0.418-0.443-0.909-0.476-1.477c-0.034-0.867,0.175-1.584,0.625-2.152
	c0.45-0.566,0.992-0.926,1.626-1.076c0.634-0.149,1.284-0.091,1.951,0.176c0.667,0.268,1.201,0.783,1.602,1.551
	c0.733,1.034,1.435,2.085,2.103,3.152c0.667,1.068,1.284,2.152,1.852,3.253c0.933,1.801,1.643,3.753,2.126,5.854
	s0.768,4.254,0.852,6.455c0.083,2.202-0.025,4.379-0.325,6.531c-0.3,2.151-0.751,4.162-1.351,6.03
	c-0.534,1.601-1.177,3.21-1.927,4.829c-0.751,1.618-1.71,3.044-2.878,4.278c-0.5,0.533-1.067,1.034-1.7,1.501
	c-0.635,0.467-1.336,0.701-2.103,0.701c-0.701,0-1.276-0.15-1.727-0.45s-0.769-0.684-0.951-1.151
	c-0.184-0.468-0.242-0.976-0.175-1.526c0.066-0.55,0.233-1.093,0.5-1.626L531.599,669.812z"/>
<path fill="none" stroke="#1D1C1A" stroke-width="2" stroke-miterlimit="10" d="M559.136,462.755
	c5.09-5.539,9.323-12.195,10.3-19.614c0.979-7.422-1.892-15.646-8.339-19.568c-6.032-3.671-13.791-3.004-20.605-1.087
	c-3.872,1.088-7.617,2.574-11.203,4.374c-6.759,13.722-15.219,26.797-23.658,39.055c-5.754,8.357-11.832,16.498-18.222,24.392
	c-1.8,2.221-3.839,4.384-5.925,6.543l-1.387,3.032c12.262,5.952,24.523,11.904,36.783,17.855c2.499,1.216,5.597,2.4,7.899,0.854
	c-0.238-3.145-1.952-6.15-4.549-7.981c5.986,4.632,13.026,7.926,20.445,9.568c-1.67-6.325-7.463-10.701-13.298-13.773
	c9.556,5.411,20.862,7.746,31.812,6.569c-12.738-12.289-29.611-20.32-47.276-22.503
	C529.256,484.135,546.704,476.281,559.136,462.755z"/>
<path fill="none" stroke="#1D1C1A" stroke-width="2" stroke-miterlimit="10" d="M312.228,354.857
	c-5.715-3.229-11.429-6.457-17.143-9.685c-14.275-8.064-28.552-16.129-42.828-24.194c-29.045-16.408-58.149-32.712-87.274-48.982
	c-3.643-2.036-6.925,3.54-3.273,5.535c31.77,17.354,63.573,34.649,95.427,51.853c14.892,8.043,29.784,16.084,44.676,24.126
	C305.291,354.096,308.749,354.569,312.228,354.857z"/>
<path fill="none" stroke="#1D1C1A" stroke-width="2" stroke-miterlimit="10" d="M540.741,353.466
	c-6.058-24.493-23.762-45.252-45.539-58.379c-2.666-1.607-5.391-3.104-8.163-4.503c0.704-2.508,1.17-5.171,1.342-8.004
	c0.111-1.825,0.104-3.717-0.025-5.675c-1.691-25.497-37.544-41.066-59.285-33.167c-12.686,4.609-21.759,16.861-23.652,30.081
	c-4.694,0.039-9.387,0.214-14.07,0.535c-4.475-21.893-35.902-34.777-55.357-27.709c-13.407,4.871-22.557,18.799-22.65,32.916
	c-0.029,4.448,0.936,9.254,2.721,13.896c-8.717,4.77-16.516,10.847-22.375,18.793c-4.524,6.137-7.596,12.946-9.576,20.143
	c35.87,5.581,72.662,3.871,109.046,2.563c17.341-0.704,34.443-3.052,51.784-3.991c1.9-0.235,3.801-0.939,5.701-1.409
	c-39.67,20.661-85.516,25.356-129.699,25.591c-9.502,0.235-18.529-1.409-28.031-3.286c-3.974-0.737-7.818-1.412-11.601-2.287
	c-0.749,11.131,0.241,22.625,1.849,33.594c6.947,47.402,23.191,93.455,47.548,134.859c3.304,7.802-1.439,16.043-2.593,24.661
	c9.905-3.521,14.958-10.135,15.686-20.248c1.013,4.401,2.292,8.743,3.83,12.993c0.469,1.296,1.839,2.86,2.911,1.983
	c1.668-5.309,1.755-11.091,0.253-16.448c5.655,3.925,12.754,5.772,19.633,5.113c-0.492-2.635-3.423-3.929-5.853-5.109
	c-3.025-1.472-5.817-3.407-8.251-5.713c6.735-1.324,12.564-2.472,13.918-2.629c13.37-1.543,26.842-2.195,40.303-1.958
	c12.615,0.224,25.218,1.225,37.706,3.013c0.533,0.075,1.067,0.155,1.602,0.235c-0.211,1.346-0.305,2.725-0.495,4.072
	c-0.957,6.749-4.687,13.117-10.24,17.482c8.712,1.216,17.976-3.701,21.377-11.346c0.087,5.513,1.061,11.008,2.88,16.248
	c3.662-5.598,5.222-12.387,4.34-18.906c4.635,2.943,9.27,5.885,13.908,8.828c-0.998-6.133-8.905-9.409-10.599-15.406
	c-0.739-2.617-0.143-5.417,1.145-7.866c2.176-2.771,4.702-5.422,7.252-8.05c0.165-0.141,0.328-0.282,0.492-0.421l-0.042-0.041
	c2.639-2.716,5.276-5.417,7.539-8.209c6.39-7.894,12.468-16.034,18.222-24.392c8.516-12.369,17.058-25.568,23.847-39.426
	C540.655,403.667,547.071,379.064,540.741,353.466z"/>
<path fill="none" stroke="#1D1C1A" stroke-width="2" stroke-miterlimit="10" d="M488.381,282.579
	c0.111-1.825,0.104-3.717-0.025-5.675c-1.691-25.497-37.544-41.066-59.285-33.167c-14.229,5.17-23.939,19.953-24.038,34.936
	c-0.111,16.686,12.942,38.12,31.157,39.816c0.926,0.087,1.854,0.152,2.783,0.197C463.685,319.891,486.868,307.479,488.381,282.579z"
	/>
<path fill="none" stroke="#1D1C1A" stroke-width="2" stroke-miterlimit="10" d="M391.871,283.24
	c0.104-1.719,0.098-3.502-0.024-5.347c-1.593-24.022-35.373-38.691-55.856-31.249c-13.407,4.871-22.557,18.799-22.65,32.916
	c-0.104,15.721,12.194,35.914,29.356,37.514c0.872,0.081,1.747,0.143,2.621,0.185C368.604,318.396,390.445,306.7,391.871,283.24z"/>
</svg>
