<?xml version="1.0" encoding="utf-8"?>
<!-- Generator: Adobe Illustrator 16.0.0, SVG Export Plug-In . SVG Version: 6.00 Build 0)  -->
<!DOCTYPE svg PUBLIC "-//W3C//DTD SVG 1.1//EN" "http://www.w3.org/Graphics/SVG/1.1/DTD/svg11.dtd">
<svg version="1.1" id="Layer_1" xmlns="http://www.w3.org/2000/svg" xmlns:xlink="http://www.w3.org/1999/xlink" x="0px" y="0px"
	 width="612px" height="612px" viewBox="0 90 612 612" enable-background="new 0 90 612 612" xml:space="preserve">
<g id="Layer_3">
	<rect y="90" fill="none" width="612" height="612"/>
</g>
<path fill="none" stroke="#231F20" stroke-width="2" stroke-miterlimit="10" d="M360.332,361.339
	c-12.778-2.518-36.545-2.752-36.582-2.714c-13,2.25-14.07,5.864-20.25,7.342c-0.263,0.351-5.404-1.664-6.75-1.217
	c-12.814,4.247-22.48-8.129-32.236-15.403c-5.685-4.235-12.101-8.329-15.529-14.791c-3.793-7.143-4.732-15.024-6.613-22.785
	c-8.466-34.839-20.091-86.205-59.512-97.931c-22.826-6.787-57.227-5.389-69.387,19.136c-4.78,9.642-8.22,22.677-5.517,33.379
	c1.879,7.458,9.023,18.71,7.012,26.537c-2.829,11.045-11.75,17.678-10.57,30.208c0.458,4.87,1.637,9.274,3.602,13.762
	c1.682,3.843,4.7,5.478,6.739,8.657c5.447,8.492-0.652,17.09,2.248,26.091c2.383,7.393,8.222,22.208,18.358,20.886
	c0.54-0.072,3.239-0.558,3.378,0.506c2.771,21.142,21.877,31.106,29.954,49.793c4.788,11.075,10.197,19.516,22.927,21.804
	c9.973,1.794,20.405,2.022,29.997,5.62c11.244,4.22,20.933,11.786,32.216,15.758c11.417,4.021,23.286,5.948,35.34,6.796
	c24.436,1.717,52.893,6.001,76.309-2.611c4.896-1.802,9.703-3.975,14.298-6.491c0.139-0.337,0.443-0.459,0.754-0.409
	c15.53-8.695,28.401-21.624,32.999-39.502c4.402-17.105,3.664-36.934-5.187-52.636C398.184,373.105,379.959,365.201,360.332,361.339
	z"/>
<path fill="none" stroke="#231F20" stroke-width="2" stroke-miterlimit="10" d="M390.304,356.998
	c5.544-2.287,11.412-3.635,17.332-4.518c1.08-0.16,0.618-1.795-0.45-1.634c-5.922,0.881-11.783,2.233-17.334,4.518
	C388.858,355.777,389.296,357.417,390.304,356.998z"/>
<path fill="none" stroke="#231F20" stroke-width="2" stroke-miterlimit="10" d="M215.996,375.381
	c9.283-25.251-29.874-39.629-39.156-14.384C167.568,386.248,206.718,400.632,215.996,375.381
	C219.971,364.569,212.023,386.193,215.996,375.381z"/>
<path fill="none" stroke="#231F20" stroke-width="2" stroke-miterlimit="10" d="M199.625,264.581
	c9.279-25.25-29.886-39.632-39.156-14.383C151.193,275.45,190.348,289.834,199.625,264.581
	C203.598,253.77,195.653,275.395,199.625,264.581z"/>
<path fill="none" stroke="#231F20" stroke-width="2" stroke-miterlimit="10" d="M185.255,370.815
	c9.279-25.255-29.883-39.637-39.159-14.383C136.817,381.682,175.979,396.064,185.255,370.815
	C189.228,360.003,181.282,381.63,185.255,370.815z"/>
<path fill="none" stroke="#231F20" stroke-width="2" stroke-miterlimit="10" d="M250.168,390.672
	c8.312-22.615-26.745-35.484-35.061-12.877C206.805,400.398,241.863,413.284,250.168,390.672
	C253.727,380.989,246.613,400.352,250.168,390.672z"/>
<path fill="none" stroke="#231F20" stroke-width="2" stroke-miterlimit="10" d="M278.789,421.079
	c8.308-22.613-26.746-35.485-35.063-12.875C235.426,430.812,270.481,443.688,278.789,421.079z"/>
<path fill="none" stroke="#231F20" stroke-width="2" stroke-miterlimit="10" d="M334.907,427.754
	c8.312-22.612-26.751-35.49-35.057-12.881C291.546,437.482,326.604,450.366,334.907,427.754
	C338.469,418.068,331.353,437.434,334.907,427.754z"/>
<path fill="none" stroke="#231F20" stroke-width="2" stroke-miterlimit="10" d="M169.435,313.839
	c8.307-22.611-26.75-35.487-35.058-12.878C126.071,323.569,161.133,336.452,169.435,313.839
	C172.992,304.158,165.881,323.521,169.435,313.839z"/>
<path fill="none" stroke="#231F20" stroke-width="2" stroke-miterlimit="10" d="M220.116,409.354
	c8.307-22.611-26.75-35.489-35.058-12.88C176.749,419.078,211.812,431.962,220.116,409.354
	C223.674,399.667,216.561,419.032,220.116,409.354z"/>
<path fill="none" stroke="#231F20" stroke-width="2" stroke-miterlimit="10" d="M244.42,438.691
	c8.309-22.613-26.75-35.488-35.062-12.88C201.063,448.418,236.111,461.298,244.42,438.691
	C247.979,429.008,240.864,448.367,244.42,438.691z"/>
<path fill="none" stroke="#231F20" stroke-width="2" stroke-miterlimit="10" d="M303.994,436.288
	c8.305-22.614-26.75-35.486-35.062-12.879C260.627,446.019,295.685,458.894,303.994,436.288
	C307.55,426.603,300.438,445.964,303.994,436.288z"/>
<path fill="none" stroke="#231F20" stroke-width="2" stroke-miterlimit="10" d="M283.542,443.064
	c8.309-22.617-26.754-35.493-35.058-12.878C240.18,452.794,275.237,465.672,283.542,443.064
	C287.102,433.379,279.989,452.739,283.542,443.064z"/>
<path fill="none" stroke="#231F20" stroke-width="2" stroke-miterlimit="10" d="M387.327,427.754
	c8.305-22.616-26.755-35.491-35.06-12.881C343.964,437.483,379.021,450.362,387.327,427.754
	C390.884,418.068,383.772,437.43,387.327,427.754z"/>
<path fill="none" stroke="#231F20" stroke-width="2" stroke-miterlimit="10" d="M334.911,466.528
	c8.307-22.615-26.755-35.492-35.061-12.878C291.547,476.26,326.605,489.136,334.911,466.528
	C338.469,456.845,331.357,476.203,334.911,466.528z"/>
<path fill="none" stroke="#231F20" stroke-width="2" stroke-miterlimit="10" d="M229.922,318.044
	c8.304-22.613-26.749-35.489-35.06-12.882C186.558,327.775,221.611,340.656,229.922,318.044
	C233.478,308.361,226.365,327.723,229.922,318.044z"/>
<path fill="none" stroke="#231F20" stroke-width="2" stroke-miterlimit="10" d="M166.355,306.102
	c4.292-11.683-13.821-18.337-18.114-6.654C143.949,311.129,162.065,317.785,166.355,306.102
	C168.194,301.101,164.519,311.105,166.355,306.102z"/>
<path fill="none" stroke="#231F20" stroke-width="2" stroke-miterlimit="10" d="M226.466,309.311
	c4.291-11.685-13.821-18.337-18.116-6.656C204.059,314.339,222.172,320.995,226.466,309.311
	C228.304,304.308,224.628,314.312,226.466,309.311z"/>
<path fill="none" stroke="#000000" stroke-width="2" d="M111.88,578.63c-0.135,1.127-0.553,2.052-1.251,2.772
	c-0.7,0.721-1.488,1.172-2.367,1.353c-0.879,0.18-1.725,0.067-2.536-0.339c-0.812-0.404-1.397-1.194-1.758-2.366
	c-0.226-0.767-0.372-1.599-0.439-2.502c-0.067-0.901-0.09-1.792-0.067-2.671c0.022-0.88,0.056-1.725,0.102-2.536
	c0.044-0.812,0.067-1.488,0.067-2.028c0-1.308-0.011-2.592-0.034-3.855c-0.023-1.262-0.033-2.546-0.033-3.854
	c-2.209-2.118-4.227-4.361-6.053-6.729c-1.826-2.366-3.46-4.902-4.903-7.607c-0.451-0.812-0.879-1.701-1.285-2.671
	s-0.632-1.928-0.676-2.874c-0.226-0.855-0.135-1.634,0.271-2.333c0.406-0.698,0.957-1.239,1.657-1.622
	c0.698-0.383,1.464-0.564,2.299-0.542c0.833,0.023,1.589,0.305,2.266,0.846c0.496,0.406,0.901,0.88,1.217,1.42
	c0.315,0.541,0.585,1.115,0.812,1.724c0.225,0.609,0.439,1.229,0.643,1.86c0.203,0.632,0.461,1.217,0.778,1.758
	c0.947,1.714,1.995,3.303,3.145,4.768c1.149,1.466,2.377,2.92,3.686,4.362c1.172-1.578,2.434-3.055,3.787-4.43
	s2.592-2.851,3.719-4.43c0.225-0.36,0.563-0.912,1.015-1.656c0.45-0.744,0.924-1.521,1.42-2.333
	c0.496-0.812,1.015-1.566,1.556-2.266s1.014-1.16,1.42-1.387c0.721-0.45,1.454-0.652,2.198-0.608
	c0.744,0.045,1.42,0.271,2.029,0.676c0.608,0.406,1.092,0.958,1.454,1.657c0.36,0.699,0.496,1.453,0.406,2.265
	c-0.091,0.857-0.485,1.894-1.184,3.111c-0.7,1.217-1.511,2.457-2.435,3.719c-0.925,1.263-1.86,2.458-2.806,3.584
	c-0.947,1.128-1.691,2.028-2.231,2.705c-0.451,0.541-0.891,1.071-1.319,1.589c-0.429,0.52-0.868,1.026-1.319,1.521
	c-0.586,0.677-1.149,1.353-1.69,2.029c-0.541,0.676-1.082,1.353-1.623,2.028c0,2.569,0,5.139,0,7.709s0.022,5.139,0.067,7.709
	L111.88,578.63L111.88,578.63z"/>
<path fill="none" stroke="#000000" stroke-width="2" d="M149.208,571.8c1.082-0.271,2.039-0.28,2.874-0.034
	c0.833,0.249,1.476,0.666,1.927,1.252c0.45,0.586,0.653,1.308,0.609,2.163c-0.045,0.856-0.429,1.759-1.149,2.705
	c-0.586,0.768-1.398,1.421-2.435,1.962c-1.037,0.541-2.007,0.97-2.908,1.285c-2.209,0.811-4.305,1.374-6.289,1.689
	c-1.985,0.315-3.844,0.315-5.579,0c-1.736-0.315-3.359-0.97-4.869-1.96c-1.511-0.991-2.92-2.389-4.227-4.193
	c-0.903-1.217-1.567-2.604-1.995-4.159c-0.429-1.555-0.666-3.145-0.71-4.768c-0.045-1.623,0.089-3.223,0.406-4.802
	c0.315-1.577,0.766-2.997,1.353-4.26c0.766-1.577,1.983-3.021,3.652-4.327c1.667-1.308,3.517-2.345,5.545-3.111
	c2.029-0.766,4.102-1.206,6.222-1.318c2.118-0.112,3.99,0.215,5.613,0.98c1.352,0.632,2.513,1.545,3.482,2.739
	c0.969,1.195,1.634,2.491,1.995,3.889c0.36,1.397,0.395,2.806,0.102,4.226c-0.294,1.42-1.026,2.717-2.198,3.889
	c-1.127,1.128-2.367,2.04-3.719,2.739s-2.75,1.309-4.193,1.825c-1.443,0.52-2.919,0.959-4.429,1.318
	c-1.511,0.362-2.965,0.768-4.361,1.218c0.947,1.082,2.028,1.77,3.246,2.062s2.49,0.349,3.821,0.169
	c1.33-0.181,2.671-0.552,4.024-1.116c1.353-0.562,2.614-1.184,3.787-1.859L149.208,571.8z"/>
<path fill="none" stroke="#000000" stroke-width="2" d="M135.547,560.168c-1.037,0.587-1.803,1.319-2.299,2.199
	c-0.497,0.879-0.857,2.107-1.082,3.685c1.172-0.36,2.49-0.744,3.956-1.149c1.465-0.406,2.851-0.834,4.159-1.285
	c1.308-0.45,2.412-0.947,3.313-1.488c0.901-0.541,1.353-1.126,1.353-1.758c0-0.36-0.057-0.71-0.169-1.049
	c-0.113-0.338-0.35-0.574-0.71-0.71c-1.263-0.449-2.57-0.541-3.922-0.271s-2.48,0.654-3.381,1.15L135.547,560.168z"/>
<path fill="none" stroke="#000000" stroke-width="2" d="M161.583,559.999c0.044-0.292,0.022-0.821-0.068-1.589
	c-0.722-0.405-1.285-0.924-1.69-1.555s-0.643-1.308-0.71-2.028c-0.067-0.722,0.067-1.409,0.406-2.062
	c0.338-0.653,0.89-1.206,1.657-1.657c1.037-0.585,2.175-0.698,3.415-0.338c1.239,0.361,2.31,0.901,3.212,1.622
	c1.127-0.855,2.299-1.577,3.517-2.164c1.217-0.585,2.457-0.98,3.719-1.184c1.262-0.202,2.546-0.169,3.854,0.102
	c1.307,0.271,2.592,0.835,3.854,1.691c0.631,0.405,1.217,0.912,1.758,1.521c0.541,0.608,0.879,1.296,1.014,2.062
	c0.225,1.127,0.135,2.107-0.271,2.941s-0.97,1.443-1.69,1.825c-0.721,0.384-1.533,0.497-2.435,0.338
	c-0.902-0.157-1.758-0.642-2.57-1.453c-0.271-0.18-0.462-0.327-0.574-0.44c-0.113-0.111-0.35-0.259-0.71-0.439
	c-0.722-0.18-1.432-0.136-2.13,0.136c-0.7,0.271-1.376,0.643-2.029,1.115c-0.654,0.474-1.263,0.992-1.826,1.556
	c-0.564,0.564-1.072,1.071-1.521,1.521v17.244c0,0.676-0.135,1.33-0.406,1.962c-0.406,1.035-1.048,1.758-1.927,2.163
	c-0.879,0.405-1.758,0.519-2.638,0.338c-0.879-0.18-1.646-0.631-2.299-1.353c-0.654-0.721-0.981-1.645-0.981-2.772v-18.935
	C161.515,560.35,161.538,560.293,161.583,559.999z"/>
<path fill="none" stroke="#000000" stroke-width="2" d="M187.211,576.331c-0.271-0.767-0.383-1.521-0.338-2.266
	c0.044-0.744,0.237-1.42,0.575-2.028c0.338-0.608,0.822-1.082,1.454-1.42c0.631-0.339,1.396-0.462,2.299-0.372
	c0.496,0.046,0.947,0.181,1.353,0.405c0.406,0.227,0.778,0.497,1.116,0.812c0.338,0.316,0.676,0.654,1.014,1.015
	c0.338,0.361,0.687,0.676,1.048,0.947c0.766,0.586,1.578,1.014,2.435,1.284c0.855,0.271,1.758,0.474,2.705,0.609
	c0.63,0,1.138-0.158,1.521-0.474c0.383-0.314,0.643-0.698,0.778-1.149c0.136-0.45,0.169-0.935,0.102-1.454
	c-0.067-0.518-0.237-0.935-0.507-1.251c-0.767-0.767-1.702-1.262-2.806-1.488c-1.105-0.225-2.13-0.495-3.077-0.812
	c-1.353-0.449-2.683-1.024-3.99-1.724c-1.308-0.699-2.367-1.656-3.178-2.874c-0.857-1.262-1.364-2.604-1.521-4.023
	c-0.158-1.42-0.045-2.807,0.338-4.159c0.382-1.353,1.025-2.592,1.927-3.719c0.901-1.127,1.983-2.052,3.246-2.772
	c0.947-0.542,1.983-0.89,3.111-1.049c1.126-0.157,2.266-0.19,3.415-0.102c1.149,0.091,2.288,0.305,3.415,0.643
	c1.126,0.339,2.164,0.71,3.111,1.116c1.082,0.497,1.894,1.195,2.435,2.097c0.541,0.902,0.8,1.815,0.778,2.738
	c-0.023,0.925-0.338,1.725-0.947,2.401c-0.608,0.676-1.5,1.014-2.671,1.014c-0.721,0-1.375-0.123-1.961-0.371
	c-0.586-0.247-1.195-0.484-1.825-0.71c-0.812-0.315-1.69-0.529-2.638-0.643c-0.947-0.112-1.714-0.057-2.299,0.169
	c-0.181,0.045-0.383,0.192-0.608,0.439c-0.227,0.248-0.396,0.553-0.507,0.913c-0.113,0.361-0.135,0.722-0.067,1.082
	c0.067,0.361,0.304,0.653,0.71,0.879c1.082,0.587,2.231,1.038,3.449,1.353c1.217,0.316,2.411,0.677,3.583,1.082
	c1.172,0.406,2.266,0.925,3.28,1.556c1.014,0.632,1.86,1.533,2.536,2.705c0.991,1.714,1.498,3.507,1.521,5.376
	c0.022,1.872-0.35,3.618-1.116,5.241c-0.767,1.622-1.894,3.009-3.381,4.158s-3.224,1.837-5.207,2.062
	c-1.398,0.136-2.773,0.057-4.125-0.236c-1.353-0.294-2.661-0.768-3.922-1.42c-1.263-0.654-2.435-1.431-3.517-2.333
	c-1.082-0.901-2.029-1.849-2.84-2.84L187.211,576.331z"/>
<path fill="none" stroke="#000000" stroke-width="2" d="M216.763,540.49c0.179-1.668,0.754-2.896,1.725-3.686
	c0.969-0.788,1.995-1.172,3.077-1.149c1.082,0.023,2.084,0.439,3.009,1.251c0.923,0.812,1.408,1.961,1.453,3.449
	c0.09,1.533-0.304,2.716-1.184,3.55c-0.879,0.835-1.883,1.309-3.009,1.42c-1.127,0.113-2.187-0.19-3.178-0.912
	c-0.993-0.721-1.601-1.871-1.826-3.449L216.763,540.49z"/>
<path fill="none" stroke="#000000" stroke-width="2" d="M225.689,578.969c-0.09,0.902-0.406,1.701-0.947,2.4
	c-0.541,0.698-1.161,1.206-1.86,1.521c-0.699,0.315-1.454,0.383-2.266,0.204c-0.812-0.181-1.533-0.677-2.164-1.488
	c-0.361-0.451-0.621-0.957-0.778-1.521c-0.158-0.563-0.259-1.15-0.304-1.758c-0.045-0.608-0.057-1.218-0.034-1.826
	c0.022-0.608,0.034-1.16,0.034-1.656c-0.045-2.66-0.057-5.297-0.034-7.913c0.022-2.613,0.011-5.251-0.034-7.912
	c0-1.082-0.068-2.175-0.203-3.279s-0.067-2.197,0.203-3.279c0.226-0.812,0.62-1.51,1.184-2.097c0.563-0.586,1.194-0.991,1.893-1.217
	s1.421-0.247,2.164-0.067c0.744,0.181,1.386,0.653,1.927,1.42c0.721,0.902,1.082,1.792,1.082,2.671s0,1.95,0,3.212
	c0,1.533,0,3.066,0,4.599c0,1.533,0.022,3.044,0.067,4.53c0.045,2.164,0.068,4.328,0.068,6.492s0,4.328,0,6.492V578.969
	L225.689,578.969z"/>
<path fill="none" stroke="#000000" stroke-width="2" d="M260.177,579.104c-0.135,1.127-0.553,2.051-1.251,2.771
	c-0.7,0.722-1.488,1.173-2.367,1.353c-0.879,0.181-1.725,0.067-2.536-0.338s-1.398-1.194-1.758-2.367
	c-0.406-1.262-0.564-2.58-0.474-3.955c0.09-1.375,0.135-2.647,0.135-3.821c0-2.435,0.01-4.857,0.034-7.27
	c0.022-2.411-0.079-4.835-0.304-7.27c-0.045-0.09-0.091-0.169-0.135-0.237c-0.045-0.067-0.135-0.169-0.271-0.304
	c-1.038-0.271-2.142-0.203-3.314,0.202c-1.173,0.406-2.164,0.925-2.976,1.556c-0.722,0.587-1.432,1.387-2.13,2.401
	c-0.699,1.014-1.048,1.994-1.048,2.941v9.332c0,0.723,0.023,1.511,0.068,2.367c0.044,0.856,0.011,1.69-0.102,2.502
	c-0.113,0.812-0.371,1.555-0.778,2.231c-0.406,0.676-1.06,1.171-1.961,1.487c-0.497,0.181-0.958,0.248-1.386,0.203
	c-0.429-0.045-0.891-0.158-1.386-0.338c-0.812-0.271-1.397-0.733-1.758-1.387c-0.361-0.652-0.609-1.353-0.743-2.097
	c-0.135-0.744-0.192-1.465-0.169-2.164c0.022-0.698,0.034-1.25,0.034-1.656c0-1.037-0.012-2.536-0.034-4.497
	c-0.023-1.961-0.034-4.023-0.034-6.188s0-4.227,0-6.188s0-3.459,0-4.498c0-0.99,0.292-1.813,0.879-2.467
	c0.585-0.653,1.273-1.083,2.062-1.285c0.788-0.203,1.623-0.158,2.502,0.135c0.879,0.293,1.611,0.891,2.197,1.792
	c1.803-1.171,3.787-1.961,5.951-2.366c2.164-0.406,4.203-0.339,6.12,0.203c1.916,0.541,3.517,1.555,4.801,3.043
	c1.285,1.488,1.95,3.539,1.995,6.153c0,0.091,0.022,0.362,0.067,0.812c0.044,0.451,0.067,1.082,0.067,1.894L260.177,579.104
	L260.177,579.104z"/>
<path fill="none" stroke="#000000" stroke-width="2" d="M267.074,540.49c0.18-1.668,0.755-2.896,1.725-3.686
	c0.969-0.788,1.995-1.172,3.077-1.149c1.082,0.023,2.084,0.439,3.009,1.251c0.923,0.812,1.408,1.961,1.454,3.449
	c0.09,1.533-0.304,2.716-1.184,3.55c-0.879,0.835-1.883,1.309-3.009,1.42c-1.127,0.113-2.188-0.19-3.178-0.912
	c-0.993-0.721-1.601-1.871-1.826-3.449L267.074,540.49z"/>
<path fill="none" stroke="#000000" stroke-width="2" d="M276.001,578.969c-0.091,0.902-0.406,1.701-0.947,2.4
	c-0.541,0.698-1.161,1.206-1.86,1.521c-0.7,0.315-1.454,0.383-2.266,0.204c-0.812-0.181-1.533-0.677-2.164-1.488
	c-0.362-0.451-0.621-0.957-0.778-1.521c-0.159-0.563-0.259-1.15-0.304-1.758c-0.045-0.608-0.057-1.218-0.034-1.826
	c0.022-0.608,0.034-1.16,0.034-1.656c-0.045-2.66-0.057-5.297-0.034-7.913c0.022-2.613,0.01-5.251-0.034-7.912
	c0-1.082-0.068-2.175-0.203-3.279s-0.067-2.197,0.203-3.279c0.226-0.812,0.62-1.51,1.184-2.097c0.563-0.586,1.194-0.991,1.894-1.217
	s1.42-0.247,2.164-0.067c0.744,0.181,1.386,0.653,1.927,1.42c0.721,0.902,1.082,1.792,1.082,2.671s0,1.95,0,3.212
	c0,1.533,0,3.066,0,4.599c0,1.533,0.022,3.044,0.067,4.53c0.044,2.164,0.068,4.328,0.068,6.492s0,4.328,0,6.492V578.969
	L276.001,578.969z"/>
<path fill="none" stroke="#000000" stroke-width="2" d="M311.571,577.886c0.36,1.309,0.294,2.391-0.203,3.247
	c-0.496,0.855-1.184,1.43-2.062,1.724c-0.88,0.293-1.838,0.259-2.874-0.102c-1.038-0.361-1.939-1.082-2.705-2.164
	c-1.263,0.946-2.491,1.612-3.686,1.995c-1.195,0.383-2.559,0.598-4.091,0.643c-2.299,0.09-4.352-0.169-6.154-0.778
	c-1.804-0.607-3.325-1.521-4.564-2.739c-1.24-1.216-2.154-2.738-2.739-4.563c-0.586-1.826-0.79-3.934-0.609-6.323
	c0.09-0.991,0.259-1.961,0.507-2.908c0.248-0.946,0.529-1.87,0.845-2.772c0.36-0.99,0.867-2.051,1.521-3.178
	c0.653-1.127,1.319-2.097,1.995-2.908c2.435-2.975,5.478-5.116,9.129-6.424c0.631-0.225,1.488-0.428,2.57-0.608
	s2.174-0.259,3.28-0.237c1.104,0.023,2.164,0.169,3.178,0.439s1.769,0.744,2.266,1.421c0.405,0.541,0.698,1.014,0.879,1.42
	c0.18,0.405,0.281,0.834,0.305,1.285c0.021,0.45,0.021,0.936,0,1.453c-0.023,0.519-0.034,1.161-0.034,1.927
	c0,1.263-0.012,2.492-0.034,3.686c-0.022,1.195-0.012,2.4,0.034,3.618c0,0.405,0,0.936,0,1.589s0.022,1.342,0.067,2.062
	c0.044,0.723,0.102,1.41,0.169,2.062c0.067,0.654,0.169,1.184,0.304,1.589L311.571,577.886z"/>
<path fill="none" stroke="#000000" stroke-width="2" d="M297.235,574.844c0.496-0.315,1.059-0.665,1.69-1.049
	c0.631-0.382,1.194-0.822,1.691-1.318c-0.406-2.389-0.643-4.778-0.71-7.168c-0.068-2.39-0.057-4.802,0.034-7.235
	c-2.029,0.36-3.854,1.239-5.478,2.638c-1.623,1.397-2.75,3.043-3.381,4.936c-0.271,0.768-0.497,1.556-0.676,2.367
	c-0.18,0.811-0.248,1.601-0.203,2.366c0.044,1.038,0.315,1.905,0.812,2.604c0.496,0.7,1.093,1.229,1.792,1.59
	c0.699,0.361,1.442,0.564,2.231,0.608C295.826,575.227,296.559,575.113,297.235,574.844z"/>
<path fill="none" stroke="#000000" stroke-width="2" d="M342.203,553.068c0.315-1.083,0.823-1.904,1.521-2.469
	c0.698-0.563,1.442-0.89,2.231-0.98c0.788-0.09,1.543,0.045,2.266,0.405c0.721,0.361,1.285,0.925,1.69,1.691
	c0.496-0.271,0.991-0.519,1.488-0.744c0.496-0.226,1.059-0.429,1.69-0.608c2.885-0.767,5.444-0.71,7.676,0.169
	c2.231,0.878,4.092,2.23,5.578,4.058c1.488,1.825,2.548,3.967,3.179,6.424c0.631,2.458,0.777,4.914,0.439,7.371
	s-1.206,4.756-2.604,6.897c-1.398,2.142-3.403,3.799-6.018,4.971c-1.715,0.766-3.507,1.251-5.377,1.453
	c-1.872,0.203-3.731,0.237-5.579,0.102c0,0.045,0.011,0.406,0.034,1.082c0.021,0.677,0.034,1.533,0.034,2.57
	c0,1.036,0,2.164,0,3.381s-0.034,2.389-0.102,3.517c-0.067,1.126-0.159,2.13-0.271,3.009c-0.113,0.88-0.282,1.477-0.507,1.793
	c-0.587,0.855-1.309,1.396-2.164,1.623c-0.857,0.225-1.669,0.19-2.435-0.102c-0.767-0.294-1.432-0.79-1.995-1.488
	c-0.564-0.7-0.846-1.545-0.846-2.537v-41.183L342.203,553.068z"/>
<path fill="none" stroke="#000000" stroke-width="2" d="M350.859,561.859c-0.136,0.226-0.202,0.327-0.202,0.304
	c0-0.021-0.091,0.058-0.271,0.237v11.158c0.901,0.135,1.802,0.202,2.705,0.202c0.901,0,1.848-0.135,2.84-0.405
	c2.029-0.496,3.629-1.476,4.803-2.942c1.171-1.464,1.622-3.279,1.352-5.443c-0.135-0.901-0.395-1.837-0.777-2.807
	c-0.384-0.969-0.892-1.792-1.521-2.469c-0.632-0.676-1.375-1.149-2.231-1.42c-0.856-0.27-1.826-0.179-2.908,0.271
	c-0.768,0.316-1.454,0.789-2.062,1.42C351.976,560.598,351.4,561.229,350.859,561.859z"/>
<path fill="none" stroke="#000000" stroke-width="2" d="M400.428,571.8c1.082-0.271,2.039-0.28,2.873-0.034
	c0.834,0.249,1.476,0.666,1.928,1.252c0.449,0.586,0.652,1.308,0.608,2.163c-0.045,0.856-0.429,1.759-1.15,2.705
	c-0.585,0.768-1.396,1.421-2.434,1.962c-1.038,0.541-2.007,0.97-2.908,1.285c-2.21,0.811-4.306,1.374-6.289,1.689
	c-1.984,0.315-3.845,0.315-5.579,0c-1.735-0.315-3.358-0.97-4.868-1.96c-1.511-0.991-2.92-2.389-4.227-4.193
	c-0.902-1.217-1.567-2.604-1.995-4.159c-0.429-1.555-0.666-3.145-0.71-4.768c-0.045-1.623,0.09-3.223,0.405-4.802
	c0.315-1.577,0.767-2.997,1.354-4.26c0.766-1.577,1.982-3.021,3.651-4.327c1.668-1.308,3.517-2.345,5.545-3.111
	c2.028-0.766,4.102-1.206,6.222-1.318c2.118-0.112,3.99,0.215,5.612,0.98c1.354,0.632,2.513,1.545,3.483,2.739
	c0.969,1.195,1.634,2.491,1.994,3.889s0.396,2.806,0.103,4.226c-0.294,1.42-1.027,2.717-2.198,3.889
	c-1.128,1.128-2.367,2.04-3.721,2.739c-1.352,0.699-2.749,1.309-4.191,1.825c-1.444,0.52-2.92,0.959-4.43,1.318
	c-1.512,0.362-2.965,0.768-4.362,1.218c0.947,1.082,2.028,1.77,3.247,2.062c1.217,0.293,2.489,0.349,3.82,0.169
	c1.329-0.181,2.671-0.552,4.023-1.116c1.353-0.562,2.613-1.184,3.787-1.859L400.428,571.8z"/>
<path fill="none" stroke="#000000" stroke-width="2" d="M386.768,560.168c-1.037,0.587-1.804,1.319-2.3,2.199
	c-0.496,0.879-0.855,2.107-1.082,3.685c1.173-0.36,2.49-0.744,3.956-1.149c1.465-0.406,2.852-0.834,4.159-1.285
	c1.308-0.45,2.41-0.947,3.313-1.488c0.901-0.541,1.353-1.126,1.353-1.758c0-0.36-0.058-0.71-0.169-1.049
	c-0.112-0.338-0.35-0.574-0.71-0.71c-1.263-0.449-2.569-0.541-3.922-0.271s-2.48,0.654-3.382,1.15L386.768,560.168z"/>
<path fill="none" stroke="#000000" stroke-width="2" d="M409.353,576.331c-0.27-0.767-0.384-1.521-0.338-2.266
	c0.044-0.744,0.236-1.42,0.574-2.028s0.822-1.082,1.454-1.42c0.631-0.338,1.396-0.462,2.3-0.372
	c0.495,0.046,0.946,0.181,1.352,0.405c0.406,0.227,0.777,0.497,1.116,0.812c0.339,0.316,0.676,0.654,1.014,1.015
	c0.338,0.361,0.688,0.676,1.048,0.947c0.767,0.586,1.578,1.014,2.436,1.284c0.855,0.271,1.758,0.474,2.705,0.609
	c0.631,0,1.138-0.158,1.521-0.474c0.382-0.314,0.642-0.698,0.777-1.149c0.136-0.45,0.169-0.935,0.102-1.454
	c-0.067-0.518-0.237-0.935-0.507-1.251c-0.768-0.767-1.702-1.262-2.807-1.488c-1.106-0.225-2.13-0.495-3.076-0.812
	c-1.354-0.449-2.683-1.024-3.99-1.724c-1.309-0.699-2.367-1.656-3.179-2.874c-0.856-1.262-1.364-2.604-1.521-4.023
	s-0.045-2.807,0.339-4.159c0.382-1.353,1.024-2.592,1.927-3.719c0.901-1.127,1.983-2.052,3.246-2.772
	c0.947-0.542,1.983-0.89,3.11-1.049c1.127-0.157,2.267-0.19,3.415-0.102c1.149,0.091,2.287,0.305,3.415,0.643
	c1.127,0.339,2.164,0.71,3.111,1.116c1.082,0.497,1.894,1.195,2.435,2.097c0.541,0.902,0.801,1.815,0.777,2.738
	c-0.022,0.925-0.338,1.725-0.946,2.401c-0.608,0.676-1.499,1.014-2.672,1.014c-0.721,0-1.375-0.123-1.96-0.371
	c-0.587-0.247-1.195-0.484-1.826-0.71c-0.812-0.315-1.69-0.529-2.637-0.643c-0.947-0.112-1.715-0.057-2.3,0.169
	c-0.181,0.045-0.384,0.192-0.608,0.439c-0.227,0.248-0.396,0.553-0.507,0.913c-0.114,0.361-0.136,0.722-0.068,1.082
	c0.068,0.361,0.305,0.653,0.71,0.879c1.082,0.587,2.231,1.038,3.45,1.353c1.217,0.316,2.41,0.677,3.583,1.082
	c1.171,0.406,2.265,0.925,3.279,1.556c1.015,0.632,1.86,1.533,2.536,2.705c0.992,1.714,1.499,3.507,1.521,5.376
	c0.022,1.872-0.349,3.618-1.115,5.241c-0.768,1.622-1.894,3.009-3.382,4.158c-1.486,1.149-3.224,1.837-5.206,2.062
	c-1.398,0.136-2.773,0.057-4.125-0.236c-1.354-0.294-2.661-0.768-3.922-1.42c-1.264-0.654-2.436-1.431-3.517-2.333
	c-1.083-0.901-2.029-1.849-2.841-2.84L409.353,576.331z"/>
<path fill="none" stroke="#000000" stroke-width="2" d="M440.866,558.343c-0.903-0.225-1.68-0.608-2.333-1.149
	c-0.654-0.541-1.105-1.172-1.353-1.894c-0.248-0.721-0.248-1.465,0-2.231c0.247-0.766,0.8-1.465,1.657-2.097
	c0.721-0.541,1.532-0.812,2.435-0.812c0.901,0,1.78,0,2.638,0c0-0.315-0.022-1.003-0.068-2.062c-0.045-1.058-0.056-2.22-0.033-3.482
	c0.022-1.262,0.102-2.468,0.236-3.617c0.136-1.15,0.383-1.95,0.745-2.4c0.901-1.263,2.017-1.86,3.347-1.793
	c1.329,0.067,2.423,0.71,3.28,1.927c0.179,0.227,0.349,0.497,0.507,0.812c0.157,0.316,0.236,0.608,0.236,0.88
	c0.044,1.622,0.057,3.246,0.034,4.869c-0.023,1.622-0.034,3.246-0.034,4.868h5.343c0.811,0,1.51,0.271,2.096,0.812
	s1.003,1.173,1.251,1.894c0.248,0.723,0.315,1.466,0.204,2.231c-0.114,0.768-0.463,1.397-1.049,1.894
	c-1.037,0.856-2.243,1.309-3.618,1.353c-1.376,0.045-2.784,0.067-4.227,0.067c0,2.48-0.012,4.96-0.033,7.438
	c-0.024,2.48-0.013,4.96,0.033,7.438c0,1.083,0.057,2.188,0.17,3.314c0.111,1.127,0.033,2.208-0.237,3.246
	c-0.227,0.812-0.609,1.453-1.149,1.927c-0.542,0.473-1.15,0.766-1.826,0.879c-0.676,0.112-1.376,0.067-2.098-0.136
	c-0.721-0.202-1.396-0.574-2.027-1.115c-0.316-0.315-0.553-0.855-0.71-1.622c-0.158-0.767-0.26-1.578-0.304-2.436
	c-0.045-0.991-0.045-2.051,0-3.178c0-0.901,0-2.073,0-3.517c0-1.442-0.013-2.942-0.035-4.497c-0.022-1.556-0.033-3.031-0.033-4.43
	c0-1.396,0-2.502,0-3.313L440.866,558.343z"/>
<path fill="none" stroke="#000000" stroke-width="2" d="M465.685,540.49c0.179-1.668,0.754-2.896,1.723-3.686
	c0.97-0.788,1.995-1.172,3.078-1.149c1.082,0.023,2.085,0.439,3.009,1.251s1.409,1.961,1.454,3.449
	c0.09,1.533-0.305,2.716-1.185,3.55c-0.879,0.835-1.882,1.309-3.009,1.42c-1.127,0.113-2.187-0.19-3.178-0.912
	c-0.992-0.721-1.601-1.871-1.826-3.449L465.685,540.49z"/>
<path fill="none" stroke="#000000" stroke-width="2" d="M474.611,578.969c-0.091,0.902-0.407,1.701-0.947,2.4
	c-0.542,0.698-1.161,1.206-1.859,1.521c-0.7,0.315-1.455,0.383-2.266,0.204c-0.812-0.181-1.533-0.677-2.164-1.488
	c-0.361-0.451-0.621-0.957-0.777-1.521c-0.159-0.563-0.261-1.15-0.305-1.758c-0.046-0.608-0.058-1.218-0.034-1.826
	c0.021-0.608,0.034-1.16,0.034-1.656c-0.046-2.66-0.058-5.297-0.034-7.913c0.021-2.613,0.011-5.251-0.035-7.912
	c0-1.082-0.066-2.175-0.201-3.279c-0.136-1.104-0.068-2.197,0.201-3.279c0.227-0.812,0.62-1.51,1.184-2.097
	c0.564-0.586,1.194-0.991,1.896-1.217c0.698-0.226,1.42-0.247,2.163-0.067c0.743,0.181,1.387,0.653,1.927,1.42
	c0.721,0.902,1.083,1.792,1.083,2.671s0,1.95,0,3.212c0,1.533,0,3.066,0,4.599c0,1.533,0.021,3.044,0.066,4.53
	c0.045,2.164,0.068,4.328,0.068,6.492s0,4.328,0,6.492L474.611,578.969L474.611,578.969z"/>
<path fill="none" stroke="#000000" stroke-width="2" d="M480.493,576.331c-0.271-0.767-0.384-1.521-0.339-2.266
	s0.237-1.42,0.575-2.028s0.822-1.082,1.454-1.42c0.63-0.339,1.396-0.462,2.299-0.372c0.496,0.046,0.947,0.181,1.354,0.405
	c0.405,0.227,0.777,0.497,1.115,0.812c0.338,0.316,0.676,0.654,1.015,1.015c0.338,0.361,0.686,0.676,1.048,0.947
	c0.767,0.586,1.576,1.014,2.434,1.284c0.856,0.271,1.759,0.474,2.705,0.609c0.631,0,1.138-0.158,1.521-0.474
	c0.383-0.314,0.644-0.698,0.778-1.149c0.135-0.45,0.168-0.935,0.102-1.454c-0.068-0.518-0.237-0.935-0.508-1.251
	c-0.767-0.767-1.702-1.262-2.806-1.488c-1.105-0.225-2.13-0.495-3.078-0.812c-1.352-0.449-2.682-1.024-3.988-1.724
	c-1.31-0.699-2.368-1.656-3.179-2.874c-0.856-1.262-1.364-2.604-1.521-4.023c-0.159-1.42-0.045-2.807,0.339-4.159
	c0.383-1.353,1.024-2.592,1.927-3.719c0.901-1.127,1.982-2.052,3.245-2.772c0.948-0.542,1.984-0.89,3.111-1.049
	c1.126-0.157,2.265-0.19,3.415-0.102c1.15,0.091,2.288,0.305,3.415,0.643c1.126,0.339,2.163,0.71,3.11,1.116
	c1.083,0.497,1.894,1.195,2.435,2.097c0.542,0.902,0.8,1.815,0.778,2.738c-0.024,0.925-0.339,1.725-0.947,2.401
	c-0.609,0.676-1.5,1.014-2.671,1.014c-0.723,0-1.376-0.123-1.962-0.371c-0.585-0.247-1.195-0.484-1.824-0.71
	c-0.812-0.315-1.692-0.529-2.639-0.643c-0.947-0.112-1.713-0.057-2.299,0.169c-0.181,0.045-0.384,0.192-0.608,0.439
	c-0.227,0.248-0.396,0.553-0.508,0.913c-0.112,0.361-0.136,0.722-0.066,1.082c0.066,0.361,0.303,0.653,0.71,0.879
	c1.082,0.587,2.231,1.038,3.448,1.353c1.217,0.316,2.411,0.677,3.584,1.082c1.172,0.406,2.266,0.925,3.279,1.556
	c1.015,0.632,1.859,1.533,2.536,2.705c0.991,1.714,1.498,3.507,1.521,5.376c0.021,1.872-0.35,3.618-1.116,5.241
	c-0.766,1.622-1.894,3.009-3.38,4.158c-1.488,1.149-3.224,1.837-5.208,2.062c-1.397,0.136-2.771,0.057-4.125-0.236
	c-1.352-0.294-2.66-0.768-3.922-1.42c-1.262-0.654-2.435-1.431-3.517-2.333c-1.082-0.901-2.028-1.849-2.84-2.84L480.493,576.331z"/>
<path fill="none" stroke="#000000" stroke-width="2" d="M139.131,638.86c0.467,0.9,0.633,1.81,0.5,2.728
	c-0.133,0.916-0.734,1.593-1.801,2.026c-1,0.367-1.96,0.268-2.877-0.3c-0.918-0.567-1.744-1.335-2.477-2.302
	c-0.734-0.969-1.369-1.985-1.902-3.053c-0.534-1.068-0.935-1.936-1.201-2.603c-1.701-3.937-2.619-8.032-2.752-12.285
	c-0.134-4.254,0.417-8.398,1.651-12.436c0.301-1.033,0.701-2.009,1.201-2.927c0.501-0.917,1.001-1.843,1.501-2.777
	c0.3-0.533,0.676-1.201,1.126-2.002c0.451-0.801,0.976-1.518,1.577-2.152c0.601-0.633,1.259-1.084,1.976-1.351
	s1.493-0.15,2.327,0.35c0.801,0.5,1.234,1.094,1.301,1.776c0.067,0.685-0.059,1.385-0.375,2.103
	c-0.318,0.718-0.718,1.41-1.201,2.077c-0.484,0.667-0.876,1.234-1.176,1.701c-0.434,0.768-0.792,1.418-1.076,1.951
	c-0.283,0.534-0.518,0.983-0.701,1.351c-0.184,0.368-0.325,0.693-0.425,0.977c-0.1,0.283-0.184,0.559-0.25,0.825
	c-0.5,1.735-0.868,3.596-1.101,5.58c-0.234,1.985-0.301,3.979-0.2,5.979c0.101,2.002,0.4,3.962,0.901,5.88
	c0.5,1.919,1.234,3.678,2.202,5.279c0.166,0.3,0.383,0.608,0.65,0.926c0.267,0.317,0.508,0.601,0.726,0.851
	c0.217,0.251,0.392,0.451,0.525,0.601c0.133,0.15,0.167,0.191,0.1,0.125L139.131,638.86z"/>
<path fill="none" stroke="#000000" stroke-width="2" d="M153.744,636.508c-0.968,0.033-1.894-0.033-2.777-0.2
	c-0.884-0.167-1.76-0.45-2.627-0.851c-0.434,0.233-0.859,0.351-1.276,0.351c-0.418,0-0.801-0.067-1.151-0.2
	c-0.35-0.135-0.65-0.293-0.901-0.476c-0.25-0.184-0.425-0.325-0.525-0.425c-0.367-0.534-0.584-1.134-0.651-1.802
	c-0.067-0.667,0.151-1.301,0.651-1.901v-25.722c0-0.767,0.267-1.408,0.801-1.926c0.533-0.517,1.151-0.842,1.852-0.976
	s1.376-0.017,2.027,0.35c0.65,0.368,1.092,1.034,1.326,2.002c0.133,0.601,0.242,1.193,0.325,1.776
	c0.083,0.584,0.133,1.26,0.15,2.027c0.017,0.768,0.017,1.651,0,2.651c-0.017,1.002-0.059,2.236-0.125,3.703
	c0.301-0.165,0.608-0.324,0.926-0.475c0.317-0.149,0.642-0.308,0.976-0.475c0.934-0.434,1.935-0.701,3.002-0.801
	c1.067-0.101,2.11-0.041,3.127,0.175c1.018,0.217,1.968,0.618,2.853,1.2c0.883,0.585,1.609,1.344,2.177,2.277
	c0.801,1.335,1.343,2.895,1.627,4.68c0.283,1.785,0.283,3.553,0,5.304c-0.284,1.752-0.868,3.379-1.751,4.88
	c-0.884,1.501-2.127,2.619-3.729,3.354c-1.001,0.467-2.027,0.826-3.078,1.075C155.92,636.333,154.845,636.475,153.744,636.508z"/>
<path fill="none" stroke="#000000" stroke-width="2" d="M150.59,623.697v6.005c0.066,0.067,0.133,0.117,0.2,0.15
	c0.067,0.033,0.133,0.084,0.2,0.149c3.002,1.002,5.605,0.318,7.807-2.052c0.5-1.334,0.742-2.593,0.726-3.778
	c-0.017-1.184-0.243-2.46-0.676-3.828c-0.167-0.4-0.442-0.658-0.826-0.775c-0.384-0.117-0.726-0.258-1.025-0.425
	c-0.535-0.101-1.11,0-1.727,0.3c-0.618,0.3-1.21,0.676-1.777,1.126c-0.567,0.449-1.084,0.942-1.551,1.476
	c-0.468,0.534-0.834,0.984-1.101,1.352L150.59,623.697z"/>
<path fill="none" stroke="#000000" stroke-width="2" d="M191.374,631.304c0.301,0.434,0.476,0.943,0.526,1.526
	c0.05,0.584-0.017,1.135-0.2,1.651c-0.184,0.518-0.484,0.941-0.901,1.275c-0.418,0.333-0.959,0.483-1.626,0.451
	c-0.868-0.067-1.569-0.368-2.102-0.902c-0.534-0.532-1.034-1.134-1.501-1.801c-1.301,1.068-2.645,1.81-4.029,2.228
	c-1.385,0.416-2.744,0.508-4.078,0.275c-1.335-0.234-2.586-0.794-3.753-1.677c-1.168-0.884-2.152-2.077-2.953-3.578
	c-0.734-1.401-1.144-2.952-1.226-4.653c-0.084-1.702-0.109-3.32-0.075-4.854c0-0.533,0.016-1.059,0.05-1.576
	c0.033-0.518,0.066-1.059,0.1-1.627c0.033-0.433,0.05-0.857,0.05-1.276c0-0.416,0.025-0.808,0.075-1.175s0.15-0.733,0.3-1.102
	c0.151-0.367,0.375-0.717,0.676-1.052c0.4-0.433,0.884-0.691,1.451-0.775c0.566-0.083,1.109-0.024,1.626,0.176
	c0.517,0.199,0.968,0.508,1.352,0.926c0.383,0.417,0.592,0.926,0.625,1.525c0.066,1.701,0.025,3.421-0.125,5.155
	c-0.15,1.735-0.142,3.436,0.025,5.104c0.066,0.802,0.275,1.619,0.625,2.453s0.908,1.435,1.676,1.801
	c0.767,0.334,1.543,0.309,2.327-0.075c0.784-0.383,1.426-0.842,1.927-1.376c0.233-0.267,0.458-0.559,0.676-0.876
	c0.216-0.316,0.458-0.592,0.726-0.826c-0.134-1.167-0.217-2.334-0.25-3.503c-0.034-1.167-0.034-2.335,0-3.503
	c0-0.634,0.025-1.326,0.075-2.077s0.183-1.468,0.4-2.152c0.217-0.684,0.542-1.284,0.977-1.802c0.433-0.516,1.051-0.842,1.851-0.975
	c0.367-0.067,0.726-0.033,1.076,0.1c0.351,0.134,0.659,0.317,0.926,0.55c0.467,0.4,0.783,0.852,0.951,1.352
	c0.167,0.5,0.25,1.034,0.25,1.601c0,0.568-0.042,1.144-0.125,1.727c-0.083,0.584-0.142,1.126-0.175,1.626
	c-0.067,0.935-0.118,1.92-0.151,2.952c-0.033,1.035,0,2.069,0.101,3.103c0.101,1.034,0.292,2.035,0.575,3.003
	C190.381,629.619,190.806,630.503,191.374,631.304z"/>
<path fill="none" stroke="#000000" stroke-width="2" d="M205.035,636.508c-0.968,0.033-1.894-0.033-2.777-0.2
	c-0.884-0.167-1.76-0.45-2.627-0.851c-0.434,0.233-0.859,0.351-1.276,0.351c-0.418,0-0.801-0.067-1.151-0.2
	c-0.35-0.135-0.651-0.293-0.901-0.476c-0.25-0.184-0.425-0.325-0.526-0.425c-0.367-0.534-0.583-1.134-0.65-1.802
	c-0.067-0.667,0.15-1.301,0.65-1.901v-25.722c0-0.767,0.267-1.408,0.801-1.926c0.533-0.517,1.15-0.842,1.851-0.976
	s1.376-0.017,2.027,0.35c0.65,0.368,1.092,1.034,1.326,2.002c0.133,0.601,0.242,1.193,0.325,1.776
	c0.083,0.584,0.133,1.26,0.15,2.027c0.017,0.768,0.017,1.651,0,2.651c-0.017,1.002-0.059,2.236-0.125,3.703
	c0.3-0.165,0.608-0.324,0.926-0.475c0.317-0.149,0.642-0.308,0.976-0.475c0.934-0.434,1.935-0.701,3.002-0.801
	c1.067-0.101,2.109-0.041,3.127,0.175c1.018,0.217,1.968,0.618,2.853,1.2c0.883,0.585,1.609,1.344,2.177,2.277
	c0.801,1.335,1.343,2.895,1.626,4.68c0.283,1.785,0.283,3.553,0,5.304c-0.284,1.752-0.868,3.379-1.751,4.88
	c-0.884,1.501-2.127,2.619-3.728,3.354c-1.001,0.467-2.027,0.826-3.078,1.075C207.212,636.333,206.136,636.475,205.035,636.508z"/>
<path fill="none" stroke="#000000" stroke-width="2" d="M201.883,623.697v6.005c0.066,0.067,0.133,0.117,0.2,0.15
	c0.067,0.033,0.133,0.084,0.2,0.149c3.002,1.002,5.604,0.318,7.807-2.052c0.5-1.334,0.742-2.593,0.726-3.778
	c-0.017-1.184-0.242-2.46-0.675-3.828c-0.167-0.4-0.443-0.658-0.826-0.775c-0.384-0.117-0.726-0.258-1.026-0.425
	c-0.534-0.101-1.109,0-1.727,0.3s-1.209,0.676-1.776,1.126c-0.567,0.449-1.084,0.942-1.551,1.476
	c-0.468,0.534-0.834,0.984-1.101,1.352L201.883,623.697z"/>
<path fill="none" stroke="#000000" stroke-width="2" d="M220.198,623.246c0.233-0.967,0.558-1.918,0.976-2.852
	c0.417-0.934,0.926-1.826,1.526-2.678c0.601-0.851,1.276-1.626,2.027-2.326c0.751-0.701,1.559-1.268,2.427-1.701
	c1.534-0.802,3.078-1.21,4.628-1.227s2.994,0.293,4.329,0.926c1.334,0.635,2.469,1.576,3.403,2.827
	c0.933,1.252,1.551,2.744,1.851,4.479c0.167,1.135,0.258,2.211,0.275,3.228c0.017,1.019-0.092,2.077-0.325,3.178
	c-0.333,1.568-1.009,3.127-2.027,4.679s-2.235,2.853-3.653,3.903c-1.418,1.052-2.97,1.744-4.654,2.077
	c-1.685,0.334-3.378,0.066-5.08-0.8c-0.767-0.368-1.459-0.794-2.076-1.277c-0.618-0.482-1.176-1.058-1.676-1.726
	c-0.568-0.733-1.009-1.501-1.326-2.303c-0.318-0.801-0.576-1.634-0.775-2.502c-0.234-0.933-0.318-1.876-0.25-2.827
	c0.067-0.951,0.183-1.876,0.35-2.777L220.198,623.246z"/>
<path fill="none" stroke="#000000" stroke-width="2" d="M226.203,624.298c-0.101,0.534-0.184,1.06-0.25,1.576
	c-0.067,0.518-0.067,1.043,0,1.576c0.101,0.769,0.308,1.469,0.625,2.102c0.317,0.635,0.733,1.135,1.251,1.502
	c0.517,0.367,1.109,0.559,1.777,0.575c0.667,0.017,1.383-0.191,2.151-0.625c0.968-0.567,1.802-1.442,2.502-2.628
	c0.701-1.184,1.134-2.418,1.301-3.703c0.167-1.284,0.033-2.502-0.4-3.653c-0.434-1.15-1.285-1.977-2.552-2.477
	c-0.834,0-1.602,0.158-2.302,0.475c-0.701,0.317-1.31,0.734-1.826,1.251c-0.518,0.519-0.968,1.126-1.352,1.827
	C226.744,622.797,226.436,623.53,226.203,624.298z"/>
<path fill="none" stroke="#000000" stroke-width="2" d="M265.235,633.906c-0.101,0.834-0.409,1.517-0.926,2.052
	c-0.518,0.533-1.101,0.867-1.751,1.001c-0.65,0.133-1.276,0.05-1.876-0.25c-0.6-0.3-1.034-0.885-1.301-1.752
	c-0.301-0.934-0.418-1.908-0.351-2.927c0.067-1.018,0.101-1.959,0.101-2.828c0-1.801,0.008-3.594,0.025-5.379
	c0.017-1.784-0.059-3.578-0.225-5.38c-0.034-0.065-0.067-0.125-0.1-0.175c-0.034-0.05-0.101-0.125-0.2-0.226
	c-0.768-0.199-1.585-0.149-2.453,0.151c-0.868,0.3-1.602,0.684-2.202,1.15c-0.534,0.435-1.06,1.026-1.577,1.776
	c-0.518,0.751-0.776,1.477-0.776,2.177v6.906c0,0.534,0.017,1.118,0.05,1.751c0.033,0.635,0.008,1.251-0.076,1.852
	c-0.083,0.6-0.275,1.15-0.575,1.651c-0.3,0.5-0.785,0.867-1.452,1.101c-0.367,0.133-0.709,0.184-1.025,0.15
	c-0.318-0.034-0.659-0.117-1.026-0.25c-0.601-0.2-1.034-0.543-1.301-1.026c-0.268-0.483-0.45-1.001-0.55-1.552
	c-0.1-0.55-0.142-1.083-0.125-1.601c0.017-0.517,0.025-0.926,0.025-1.227c0-0.767-0.008-1.876-0.025-3.328
	c-0.017-1.451-0.025-2.978-0.025-4.578s0-3.127,0-4.578c0-1.452,0-2.561,0-3.328c0-0.734,0.217-1.343,0.651-1.827
	c0.433-0.482,0.942-0.801,1.526-0.95c0.583-0.15,1.201-0.116,1.851,0.1c0.65,0.218,1.192,0.659,1.626,1.326
	c1.334-0.867,2.803-1.451,4.404-1.751c1.601-0.301,3.11-0.25,4.529,0.149c1.417,0.4,2.602,1.151,3.553,2.252
	c0.95,1.102,1.442,2.62,1.476,4.554c0,0.067,0.017,0.268,0.05,0.601c0.033,0.334,0.05,0.801,0.05,1.401L265.235,633.906
	L265.235,633.906z"/>
<path fill="none" stroke="#000000" stroke-width="2" d="M270.338,605.332c0.133-1.234,0.559-2.144,1.276-2.727
	c0.717-0.584,1.476-0.867,2.277-0.852c0.8,0.017,1.542,0.325,2.227,0.926c0.684,0.601,1.042,1.451,1.076,2.553
	c0.067,1.135-0.225,2.01-0.876,2.627c-0.65,0.618-1.393,0.968-2.227,1.051c-0.834,0.084-1.619-0.141-2.352-0.675
	c-0.734-0.533-1.185-1.384-1.352-2.553L270.338,605.332z"/>
<path fill="none" stroke="#000000" stroke-width="2" d="M276.943,633.806c-0.067,0.668-0.3,1.26-0.701,1.776
	c-0.4,0.518-0.859,0.893-1.376,1.126c-0.518,0.233-1.076,0.283-1.676,0.15c-0.6-0.135-1.134-0.5-1.601-1.102
	c-0.267-0.334-0.459-0.708-0.575-1.126c-0.117-0.417-0.192-0.851-0.225-1.301c-0.034-0.45-0.042-0.901-0.025-1.352
	c0.016-0.449,0.025-0.857,0.025-1.226c-0.034-1.969-0.042-3.919-0.025-5.854c0.016-1.935,0.008-3.887-0.025-5.855
	c0-0.801-0.05-1.608-0.15-2.427c-0.101-0.817-0.05-1.626,0.15-2.427c0.167-0.601,0.458-1.117,0.876-1.551
	c0.417-0.434,0.884-0.734,1.401-0.902c0.517-0.165,1.051-0.183,1.602-0.049c0.551,0.133,1.026,0.483,1.427,1.051
	c0.533,0.667,0.8,1.326,0.8,1.976c0,0.65,0,1.444,0,2.378c0,1.135,0,2.269,0,3.402c0,1.135,0.017,2.252,0.05,3.354
	c0.033,1.602,0.05,3.202,0.05,4.804s0,3.203,0,4.805v0.35H276.943z"/>
<path fill="none" stroke="#000000" stroke-width="2" d="M295.01,628.952c0.833-0.533,1.626-0.768,2.377-0.701
	c0.751,0.067,1.367,0.325,1.851,0.776c0.484,0.45,0.751,1.051,0.801,1.802c0.05,0.751-0.209,1.542-0.775,2.377
	c-0.368,0.567-0.893,1.083-1.577,1.551c-0.684,0.467-1.343,0.833-1.977,1.101c-1.468,0.667-2.953,0.968-4.454,0.901
	c-1.501-0.067-2.895-0.434-4.179-1.101c-1.285-0.667-2.394-1.594-3.328-2.777c-0.935-1.185-1.568-2.561-1.901-4.129
	c-0.668-3.002-0.534-5.888,0.4-8.657c0.367-1.001,0.809-1.968,1.326-2.902c0.517-0.933,1.143-1.784,1.876-2.552
	s1.552-1.442,2.452-2.027c0.901-0.583,1.885-0.976,2.953-1.176c0.734-0.133,1.668-0.125,2.802,0.025
	c1.134,0.149,2.244,0.442,3.328,0.875c1.084,0.435,2.035,1.002,2.853,1.702c0.817,0.7,1.276,1.534,1.376,2.502
	c0.066,0.534,0,1.026-0.2,1.477c-0.2,0.449-0.484,0.825-0.851,1.126c-0.368,0.3-0.793,0.509-1.276,0.625
	c-0.484,0.116-0.976,0.108-1.476-0.025c-0.6-0.166-1.076-0.392-1.426-0.676c-0.35-0.283-0.809-0.658-1.376-1.126
	c-0.268-0.066-0.518-0.175-0.751-0.325c-0.234-0.149-0.484-0.208-0.751-0.175l-1.352,0.15c-0.233,0.134-0.45,0.25-0.65,0.35
	s-0.4,0.2-0.6,0.3c-1.135,1.135-1.969,2.395-2.502,3.778c-0.534,1.385-0.668,2.878-0.4,4.479c0.167,1.034,0.492,1.886,0.976,2.553
	c0.483,0.667,1.051,1.126,1.702,1.376c0.65,0.25,1.367,0.274,2.152,0.075c0.783-0.2,1.559-0.65,2.327-1.352L295.01,628.952z"/>
<path fill="none" stroke="#000000" stroke-width="2" d="M323.933,614.64c0.232-0.801,0.608-1.409,1.126-1.826
	c0.518-0.416,1.067-0.658,1.651-0.726c0.583-0.066,1.143,0.034,1.676,0.3c0.533,0.268,0.952,0.685,1.252,1.251
	c0.367-0.2,0.732-0.383,1.101-0.55c0.367-0.166,0.783-0.317,1.252-0.45c2.134-0.567,4.027-0.525,5.679,0.125
	s3.027,1.651,4.128,3.003c1.102,1.351,1.885,2.936,2.353,4.754c0.467,1.818,0.575,3.636,0.325,5.454
	c-0.25,1.819-0.893,3.521-1.927,5.104c-1.033,1.585-2.519,2.812-4.453,3.678c-1.269,0.567-2.594,0.927-3.979,1.077
	c-1.385,0.149-2.761,0.175-4.128,0.074c0,0.033,0.008,0.301,0.024,0.801s0.025,1.135,0.025,1.902c0,0.767,0,1.601,0,2.502
	c0,0.9-0.025,1.768-0.075,2.602s-0.117,1.576-0.199,2.228c-0.084,0.65-0.21,1.092-0.375,1.326c-0.435,0.633-0.969,1.033-1.602,1.201
	c-0.635,0.166-1.235,0.141-1.802-0.075c-0.567-0.218-1.06-0.584-1.476-1.102c-0.418-0.518-0.626-1.143-0.626-1.876v-30.476
	L323.933,614.64z"/>
<path fill="none" stroke="#000000" stroke-width="2" d="M330.338,621.146c-0.101,0.167-0.149,0.242-0.149,0.226
	c0-0.018-0.067,0.041-0.2,0.175v8.257c0.667,0.1,1.334,0.149,2.002,0.149c0.667,0,1.367-0.1,2.102-0.3
	c1.501-0.367,2.685-1.093,3.553-2.177c0.867-1.084,1.201-2.427,1.001-4.029c-0.1-0.667-0.293-1.358-0.575-2.076
	c-0.283-0.717-0.659-1.326-1.126-1.827c-0.468-0.5-1.019-0.851-1.651-1.051c-0.634-0.199-1.351-0.133-2.152,0.2
	c-0.567,0.234-1.075,0.584-1.525,1.051C331.164,620.212,330.738,620.679,330.338,621.146z"/>
<path fill="none" stroke="#000000" stroke-width="2" d="M355.859,632.104c0.367,0.334,0.676,0.759,0.925,1.276
	c0.251,0.518,0.384,1.034,0.4,1.551s-0.101,1.001-0.35,1.451c-0.25,0.45-0.692,0.792-1.326,1.026c-0.5,0.166-1.052,0.2-1.651,0.101
	c-0.6-0.101-1.193-0.301-1.776-0.601c-0.584-0.301-1.101-0.659-1.552-1.076c-0.45-0.418-0.775-0.876-0.975-1.376
	c-0.067-0.167-0.118-0.358-0.151-0.576c-0.033-0.216-0.05-0.408-0.05-0.575v-27.772c0-0.768,0.292-1.418,0.876-1.952
	c0.584-0.533,1.227-0.851,1.927-0.95c0.333-0.033,0.692,0.017,1.076,0.149c0.383,0.134,0.742,0.325,1.076,0.576
	c0.333,0.249,0.608,0.542,0.826,0.875c0.217,0.335,0.324,0.685,0.324,1.051c0,0.868,0,2.02,0,3.454s0.008,3.002,0.025,4.703
	c0.016,1.702,0.025,3.462,0.025,5.28s-0.01,3.562-0.025,5.229c-0.018,1.669-0.025,3.194-0.025,4.578c0,1.385-0.017,2.494-0.05,3.328
	L355.859,632.104z"/>
<path fill="none" stroke="#000000" stroke-width="2" d="M381.83,633.006c0.268,0.968,0.217,1.769-0.15,2.401
	c-0.367,0.634-0.875,1.059-1.524,1.276c-0.651,0.217-1.361,0.191-2.128-0.075c-0.768-0.267-1.435-0.801-2.002-1.601
	c-0.935,0.7-1.845,1.191-2.728,1.476c-0.884,0.283-1.894,0.442-3.027,0.476c-1.701,0.066-3.221-0.125-4.554-0.575
	c-1.334-0.45-2.461-1.126-3.377-2.027c-0.918-0.901-1.595-2.026-2.027-3.378c-0.434-1.352-0.584-2.91-0.45-4.68
	c0.066-0.732,0.19-1.451,0.375-2.151c0.183-0.701,0.393-1.385,0.626-2.052c0.267-0.734,0.642-1.518,1.125-2.353
	c0.484-0.833,0.977-1.551,1.478-2.152c1.801-2.202,4.053-3.786,6.755-4.754c0.467-0.166,1.101-0.317,1.901-0.45
	s1.608-0.191,2.428-0.175c0.816,0.017,1.6,0.124,2.351,0.324s1.31,0.551,1.678,1.051c0.3,0.4,0.516,0.751,0.649,1.052
	c0.133,0.3,0.208,0.617,0.225,0.951s0.017,0.692,0,1.076s-0.023,0.859-0.023,1.426c0,0.935-0.01,1.844-0.025,2.728
	c-0.018,0.884-0.01,1.776,0.025,2.677c0,0.3,0,0.693,0,1.177s0.015,0.992,0.049,1.526c0.033,0.533,0.075,1.043,0.125,1.525
	c0.051,0.484,0.126,0.876,0.225,1.176L381.83,633.006z"/>
<path fill="none" stroke="#000000" stroke-width="2" d="M371.222,630.754c0.366-0.233,0.783-0.492,1.251-0.776
	c0.468-0.283,0.883-0.608,1.251-0.977c-0.3-1.768-0.476-3.535-0.525-5.304s-0.042-3.554,0.025-5.354
	c-1.502,0.268-2.853,0.918-4.054,1.951c-1.201,1.034-2.035,2.252-2.502,3.653c-0.2,0.567-0.368,1.15-0.5,1.751
	c-0.135,0.601-0.184,1.185-0.149,1.752c0.032,0.768,0.232,1.409,0.6,1.926c0.367,0.518,0.808,0.909,1.325,1.176
	c0.518,0.269,1.067,0.418,1.652,0.45C370.179,631.037,370.722,630.953,371.222,630.754z"/>
<path fill="none" stroke="#000000" stroke-width="2" d="M386.834,645.666c-0.567-0.701-0.867-1.427-0.901-2.178
	c-0.033-0.751,0.133-1.393,0.501-1.926c0.367-0.534,0.892-0.9,1.576-1.101c0.683-0.2,1.442-0.101,2.276,0.3
	c0.367,0.267,0.701,0.467,1.002,0.6c0.3,0.133,0.717,0.333,1.25,0.601c0.501,0.232,1.067,0.408,1.702,0.525
	c0.633,0.116,1.233,0.142,1.801,0.074c1.134-0.066,2.01-0.259,2.627-0.575c0.617-0.317,1.06-0.733,1.326-1.251
	s0.425-1.15,0.476-1.901c0.05-0.75,0.075-1.594,0.075-2.526c-1.068,0.367-2.136,0.642-3.203,0.826
	c-1.067,0.183-2.169,0.208-3.303,0.074c-2.202-0.268-4.012-1.051-5.429-2.352c-1.419-1.302-2.452-2.853-3.103-4.654
	c-0.65-1.801-0.918-3.728-0.801-5.779c0.116-2.052,0.592-3.944,1.427-5.68c0.499-1.001,1.184-1.927,2.051-2.777
	c0.868-0.851,1.844-1.551,2.928-2.102s2.218-0.908,3.403-1.076c1.184-0.166,2.327-0.066,3.428,0.3
	c0.634,0.234,1.251,0.469,1.852,0.701c0.6,0.234,1.184,0.534,1.751,0.901c0.634-0.567,1.376-0.852,2.228-0.852
	c0.851,0,1.576,0.4,2.177,1.201c0.133,0.2,0.283,0.425,0.45,0.676c0.166,0.25,0.25,0.493,0.25,0.726
	c0.033,3.57,0.041,7.131,0.024,10.685c-0.016,3.553-0.024,7.114-0.024,10.684c0,1.435-0.192,2.769-0.575,4.003
	c-0.384,1.234-0.959,2.328-1.726,3.278c-0.769,0.951-1.719,1.726-2.854,2.327c-1.134,0.601-2.451,0.983-3.952,1.15
	c-0.768,0.066-1.519,0.101-2.253,0.101s-1.484-0.084-2.252-0.25c-1.068-0.2-2.094-0.534-3.077-1.001
	c-0.983-0.468-1.961-0.984-2.928-1.551L386.834,645.666z"/>
<path fill="none" stroke="#000000" stroke-width="2" d="M392.738,630.403c1.468,0.701,2.818,0.926,4.054,0.676
	c1.233-0.25,2.485-0.809,3.753-1.677v-7.956c-0.968-0.967-1.909-1.644-2.827-2.027c-0.918-0.383-2.01-0.492-3.277-0.325
	c-0.233,0.135-0.459,0.25-0.676,0.351c-0.218,0.1-0.442,0.2-0.676,0.3c-0.701,0.801-1.235,1.576-1.602,2.327
	s-0.583,1.518-0.65,2.302c-0.066,0.785-0.008,1.585,0.176,2.402c0.184,0.818,0.458,1.711,0.825,2.678
	c0.101,0.167,0.251,0.334,0.45,0.5C392.489,630.12,392.639,630.27,392.738,630.403z"/>
<path fill="none" stroke="#000000" stroke-width="2" d="M431.822,631.304c0.3,0.434,0.475,0.943,0.524,1.526
	c0.05,0.584-0.017,1.135-0.199,1.651c-0.185,0.518-0.484,0.941-0.901,1.275c-0.418,0.333-0.96,0.483-1.626,0.451
	c-0.869-0.067-1.569-0.368-2.103-0.902c-0.534-0.532-1.034-1.134-1.501-1.801c-1.301,1.068-2.645,1.81-4.028,2.228
	c-1.385,0.416-2.744,0.508-4.078,0.275c-1.336-0.234-2.586-0.794-3.754-1.677c-1.168-0.884-2.151-2.077-2.952-3.578
	c-0.733-1.401-1.143-2.952-1.227-4.653c-0.084-1.702-0.108-3.32-0.074-4.854c0-0.533,0.016-1.059,0.049-1.576
	c0.034-0.518,0.067-1.059,0.101-1.627c0.034-0.433,0.051-0.857,0.051-1.276c0-0.416,0.024-0.808,0.075-1.175
	c0.05-0.367,0.149-0.733,0.3-1.102c0.15-0.367,0.375-0.717,0.676-1.052c0.399-0.433,0.883-0.691,1.45-0.775
	c0.568-0.083,1.109-0.024,1.627,0.176c0.517,0.199,0.967,0.508,1.351,0.926c0.384,0.417,0.593,0.926,0.626,1.525
	c0.065,1.701,0.025,3.421-0.125,5.155c-0.15,1.735-0.143,3.436,0.025,5.104c0.066,0.802,0.274,1.619,0.624,2.453
	c0.351,0.834,0.908,1.435,1.678,1.801c0.766,0.334,1.542,0.309,2.326-0.075c0.783-0.383,1.427-0.842,1.926-1.376
	c0.233-0.267,0.459-0.559,0.676-0.876c0.218-0.316,0.459-0.592,0.727-0.826c-0.133-1.167-0.217-2.334-0.25-3.503
	c-0.034-1.167-0.034-2.335,0-3.503c0-0.634,0.025-1.326,0.075-2.077s0.183-1.468,0.4-2.152c0.217-0.684,0.541-1.284,0.976-1.802
	c0.434-0.516,1.051-0.842,1.851-0.975c0.367-0.067,0.727-0.033,1.076,0.1c0.351,0.134,0.658,0.317,0.927,0.55
	c0.466,0.4,0.782,0.852,0.95,1.352s0.251,1.034,0.251,1.601c0,0.568-0.043,1.144-0.125,1.727c-0.084,0.584-0.143,1.126-0.176,1.626
	c-0.067,0.935-0.117,1.92-0.149,2.952c-0.034,1.035,0,2.069,0.101,3.103c0.099,1.034,0.291,2.035,0.574,3.003
	C430.829,629.619,431.254,630.503,431.822,631.304z"/>
<path fill="none" stroke="#000000" stroke-width="2" d="M453.24,628.501c0.8-0.2,1.508-0.208,2.126-0.024
	c0.617,0.184,1.093,0.492,1.427,0.926c0.333,0.434,0.482,0.968,0.45,1.602c-0.034,0.634-0.318,1.301-0.852,2.002
	c-0.434,0.567-1.033,1.051-1.801,1.451c-0.768,0.399-1.485,0.718-2.152,0.95c-1.635,0.601-3.187,1.018-4.654,1.251
	c-1.467,0.233-2.845,0.233-4.128,0c-1.284-0.233-2.485-0.718-3.604-1.451c-1.117-0.732-2.159-1.768-3.128-3.102
	c-0.667-0.901-1.159-1.927-1.476-3.078s-0.493-2.326-0.524-3.528c-0.034-1.2,0.065-2.384,0.3-3.553c0.233-1.167,0.566-2.218,1-3.152
	c0.568-1.167,1.468-2.234,2.703-3.202c1.233-0.968,2.603-1.734,4.104-2.303c1.501-0.566,3.035-0.892,4.604-0.976
	c1.567-0.083,2.953,0.159,4.153,0.726c1.001,0.468,1.859,1.144,2.577,2.027c0.717,0.884,1.209,1.843,1.477,2.877
	s0.292,2.077,0.074,3.127c-0.217,1.052-0.759,2.011-1.625,2.878c-0.834,0.834-1.753,1.51-2.753,2.026
	c-1.001,0.518-2.036,0.968-3.103,1.351c-1.067,0.385-2.16,0.71-3.277,0.977c-1.118,0.268-2.193,0.567-3.228,0.9
	c0.701,0.802,1.501,1.311,2.402,1.526c0.9,0.218,1.843,0.259,2.827,0.125c0.983-0.133,1.977-0.407,2.978-0.825
	c1.001-0.417,1.934-0.876,2.802-1.377L453.24,628.501z"/>
<path fill="none" stroke="#000000" stroke-width="2" d="M443.131,619.895c-0.769,0.434-1.335,0.976-1.702,1.626
	s-0.633,1.561-0.801,2.728c0.867-0.267,1.843-0.551,2.929-0.851c1.083-0.301,2.107-0.618,3.076-0.951
	c0.967-0.334,1.784-0.701,2.453-1.102c0.667-0.399,1-0.833,1-1.301c0-0.267-0.041-0.525-0.125-0.776s-0.259-0.425-0.524-0.524
	c-0.935-0.334-1.901-0.4-2.902-0.2c-1.002,0.2-1.836,0.484-2.503,0.851L443.131,619.895z"/>
<path fill="none" stroke="#000000" stroke-width="2" d="M458.994,638.21c0.267-0.268,0.508-0.509,0.726-0.726
	c0.217-0.218,0.434-0.434,0.649-0.65c0.218-0.217,0.426-0.459,0.627-0.727c0.199-0.267,0.416-0.583,0.649-0.95
	c0.967-1.568,1.701-3.354,2.202-5.354c0.501-2.002,0.801-4.062,0.901-6.181c0.1-2.118,0.016-4.203-0.251-6.256
	c-0.266-2.052-0.717-3.928-1.351-5.63c-0.434-1.167-0.976-2.268-1.627-3.302c-0.649-1.033-1.309-2.052-1.976-3.052
	c-0.302-0.434-0.593-0.859-0.877-1.276c-0.283-0.417-0.442-0.909-0.476-1.477c-0.033-0.867,0.176-1.584,0.627-2.152
	c0.449-0.566,0.991-0.926,1.625-1.075c0.634-0.15,1.284-0.092,1.952,0.175c0.667,0.268,1.201,0.784,1.602,1.551
	c0.732,1.034,1.433,2.085,2.102,3.152c0.667,1.068,1.283,2.152,1.851,3.253c0.934,1.801,1.643,3.753,2.127,5.854
	s0.768,4.254,0.852,6.456c0.082,2.201-0.025,4.378-0.325,6.53c-0.3,2.151-0.751,4.162-1.351,6.03
	c-0.534,1.601-1.177,3.21-1.927,4.829c-0.751,1.618-1.71,3.044-2.878,4.278c-0.499,0.533-1.067,1.034-1.701,1.501
	c-0.633,0.468-1.335,0.701-2.102,0.701c-0.7,0-1.276-0.15-1.727-0.45c-0.449-0.3-0.768-0.684-0.95-1.15
	c-0.185-0.469-0.243-0.977-0.176-1.526c0.066-0.551,0.232-1.094,0.5-1.627L458.994,638.21z"/>
<path fill="none" stroke="#231F20" stroke-width="2" stroke-miterlimit="10" d="M464.288,413.634
	c-7.526-1.903-15.328-2.382-22.712-4.71c-0.667-3.136-1.533-6.223-2.586-9.238c-0.19-0.089-0.383-0.165-0.573-0.26
	c-4.059-2.028-6.99-5.976-8.792-11.834c-0.737-2.499-1.286-5.156-1.686-7.943c-2.024-2.375-4.253-4.529-6.662-6.469
	c1.96-1.02,3.908-1.755,5.91-2.201c-0.027-0.61-0.051-1.219-0.07-1.827c-2.533,0.544-4.932,1.518-7.315,2.863
	c-3.223-2.415-6.715-4.483-10.39-6.265c5.486-2.816,10.505-6.931,16.093-9.334c1.005-0.429,0.14-1.892-0.854-1.466
	c-5.955,2.562-11.27,7.124-17.22,9.881c-10.864-4.902-23.076-7.516-34.239-9.284c-3.291-0.52-6.621-0.95-9.973-1.298
	c6.975-3.41,14.587-5.144,21.969-7.542c1.033-0.339,0.591-1.974-0.452-1.635c-8.319,2.702-16.903,4.593-24.595,8.877
	c-3.957-0.346-7.938-0.567-11.927-0.644c5.779-2.814,10.993-7.188,16.834-9.699c1.002-0.43,0.135-1.887-0.857-1.463
	c-7.001,3.005-13.111,8.782-20.404,11.137c-2.359,0.016-4.72,0.072-7.075,0.193c3.584-3.992,6.984-8.418,8.191-13.579
	c0.25-1.062-1.382-1.514-1.635-0.449c-1.269,5.431-5.174,10.052-8.997,14.187c-5.032,0.341-10.033,0.931-14.967,1.801
	c1.708-1.328,3.627-2.245,5.796-3.077c1.508-0.579,2.949-1.015,4.163-2.112c3.136-2.841,1.374-9.693,0.808-13.198
	c-0.174-1.077-1.8-0.62-1.635,0.447c0.428,2.63,0.788,5.175,0.707,7.84c-0.126,4.094-2.488,4.619-5.603,5.811
	c-2.861,1.102-5.283,2.604-7.312,4.86c-2.558,0.515-5.094,1.101-7.603,1.773c-1.557,0.417-2.561,0.98-3.067,1.517
	c-2.199,0.203-5.191-1.053-8.392-2.975c3.294-3.228,17.657,0.934,17.539-7.751c-0.016-1.089-1.713-1.093-1.695,0
	c0.106,7.592-13.81,2.487-17.381,6.79c-3.913-2.533-7.945-5.781-11.066-8.334c5.274-1.278,12.312,1.934,16.473-2.371
	c0.762-0.792-0.437-1.988-1.198-1.203c-2.63,2.728-7.577,1.77-11.143,1.831c-1.766,0.032-3.734,0.106-5.514,0.615
	c-1.097-0.899-2.048-1.668-2.745-2.188c-2.142-1.596-4.139-3.169-5.99-4.797c2.291-1.562,6.047-1.735,8.454-1.386
	c2.672,0.39,5.51,1.232,7.255-1.38c0.604-0.913-0.866-1.762-1.468-0.856c-1.396,2.096-4.838,0.561-6.898,0.427
	c-1.752-0.113-3.539,0.15-5.244,0.536c-1.268,0.29-2.406,0.8-3.342,1.513c-2.457-2.288-4.609-4.74-6.411-7.528
	c5.884-2.432,14.115,3.117,19.133-1.688c0.788-0.759-0.416-1.958-1.202-1.202c-3.188,3.057-10.667,0.403-14.725,0.64
	c-1.452,0.081-2.815,0.382-4.057,0.917c-1.238-2.128-2.294-4.455-3.125-7.087c-0.702-2.221-1.36-4.449-1.998-6.682
	c1.658,0.277,2.627,1.114,4.362,1.764c1.822,0.684,3.719,1.082,5.641,1.393c2.501,0.406,6.066,0.842,7.747-1.499
	c0.64-0.891-0.834-1.737-1.468-0.857c-1.737,2.424-8.055,0.379-10.296-0.267c-1.508-0.427-2.827-1.407-4.274-2.015
	c-0.674-0.281-1.451-0.4-2.261-0.443c-1.326-4.75-2.541-9.519-3.729-14.289c0.543,0.384,1.081,0.84,1.625,1.393
	c0.976,0.993,2.968,1.304,4.238,1.59c2.703,0.615,6.092,1.063,8.402-0.759c0.861-0.681-0.346-1.872-1.198-1.203
	c-3.337,2.631-9.903-0.231-12.007-2.961c-0.546-0.712-1.189-1.124-1.879-1.348c-0.931-3.754-1.858-7.508-2.823-11.257
	c1.675-0.084,3.281,0.4,4.847,1.975c1.085,1.093,2.304,2.357,3.821,2.834c3.367,1.074,5.454-0.561,7.254-3.331
	c0.599-0.921-0.867-1.768-1.461-0.854c-3.843,5.903-7.156,0.568-10.835-1.877c-1.167-0.778-2.633-0.833-4.107-0.587
	c-1.147-4.39-2.362-8.768-3.7-13.122c1.911-0.502,3.641-0.176,5.981,0.918c1.328,0.622,2.742,1.002,4.178,1.276
	c2.566,0.491,5.141,0,6.414-2.421c0.508-0.97-0.953-1.824-1.462-0.858c-2.031,3.857-7.465,0.664-10.194-0.326
	c-2.038-0.741-3.732-0.768-5.436-0.265c-1.264-4.005-2.645-7.986-4.195-11.935c-0.009-0.024-0.019-0.048-0.029-0.071
	c3.755-0.326,8.407,2.215,11.613,3.003c2.724,0.668,5.666,1.109,8.271-0.122c0.984-0.47,0.125-1.93-0.855-1.471
	c-6.561,3.111-13.553-4.208-19.735-3.163c-1.441-3.569-3.003-7.129-4.707-10.634c1.232,0.137,2.491,0.562,4.038,1.353
	c2.684,1.381,5.396,2.711,8.113,4.025c0.98,0.474,1.84-0.99,0.856-1.465c-3.509-1.693-6.996-3.434-10.455-5.227
	c-1.237-0.64-2.396-0.796-3.543-0.707c-1.911-3.778-4.004-7.463-6.3-11c4.968-0.124,9.984,3.932,15.29,2.94
	c1.075-0.197,0.619-1.829-0.448-1.631c-5.734,1.066-10.632-3.455-15.923-2.921c-2.109-3.11-4.392-6.08-6.869-8.87
	c2.151-0.353,5.241,0.071,6.782,0.286c3.555,0.5,6.808,1.742,10.442,1.728c1.094-0.006,1.094-1.701,0-1.695
	c-4.481,0.019-8.676-1.744-13.139-1.982c-1.308-0.064-2.781-0.238-4.077-0.027c-0.437,0.071-0.833,0.198-1.215,0.34
	c-2.375-2.551-4.938-4.918-7.683-7.087c1.519-0.577,3.093-0.884,4.842-0.458c2.188,0.536,3.515,1.68,5.872,1.443
	c1.077-0.107,1.089-1.806,0-1.696c-2.681,0.27-4.969-1.533-7.638-1.733c-1.553-0.117-3.146,0.468-4.663,1.194
	c-2.104-1.557-4.314-2.992-6.646-4.287c-1.362-0.756-2.769-1.443-4.195-2.099c0.21-0.082,0.418-0.164,0.631-0.245
	c4.296-1.632,7.792,0.013,11.975,0.92c1.067,0.232,1.517-1.398,0.451-1.634c-2.971-0.643-6.086-2.278-9.201-1.815
	c-2.072,0.306-4.011,1.124-5.968,1.837c-4.623-1.932-9.514-3.368-14.54-4.348c1.841-1.026,3.865-1.674,6.116-2.234
	c4.467-1.11,8.707-2.994,13.137-4.235c1.05-0.294,0.603-1.93-0.449-1.633c-4.878,1.365-9.551,3.346-14.478,4.569
	c-2.583,0.642-4.837,1.609-6.835,3.097c-3.172-0.519-6.381-0.876-9.601-1.052c0.542-2.008,1.17-3.98,2.159-5.84
	c1.551-2.915,4.056-3.276,6.808-4.457c1-0.427,0.134-1.885-0.86-1.461c-2.894,1.237-5.09,1.649-6.981,4.362
	c-1.494,2.14-2.251,4.764-2.888,7.331c-3.903-0.138-7.799-0.036-11.639,0.294c0.034-1.219,0.014-2.442,0.061-3.675
	c0.121-3.133,2.18-4.532,4.396-6.276c0.861-0.672-0.35-1.866-1.203-1.196c-1.641,1.29-3.628,2.505-4.311,4.611
	c-0.712,2.193-0.533,4.435-0.613,6.676c-3.766,0.39-7.463,0.996-11.03,1.803c-0.018,0.004-0.036,0.009-0.055,0.013
	c0.012-4.302-0.39-12.191,3.898-12.363c1.089-0.045,1.092-1.742,0-1.696c-6.184,0.252-5.441,9.487-5.581,14.473
	c-4.024,0.983-7.947,2.192-11.702,3.68c0.156-2.084,0.155-4.161-0.071-6.262c-0.271-2.497-1.658-4.694-1.717-7.229
	c-0.025-1.088-1.721-1.094-1.697,0c0.053,2.275,1.016,4.276,1.586,6.44c0.636,2.424,0.455,5.205,0.162,7.773
	c-2.219,0.944-4.369,1.988-6.444,3.142c-0.342-1.369-0.796-2.691-1.417-3.994c-1.03-2.164-3.556-3.977-3.633-6.438
	c-0.034-1.094-1.728-1.094-1.696,0c0.064,2.02,1.089,3.379,2.351,4.87c1.533,1.812,2.36,4.111,2.867,6.425
	c-2.911,1.725-5.645,3.688-8.175,5.895c-0.043-1.186-0.197-2.366-0.593-3.535c-0.356-1.05-1.125-1.862-1.866-2.645
	c-1.47-1.549-1.739-3.315-1.786-5.359c-0.024-1.091-1.721-1.093-1.696,0c0.05,2.132,0.321,4.205,1.741,5.904
	c2.058,2.468,2.432,4.689,2.442,7.255c-2.012,1.929-3.877,4.029-5.56,6.33c-1.451-3.38-4.104-6.461-6.083-9.323
	c-0.617-0.893-2.089-0.046-1.467,0.857c2.027,2.927,5.192,6.386,6.421,10.099c-1.764,2.635-3.329,5.483-4.619,8.614
	c-0.275,0.668-0.497,1.373-0.744,2.061c-2.772-3.869-6.941-7.125-10.634-8.941c-0.976-0.478-1.836,0.984-0.857,1.465
	c3.665,1.802,8.188,5.342,10.793,9.42c-1.151,3.677-1.88,7.585-2.246,11.53c-1.354-0.782-2.649-1.681-3.876-2.58
	c-1.52-1.109-2.504-2.252-3.383-3.92c-0.64-1.214-1.33-2.241-2.549-2.92c-0.958-0.526-1.812,0.938-0.856,1.47
	c1.568,0.863,2.13,2.818,3.07,4.256c0.694,1.057,1.874,1.818,2.865,2.577c1.403,1.073,2.948,2.114,4.574,2.979
	c-0.146,2.392-0.138,4.781,0.01,7.14c-3.731-2.432-9.004-3.316-11.825-0.77c-0.808,0.733,0.393,1.93,1.205,1.198
	c2.512-2.271,7.766-0.727,10.828,1.919c0.25,2.365,0.616,4.693,1.175,6.911c0.277,1.095,0.603,2.177,0.944,3.253
	c-3.321-1.263-7.029-1.713-10.5-2.906c-1.035-0.357-1.474,1.28-0.45,1.634c3.859,1.324,8.101,1.666,11.667,3.436
	c1.279,3.682,2.754,7.302,3.885,11.036c-0.111-0.086-0.208-0.184-0.324-0.266c-4.318-3.045-10.18-1.417-14.262-4.604
	c-0.853-0.668-2.06,0.527-1.199,1.201c2.547,1.986,5.702,2.338,8.832,2.715c3.603,0.43,6.099,2.187,7.887,4.657
	c0.759,5.123-1.854,9.553-4.516,13.807c-4.194-4.496-10.013-10.148-14.855-7.398c-0.952,0.541-0.097,2.007,0.854,1.467
	c3.185-1.809,7.514,2.363,9.678,4.266c1.167,1.026,2.26,2.126,3.34,3.238c-0.226,0.362-0.449,0.722-0.667,1.085
	c-0.778,1.29-1.453,2.593-2.039,3.914c-0.11-0.133-0.211-0.269-0.322-0.399c-0.917-1.068-1.952-2.024-3.103-2.833
	c-1.32-0.919-3.08-1.069-4.489-1.839c-0.956-0.522-1.812,0.94-0.85,1.464c2.216,1.217,4.411,1.558,6.3,3.402
	c0.613,0.597,1.19,1.261,1.741,1.95c-1.093,2.886-1.736,5.832-2.002,8.812c-0.952-0.729-1.906-1.458-2.993-1.939
	c-0.559-0.25-1.246-0.438-1.857-0.352c-1.114,0.158-3.085,1.617-4.121,0.639c-0.794-0.745-1.995,0.45-1.201,1.203
	c2.108,1.985,3.65-0.441,5.922-0.125c1.546,0.215,2.835,1.272,4.137,2.318c-0.13,3.44,0.247,6.921,1.07,10.408
	c-0.704-0.302-1.408-0.602-2.127-0.873c-2.02-0.766-4.891,0.024-6.53-1.487c-0.804-0.741-2.002,0.456-1.203,1.204
	c1.831,1.677,3.316,1.142,5.626,1.465c1.652,0.227,3.192,0.958,4.743,1.648c0.287,1.015,0.599,2.029,0.957,3.042
	c0.64,1.813,1.309,3.529,2.124,5.119c-2.392,0.579-5.644,2.499-7.029,0.124c-0.552-0.938-2.016-0.087-1.464,0.857
	c1.354,2.32,3.446,2.689,5.87,1.637c1.38-0.595,2.496-0.891,3.645-0.848c1.062,1.657,2.365,3.147,4.123,4.402
	c2.149,1.534,3.201,3.652,3.638,6.018c-0.628-0.122-1.291-0.051-1.923,0.018c-2.304,0.253-4.387-1.096-6.111-2.505
	c-0.841-0.688-2.047,0.506-1.199,1.198c2.511,2.048,4.868,3.271,8.107,2.912c0.484-0.053,0.926,0.103,1.352,0.334
	c0.154,2.938-0.396,6.108-0.921,8.987c-3.748-0.332-8.5,1.534-8.787-4.077c-0.056-1.087-1.751-1.089-1.695,0
	c0.152,2.914,1.515,5.439,4.657,5.848c1.845,0.241,3.673-0.122,5.513-0.037c-0.13,0.747-0.25,1.468-0.337,2.143
	c-0.326,2.535-0.154,5.136,0.373,7.71c-0.478-0.273-0.966-0.527-1.488-0.717c-2.779-1.015-5.157,0.087-7.951,0.485
	c-1.082,0.147-0.62,1.783,0.445,1.63c1.227-0.17,2.406-0.478,3.603-0.762c1.999-0.474,3.538,0.243,5.202,1.239
	c0.266,0.158,0.521,0.312,0.78,0.466c0.635,2.134,1.514,4.221,2.621,6.2c-0.462,0.11-0.925,0.214-1.362,0.401
	c-2.794,1.178-4.609,3.742-7.476,4.811c-1.019,0.376-0.575,2.012,0.452,1.632c1.99-0.741,3.471-1.916,5.079-3.269
	c1.332-1.125,2.773-1.675,4.286-1.951c2.486,3.899,5.779,7.293,9.558,9.638c-0.17,0.135-0.344,0.247-0.514,0.401
	c-0.804,0.732-1.47,1.643-2.207,2.446c-1.685,1.84-3.961,1.7-6.171,1.13c-1.063-0.271-1.507,1.364-0.452,1.636
	c2.59,0.665,4.918,0.681,7.152-0.931c1.636-1.183,2.467-2.824,3.93-3.73c2.662,1.376,5.501,2.235,8.419,2.413
	c0.099,0.697,0.226,1.365,0.349,2.038c-0.344-0.077-0.694-0.138-1.047-0.167c-1.504-0.133-2.958-0.022-4.428,0.3
	c-2.268,0.503-3.689,2.715-6.293,1.977c-1.054-0.3-1.502,1.337-0.451,1.632c3.077,0.871,4.418-1.194,7.2-1.973
	c1.473-0.413,3.714-0.566,5.367,0.076c0.728,3.285,1.779,6.282,3.107,9.116c-0.718,0.11-1.444,0.284-2.168,0.49
	c-4.153,1.171-8.915,3.782-10.156-2.256c-0.219-1.069-1.853-0.615-1.632,0.453c1.876,9.141,9.023,3.074,14.615,2.741
	c1.29,2.512,2.852,4.896,4.632,7.241c-0.691,0.206-1.369,0.494-2.026,0.903c-2.295,1.426-6.761,6.674-9.27,1.834
	c-0.501-0.971-1.965-0.113-1.466,0.854c1.148,2.211,4.031,3.005,6.385,2.486c1.358-0.295,2.215-0.883,3.237-1.806
	c1.292-1.166,1.81-2.065,3.703-2.746c0.17-0.061,0.362-0.081,0.541-0.125c1.102,1.364,2.254,2.725,3.525,4.085
	c1.168,1.256,2.34,2.5,3.501,3.747c-0.157,0.114-0.315,0.215-0.47,0.356c-0.624,0.579-0.862,1.64-1.112,2.413
	c-1.049,3.191-4.104,3.903-7.052,3.15c-1.057-0.271-1.507,1.361-0.449,1.637c2.702,0.691,5.072,0.438,7.285-1.309
	c0.942-0.741,1.442-1.944,1.849-3.029c0.33-0.875,0.773-1.405,1.286-1.749c1.958,2.138,3.868,4.313,5.64,6.605
	c-0.539,0.105-1.084,0.267-1.645,0.525c-1.302,0.601-2.235,1.896-3.152,2.937c-1.555,1.77-3.25,2.321-5.572,2.264
	c-1.096-0.028-1.092,1.668,0,1.696c2.037,0.049,4.023-0.23,5.607-1.64c1.059-0.948,1.919-2.053,2.919-3.047
	c0.883-0.871,1.903-1.186,2.958-1.194c0.78,1.073,1.567,2.143,2.276,3.28c0.865,1.389,1.631,2.831,2.351,4.3
	c-0.693,0.029-1.333,0.163-1.851,0.482c-1.19,0.746-1.548,1.479-1.869,2.831c-0.294,1.247-2.46,5.929-4.262,4.272
	c-0.8-0.737-2.005,0.457-1.194,1.198c2.5,2.305,4.853-0.521,6.147-2.722c1.096-1.867,0.999-4.342,3.817-4.162
	c0.038,0.004,0.076,0.012,0.115,0.016c1.215,2.656,2.326,5.377,3.541,8.043c-0.728,0.037-1.455,0.203-1.997,0.515
	c-2.811,1.604-4.05,5.539-7.293,6.312c-1.065,0.255-0.611,1.887,0.447,1.632c2.645-0.627,4.027-2.858,5.688-4.823
	c1.284-1.518,2.604-1.887,4.084-1.68c0.458,0.935,0.93,1.862,1.439,2.769c1.094,1.948,2.358,3.625,3.76,5.07
	c-0.888,0.146-1.773,0.409-2.651,0.839c-1.694,0.825-3.223,1.863-4.695,3.028c-0.707,0.559-2.146,1.884-2.167,1.859
	c-0.704-0.834-1.897,0.369-1.194,1.198c0.008,0.013,0.021,0.02,0.033,0.029c0.117,0.331,0.429,0.659,0.818,0.623
	c1.782-0.166,3.626-2.47,4.991-3.467c2.091-1.526,4.292-2.482,6.627-2.485c2.377,2.001,5.064,3.494,7.96,4.62
	c-1.686,3.581-3.829,7.918-6.425,6.894c-1.017-0.405-1.452,1.23-0.449,1.628c4.115,1.632,6.436-3.917,8.344-7.99
	c3.848,1.323,8.001,2.113,12.214,2.729c0.218,0.033,0.423,0.068,0.64,0.103c-1.811,4.251-3.317,9.901-7.749,8.612
	c-1.053-0.308-1.498,1.332-0.452,1.637c6.329,1.838,7.415-5.338,9.733-10.007c3.769,0.587,7.396,1.246,10.914,2.017
	c-2.486,2.51-3.599,6.864-6.724,8.982c-0.896,0.611-0.048,2.077,0.856,1.462c3.382-2.293,4.566-7.999,8.005-9.958
	c4.337,1.024,8.555,2.231,12.725,3.75c-0.51,0.587-0.938,1.297-1.28,2.146c-0.699,1.737-1.184,3.556-2.132,5.184
	c-1.952,3.357-7.148,2.965-10.4,2.952c-1.091-0.004-1.091,1.693,0,1.693c4.287,0.02,8-0.105,11.335-3.07
	c2.335-2.078,1.944-6.414,4.188-8.237c3.1,1.19,6.196,2.543,9.32,4.119c-0.493,0.547-0.951,1.166-1.385,1.851
	c-2.444,3.862-4.007,7.316-8.994,8.196c-1.075,0.187-0.618,1.823,0.452,1.632c3.531-0.623,5.983-2.45,7.922-5.415
	c1.251-1.899,2.205-3.925,3.625-5.41c0.905,0.474,1.805,0.916,2.72,1.43c2.426,1.364,4.876,2.576,7.338,3.713
	c-0.282,0.349-0.586,0.681-0.922,0.993c-1.198,1.105-2.826,1.806-4.25,2.562c-2.422,1.284-4.283,2.924-4.229,5.827
	c0.02,1.098,1.717,1.098,1.695,0c-0.067-3.51,4.087-4.604,6.568-6.143c1.097-0.681,1.96-1.543,2.703-2.515
	c3.401,1.506,6.833,2.826,10.296,3.96c-1.369,1.292-2.943,2.188-5.226,2.608c-2.418,0.449-4.386,0.96-5.467,3.362
	c-0.443,0.987,1.015,1.846,1.464,0.85c1.292-2.859,5.293-2.53,7.873-3.628c1.335-0.567,2.376-1.523,3.294-2.604
	c2.492,0.77,4.995,1.47,7.517,2.082c-0.518,1.117-0.974,2.267-1.496,3.393c-1.469,3.195-3.594,4.095-6.959,2.907
	c-1.033-0.368-1.475,1.272-0.451,1.633c2.804,0.988,5.756,1,7.657-1.596c1.312-1.802,1.966-3.959,2.915-5.956
	c3.07,0.701,6.16,1.308,9.272,1.818c-0.212,1.802,0.181,3.859-0.376,5.823c-0.521,1.834-6.858,8.969-8.343,6.01
	c-0.488-0.977-1.948-0.117-1.461,0.859c1.919,3.834,6.372-0.054,8.222-1.9c1.285-1.287,2.54-2.814,3.216-4.52
	c0.74-1.867,0.012-4.166,0.334-6.033c3.523,0.543,7.072,0.983,10.647,1.344c-0.792,0.854-1.489,1.798-1.993,2.993
	c-1.075,2.556,0.979,8.585-2.742,8.82c-1.089,0.064-1.093,1.762,0,1.692c2.732-0.169,3.924-1.619,4.007-4.297
	c0.057-1.733-0.321-3.325,0.13-5.041c0.438-1.676,1.47-2.9,2.7-3.957c3.328,0.305,6.678,0.547,10.048,0.745
	c-1.912,3.312-4.612,6.127-6.319,9.578c-0.481,0.979,0.982,1.834,1.47,0.854c1.831-3.709,4.817-6.674,6.729-10.321
	c2.864,0.158,5.74,0.295,8.632,0.413c-1.72,3.539-3.675,8.013-6.92,10.164c-0.905,0.603-0.057,2.068,0.857,1.462
	c3.799-2.515,5.937-7.609,7.906-11.549c1.386,0.052,2.77,0.104,4.161,0.157c2.264,0.085,4.497,0.159,6.716,0.223
	c-3.596,3.734-7.212,7.071-12.013,9.424c-0.979,0.486-0.119,1.943,0.855,1.466c5.42-2.661,9.364-6.523,13.438-10.825
	c4.691,0.122,9.295,0.166,13.839,0.09c-2.592,3.073-5.164,6.297-9.001,7.775c-1.006,0.385-0.571,2.024,0.451,1.632
	c4.72-1.815,7.597-5.804,10.821-9.455c3.85-0.106,7.659-0.316,11.439-0.656c-2.828,2.493-5.064,5.682-8.506,7.431
	c-0.972,0.498-0.115,1.96,0.858,1.466c4.379-2.227,6.819-6.763,10.98-9.236c6.222-0.702,12.393-1.818,18.587-3.5
	c-5.645,4.29-11.911,7.725-17.321,12.344c-0.83,0.718,0.374,1.907,1.2,1.198c6.381-5.445,13.958-9.249,20.292-14.756
	c4.011-1.26,8.04-2.742,12.107-4.557c0.191-0.084,0.375-0.178,0.565-0.263c-0.739,5.751-1.275,12.181-4.781,16.499
	c-0.681,0.838,0.509,2.044,1.203,1.193c4.05-4.988,4.437-12.176,5.369-18.535c4.155-1.973,8.143-4.191,11.916-6.662
	c-0.221,1.162-0.39,2.35-0.467,3.594c-0.397,6.637-0.655,11.152-6.925,14.998c-0.931,0.572-0.075,2.043,0.858,1.467
	c3.76-2.309,6.331-5.021,7.291-9.416c0.928-4.228,0.491-8.188,1.441-12.137c3.102-2.167,6.062-4.49,8.816-7.018
	c1.617,5.733,4,12.938,0.054,15.805c-0.876,0.632-0.032,2.105,0.851,1.466c5.413-3.927,2.011-12.176,0.385-18.519
	c2.88-2.762,5.541-5.726,7.938-8.9c0.31,0.64,0.648,1.287,1.027,1.955c3.432,6.091,2.381,11.772,0.331,18.102
	c-0.336,1.042,1.298,1.482,1.636,0.45c1.311-4.059,2.938-8.966,1.936-13.287c-0.741-3.195-2.538-5.912-3.742-8.84
	c2.221-3.123,4.188-6.443,5.89-9.955c2.578,3.123,6.532,6.549,3.783,10.712c-0.6,0.915,0.865,1.762,1.467,0.854
	c3.554-5.39-1.427-9.034-4.45-13.233c1.258-2.786,2.355-5.683,3.252-8.703c0.149-0.507,0.268-1.021,0.407-1.531
	c3.239,2.15,7.096,3.507,10.555,5.313c0.968,0.506,1.823-0.959,0.854-1.466c-3.543-1.848-7.663-3.208-10.953-5.572
	c1.116-4.536,1.797-9.201,2.049-13.902c4.797,1.627,9.768,2.757,14.455,4.742c0.993,0.421,1.86-1.037,0.854-1.467
	c-4.938-2.086-10.202-3.24-15.24-5.021c0.175-5.596-0.256-11.221-1.284-16.732c7.146,2.117,14.646,2.64,21.9,4.47
	C464.899,415.537,465.352,413.901,464.288,413.634z"/>
<path fill="none" stroke="#000000" stroke-width="2" d="M469.186,380.491c-0.676,5.637-2.764,10.26-6.255,13.863
	c-3.498,3.604-7.438,5.859-11.835,6.763c-4.396,0.898-8.622,0.339-12.679-1.69c-4.059-2.028-6.99-5.976-8.792-11.834
	c-1.131-3.831-1.859-7.999-2.198-12.511c-0.338-4.506-0.454-8.96-0.338-13.355c0.111-4.396,0.28-8.622,0.508-12.68
	c0.221-4.058,0.338-7.438,0.338-10.143c0-6.536-0.059-12.96-0.169-19.273c-0.116-6.308-0.169-12.732-0.169-19.272
	c-11.047-10.593-21.133-21.809-30.262-33.644c-9.129-11.834-17.302-24.513-24.515-38.039c-2.256-4.058-4.396-8.505-6.423-13.356
	c-2.029-4.844-3.159-9.636-3.382-14.37c-1.131-4.28-0.676-8.167,1.353-11.665c2.029-3.492,4.786-6.197,8.284-8.115
	c3.492-1.913,7.322-2.816,11.496-2.705c4.169,0.116,7.945,1.521,11.327,4.227c2.478,2.029,4.506,4.396,6.086,7.1
	c1.574,2.705,2.927,5.579,4.058,8.622c1.125,3.043,2.198,6.145,3.212,9.298c1.015,3.16,2.309,6.086,3.889,8.791
	c4.733,8.569,9.975,16.516,15.723,23.837c5.748,7.328,11.888,14.598,18.427,21.809c5.859-7.887,12.173-15.268,18.935-22.147
	c6.763-6.874,12.96-14.254,18.598-22.147c1.125-1.801,2.815-4.564,5.071-8.284c2.25-3.72,4.617-7.607,7.101-11.665
	c2.479-4.058,5.072-7.83,7.777-11.327c2.705-3.492,5.071-5.801,7.101-6.932c3.604-2.25,7.27-3.265,10.988-3.043
	c3.72,0.228,7.102,1.353,10.145,3.381c3.043,2.029,5.463,4.792,7.27,8.284c1.801,3.498,2.478,7.27,2.028,11.327
	c-0.454,4.284-2.426,9.467-5.917,15.553c-3.498,6.086-7.556,12.289-12.173,18.597c-4.623,6.313-9.298,12.289-14.032,17.92
	c-4.733,5.637-8.453,10.144-11.158,13.525c-2.256,2.705-4.453,5.357-6.593,7.946c-2.146,2.593-4.343,5.13-6.593,7.608
	c-2.933,3.381-5.749,6.762-8.453,10.144c-2.705,3.381-5.41,6.763-8.115,10.144c0,12.848,0,25.697,0,38.545
	s0.111,25.697,0.338,38.545V380.491L469.186,380.491z"/>
</svg>
