<?xml version="1.0" encoding="utf-8"?>
<!-- Generator: Adobe Illustrator 16.0.0, SVG Export Plug-In . SVG Version: 6.00 Build 0)  -->
<!DOCTYPE svg PUBLIC "-//W3C//DTD SVG 1.1//EN" "http://www.w3.org/Graphics/SVG/1.1/DTD/svg11.dtd">
<svg version="1.1" id="Layer_1" xmlns="http://www.w3.org/2000/svg" xmlns:xlink="http://www.w3.org/1999/xlink" x="0px" y="0px"
	 width="612px" height="612px" viewBox="0 90 612 612" enable-background="new 0 90 612 612" xml:space="preserve">
<path fill="none" stroke="#231F20" stroke-width="2" stroke-miterlimit="10" d="M305.917,524.919
	c-32.279,17.819-77.163,13.271-109.227,0.451c-3.96-1.583-7.727-3.401-11.258-5.436c-4.641-6.825-7.462-15.04-7.741-24.738
	c-0.767-26.491,2.277-48.148,28.612-61.083c39.626-19.459,102.293-17.748,110.129,34.377
	C319.481,488.788,318.322,509.788,305.917,524.919z"/>
<path fill="none" stroke="#231F20" stroke-width="2" stroke-miterlimit="10" d="M196.392,331.528
	c-14.241-11.041-9.099-33.478,5.01-42.358c16.243-10.224,38.177,7.261,36.573,24.885c-1.212,13.317-11.727,23.281-25.255,22.794
	C205.753,336.598,200.354,334.6,196.392,331.528z"/>
<path fill="none" stroke="#231F20" stroke-width="2" stroke-miterlimit="10" d="M216.402,298.47
	c12.571-4.778,23.546,8.893,16.074,20.137c-6.647,10-23.356,6.818-24.202-5.693C207.848,306.635,210.124,300.856,216.402,298.47z"/>
<path fill="none" stroke="#231F20" stroke-width="2" stroke-miterlimit="10" d="M224.961,306.316
	c2.571-3.64,8.849-1.797,8.836,2.791c-0.009,3.672-3.435,6.702-6.625,4.732C224.515,312.2,222.962,309.147,224.961,306.316z"/>
<path fill="none" stroke="#231F20" stroke-width="2" stroke-miterlimit="10" d="M262.114,330.617
	c-14.948-13.323-7.54-37.805,8.776-46.576c18.785-10.099,41.77,10.954,38.65,30.369c-2.356,14.671-14.771,24.916-29.73,23.347
	C272.106,336.949,266.272,334.323,262.114,330.617z"/>
<path fill="none" stroke="#231F20" stroke-width="2" stroke-miterlimit="10" d="M286.812,295.493
	c14.299-4.341,25.426,11.648,16.286,23.544c-8.129,10.581-26.41,5.782-26.396-8.15C276.708,303.893,279.67,297.66,286.812,295.493z"
	/>
<path fill="none" stroke="#231F20" stroke-width="2" stroke-miterlimit="10" d="M295.702,304.841
	c3.128-3.839,9.948-1.317,9.585,3.766c-0.291,4.071-4.318,7.167-7.705,4.742C294.761,311.329,293.272,307.827,295.702,304.841z"/>
<path fill="none" stroke="#231F20" stroke-width="2" stroke-miterlimit="10" d="M318.472,384.395
	c3.019-41.137-156.837-54.634-140.332-6.23c8.026,23.53,61.387,37.006,73.178,12.012
	C263.108,407.141,317.08,403.368,318.472,384.395z"/>
<path fill="none" stroke="#231F20" stroke-width="2" stroke-miterlimit="10" d="M186.492,380.52
	c8.066,6.667,35.281,6.524,23.656-9.732C202.805,360.518,173.019,369.382,186.492,380.52z"/>
<path fill="none" stroke="#231F20" stroke-width="2" stroke-miterlimit="10" d="M282.566,385.118
	c8.338,6.89,36.468,6.744,24.453-10.06C299.428,364.443,268.64,373.605,282.566,385.118z"/>
<path fill="none" stroke="#231F20" stroke-width="2" stroke-miterlimit="10" d="M233.325,375.204l34.264-2.104
	C267.588,373.099,253.456,408.119,233.325,375.204z"/>
<path fill="none" stroke="#000000" stroke-width="2" d="M56.948,596.172c-7.718,0-0.976-7.612,0.529-9.963
	c4.466-5.598,9.58-10.623,14.739-15.574c-2.218,0.068-23.575,1.869-18.058-4.981c2.978-3.702,17.931-1.31,22.286-1.442
	c5.607-0.166,11.641,1.869,5.403,6.896c-6.749,5.241-12.697,11.697-18.087,18.301c3.883,0.1,21.951-1.933,22.609,2.15
	C87.538,598.906,61.146,595.498,56.948,596.172C56.321,596.172,58.905,595.857,56.948,596.172z"/>
<path fill="none" stroke="#000000" stroke-width="2" d="M115.203,592.659c1.441,4.676-4.769,4.676-6.812,2.098
	c-3.467,2.321-8.151,2.632-12.097,1.441c-10.27-3.096-7.498-15.845-0.958-21.3c5.128-4.277,17.048-7.298,17.048,2.134
	C112.384,583.234,112.257,587.269,115.203,592.659z"/>
<path fill="none" stroke="#000000" stroke-width="2" d="M102.753,590.299c4.574-2.592,2.142-8.036,2.349-13.005
	C96.629,578.643,93.944,593.446,102.753,590.299C103.184,590.056,102.166,590.509,102.753,590.299z"/>
<path fill="none" stroke="#000000" stroke-width="2" d="M127.593,591.715c5.85,4.753-7.634,8.497-7.634-0.596
	c0-6.893,0-13.785,0-20.679c0-2.148,0-4.297,0-6.444c0-4.062,7.165-4.082,7.165-0.389
	C127.124,571.706,124.865,584.594,127.593,591.715z"/>
<path fill="none" stroke="#000000" stroke-width="2" d="M132.996,582.434c3.657-13.557,24.851-15.712,25.164,0.707
	C158.492,601.645,127.793,601.575,132.996,582.434z"/>
<path fill="none" stroke="#000000" stroke-width="2" d="M140.043,583.534c-1.779,8.483,7.531,9.802,10.453,2.374
	C154.009,576.975,142.894,575.158,140.043,583.534C139.926,584.095,140.316,582.731,140.043,583.534z"/>
<path fill="none" stroke="#000000" stroke-width="2" d="M163.179,573.414c0.712-2.185,3.129-3.294,5.227-2.359
	c2.714,1.216,1.256,1.021,4.229,0.263c4.89-1.16,9.862,0.517,12.677,4.775c7.607,11.507-4.292,20.312-15.027,19.608
	c0,2.455,0.348,19.44-6.43,11.93c-1.772-1.961-0.734-7.504-0.734-9.744C163.121,589.752,162.804,581.533,163.179,573.414z"/>
<path fill="none" stroke="#000000" stroke-width="2" d="M170.696,580.23c-1.715,2.559-1.429,9.229,1.938,9.229
	C185.608,589.46,179.177,571.394,170.696,580.23C170.579,580.406,171.166,579.741,170.696,580.23z"/>
<path fill="none" stroke="#000000" stroke-width="2" d="M198.119,596.041c-8.062,5.208-5.637-17.7-5.637-20.512
	c0-3.704,0-7.408,0-11.113c0-2.951,5.166-4.666,6.679-2.027c1.646,2.871,0.555,8.675,0.485,11.864
	c8.345-5.032,16.733,0.473,17.492,9.609c0.264,3.176-0.051,6.354-0.051,9.531c0,6.45-7.812,2.818-7.487-3.068
	c0.203-3.701,1.603-9.233-2.378-11.511c-3.627-0.486-5.272,2.718-7.576,4.772C198.406,586.92,201.832,593.635,198.119,596.041
	C197.336,596.548,198.902,595.534,198.119,596.041z"/>
<path fill="none" stroke="#000000" stroke-width="2" d="M247.33,590.876c3.588,4.632-3.892,6.039-6.812,2.308
	c-4.82,3.534-11.543,3.854-15.812-0.767c-3.872-4.192-3.271-10.166-2.921-15.437c0.148-1.751-0.082-3.462,1.292-4.825
	c1.742-1.684,5.763-0.742,5.931,1.94c0.174,3.965-2.292,13.128,2.584,15.208c7.338,2.85,6.235-7.333,6.342-10.646
	c0-3.38,4.898-11.765,7.341-5.244C247.352,578.991,242.99,585.41,247.33,590.876C247.682,591.331,246.664,590.037,247.33,590.876z"
	/>
<path fill="none" stroke="#000000" stroke-width="2" d="M251.379,591.452c-2.544-6.437,4.917-3.908,7.399-2.255
	c1.343,0.918,5.597,2.781,6.459,0.21c1.166-3.465-5.219-3.709-7.208-4.477c-15.893-6.134,4.873-23.498,12.435-12.251
	c4.845,7.217-8.562,3.058-10.042,3.565c-4.735,1.064,9.605,6.412,9.755,6.556c5.536,5.271,0.503,13.588-6.114,14.264
	C259.321,597.473,254.322,595.131,251.379,591.452z"/>
<path fill="none" stroke="#000000" stroke-width="2" d="M314.801,588.411c1.96-1.12,5.674-1.08,5.902,1.967
	c0.271,3.598-5.019,5.55-7.679,6.03c-5.776,1.043-12.254-2.262-13.667-8.207c-2.449-9.831,5.472-20.205,15.833-17.769
	c2.556,0.6,10.329,4.29,5.66,7.701c-3.415,2.492-5.741-2.034-9.072-1.704C301.83,577.415,306.416,596.164,314.801,588.411z"/>
<path fill="none" stroke="#000000" stroke-width="2" d="M349.8,592.659c1.442,4.677-4.769,4.674-6.812,2.098
	c-3.467,2.321-8.151,2.632-12.097,1.441c-10.271-3.096-7.498-15.845-0.958-21.3c5.13-4.277,17.048-7.298,17.048,2.134
	C346.981,583.234,346.855,587.268,349.8,592.659z"/>
<path fill="none" stroke="#000000" stroke-width="2" d="M337.351,590.299c4.574-2.592,2.142-8.037,2.35-13.005
	C331.226,578.643,328.544,593.447,337.351,590.299C337.781,590.056,336.764,590.509,337.351,590.299z"/>
<path fill="none" stroke="#000000" stroke-width="2" d="M362.19,591.715c5.85,4.753-7.635,8.498-7.635-0.596
	c0-6.893,0-13.785,0-20.679c0-2.148,0-4.297,0-6.444c0-4.062,7.165-4.082,7.165-0.389
	C361.722,571.705,359.461,584.597,362.19,591.715z"/>
<path fill="none" stroke="#000000" stroke-width="2" d="M368.475,563.66c0.693-5.747,9.873-3.954,7.847,1.476
	C374.834,569.12,368.959,567.432,368.475,563.66z"/>
<path fill="none" stroke="#000000" stroke-width="2" d="M376.226,593.498c-0.644,5.712-7.459,2.888-7.252-1.914
	c0.23-5.693-1.559-13.18-0.03-18.642c0.59-1.9,2.629-3.036,4.552-2.622c3.333,0.722,2.614,5.065,2.614,7.446
	C376.109,583.011,376.226,588.253,376.226,593.498z"/>
<path fill="none" stroke="#000000" stroke-width="2" d="M390.79,595.596c-6.527,7.164-6.225-7.632-6.225-9.787
	c0-1.637,0.58-4.546,0-6.103c-1.924,0-3.971-1.54-3.7-3.644c0.591-4.609,3.66-0.031,3.554-5.899
	c-0.096-4.938,2.076-9.457,7.127-10.764c3.201-0.828,10.33-0.431,11.636,3.5c1.614,4.887-5.079,3.562-7.341,2.754
	c-4.907-1.743-4.11,4.688-4.11,7.499c2.65-0.157,8.354-1.245,9.219,2.49c1.061,4.571-6.833,3.959-9.219,3.959
	C391.729,583.464,393.598,592.505,390.79,595.596C390.281,596.154,391.298,595.036,390.79,595.596z"/>
<path fill="none" stroke="#000000" stroke-width="2" d="M401.713,582.434c3.659-13.552,24.859-15.717,25.163,0.707
	C427.218,601.642,396.51,601.579,401.713,582.434z"/>
<path fill="none" stroke="#000000" stroke-width="2" d="M408.76,583.534c-1.774,8.483,7.53,9.802,10.453,2.374
	C422.727,576.975,411.613,575.16,408.76,583.534C408.643,584.095,409.033,582.731,408.76,583.534z"/>
<path fill="none" stroke="#000000" stroke-width="2" d="M432.248,578.789c0.277-1.647-4.89-9.103,2.613-7.158
	c3.2,0.833,2.67,0.945,5.844-0.42c2.075-0.89,4.343-1.251,6.577-0.838c4.654,0.857,8.717,9.11,1.938,8.049
	c-1.979-0.31-9.865-3.953-9.865,1.81c0,2.28,1.225,22.948-6.313,15.521C430.478,593.228,431.696,581.976,432.248,578.789
	C432.287,578.562,432.209,579.017,432.248,578.789z"/>
<path fill="none" stroke="#000000" stroke-width="2" d="M479.638,593.604c-0.366,2.729-4.315,4.572-6.255,2.241
	c-1.965-2.361-0.917-7.182-0.903-9.996c0.01-1.854,0.777-7.111-0.359-8.633c-2.059-2.744-8.456,2.771-8.456,5.271
	c-0.702,2.518-0.1,6.412,0.059,9.071c0.416,7.106-7.164,5.654-7.164-0.943c0-5.523-0.059-11.048-0.059-16.571
	c0-3.552,4.949-3.729,6.636-1.415c3.696-2.146,8.899-2.965,12.772-0.773C481.955,575.276,479.638,587.858,479.638,593.604z"/>
<path fill="none" stroke="#000000" stroke-width="2" d="M485.626,563.66c0.693-5.747,9.874-3.954,7.848,1.476
	C491.985,569.12,486.111,567.432,485.626,563.66z"/>
<path fill="none" stroke="#000000" stroke-width="2" d="M493.378,593.498c-0.644,5.712-7.459,2.888-7.252-1.914
	c0.23-5.693-1.56-13.18-0.03-18.642c0.59-1.9,2.629-3.036,4.552-2.622c3.333,0.722,2.613,5.065,2.613,7.446
	C493.261,583.011,493.378,588.253,493.378,593.498z"/>
<path fill="none" stroke="#000000" stroke-width="2" d="M514.577,588.411c1.96-1.119,5.675-1.081,5.902,1.967
	c0.269,3.599-5.017,5.549-7.678,6.03c-5.777,1.043-12.254-2.261-13.668-8.207c-2.448-9.831,5.472-20.205,15.832-17.769
	c2.556,0.6,10.329,4.291,5.661,7.701c-3.415,2.492-5.742-2.034-9.073-1.704C501.606,577.416,506.193,596.164,514.577,588.411z"/>
<path fill="none" stroke="#000000" stroke-width="2" d="M551.338,590.876c3.588,4.628-3.89,6.042-6.812,2.308
	c-4.82,3.534-11.543,3.854-15.812-0.767c-3.873-4.192-3.271-10.166-2.921-15.437c0.147-1.751-0.081-3.462,1.291-4.825
	c1.742-1.684,5.764-0.742,5.931,1.94c0.174,3.965-2.29,13.127,2.584,15.208c7.339,2.849,6.235-7.332,6.342-10.646
	c0-3.379,4.902-11.766,7.341-5.244C551.359,578.991,547,585.409,551.338,590.876C551.69,591.331,550.672,590.037,551.338,590.876z"
	/>
<path fill="none" stroke="#000000" stroke-width="2" d="M555.389,591.452c-2.544-6.436,4.916-3.91,7.399-2.255
	c1.342,0.918,5.599,2.782,6.46,0.21c1.168-3.464-5.221-3.709-7.208-4.477c-15.894-6.134,4.873-23.498,12.435-12.251
	c4.844,7.217-8.562,3.058-10.042,3.565c-4.734,1.062,9.606,6.413,9.756,6.556c5.535,5.271,0.503,13.588-6.115,14.264
	C563.331,597.473,558.332,595.131,555.389,591.452z"/>
<path fill="none" stroke="#000000" stroke-width="2" d="M129.076,645.911c2.417,4.167-2.916,5.092-5.396,3.032
	c-3.235-2.685-5.147-7.464-6.134-11.399c-1.776-7.083-0.597-23.373,8.11-26.27c6.042-2.008,1.93,5.548,0.862,7.032
	c-1.938,3.062-3.012,5.715-3.495,9.385C122.159,634.226,123.436,641.843,129.076,645.911z"/>
<path fill="none" stroke="#000000" stroke-width="2" d="M144.926,637.208c5.432-3.104,5.806,4.137,0.689,6.065
	c-4.026,1.633-8.86,0.676-11.765-2.615c-7.644-8.647,2.862-21.668,13.02-18.043c2.066,0.738,6.316,3.646,3.125,5.978
	c-2.937,2.147-4.358-1.775-6.94-1.493C134.179,627.293,137.748,643.896,144.926,637.208z"/>
<path fill="none" stroke="#000000" stroke-width="2" d="M174.264,640.769c0.423,1.607-0.127,2.685-1.649,3.23
	c-0.698-0.022-1.395-0.044-2.092-0.066c-1.395-1.866-2.945-1.901-4.652-0.11c-2.934,0.839-6.568,0.62-9.272-0.829
	c-7.121-3.813-3.542-13.667,1.52-17.517c4.409-3.353,13.783-5.417,13.783,2.193C171.901,632.513,171.451,636.621,174.264,640.769z"
	/>
<path fill="none" stroke="#000000" stroke-width="2" d="M163.828,638.79c3.834-2.173,1.795-6.735,1.969-10.9
	C158.688,629.021,156.454,641.432,163.828,638.79C164.189,638.586,163.336,638.967,163.828,638.79z"/>
<path fill="none" stroke="#000000" stroke-width="2" d="M184.65,639.977c5.215,4.244-6.399,7.295-6.399,0.486
	c0-5.996,0-11.992,0-17.988c0-1.898,0-3.795,0-5.691c0-3.433,6.005-3.484,6.005-0.367
	C184.256,623.284,182.425,633.901,184.65,639.977z"/>
<path fill="none" stroke="#000000" stroke-width="2" d="M189.917,616.46c0.468-3.88,6.604-4.166,6.744-0.088
	C196.937,620.577,190.434,620.482,189.917,616.46z"/>
<path fill="none" stroke="#000000" stroke-width="2" d="M196.415,641.472c-0.446,3.958-5.763,3.163-6.054-0.418
	c-0.404-4.86,0.469-9.832-0.197-14.681c-0.762-5.564,6.153-5.563,6.153,0.418C196.316,631.685,196.415,636.577,196.415,641.472z"/>
<path fill="none" stroke="#000000" stroke-width="2" d="M208.623,643.23c-5.824,6.382-5.218-8.312-5.218-9.845
	c0-4.619-0.979-1.655-2.831-5.079c-0.742-1.367,0.115-3.119,1.576-3.516c2.317-0.633,0.939-3.306,1.354-5.518
	c1.125-7.881,16.85-8.448,15.58-2.263c-1.326,6.36-9.672-4.181-9.672,7.406c9.126-0.532,9.283,5.407,0,5.407
	C209.411,633.063,210.981,640.634,208.623,643.23C208.196,643.698,209.049,642.761,208.623,643.23z"/>
<path fill="none" stroke="#000000" stroke-width="2" d="M217.778,632.196c3.622-13.421,24.309-11.532,20.772,3.385
	C235.346,649.032,213.853,646.639,217.778,632.196z"/>
<path fill="none" stroke="#000000" stroke-width="2" d="M223.686,633.12c-1.49,7.11,6.313,8.215,8.761,1.989
	C235.392,627.621,226.073,626.099,223.686,633.12C223.587,633.59,223.915,632.446,223.686,633.12z"/>
<path fill="none" stroke="#000000" stroke-width="2" d="M243.374,629.142c0.222-1.312-4.555-7.749,2.19-6
	c4.671,1.217,9.854-3.631,14.497,1.033c3.083,3.099-1.893,6.005-4.75,3.43c-1.917-1.701-5.98,1.703-5.98,3.692
	c0,1.776,0.977,18.246-5.292,12.064C241.883,641.238,242.909,631.813,243.374,629.142
	C243.406,628.951,243.341,629.333,243.374,629.142z"/>
<path fill="none" stroke="#000000" stroke-width="2" d="M283.097,641.56c-0.377,2.808-4.712,3.966-5.759,0.923
	c-1.007-2.796-0.253-6.847-0.222-9.779c0.011-1.084,0.404-4.255-0.517-5.078c-2.538-0.59-6.892,1.646-6.892,4.616
	c-0.845,2.756,0.42,6.356-0.024,9.23c-0.857,5.499-5.932,1.243-5.932-2.417c0-4.63-0.05-9.26-0.05-13.89
	c0-2.978,4.149-3.127,5.562-1.188c2.586-1.5,5.857-2.144,8.787-1.406C285.325,624.407,283.097,635.978,283.097,641.56z"/>
<path fill="none" stroke="#000000" stroke-width="2" d="M288.117,616.46c0.468-3.88,6.604-4.166,6.744-0.088
	C295.137,620.577,288.634,620.482,288.117,616.46z"/>
<path fill="none" stroke="#000000" stroke-width="2" d="M294.615,641.472c-0.446,3.958-5.762,3.163-6.054-0.418
	c-0.404-4.86,0.469-9.832-0.197-14.681c-0.762-5.564,6.153-5.563,6.153,0.418C294.517,631.685,294.615,636.577,294.615,641.472z"/>
<path fill="none" stroke="#000000" stroke-width="2" d="M320.506,640.769c0.423,1.607-0.126,2.685-1.647,3.23
	c-0.698-0.022-1.396-0.044-2.093-0.066c-1.395-1.866-2.945-1.901-4.651-0.11c-2.935,0.839-6.568,0.62-9.273-0.829
	c-7.121-3.813-3.542-13.667,1.52-17.517c4.409-3.353,13.783-5.417,13.783,2.193C318.145,632.513,317.693,636.621,320.506,640.769z"
	/>
<path fill="none" stroke="#000000" stroke-width="2" d="M310.071,638.79c3.835-2.171,1.795-6.736,1.969-10.9
	C304.933,629.021,302.694,641.431,310.071,638.79C310.432,638.586,309.579,638.967,310.071,638.79z"/>
<path fill="none" stroke="#000000" stroke-width="2" d="M341.229,639.757c-1.585-4,3.198-4.642,5.438-2.505
	c1.691,1.613,8.756,2.036,5.883-0.967c-3.558-3.174-12.904-1.812-10.362-9.803c1.823-5.754,8.683-5.581,13.266-3.824
	c1.71,0.701,3.328,3.04,1.649,4.703c-1.732,1.722-4.762-0.263-6.62-0.461c-6.22-0.657,1.502,3.353,3.101,3.846
	C366.275,634.675,352.046,652.879,341.229,639.757z"/>
<path fill="none" stroke="#000000" stroke-width="2" d="M380.362,636.812c4.383-0.979,4.938,3.546,1.329,5.23
	c-3.215,1.495-7.2,2.51-10.755,1.934c-7.523-1.224-11.814-11.251-6.228-17.164c4.047-4.285,14.107-6.759,17.652-0.589
	c4.515,7.857-8.611,9.907-13.123,11.204C372.182,640.433,377.317,638.474,380.362,636.812z"/>
<path fill="none" stroke="#000000" stroke-width="2" d="M370.419,629.252c-1.525,0.802-2.347,2.076-2.461,3.824
	c1.518-0.418,10.223-1.572,9.181-4.374C376.394,626.709,371.649,628.521,370.419,629.252z"/>
<path fill="none" stroke="#000000" stroke-width="2" d="M408.42,640.769c0.423,1.607-0.127,2.685-1.648,3.23
	c-0.698-0.022-1.395-0.044-2.093-0.066c-1.394-1.866-2.944-1.901-4.651-0.11c-2.935,0.84-6.568,0.62-9.273-0.829
	c-7.12-3.813-3.54-13.668,1.521-17.517c4.409-3.354,13.782-5.417,13.782,2.193C406.057,632.513,405.606,636.621,408.42,640.769z"/>
<path fill="none" stroke="#000000" stroke-width="2" d="M397.984,638.79c3.834-2.171,1.796-6.736,1.969-10.9
	C392.846,629.021,390.607,641.431,397.984,638.79C398.346,638.586,397.491,638.967,397.984,638.79z"/>
<path fill="none" stroke="#000000" stroke-width="2" d="M437.608,639.977c5.215,4.246-6.398,7.293-6.398,0.486
	c0-5.996,0-11.992,0-17.988c0-1.898,0-3.795,0-5.691c0-3.433,6.005-3.484,6.005-0.367
	C437.215,623.284,435.384,633.899,437.608,639.977z"/>
<path fill="none" stroke="#000000" stroke-width="2" d="M442.876,616.46c0.469-3.879,6.604-4.167,6.744-0.088
	C449.895,620.578,443.393,620.482,442.876,616.46z"/>
<path fill="none" stroke="#000000" stroke-width="2" d="M449.374,641.472c-0.447,3.958-5.762,3.163-6.055-0.418
	c-0.411-4.86,0.469-9.831-0.197-14.681c-0.765-5.562,6.153-5.564,6.153,0.418C449.274,631.685,449.374,636.577,449.374,641.472z"/>
<path fill="none" stroke="#000000" stroke-width="2" d="M454,632.196c3.627-13.419,24.305-11.534,20.772,3.385
	C471.564,649.031,450.074,646.64,454,632.196z"/>
<path fill="none" stroke="#000000" stroke-width="2" d="M459.907,633.12c-1.495,7.11,6.313,8.214,8.761,1.989
	C471.612,627.621,462.292,626.097,459.907,633.12C459.809,633.59,460.136,632.446,459.907,633.12z"/>
<path fill="none" stroke="#000000" stroke-width="2" d="M498.302,641.56c-0.378,2.808-4.712,3.966-5.76,0.923
	c-1.007-2.795-0.254-6.847-0.221-9.779c0.012-1.082,0.404-4.257-0.518-5.078c-2.538-0.59-6.892,1.646-6.892,4.616
	c-0.844,2.755,0.419,6.356-0.024,9.23c-0.86,5.499-5.932,1.243-5.932-2.417c0-4.63-0.049-9.26-0.049-13.89
	c0-2.978,4.148-3.127,5.562-1.188c2.586-1.5,5.857-2.144,8.786-1.406C500.529,624.407,498.302,635.979,498.302,641.56z"/>
<path fill="none" stroke="#000000" stroke-width="2" d="M501.402,645.34c5.739-5.139,6.832-13.65,4.885-20.896
	c-0.948-3.527-3.024-6.191-5.205-9.06c-3.064-4.022,3.871-4.495,6.3-1.242c5.699,7.633,7.386,17,4.111,26.099
	c-1.262,3.381-3.974,9.935-8.467,9.935C499.979,650.175,499.519,647.106,501.402,645.34z"/>
<path fill="none" stroke="#000000" stroke-width="2" d="M389.847,355.793c-8.142,0-16.236-5.219-19.959-12.403
	c-4.186-8.073-0.945-14.286,2.546-21.704c6.793-14.434,18.404-27.568,27.878-40.348c23.614-31.859,50.456-61.21,77.447-90.211
	c-23.303,0.809-46.609,1.039-69.908,1.843c-16.271,0.562-44.934-4.022-37.514-27.229c6.554-20.503,32.226-16.094,48.918-15.315
	c22.139,1.032,44.341,0.072,66.489-0.414c10.734-0.235,21.471-0.474,32.207-0.474c9.853,0,22.309-0.17,29.148,8.387
	c14.798,18.516-13.602,35.739-24.828,45.994c-34.826,31.812-65.479,70.213-93.202,108.255c27.158,0.782,55.212,4.104,82.293,1.059
	c11.407-1.282,25.835-7.845,36.726-2.412c11.165,5.592,15.381,21.062,6.932,30.886c-7.668,8.916-21.099,10.145-31.985,11.905
	c-14.819,2.395-29.61,2.333-44.567,1.8C448.987,354.363,419.125,350.521,389.847,355.793
	C386.237,355.793,401.116,353.764,389.847,355.793z"/>
<g>
	<path fill="none" stroke="#231F20" stroke-width="2" stroke-miterlimit="10" d="M357.374,450.449
		c-0.347-1.148-0.655-2.409-0.944-3.748c-0.353-5.328-1.036-10.664-1.949-15.938c-0.187-1.071-0.38-2.14-0.584-3.204
		c-0.008-0.042-0.017-0.083-0.024-0.124c-0.196-1.018-0.401-2.033-0.612-3.045c-0.045-0.215-0.091-0.429-0.136-0.644
		c-0.186-0.874-0.376-1.746-0.571-2.615c-0.045-0.2-0.09-0.399-0.135-0.6c-0.483-2.12-0.994-4.222-1.528-6.3
		c-0.036-0.14-0.073-0.277-0.108-0.417c-0.224-0.864-0.451-1.725-0.682-2.58c-0.074-0.273-0.148-0.547-0.223-0.819
		c-0.205-0.752-0.413-1.5-0.623-2.245c-0.073-0.262-0.146-0.524-0.221-0.785c-0.277-0.975-0.557-1.943-0.84-2.903
		c-0.655-2.218-1.316-4.409-1.978-6.592c-0.48-1.584-0.961-3.164-1.441-4.736v0c-4.763-15.592-9.447-30.622-12.678-47.169
		c-7.675-39.29-25.385-81.136-67.983-93.419c-30.457-8.776-62.932,17.237-77.481,41.589c-6.459,10.819-13.325,23.781-17.073,35.716
		c-4.492,14.285-3.424,29.786-8.61,43.997c-7.875,21.588-14.649,46.668-19.041,69.167c-6.412,32.871,8.842,58.968,35.443,74.304
		c4.078,2.35,8.428,4.45,13.003,6.277c37.032,14.807,88.87,20.059,126.15-0.521c3.384-1.866,6.64-3.959,9.763-6.265
		c17.867-7.775,34.898-21.791,46.886-34.465C364.416,473.454,360.938,462.255,357.374,450.449z"/>
	<path fill="none" stroke="#231F20" stroke-width="2" stroke-miterlimit="10" d="M466.061,399.581
		c-17.364-15.037-43.403-7.525-59.02,6.382c14.858-18.308,8.846-39.022-4.232-51.923c-4.331,0.419-8.653,0.978-12.962,1.753
		c-0.181,0-0.304-0.006-0.397-0.016c-8.007-0.167-15.899-5.32-19.562-12.387c-0.237-0.457-0.443-0.906-0.634-1.352
		c-7.148,1.473-13.768,5.887-18.66,14.142c0.088-0.147,13.561,20.401,14.592,22.67c4.33,9.531,8.523,21.331,6.959,31.991
		c-0.199,1.356-0.465,2.631-0.793,3.838c4.168,2.748,8.519,5.521,13.076,8.506c7.756,5.081,15.2,10.367,22.66,15.59
		c4.012-2.698,8.675-4.371,14.338-4.419c10.281-0.087,45.017,11.01,45.84,23.134C473.905,441.279,482.203,413.561,466.061,399.581z"
		/>
</g>
<path fill="none" stroke="#231F20" stroke-width="2" stroke-miterlimit="10" d="M141.908,443.036
	c3.088-15.822,7.359-32.918,12.358-49.182c-11.174,11.966-23.992,19.494-39.009,29.33c-18.19,11.915-34.659,24.963-53.661,35.668
	c-7.763,4.374-19.704,7.663-18.667,18.921c1.002,10.885,15.492,15.118,23.666,18.305c21.532,8.4,40.849,3.866,58.249-12.072
	c8.4-7.696,12.341-17.3,15.633-27.61C140.555,452.08,141.013,447.627,141.908,443.036z"/>
<path fill="none" stroke="#231F20" stroke-width="2" stroke-miterlimit="10" d="M342.015,501.656
	c-7.188,9.065-15.866,16.122-25.51,21.44c-37.28,20.579-89.119,15.327-126.15,0.521c-4.575-1.827-8.925-3.928-13.003-6.277
	c-26.601-15.336-41.855-41.433-35.443-74.304c4.392-22.499,11.167-47.579,19.041-69.167c5.186-14.21,4.119-29.711,8.61-43.997
	c3.748-11.935,10.613-24.897,17.073-35.716c14.549-24.352,47.024-50.366,77.481-41.589c42.599,12.283,60.309,54.129,67.983,93.419
	c4.005,20.514,10.241,38.678,16.097,58.497C357.35,435.517,363.802,474.187,342.015,501.656z"/>
<path fill="none" stroke="#231F20" stroke-width="2" stroke-miterlimit="10" d="M438.089,458.853
	c-19.001-10.705-35.472-23.753-53.661-35.668c-15.308-10.026-28.328-17.656-39.653-30.03c1.142,3.737,2.287,7.496,3.419,11.328
	c3.888,13.177,7.278,27.73,8.236,42.219c0.289,1.339,0.598,2.6,0.944,3.748c3.786,12.54,7.47,24.397,17.468,33.557
	c17.4,15.938,36.716,20.473,58.248,12.072c8.175-3.187,22.663-7.42,23.666-18.305C457.792,466.516,445.853,463.227,438.089,458.853z
	"/>
</svg>
